<svg width="49" height="49" viewBox="0 0 49 49" fill="none" xmlns="http://www.w3.org/2000/svg">
<g filter="url(#filter0_di_100_506)">
<path fill-rule="evenodd" clip-rule="evenodd" d="M5.1764 17.1764C5.1764 10.5767 5.1764 7.27691 7.22665 5.22665C9.27691 3.1764 12.5767 3.1764 19.1764 3.1764H29.4117C36.0114 3.1764 39.3112 3.1764 41.3615 5.22665C43.4117 7.27691 43.4117 10.5767 43.4117 17.1764V27.4116C43.4117 34.0112 43.4117 37.3111 41.3615 39.3613C39.3112 41.4116 36.0114 41.4116 29.4117 41.4116H19.1764C12.5767 41.4116 9.27691 41.4116 7.22665 39.3613C5.1764 37.3111 5.1764 34.0112 5.1764 27.4116V17.1764Z" fill="#F59231"/>
</g>
<g filter="url(#filter1_di_100_506)">
<path d="M29.5613 23.4429L30.2246 19.1178H26.0749V16.3123C26.0749 15.1288 26.6535 13.9744 28.5122 13.9744H30.4V10.2922C30.4 10.2922 28.6875 10 27.051 10C23.6318 10 21.3991 12.0719 21.3991 15.8214V19.1178H17.6V23.4429H21.3991V33.8991C22.1618 34.019 22.9421 34.0803 23.737 34.0803C24.5319 34.0803 25.3122 34.019 26.0749 33.8991V23.4429H29.5613Z" fill="url(#paint0_linear_100_506)"/>
</g>
<defs>
<filter id="filter0_di_100_506" x="0.176392" y="-6.82361" width="48.2353" height="55.2351" filterUnits="userSpaceOnUse" color-interpolation-filters="sRGB">
<feFlood flood-opacity="0" result="BackgroundImageFix"/>
<feColorMatrix in="SourceAlpha" type="matrix" values="0 0 0 0 0 0 0 0 0 0 0 0 0 0 0 0 0 0 127 0" result="hardAlpha"/>
<feOffset dy="2"/>
<feGaussianBlur stdDeviation="2.5"/>
<feColorMatrix type="matrix" values="0 0 0 0 0 0 0 0 0 0 0 0 0 0 0 0 0 0 0.15 0"/>
<feBlend mode="normal" in2="BackgroundImageFix" result="effect1_dropShadow_100_506"/>
<feBlend mode="normal" in="SourceGraphic" in2="effect1_dropShadow_100_506" result="shape"/>
<feColorMatrix in="SourceAlpha" type="matrix" values="0 0 0 0 0 0 0 0 0 0 0 0 0 0 0 0 0 0 127 0" result="hardAlpha"/>
<feOffset dy="-10.2292"/>
<feGaussianBlur stdDeviation="5"/>
<feComposite in2="hardAlpha" operator="arithmetic" k2="-1" k3="1"/>
<feColorMatrix type="matrix" values="0 0 0 0 0 0 0 0 0 0 0 0 0 0 0 0 0 0 0.25 0"/>
<feBlend mode="normal" in2="shape" result="effect2_innerShadow_100_506"/>
</filter>
<filter id="filter1_di_100_506" x="12.6" y="7" width="22.8" height="34.0803" filterUnits="userSpaceOnUse" color-interpolation-filters="sRGB">
<feFlood flood-opacity="0" result="BackgroundImageFix"/>
<feColorMatrix in="SourceAlpha" type="matrix" values="0 0 0 0 0 0 0 0 0 0 0 0 0 0 0 0 0 0 127 0" result="hardAlpha"/>
<feOffset dy="2"/>
<feGaussianBlur stdDeviation="2.5"/>
<feColorMatrix type="matrix" values="0 0 0 0 0.862745 0 0 0 0 0.4 0 0 0 0 0.333333 0 0 0 0.5 0"/>
<feBlend mode="normal" in2="BackgroundImageFix" result="effect1_dropShadow_100_506"/>
<feBlend mode="normal" in="SourceGraphic" in2="effect1_dropShadow_100_506" result="shape"/>
<feColorMatrix in="SourceAlpha" type="matrix" values="0 0 0 0 0 0 0 0 0 0 0 0 0 0 0 0 0 0 127 0" result="hardAlpha"/>
<feOffset/>
<feGaussianBlur stdDeviation="1"/>
<feComposite in2="hardAlpha" operator="arithmetic" k2="-1" k3="1"/>
<feColorMatrix type="matrix" values="0 0 0 0 0 0 0 0 0 0 0 0 0 0 0 0 0 0 0.15 0"/>
<feBlend mode="normal" in2="shape" result="effect2_innerShadow_100_506"/>
</filter>
<linearGradient id="paint0_linear_100_506" x1="24" y1="10" x2="24" y2="34.0803" gradientUnits="userSpaceOnUse">
<stop stop-color="#FFFEFE"/>
<stop offset="1" stop-color="#D8D8D8"/>
</linearGradient>
</defs>
</svg>
