<?xml version="1.0" encoding="UTF-8"?>
<svg width="66px" height="66px" viewBox="0 0 66 66" version="1.1" xmlns="http://www.w3.org/2000/svg" xmlns:xlink="http://www.w3.org/1999/xlink">
    <title>98E55884-864D-49AB-87E5-91FC462512B9@1x</title>
    <defs>
        <rect id="path-1" x="0" y="0" width="60" height="60" rx="10"></rect>
        <filter x="-7.5%" y="-7.5%" width="115.0%" height="115.0%" filterUnits="objectBoundingBox" id="filter-2">
            <feMorphology radius="0.5" operator="dilate" in="SourceAlpha" result="shadowSpreadOuter1"></feMorphology>
            <feOffset dx="0" dy="0" in="shadowSpreadOuter1" result="shadowOffsetOuter1"></feOffset>
            <feGaussianBlur stdDeviation="1" in="shadowOffsetOuter1" result="shadowBlurOuter1"></feGaussianBlur>
            <feColorMatrix values="0 0 0 0 0   0 0 0 0 0   0 0 0 0 0  0 0 0 0.1 0" type="matrix" in="shadowBlurOuter1"></feColorMatrix>
        </filter>
        <filter id="filter-3">
            <feColorMatrix in="SourceGraphic" type="matrix" values="0 0 0 0 1.000000 0 0 0 0 1.000000 0 0 0 0 1.000000 0 0 0 1.000000 0"></feColorMatrix>
        </filter>
    </defs>
    <g id="Comfortable-Themes" stroke="none" stroke-width="1" fill="none" fill-rule="evenodd">
        <g id="Outsourcing-IT-Profesional---alt" transform="translate(-125.000000, -6060.000000)">
            <g id="Group-146" transform="translate(128.000000, 6063.000000)">
                <g id="Rectangle">
                    <use fill="black" fill-opacity="1" filter="url(#filter-2)" xlink:href="#path-1"></use>
                    <use fill="#045B9B" fill-rule="evenodd" xlink:href="#path-1"></use>
                </g>
                <g filter="url(#filter-3)" id="building">
                    <g transform="translate(18.000000, 15.000000)">
                        <path d="M23.4405847,28.0645161 L21.5322581,28.0645161 L21.5322581,4.35483871 C21.5322581,3.82034274 21.0990121,3.38709677 20.5645161,3.38709677 L13.3064516,3.38709677 L13.3064516,0.967741935 C13.3064516,0.433245968 12.8732056,0 12.3387097,0 L5.625,0 C5.09050403,0 4.65725806,0.433245968 4.65725806,0.967741935 L4.65725806,3.38709677 L3.87096774,3.38709677 C3.33647177,3.38709677 2.90322581,3.82034274 2.90322581,4.35483871 L2.90322581,28.0645161 L0.994899194,28.0645161 C0.473649194,28.0645161 0.0253427419,28.4652823 0.00108870968,28.9859274 C-0.0247983871,29.5417137 0.417701613,30 0.967741935,30 L7.86290323,30 C8.13012097,30 8.34677419,29.7833468 8.34677419,29.516129 L8.34677419,23.9516129 L7.95072581,23.9516129 C7.42965726,23.9516129 6.98129032,23.5511492 6.95673387,23.0306855 C6.93054435,22.4749597 7.37340726,22.016129 7.9233871,22.016129 C8.21558468,22.016129 16.7265121,22.016129 16.4847581,22.016129 C17.0058266,22.016129 17.4541935,22.4165927 17.47875,22.9370565 C17.5049395,23.4927823 17.0621371,23.9516129 16.5120968,23.9516129 L16.0887097,23.9516129 L16.0887097,29.516129 C16.0887097,29.7833468 16.3053629,30 16.5725806,30 L23.4677419,30 C24.0177823,30 24.4602823,29.5417137 24.4343952,28.9859274 C24.4101411,28.4652823 23.9618347,28.0645161 23.4405847,28.0645161 Z M9.85887097,20.0201613 L8.77016129,20.0201613 C8.23572581,20.0201613 7.80241935,19.5868548 7.80241935,19.0524194 C7.80241935,18.5179839 8.23572581,18.0846774 8.77016129,18.0846774 L9.85887097,18.0846774 C10.3933065,18.0846774 10.8266129,18.5179839 10.8266129,19.0524194 C10.8266129,19.5868548 10.3933065,20.0201613 9.85887097,20.0201613 Z M9.85887097,16.391129 L8.77016129,16.391129 C8.23572581,16.391129 7.80241935,15.9578226 7.80241935,15.4233871 C7.80241935,14.8889516 8.23572581,14.4556452 8.77016129,14.4556452 L9.85887097,14.4556452 C10.3933065,14.4556452 10.8266129,14.8889516 10.8266129,15.4233871 C10.8266129,15.9578226 10.3933065,16.391129 9.85887097,16.391129 Z M9.85887097,12.7620968 L8.77016129,12.7620968 C8.23572581,12.7620968 7.80241935,12.3287903 7.80241935,11.7943548 C7.80241935,11.2599194 8.23572581,10.8266129 8.77016129,10.8266129 L9.85887097,10.8266129 C10.3933065,10.8266129 10.8266129,11.2599194 10.8266129,11.7943548 C10.8266129,12.3287903 10.3933065,12.7620968 9.85887097,12.7620968 Z M9.85887097,9.13306452 L8.77016129,9.13306452 C8.23572581,9.13306452 7.80241935,8.69975806 7.80241935,8.16532258 C7.80241935,7.6308871 8.23572581,7.19758065 8.77016129,7.19758065 L9.85887097,7.19758065 C10.3933065,7.19758065 10.8266129,7.6308871 10.8266129,8.16532258 C10.8266129,8.69975806 10.3933065,9.13306452 9.85887097,9.13306452 Z M15.6048387,20.0201613 L14.516129,20.0201613 C13.9816331,20.0201613 13.5483871,19.5868548 13.5483871,19.0524194 C13.5483871,18.5179839 13.9816331,18.0846774 14.516129,18.0846774 L15.6048387,18.0846774 C16.1393347,18.0846774 16.5725806,18.5179839 16.5725806,19.0524194 C16.5725806,19.5868548 16.1393347,20.0201613 15.6048387,20.0201613 Z M15.6048387,16.391129 L14.516129,16.391129 C13.9816331,16.391129 13.5483871,15.9578226 13.5483871,15.4233871 C13.5483871,14.8889516 13.9816331,14.4556452 14.516129,14.4556452 L15.6048387,14.4556452 C16.1393347,14.4556452 16.5725806,14.8889516 16.5725806,15.4233871 C16.5725806,15.9578226 16.1393347,16.391129 15.6048387,16.391129 Z M15.6048387,12.7620968 L14.516129,12.7620968 C13.9816331,12.7620968 13.5483871,12.3287903 13.5483871,11.7943548 C13.5483871,11.2599194 13.9816331,10.8266129 14.516129,10.8266129 L15.6048387,10.8266129 C16.1393347,10.8266129 16.5725806,11.2599194 16.5725806,11.7943548 C16.5725806,12.3287903 16.1393347,12.7620968 15.6048387,12.7620968 Z M15.6048387,9.13306452 L14.516129,9.13306452 C13.9816331,9.13306452 13.5483871,8.69975806 13.5483871,8.16532258 C13.5483871,7.6308871 13.9816331,7.19758065 14.516129,7.19758065 L15.6048387,7.19758065 C16.1393347,7.19758065 16.5725806,7.6308871 16.5725806,8.16532258 C16.5725806,8.69975806 16.1393347,9.13306452 15.6048387,9.13306452 Z M10.2822581,29.516129 L10.2822581,24.4354839 C10.2822581,24.1682661 10.4989113,23.9516129 10.766129,23.9516129 L13.6693548,23.9516129 C13.9365726,23.9516129 14.1532258,24.1682661 14.1532258,24.4354839 L14.1532258,29.516129 C14.1532258,29.7833468 13.9365726,30 13.6693548,30 L10.766129,30 C10.4989113,30 10.2822581,29.7833468 10.2822581,29.516129 Z" id="Shape" fill="#000000" fill-rule="nonzero"></path>
                    </g>
                </g>
            </g>
        </g>
    </g>
</svg>