<?xml version="1.0" encoding="UTF-8"?>
<svg width="66px" height="66px" viewBox="0 0 66 66" version="1.1" xmlns="http://www.w3.org/2000/svg" xmlns:xlink="http://www.w3.org/1999/xlink">
    <title>DC324D2D-193F-482C-B430-849243C72EBB@1x</title>
    <defs>
        <rect id="path-1" x="0" y="0" width="60" height="60" rx="10"></rect>
        <filter x="-7.5%" y="-7.5%" width="115.0%" height="115.0%" filterUnits="objectBoundingBox" id="filter-2">
            <feMorphology radius="0.5" operator="dilate" in="SourceAlpha" result="shadowSpreadOuter1"></feMorphology>
            <feOffset dx="0" dy="0" in="shadowSpreadOuter1" result="shadowOffsetOuter1"></feOffset>
            <feGaussianBlur stdDeviation="1" in="shadowOffsetOuter1" result="shadowBlurOuter1"></feGaussianBlur>
            <feColorMatrix values="0 0 0 0 0   0 0 0 0 0   0 0 0 0 0  0 0 0 0.1 0" type="matrix" in="shadowBlurOuter1"></feColorMatrix>
        </filter>
        <filter id="filter-3">
            <feColorMatrix in="SourceGraphic" type="matrix" values="0 0 0 0 1.000000 0 0 0 0 1.000000 0 0 0 0 1.000000 0 0 0 1.000000 0"></feColorMatrix>
        </filter>
        <filter id="filter-4">
            <feColorMatrix in="SourceGraphic" type="matrix" values="0 0 0 0 1.000000 0 0 0 0 1.000000 0 0 0 0 1.000000 0 0 0 1.000000 0"></feColorMatrix>
        </filter>
    </defs>
    <g id="Comfortable-Themes" stroke="none" stroke-width="1" fill="none" fill-rule="evenodd">
        <g id="Outsourcing-IT-Profesional---alt" transform="translate(-800.000000, -6060.000000)">
            <g id="Group-149" transform="translate(803.000000, 6063.000000)">
                <g id="Rectangle">
                    <use fill="black" fill-opacity="1" filter="url(#filter-2)" xlink:href="#path-1"></use>
                    <use fill="#045B9B" fill-rule="evenodd" xlink:href="#path-1"></use>
                </g>
                <g id="Group-17" transform="translate(15.000000, 17.000000)">
                    <path d="M3.11235294,13.0611765 C4.62588235,13.0611765 5.88529412,13.1517647 6.16529412,11.6629412 C6.20294118,11.4605882 6.22470588,11.2311765 6.22470588,10.9658824 L6.15294118,10.9658824 L-4.54747351e-13,10.9658824 C-4.54747351e-13,13.1805882 1.39352941,13.0611765 3.11235294,13.0611765 Z" id="Path" fill="#F59331" fill-rule="nonzero"></path>
                    <path d="M24.0470588,10.9658824 L23.9888235,10.9658824 C23.9888235,11.2329412 24.0117647,11.4629412 24.0547059,11.6629412 C24.35,13.0358824 25.6076471,12.9505882 27.1158824,12.9505882 C28.8429412,12.9505882 30.2429412,13.0641176 30.2429412,10.9658824 L24.0470588,10.9658824 Z" id="Path" fill="#F59331" fill-rule="nonzero"></path>
                    <rect id="Rectangle" fill="#F59331" x="9" y="11" width="11" height="9" rx="1"></rect>
                    <g filter="url(#filter-3)" id="icon/phone2">
                        <g transform="translate(-0.000000, 0.000000)"></g>
                    </g>
                    <g filter="url(#filter-4)" id="old-typical-phone">
                        <g transform="translate(-0.000000, 0.000000)">
                            <path d="M15.2876471,4.86705882 C20.3835294,4.91705882 23.5758824,4.6 24.0070588,10.2482353 L30.2211765,10.2482353 C30.2211765,1.49823529 22.59,0.318823529 15.1258824,0.318823529 C7.66117647,0.318823529 0.0305882353,1.49823529 0.0305882353,10.2482353 L6.19647059,10.2482353 C6.67352941,4.49235294 10.2341176,4.81764706 15.2876471,4.86705882 Z" id="Path" fill="#010002" fill-rule="nonzero"></path>
                            <path d="M21.0111765,9.45764706 L21.0111765,8.57764706 C21.0111765,8.18411765 20.5576471,8.15941176 19.9976471,8.15941176 L19.0829412,8.15941176 C18.5235294,8.15941176 18.07,8.18411765 18.07,8.57764706 L18.07,9.33588235 L18.07,9.92411765 L11.5994118,9.92411765 L11.5994118,9.33588235 L11.5994118,8.57764706 C11.5994118,8.18411765 11.1458824,8.15941176 10.5864706,8.15941176 L9.67117647,8.15941176 C9.11176471,8.15941176 8.65823529,8.18411765 8.65823529,8.57764706 L8.65823529,9.45764706 L8.65823529,10.2258824 C7.18411765,11.7576471 2.36058824,18.2782353 2.18529412,19.0676471 L2.18764706,24.3352941 C2.18764706,24.8217647 2.58352941,25.2176471 3.07,25.2176471 L26.5994118,25.2176471 C27.0858824,25.2176471 27.4817647,24.8217647 27.4817647,24.3352941 L27.4817647,19.0411765 C27.3082353,18.2747059 22.4858824,11.7570588 21.0111765,10.2252941 L21.0111765,9.45764706 Z M11.2805882,19.7764706 C10.8070588,19.7764706 10.4229412,19.3929412 10.4229412,18.9188235 C10.4229412,18.4447059 10.8070588,18.0611765 11.2805882,18.0611765 C11.7541176,18.0611765 12.1382353,18.4447059 12.1382353,18.9188235 C12.1382353,19.3929412 11.7541176,19.7764706 11.2805882,19.7764706 Z M11.2805882,16.8352941 C10.8070588,16.8352941 10.4229412,16.4517647 10.4229412,15.9776471 C10.4229412,15.5035294 10.8070588,15.12 11.2805882,15.12 C11.7541176,15.12 12.1382353,15.5035294 12.1382353,15.9776471 C12.1382353,16.4517647 11.7541176,16.8352941 11.2805882,16.8352941 Z M11.2805882,13.8947059 C10.8070588,13.8947059 10.4229412,13.5111765 10.4229412,13.0370588 C10.4229412,12.5635294 10.8070588,12.1794118 11.2805882,12.1794118 C11.7541176,12.1794118 12.1382353,12.5635294 12.1382353,13.0370588 C12.1382353,13.5111765 11.7541176,13.8947059 11.2805882,13.8947059 Z M14.81,19.7764706 C14.3364706,19.7764706 13.9523529,19.3929412 13.9523529,18.9188235 C13.9523529,18.4447059 14.3364706,18.0611765 14.81,18.0611765 C15.2841176,18.0611765 15.6676471,18.4447059 15.6676471,18.9188235 C15.6676471,19.3929412 15.2841176,19.7764706 14.81,19.7764706 Z M14.81,16.8352941 C14.3364706,16.8352941 13.9523529,16.4517647 13.9523529,15.9776471 C13.9523529,15.5035294 14.3364706,15.12 14.81,15.12 C15.2841176,15.12 15.6676471,15.5035294 15.6676471,15.9776471 C15.6676471,16.4517647 15.2841176,16.8352941 14.81,16.8352941 Z M14.81,13.8947059 C14.3364706,13.8947059 13.9523529,13.5111765 13.9523529,13.0370588 C13.9523529,12.5635294 14.3364706,12.1794118 14.81,12.1794118 C15.2841176,12.1794118 15.6676471,12.5635294 15.6676471,13.0370588 C15.6676471,13.5111765 15.2841176,13.8947059 14.81,13.8947059 Z M18.3394118,19.7764706 C17.8652941,19.7764706 17.4817647,19.3929412 17.4817647,18.9188235 C17.4817647,18.4447059 17.8652941,18.0611765 18.3394118,18.0611765 C18.8135294,18.0611765 19.1970588,18.4447059 19.1970588,18.9188235 C19.1970588,19.3929412 18.8135294,19.7764706 18.3394118,19.7764706 Z M18.3394118,16.8352941 C17.8652941,16.8352941 17.4817647,16.4517647 17.4817647,15.9776471 C17.4817647,15.5035294 17.8652941,15.12 18.3394118,15.12 C18.8135294,15.12 19.1970588,15.5035294 19.1970588,15.9776471 C19.1970588,16.4517647 18.8135294,16.8352941 18.3394118,16.8352941 Z M18.3394118,13.8947059 C17.8652941,13.8947059 17.4817647,13.5111765 17.4817647,13.0370588 C17.4817647,12.5635294 17.8652941,12.1794118 18.3394118,12.1794118 C18.8135294,12.1794118 19.1970588,12.5635294 19.1970588,13.0370588 C19.1970588,13.5111765 18.8135294,13.8947059 18.3394118,13.8947059 Z" id="Shape" fill="#010002" fill-rule="nonzero"></path>
                        </g>
                    </g>
                </g>
            </g>
        </g>
    </g>
</svg>