<?xml version="1.0" encoding="UTF-8"?>
<svg width="66px" height="66px" viewBox="0 0 66 66" version="1.1" xmlns="http://www.w3.org/2000/svg" xmlns:xlink="http://www.w3.org/1999/xlink">
    <title>0C387529-1B73-47E0-A22A-9D17210FB0D6@1x</title>
    <defs>
        <rect id="path-1" x="0" y="0" width="60" height="60" rx="10"></rect>
        <filter x="-7.5%" y="-7.5%" width="115.0%" height="115.0%" filterUnits="objectBoundingBox" id="filter-2">
            <feMorphology radius="0.5" operator="dilate" in="SourceAlpha" result="shadowSpreadOuter1"></feMorphology>
            <feOffset dx="0" dy="0" in="shadowSpreadOuter1" result="shadowOffsetOuter1"></feOffset>
            <feGaussianBlur stdDeviation="1" in="shadowOffsetOuter1" result="shadowBlurOuter1"></feGaussianBlur>
            <feColorMatrix values="0 0 0 0 0   0 0 0 0 0   0 0 0 0 0  0 0 0 0.1 0" type="matrix" in="shadowBlurOuter1"></feColorMatrix>
        </filter>
        <filter id="filter-3">
            <feColorMatrix in="SourceGraphic" type="matrix" values="0 0 0 0 1.000000 0 0 0 0 1.000000 0 0 0 0 1.000000 0 0 0 1.000000 0"></feColorMatrix>
        </filter>
    </defs>
    <g id="Comfortable-Themes" stroke="none" stroke-width="1" fill="none" fill-rule="evenodd">
        <g id="Outsourcing-IT-Profesional---alt" transform="translate(-800.000000, -6140.000000)">
            <g id="Group-148" transform="translate(803.000000, 6143.000000)">
                <g id="Rectangle">
                    <use fill="black" fill-opacity="1" filter="url(#filter-2)" xlink:href="#path-1"></use>
                    <use fill="#045B9B" fill-rule="evenodd" xlink:href="#path-1"></use>
                </g>
                <g filter="url(#filter-3)" id="worker">
                    <g transform="translate(14.000000, 13.000000)">
                        <path d="M31.229824,31.0076531 C31.2081403,30.8602041 31.1734031,30.7214286 31.1257423,30.5869898 C30.7831403,29.2686658 29.9981913,26.8660714 29.6426224,25.7905612 C29.6035918,25.6040816 29.5428342,25.4219388 29.4647296,25.2528061 C29.2478929,24.780102 28.892324,24.3897959 28.4543138,24.1295918 C28.4282934,24.1122449 28.3719158,24.0818444 28.2981913,24.0428571 C28.2677908,24.0298036 28.237477,24.0125 28.2070332,23.9994898 C27.3441097,23.5918367 24.6942781,22.5336301 24.6942781,22.5336301 C23.3672372,21.9612245 21.9968724,21.4711301 20.5960638,20.9724056 C20.3445765,22.0132219 17.9723393,28.9216837 17.5950867,29.8800587 L17.295852,23.4616913 C17.3956403,23.3099056 17.4649847,23.1364362 17.5430893,22.9716403 L18.5318214,21.0157296 C17.8336071,21.596852 16.7884974,21.9654745 15.6218724,21.9654745 C14.4813112,21.9654745 13.4578852,21.614199 12.7596276,21.0547602 L13.7310561,22.9715969 C13.8091173,23.1363929 13.8785051,23.3098622 13.97825,23.461648 L13.6790153,29.8800153 C13.2973827,28.9215969 10.920852,22.0088418 10.6736582,20.9680255 C9.27289286,21.46675 7.90248469,21.956801 6.57544388,22.52925 C6.57544388,22.52925 3.92569898,23.59175 3.06268878,23.9950663 C3.03233163,24.0080765 3.00197449,24.0211301 2.97161735,24.0384337 C2.89789286,24.0731276 2.84151531,24.1034847 2.8154949,24.1251684 C2.37748469,24.3897526 2.02187245,24.7800587 1.80503571,25.2483827 C1.72697449,25.421852 1.6662602,25.6040383 1.62722959,25.7904745 C1.27161735,26.8659847 0.486668367,29.264199 0.144066327,30.5869031 C0.0963622449,30.7213852 0.0616683673,30.8644541 0.0399846939,31.0075663 C0.0183010204,31.1333316 0.00962755102,31.2677704 0.00962755102,31.3978724 C0.00962755102,32.811648 1.15452551,33.9565459 2.56830102,33.9565459 L5.00988265,33.9565459 C8.50529082,33.9565459 12.000699,33.9608827 15.4961071,33.9565459 C15.5438112,33.9565459 15.5871786,33.9565459 15.6348827,33.9565459 C15.6825867,33.9565459 15.7259541,33.9565459 15.7736582,33.9565459 C19.2690663,33.9565459 22.7644311,33.9565459 26.259926,33.9565459 L28.7014643,33.9565459 C30.1152398,33.9565459 31.2601378,32.811648 31.2601378,31.3978724 C31.2601378,31.2678571 31.2471709,31.1334184 31.229824,31.0076531 Z" id="Path" fill="#000000" fill-rule="nonzero"></path>
                        <path d="M22.3134974,9.08545918 C22.3134974,8.63443878 22.4002321,6.99515306 22.4002321,6.61785714 C22.4045689,2.9619898 19.438199,0 15.7822883,0 L15.7822883,0 L15.7822883,0 C15.7779515,0 15.7736582,0 15.7693214,0 C15.7649847,0 15.7606046,0 15.7562679,0 L15.7562679,0 L15.7562679,0 C15.7129005,0 15.6738699,0 15.6305026,0 C15.5871352,0 15.548148,0 15.5047806,0 L15.5047806,0 L15.5047806,0 C15.5004005,0 15.4961071,0 15.491727,0 C15.4873903,0 15.4830969,0 15.4787168,0 L15.4787168,0 L15.4787168,0 C11.8228495,0 8.85652296,2.96632653 8.85652296,6.62219388 C8.85652296,6.9994898 8.94325765,8.63443878 8.94325765,9.08979592 C8.78279847,9.09846939 7.2996352,8.74285714 7.46009439,10.5165816 C7.79835969,14.2808673 9.23381888,13.5522959 9.27718622,13.5522959 C9.98407398,15.8204082 11.0812679,17.2688776 12.1567781,18.192602 C13.8350944,19.632398 15.4613699,19.7885204 15.4916837,19.7885204 C15.5394311,19.7885204 15.5827985,19.7929005 15.6304592,19.7929005 L15.6304592,19.7929005 L15.6304592,19.7929005 C15.6738265,19.7929005 15.721574,19.7929005 15.7692781,19.7885204 C15.7952985,19.7885204 17.4129005,19.632398 19.0825434,18.2099923 C20.1623036,17.2906046 21.2681709,15.8377985 21.9794388,13.5523393 C22.0228061,13.5523393 23.4582653,14.2809107 23.7965306,10.516625 C23.9570332,8.73852041 22.4739133,9.09413265 22.3134974,9.08545918 Z" id="Path" fill="#000000" fill-rule="nonzero"></path>
                    </g>
                </g>
            </g>
        </g>
    </g>
</svg>