<?xml version="1.0" encoding="UTF-8"?>
<svg width="328px" height="328px" viewBox="0 0 328 328" version="1.1" xmlns="http://www.w3.org/2000/svg" xmlns:xlink="http://www.w3.org/1999/xlink">
    <title>F468AB33-D934-4EFA-942B-B59A0A17AC29@1x</title>
    <defs>
        <linearGradient x1="50%" y1="127.970827%" x2="48.0358025%" y2="-30.2896276%" id="linearGradient-1">
            <stop stop-color="#F59231" offset="0%"></stop>
            <stop stop-color="#FFD9B3" offset="100%"></stop>
        </linearGradient>
        <circle id="path-2" cx="149.5" cy="149.5" r="149.5"></circle>
        <filter x="-1.5%" y="-1.5%" width="103.0%" height="103.0%" filterUnits="objectBoundingBox" id="filter-4">
            <feMorphology radius="0.5" operator="dilate" in="SourceAlpha" result="shadowSpreadOuter1"></feMorphology>
            <feOffset dx="0" dy="0" in="shadowSpreadOuter1" result="shadowOffsetOuter1"></feOffset>
            <feGaussianBlur stdDeviation="1" in="shadowOffsetOuter1" result="shadowBlurOuter1"></feGaussianBlur>
            <feColorMatrix values="0 0 0 0 0   0 0 0 0 0   0 0 0 0 0  0 0 0 0.1 0" type="matrix" in="shadowBlurOuter1"></feColorMatrix>
        </filter>
        <circle id="path-5" cx="225.609091" cy="194.35" r="149.5"></circle>
        <filter x="-50.2%" y="-50.2%" width="200.3%" height="200.3%" filterUnits="objectBoundingBox" id="filter-6">
            <feGaussianBlur stdDeviation="50" in="SourceGraphic"></feGaussianBlur>
        </filter>
    </defs>
    <g id="Comfortable-Themes" stroke="none" stroke-width="1" fill="none" fill-rule="evenodd">
        <g id="Outsourcing-IT-Profesional---alt" transform="translate(-234.000000, -5437.000000)">
            <g id="Group-158" transform="translate(234.000000, 5437.000000)">
                <g id="Group-144">
                    <circle id="Oval" fill="url(#linearGradient-1)" cx="163.5" cy="163.5" r="163.5"></circle>
                    <g id="Group-7" transform="translate(14.000000, 14.000000)">
                        <mask id="mask-3" fill="white">
                            <use xlink:href="#path-2"></use>
                        </mask>
                        <g id="Oval">
                            <use fill="black" fill-opacity="1" filter="url(#filter-4)" xlink:href="#path-2"></use>
                            <use fill="#FFFFFF" fill-rule="evenodd" xlink:href="#path-2"></use>
                        </g>
                        <g id="Oval" opacity="0.5" filter="url(#filter-6)" mask="url(#mask-3)">
                            <use fill="#C5E0EE" xlink:href="#path-5"></use>
                            <use fill="#FFEFDF" xlink:href="#path-5"></use>
                        </g>
                    </g>
                </g>
                <g id="Group-145" transform="translate(22.000000, 63.000000)">
                    <g id="Group-43" transform="translate(23.000000, 0.000000)">
                        <path d="M15.2127871,0.00115037121 C15.2127871,0.00115037121 -9.14048836,-1.18835856 3.77863351,72.932821 C3.77863351,72.932821 12.4698699,98.0926985 1.49794537,114.309278 L163.00578,114.309278 L163.00578,0.00115037121 L15.2127871,0.00115037121 Z" id="Fill-1" fill="#BDE3FF"></path>
                        <polygon id="Fill-3" fill="#8CCEFF" points="25.8092486 264 194.248555 264 194.248555 43.5463918 25.8092486 43.5463918"></polygon>
                        <polygon id="Fill-5" fill="#FBFDFF" points="31.2427746 264 196.965318 264 196.965318 43.5463918 31.2427746 43.5463918"></polygon>
                        <path d="M197.20373,43.5441085 L197.201673,43.5463918 L30.626279,43.5463918 C31.547689,31.1198957 30.1595307,22.0963969 27.9348257,15.6077684 C23.6628573,3.1305343 16.300578,0 16.300578,0 L173.397253,0 C186.805144,0 197.201673,7.96890952 200.031737,18.5454983 C200.136916,18.9437916 200.235923,19.3398016 200.320786,19.7358117 C203.007611,31.8370772 197.314053,43.3228909 197.20373,43.5441085" id="Fill-6" fill="#F2FAFF"></path>
                        <path d="M197.216834,43.5440563 L197.214783,43.5463918 L31.208273,43.5463918 C32.1265362,30.8358174 30.7431188,21.6060352 28.5260116,14.9690722 C45.4912,18.1143444 87.5091104,24.8169583 132.483762,23.68766 C161.57961,22.9569376 184.572326,20.9858553 200.323244,19.1914854 C203.000892,31.5693942 197.326779,43.3177815 197.216834,43.5440563" id="Fill-7" fill-opacity="0.27587976" fill="#BDE3FF"></path>
                        <path d="M151.85942,93.8969072 L64.1232387,93.8969072 C63.2226627,93.8969072 62.4855491,93.1654417 62.4855491,92.2720759 L62.4855491,91.439011 C62.4855491,90.5451384 63.2226627,89.814433 64.1232387,89.814433 L151.85942,89.814433 C152.759996,89.814433 153.49711,90.5451384 153.49711,91.439011 L153.49711,92.2720759 C153.49711,93.1654417 152.759996,93.8969072 151.85942,93.8969072" id="Fill-8" fill="#8CCEFF"></path>
                        <path d="M119.595252,100.701031 L65.144889,100.701031 C64.4295289,100.701031 63.8439306,100.123865 63.8439306,99.418496 L63.8439306,97.9010916 C63.8439306,97.1957227 64.4295289,96.6185567 65.144889,96.6185567 L119.595252,96.6185567 C120.310612,96.6185567 120.895954,97.1957227 120.895954,97.9010916 L120.895954,99.418496 C120.895954,100.123865 120.310612,100.701031 119.595252,100.701031" id="Fill-9" fill="#8CCEFF"></path>
                        <path d="M151.85942,138.804124 L64.1232387,138.804124 C63.2226627,138.804124 62.4855491,138.073165 62.4855491,137.179546 L62.4855491,136.346227 C62.4855491,135.452862 63.2226627,134.721649 64.1232387,134.721649 L151.85942,134.721649 C152.759996,134.721649 153.49711,135.452862 153.49711,136.346227 L153.49711,137.179546 C153.49711,138.073165 152.759996,138.804124 151.85942,138.804124" id="Fill-11" fill="#D7EFFF"></path>
                        <path d="M119.595252,145.608247 L65.144889,145.608247 C64.4295289,145.608247 63.8439306,145.031552 63.8439306,144.325886 L63.8439306,142.808134 C63.8439306,142.102975 64.4295289,141.525773 65.144889,141.525773 L119.595252,141.525773 C120.310612,141.525773 120.895954,142.102975 120.895954,142.808134 L120.895954,144.325886 C120.895954,145.031552 120.310612,145.608247 119.595252,145.608247" id="Fill-12" fill="#D7EFFF"></path>
                        <path d="M151.85942,174.185567 L64.1232387,174.185567 C63.2226627,174.185567 62.4855491,173.454608 62.4855491,172.561242 L62.4855491,171.727924 C62.4855491,170.834052 63.2226627,170.103093 64.1232387,170.103093 L151.85942,170.103093 C152.759996,170.103093 153.49711,170.834052 153.49711,171.727924 L153.49711,172.561242 C153.49711,173.454608 152.759996,174.185567 151.85942,174.185567" id="Fill-14" fill="#D7EFFF"></path>
                        <path d="M119.595252,180.989691 L65.144889,180.989691 C64.4295289,180.989691 63.8439306,180.412778 63.8439306,179.707156 L63.8439306,178.189498 C63.8439306,177.484129 64.4295289,176.907216 65.144889,176.907216 L119.595252,176.907216 C120.310612,176.907216 120.895954,177.484129 120.895954,178.189498 L120.895954,179.707156 C120.895954,180.412778 120.310612,180.989691 119.595252,180.989691" id="Fill-15" fill="#D7EFFF"></path>
                        <path d="M142.277061,58.5154639 L87.2891555,58.5154639 C86.3481547,58.5154639 85.5780347,57.8618057 85.5780347,57.06289 L85.5780347,55.8855636 C85.5780347,55.0868661 86.3481547,54.4329897 87.2891555,54.4329897 L142.277061,54.4329897 C143.218319,54.4329897 143.988439,55.0868661 143.988439,55.8855636 L143.988439,57.06289 C143.988439,57.8618057 143.218319,58.5154639 142.277061,58.5154639" id="Fill-17" fill="#8CCEFF"></path>
                        <path d="M156.821198,65.3195876 L72.7452763,65.3195876 C71.5850724,65.3195876 70.6358382,64.5180547 70.6358382,63.5381126 L70.6358382,63.0188065 C70.6358382,62.0388644 71.5850724,61.2371134 72.7452763,61.2371134 L156.821198,61.2371134 C157.981402,61.2371134 158.930636,62.0388644 158.930636,63.0188065 L158.930636,63.5381126 C158.930636,64.5180547 157.981402,65.3195876 156.821198,65.3195876" id="Fill-18" fill="#8CCEFF"></path>
                        <path d="M109.349965,118.391753 C91.4482838,118.391753 74.4604096,116.072345 61.7962465,112.756698 C49.0014308,109.407257 42.1098266,103.932523 42.1098266,99.0768039 C42.1098266,94.6758499 47.7263635,90.628282 58.3523471,87.3710522 C48.1693137,90.4925859 42.7230056,95.0753412 42.7230056,99.0768039 C42.7230056,103.51679 49.7823017,107.911457 62.0907855,111.133584 C74.7102985,114.437443 91.4939488,116.25729 109.349711,116.25729 C127.205219,116.25729 143.98887,114.437443 156.608636,111.133584 C168.91712,107.911457 175.976416,103.51679 175.976416,99.0768039 C175.976416,94.3745941 168.542921,88.5312798 156.576925,83.8264505 C142.971048,78.4766718 126.198814,76.4920511 109.349965,76.4920511 C77.7175901,76.4920511 64.6959717,80.3049014 53.3984595,85.083342 C64.7451884,80.2842064 77.6054572,74.8453608 109.349711,74.8453608 C126.266297,74.8453608 143.110834,77.8052643 156.780387,83.1799294 C168.999063,87.9840422 176.589595,94.075172 176.589595,99.0768039 C176.589595,103.932523 169.543238,108.45136 156.748676,111.801062 C144.084259,115.116447 127.251138,118.391753 109.349965,118.391753" id="Fill-19" fill="#FA412B"></path>
                        <path d="M218.699422,159.06037 C218.699422,159.06037 218.034437,164.933676 217.304155,166.044378 C216.574161,167.1556 213.465454,170.705323 212.141211,171.401852 C210.816967,172.098381 212.949961,166.724527 212.6799,165.678564 C212.410126,164.633121 211.58992,167.586934 211.006268,167.656612 C210.422902,167.726031 210.572968,165.067054 210.552062,164.09935 C210.531155,163.131905 213.391853,160.743323 214.400214,158.682856 C215.408861,156.62239 218.699422,159.06037 218.699422,159.06037" id="Fill-20" fill="#FFB48D"></path>
                        <path d="M148.063584,105.992367 L146.759999,103.644443 C146.759999,103.644443 147.407146,99.4601271 141.914563,96.8132886 C141.914563,96.8132886 139.907329,96.0330442 138.774006,97.5961699 C137.730335,99.035607 140.763159,98.7755255 140.600431,101.23779 C140.437703,103.700294 141.662183,105.145245 143.366812,105.947542 L144.775367,107.505155 L148.063584,105.992367 Z" id="Fill-21" fill="#FFB48D"></path>
                        <path d="M201.040462,100.21436 C201.040462,100.21436 196.222393,124.057442 169.708774,131.847541 C161.432662,134.279748 142.630058,106.805943 142.630058,106.805943 C142.630058,106.805943 143.29109,104.273126 147.43248,104.855056 C147.43248,104.855056 165.740016,117.07532 168.045035,118.403155 C170.090207,119.581239 183.539658,103.260568 189.671326,100.627918 C195.802226,97.9955272 201.040462,100.21436 201.040462,100.21436" id="Fill-22" fill="#E68004"></path>
                        <polygon id="Fill-23" fill="#C65447" points="154.855491 100.17734 154.090732 104.783505 129.046243 101.224722 129.810741 96.6185567"></polygon>
                        <polygon id="Fill-24" fill="#FFB48D" points="123.612717 96.56557 129.56806 99.3402062 130.404624 95.257732"></polygon>
                        <path d="M156.198389,101.546767 L156.007676,103.201687 C155.890283,104.219382 155.17542,104.917779 154.411335,104.761696 L153.49711,104.574615 L154.100552,99.3402062 L155.095099,99.5434709 C155.815316,99.6907761 156.308985,100.587774 156.198389,101.546767" id="Fill-25" fill="#FFB48D"></path>
                        <path d="M232.214533,249.05638 C232.214533,249.05638 235.570245,251.983519 234.915223,254.063434 C234.260463,256.143099 231.232392,257.529626 230.823102,260.07155 C230.414073,262.613724 228.777172,264 227.30383,264 L220.280204,264 C220.280204,264 219.196002,262.211498 221.815305,261.672196 C224.434085,261.132894 225.421459,258.145971 225.2579,255.372918 C225.094079,252.599864 225.503108,248.902543 225.503108,248.902543 L231.068833,247.670103 L232.214533,249.05638 Z" id="Fill-26" fill="#0A6F7F"></path>
                        <path d="M192.765114,255.586015 C192.765114,255.586015 193.383337,261.974448 191.87069,262.639175 L172.514451,262.603912 C172.514451,262.603912 172.514451,260.609251 175.623303,260.165939 C178.732424,259.722868 184.194074,258.097633 185.11832,254.477736 C186.042835,250.85808 192.765114,255.586015 192.765114,255.586015" id="Fill-27" fill="#0A6F7F"></path>
                        <path d="M175.231214,158.16389 C175.231214,158.16389 176.203826,170.211624 177.346344,184.693887 C178.899555,204.366786 180.767503,228.531678 180.951994,233.109358 C181.271592,241.058421 182.553823,253.77434 182.553823,253.77434 C182.553823,253.77434 185.593204,256.795242 191.676826,255.521844 C191.676826,255.521844 197.097712,237.370107 198.646061,218.164862 C198.67037,217.850254 198.693911,217.532808 198.71822,217.215878 C200.158842,197.664538 202.398844,156.494845 202.398844,156.494845 L175.231214,158.16389 Z" id="Fill-28" fill="#2C94E0"></path>
                        <path d="M175.231214,160.836994 C175.231214,160.836994 176.203826,172.534309 177.346344,186.595343 L198.646061,219.092784 C198.67037,218.787327 198.693911,218.479114 198.71822,218.171402 C200.158842,199.188731 202.398844,159.216495 202.398844,159.216495 L175.231214,160.836994 Z" id="Fill-29" fill="#1179C5"></path>
                        <path d="M180.66474,161.620896 C180.66474,161.620896 198.272904,205.141059 209.850573,225.593062 C221.429012,246.044808 225.047259,251.752577 225.047259,251.752577 C225.047259,251.752577 231.680367,249.136677 232.283237,247.352758 C232.283237,247.352758 227.855937,207.869452 220.102185,198.244268 C215.720904,192.80576 210.574273,176.484315 210.333126,170.776546 C210.092235,165.069292 208.765664,153.773196 208.765664,153.773196 L180.66474,161.620896 Z" id="Fill-30" fill="#2C94E0"></path>
                        <path d="M203.757225,93.7733887 C203.757225,93.7733887 191.694515,99.6848552 184.739884,97.4913204 C184.739884,97.4913204 186.452122,95.2985787 189.447366,93.666316 C189.207111,92.2484629 189.019957,91.0180531 188.912455,89.9750864 C188.618579,87.5674063 188.618579,86.2034861 188.618579,86.2034861 L193.272179,82.4855544 L197.685524,78.9278351 C197.337767,88.9318553 203.757225,93.7733887 203.757225,93.7733887" id="Fill-31" fill="#FFB48D"></path>
                        <path d="M209.190751,155.547619 C209.216196,156.279365 207.699609,157.115461 207.031129,157.42903 C202.069573,159.676701 197.442506,161.244544 192.198247,161.767589 C186.002806,162.420814 178.676304,160.983409 176.157249,161.035585 C175.900064,161.035585 175.668649,160.931492 175.463251,160.748362 C175.283372,160.617407 175.15453,152.908115 175.283372,143.212804 C175.283372,142.820714 175.283372,142.428624 175.308641,142.036534 L175.308641,141.906354 C175.360177,138.116411 175.488519,134.144629 175.668649,130.172331 C176.028657,121.443296 176.696886,113.028346 177.828197,108.376735 C179.190673,102.888769 182.275384,99.2561266 185.077393,96.6168818 L187.391051,94.5257361 C189.70471,94.9963472 192.14671,94.8659089 194.589211,93.6379807 C197.262377,92.3044104 200.141441,90.8675227 200.604773,91.2330082 C204.100529,93.8725114 206.465474,99.8050007 207.725377,107.383596 C208.445143,111.748242 208.805151,116.635159 208.779132,121.756864 C208.779132,123.638792 208.727595,125.572637 208.624772,127.480652 C208.007829,137.82893 208.624772,146.818842 208.98503,152.019327 C209.087854,153.535511 209.164659,154.711264 209.190751,155.547619" id="Fill-32" fill="#F7941D"></path>
                        <path d="M209.190751,155.134021 C168.265414,155.050438 201.642323,109.707966 201.642323,109.707966 L208.272764,107.505155 C208.797076,112.162299 209.05961,117.37666 209.040948,122.842285 C209.040948,124.850328 209.003623,126.913578 208.928469,128.949482 C208.479311,139.992174 208.928469,149.584556 209.190751,155.134021" id="Fill-33" fill="#000000" opacity="0.102894"></path>
                        <path d="M196.965318,83.3019866 C196.965318,83.3019866 194.248323,89.4548801 189.076872,91.1752577 C188.815029,88.550738 188.815029,87.0638175 188.815029,87.0638175 L192.961374,83.0103093 L196.965318,83.3019866 Z" id="Fill-34" fill="#F6A071"></path>
                        <path d="M186.835466,86.86471 C186.835466,86.86471 197.575597,88.7550517 198.583554,81.6513713 C199.591998,74.5474296 201.65723,70.0068978 194.842522,68.500009 C188.027815,66.9928588 186.3078,69.4903996 185.4269,71.7751724 C184.546,74.0594224 184.067651,86.1903348 186.835466,86.86471" id="Fill-35" fill="#FFB48D"></path>
                        <path d="M202.895392,67.7758985 C202.997458,67.6591813 203.232897,67.5645869 203.757225,67.5358526 C203.757225,67.5358526 203.338017,67.2739381 202.7778,67.2602066 C202.667843,66.5319317 202.280196,65.2427021 201.025371,64.9291675 C201.025371,64.9291675 201.699871,65.2884736 201.787684,66.0630285 C200.334326,64.5713872 197.220169,63.4860949 188.596488,64.1663097 C177.231535,65.0624134 180.977177,72.3319395 182.448352,73.1988002 C183.919781,74.0651524 187.623426,71.6896133 190.364698,71.9067734 C193.10597,72.1241879 193.627499,76.0816398 194.557292,76.6247946 C195.487339,77.167695 195.121582,76.2075114 196.379716,75.6391823 C197.63836,75.0708533 197.757733,77.1539636 197.394521,78.5082905 C197.0308,79.8626173 198.759812,81.6494845 198.759812,81.6494845 L200.506896,79.7692944 C202.25398,77.8893585 203.900525,69.927666 203.106141,68.2305618 C203.036146,68.0802788 202.96666,67.9287244 202.895392,67.7758985" id="Fill-36" fill="#4A2009"></path>
                        <path d="M200.936714,91.1752577 C200.936714,91.1752577 207.977943,94.6253491 211.353816,99.9295553 C216.590434,108.156897 222.660511,138.142606 222.772528,140.91909 C222.884545,143.695834 218.342183,163.298969 218.342183,163.298969 C218.342183,163.298969 213.734875,162.984827 212.546485,160.578489 C212.546485,160.578489 213.46704,140.436936 212.884047,139.142078 C212.30055,137.847219 193.676988,112.124046 195.771082,106.634897 C197.865427,101.145748 200.936714,91.1752577 200.936714,91.1752577" id="Fill-37" fill="#F7941D"></path>
                        <path d="M145.29397,103.741705 C145.29397,103.741705 145.590864,102.26032 144.777285,101.594584 C143.96351,100.928602 143.215321,99.1175544 142.872166,99.3628903 C142.16165,99.8710685 143.261193,101.451328 143.059945,103.422398 C142.989479,104.112544 144.261575,105.921126 145.29397,103.741705" id="Fill-38" fill="#FFB48D"></path>
                        <path d="M159.04619,216.371134 L56.9359559,216.371134 C56.2525036,216.371134 55.6936416,215.758805 55.6936416,215.010029 C55.6936416,214.261533 56.2525036,213.649485 56.9359559,213.649485 L159.04619,213.649485 C159.729643,213.649485 160.289017,214.261533 160.289017,215.010029 C160.289017,215.758805 159.729643,216.371134 159.04619,216.371134" id="Fill-39" fill="#D7EFFF"></path>
                        <path d="M159.04619,221.814433 L56.9359559,221.814433 C56.2525036,221.814433 55.6936416,221.201886 55.6936416,220.453468 C55.6936416,219.705049 56.2525036,219.092784 56.9359559,219.092784 L159.04619,219.092784 C159.729643,219.092784 160.289017,219.705049 160.289017,220.453468 C160.289017,221.201886 159.729643,221.814433 159.04619,221.814433" id="Fill-40" fill="#D7EFFF"></path>
                        <path d="M159.04619,227.257732 L56.9359559,227.257732 C56.2525036,227.257732 55.6936416,226.645403 55.6936416,225.896907 C55.6936416,225.148131 56.2525036,224.536082 56.9359559,224.536082 L159.04619,224.536082 C159.729643,224.536082 160.289017,225.148131 160.289017,225.896907 C160.289017,226.645403 159.729643,227.257732 159.04619,227.257732" id="Fill-41" fill="#D7EFFF"></path>
                        <path d="M145.546658,232.701031 L56.8519301,232.701031 C56.2147818,232.701031 55.6936416,232.129131 55.6936416,231.43089 L55.6936416,231.249522 C55.6936416,230.55072 56.2147818,229.979381 56.8519301,229.979381 L145.546658,229.979381 C146.183806,229.979381 146.705202,230.55072 146.705202,231.249522 L146.705202,231.43089 C146.705202,232.129131 146.183806,232.701031 145.546658,232.701031" id="Fill-42" fill="#D7EFFF"></path>
                    </g>
                    <line x1="0.68" y1="264.5" x2="305.32" y2="264.5" id="Line" stroke="#8CCEFF" stroke-linecap="square"></line>
                </g>
            </g>
        </g>
    </g>
</svg>