<?xml version="1.0" encoding="UTF-8"?>
<svg width="249px" height="183px" viewBox="0 0 249 183" version="1.1" xmlns="http://www.w3.org/2000/svg" xmlns:xlink="http://www.w3.org/1999/xlink">
    <title>C7070CEB-14B9-438B-BA98-80FF6523BD9F@1x</title>
    <defs>
        <path d="M85.6353524,1.41550759 L35.709581,62.1967091 C34.587181,63.5633508 35.5603365,65.6186374 37.3300952,65.6186374 L37.3300952,65.6186374 L46.9275937,65.6186374 L0.083968254,155.260644 L5.75452698,172.91175 L21.8632889,172.91175 C24.7493143,172.91175 27.3723365,171.235867 28.5822095,168.618549 L28.5822095,168.618549 L75.0603175,68.0762293 L81.7516381,68.8410177 C85.1417651,69.2285902 88.1621397,66.6928128 88.3630794,63.2901391 L88.3630794,63.2901391 L91.8726603,3.85355312 C91.8766032,3.78630776 91.8793778,3.71935413 91.8793778,3.65356745 L91.8793778,3.65356745 L91.8793778,3.59303204 C91.8625841,1.49602698 90.118527,0.120341484 88.3210222,0.120341484 L88.3210222,0.120341484 C87.3544381,0.120341484 86.3723746,0.518124789 85.6353524,1.41550759" id="path-1"></path>
        <linearGradient x1="50%" y1="0%" x2="50%" y2="100%" id="linearGradient-3">
            <stop stop-color="#57C6F2" offset="0%"></stop>
            <stop stop-color="#2C94E0" offset="100%"></stop>
        </linearGradient>
        <path d="M0.0535444685,12.6976969 L33.4577701,85.7980219 C35.4365553,90.1277531 39.8081735,92.9120859 44.6283557,92.9120859 L44.6283557,92.9120859 L61.8488764,92.9120859 C64.1337354,92.9120859 66.2386377,91.6911703 67.347141,89.7229125 L67.347141,89.7229125 L67.9595835,88.6352484 C66.109423,88.6352484 64.4153232,87.6132656 63.5742473,85.9896891 L63.5742473,85.9896891 L19.0669935,0.0809390625 L0.0535444685,12.6976969 Z" id="path-4"></path>
        <linearGradient x1="100%" y1="50%" x2="-2.22044605e-14%" y2="50%" id="linearGradient-6">
            <stop stop-color="#57C6F2" offset="0%"></stop>
            <stop stop-color="#2C94E0" offset="100%"></stop>
        </linearGradient>
        <path d="M56.8231443,5.49759712 C45.1828197,15.9315511 0.0204262295,84.9053957 0.0204262295,84.9053957 L0.0204262295,84.9053957 L5.58365574,100.867465 L12.4194393,100.867465 C19.4413934,100.867465 25.998359,97.3692317 29.889118,91.5464 L29.889118,91.5464 L78.4686738,18.8484892 C80.8079148,15.3479309 85.6487852,14.5819295 88.9620656,17.1877295 L88.9620656,17.1877295 L86.5574607,11.3842259 C85.1570967,8.0047223 82.8645443,5.03808345 79.844818,2.95937266 L79.844818,2.95937266 C76.7091,0.800733813 73.5618557,0.0178748201 70.6442607,0.0178748201 L70.6442607,0.0178748201 C62.9278148,0.0178748201 56.8231443,5.49759712 56.8231443,5.49759712" id="path-7"></path>
        <linearGradient x1="50%" y1="0%" x2="50%" y2="100%" id="linearGradient-9">
            <stop stop-color="#57C6F2" offset="0%"></stop>
            <stop stop-color="#2C94E0" offset="100%"></stop>
        </linearGradient>
        <path d="M0,11.8544847 C7.15219929,14.3715519 30.974224,46.5992505 42.6173527,62.812888 L42.6173527,62.812888 C46.7609118,68.5828595 53.421552,72 60.5169541,72 L60.5169541,72 L66.9613845,72 C73.1235855,72 78.8353616,68.7667454 82.0145397,63.4789246 L82.0145397,63.4789246 L82.9792134,61.8742485 C71.3270088,68.5627699 61.397164,56.3173442 46.4374021,29.4650102 L46.4374021,29.4650102 C31.4777866,2.61223625 23.9688483,0.0494175153 23.9688483,0.0494175153 L23.9688483,0.0494175153 C8.15873898,1.6385499 0,11.8544847 0,11.8544847" id="path-10"></path>
        <linearGradient x1="50%" y1="100%" x2="50%" y2="3.061617e-15%" id="linearGradient-12">
            <stop stop-color="#57C6F2" offset="0%"></stop>
            <stop stop-color="#2C94E0" offset="100%"></stop>
        </linearGradient>
        <filter id="filter-13">
            <feColorMatrix in="SourceGraphic" type="matrix" values="0 0 0 0 1.000000 0 0 0 0 1.000000 0 0 0 0 1.000000 0 0 0 1.000000 0"></feColorMatrix>
        </filter>
        <polygon id="path-14" points="0.139835347 0.265293168 12.8393746 0.265293168 12.8393746 61 0.139835347 61"></polygon>
        <polygon id="path-16" points="0.172419718 0.265293168 12.871991 0.265293168 12.871991 61 0.172419718 61"></polygon>
        <path d="M0.00417241379,6.27161111 L0,6.7375 L0,6.83861111 C0.0273103448,10.1437778 2.82168966,12.838 6.31248276,12.8990556 L6.31248276,12.8990556 L48.1007241,13.6278333 C51.5759655,13.6885 54.4723793,11.1136667 54.6415517,7.81433333 L54.6415517,7.81433333 L54.6635517,7.38772222 C54.8387931,3.94722222 51.9890345,1.04805556 48.3647241,0.981166667 L48.3647241,0.981166667 L6.55865517,0.2135 C6.51617241,0.212722222 6.47331034,0.212333333 6.43082759,0.212333333 L6.43082759,0.212333333 C2.9112069,0.211944444 0.034137931,2.91083333 0.00417241379,6.27161111" id="path-18"></path>
        <path d="M2.85046914,2.79514286 L29.3665679,2.79514286 C30.2594444,2.79514286 30.8228025,1.83771429 30.6096296,0.971571429 L30.6096296,0.971571429 C27.587321,1.24328571 21.1672593,1.70485714 12.3751235,1.70485714 L12.3751235,1.70485714 C4.88001235,1.70485714 1.56377778,0.985285714 0.0811358025,0.328285714 L0.0811358025,0.328285714 C0.369320988,1.70657143 1.46541975,2.79514286 2.85046914,2.79514286" id="path-20"></path>
        <linearGradient x1="-0.000107528368%" y1="50.0007801%" x2="99.9997387%" y2="50.0007801%" id="linearGradient-22">
            <stop stop-color="#3F42E2" offset="0%"></stop>
            <stop stop-color="#4F52FF" offset="100%"></stop>
        </linearGradient>
        <path d="M19.0309,0.369904762 C10.8441875,0.483047619 7.99025,1.35619048 1.6286625,0.418666667 L1.6286625,0.418666667 L0.1274875,5.30933333 C-0.0251875,5.80761905 -0.0279,6.30590476 0.08215,6.768 L0.08215,6.768 C1.583325,7.352 4.9410125,7.99161905 12.5298125,7.99161905 L12.5298125,7.99161905 C21.43185,7.99161905 27.9321625,7.58133333 30.99225,7.33980952 L30.99225,7.33980952 C30.94885,7.184 30.884525,7.0312381 30.77215,6.89028571 L30.77215,6.89028571 C28.7466875,4.34780952 24.6965375,0.368761905 19.189,0.368761905 L19.189,0.368761905 C19.1363,0.368761905 19.0836,0.369142857 19.0309,0.369904762" id="path-23"></path>
        <linearGradient x1="77.2160784%" y1="6.4670542%" x2="49.9207012%" y2="52.0761354%" id="linearGradient-25">
            <stop stop-color="#08005D" offset="0%"></stop>
            <stop stop-color="#1A0E90" offset="100%"></stop>
        </linearGradient>
        <path d="M0.0738181818,6.05463158 C0.0738181818,6.05463158 3.90363636,7.82084211 7.272,6.40315789 L7.272,6.40315789 L7.93309091,1.24194737 L1.80254545,0.0972631579 L0.0738181818,6.05463158 Z" id="path-26"></path>
        <linearGradient x1="-0.00224587054%" y1="50.0035024%" x2="100.003768%" y2="50.0035024%" id="linearGradient-28">
            <stop stop-color="#FF918E" offset="0%"></stop>
            <stop stop-color="#FDB3B1" offset="100%"></stop>
        </linearGradient>
        <path d="M10.4363636,12.2292308 C4.65340909,16.9473077 1.69848485,18.5334615 0.19280303,19.0096154 L0.19280303,19.0096154 C1.17386364,19.7876923 2.61969697,19.8553846 3.68863636,18.9834615 L3.68863636,18.9834615 L24.1462121,2.29307692 C24.8352273,1.73076923 24.7424242,0.709615385 24.1003788,0.240769231 L24.1003788,0.240769231 C21.9185606,2.33269231 17.2200758,6.69538462 10.4363636,12.2292308" id="path-29"></path>
        <linearGradient x1="-0.000610873426%" y1="49.9995933%" x2="100.000379%" y2="49.9995933%" id="linearGradient-31">
            <stop stop-color="#3F42E2" offset="0%"></stop>
            <stop stop-color="#4F52FF" offset="100%"></stop>
        </linearGradient>
        <path d="M13.3695634,2.98615385 C7.17743662,8.16461538 5.53728169,10.6230769 0.0867042254,13.8442308 L0.0867042254,13.8442308 L1.98240845,18.6076923 C2.17559155,19.0934615 2.48323944,19.485 2.85553521,19.7788462 L2.85553521,19.7788462 C4.36715493,19.3026923 7.33373239,17.7165385 13.139493,12.9984615 L13.139493,12.9984615 C19.9499577,7.46461538 24.6669718,3.10192308 26.8573944,1.01 L26.8573944,1.01 C26.727338,0.915384615 26.5832113,0.835384615 26.4098028,0.794615385 L26.4098028,0.794615385 C25.1541127,0.501153846 23.504831,0.228846154 21.7087606,0.228846154 L21.7087606,0.228846154 C18.9829014,0.228846154 15.9174507,0.855769231 13.3695634,2.98615385" id="path-32"></path>
        <linearGradient x1="73.3631747%" y1="-76.2478313%" x2="42.357812%" y2="81.9742841%" id="linearGradient-34">
            <stop stop-color="#08005D" offset="0%"></stop>
            <stop stop-color="#1A0E90" offset="100%"></stop>
        </linearGradient>
        <path d="M0.262465116,10.0893057 L48.9766047,18.0510155 C53.2431977,27.7879585 47.5096395,72.6910052 47.5096395,72.6910052 L47.5096395,72.6910052 C53.1004535,74.427513 55.6130581,73.2193575 55.6130581,73.2193575 L55.6130581,73.2193575 C55.6130581,73.2193575 72.3747558,12.3718031 63.1451163,8.03034197 L63.1451163,8.03034197 C53.9154767,3.68888083 8.92419767,0.0184041451 8.92419767,0.0184041451 L8.92419767,0.0184041451 L0.262465116,10.0893057 Z" id="path-35"></path>
        <path d="M0.214814815,2.82406667 C0.617777778,3.1878 4.52888889,10.9981667 4.52888889,10.9981667 L4.52888889,10.9981667 C4.52888889,10.9981667 8.88407407,10.065 9.77185185,7.337 L9.77185185,7.337 L5.8537037,0.287833333 L0.214814815,2.82406667 Z" id="path-37"></path>
        <linearGradient x1="-0.00229925593%" y1="49.9981044%" x2="100.001185%" y2="49.9981044%" id="linearGradient-39">
            <stop stop-color="#FF918E" offset="0%"></stop>
            <stop stop-color="#FDB3B1" offset="100%"></stop>
        </linearGradient>
        <path d="M0.370666667,8.15138462 C0.452571429,14.5632 5.62780952,19.7663487 12.0571429,20.0854974 L12.0571429,20.0854974 L64.8605714,22.4846154 C65.975619,22.5354667 66.9188571,23.3039282 67.1984762,24.3809128 L67.1984762,24.3809128 C68.4392381,29.1616923 74.504,43.8436718 104.151619,73.1400821 L104.151619,73.1400821 C104.94019,73.9199282 106.168762,74.0519897 107.10819,73.4611282 L107.10819,73.4611282 L111.328762,70.8054769 C111.771429,70.5269333 111.913143,69.9482154 111.648381,69.4981436 L111.648381,69.4981436 L80.903619,17.1987385 C79.2887619,14.5434667 76.6929524,12.6259179 73.6742857,11.8570769 L73.6742857,11.8570769 L28.6693333,0.397702564 L1.76685714,0.0258051282 C1.76685714,0.0258051282 0.311238095,3.51443077 0.370666667,8.15138462" id="path-40"></path>
        <path d="M0.0957692308,14.0348727 L12.1311538,20.7010364 C12.1311538,20.7010364 18.6342308,13.2429818 24.83,10.1357455 L24.83,10.1357455 L20.9373077,0.335618182 C20.9373077,0.335618182 5.91769231,9.17890909 0.0957692308,14.0348727" id="path-42"></path>
        <path d="M42.6931951,0.40815508 C36.4857561,4.16621925 7.27926829,24.0428021 0.0458536585,69.1198289 L0.0458536585,69.1198289 C0.0458536585,69.1198289 14.3441707,72.582123 27.9925122,69.1198289 L27.9925122,69.1198289 C27.9925122,69.1198289 47.0894146,43.6107059 54.4779675,36.667893 L54.4779675,36.667893 C54.4779675,36.667893 66.263122,55.1461176 92.4944715,57.7651444 L92.4944715,57.7651444 L93.9572033,54.5166096 C93.9572033,54.5166096 73.0746829,44.9517326 66.6452358,30.2543529 L66.6452358,30.2543529 C60.2165528,15.5569733 57.6346098,9.28847059 51.7859756,5.45371123 L51.7859756,5.45371123 C48.1429024,3.06552941 45.9617967,1.43442781 44.8349431,0.543320856 L44.8349431,0.543320856 C44.4937154,0.273748663 44.0806504,0.136304813 43.6656748,0.136304813 L43.6656748,0.136304813 C43.330561,0.136304813 42.9939187,0.225909091 42.6931951,0.40815508" id="path-44"></path>
        <path d="M0.287619048,0.267166667 C0.128,0.329388889 0.048,0.512555556 0.109333333,0.6755 L0.109333333,0.6755 C0.134857143,0.743555556 2.712,7.53122222 7.19733333,13.5041667 L7.19733333,13.5041667 C7.25866667,13.5850556 7.35085714,13.6278333 7.44419048,13.6278333 L7.44419048,13.6278333 C7.50971429,13.6278333 7.576,13.6064444 7.63238095,13.5625 L7.63238095,13.5625 C7.76838095,13.4559444 7.79428571,13.2576111 7.68990476,13.1191667 L7.68990476,13.1191667 C3.25752381,7.21816667 0.71352381,0.516055556 0.688380952,0.449166667 L0.688380952,0.449166667 C0.641142857,0.323166667 0.523428571,0.246166667 0.39847619,0.246166667 L0.39847619,0.246166667 C0.36152381,0.246166667 0.324190476,0.252777778 0.287619048,0.267166667" id="path-46"></path>
        <linearGradient x1="80.3697882%" y1="-8.91405464%" x2="-78.5965941%" y2="299.45268%" id="linearGradient-48">
            <stop stop-color="#3F42E2" offset="0%"></stop>
            <stop stop-color="#4F52FF" offset="100%"></stop>
        </linearGradient>
        <path d="M12.1108197,0.2504 L3.2652459,2.4236 L0.351032787,3.2472 L1.82152459,5.8452 L22.8258033,5.8828 L15.2203443,0.8064 C14.5608852,0.366 13.8033934,0.138 13.0368525,0.138 L13.0368525,0.138 C12.7276721,0.1384 12.4169836,0.1752 12.1108197,0.2504" id="path-49"></path>
        <linearGradient x1="0.00186823695%" y1="50.0014942%" x2="100.000695%" y2="50.0014942%" id="linearGradient-51">
            <stop stop-color="#F9B675" offset="0%"></stop>
            <stop stop-color="#F47960" offset="100%"></stop>
        </linearGradient>
        <polygon id="path-52" points="0.128581682 0.23223871 27.5356323 0.23223871 27.5356323 94.2849462 0.128581682 94.2849462"></polygon>
        <polygon id="path-54" points="0.327897849 0.23223871 27.7348295 0.23223871 27.7348295 94.2849462 0.327897849 94.2849462"></polygon>
        <path d="M2.93066667,0.210285714 C2.00685714,0.210285714 1.2007619,0.846095238 0.975619048,1.7527619 L0.975619048,1.7527619 L0.176380952,4.96190476 C-0.143238095,6.24533333 0.811428571,7.49295238 2.11961905,7.50019048 L2.11961905,7.50019048 L69.6224762,7.89336433 C70.9451429,7.90057143 71.9169524,6.63885714 71.5862857,5.34285714 L71.5862857,5.34285714 L70.6678095,1.74095238 C70.4380952,0.84 69.6350476,0.210285714 68.7158095,0.210285714 L68.7158095,0.210285714 L2.93066667,0.210285714 Z" id="path-56"></path>
        <path d="M1.64153846,1.023375 C-0.483846154,3.564 0.378846154,12.244875 0.378846154,12.244875 L0.378846154,12.244875 C0.897307692,17.861625 4.36115385,22.404375 10.2315385,23.714625 L10.2315385,23.714625 C16.1011538,25.02525 16.3703846,21.615 18.0934615,16.8945 L18.0934615,16.8945 C19.8161538,12.17325 19.6761538,1.779375 19.6761538,1.779375 L19.6761538,1.779375 C19.6761538,1.779375 11.3869231,0.061875 5.97576923,0.061875 L5.97576923,0.061875 C3.89076923,0.061875 2.23307692,0.316875 1.64153846,1.023375" id="path-58"></path>
        <path d="M5.6502069,4.80737931 C5.52124138,5.09641379 5.14231034,5.12637931 4.95682759,4.86996552 L4.95682759,4.86996552 C4.59155172,4.36434483 3.86403448,3.89324138 2.44237931,4.33627586 L2.44237931,4.33627586 C-0.0307241379,5.10551724 -0.95662069,9.40613793 1.67313793,14.3675172 L1.67313793,14.3675172 C1.79868966,14.6034483 1.67237931,14.8996897 1.40951724,14.9474828 L1.40951724,14.9474828 C0.484758621,15.1158966 -1.07041379,15.7861379 1.10606897,18.464069 L1.10606897,18.464069 C3.33186207,21.203069 5.10058621,21.7485172 5.81027586,21.8535862 L5.81027586,21.8535862 C6.00144828,21.8820345 6.18313793,21.773931 6.24686207,21.5911034 L6.24686207,21.5911034 L7.70606897,17.4084483 C7.78193103,17.1926207 8.02393103,17.0845172 8.2352069,17.1732759 L8.2352069,17.1732759 L9.68910345,17.7835862 L10.3711034,18.0699655 C10.3711034,18.0699655 9.9807931,11.1263103 12.8745517,11.1505862 L12.8745517,11.1505862 C15.7686897,11.1744828 26.3867241,13.2857241 29.9533793,10.7014828 L29.9533793,10.7014828 C33.3922069,8.21017241 33.3922069,3.12665517 31.1857586,0.777965517 L31.1857586,0.777965517 C31.0461724,0.629275862 30.8094828,0.625482759 30.652069,0.754827586 L30.652069,0.754827586 L30.2484828,1.08596552 C29.9727241,1.31241379 29.5604138,1.08748276 29.6017586,0.732068966 L29.6017586,0.732068966 C29.6412069,0.39562069 29.2634138,0.160448276 28.9872759,0.356172414 L28.9872759,0.356172414 C27.9054828,1.12275862 25.4483103,2.07634483 20.3936207,0.972551724 L20.3936207,0.972551724 C18.2398966,0.502206897 16.2329655,0.249586128 14.4255517,0.249586128 L14.4255517,0.249586128 C10.2133103,0.249206897 7.07755172,1.6207931 5.6502069,4.80737931" id="path-60"></path>
        <path d="M2.06666667,0.0341818182 C-1.46416667,0.535636364 0.58375,6.66509091 2.73458333,7.69272727 L2.73458333,7.69272727 L4.60041667,5.57018182 C4.60041667,5.57018182 5.51958333,0.00472727273 2.46791667,0.00436363636 L2.46791667,0.00436363636 C2.34125,0.00436363636 2.2075,0.0141818182 2.06666667,0.0341818182" id="path-62"></path>
        <linearGradient x1="175.533385%" y1="-74.2915627%" x2="25.3369146%" y2="72.5960952%" id="linearGradient-64">
            <stop stop-color="#FF918E" offset="0%"></stop>
            <stop stop-color="#FDB3B1" offset="100%"></stop>
        </linearGradient>
    </defs>
    <g id="Comfortable-Themes" stroke="none" stroke-width="1" fill="none" fill-rule="evenodd">
        <g id="Outsourcing-IT-Profesional---alt" transform="translate(-559.000000, -3107.000000)">
            <g id="Group-125" transform="translate(558.000000, 3097.000000)">
                <g id="Group-124" transform="translate(1.000000, 10.000000)">
                    <g id="Group-22">
                        <g id="Group-3" transform="translate(157.000000, 0.000000)">
                            <mask id="mask-2" fill="white">
                                <use xlink:href="#path-1"></use>
                            </mask>
                            <g id="Clip-2"></g>
                            <path d="M85.6353524,1.41550759 L35.709581,62.1967091 C34.587181,63.5633508 35.5603365,65.6186374 37.3300952,65.6186374 L37.3300952,65.6186374 L46.9275937,65.6186374 L0.083968254,155.260644 L5.75452698,172.91175 L21.8632889,172.91175 C24.7493143,172.91175 27.3723365,171.235867 28.5822095,168.618549 L28.5822095,168.618549 L75.0603175,68.0762293 L81.7516381,68.8410177 C85.1417651,69.2285902 88.1621397,66.6928128 88.3630794,63.2901391 L88.3630794,63.2901391 L91.8726603,3.85355312 C91.8766032,3.78630776 91.8793778,3.71935413 91.8793778,3.65356745 L91.8793778,3.65356745 L91.8793778,3.59303204 C91.8625841,1.49602698 90.118527,0.120341484 88.3210222,0.120341484 L88.3210222,0.120341484 C87.3544381,0.120341484 86.3723746,0.518124789 85.6353524,1.41550759" id="Fill-1" fill="url(#linearGradient-3)" mask="url(#mask-2)"></path>
                        </g>
                        <g id="Group-6" transform="translate(118.000000, 80.000000)">
                            <mask id="mask-5" fill="white">
                                <use xlink:href="#path-4"></use>
                            </mask>
                            <g id="Clip-5"></g>
                            <path d="M0.0535444685,12.6976969 L33.4577701,85.7980219 C35.4365553,90.1277531 39.8081735,92.9120859 44.6283557,92.9120859 L61.8488764,92.9120859 C64.1337354,92.9120859 66.2386377,91.6911703 67.347141,89.7229125 L67.9595835,88.6352484 C66.109423,88.6352484 64.4153232,87.6132656 63.5742473,85.9896891 L19.0669935,0.0809390625 L0.0535444685,12.6976969 Z" id="Fill-4" fill="url(#linearGradient-6)" mask="url(#mask-5)"></path>
                        </g>
                        <g id="Group-9" transform="translate(53.000000, 71.000000)">
                            <mask id="mask-8" fill="white">
                                <use xlink:href="#path-7"></use>
                            </mask>
                            <g id="Clip-8"></g>
                            <path d="M56.8231443,5.49759712 C45.1828197,15.9315511 0.0204262295,84.9053957 0.0204262295,84.9053957 L0.0204262295,84.9053957 L5.58365574,100.867465 L12.4194393,100.867465 C19.4413934,100.867465 25.998359,97.3692317 29.889118,91.5464 L29.889118,91.5464 L78.4686738,18.8484892 C80.8079148,15.3479309 85.6487852,14.5819295 88.9620656,17.1877295 L88.9620656,17.1877295 L86.5574607,11.3842259 C85.1570967,8.0047223 82.8645443,5.03808345 79.844818,2.95937266 L79.844818,2.95937266 C76.7091,0.800733813 73.5618557,0.0178748201 70.6442607,0.0178748201 L70.6442607,0.0178748201 C62.9278148,0.0178748201 56.8231443,5.49759712 56.8231443,5.49759712" id="Fill-7" fill="url(#linearGradient-9)" mask="url(#mask-8)"></path>
                        </g>
                        <g id="Group-12" transform="translate(0.000000, 101.000000)">
                            <mask id="mask-11" fill="white">
                                <use xlink:href="#path-10"></use>
                            </mask>
                            <g id="Clip-11"></g>
                            <path d="M0,11.8544847 C7.15219929,14.3715519 30.974224,46.5992505 42.6173527,62.812888 L42.6173527,62.812888 C46.7609118,68.5828595 53.421552,72 60.5169541,72 L60.5169541,72 L66.9613845,72 C73.1235855,72 78.8353616,68.7667454 82.0145397,63.4789246 L82.0145397,63.4789246 L82.9792134,61.8742485 C71.3270088,68.5627699 61.397164,56.3173442 46.4374021,29.4650102 L46.4374021,29.4650102 C31.4777866,2.61223625 23.9688483,0.0494175153 23.9688483,0.0494175153 L23.9688483,0.0494175153 C8.15873898,1.6385499 0,11.8544847 0,11.8544847" id="Fill-10" fill="url(#linearGradient-12)" mask="url(#mask-11)"></path>
                        </g>
                        <g filter="url(#filter-13)" id="Group-21">
                            <g transform="translate(102.000000, 4.000000)">
                                <path d="M142.576511,18.383553 C142.557354,18.383553 142.538198,18.3825359 142.518746,18.3803564 C142.240535,18.3494077 142.040571,18.1016726 142.072105,17.8273479 L142.404397,14.9363308 C142.435784,14.662006 142.686882,14.4614932 142.96524,14.4959291 C143.243304,14.5268778 143.443269,14.7746128 143.411734,15.0489376 L143.07959,17.9399547 C143.050413,18.1951 142.830997,18.383553 142.576511,18.383553" id="Fill-13" fill="#91B3FA"></path>
                                <path d="M100.521132,54.8749829 C100.413266,54.8749829 100.304369,54.8411282 100.212123,54.7712393 C99.9903496,54.6028376 99.9489421,54.2888462 100.11973,54.0701709 L141.720436,0.771102564 C142.214379,0.138179487 143.051518,-0.0861623932 143.802601,0.213299145 C144.55383,0.513051282 144.997377,1.24768376 144.906163,2.04174359 L144.172321,8.43040171 C144.140787,8.7047265 143.890131,8.90233333 143.611478,8.87080342 C143.333119,8.8398547 143.133302,8.59211966 143.164836,8.31779487 L143.898678,1.92913675 C143.947306,1.50660684 143.684567,1.24463248 143.422565,1.14016239 C143.160563,1.03569231 142.786864,1.04426496 142.523978,1.38106838 L100.923271,54.6799915 C100.823363,54.808 100.673058,54.8749829 100.521132,54.8749829" id="Fill-15" fill="#91B3FA"></path>
                                <path d="M6.14564228,110.750379 C6.04809146,110.750379 5.94950915,110.722773 5.86256809,110.664653 C5.63033232,110.510491 5.56917886,110.199696 5.72582012,109.97085 L27.2407846,78.5253538 C28.0203069,77.3854821 29.3142551,76.7657812 30.7061961,76.8712684 C32.0966636,76.9751573 33.2830407,77.7792427 33.8795447,79.0219863 C33.9993465,79.2716103 33.8913333,79.5693282 33.6381728,79.6874564 C33.3845701,79.8061658 33.0827815,79.6992256 32.9629797,79.4496017 C32.5242957,78.5356701 31.6520854,77.9447385 30.6295701,77.8681658 C29.6057287,77.7913026 28.6545346,78.2463795 28.0814604,79.0843197 L6.56649593,110.529961 C6.46835569,110.673226 6.30847256,110.750379 6.14564228,110.750379" id="Fill-17" fill="#91B3FA"></path>
                                <path d="M0.554610264,118.921902 C0.457059451,118.921902 0.358477134,118.894295 0.271536077,118.836321 C0.0393003049,118.682013 -0.0218531504,118.371218 0.13478811,118.142517 L1.51435112,116.126201 C1.67128709,115.897209 1.98589583,115.83662 2.21813161,115.991509 C2.45036738,116.145816 2.51152083,116.456466 2.35502693,116.685312 L0.975463923,118.701483 C0.877323679,118.844748 0.717440549,118.921902 0.554610264,118.921902" id="Fill-19" fill="#91B3FA"></path>
                            </g>
                        </g>
                    </g>
                    <g id="Group-72" transform="translate(67.000000, 1.000000)">
                        <g id="Group-7" transform="translate(1.000000, 120.000000)">
                            <g id="Group-3">
                                <mask id="mask-15" fill="white">
                                    <use xlink:href="#path-14"></use>
                                </mask>
                                <g id="Clip-2"></g>
                                <path d="M7.12031831,0.265293168 C5.87375493,2.10362857 0.917923944,43.7222994 0.142149296,59.0939205 C0.0900507042,60.1331938 0.924388732,61.0000758 1.96902254,61.0000758 C2.86990986,61.0000758 3.63655775,60.3461255 3.77536056,59.4591627 L12.8393746,1.58910683 L7.12031831,0.265293168 Z" id="Fill-1" fill="#8CCEFF" mask="url(#mask-15)"></path>
                            </g>
                            <g id="Group-6" transform="translate(41.070423, 0.000000)">
                                <mask id="mask-17" fill="white">
                                    <use xlink:href="#path-16"></use>
                                </mask>
                                <g id="Clip-5"></g>
                                <path d="M5.89185634,0.265293168 C7.13841972,2.10362857 12.0942507,43.7222994 12.8696451,59.0939205 C12.9221239,60.1331938 12.0874056,61.0000758 11.0427718,61.0000758 C10.1418845,61.0000758 9.37523662,60.3461255 9.2364338,59.4591627 L0.172419718,1.58910683 L5.89185634,0.265293168 Z" id="Fill-4" fill="#8CCEFF" mask="url(#mask-17)"></path>
                            </g>
                        </g>
                        <g id="Group-10" transform="translate(0.000000, 111.000000)">
                            <mask id="mask-19" fill="white">
                                <use xlink:href="#path-18"></use>
                            </mask>
                            <g id="Clip-9"></g>
                            <path d="M0.00417241379,6.27161111 L0,6.7375 L0,6.83861111 C0.0273103448,10.1437778 2.82168966,12.838 6.31248276,12.8990556 L6.31248276,12.8990556 L48.1007241,13.6278333 C51.5759655,13.6885 54.4723793,11.1136667 54.6415517,7.81433333 L54.6415517,7.81433333 L54.6635517,7.38772222 C54.8387931,3.94722222 51.9890345,1.04805556 48.3647241,0.981166667 L48.3647241,0.981166667 L6.55865517,0.2135 C6.51617241,0.212722222 6.47331034,0.212333333 6.43082759,0.212333333 L6.43082759,0.212333333 C2.9112069,0.211944444 0.034137931,2.91083333 0.00417241379,6.27161111" id="Fill-8" fill="#F7941D" mask="url(#mask-19)"></path>
                        </g>
                        <g id="Group-13" transform="translate(70.000000, 176.000000)">
                            <mask id="mask-21" fill="white">
                                <use xlink:href="#path-20"></use>
                            </mask>
                            <g id="Clip-12"></g>
                            <path d="M2.85046914,2.79514286 L29.3665679,2.79514286 C30.2594444,2.79514286 30.8228025,1.83771429 30.6096296,0.971571429 L30.6096296,0.971571429 C27.587321,1.24328571 21.1672593,1.70485714 12.3751235,1.70485714 L12.3751235,1.70485714 C4.88001235,1.70485714 1.56377778,0.985285714 0.0811358025,0.328285714 L0.0811358025,0.328285714 C0.369320988,1.70657143 1.46541975,2.79514286 2.85046914,2.79514286" id="Fill-11" fill="url(#linearGradient-22)" mask="url(#mask-21)"></path>
                        </g>
                        <g id="Group-16" transform="translate(69.000000, 170.000000)">
                            <mask id="mask-24" fill="white">
                                <use xlink:href="#path-23"></use>
                            </mask>
                            <g id="Clip-15"></g>
                            <path d="M19.0309,0.369904762 C10.8441875,0.483047619 7.99025,1.35619048 1.6286625,0.418666667 L1.6286625,0.418666667 L0.1274875,5.30933333 C-0.0251875,5.80761905 -0.0279,6.30590476 0.08215,6.768 L0.08215,6.768 C1.583325,7.352 4.9410125,7.99161905 12.5298125,7.99161905 L12.5298125,7.99161905 C21.43185,7.99161905 27.9321625,7.58133333 30.99225,7.33980952 L30.99225,7.33980952 C30.94885,7.184 30.884525,7.0312381 30.77215,6.89028571 L30.77215,6.89028571 C28.7466875,4.34780952 24.6965375,0.368761905 19.189,0.368761905 L19.189,0.368761905 C19.1363,0.368761905 19.0836,0.369142857 19.0309,0.369904762" id="Fill-14" fill="url(#linearGradient-25)" mask="url(#mask-24)"></path>
                        </g>
                        <g id="Group-19" transform="translate(71.000000, 165.000000)">
                            <mask id="mask-27" fill="white">
                                <use xlink:href="#path-26"></use>
                            </mask>
                            <g id="Clip-18"></g>
                            <path d="M0.0738181818,6.05463158 C0.0738181818,6.05463158 3.90363636,7.82084211 7.272,6.40315789 L7.272,6.40315789 L7.93309091,1.24194737 L1.80254545,0.0972631579 L0.0738181818,6.05463158 Z" id="Fill-17" fill="url(#linearGradient-28)" mask="url(#mask-27)"></path>
                        </g>
                        <g id="Group-22" transform="translate(118.000000, 162.000000)">
                            <mask id="mask-30" fill="white">
                                <use xlink:href="#path-29"></use>
                            </mask>
                            <g id="Clip-21"></g>
                            <path d="M10.4363636,12.2292308 C4.65340909,16.9473077 1.69848485,18.5334615 0.19280303,19.0096154 L0.19280303,19.0096154 C1.17386364,19.7876923 2.61969697,19.8553846 3.68863636,18.9834615 L3.68863636,18.9834615 L24.1462121,2.29307692 C24.8352273,1.73076923 24.7424242,0.709615385 24.1003788,0.240769231 L24.1003788,0.240769231 C21.9185606,2.33269231 17.2200758,6.69538462 10.4363636,12.2292308" id="Fill-20" fill="url(#linearGradient-31)" mask="url(#mask-30)"></path>
                        </g>
                        <g id="Group-25" transform="translate(115.000000, 161.000000)">
                            <mask id="mask-33" fill="white">
                                <use xlink:href="#path-32"></use>
                            </mask>
                            <g id="Clip-24"></g>
                            <path d="M13.3695634,2.98615385 C7.17743662,8.16461538 5.53728169,10.6230769 0.0867042254,13.8442308 L0.0867042254,13.8442308 L1.98240845,18.6076923 C2.17559155,19.0934615 2.48323944,19.485 2.85553521,19.7788462 L2.85553521,19.7788462 C4.36715493,19.3026923 7.33373239,17.7165385 13.139493,12.9984615 L13.139493,12.9984615 C19.9499577,7.46461538 24.6669718,3.10192308 26.8573944,1.01 L26.8573944,1.01 C26.727338,0.915384615 26.5832113,0.835384615 26.4098028,0.794615385 L26.4098028,0.794615385 C25.1541127,0.501153846 23.504831,0.228846154 21.7087606,0.228846154 L21.7087606,0.228846154 C18.9829014,0.228846154 15.9174507,0.855769231 13.3695634,2.98615385" id="Fill-23" fill="url(#linearGradient-34)" mask="url(#mask-33)"></path>
                        </g>
                        <g id="Group-28" transform="translate(25.000000, 95.000000)">
                            <mask id="mask-36" fill="white">
                                <use xlink:href="#path-35"></use>
                            </mask>
                            <g id="Clip-27"></g>
                            <path d="M0.262465116,10.0893057 L48.9766047,18.0510155 C53.2431977,27.7879585 47.5096395,72.6910052 47.5096395,72.6910052 L47.5096395,72.6910052 C53.1004535,74.427513 55.6130581,73.2193575 55.6130581,73.2193575 L55.6130581,73.2193575 C55.6130581,73.2193575 72.3747558,12.3718031 63.1451163,8.03034197 L63.1451163,8.03034197 C53.9154767,3.68888083 8.92419767,0.0184041451 8.92419767,0.0184041451 L8.92419767,0.0184041451 L0.262465116,10.0893057 Z" id="Fill-26" fill="#1B6A9E" mask="url(#mask-36)"></path>
                        </g>
                        <g id="Group-31" transform="translate(110.000000, 164.000000)">
                            <mask id="mask-38" fill="white">
                                <use xlink:href="#path-37"></use>
                            </mask>
                            <g id="Clip-30"></g>
                            <path d="M0.214814815,2.82406667 C0.617777778,3.1878 4.52888889,10.9981667 4.52888889,10.9981667 L4.52888889,10.9981667 C4.52888889,10.9981667 8.88407407,10.065 9.77185185,7.337 L9.77185185,7.337 L5.8537037,0.287833333 L0.214814815,2.82406667 Z" id="Fill-29" fill="url(#linearGradient-39)" mask="url(#mask-38)"></path>
                        </g>
                        <g id="Group-34" transform="translate(6.000000, 95.000000)">
                            <mask id="mask-41" fill="white">
                                <use xlink:href="#path-40"></use>
                            </mask>
                            <g id="Clip-33"></g>
                            <path d="M0.370666667,8.15138462 C0.452571429,14.5632 5.62780952,19.7663487 12.0571429,20.0854974 L12.0571429,20.0854974 L64.8605714,22.4846154 C65.975619,22.5354667 66.9188571,23.3039282 67.1984762,24.3809128 L67.1984762,24.3809128 C68.4392381,29.1616923 74.504,43.8436718 104.151619,73.1400821 L104.151619,73.1400821 C104.94019,73.9199282 106.168762,74.0519897 107.10819,73.4611282 L107.10819,73.4611282 L111.328762,70.8054769 C111.771429,70.5269333 111.913143,69.9482154 111.648381,69.4981436 L111.648381,69.4981436 L80.903619,17.1987385 C79.2887619,14.5434667 76.6929524,12.6259179 73.6742857,11.8570769 L73.6742857,11.8570769 L28.6693333,0.397702564 L1.76685714,0.0258051282 C1.76685714,0.0258051282 0.311238095,3.51443077 0.370666667,8.15138462" id="Fill-32" fill="#167BBD" mask="url(#mask-41)"></path>
                        </g>
                        <g id="Group-37" transform="translate(48.000000, 13.000000)">
                            <mask id="mask-43" fill="white">
                                <use xlink:href="#path-42"></use>
                            </mask>
                            <g id="Clip-36"></g>
                            <path d="M0.0957692308,14.0348727 L12.1311538,20.7010364 C12.1311538,20.7010364 18.6342308,13.2429818 24.83,10.1357455 L24.83,10.1357455 L20.9373077,0.335618182 C20.9373077,0.335618182 5.91769231,9.17890909 0.0957692308,14.0348727" id="Fill-35" fill="#FFB48D" mask="url(#mask-43)"></path>
                        </g>
                        <g id="Group-40" transform="translate(6.000000, 25.000000)">
                            <mask id="mask-45" fill="white">
                                <use xlink:href="#path-44"></use>
                            </mask>
                            <g id="Clip-39"></g>
                            <path d="M42.6931951,0.40815508 C36.4857561,4.16621925 7.27926829,24.0428021 0.0458536585,69.1198289 L0.0458536585,69.1198289 C0.0458536585,69.1198289 14.3441707,72.582123 27.9925122,69.1198289 L27.9925122,69.1198289 C27.9925122,69.1198289 47.0894146,43.6107059 54.4779675,36.667893 L54.4779675,36.667893 C54.4779675,36.667893 66.263122,55.1461176 92.4944715,57.7651444 L92.4944715,57.7651444 L93.9572033,54.5166096 C93.9572033,54.5166096 73.0746829,44.9517326 66.6452358,30.2543529 L66.6452358,30.2543529 C60.2165528,15.5569733 57.6346098,9.28847059 51.7859756,5.45371123 L51.7859756,5.45371123 C48.1429024,3.06552941 45.9617967,1.43442781 44.8349431,0.543320856 L44.8349431,0.543320856 C44.4937154,0.273748663 44.0806504,0.136304813 43.6656748,0.136304813 L43.6656748,0.136304813 C43.330561,0.136304813 42.9939187,0.225909091 42.6931951,0.40815508" id="Fill-38" fill="#FFFFFF" mask="url(#mask-45)"></path>
                        </g>
                        <g id="Group-43" transform="translate(52.000000, 48.000000)">
                            <mask id="mask-47" fill="white">
                                <use xlink:href="#path-46"></use>
                            </mask>
                            <g id="Clip-42"></g>
                            <path d="M0.287619048,0.267166667 C0.128,0.329388889 0.048,0.512555556 0.109333333,0.6755 L0.109333333,0.6755 C0.134857143,0.743555556 2.712,7.53122222 7.19733333,13.5041667 L7.19733333,13.5041667 C7.25866667,13.5850556 7.35085714,13.6278333 7.44419048,13.6278333 L7.44419048,13.6278333 C7.50971429,13.6278333 7.576,13.6064444 7.63238095,13.5625 L7.63238095,13.5625 C7.76838095,13.4559444 7.79428571,13.2576111 7.68990476,13.1191667 L7.68990476,13.1191667 C3.25752381,7.21816667 0.71352381,0.516055556 0.688380952,0.449166667 L0.688380952,0.449166667 C0.641142857,0.323166667 0.523428571,0.246166667 0.39847619,0.246166667 L0.39847619,0.246166667 C0.36152381,0.246166667 0.324190476,0.252777778 0.287619048,0.267166667" id="Fill-41" fill="url(#linearGradient-48)" mask="url(#mask-47)"></path>
                        </g>
                        <g id="Group-46" transform="translate(97.000000, 75.000000)">
                            <mask id="mask-50" fill="white">
                                <use xlink:href="#path-49"></use>
                            </mask>
                            <g id="Clip-45"></g>
                            <path d="M12.1108197,0.2504 L3.2652459,2.4236 L0.351032787,3.2472 L1.82152459,5.8452 L22.8258033,5.8828 L15.2203443,0.8064 C14.5608852,0.366 13.8033934,0.138 13.0368525,0.138 L13.0368525,0.138 C12.7276721,0.1384 12.4169836,0.1752 12.1108197,0.2504" id="Fill-44" fill="url(#linearGradient-51)" mask="url(#mask-50)"></path>
                        </g>
                        <g id="Group-59" transform="translate(85.000000, 39.000000)">
                            <path d="M3.97386237,45.6673909 C4.00859892,45.6689177 4.04333548,45.6700629 4.07807204,45.6696812 L49.5062387,45.6242565 C50.6296419,45.623493 51.5385183,44.7138532 51.5377553,43.5927403 C51.536228,42.4716274 50.6216258,41.5448102 49.5016581,41.5650414 L4.0734914,41.6104661 C2.95046989,41.6112296 2.04121183,42.5208694 2.04235591,43.6416005 C2.04350215,44.7279769 2.89970108,45.61395 3.97386237,45.6673909" id="Fill-47" fill="#BDD0FB"></path>
                            <path d="M67.0993516,1.17871452 C67.0829376,1.20963387 67.0676688,1.24055323 67.0531634,1.27261774 L47.9388946,42.4835371 C47.465943,43.5023489 47.9075935,44.7104941 48.9244968,45.1819188 C49.9417817,45.6537253 51.167486,45.2147468 51.6213516,44.1909726 L70.7356204,2.97967151 C71.208572,1.9612414 70.7669215,0.753096237 69.7500183,0.281289785 C68.7647978,-0.175247849 67.6001688,0.227085484 67.0993516,1.17871452" id="Fill-49" fill="#BDD0FB"></path>
                            <g id="Group-53" transform="translate(0.000000, 47.715054)">
                                <mask id="mask-53" fill="white">
                                    <use xlink:href="#path-52"></use>
                                </mask>
                                <g id="Clip-52"></g>
                                <path d="M24.201686,0.23223871 C24.0028097,1.0540828 5.04771828,72.1456957 0.241858065,90.1682441 C-0.31201828,92.2455667 1.23509462,94.2850989 3.36051398,94.2850989 C4.84311613,94.2850989 6.13485806,93.2636151 6.49367527,91.8081151 L27.5356323,6.49588925 L24.201686,0.23223871 Z" id="Fill-51" fill="#8CCEFF" mask="url(#mask-53)"></path>
                            </g>
                            <g id="Group-56" transform="translate(30.919355, 47.715054)">
                                <mask id="mask-55" fill="white">
                                    <use xlink:href="#path-54"></use>
                                </mask>
                                <g id="Clip-55"></g>
                                <path d="M3.66184409,0.23223871 C3.86072043,1.0540828 22.8158118,72.1456957 27.621672,90.1682441 C28.1751667,92.2455667 26.6284355,94.2850989 24.5026344,94.2850989 C23.020414,94.2850989 21.7282903,93.2636151 21.3694731,91.8081151 L0.327897849,6.49588925 L3.66184409,0.23223871 Z" id="Fill-54" fill="#8CCEFF" mask="url(#mask-55)"></path>
                            </g>
                            <path d="M35.371093,45.6226914 L23.5656253,45.6226914 L23.5656253,55.1034817 C23.5656253,56.4658419 24.6573457,57.5705409 26.0032919,57.5705409 L27.6229317,57.5705409 L27.6229317,78.8655785 C27.6229317,79.8969871 28.4489747,80.7329548 29.4681683,80.7329548 C30.4877435,80.7329548 31.3137866,79.8969871 31.3137866,78.8655785 L31.3137866,57.5705409 L32.1356306,57.5705409 C33.922464,57.5705409 35.371093,56.1043527 35.371093,54.296143 L35.371093,45.6226914 Z" id="Fill-57" fill="#91B3FA"></path>
                        </g>
                        <g id="Group-62" transform="translate(77.000000, 83.000000)">
                            <mask id="mask-57" fill="white">
                                <use xlink:href="#path-56"></use>
                            </mask>
                            <g id="Clip-61"></g>
                            <path d="M2.93066667,0.210285714 C2.00685714,0.210285714 1.2007619,0.846095238 0.975619048,1.7527619 L0.975619048,1.7527619 L0.176380952,4.96190476 C-0.143238095,6.24533333 0.811428571,7.49295238 2.11961905,7.50019048 L2.11961905,7.50019048 L69.6224762,7.89336433 C70.9451429,7.90057143 71.9169524,6.63885714 71.5862857,5.34285714 L71.5862857,5.34285714 L70.6678095,1.74095238 C70.4380952,0.84 69.6350476,0.210285714 68.7158095,0.210285714 L68.7158095,0.210285714 L2.93066667,0.210285714 Z" id="Fill-60" fill="#F7941D" mask="url(#mask-57)"></path>
                        </g>
                        <g id="Group-65" transform="translate(59.000000, 8.000000)">
                            <mask id="mask-59" fill="white">
                                <use xlink:href="#path-58"></use>
                            </mask>
                            <g id="Clip-64"></g>
                            <path d="M1.64153846,1.023375 C-0.483846154,3.564 0.378846154,12.244875 0.378846154,12.244875 L0.378846154,12.244875 C0.897307692,17.861625 4.36115385,22.404375 10.2315385,23.714625 L10.2315385,23.714625 C16.1011538,25.02525 16.3703846,21.615 18.0934615,16.8945 L18.0934615,16.8945 C19.8161538,12.17325 19.6761538,1.779375 19.6761538,1.779375 L19.6761538,1.779375 C19.6761538,1.779375 11.3869231,0.061875 5.97576923,0.061875 L5.97576923,0.061875 C3.89076923,0.061875 2.23307692,0.316875 1.64153846,1.023375" id="Fill-63" fill="#FFB48D" mask="url(#mask-59)"></path>
                        </g>
                        <g id="Group-68" transform="translate(53.000000, 0.000000)">
                            <mask id="mask-61" fill="white">
                                <use xlink:href="#path-60"></use>
                            </mask>
                            <g id="Clip-67"></g>
                            <path d="M5.6502069,4.80737931 C5.52124138,5.09641379 5.14231034,5.12637931 4.95682759,4.86996552 L4.95682759,4.86996552 C4.59155172,4.36434483 3.86403448,3.89324138 2.44237931,4.33627586 L2.44237931,4.33627586 C-0.0307241379,5.10551724 -0.95662069,9.40613793 1.67313793,14.3675172 L1.67313793,14.3675172 C1.79868966,14.6034483 1.67237931,14.8996897 1.40951724,14.9474828 L1.40951724,14.9474828 C0.484758621,15.1158966 -1.07041379,15.7861379 1.10606897,18.464069 L1.10606897,18.464069 C3.33186207,21.203069 5.10058621,21.7485172 5.81027586,21.8535862 L5.81027586,21.8535862 C6.00144828,21.8820345 6.18313793,21.773931 6.24686207,21.5911034 L6.24686207,21.5911034 L7.70606897,17.4084483 C7.78193103,17.1926207 8.02393103,17.0845172 8.2352069,17.1732759 L8.2352069,17.1732759 L9.68910345,17.7835862 L10.3711034,18.0699655 C10.3711034,18.0699655 9.9807931,11.1263103 12.8745517,11.1505862 L12.8745517,11.1505862 C15.7686897,11.1744828 26.3867241,13.2857241 29.9533793,10.7014828 L29.9533793,10.7014828 C33.3922069,8.21017241 33.3922069,3.12665517 31.1857586,0.777965517 L31.1857586,0.777965517 C31.0461724,0.629275862 30.8094828,0.625482759 30.652069,0.754827586 L30.652069,0.754827586 L30.2484828,1.08596552 C29.9727241,1.31241379 29.5604138,1.08748276 29.6017586,0.732068966 L29.6017586,0.732068966 C29.6412069,0.39562069 29.2634138,0.160448276 28.9872759,0.356172414 L28.9872759,0.356172414 C27.9054828,1.12275862 25.4483103,2.07634483 20.3936207,0.972551724 L20.3936207,0.972551724 C18.2398966,0.502206897 16.2329655,0.249586128 14.4255517,0.249586128 L14.4255517,0.249586128 C10.2133103,0.249206897 7.07755172,1.6207931 5.6502069,4.80737931" id="Fill-66" fill="#4A2009" mask="url(#mask-61)"></path>
                        </g>
                        <g id="Group-71" transform="translate(58.000000, 13.000000)">
                            <mask id="mask-63" fill="white">
                                <use xlink:href="#path-62"></use>
                            </mask>
                            <g id="Clip-70"></g>
                            <path d="M2.06666667,0.0341818182 C-1.46416667,0.535636364 0.58375,6.66509091 2.73458333,7.69272727 L2.73458333,7.69272727 L4.60041667,5.57018182 C4.60041667,5.57018182 5.51958333,0.00472727273 2.46791667,0.00436363636 L2.46791667,0.00436363636 C2.34125,0.00436363636 2.2075,0.0141818182 2.06666667,0.0341818182" id="Fill-69" fill="url(#linearGradient-64)" mask="url(#mask-63)"></path>
                        </g>
                    </g>
                </g>
            </g>
        </g>
    </g>
</svg>