<?xml version="1.0" encoding="UTF-8"?>
<svg width="261px" height="222px" viewBox="0 0 261 222" version="1.1" xmlns="http://www.w3.org/2000/svg" xmlns:xlink="http://www.w3.org/1999/xlink">
    <title>064AC8C2-CCE3-4645-8FE8-9DE5DB847A1A@1x</title>
    <defs>
        <linearGradient x1="50%" y1="0%" x2="50%" y2="148.559671%" id="linearGradient-1">
            <stop stop-color="#C9E8FF" stop-opacity="0.4" offset="0%"></stop>
            <stop stop-color="#0395FF" stop-opacity="0.8" offset="100%"></stop>
        </linearGradient>
        <linearGradient x1="50%" y1="0%" x2="50%" y2="149.915601%" id="linearGradient-2">
            <stop stop-color="#C9E8FF" stop-opacity="0.7" offset="0%"></stop>
            <stop stop-color="#0395FF" stop-opacity="0.3" offset="100%"></stop>
        </linearGradient>
        <path d="M0.896342857,1.89625 C0.896342857,1.89625 0.469857143,4.1490625 0.3013,6.8234375 L0.3013,6.8234375 C0.229342857,7.9628125 1.11747143,8.9528125 2.31215714,9.0628125 L2.31215714,9.0628125 C6.4722,9.446875 15.9413,10.1553125 21.9873429,9.3253125 L21.9873429,9.3253125 C22.8344,9.2090625 23.1708571,8.2196875 22.5449286,7.665 L22.5449286,7.665 C20.0517286,5.4559375 14.0309857,1.1590625 4.12094286,0.219375 L4.12094286,0.219375 L0.896342857,1.89625 Z" id="path-3"></path>
        <linearGradient x1="51.5393688%" y1="120.288969%" x2="53.0593897%" y2="184.736626%" id="linearGradient-5">
            <stop stop-color="#08005D" offset="0%"></stop>
            <stop stop-color="#1A0E90" offset="100%"></stop>
        </linearGradient>
        <path d="M0.150956522,2.36042308 L2.3773913,7.79192308 C2.68243478,8.53615385 3.4413913,8.99861538 4.24452174,8.91519231 L4.24452174,8.91519231 C4.78956522,8.85807692 5.43547826,8.75423077 6.06330435,8.56453846 L6.06330435,8.56453846 C7.32,8.18480769 8.02852174,6.85938462 7.65252174,5.60734615 L7.65252174,5.60734615 L5.97182609,0.0131538462 L0.150956522,2.36042308 Z" id="path-6"></path>
        <linearGradient x1="57.5465876%" y1="116.378477%" x2="38.425184%" y2="-58.0208655%" id="linearGradient-8">
            <stop stop-color="#FF918E" offset="0%"></stop>
            <stop stop-color="#FDB3B1" offset="100%"></stop>
        </linearGradient>
        <path d="M0.235625,8.514 C0.0169,9.781 0.9789,10.939 2.233725,10.939 L2.233725,10.939 L10.8069,10.939 C12.115025,10.939 13.0585,9.61 12.612275,8.349 L12.612275,8.349 C10.9889,3.763 6.82305,0.188333333 6.82305,0.188333333 L6.82305,0.188333333 C2.356575,0.201333333 0.781625,5.347 0.235625,8.514" id="path-9"></path>
        <linearGradient x1="52.2824987%" y1="286.216547%" x2="54.9929773%" y2="539.256694%" id="linearGradient-11">
            <stop stop-color="#08005D" offset="0%"></stop>
            <stop stop-color="#1A0E90" offset="100%"></stop>
        </linearGradient>
        <path d="M0.0399,0.869 C0.0399,0.869 0.9464,4.689 1.64325,7.21333333 L1.64325,7.21333333 C1.76925,7.67166667 2.2827,7.923 2.75135,7.76366667 L2.75135,7.76366667 C4.14855,7.288 5.28535,7.07766667 6.11205,7.183 L6.11205,7.183 C6.49425,7.232 6.8278,6.92933333 6.8327,6.56233333 L6.8327,6.56233333 L6.9195,0.217333333 L0.0399,0.869 Z" id="path-12"></path>
        <linearGradient x1="63.2224335%" y1="112.961352%" x2="39.8577718%" y2="-79.0813699%" id="linearGradient-14">
            <stop stop-color="#FF918E" offset="0%"></stop>
            <stop stop-color="#FDB3B1" offset="100%"></stop>
        </linearGradient>
        <path d="M7.47589595,96.7293333 L16.2156763,96.0546667 C13.6282717,67.868 18.9674913,28.6063333 18.9674913,28.6063333 L18.9674913,28.6063333 L49.4799538,92.3253333 C51.8271676,92.4616667 56.7545376,89.197 56.7545376,89.197 L56.7545376,89.197 L31.0659884,9.911 L4.02854913,0.0263333333 C-6.73456647,24.698 7.47589595,96.7293333 7.47589595,96.7293333" id="path-15"></path>
        <linearGradient x1="50%" y1="100%" x2="50%" y2="3.061617e-15%" id="linearGradient-17">
            <stop stop-color="#57C6F2" offset="0%"></stop>
            <stop stop-color="#2C94E0" offset="100%"></stop>
        </linearGradient>
        <path d="M1.338,0.311192308 L0.1276,8.62407692 C0.1068,8.76738462 0.224,8.89823077 0.3896,8.91657692 L0.3896,8.91657692 C0.4024,8.91726923 0.4152,8.91830769 0.428,8.91830769 L0.428,8.91830769 C0.578,8.91830769 0.708,8.82173077 0.7272,8.6895 L0.7272,8.6895 L1.9376,0.376961538 C1.9584,0.233653846 1.8408,0.102807692 1.6752,0.0848076923 L1.6752,0.0848076923 C1.6636,0.0834230769 1.6516,0.0830769231 1.64,0.0830769231 L1.64,0.0830769231 C1.4876,0.0830769231 1.3572,0.178615385 1.338,0.311192308" id="path-18"></path>
        <linearGradient x1="27.8194538%" y1="236.89601%" x2="33.6454329%" y2="187.804978%" id="linearGradient-20">
            <stop stop-color="#3F42E2" offset="0%"></stop>
            <stop stop-color="#4F52FF" offset="100%"></stop>
        </linearGradient>
        <path d="M17.3186374,17.0937202 C17.3186374,17.0937202 5.61535165,39.0981972 0.143785714,65.0192248 L0.143785714,65.0192248 C-0.0338516484,65.8624083 0.531571429,66.6851651 1.38221978,66.8308303 L1.38221978,66.8308303 L36.6398846,72.8623716 C37.6128681,73.0284633 38.5506593,72.4226972 38.798011,71.4680046 L38.798011,71.4680046 L47.222044,38.9391376 L50.5049835,54.0628624 L60.9356484,51.3474633 L52.1546648,6.9065367 C52.1546648,6.9065367 50.9296374,0.422261468 35.4952967,0.143990826 L35.4952967,0.143990826 C35.4952967,0.143990826 14.3236044,2.02189908 17.3186374,17.0937202" id="path-21"></path>
        <path d="M2.57154545,0.241666667 L0.180272727,13.663 C0.155454545,13.804 0.228272727,13.943 0.343636364,13.9736667 L0.343636364,13.9736667 C0.359181818,13.9776667 0.374454545,13.9796667 0.389181818,13.9796667 L0.389181818,13.9796667 C0.487363636,13.9796667 0.575727273,13.8963333 0.597818182,13.7743333 L0.597818182,13.7743333 L2.98936364,0.353333333 C3.01445455,0.212333333 2.94109091,0.073 2.82627273,0.042 L2.82627273,0.042 C2.811,0.0383333333 2.79572727,0.0363333333 2.78072727,0.0363333333 L2.78072727,0.0363333333 C2.68145455,0.0363333333 2.59363636,0.119666667 2.57154545,0.241666667" id="path-23"></path>
        <linearGradient x1="-0.00274464975%" y1="50.0001145%" x2="99.9982125%" y2="50.0001145%" id="linearGradient-25">
            <stop stop-color="#3F42E2" offset="0%"></stop>
            <stop stop-color="#4F52FF" offset="100%"></stop>
        </linearGradient>
        <path d="M0.133620253,1.36666667 L5.87106329,27.859 L25.948,27.859 L18.7851646,23.2513333 C17.694481,22.6436667 16.417519,22.4753333 15.21,22.7803333 L15.21,22.7803333 L12.8008861,23.387 C12.2891139,23.5163333 11.7819494,23.1593333 11.7227089,22.628 L11.7227089,22.628 L9.23032911,0.156333333 C6.11329114,1.65533333 1.61660759,1.47633333 0.133620253,1.36666667" id="path-26"></path>
        <path d="M31.1831081,4.2521203 C28.2658784,5.66409023 26.6290541,8.15687218 25.7611486,10.0333233 L25.7611486,10.0333233 L0.232094595,40.5091128 L3.22939189,42.5258346 C7.17060811,45.1777444 12.5915541,43.8752782 14.8310811,39.7376241 L14.8310811,39.7376241 L28.6611486,13.7680301 C35.6047297,15.8108872 42.6307432,16.2012632 49.7168919,15.3910677 L49.7168919,15.3910677 L49.0939189,13.3637594 C48.735473,12.1969323 47.8543919,11.2534135 46.7003378,10.7988571 L46.7003378,10.7988571 L35.4341216,6.36213534 C35.4341216,6.36213534 35.2638514,4.94685714 37.8141892,3.98547368 L37.8141892,3.98547368 C40.3648649,3.02409023 39.7685811,0.226947368 39.7685811,0.226947368 L39.7685811,0.226947368 C39.7685811,0.226947368 36.2841216,1.78348872 31.1831081,4.2521203" id="path-28"></path>
        <path d="M6.95560976,0.484666667 L0.32097561,18.6103333 C0.32097561,18.6103333 6.19585366,23.0936667 10.4825854,21.578 L10.4825854,21.578 L13.8258537,11.188 C13.8258537,11.188 11.6305854,0.273 7.87039024,0.272 L7.87039024,0.272 C7.57502439,0.272 7.27009756,0.339333333 6.95560976,0.484666667" id="path-30"></path>
        <path d="M3.63938776,0.18321875 L0.0326122449,18.077125 L10.2829184,21.9676875 C10.2829184,21.9676875 16.7762245,4.043875 16.7762245,3.7558125 L16.7762245,3.7558125 C16.7762245,0.5795625 11.0763673,0.03746875 7.18579592,0.0378123367 L7.18579592,0.0378123367 C5.17008163,0.0378123367 3.63938776,0.18321875 3.63938776,0.18321875" id="path-32"></path>
        <path d="M6.92444156,0.23364 C4.13771429,1.01079 4.04181818,3.12081 4.34166234,4.55532 L4.34166234,4.55532 C4.4925974,5.27571 4.00906494,5.96904 3.2678961,6.09411 L3.2678961,6.09411 C-0.274519481,6.6924 -0.0232987013,9.40566 0.271818182,10.60521 L0.271818182,10.60521 C0.355896104,10.94412 0.575714286,11.23254 0.884,11.4081 L0.884,11.4081 C1.82574026,11.9427 3.96449351,13.365 3.91080519,15.22785 L3.91080519,15.22785 C3.8534026,17.2128 2.55103896,24.13851 2.11342857,26.41551 L2.11342857,26.41551 C2.02394805,26.88279 2.20493506,27.35601 2.58142857,27.65631 L2.58142857,27.65631 C5.36072727,29.87556 9.26207792,31.74039 11.1357662,32.57397 L11.1357662,32.57397 C11.7574026,32.85018 12.4951948,32.62413 12.8315065,32.043 L12.8315065,32.043 C14.4890909,29.17926 15.8502078,25.67994 16.4249091,24.11706 L16.4249091,24.11706 C16.6555325,23.4894 16.3604156,22.79574 15.7431688,22.51194 L15.7431688,22.51194 C14.3695584,21.87933 12.2085195,22.12617 9.8458961,22.43472 L9.8458961,22.43472 C7.24184416,22.77429 7.05781818,20.27619 7.05916883,19.55019 L7.05916883,19.55019 C7.05916883,19.43172 7.07605195,19.31622 7.10914286,19.20237 L7.10914286,19.20237 L9.68145455,10.30062 C9.78984416,9.92508 10.064026,9.61719 10.4317403,9.46572 L10.4317403,9.46572 C11.5926234,8.98689 14.2216623,8.15463 15.9481299,9.54558 L15.9481299,9.54558 C18.2189091,11.37543 23.0157403,13.19208 24.6682597,10.43097 L24.6682597,10.43097 C26.3201039,7.67019 26.5355325,2.59116 22.0284156,1.16622 L22.0284156,1.16622 C19.4881818,0.363 17.9879481,1.54869 17.1623636,2.73702 L17.1623636,2.73702 C16.7321818,3.35544 15.8421039,3.50196 15.2569351,3.02016 L15.2569351,3.02016 C14.823039,2.66244 14.4188571,2.66904 14.0845714,2.8149 L14.0845714,2.8149 C13.4973766,3.07131 12.8115844,2.90367 12.4452208,2.38722 L12.4452208,2.38722 C11.7016883,1.33881 10.3682597,0.02871 8.34903896,0.0290399377 L8.34903896,0.0290399377 C7.90737662,0.0290399377 7.43262338,0.09174 6.92444156,0.23364" id="path-34"></path>
        <path d="M0.262941176,3.70633333 C0.367764706,8.55166667 4.20211765,7.665 4.20211765,7.665 L4.20211765,7.665 C4.20211765,7.665 6.99070588,2.68333333 5.14658824,1.11933333 L5.14658824,1.11933333 C4.47635294,0.550666667 3.63635294,0.222333333 2.84329412,0.222333333 L2.84329412,0.222333333 C1.45482353,0.222333333 0.209647059,1.22733333 0.262941176,3.70633333" id="path-36"></path>
        <path d="M13.1470172,0.298472727 L11.7849138,2.86363636 L18.312069,33.3559636 C15.1508621,35.5935273 9.16258621,35.1962182 8.04125862,35.0980364 L8.04125862,35.0980364 L0.584741379,0.364909091 C0.554931034,0.2268 0.419637931,0.137781818 0.280086207,0.168218182 L0.280086207,0.168218182 C0.141517241,0.197672727 0.0533965517,0.334145455 0.0832068966,0.472581818 L0.0832068966,0.472581818 L7.61801724,35.5699636 L7.8017931,35.5902545 C7.91055172,35.6023636 8.91886207,35.7093818 10.3310862,35.7093818 L10.3310862,35.7093818 C12.7883103,35.7093818 16.467431,35.3844 18.7520172,33.6701455 L18.7520172,33.6701455 L18.8827241,33.5719636 L12.325431,2.93923636 L13.6007241,0.539018182 C13.6668966,0.413672727 13.619069,0.258872727 13.4942586,0.192109091 L13.4942586,0.192109091 C13.455931,0.171818182 13.4146552,0.162247567 13.3740345,0.162247567 L13.3740345,0.162247567 C13.2819828,0.162247567 13.1932069,0.211745455 13.1470172,0.298472727" id="path-38"></path>
        <linearGradient x1="-0.000841500138%" y1="49.9998459%" x2="100.000176%" y2="49.9998459%" id="linearGradient-40">
            <stop stop-color="#3F42E2" offset="0%"></stop>
            <stop stop-color="#4F52FF" offset="100%"></stop>
        </linearGradient>
        <filter id="filter-41">
            <feColorMatrix in="SourceGraphic" type="matrix" values="0 0 0 0 0.549020 0 0 0 0 0.807843 0 0 0 0 1.000000 0 0 0 1.000000 0"></feColorMatrix>
        </filter>
        <path d="M2.394,0.0255 C1.145,0.0255 0.132666667,1.164375 0.132666667,2.569125 L0.132666667,2.569125 L0.132666667,2.767125 L32.9256667,2.767125 C32.9256667,1.25325 31.8343333,0.0255 30.4883333,0.0255 L30.4883333,0.0255 L2.394,0.0255 Z" id="path-42"></path>
        <path d="M4.288704,0.116666667 C2.056656,0.116666667 0.23016,1.92833333 0.23016,4.143 L0.23016,4.143 L0.23016,7.784 C0.23016,9.998 2.056656,11.81 4.288704,11.81 L4.288704,11.81 L37.732128,11.81 C39.964176,11.81 41.790672,9.998 41.790672,7.784 L41.790672,7.784 L41.790672,4.143 C41.790672,1.92833333 39.964176,0.116666667 37.732128,0.116666667 L37.732128,0.116666667 L4.288704,0.116666667 Z" id="path-44"></path>
        <path d="M1.4205375,5.261845 C0.4239,5.923135 -0.12285,7.07587 0.027,8.256745 L0.027,8.256745 C0.7853625,14.21941 3.9038625,33.51876 14.1858,52.36854 L14.1858,52.36854 C14.727825,53.36215 14.88375,54.51924 14.6448,55.62474 L14.6448,55.62474 L12.8584125,63.876125 L9.54585,66.95913 L18.078525,66.95913 L23.76,51.69854 L21.330675,50.935745 C19.44675,50.34447 18.1544625,48.624915 18.120375,46.664495 L18.120375,46.664495 L17.8351875,30.29338 C18.078525,22.99976 13.3299,17.967725 13.3299,17.967725 L13.3299,17.967725 L26.9571375,17.309115 L13.387275,0.192625 C13.387275,0.192625 7.753725,1.05927 1.4205375,5.261845" id="path-46"></path>
        <path d="M14.8075517,0.342982759 C14.8075517,0.342982759 12.7208276,13.1443966 10.5181379,14.5782414 L10.5181379,14.5782414 C8.3147931,16.0117586 4.35427586,14.7230345 4.35427586,14.7230345 L4.35427586,14.7230345 C4.35427586,14.7230345 1.24744828,16.011431 0.134310345,17.4678793 L0.134310345,17.4678793 C-0.619793103,18.4548966 8.25287931,19.7573793 12.7352414,17.5982586 L12.7352414,17.5982586 C12.7352414,17.5982586 18.9492241,6.78693103 18.9492241,1.22058621 L18.9492241,1.22058621 C18.9492241,1.22058621 18.5508793,0.304982759 15.8266724,0.304982759 L15.8266724,0.304982759 C15.5177586,0.304982759 15.1790345,0.316775862 14.8075517,0.342982759" id="path-48"></path>
        <linearGradient x1="53.1536906%" y1="2.64727053%" x2="32.7501842%" y2="308.936846%" id="linearGradient-50">
            <stop stop-color="#08005D" offset="0%"></stop>
            <stop stop-color="#1A0E90" offset="100%"></stop>
        </linearGradient>
        <path d="M35.0050828,5.25645226 C27.0254201,13.0441206 13.9980533,56.6989749 13.9980533,56.6989749 L13.9980533,56.6989749 L0.0785857988,64.9131558 C6.80020118,66.4596784 13.631432,66.079598 20.5759882,63.7009447 L20.5759882,63.7009447 L18.3300533,56.6989749 C18.3300533,56.6989749 39.7509231,30.6827035 41.243716,24.6776985 L41.243716,24.6776985 C42.7358343,18.6730251 42.2582485,14.3107236 42.2582485,14.3107236 L42.2582485,14.3107236 C42.2582485,14.3107236 56.8482249,15.9126332 56.9204024,16.0356784 L56.9204024,16.0356784 L49.6297988,0.281246231 L35.0050828,5.25645226 Z" id="path-51"></path>
        <path d="M18.5037474,3.32433333 C14.7011368,4.78466667 0.0747789474,9.94933333 0.0747789474,9.94933333 L0.0747789474,9.94933333 L20.1448421,26.9230048 C20.1448421,26.9230048 43.6601263,26.9286667 52.4688842,26.5513333 L52.4688842,26.5513333 C61.2773053,26.1736667 64.2657684,23.8833333 63.5769263,18.2466667 L63.5769263,18.2466667 C62.8880842,12.61 54.4933053,0.253666667 54.4933053,0.253666667 L54.4933053,0.253666667 C54.4933053,0.253666667 22.3066947,1.86366667 18.5037474,3.32433333" id="path-53"></path>
        <path d="M7.085,3.54991304 C6.405,3.59026087 6.088,2.68869565 6.62833333,2.25530435 L6.62833333,2.25530435 L7.05566667,1.91373913 C1.26733333,4.80695652 0.200333333,7.34886957 0.200333333,7.34886957 L0.200333333,7.34886957 C5.34033333,8.93773913 24.272,5.43582609 24.272,5.43582609 L24.272,5.43582609 C25.8863333,2.74852174 23.4966667,0.333217391 23.4966667,0.333217391 L23.4966667,0.333217391 C18.7923333,2.59373913 10.8993333,3.32278261 7.085,3.54991304" id="path-55"></path>
        <linearGradient x1="55.3718997%" y1="25.8237474%" x2="39.4749946%" y2="102.538791%" id="linearGradient-57">
            <stop stop-color="#08005D" offset="0%"></stop>
            <stop stop-color="#1A0E90" offset="100%"></stop>
        </linearGradient>
        <path d="M12.4626446,0.308656716 L0.421181818,12.4368955 C0.300553719,12.5580597 0.247355372,12.7278209 0.276834711,12.8936418 L0.276834711,12.8936418 L3.9383719,33.3861493 C3.96615702,33.541791 4.06408264,33.6770746 4.20571901,33.7555522 L4.20571901,33.7555522 L22.3429669,43.7793433 C22.4158182,43.8197313 22.4951074,43.8430448 22.5791405,43.8476418 L22.5791405,43.8476418 C23.9026612,43.9208657 35.2261157,44.3789254 36.2714463,38.7817313 L36.2714463,38.7817313 C36.9379504,35.2108358 35.2877851,33.4012537 33.8636281,32.5261791 L33.8636281,32.5261791 C33.4482066,32.2703881 33.5613802,31.6553731 34.0438926,31.5650746 L34.0438926,31.5650746 C36.8993223,31.0321493 41.7132645,29.1421194 40.5056281,22.4396716 L40.5056281,22.4396716 C39.2098926,15.2522388 31.2924876,15.3589552 27.6489091,15.8048657 L27.6489091,15.8048657 C27.137595,15.8672537 26.8414463,15.276209 27.1941818,14.9123881 L27.1941818,14.9123881 C28.6539174,13.4052239 30.4447025,10.6594925 28.0480661,7.74958209 L28.0480661,7.74958209 C25.3342727,4.4541791 20.9560826,5.10564179 18.9741901,5.62247761 L18.9741901,5.62247761 C18.5879091,5.72361194 18.2178926,5.4018209 18.2965041,5.02158209 L18.2965041,5.02158209 C18.8904959,2.15468657 14.2910413,0.555253731 13.0146198,0.169432836 L13.0146198,0.169432836 C12.9617603,0.153671642 12.9075455,0.145791045 12.8543471,0.145791045 L12.8543471,0.145791045 C12.7086446,0.145791045 12.5673471,0.203253731 12.4626446,0.308656716" id="path-58"></path>
        <path d="M0.248368421,1.781 C0.364342105,2.157 3.27018421,11.543 3.49734211,11.7376667 L3.49734211,11.7376667 C3.72484211,11.9323333 9.86973684,12.2546667 12.7622368,10.3283333 L12.7622368,10.3283333 L7.85507895,0.319333333 L0.248368421,1.781 Z" id="path-60"></path>
        <path d="M10.7383051,0.406492308 C10.7383051,0.406492308 5.54033898,2.59803077 2.00644068,10.0973231 L2.00644068,10.0973231 C-1.52813559,17.5966154 1.11118644,21.0590769 4.42610169,21.5349538 L4.42610169,21.5349538 C7.74169492,22.0101538 12.699322,21.9377231 17.9433898,17.0929846 L17.9433898,17.0929846 C22.760339,12.6428923 18.3494915,0.0964615385 12.3620339,0.0964615385 L12.3620339,0.0964615385 C11.8315254,0.0964615385 11.2884746,0.194953846 10.7383051,0.406492308" id="path-62"></path>
        <path d="M3.39737705,1.349 C-2.27770492,4.209 1.18,10.2 1.18,10.2 L1.18,10.2 L3.39737705,8.62433333 C12.8206557,8.752 9.02721311,19.5576667 9.02721311,19.5576667 L9.02721311,19.5576667 L9.61704918,19.867 C9.61704918,19.867 11.6711475,17.6213333 12.5619672,19.4823333 L12.5619672,19.4823333 C13.4527869,21.343 11.264918,24.8213333 11.264918,24.8213333 L11.264918,24.8213333 C11.264918,24.8213333 12.9206557,29.0376667 16.9383607,25.3193333 L16.9383607,25.3193333 C20.9560656,21.6006667 20.5439344,16.3973333 18.1288525,8.62433333 L18.1288525,8.62433333 C16.3718033,2.96933333 12.3780328,0.178 8.14655738,0.178333333 L8.14655738,0.178333333 C6.56196721,0.178333333 4.94360656,0.569666667 3.39737705,1.349" id="path-64"></path>
        <path d="M0.267176471,4.09433333 L0.892941176,6.834 C2.84752941,5.887 7.83952941,2.96166667 5.08552941,0.745 L5.08552941,0.745 C4.62811765,0.377 4.19011765,0.223333333 3.77717647,0.223333333 L3.77717647,0.223333333 C1.70329412,0.223666667 0.267176471,4.09433333 0.267176471,4.09433333" id="path-66"></path>
        <linearGradient x1="91.1017404%" y1="61.6515152%" x2="-112.817953%" y2="13.8020603%" id="linearGradient-68">
            <stop stop-color="#FF918E" offset="0%"></stop>
            <stop stop-color="#FDB3B1" offset="100%"></stop>
        </linearGradient>
        <path d="M38.0146667,4.08833333 L32.413,5.605 C26.811,7.12133333 17.0236667,5.605 17.0236667,5.605 L17.0236667,5.605 L7.191,1.451 L0.083,8.30166667 L7.134,11.14 C7.134,11.14 46.5613333,12.374 48.2283333,11.6446667 L48.2283333,11.6446667 C49.0463333,11.2863333 50.33,10.4313333 51.4253333,9.65333333 L51.4253333,9.65333333 C52.6586667,8.77666667 53.166,7.193 52.6613333,5.76633333 L52.6613333,5.76633333 L50.6733333,0.147666667 L38.0146667,4.08833333 Z" id="path-69"></path>
        <path d="M0.143932922,1.97533333 C0.142941176,2.99433333 0.962205882,3.82133333 1.97404412,3.82233333 L1.97404412,3.82233333 L42.9022059,3.86733333 C42.9336397,3.86766667 42.9650735,3.86666667 42.9961765,3.86566667 L42.9961765,3.86566667 C43.9640074,3.817 44.7349632,3.011 44.7362877,2.024 L44.7362877,2.024 C44.7372794,1.00433333 43.9180147,0.177333333 42.9061765,0.176666667 L42.9061765,0.176666667 L1.97801471,0.131666667 C1.96709559,0.131666667 1.95617647,0.131333333 1.94525735,0.131333333 L1.94525735,0.131333333 C0.951286765,0.131333333 0.144926471,0.966666667 0.143932922,1.97533333" id="path-71"></path>
        <path d="M2.90724157,0.0946283186 C0.98311236,0.0946283186 -0.335769663,2.01044248 0.371235955,3.77825664 L0.371235955,3.77825664 L12.6117472,34.3749646 C13.2083764,35.8664248 14.6671348,36.8461062 16.2899663,36.8461062 L16.2899663,36.8461062 L58.7228989,36.8461062 L42.9380787,3.78120354 C41.8634831,1.53042478 39.5707697,0.0946283186 37.052,0.0946283186 L37.052,0.0946283186 L2.90724157,0.0946283186 Z" id="path-73"></path>
        <path d="M1.76115789,0.331333333 C0.413684211,0.789333333 -0.107052632,3.03433333 0.598105263,5.34633333 L0.598105263,5.34633333 C1.30294737,7.658 2.96652632,9.161 4.314,8.70333333 L4.314,8.70333333 C5.66147368,8.24566667 6.18221053,6.00066667 5.47736842,3.68866667 L5.47736842,3.68866667 C4.85747368,1.65666667 3.49705263,0.249333333 2.262,0.249333333 L2.262,0.249333333 C2.09210526,0.249333333 1.92410526,0.276 1.76115789,0.331333333" id="path-75"></path>
        <path d="M0.0416721311,0.0255384615 L0.0416721311,3.89138462 L40.9526148,3.89138462 C40.0771639,3.89138462 40.0771639,0.0255384615 40.9526148,0.0255384615 L40.9526148,0.0255384615 L0.0416721311,0.0255384615 Z" id="path-77"></path>
        <linearGradient x1="-0.000325461042%" y1="49.9948217%" x2="100.000333%" y2="49.9948217%" id="linearGradient-79">
            <stop stop-color="#FD7062" offset="0%"></stop>
            <stop stop-color="#FF918E" offset="100%"></stop>
        </linearGradient>
        <path d="M2.0362446,0.0764210526 C1.07553957,0.0764210526 0.29618705,0.819789474 0.29618705,1.73684211 L0.29618705,1.73684211 L0.29618705,4.27231579 C0.29618705,5.13726316 1.03086331,5.838 1.93663309,5.838 L1.93663309,5.838 L45.5274245,5.838 C45.7094388,5.838 45.8583597,5.69589474 45.8583597,5.52221053 L45.8583597,5.52221053 L45.8583597,5.25663158 C45.8583597,5.08294737 45.7094388,4.94115789 45.5274245,4.94115789 L45.5274245,4.94115789 L4.67379856,4.94115789 C4.49211511,4.94115789 4.34319424,4.79873684 4.34319424,4.62505263 L4.34319424,4.62505263 L4.34319424,1.28905263 C4.34319424,1.11568421 4.49211511,0.973578947 4.67379856,0.973578947 L4.67379856,0.973578947 L45.5274245,0.973578947 C45.7094388,0.973578947 45.8583597,0.831473684 45.8583597,0.657789474 L45.8583597,0.657789474 L45.8583597,0.392210526 C45.8583597,0.218526316 45.7094388,0.0764210526 45.5274245,0.0764210526 L45.5274245,0.0764210526 L2.0362446,0.0764210526 Z" id="path-80"></path>
        <linearGradient x1="50.8627405%" y1="56.0735317%" x2="50.4838535%" y2="53.3302434%" id="linearGradient-82">
            <stop stop-color="#A12A24" offset="0%"></stop>
            <stop stop-color="#BF423B" offset="100%"></stop>
        </linearGradient>
        <polygon id="path-83" points="0.319076239 0.140266667 190.973528 0.140266667 190.973528 7.94893333 0.319076239 7.94893333"></polygon>
    </defs>
    <g id="Comfortable-Themes" stroke="none" stroke-width="1" fill="none" fill-rule="evenodd">
        <g id="Outsourcing-IT-Profesional---alt" transform="translate(-938.000000, -3867.000000)">
            <g id="Group-137" transform="translate(938.000000, 3867.000000)">
                <g id="Group-136">
                    <path d="M119.751712,221.193498 C227.911024,224.306873 299.293257,98.7868949 208.657112,99.8316354 C118.020967,100.876376 168.069133,1.42108547e-14 96.8229295,1.42108547e-14 C25.5767256,1.42108547e-14 0,65.3364845 0,96.8460676 C0,128.355651 11.5924005,218.080122 119.751712,221.193498 Z" id="Oval-Copy-12" fill="url(#linearGradient-1)" opacity="0.2"></path>
                    <circle id="Oval-Copy-13" fill="url(#linearGradient-2)" opacity="0.3" cx="199" cy="44" r="25"></circle>
                </g>
                <g id="Group-116" transform="translate(47.000000, 5.000000)">
                    <g id="Group-3" transform="translate(52.000000, 184.000000)">
                        <mask id="mask-4" fill="white">
                            <use xlink:href="#path-3"></use>
                        </mask>
                        <g id="Clip-2"></g>
                        <path d="M0.896342857,1.89625 C0.896342857,1.89625 0.469857143,4.1490625 0.3013,6.8234375 L0.3013,6.8234375 C0.229342857,7.9628125 1.11747143,8.9528125 2.31215714,9.0628125 L2.31215714,9.0628125 C6.4722,9.446875 15.9413,10.1553125 21.9873429,9.3253125 L21.9873429,9.3253125 C22.8344,9.2090625 23.1708571,8.2196875 22.5449286,7.665 L22.5449286,7.665 C20.0517286,5.4559375 14.0309857,1.1590625 4.12094286,0.219375 L4.12094286,0.219375 L0.896342857,1.89625 Z" id="Fill-1" fill="url(#linearGradient-5)" mask="url(#mask-4)"></path>
                    </g>
                    <g id="Group-6" transform="translate(50.000000, 178.000000)">
                        <mask id="mask-7" fill="white">
                            <use xlink:href="#path-6"></use>
                        </mask>
                        <g id="Clip-5"></g>
                        <path d="M0.150956522,2.36042308 L2.3773913,7.79192308 C2.68243478,8.53615385 3.4413913,8.99861538 4.24452174,8.91519231 L4.24452174,8.91519231 C4.78956522,8.85807692 5.43547826,8.75423077 6.06330435,8.56453846 L6.06330435,8.56453846 C7.32,8.18480769 8.02852174,6.85938462 7.65252174,5.60734615 L7.65252174,5.60734615 L5.97182609,0.0131538462 L0.150956522,2.36042308 Z" id="Fill-4" fill="url(#linearGradient-8)" mask="url(#mask-7)"></path>
                    </g>
                    <g id="Group-9" transform="translate(7.000000, 190.000000)">
                        <mask id="mask-10" fill="white">
                            <use xlink:href="#path-9"></use>
                        </mask>
                        <g id="Clip-8"></g>
                        <path d="M0.235625,8.514 C0.0169,9.781 0.9789,10.939 2.233725,10.939 L2.233725,10.939 L10.8069,10.939 C12.115025,10.939 13.0585,9.61 12.612275,8.349 L12.612275,8.349 C10.9889,3.763 6.82305,0.188333333 6.82305,0.188333333 L6.82305,0.188333333 C2.356575,0.201333333 0.781625,5.347 0.235625,8.514" id="Fill-7" fill="url(#linearGradient-11)" mask="url(#mask-10)"></path>
                    </g>
                    <g id="Group-12" transform="translate(9.000000, 185.000000)">
                        <mask id="mask-13" fill="white">
                            <use xlink:href="#path-12"></use>
                        </mask>
                        <g id="Clip-11"></g>
                        <path d="M0.0399,0.869 C0.0399,0.869 0.9464,4.689 1.64325,7.21333333 L1.64325,7.21333333 C1.76925,7.67166667 2.2827,7.923 2.75135,7.76366667 L2.75135,7.76366667 C4.14855,7.288 5.28535,7.07766667 6.11205,7.183 L6.11205,7.183 C6.49425,7.232 6.8278,6.92933333 6.8327,6.56233333 L6.8327,6.56233333 L6.9195,0.217333333 L0.0399,0.869 Z" id="Fill-10" fill="url(#linearGradient-14)" mask="url(#mask-13)"></path>
                    </g>
                    <g id="Group-15" transform="translate(0.000000, 90.000000)">
                        <mask id="mask-16" fill="white">
                            <use xlink:href="#path-15"></use>
                        </mask>
                        <g id="Clip-14"></g>
                        <path d="M7.47589595,96.7293333 L16.2156763,96.0546667 C13.6282717,67.868 18.9674913,28.6063333 18.9674913,28.6063333 L18.9674913,28.6063333 L49.4799538,92.3253333 C51.8271676,92.4616667 56.7545376,89.197 56.7545376,89.197 L56.7545376,89.197 L31.0659884,9.911 L4.02854913,0.0263333333 C-6.73456647,24.698 7.47589595,96.7293333 7.47589595,96.7293333" id="Fill-13" fill="url(#linearGradient-17)" mask="url(#mask-16)"></path>
                    </g>
                    <g id="Group-18" transform="translate(19.000000, 109.000000)">
                        <mask id="mask-19" fill="white">
                            <use xlink:href="#path-18"></use>
                        </mask>
                        <g id="Clip-17"></g>
                        <path d="M1.338,0.311192308 L0.1276,8.62407692 C0.1068,8.76738462 0.224,8.89823077 0.3896,8.91657692 L0.3896,8.91657692 C0.4024,8.91726923 0.4152,8.91830769 0.428,8.91830769 L0.428,8.91830769 C0.578,8.91830769 0.708,8.82173077 0.7272,8.6895 L0.7272,8.6895 L1.9376,0.376961538 C1.9584,0.233653846 1.8408,0.102807692 1.6752,0.0848076923 L1.6752,0.0848076923 C1.6636,0.0834230769 1.6516,0.0830769231 1.64,0.0830769231 L1.64,0.0830769231 C1.4876,0.0830769231 1.3572,0.178615385 1.338,0.311192308" id="Fill-16" fill="url(#linearGradient-20)" mask="url(#mask-19)"></path>
                    </g>
                    <g id="Group-21" transform="translate(1.000000, 29.000000)">
                        <mask id="mask-22" fill="white">
                            <use xlink:href="#path-21"></use>
                        </mask>
                        <g id="Clip-20"></g>
                        <path d="M17.3186374,17.0937202 C17.3186374,17.0937202 5.61535165,39.0981972 0.143785714,65.0192248 L0.143785714,65.0192248 C-0.0338516484,65.8624083 0.531571429,66.6851651 1.38221978,66.8308303 L1.38221978,66.8308303 L36.6398846,72.8623716 C37.6128681,73.0284633 38.5506593,72.4226972 38.798011,71.4680046 L38.798011,71.4680046 L47.222044,38.9391376 L50.5049835,54.0628624 L60.9356484,51.3474633 L52.1546648,6.9065367 C52.1546648,6.9065367 50.9296374,0.422261468 35.4952967,0.143990826 L35.4952967,0.143990826 C35.4952967,0.143990826 14.3236044,2.02189908 17.3186374,17.0937202" id="Fill-19" fill="#FFFFFF" mask="url(#mask-22)"></path>
                    </g>
                    <g id="Group-24" transform="translate(48.000000, 53.000000)">
                        <mask id="mask-24" fill="white">
                            <use xlink:href="#path-23"></use>
                        </mask>
                        <g id="Clip-23"></g>
                        <path d="M2.57154545,0.241666667 L0.180272727,13.663 C0.155454545,13.804 0.228272727,13.943 0.343636364,13.9736667 L0.343636364,13.9736667 C0.359181818,13.9776667 0.374454545,13.9796667 0.389181818,13.9796667 L0.389181818,13.9796667 C0.487363636,13.9796667 0.575727273,13.8963333 0.597818182,13.7743333 L0.597818182,13.7743333 L2.98936364,0.353333333 C3.01445455,0.212333333 2.94109091,0.073 2.82627273,0.042 L2.82627273,0.042 C2.811,0.0383333333 2.79572727,0.0363333333 2.78072727,0.0363333333 L2.78072727,0.0363333333 C2.68145455,0.0363333333 2.59363636,0.119666667 2.57154545,0.241666667" id="Fill-22" fill="url(#linearGradient-25)" mask="url(#mask-24)"></path>
                    </g>
                    <g id="Group-27" transform="translate(27.000000, 84.000000)">
                        <mask id="mask-27" fill="white">
                            <use xlink:href="#path-26"></use>
                        </mask>
                        <g id="Clip-26"></g>
                        <path d="M0.133620253,1.36666667 L5.87106329,27.859 L25.948,27.859 L18.7851646,23.2513333 C17.694481,22.6436667 16.417519,22.4753333 15.21,22.7803333 L15.21,22.7803333 L12.8008861,23.387 C12.2891139,23.5163333 11.7819494,23.1593333 11.7227089,22.628 L11.7227089,22.628 L9.23032911,0.156333333 C6.11329114,1.65533333 1.61660759,1.47633333 0.133620253,1.36666667" id="Fill-25" fill="#FFB48D" mask="url(#mask-27)"></path>
                    </g>
                    <g id="Group-30" transform="translate(51.000000, 43.000000)">
                        <mask id="mask-29" fill="white">
                            <use xlink:href="#path-28"></use>
                        </mask>
                        <g id="Clip-29"></g>
                        <path d="M31.1831081,4.2521203 C28.2658784,5.66409023 26.6290541,8.15687218 25.7611486,10.0333233 L25.7611486,10.0333233 L0.232094595,40.5091128 L3.22939189,42.5258346 C7.17060811,45.1777444 12.5915541,43.8752782 14.8310811,39.7376241 L14.8310811,39.7376241 L28.6611486,13.7680301 C35.6047297,15.8108872 42.6307432,16.2012632 49.7168919,15.3910677 L49.7168919,15.3910677 L49.0939189,13.3637594 C48.735473,12.1969323 47.8543919,11.2534135 46.7003378,10.7988571 L46.7003378,10.7988571 L35.4341216,6.36213534 C35.4341216,6.36213534 35.2638514,4.94685714 37.8141892,3.98547368 L37.8141892,3.98547368 C40.3648649,3.02409023 39.7685811,0.226947368 39.7685811,0.226947368 L39.7685811,0.226947368 C39.7685811,0.226947368 36.2841216,1.78348872 31.1831081,4.2521203" id="Fill-28" fill="#FFB48D" mask="url(#mask-29)"></path>
                    </g>
                    <g id="Group-33" transform="translate(36.000000, 15.000000)">
                        <mask id="mask-31" fill="white">
                            <use xlink:href="#path-30"></use>
                        </mask>
                        <g id="Clip-32"></g>
                        <path d="M6.95560976,0.484666667 L0.32097561,18.6103333 C0.32097561,18.6103333 6.19585366,23.0936667 10.4825854,21.578 L10.4825854,21.578 L13.8258537,11.188 C13.8258537,11.188 11.6305854,0.273 7.87039024,0.272 L7.87039024,0.272 C7.57502439,0.272 7.27009756,0.339333333 6.95560976,0.484666667" id="Fill-31" fill="#FFB48D" mask="url(#mask-31)"></path>
                    </g>
                    <g id="Group-36" transform="translate(46.000000, 5.000000)">
                        <mask id="mask-33" fill="white">
                            <use xlink:href="#path-32"></use>
                        </mask>
                        <g id="Clip-35"></g>
                        <path d="M3.63938776,0.18321875 L0.0326122449,18.077125 L10.2829184,21.9676875 C10.2829184,21.9676875 16.7762245,4.043875 16.7762245,3.7558125 L16.7762245,3.7558125 C16.7762245,0.5795625 11.0763673,0.03746875 7.18579592,0.0378123367 L7.18579592,0.0378123367 C5.17008163,0.0378123367 3.63938776,0.18321875 3.63938776,0.18321875" id="Fill-34" fill="#FFB48D" mask="url(#mask-33)"></path>
                    </g>
                    <g id="Group-39" transform="translate(42.000000, 0.000000)">
                        <mask id="mask-35" fill="white">
                            <use xlink:href="#path-34"></use>
                        </mask>
                        <g id="Clip-38"></g>
                        <path d="M6.92444156,0.23364 C4.13771429,1.01079 4.04181818,3.12081 4.34166234,4.55532 L4.34166234,4.55532 C4.4925974,5.27571 4.00906494,5.96904 3.2678961,6.09411 L3.2678961,6.09411 C-0.274519481,6.6924 -0.0232987013,9.40566 0.271818182,10.60521 L0.271818182,10.60521 C0.355896104,10.94412 0.575714286,11.23254 0.884,11.4081 L0.884,11.4081 C1.82574026,11.9427 3.96449351,13.365 3.91080519,15.22785 L3.91080519,15.22785 C3.8534026,17.2128 2.55103896,24.13851 2.11342857,26.41551 L2.11342857,26.41551 C2.02394805,26.88279 2.20493506,27.35601 2.58142857,27.65631 L2.58142857,27.65631 C5.36072727,29.87556 9.26207792,31.74039 11.1357662,32.57397 L11.1357662,32.57397 C11.7574026,32.85018 12.4951948,32.62413 12.8315065,32.043 L12.8315065,32.043 C14.4890909,29.17926 15.8502078,25.67994 16.4249091,24.11706 L16.4249091,24.11706 C16.6555325,23.4894 16.3604156,22.79574 15.7431688,22.51194 L15.7431688,22.51194 C14.3695584,21.87933 12.2085195,22.12617 9.8458961,22.43472 L9.8458961,22.43472 C7.24184416,22.77429 7.05781818,20.27619 7.05916883,19.55019 L7.05916883,19.55019 C7.05916883,19.43172 7.07605195,19.31622 7.10914286,19.20237 L7.10914286,19.20237 L9.68145455,10.30062 C9.78984416,9.92508 10.064026,9.61719 10.4317403,9.46572 L10.4317403,9.46572 C11.5926234,8.98689 14.2216623,8.15463 15.9481299,9.54558 L15.9481299,9.54558 C18.2189091,11.37543 23.0157403,13.19208 24.6682597,10.43097 L24.6682597,10.43097 C26.3201039,7.67019 26.5355325,2.59116 22.0284156,1.16622 L22.0284156,1.16622 C19.4881818,0.363 17.9879481,1.54869 17.1623636,2.73702 L17.1623636,2.73702 C16.7321818,3.35544 15.8421039,3.50196 15.2569351,3.02016 L15.2569351,3.02016 C14.823039,2.66244 14.4188571,2.66904 14.0845714,2.8149 L14.0845714,2.8149 C13.4973766,3.07131 12.8115844,2.90367 12.4452208,2.38722 L12.4452208,2.38722 C11.7016883,1.33881 10.3682597,0.02871 8.34903896,0.0290399377 L8.34903896,0.0290399377 C7.90737662,0.0290399377 7.43262338,0.09174 6.92444156,0.23364" id="Fill-37" fill="#4A2009" mask="url(#mask-35)"></path>
                    </g>
                    <g id="Group-42" transform="translate(41.000000, 10.000000)">
                        <mask id="mask-37" fill="white">
                            <use xlink:href="#path-36"></use>
                        </mask>
                        <g id="Clip-41"></g>
                        <path d="M0.262941176,3.70633333 C0.367764706,8.55166667 4.20211765,7.665 4.20211765,7.665 L4.20211765,7.665 C4.20211765,7.665 6.99070588,2.68333333 5.14658824,1.11933333 L5.14658824,1.11933333 C4.47635294,0.550666667 3.63635294,0.222333333 2.84329412,0.222333333 L2.84329412,0.222333333 C1.45482353,0.222333333 0.209647059,1.22733333 0.262941176,3.70633333" id="Fill-40" fill="#FFB48D" mask="url(#mask-37)"></path>
                    </g>
                    <g id="Group-45" transform="translate(19.000000, 50.000000)">
                        <mask id="mask-39" fill="white">
                            <use xlink:href="#path-38"></use>
                        </mask>
                        <g id="Clip-44"></g>
                        <path d="M13.1470172,0.298472727 L11.7849138,2.86363636 L18.312069,33.3559636 C15.1508621,35.5935273 9.16258621,35.1962182 8.04125862,35.0980364 L8.04125862,35.0980364 L0.584741379,0.364909091 C0.554931034,0.2268 0.419637931,0.137781818 0.280086207,0.168218182 L0.280086207,0.168218182 C0.141517241,0.197672727 0.0533965517,0.334145455 0.0832068966,0.472581818 L0.0832068966,0.472581818 L7.61801724,35.5699636 L7.8017931,35.5902545 C7.91055172,35.6023636 8.91886207,35.7093818 10.3310862,35.7093818 L10.3310862,35.7093818 C12.7883103,35.7093818 16.467431,35.3844 18.7520172,33.6701455 L18.7520172,33.6701455 L18.8827241,33.5719636 L12.325431,2.93923636 L13.6007241,0.539018182 C13.6668966,0.413672727 13.619069,0.258872727 13.4942586,0.192109091 L13.4942586,0.192109091 C13.455931,0.171818182 13.4146552,0.162247567 13.3740345,0.162247567 L13.3740345,0.162247567 C13.2819828,0.162247567 13.1932069,0.211745455 13.1470172,0.298472727" id="Fill-43" fill="url(#linearGradient-40)" mask="url(#mask-39)"></path>
                    </g>
                    <g filter="url(#filter-41)" id="Group-54">
                        <g transform="translate(37.000000, 121.000000)">
                            <path d="M1.77712165,82.9998677 C1.57697797,82.9998677 1.3734818,82.9568797 1.17769636,82.8666048 C0.407294061,82.509804 0.0515948276,81.5478637 0.382820881,80.7185251 L32.2318151,1.00975618 C32.5630412,0.18041753 33.4558094,-0.202176096 34.2268822,0.153963347 C34.9972845,0.510764143 35.3529837,1.47237371 35.0217577,2.30171235 L3.17309866,82.010812 C2.92568487,82.6295092 2.36548372,82.9998677 1.77712165,82.9998677" id="Fill-46" fill="#7D97F4"></path>
                            <path d="M37.6562787,82.9998677 C37.0679167,82.9998677 36.5077155,82.6298398 36.2603017,82.010812 L4.41164272,2.30171235 C4.08008142,1.47237371 4.4361159,0.510764143 5.2065182,0.153963347 C5.97625,-0.20283745 6.8696887,0.180086853 7.20158525,1.00975618 L39.0505795,80.7185251 C39.3818056,81.5478637 39.0257711,82.509804 38.255704,82.8666048 C38.0602538,82.9568797 37.8564224,82.9998677 37.6562787,82.9998677" id="Fill-48" fill="#7D97F4"></path>
                            <path d="M137.344593,82.9998677 C137.144449,82.9998677 136.940953,82.9568797 136.745168,82.8666048 C135.974765,82.509804 135.618731,81.5478637 135.950292,80.7185251 L167.798951,1.00975618 C168.130512,0.18041753 169.022945,-0.202176096 169.794018,0.153963347 C170.564756,0.510764143 170.920455,1.47237371 170.589229,2.30171235 L138.740235,82.010812 C138.493156,82.6295092 137.932955,82.9998677 137.344593,82.9998677" id="Fill-50" fill="#7D97F4"></path>
                            <path d="M173.223281,82.9998677 C172.634919,82.9998677 172.074717,82.6298398 171.827639,82.010812 L139.978645,2.30171235 C139.647419,1.47237371 140.003118,0.510764143 140.773855,0.153963347 C141.543587,-0.20283745 142.437026,0.180086853 142.768922,1.00975618 L174.617581,80.7185251 C174.949143,81.5478637 174.593108,82.509804 173.822706,82.8666048 C173.627256,82.9568797 173.42376,82.9998677 173.223281,82.9998677" id="Fill-52" fill="#7D97F4"></path>
                        </g>
                    </g>
                    <polygon id="Fill-55" fill="#4BB8EC" points="153 190 156 190 156 149 153 149"></polygon>
                    <g id="Group-59" transform="translate(138.000000, 188.000000)">
                        <mask id="mask-43" fill="white">
                            <use xlink:href="#path-42"></use>
                        </mask>
                        <g id="Clip-58"></g>
                        <path d="M2.394,0.0255 C1.145,0.0255 0.132666667,1.164375 0.132666667,2.569125 L0.132666667,2.569125 L0.132666667,2.767125 L32.9256667,2.767125 C32.9256667,1.25325 31.8343333,0.0255 30.4883333,0.0255 L30.4883333,0.0255 L2.394,0.0255 Z" id="Fill-57" fill="#36A0E4" mask="url(#mask-43)"></path>
                    </g>
                    <g id="Group-62" transform="translate(135.000000, 141.000000)">
                        <mask id="mask-45" fill="white">
                            <use xlink:href="#path-44"></use>
                        </mask>
                        <g id="Clip-61"></g>
                        <path d="M4.288704,0.116666667 C2.056656,0.116666667 0.23016,1.92833333 0.23016,4.143 L0.23016,4.143 L0.23016,7.784 C0.23016,9.998 2.056656,11.81 4.288704,11.81 L4.288704,11.81 L37.732128,11.81 C39.964176,11.81 41.790672,9.998 41.790672,7.784 L41.790672,7.784 L41.790672,4.143 C41.790672,1.92833333 39.964176,0.116666667 37.732128,0.116666667 L37.732128,0.116666667 L4.288704,0.116666667 Z" id="Fill-60" fill="#369FE4" mask="url(#mask-45)"></path>
                    </g>
                    <g id="Group-65" transform="translate(114.000000, 122.000000)">
                        <mask id="mask-47" fill="white">
                            <use xlink:href="#path-46"></use>
                        </mask>
                        <g id="Clip-64"></g>
                        <path d="M1.4205375,5.261845 C0.4239,5.923135 -0.12285,7.07587 0.027,8.256745 L0.027,8.256745 C0.7853625,14.21941 3.9038625,33.51876 14.1858,52.36854 L14.1858,52.36854 C14.727825,53.36215 14.88375,54.51924 14.6448,55.62474 L14.6448,55.62474 L12.8584125,63.876125 L9.54585,66.95913 L18.078525,66.95913 L23.76,51.69854 L21.330675,50.935745 C19.44675,50.34447 18.1544625,48.624915 18.120375,46.664495 L18.120375,46.664495 L17.8351875,30.29338 C18.078525,22.99976 13.3299,17.967725 13.3299,17.967725 L13.3299,17.967725 L26.9571375,17.309115 L13.387275,0.192625 C13.387275,0.192625 7.753725,1.05927 1.4205375,5.261845" id="Fill-63" fill="#F9A67A" mask="url(#mask-47)"></path>
                    </g>
                    <g id="Group-68" transform="translate(120.000000, 173.000000)">
                        <mask id="mask-49" fill="white">
                            <use xlink:href="#path-48"></use>
                        </mask>
                        <g id="Clip-67"></g>
                        <path d="M14.8075517,0.342982759 C14.8075517,0.342982759 12.7208276,13.1443966 10.5181379,14.5782414 L10.5181379,14.5782414 C8.3147931,16.0117586 4.35427586,14.7230345 4.35427586,14.7230345 L4.35427586,14.7230345 C4.35427586,14.7230345 1.24744828,16.011431 0.134310345,17.4678793 L0.134310345,17.4678793 C-0.619793103,18.4548966 8.25287931,19.7573793 12.7352414,17.5982586 L12.7352414,17.5982586 C12.7352414,17.5982586 18.9492241,6.78693103 18.9492241,1.22058621 L18.9492241,1.22058621 C18.9492241,1.22058621 18.5508793,0.304982759 15.8266724,0.304982759 L15.8266724,0.304982759 C15.5177586,0.304982759 15.1790345,0.316775862 14.8075517,0.342982759" id="Fill-66" fill="url(#linearGradient-50)" mask="url(#mask-49)"></path>
                    </g>
                    <g id="Group-71" transform="translate(82.000000, 125.000000)">
                        <mask id="mask-52" fill="white">
                            <use xlink:href="#path-51"></use>
                        </mask>
                        <g id="Clip-70"></g>
                        <path d="M35.0050828,5.25645226 C27.0254201,13.0441206 13.9980533,56.6989749 13.9980533,56.6989749 L13.9980533,56.6989749 L0.0785857988,64.9131558 C6.80020118,66.4596784 13.631432,66.079598 20.5759882,63.7009447 L20.5759882,63.7009447 L18.3300533,56.6989749 C18.3300533,56.6989749 39.7509231,30.6827035 41.243716,24.6776985 L41.243716,24.6776985 C42.7358343,18.6730251 42.2582485,14.3107236 42.2582485,14.3107236 L42.2582485,14.3107236 C42.2582485,14.3107236 56.8482249,15.9126332 56.9204024,16.0356784 L56.9204024,16.0356784 L49.6297988,0.281246231 L35.0050828,5.25645226 Z" id="Fill-69" fill="#FFB48D" mask="url(#mask-52)"></path>
                    </g>
                    <g id="Group-74" transform="translate(117.000000, 115.000000)">
                        <mask id="mask-54" fill="white">
                            <use xlink:href="#path-53"></use>
                        </mask>
                        <g id="Clip-73"></g>
                        <path d="M18.5037474,3.32433333 C14.7011368,4.78466667 0.0747789474,9.94933333 0.0747789474,9.94933333 L0.0747789474,9.94933333 L20.1448421,26.9230048 C20.1448421,26.9230048 43.6601263,26.9286667 52.4688842,26.5513333 L52.4688842,26.5513333 C61.2773053,26.1736667 64.2657684,23.8833333 63.5769263,18.2466667 L63.5769263,18.2466667 C62.8880842,12.61 54.4933053,0.253666667 54.4933053,0.253666667 L54.4933053,0.253666667 C54.4933053,0.253666667 22.3066947,1.86366667 18.5037474,3.32433333" id="Fill-72" fill="#F7941D" mask="url(#mask-54)"></path>
                    </g>
                    <g id="Group-77" transform="translate(78.000000, 186.000000)">
                        <mask id="mask-56" fill="white">
                            <use xlink:href="#path-55"></use>
                        </mask>
                        <g id="Clip-76"></g>
                        <path d="M7.085,3.54991304 C6.405,3.59026087 6.088,2.68869565 6.62833333,2.25530435 L6.62833333,2.25530435 L7.05566667,1.91373913 C1.26733333,4.80695652 0.200333333,7.34886957 0.200333333,7.34886957 L0.200333333,7.34886957 C5.34033333,8.93773913 24.272,5.43582609 24.272,5.43582609 L24.272,5.43582609 C25.8863333,2.74852174 23.4966667,0.333217391 23.4966667,0.333217391 L23.4966667,0.333217391 C18.7923333,2.59373913 10.8993333,3.32278261 7.085,3.54991304" id="Fill-75" fill="url(#linearGradient-57)" mask="url(#mask-56)"></path>
                    </g>
                    <g id="Group-80" transform="translate(142.000000, 46.000000)">
                        <mask id="mask-59" fill="white">
                            <use xlink:href="#path-58"></use>
                        </mask>
                        <g id="Clip-79"></g>
                        <path d="M12.4626446,0.308656716 L0.421181818,12.4368955 C0.300553719,12.5580597 0.247355372,12.7278209 0.276834711,12.8936418 L0.276834711,12.8936418 L3.9383719,33.3861493 C3.96615702,33.541791 4.06408264,33.6770746 4.20571901,33.7555522 L4.20571901,33.7555522 L22.3429669,43.7793433 C22.4158182,43.8197313 22.4951074,43.8430448 22.5791405,43.8476418 L22.5791405,43.8476418 C23.9026612,43.9208657 35.2261157,44.3789254 36.2714463,38.7817313 L36.2714463,38.7817313 C36.9379504,35.2108358 35.2877851,33.4012537 33.8636281,32.5261791 L33.8636281,32.5261791 C33.4482066,32.2703881 33.5613802,31.6553731 34.0438926,31.5650746 L34.0438926,31.5650746 C36.8993223,31.0321493 41.7132645,29.1421194 40.5056281,22.4396716 L40.5056281,22.4396716 C39.2098926,15.2522388 31.2924876,15.3589552 27.6489091,15.8048657 L27.6489091,15.8048657 C27.137595,15.8672537 26.8414463,15.276209 27.1941818,14.9123881 L27.1941818,14.9123881 C28.6539174,13.4052239 30.4447025,10.6594925 28.0480661,7.74958209 L28.0480661,7.74958209 C25.3342727,4.4541791 20.9560826,5.10564179 18.9741901,5.62247761 L18.9741901,5.62247761 C18.5879091,5.72361194 18.2178926,5.4018209 18.2965041,5.02158209 L18.2965041,5.02158209 C18.8904959,2.15468657 14.2910413,0.555253731 13.0146198,0.169432836 L13.0146198,0.169432836 C12.9617603,0.153671642 12.9075455,0.145791045 12.8543471,0.145791045 L12.8543471,0.145791045 C12.7086446,0.145791045 12.5673471,0.203253731 12.4626446,0.308656716" id="Fill-78" fill="#4A2009" mask="url(#mask-59)"></path>
                    </g>
                    <path d="M149.149444,114 C149.149444,114 139.484752,104.745305 134.727498,98.6154716 C132.155731,95.3017315 131.348203,90.9397845 132.537683,86.9100488 C134.709516,79.551168 138.569665,71.9293982 138.921647,70.7428816 C139.461109,68.9247619 150.297632,69 150.297632,69 C150.297632,69 171.621692,82.9181557 180,106.494772 L170.59072,109.440803 C170.59072,109.440803 165.022608,100.046793 159.52143,94.0743583 C159.52143,94.0743583 169.0406,106.720823 169.375932,111.897893 L149.149444,114 Z" id="Fill-81" fill="#F7941D"></path>
                    <g id="Group-85" transform="translate(137.000000, 59.000000)">
                        <mask id="mask-61" fill="white">
                            <use xlink:href="#path-60"></use>
                        </mask>
                        <g id="Clip-84"></g>
                        <path d="M0.248368421,1.781 C0.364342105,2.157 3.27018421,11.543 3.49734211,11.7376667 L3.49734211,11.7376667 C3.72484211,11.9323333 9.86973684,12.2546667 12.7622368,10.3283333 L12.7622368,10.3283333 L7.85507895,0.319333333 L0.248368421,1.781 Z" id="Fill-83" fill="#FFB48D" mask="url(#mask-61)"></path>
                    </g>
                    <g id="Group-88" transform="translate(131.000000, 41.000000)">
                        <mask id="mask-63" fill="white">
                            <use xlink:href="#path-62"></use>
                        </mask>
                        <g id="Clip-87"></g>
                        <path d="M10.7383051,0.406492308 C10.7383051,0.406492308 5.54033898,2.59803077 2.00644068,10.0973231 L2.00644068,10.0973231 C-1.52813559,17.5966154 1.11118644,21.0590769 4.42610169,21.5349538 L4.42610169,21.5349538 C7.74169492,22.0101538 12.699322,21.9377231 17.9433898,17.0929846 L17.9433898,17.0929846 C22.760339,12.6428923 18.3494915,0.0964615385 12.3620339,0.0964615385 L12.3620339,0.0964615385 C11.8315254,0.0964615385 11.2884746,0.194953846 10.7383051,0.406492308" id="Fill-86" fill="#FFB48D" mask="url(#mask-63)"></path>
                    </g>
                    <g id="Group-91" transform="translate(137.000000, 34.000000)">
                        <mask id="mask-65" fill="white">
                            <use xlink:href="#path-64"></use>
                        </mask>
                        <g id="Clip-90"></g>
                        <path d="M3.39737705,1.349 C-2.27770492,4.209 1.18,10.2 1.18,10.2 L1.18,10.2 L3.39737705,8.62433333 C12.8206557,8.752 9.02721311,19.5576667 9.02721311,19.5576667 L9.02721311,19.5576667 L9.61704918,19.867 C9.61704918,19.867 11.6711475,17.6213333 12.5619672,19.4823333 L12.5619672,19.4823333 C13.4527869,21.343 11.264918,24.8213333 11.264918,24.8213333 L11.264918,24.8213333 C11.264918,24.8213333 12.9206557,29.0376667 16.9383607,25.3193333 L16.9383607,25.3193333 C20.9560656,21.6006667 20.5439344,16.3973333 18.1288525,8.62433333 L18.1288525,8.62433333 C16.3718033,2.96933333 12.3780328,0.178 8.14655738,0.178333333 L8.14655738,0.178333333 C6.56196721,0.178333333 4.94360656,0.569666667 3.39737705,1.349" id="Fill-89" fill="#4A2009" mask="url(#mask-65)"></path>
                    </g>
                    <g id="Group-94" transform="translate(146.000000, 50.000000)">
                        <mask id="mask-67" fill="white">
                            <use xlink:href="#path-66"></use>
                        </mask>
                        <g id="Clip-93"></g>
                        <path d="M0.267176471,4.09433333 L0.892941176,6.834 C2.84752941,5.887 7.83952941,2.96166667 5.08552941,0.745 L5.08552941,0.745 C4.62811765,0.377 4.19011765,0.223333333 3.77717647,0.223333333 L3.77717647,0.223333333 C1.70329412,0.223666667 0.267176471,4.09433333 0.267176471,4.09433333" id="Fill-92" fill="url(#linearGradient-68)" mask="url(#mask-67)"></path>
                    </g>
                    <g id="Group-97" transform="translate(129.000000, 106.000000)">
                        <mask id="mask-70" fill="white">
                            <use xlink:href="#path-69"></use>
                        </mask>
                        <g id="Clip-96"></g>
                        <path d="M38.0146667,4.08833333 L32.413,5.605 C26.811,7.12133333 17.0236667,5.605 17.0236667,5.605 L17.0236667,5.605 L7.191,1.451 L0.083,8.30166667 L7.134,11.14 C7.134,11.14 46.5613333,12.374 48.2283333,11.6446667 L48.2283333,11.6446667 C49.0463333,11.2863333 50.33,10.4313333 51.4253333,9.65333333 L51.4253333,9.65333333 C52.6586667,8.77666667 53.166,7.193 52.6613333,5.76633333 L52.6613333,5.76633333 L50.6733333,0.147666667 L38.0146667,4.08833333 Z" id="Fill-95" fill="#FFB48D" mask="url(#mask-70)"></path>
                    </g>
                    <g id="Group-100" transform="translate(113.000000, 114.000000)">
                        <mask id="mask-72" fill="white">
                            <use xlink:href="#path-71"></use>
                        </mask>
                        <g id="Clip-99"></g>
                        <path d="M0.143932922,1.97533333 C0.142941176,2.99433333 0.962205882,3.82133333 1.97404412,3.82233333 L1.97404412,3.82233333 L42.9022059,3.86733333 C42.9336397,3.86766667 42.9650735,3.86666667 42.9961765,3.86566667 L42.9961765,3.86566667 C43.9640074,3.817 44.7349632,3.011 44.7362877,2.024 L44.7362877,2.024 C44.7372794,1.00433333 43.9180147,0.177333333 42.9061765,0.176666667 L42.9061765,0.176666667 L1.97801471,0.131666667 C1.96709559,0.131666667 1.95617647,0.131333333 1.94525735,0.131333333 L1.94525735,0.131333333 C0.951286765,0.131333333 0.144926471,0.966666667 0.143932922,1.97533333" id="Fill-98" fill="#BED1DB" mask="url(#mask-72)"></path>
                    </g>
                    <g id="Group-103" transform="translate(75.000000, 80.000000)">
                        <mask id="mask-74" fill="white">
                            <use xlink:href="#path-73"></use>
                        </mask>
                        <g id="Clip-102"></g>
                        <path d="M2.90724157,0.0946283186 C0.98311236,0.0946283186 -0.335769663,2.01044248 0.371235955,3.77825664 L0.371235955,3.77825664 L12.6117472,34.3749646 C13.2083764,35.8664248 14.6671348,36.8461062 16.2899663,36.8461062 L16.2899663,36.8461062 L58.7228989,36.8461062 L42.9380787,3.78120354 C41.8634831,1.53042478 39.5707697,0.0946283186 37.052,0.0946283186 L37.052,0.0946283186 L2.90724157,0.0946283186 Z" id="Fill-101" fill="#D7E1E6" mask="url(#mask-74)"></path>
                    </g>
                    <g id="Group-106" transform="translate(96.000000, 94.000000)">
                        <mask id="mask-76" fill="white">
                            <use xlink:href="#path-75"></use>
                        </mask>
                        <g id="Clip-105"></g>
                        <path d="M1.76115789,0.331333333 C0.413684211,0.789333333 -0.107052632,3.03433333 0.598105263,5.34633333 L0.598105263,5.34633333 C1.30294737,7.658 2.96652632,9.161 4.314,8.70333333 L4.314,8.70333333 C5.66147368,8.24566667 6.18221053,6.00066667 5.47736842,3.68866667 L5.47736842,3.68866667 C4.85747368,1.65666667 3.49705263,0.249333333 2.262,0.249333333 L2.262,0.249333333 C2.09210526,0.249333333 1.92410526,0.276 1.76115789,0.331333333" id="Fill-104" fill="#BED1DB" mask="url(#mask-76)"></path>
                    </g>
                    <g id="Group-109" transform="translate(32.000000, 112.000000)">
                        <mask id="mask-78" fill="white">
                            <use xlink:href="#path-77"></use>
                        </mask>
                        <g id="Clip-108"></g>
                        <path d="M0.0416721311,0.0255384615 L0.0416721311,3.89138462 L40.9526148,3.89138462 C40.0771639,3.89138462 40.0771639,0.0255384615 40.9526148,0.0255384615 L40.9526148,0.0255384615 L0.0416721311,0.0255384615 Z" id="Fill-107" fill="url(#linearGradient-79)" mask="url(#mask-78)"></path>
                    </g>
                    <g id="Group-112" transform="translate(29.000000, 111.000000)">
                        <mask id="mask-81" fill="white">
                            <use xlink:href="#path-80"></use>
                        </mask>
                        <g id="Clip-111"></g>
                        <path d="M2.0362446,0.0764210526 C1.07553957,0.0764210526 0.29618705,0.819789474 0.29618705,1.73684211 L0.29618705,1.73684211 L0.29618705,4.27231579 C0.29618705,5.13726316 1.03086331,5.838 1.93663309,5.838 L1.93663309,5.838 L45.5274245,5.838 C45.7094388,5.838 45.8583597,5.69589474 45.8583597,5.52221053 L45.8583597,5.52221053 L45.8583597,5.25663158 C45.8583597,5.08294737 45.7094388,4.94115789 45.5274245,4.94115789 L45.5274245,4.94115789 L4.67379856,4.94115789 C4.49211511,4.94115789 4.34319424,4.79873684 4.34319424,4.62505263 L4.34319424,4.62505263 L4.34319424,1.28905263 C4.34319424,1.11568421 4.49211511,0.973578947 4.67379856,0.973578947 L4.67379856,0.973578947 L45.5274245,0.973578947 C45.7094388,0.973578947 45.8583597,0.831473684 45.8583597,0.657789474 L45.8583597,0.657789474 L45.8583597,0.392210526 C45.8583597,0.218526316 45.7094388,0.0764210526 45.5274245,0.0764210526 L45.5274245,0.0764210526 L2.0362446,0.0764210526 Z" id="Fill-110" fill="url(#linearGradient-82)" mask="url(#mask-81)"></path>
                    </g>
                    <g id="Group-115" transform="translate(23.000000, 117.000000)">
                        <mask id="mask-84" fill="white">
                            <use xlink:href="#path-83"></use>
                        </mask>
                        <g id="Clip-114"></g>
                        <path d="M190.939986,2.03793333 C191.044533,1.57093333 190.902121,1.08693333 190.551619,0.719933333 C190.200782,0.3526 189.678381,0.140266667 189.127496,0.140266667 L2.44376123,0.140266667 C1.71896649,0.140266667 1.04409982,0.459266667 0.653722632,0.9866 C0.263345439,1.51426667 0.211071754,2.17726667 0.514996316,2.7456 L2.53792088,6.52826667 C3.00134719,7.3946 4.00493491,7.94893333 5.10938404,7.94893333 L187.846456,7.94893333 C188.873835,7.94893333 189.757126,7.31993333 189.952147,6.44793333 L190.939986,2.03793333 Z" id="Fill-113" fill="#7DC4F9" mask="url(#mask-84)"></path>
                    </g>
                </g>
            </g>
        </g>
    </g>
</svg>