<?xml version="1.0" encoding="UTF-8"?>
<svg width="288px" height="222px" viewBox="0 0 288 222" version="1.1" xmlns="http://www.w3.org/2000/svg" xmlns:xlink="http://www.w3.org/1999/xlink">
    <title>E23427AD-0914-4D73-9728-88A366BDA6A8@1x</title>
    <defs>
        <linearGradient x1="50%" y1="0%" x2="50%" y2="148.559671%" id="linearGradient-1">
            <stop stop-color="#C9E8FF" stop-opacity="0.4" offset="0%"></stop>
            <stop stop-color="#0395FF" stop-opacity="0.8" offset="100%"></stop>
        </linearGradient>
        <linearGradient x1="50%" y1="0%" x2="50%" y2="149.915601%" id="linearGradient-2">
            <stop stop-color="#C9E8FF" stop-opacity="0.7" offset="0%"></stop>
            <stop stop-color="#0395FF" stop-opacity="0.3" offset="100%"></stop>
        </linearGradient>
        <path d="M113.919881,0.114410377 C120.574652,0.114410377 125.970893,5.46781949 125.98166,12.0756182 L125.98166,135.038742 L125.98006,135.217112 C125.873542,141.742803 120.514688,147 113.919881,147 L12.0616205,147 C5.40019945,147 0,141.63606 0,135.01898 L0,12.0954304 C0,5.47852358 5.40019945,0.114410377 12.0616205,0.114410377" id="path-3"></path>
        <linearGradient x1="50%" y1="143.898217%" x2="50%" y2="0%" id="linearGradient-5">
            <stop stop-color="#006AB9" offset="0%"></stop>
            <stop stop-color="#4FB5FF" offset="100%"></stop>
        </linearGradient>
        <polygon id="path-6" points="56 100 67 100 67 98 56 98"></polygon>
        <linearGradient x1="50%" y1="143.898217%" x2="50%" y2="0%" id="linearGradient-7">
            <stop stop-color="#006AB9" offset="0%"></stop>
            <stop stop-color="#4FB5FF" offset="100%"></stop>
        </linearGradient>
        <path d="M79.2285379,115.716666 C74.4838777,115.716666 70.6236641,119.554523 70.6236641,124.271878 C70.6236641,128.989234 74.4838777,132.826917 79.2285379,132.826917 C83.9731981,132.826917 87.8334117,128.989234 87.8334117,124.271878 C87.8334117,119.554523 83.9731981,115.716666 79.2285379,115.716666 M79.2285379,134.880237 C73.3451592,134.880237 68.5583825,130.121183 68.5583825,124.271878 C68.5583825,118.4224 73.3451592,113.663693 79.2285379,113.663693 C85.1119165,113.663693 89.8986932,118.4224 89.8986932,124.271878 C89.8986932,130.121183 85.1119165,134.880237 79.2285379,134.880237" id="path-8"></path>
        <polygon id="path-9" points="0.137360412 0.141949807 26.8693271 0.141949807 26.8693271 26.3674981 0.137360412 26.3674981"></polygon>
        <linearGradient x1="50%" y1="0%" x2="50%" y2="100%" id="linearGradient-11">
            <stop stop-color="#57C6F2" offset="0%"></stop>
            <stop stop-color="#2C94E0" offset="100%"></stop>
        </linearGradient>
        <linearGradient x1="50%" y1="0%" x2="50%" y2="100%" id="linearGradient-12">
            <stop stop-color="#57C6F2" offset="0%"></stop>
            <stop stop-color="#2C94E0" offset="100%"></stop>
        </linearGradient>
        <path d="M62.1508523,0.0710606061 C66.4467045,0.0710606061 69.9289394,3.55356061 69.9289394,7.84914773 L69.9289394,62.2219129 C69.9289394,66.5176326 66.4467045,70 62.1508523,70 L7.7782197,70 C3.4825,70 0,66.5176326 0,62.2219129 L0,7.84914773 C0,3.55356061 3.4825,0.0710606061 7.7782197,0.0710606061" id="path-13"></path>
        <polygon id="path-15" points="0.125474045 0.0171195652 13.4934991 0.0171195652 13.4934991 11.6093698 0.125474045 11.6093698"></polygon>
        <path d="M92.6939948,0.266271429 C99.9716598,0.266271429 105.871325,6.12777143 105.871325,13.3583571 L105.871325,81.9081857 C105.871325,89.1385 99.9716598,95 92.6939948,95 L13.1770567,95 C5.89966495,95 0,89.1385 0,81.9081857 L0,13.3583571 C0,6.12777143 5.89966495,0.266271429 13.1770567,0.266271429" id="path-17"></path>
        <polygon id="path-19" points="0.0600193248 0.192165165 24.0699614 0.192165165 24.0699614 50.1034934 0.0600193248 50.1034934"></polygon>
        <path d="M47.8664927,73.4188796 C47.9147294,73.7959937 48.0729889,74.6635432 48.3103782,75.8429937 L22.5124469,75.8429937 C23.1983286,73.4274321 23.822966,71.289294 24.2010004,70.0448976 C25.4543401,65.9466213 24.2538439,64.8497565 23.6208057,61.5711889 C23.3744737,60.2875042 22.5081111,57.8500267 21.5626187,55.0961048 C21.2460996,54.1769727 20.9209088,53.2185523 20.6087256,52.2558556 C19.4740805,48.7864592 18.9464584,45.239288 18.6212676,43.1749156 C17.0646874,33.3870538 24.6980004,32.4457384 24.6980004,32.4457384 C27.5339355,31.9299126 32.4893019,30.4203871 32.4893019,30.4203871 L40.2505233,32.0122309 C40.2505233,32.0122309 40.9892485,32.2856453 42.0664431,33.070342 C42.5897294,33.4519997 43.1878095,33.9464441 43.8165118,34.5838766 C44.6649889,35.4426063 46.3538134,37.9011979 48.0377599,40.60327 C48.5523744,41.4315312 49.0713248,42.2814411 49.5593821,43.1185222 C51.1376416,45.8115072 52.259279,47.9841228 52.22405,50.4344291 C52.1928859,52.8457144 49.4845882,57.889315 49.172405,60.2786844 C48.8602218,62.6680538 47.5805958,71.1332099 47.8664927,73.4188796 Z" id="path-21"></path>
        <path d="M15.4555618,50.8261895 L26.7624473,53.4309763 C26.7624473,53.4309763 35.7317527,36.2553126 27.6537412,33.1194658 C19.1388901,29.8139042 13.4141763,41.4568682 15.4555618,50.8261895" id="path-22"></path>
    </defs>
    <g id="Comfortable-Themes" stroke="none" stroke-width="1" fill="none" fill-rule="evenodd">
        <g id="Outsourcing-IT-Profesional---alt" transform="translate(-159.000000, -2607.000000)">
            <g id="Group-86" transform="translate(159.000000, 2607.000000)">
                <g id="Group-83" transform="translate(19.000000, 0.000000)">
                    <path d="M119.751712,221.193498 C227.911024,224.306873 299.293257,98.7868949 208.657112,99.8316354 C118.020967,100.876376 168.069133,1.42108547e-14 96.8229295,1.42108547e-14 C25.5767256,1.42108547e-14 0,65.3364845 0,96.8460676 C0,128.355651 11.5924005,218.080122 119.751712,221.193498 Z" id="Oval" fill="url(#linearGradient-1)" opacity="0.2"></path>
                    <circle id="Oval" fill="url(#linearGradient-2)" opacity="0.3" cx="199" cy="44" r="25"></circle>
                </g>
                <g id="Group-64" transform="translate(0.000000, 10.000000)">
                    <g id="Group-45" transform="translate(82.000000, 0.000000)">
                        <g id="Group-3" transform="translate(0.000000, 11.000000)">
                            <mask id="mask-4" fill="white">
                                <use xlink:href="#path-3"></use>
                            </mask>
                            <g id="Clip-2"></g>
                            <path d="M113.919881,147 L12.0616205,147 C5.40019945,147 0,141.63606 0,135.01898 L0,12.0954304 C0,5.47852358 5.40019945,0.114410377 12.0616205,0.114410377 L113.919881,0.114410377 C120.581302,0.114410377 125.981676,5.47852358 125.981676,12.0954304 L125.981676,135.01898 C125.981676,141.63606 120.581302,147 113.919881,147" id="Fill-1" fill-opacity="0.7" fill="#FFFFFF" mask="url(#mask-4)"></path>
                        </g>
                        <g id="Fill-4">
                            <use fill="url(#linearGradient-5)" xlink:href="#path-6"></use>
                            <use fill="#8CCEFF" xlink:href="#path-6"></use>
                        </g>
                        <polygon id="Fill-5" fill="#8CCEFF" points="20 117 77 117 77 113 20 113"></polygon>
                        <polygon id="Fill-6" fill="#8CCEFF" points="19 135 67 135 67 131 19 131"></polygon>
                        <polygon id="Fill-7" fill="#8CCEFF" points="20 126 47 126 47 122 20 122"></polygon>
                        <path d="M21.8134746,87.378718 L20,87.378718 L20,99 L32.4910958,99 L32.4910958,97.2195855 L21.8134746,97.2195855 L21.8134746,87.378718 Z M103.186525,87.378718 L103.186525,97.2195855 L92.5089042,97.2195855 L92.5089042,99 L105,99 L105,87.378718 L103.186525,87.378718 Z M20,36.6176765 L21.8134746,36.6176765 L21.8134746,26.7802428 L32.4910958,26.7802428 L32.4910958,25 L20,25 L20,36.6176765 Z M92.5089042,25 L92.5089042,26.7802428 L103.186525,26.7802428 L103.186525,36.6176765 L105,36.6176765 L105,25 L92.5089042,25 Z" id="Fill-8" fill="#8CCEFF"></path>
                        <g id="Group-44" transform="translate(21.000000, 0.000000)">
                            <g id="Fill-9">
                                <use fill="url(#linearGradient-7)" xlink:href="#path-8"></use>
                                <use fill="#8CCEFF" xlink:href="#path-8"></use>
                            </g>
                            <polygon id="Fill-11" fill="#4598E6" points="78.5479282 128.447218 73.7005107 123.627527 75.1606078 122.175712 78.5479282 125.543415 83.2962583 120.822411 84.7565301 122.274226"></polygon>
                            <path d="M78.7360019,87.1741042 L72.6675553,87.1741042 C72.5567592,86.9325985 72.466934,86.7225405 72.3928369,86.5547027 C70.5919631,82.3273089 61.3123515,72.6342394 61.3123515,72.6342394 L61.3123515,72.6554363 C61.3123515,72.6554363 61.3071087,72.6604749 61.3071087,72.665861 L61.3071087,72.6764595 C61.3016913,72.6919228 61.2964485,72.7025212 61.2912058,72.7181583 C61.2857883,72.7391815 61.2805456,72.7655907 61.2700602,72.7972124 C61.2646427,72.8128494 61.2595748,72.8338726 61.2595748,72.8495097 C61.2541573,72.8653205 61.2490893,72.8757452 61.2434971,72.891556 C60.8634,74.3041042 58.9936718,81.3404363 58.0590699,87.1741042 L16.9947786,87.1741042 C16.8998854,86.6334093 16.7889146,86.1186023 16.6622155,85.6409768 C16.2871864,84.1915946 16.0336136,82.7580232 15.869866,81.4191429 C15.8646233,81.350861 15.8541379,81.2877915 15.8488951,81.2196834 C15.8170893,80.9727915 15.790701,80.7260734 15.7693806,80.4843938 C15.4156718,76.8192394 15.6797301,74.0099537 15.7008757,73.7265753 C15.5848369,73.9732934 14.7556136,76.9978494 13.6675748,80.731112 C13.0706039,82.7790463 12.3946427,85.0420772 11.7239243,87.1741042 L2.02699223,87.1741042 L14.1956913,52.2709575 C14.4649922,52.0608996 17.6233806,50.543583 19.9261573,49.4514208 C22.276468,48.3382355 25.1126039,46.7048571 27.6741961,45.3082934 C28.9840019,44.5942008 30.2198854,43.9482162 31.2921961,43.4598185 L31.4557689,43.3864981 L31.4557689,43.3812857 C33.2250117,42.5777143 34.4028757,42.047444 34.4028757,42.047444 L34.4081184,42.047444 C34.4504097,42.0422317 34.7301961,42.0158224 35.1740796,41.9739498 C37.6456718,41.7374826 45.3145456,41.0235637 47.8813806,40.8765753 C48.0926621,40.8605907 48.2723126,40.8555521 48.4094971,40.850166 C48.5257107,40.8451274 48.6155359,40.8451274 48.6681379,40.850166 C48.9903903,40.8711892 50.5747398,41.417444 52.6505068,42.2050309 C52.7298466,42.2312664 52.8091864,42.2627143 52.8881767,42.2941622 C52.9886621,42.3309961 53.0835553,42.3676564 53.183866,42.4043166 C53.3635165,42.4729459 53.5484097,42.5410541 53.7333029,42.6145483 C54.1030893,42.7615367 54.4886039,42.9086988 54.8741184,43.0608996 C55.006235,43.1133707 55.1434194,43.1658417 55.2807786,43.2184865 C59.4372058,44.8567297 64.2012641,46.8888533 65.3315942,47.6974633 C66.0814777,48.2279073 68.4106427,52.5915174 71.1094194,57.9892587 C74.0144097,67.2413629 77.5687981,80.5895097 78.7360019,87.1741042" id="Fill-13" fill="#FFFFFF"></path>
                            <path d="M48.6018175,39.6636081 C48.4924194,45.1516969 37.8047883,48.1538398 37.8047883,48.1538398 C37.8047883,48.1538398 33.3343223,42.5816583 34.4020893,42.0480869 C34.8215068,41.8383764 34.9917204,41.0064846 35.0439728,40.0739942 C35.0923806,39.1863301 35.0354097,38.2069286 34.9831573,37.5849208 C34.9515262,37.1967741 34.9212932,36.9471023 34.9212932,36.9471023 C34.9212932,36.9471023 36.4481476,35.3453456 38.3909243,33.4369286 C41.7857592,30.0996313 46.4526524,25.8246313 46.4599922,27.5254228 C46.4603417,27.615249 46.447934,27.722971 46.4206718,27.8477201 C45.6003612,31.6749788 48.6018175,39.6636081 48.6018175,39.6636081" id="Fill-15" fill="#FFB48D"></path>
                            <path d="M44.4856194,31.6226467 L44.4847456,31.6236892 C44.4637748,31.6554846 44.0104544,32.3297896 43.2368039,33.2975502 C41.5961825,35.3493069 38.5117165,38.7201371 35.0440078,40.0741332 C35.0924155,39.1862954 35.0354447,38.2068938 34.9831922,37.5848861 C34.6282602,37.5761988 34.2735029,37.5350212 33.9217165,37.4578784 C34.8725709,35.8066042 36.2454641,34.0750598 36.2454641,34.0750598 L38.3909592,33.4368938 L44.4856194,31.6226467 Z" id="Fill-17" fill="#A77860"></path>
                            <path d="M46.5373223,27.5995251 C45.6126816,29.5991583 44.7348757,31.0485405 44.4856718,31.6225946 L44.4847981,31.6236371 C44.3227981,31.9975367 43.8815359,32.6072085 43.2366816,33.2974981 C41.4754777,35.1840232 38.2015748,37.6722278 34.9832447,37.5850077 C34.6283126,37.5761467 34.2735553,37.5351429 33.9217689,37.4578263 C32.6222738,37.1754903 31.0877301,36.5752008 30.2433029,34.9315714 C23.5754388,21.9526332 28.402934,11.339583 28.402934,11.339583 C28.402934,11.339583 46.6346621,6.2137529 49.4870505,11.6702201 C51.4885456,15.4976525 48.7095553,22.9011081 46.5373223,27.5995251" id="Fill-19" fill="#FFB48D"></path>
                            <g id="Group-23" transform="translate(26.038835, 0.000000)">
                                <mask id="mask-10" fill="white">
                                    <use xlink:href="#path-9"></use>
                                </mask>
                                <g id="Clip-22"></g>
                                <path d="M2.36416893,11.339583 C2.36416893,11.339583 0.671120388,11.2462819 0.252227184,8.05475676 C-0.161423301,4.9014556 0.675139806,4.02769112 0.675139806,4.02769112 C0.675139806,4.02769112 8.20158641,0.895239382 10.9045573,0.48780695 C13.6075282,0.0803745174 20.2535476,-0.310725869 21.8115087,1.46060618 C21.8115087,1.46060618 25.5964019,0.585972973 26.6278194,6.83315444 C28.2637223,16.7439266 21.0530621,26.3674981 21.0530621,26.3674981 C21.0530621,26.3674981 21.1145767,19.8928842 19.6784214,19.0349305 C18.2420913,18.1769768 17.0027126,20.2172664 17.0027126,20.2172664 L14.0646932,20.7402394 C14.0646932,20.7402394 18.5267709,11.1613205 13.1741301,10.8065328 C7.82166408,10.4517452 5.42836311,11.8950463 2.36416893,11.339583" id="Fill-21" fill="#4A2009" mask="url(#mask-10)"></path>
                            </g>
                            <path d="M43.1222155,17.6361602 C43.4016524,14.783612 48.5900214,13.6945772 48.2426039,16.6842104 C47.8951864,19.6741911 45.3398854,22.5467201 44.1597495,22.4456004 C42.9792641,22.3444807 42.9090117,19.8104073 43.1222155,17.6361602" id="Fill-24" fill="#EEA886"></path>
                            <path d="M73.4915883,58.2570695 C71.8013359,52.8747915 70.3384427,48.616471 69.6888699,48.1543089 C68.5532971,47.3455251 59.5534718,44.882861 55.2808311,43.2183822 C55.1434718,43.1659112 55.0062874,43.1134402 54.8741709,43.0607954 C54.4886563,42.9085946 54.1031417,42.7614324 53.7331806,42.6146178 C53.5484621,42.5411236 53.3635689,42.4728417 53.1839184,42.4043861 C53.0836078,42.3677259 52.9887146,42.3310656 52.8882291,42.2942317 C52.8090641,42.26261 52.7297243,42.2313359 52.6505592,42.2049266 C52.6453165,42.2103127 52.6400738,42.2207375 52.6294136,42.2257761 C52.2491417,42.651278 50.2738602,44.882861 47.9130641,48.2225907 C43.4976466,54.4605637 37.746035,64.5687104 38.6282097,73.899695 C38.9132388,76.8928031 39.2618796,81.1933436 39.8480155,86.0189421 C39.8904816,86.4022239 39.9378408,86.7855058 39.9907922,87.1741737 L59.9127728,87.1741737 C60.1556854,82.1225328 60.588734,75.4696564 61.2435495,72.8914517 C61.248967,72.8758147 61.2542097,72.8652162 61.2596272,72.8494054 C61.2596272,72.8337683 61.2646951,72.8127452 61.2699379,72.7972819 C61.2753553,72.7706988 61.2858408,72.7446371 61.2912583,72.7180541 C61.296501,72.7025907 61.3017437,72.6919923 61.3069864,72.6763552 L61.3069864,72.6659305 C61.3069864,72.6603707 61.3124039,72.655332 61.3124039,72.655332 C61.3124039,72.655332 66.1343068,80.1484402 66.3824621,87.1741737 L78.9209476,87.1741737 C78.3082485,80.6472625 76.3911612,67.4935367 73.4915883,58.2570695" id="Fill-26" fill="url(#linearGradient-11)"></path>
                            <path d="M31.3764466,43.5229923 C31.3764466,43.5229923 29.8712621,48.5007915 27.9277864,60.93 L27.9277864,60.9350386 C27.8591068,61.3499421 27.7956699,61.7752703 27.7269903,62.2110232 C27.7217476,62.2584556 27.7110874,62.3107529 27.7058447,62.3633977 C27.6584854,62.6469498 27.6160194,62.9411004 27.5737282,63.2350772 C27.5684854,63.2717375 27.5632427,63.3033591 27.558,63.3401931 C27.5263689,63.5344402 27.4945631,63.7338996 27.4681748,63.9385714 C27.3942524,64.4267954 27.3201553,64.9311776 27.2464078,65.4404247 C26.5173204,70.5129151 25.5456699,78.5731274 24.5581165,87.1740347 L16.6832039,87.1740347 C16.2555728,84.7848649 15.8541553,82.611139 15.8857864,81.1197104 C15.8698835,81.1511583 15.8592233,81.188166 15.8487379,81.2196139 C15.2203107,82.9522008 14.5284466,84.8375097 13.8259223,86.67 C13.7624854,86.8381853 13.6993981,87.0060232 13.6357864,87.1740347 L0.0622135922,87.1740347 L13.5830097,52.0085328 C13.8523107,51.7984749 17.3329515,49.9343629 19.6355534,48.8475869 C22.0388155,47.7079923 25.0755728,46.3058687 27.7692816,45.0719305 C29.057767,44.4785907 30.2674369,43.9272973 31.2922136,43.4599228 L31.3764466,43.5229923 Z" id="Fill-28" fill="url(#linearGradient-12)"></path>
                            <path d="M49.6877243,55.8207278 L44.4852,58.7403417 L46.7088117,60.9931216 L41.8287146,87.1740869 L39.9907922,87.1740869 C39.3146563,81.8811139 38.9291417,77.1291834 38.6282097,73.8997819 C37.2706951,59.4700714 51.7526563,43.1974459 52.6505592,42.2050135 C53.347666,42.4675425 54.0975495,42.7564807 54.8741709,43.0608822 L49.6877243,55.8207278 Z" id="Fill-30" fill="#6DCFFF"></path>
                            <path d="M31.4558039,43.3864112 C31.4558039,43.3864112 29.5121534,49.6928398 27.2514932,65.4405811 C26.5227553,70.5076853 25.5456874,78.5732838 24.558134,87.1740174 L23.7921728,87.1740174 L22.7834738,62.4368745 L25.2604835,59.7693649 L23.0580175,57.0337471 L27.769299,45.0719131 C29.0577845,44.4785734 30.2674544,43.9272799 31.2920563,43.4599054 L31.4558039,43.3864112 Z" id="Fill-32" fill="#6DCFFF"></path>
                            <path d="M52.9128874,42.2667452 L48.6018,39.663695 C48.6018,39.663695 48.4812175,42.0141197 37.8047709,48.1539266 L40.836635,56.6439846 L52.9128874,42.2667452 Z" id="Fill-34" fill="#FFFFFF"></path>
                            <path d="M34.9647728,40.8477683 C34.9647728,40.8477683 35.1327146,43.3847954 37.8047534,48.1539266 L31.8874718,55.8230386 L31.4561709,43.3847954 L34.9647728,40.8477683 Z" id="Fill-36" fill="#FFFFFF"></path>
                            <path d="M37.8209534,48.1538745 C37.8209534,48.1538745 38.9677107,52.7143378 38.5547592,53.9911911 C38.5547592,53.9911911 36.0331864,54.9031795 34.2206039,53.7630637 C34.2206039,53.7630637 35.5043709,50.5706699 37.8209534,48.1538745" id="Fill-38" fill="#FFCA8A"></path>
                            <path d="M36.4309165,63.6603012 C35.2214214,71.8516911 35.2214214,80.1379459 35.6703728,87.1741042 L30.6160427,87.1741042 C30.5473631,86.1816718 30.4839262,85.1473668 30.4204893,84.0654556 C29.4804699,67.8454749 35.2478097,53.352695 35.2478097,53.352695 L37.8198874,52.7120965 C37.8198874,52.7120965 36.9908388,59.8796062 36.4309165,63.6603012" id="Fill-40" fill="#FFCA8A"></path>
                            <path d="M16.0489922,73.7678919 C15.8564097,77.65961 15.8848951,81.1160965 15.8848951,81.1160965 L15.8848951,81.1187027 C15.8834971,81.1376409 15.8794777,81.2427568 15.8712641,81.4165019 C15.8634,81.3506525 15.8551864,81.2860193 15.8469728,81.2210386 C15.2206427,82.9534517 14.526332,84.8366757 13.8266039,86.6700347 C13.6640796,84.545305 13.6217883,82.565305 13.6694971,80.7317722 C13.9499825,69.8193591 17.4021379,64.0970618 17.4021379,64.0970618 C16.6103126,65.9990502 16.230565,70.0796293 16.0489922,73.7678919" id="Fill-42" fill-opacity="0.259890043" fill="#000000"></path>
                        </g>
                    </g>
                    <g id="Group-27" transform="translate(218.000000, 28.000000)">
                        <g id="Group-3" transform="translate(0.000000, 3.230769)">
                            <mask id="mask-14" fill="white">
                                <use xlink:href="#path-13"></use>
                            </mask>
                            <g id="Clip-2"></g>
                            <path d="M62.1508523,70 L7.7782197,70 C3.4825,70 0,66.5176326 0,62.2219129 L0,7.84914773 C0,3.55356061 3.4825,0.0710606061 7.7782197,0.0710606061 L62.1508523,0.0710606061 C66.4467045,0.0710606061 69.9289394,3.55356061 69.9289394,7.84914773 L69.9289394,62.2219129 C69.9289394,66.5176326 66.4467045,70 62.1508523,70" id="Fill-1" fill-opacity="0.7" fill="#FFFFFF" mask="url(#mask-14)"></path>
                        </g>
                        <polygon id="Fill-4" fill="#8CCEFF" points="19.3846154 59.2307692 51.6923077 59.2307692 51.6923077 57.0769231 19.3846154 57.0769231"></polygon>
                        <polygon id="Fill-5" fill="#8CCEFF" points="22.6153846 64.6153846 46.3076923 64.6153846 46.3076923 62.4615385 22.6153846 62.4615385"></polygon>
                        <g id="Group-26" transform="translate(10.769231, 0.000000)">
                            <polygon id="Fill-6" fill-opacity="0.8" fill="#FFFFFF" points="0.823457242 10.6745757 48.3880217 10.6745757 48.3880217 50.8451087 0.823457242 50.8451087"></polygon>
                            <path d="M42.7736644,30.2829306 C41.2071676,26.203865 37.4439094,24.3311162 35.6672353,23.747339 C35.0345627,23.5405874 33.9046086,23.1775209 32.7140496,22.7982567 C30.5685282,22.1158445 28.2246027,21.3736455 28.2246027,21.3736455 L20.8215706,21.3736455 C20.8215706,21.3736455 18.2582365,22.219352 15.5338244,23.1590844 C15.5338244,23.1614548 15.5314162,23.1614548 15.5314162,23.1614548 C13.0217302,24.0277048 10.3789274,24.9723098 9.48711184,25.4134678 C7.62655403,26.3280477 4.49583473,32.8657462 3.86316213,33.6150564 C3.53632365,34.0010368 2.0842136,36.5472429 0.65538226,39.3922513 L8.63034818,39.3922513 C9.47319813,37.9675084 10.1220588,36.8621112 10.1220588,36.8621112 C10.1220588,36.8621112 10.6264309,37.9513106 11.2380992,39.3922513 L36.7878243,39.3922513 C37.1917234,37.7192747 37.4439094,35.6119879 37.4439094,35.6119879 C37.4439094,35.6119879 38.8120021,37.443518 40.3061208,39.3922513 L47.6694185,39.3922513 C45.8786968,36.4346488 43.6562487,32.5853804 42.7736644,30.2829306" id="Fill-8" fill="#F7941D"></path>
                            <path d="M25.4051759,1.34968018 C25.4051759,1.34968018 31.1936821,2.24727216 30.3123018,11.1618248 C29.4309216,20.0763775 24.3220469,19.3456355 23.9806257,19.3366806 C23.6392046,19.3277258 18.8519507,19.4991848 18.4788224,8.61509197 C18.4788224,8.61509197 18.3158714,0.566789298 25.4051759,1.34968018" id="Fill-10" fill="#FFB48D"></path>
                            <path d="M30.401751,8.64376066 C30.401751,8.64376066 31.0354939,7.97728282 31.2681472,8.65192538 C31.5006668,9.32669962 30.4034902,12.3356607 30.3641572,12.4764362 C30.3641572,12.4764362 30.2484325,12.7381022 30.0963182,12.5940345 C29.9440701,12.4499668 30.401751,8.64376066 30.401751,8.64376066" id="Fill-12" fill="#EEA886"></path>
                            <path d="M18.6347496,8.53098223 C18.6347496,8.53098223 18.0139839,7.85265238 17.7682196,8.52281752 C17.522589,9.19285096 18.550866,12.2216971 18.5971558,12.3636578 C18.5971558,12.3636578 18.7076628,12.6274308 18.8625867,12.4863919 C19.0175105,12.3452214 18.6347496,8.53098223 18.6347496,8.53098223" id="Fill-14" fill="#EEA886"></path>
                            <g id="Group-18" transform="translate(17.684604, 0.000000)">
                                <mask id="mask-16" fill="white">
                                    <use xlink:href="#path-15"></use>
                                </mask>
                                <g id="Clip-17"></g>
                                <path d="M12.7144048,10.0110608 L11.8857362,11.1015771 C11.8857362,11.1015771 11.9090149,8.71076401 11.7761657,8.33584553 C11.6431827,7.96119043 11.4398284,6.81575982 11.3286525,6.54579745 C11.2174766,6.27583508 6.35784458,4.93524143 2.06533021,6.93717705 C2.06533021,6.93717705 2.25423563,8.65637646 1.8427108,8.80939904 C1.43145354,8.96228992 1.63320238,11.6093698 1.63320238,11.6093698 L0.951697997,10.8525533 C0.951697997,10.8525533 -0.0911615799,3.99406041 0.166375904,3.27925272 C0.423913387,2.56431334 1.24468869,-1.73348767 10.050999,0.817722617 C10.050999,0.817722617 12.7962817,0.245534072 13.3472112,2.1113033 C13.8984083,3.97694084 12.7144048,10.0110608 12.7144048,10.0110608" id="Fill-16" fill="#434343" mask="url(#mask-16)"></path>
                            </g>
                            <path d="M28.9425235,21.2126031 C28.9399816,21.20457 28.1998791,20.8534872 28.1998791,20.8534872 C27.8393266,20.0597979 28.1071656,16.7109475 28.1071656,16.7109475 C28.1071656,16.7109475 20.7347705,14.8640098 20.9453492,16.276374 C21.1557941,17.6886064 20.3102684,20.9697686 20.3102684,20.9697686 L16.5281465,22.8182866 C16.5281465,22.8182866 20.557772,33.4686315 25.1890318,32.0947205 C29.8204253,30.7209413 31.5691383,22.4342816 31.5691383,22.4342816 L28.9425235,21.2126031 Z" id="Fill-19" fill="#FFB48D"></path>
                            <path d="M21.0513877,17.8451451 C21.0513877,17.8451451 22.2390034,19.354564 24.3009087,19.354564 C25.6569606,19.354564 26.6305192,18.9803039 27.9814873,17.6836944 C27.9814873,17.6836944 27.3957735,20.146278 24.3097386,20.3752851 C24.3097386,20.3752851 22.0721726,20.6552559 21.0513877,17.8451451" id="Fill-21" fill="#A77860"></path>
                            <polygon id="Fill-23" fill="#4598E6" points="21.8593865 50.1183173 27.3518248 50.1183173 27.3518248 49.1169544 21.8593865 49.1169544"></polygon>
                            <path d="M2.28925357,44.753546 L1.29455685,44.753546 L1.29455685,51.1450698 L8.14585663,51.1450698 L8.14585663,50.1660941 L2.28925357,50.1660941 L2.28925357,44.753546 Z M46.922038,44.753546 L46.922038,50.1660941 L41.0655688,50.1660941 L41.0655688,51.1450698 L47.9167348,51.1450698 L47.9167348,44.753546 L46.922038,44.753546 Z M1.29455685,16.8361442 L2.28925357,16.8361442 L2.28925357,11.4257032 L8.14585663,11.4257032 L8.14585663,10.4465957 L1.29455685,10.4465957 L1.29455685,16.8361442 Z M41.0655688,10.4465957 L41.0655688,11.4257032 L46.922038,11.4257032 L46.922038,16.8361442 L47.9167348,16.8361442 L47.9167348,10.4465957 L41.0655688,10.4465957 Z" id="Fill-25" fill="#4598E6"></path>
                        </g>
                    </g>
                    <g id="Group-35" transform="translate(0.000000, 77.000000)">
                        <g id="Group-3" transform="translate(0.000000, 11.000000)">
                            <mask id="mask-18" fill="white">
                                <use xlink:href="#path-17"></use>
                            </mask>
                            <g id="Clip-2"></g>
                            <path d="M92.6939948,95 L13.1770567,95 C5.89966495,95 0,89.1385 0,81.9081857 L0,13.3583571 C0,6.12777143 5.89966495,0.266271429 13.1770567,0.266271429 L92.6939948,0.266271429 C99.9716598,0.266271429 105.871325,6.12777143 105.871325,13.3583571 L105.871325,81.9081857 C105.871325,89.1385 99.9716598,95 92.6939948,95" id="Fill-1" fill-opacity="0.7" fill="#FFFFFF" mask="url(#mask-18)"></path>
                        </g>
                        <polygon id="Fill-4" fill="#8CCEFF" points="48 90 56 90 56 88 48 88"></polygon>
                        <g id="Group-34" transform="translate(18.000000, 0.000000)">
                            <g id="Group-7" transform="translate(24.118321, 0.000000)">
                                <mask id="mask-20" fill="white">
                                    <use xlink:href="#path-19"></use>
                                </mask>
                                <g id="Clip-6"></g>
                                <path d="M18.451274,1.98154625 C18.451274,1.98154625 25.162129,5.61584655 23.031587,14.5524622 C20.901045,23.4890778 20.0910489,24.6690628 21.8221481,28.2801108 C23.5532473,31.8914261 25.0748695,47.0238315 23.2285985,49.7924532 C21.3820565,52.5608075 2.66325878,36.2887745 0.583121374,23.271255 C-1.49674504,10.2537354 3.18573206,4.72531201 4.84610229,2.66174144 C6.50647252,0.598170871 12.5317168,-1.33684414 18.451274,1.98154625" id="Fill-5" fill="#344052" mask="url(#mask-20)"></path>
                            </g>
                            <path d="M55.1699538,75.8431006 L47.9851332,75.8431006 C47.637721,72.3477793 47.316595,69.9148453 47.3827172,69.5548363 C47.4881332,68.9607012 40.2328546,50.1913228 39.5559156,48.6390345 C38.8740989,47.0907553 36.2140378,42.9278003 35.8666256,39.0072568 C35.5148775,35.0869805 40.6992324,33.5039565 40.6992324,33.5039565 C47.6949004,34.7400676 50.0647286,44.2849835 50.0647286,44.2849835 C50.0647286,44.2849835 53.0022859,63.6396772 54.488408,69.0865841 C54.8710492,70.4827883 55.0775454,72.950467 55.1699538,75.8431006" id="Fill-8" fill="#FFB48D"></path>
                            <path d="M51.553371,48.9464453 L40.8543214,53.3953763 C40.8543214,53.3953763 31.0197374,29.3263553 39.2627832,32.0137276 C47.4814397,34.6928147 51.1785885,39.7294664 51.553371,48.9464453" id="Fill-10" fill="#F7941D"></path>
                            <g id="Fill-12">
                                <use fill="#EB4747" xlink:href="#path-21"></use>
                                <use fill="#F7941D" xlink:href="#path-21"></use>
                            </g>
                            <path d="M40.2508214,32.0146631 C40.2508214,32.0146631 45.1129664,40.2104138 43.3049053,40.8224559 C41.4968443,41.4342306 31.9668557,39.3650474 28.2439626,31.6217802 C28.2439626,31.6217802 34.4995504,28.8178793 40.2508214,32.0146631" id="Fill-14" fill="#FFB48D"></path>
                            <path d="M39.5545607,35.7574471 C39.5545607,35.7574471 35.2357553,37.5598976 31.3250645,31.626297 C31.3250645,31.626297 32.3757019,24.8884892 30.1541065,20.9909306 C27.9322401,17.0947084 39.8651179,25.6627625 39.8651179,25.6627625 C39.8651179,25.6627625 39.6719004,26.4661679 39.471637,27.6525673 C39.3694729,28.2595312 39.2640569,28.9656514 39.1838431,29.7150688 C39.116637,30.3394051 39.0648775,30.995279 39.0421141,31.6484802 C38.9925225,33.1638856 39.1022744,34.6680658 39.5545607,35.7574471" id="Fill-16" fill="#FFB48D"></path>
                            <path d="M28.8302275,44.9369285 C27.9408305,49.4470637 21.5622122,55.097361 21.5622122,55.097361 C21.2467771,54.1752889 20.9213153,53.2190066 20.6091321,52.2579135 C25.0100481,49.4882228 28.8302275,44.9369285 28.8302275,44.9369285" id="Fill-18" fill="#393D63"></path>
                            <path d="M27.2304782,48.5262477 C26.8261576,50.1699414 24.966337,66.8182868 25.1684973,67.3862297 C25.286921,67.7117613 26.1882416,71.5628153 27.0898332,75.8431006 L18.7616958,75.8431006 C17.9088828,73.0851697 17.4029401,70.7949565 17.5259706,69.4984429 C18.0579286,63.8826231 16.12765,45.9807943 16.12765,45.9807943 C16.12765,45.9807943 14.3995317,35.1519264 23.510566,33.7987523 C23.510566,33.7987523 28.8930164,34.4973889 29.2182073,38.4176652 C29.5433981,42.3419505 27.6350698,46.8870976 27.2304782,48.5262477" id="Fill-20" fill="#FFB48D"></path>
                            <g id="Fill-22">
                                <use fill="#EB4747" xlink:href="#path-22"></use>
                                <use fill="#F7941D" xlink:href="#path-22"></use>
                            </g>
                            <path d="M41.5253256,2.93472823 C41.5253256,2.93472823 51.3520508,6.49152102 45.1232912,23.2157703 C38.8950737,39.9400195 26.1803828,20.3608213 28.1011767,10.0835931 C30.0219706,-0.193100601 41.5253256,2.93472823 41.5253256,2.93472823" id="Fill-24" fill="#FFB48D"></path>
                            <path d="M46.6297378,13.1005327 C46.6297378,13.1005327 41.4437569,17.6665267 33.1204973,17.8795387 C33.1204973,17.8795387 31.1753141,22.5559141 30.860963,23.9911393 C30.860963,23.9911393 22.6379706,10.0665147 32.0920813,3.03284204 C41.546463,-4.00056336 50.1209324,10.1833105 46.6297378,13.1005327" id="Fill-26" fill="#344052"></path>
                            <path d="M34.2445195,18.8825393 C34.2393706,17.6440228 33.6025385,14.7962901 31.7028821,15.4965303 C29.8032256,16.1967706 31.5047866,22.0149117 32.7565004,21.7201159 C32.7565004,21.7201159 34.2564431,21.8131249 34.2445195,18.8825393" id="Fill-28" fill="#EEA987"></path>
                            <path d="M39.0541191,31.3623973 C34.4364092,30.1027667 32.6505695,25.7618117 32.595829,25.6166856 C36.3509702,30.4023733 39.1839244,29.7149619 39.1839244,29.7149619 C39.1164473,30.3392982 39.1115695,30.7292411 39.0541191,31.3623973" id="Fill-30" fill="#A77860"></path>
                            <path d="M1.59365191,79.1601814 L0.0853083969,79.1601814 L0.0853083969,88.8716048 L10.4748847,88.8716048 L10.4748847,87.3839952 L1.59365191,87.3839952 L1.59365191,79.1601814 Z M69.2788733,79.1601814 L69.2788733,87.3839952 L60.3973695,87.3839952 L60.3973695,88.8716048 L70.7872168,88.8716048 L70.7872168,79.1601814 L69.2788733,79.1601814 Z M0.0853083969,36.7405898 L1.59365191,36.7405898 L1.59365191,28.5197159 L10.4748847,28.5197159 L10.4748847,27.0321063 L0.0853083969,27.0321063 L0.0853083969,36.7405898 Z M60.3973695,27.0321063 L60.3973695,28.5197159 L69.2788733,28.5197159 L69.2788733,36.7405898 L70.7872168,36.7405898 L70.7872168,27.0321063 L60.3973695,27.0321063 Z" id="Fill-32" fill="#8CCEFF"></path>
                        </g>
                    </g>
                </g>
            </g>
        </g>
    </g>
</svg>