<?xml version="1.0" encoding="UTF-8"?>
<svg width="330px" height="285px" viewBox="0 0 330 285" version="1.1" xmlns="http://www.w3.org/2000/svg" xmlns:xlink="http://www.w3.org/1999/xlink">
    <title>A969036F-3BAA-4A28-BF35-D23A996C913F@1x</title>
    <defs>
        <polygon id="path-1" points="0 0.0829671598 55.3855136 0.0829671598 55.3855136 38.5440985 0 38.5440985"></polygon>
        <path d="M11.8508936,0.750350093 C5.60147368,3.10161639 3.16820819,10.252514 2.02625029,13.6076723 L2.02625029,13.6076723 C-2.40483977,26.6295196 0.171585965,46.4712514 13.9632234,56.2582458 L13.9632234,56.2582458 C27.0388304,65.5371173 43.5934947,61.1150279 48.8493895,59.6734413 L48.8493895,59.6734413 C58.0701006,57.1444879 60.2553287,53.524473 69.6291719,51.2350912 L69.6291719,51.2350912 C81.028807,48.451095 91.2750222,50.5133743 97.9776491,52.5895084 L97.9776491,52.5895084 C93.5012842,49.3487672 86.1740936,44.6582421 76.3186175,41.1390205 L76.3186175,41.1390205 C58.7891111,34.8792142 50.755862,38.5721974 43.3349123,31.1072588 L43.3349123,31.1072588 C35.6534316,23.3802346 40.6288515,15.7694749 31.4323251,7.14062197 L31.4323251,7.14062197 C30.7795649,6.52835754 23.6431018,0.00323277467 16.0619135,0.00323277467 L16.0619135,0.00323277467 C14.6605708,0.00323277467 13.2445567,0.226063315 11.8508936,0.750350093" id="path-3"></path>
        <linearGradient x1="-1.67440446%" y1="44.11805%" x2="144.129868%" y2="78.742242%" id="linearGradient-5">
            <stop stop-color="#FF9085" offset="0%"></stop>
            <stop stop-color="#FB6EBA" offset="100%"></stop>
        </linearGradient>
        <path d="M0.107246988,8.52692308 C0.107246988,10.8237692 1.51519277,12.777 3.42194578,13.125 L3.42194578,13.125 L94.6984036,29.7895385 C95.781747,29.9873077 96.8800843,30.0398077 97.9732711,29.9458846 L97.9732711,29.9458846 L319.393319,10.9457308 C321.370235,10.7761154 322.901223,8.817 322.901223,6.45692308 L322.901223,6.45692308 L322.901223,2.92442308 L0.107246988,0.0642692308 L0.107246988,8.52692308 Z" id="path-6"></path>
        <linearGradient x1="50%" y1="-2.48949813e-15%" x2="50%" y2="100%" id="linearGradient-8">
            <stop stop-color="#57C6F2" offset="0%"></stop>
            <stop stop-color="#2C94E0" offset="100%"></stop>
        </linearGradient>
        <path d="M6.6692472,0.00193495935 C3.03858249,0.00193495935 0.0864361986,3.12780488 0.0864361986,6.9838374 L0.0864361986,6.9838374 L0.0864361986,161.470764 C0.0864361986,165.326797 3.03858249,168.230488 6.6692472,167.957203 L6.6692472,167.957203 L209.570246,152.685593 C212.56142,152.460341 214.979912,149.452618 214.979912,145.966732 L214.979912,145.966732 L214.979912,6.31354472 C214.979912,2.82765854 212.56142,0.00193495935 209.570246,0.00193495935 L209.570246,0.00193495935 L6.6692472,0.00193495935 Z" id="path-9"></path>
        <linearGradient x1="50%" y1="-2.48949813e-15%" x2="50%" y2="100%" id="linearGradient-11">
            <stop stop-color="#57C6F2" offset="0%"></stop>
            <stop stop-color="#2C94E0" offset="100%"></stop>
        </linearGradient>
        <path d="M193.523121,0.0944204019 L5.42517715,0.937180062 C2.48442585,0.950306801 0.0944870167,3.54260742 0.0944870167,6.72722334 L0.0944870167,6.72722334 L0.0944870167,143.556088 C0.0944870167,146.740704 2.48442585,149.151764 5.42517715,148.941966 L5.42517715,148.941966 L193.523121,135.521948 C195.979212,135.34681 197.965838,132.853651 197.965838,129.953102 L197.965838,129.953102 L197.965838,5.32646213 C197.965838,2.43270711 195.988695,0.0944204019 193.540487,0.0944204019 L193.540487,0.0944204019 C193.534774,0.0944204019 193.528833,0.0944204019 193.523121,0.0944204019" id="path-12"></path>
        <path d="M217.050163,0.157552542 L0.107246988,16.4347932 L94.6984036,33.6850102 C95.781747,33.8825559 96.8800843,33.9348814 97.9732711,33.8412949 L97.9732711,33.8412949 L322.901223,14.5617966 L220.501181,0.26819661 C219.756861,0.164237288 219.008422,0.112142373 218.259753,0.112142373 L218.259753,0.112142373 C217.856404,0.112142373 217.453054,0.127240678 217.050163,0.157552542" id="path-14"></path>
        <linearGradient x1="50%" y1="-2.48949813e-15%" x2="50%" y2="100%" id="linearGradient-16">
            <stop stop-color="#57C6F2" offset="0%"></stop>
            <stop stop-color="#2C94E0" offset="100%"></stop>
        </linearGradient>
        <polygon id="path-17" points="180.262478 0.0935893104 236.034272 7.77672252 57.3819016 22.3710487 0.0576710563 13.7464162"></polygon>
        <filter id="filter-19">
            <feColorMatrix in="SourceGraphic" type="matrix" values="0 0 0 0 0.890196 0 0 0 0 0.956863 0 0 0 0 1.000000 0 0 0 1.000000 0"></feColorMatrix>
        </filter>
        <linearGradient x1="50%" y1="51.0918406%" x2="48.0358025%" y2="48.8756888%" id="linearGradient-20">
            <stop stop-color="#F59231" offset="0%"></stop>
            <stop stop-color="#FFD9B3" offset="100%"></stop>
        </linearGradient>
        <path d="M201.508495,5.88365561 L25.2928123,0.0822624868 C19.3837559,-0.112352937 14.5731904,4.55773077 14.5731904,10.5139238 L14.5731904,18.2501444 L210.721361,23.2876062 L210.721361,16.1446137 C210.721361,10.6451548 206.605588,6.05138413 201.508495,5.88365561" id="path-21"></path>
        <filter id="filter-22">
            <feColorMatrix in="SourceGraphic" type="matrix" values="0 0 0 0 0.843137 0 0 0 0 0.937255 0 0 0 0 1.000000 0 0 0 1.000000 0"></feColorMatrix>
        </filter>
        <path d="M1.83854167,0.0310857143 C1.63177083,0.133028571 1.8940625,1.36994286 2.04083333,1.91817143 L2.04083333,1.91817143 C2.34666667,3.05965714 2.67552083,3.16994286 2.64791667,3.69417143 L2.64791667,3.69417143 C2.59125,4.77348571 1.17125,4.8152 0.422083333,6.24742857 L0.422083333,6.24742857 C-0.117291667,7.27885714 -0.160416667,8.74788571 0.422083333,9.91051429 L0.422083333,9.91051429 C1.38864583,11.8393143 3.5678125,11.9073143 3.65989583,11.9084571 L3.65989583,11.9084571 C4.10697917,11.1482286 4.9228125,9.53017143 4.975,7.35737143 L4.975,7.35737143 C5.07364583,3.25108571 2.3765625,0.0236571429 1.87552083,0.0233142857 L1.87552083,0.0233142857 C1.86145833,0.0233142857 1.8490625,0.0258285714 1.83854167,0.0310857143" id="path-23"></path>
        <polygon id="path-25" points="4.91835616 1.2146625 0.0998356164 4.880025 1.2540274 8.9571375 6.14356164 5.7663 7.92186301 0.06165"></polygon>
        <path d="M0.00172131148,0.694148936 C0.00172131148,0.694148936 2.76155738,7.13042553 2.03539344,9.98489362 L2.03539344,9.98489362 C4.99834426,9.93106383 6.91554098,9.58117021 6.91554098,9.58117021 L6.91554098,9.58117021 C6.91554098,9.58117021 5.72462295,6.6456383 5.4922459,5.19148936 L5.4922459,5.19148936 C5.17827869,3.22670213 5.20180328,0.0477659574 5.20180328,0.0477659574 L5.20180328,0.0477659574 L0.00172131148,0.694148936 Z" id="path-27"></path>
        <path d="M0.583627119,0.486802548 C0.583627119,0.486802548 0.79220339,2.75984713 1.20935593,6.12997452 L1.20935593,6.12997452 C1.62650847,9.50033121 0.062440678,17.9932357 0.062440678,17.9932357 L0.062440678,17.9932357 L1.76145763,14.6845605 L4.59325424,11.8982293 C4.59325424,11.8982293 6.96457627,13.6315032 5.36562712,11.2018471 L5.36562712,11.2018471 C3.48854237,8.77207643 4.96362712,0.0948152866 4.96362712,0.0948152866 L4.96362712,0.0948152866 L0.583627119,0.486802548 Z" id="path-29"></path>
        <path d="M4.4962069,1.71295872 C4.4962069,1.71295872 0.0172413793,5.71123853 0.0172413793,22.1751147 L0.0172413793,22.1751147 C0.0172413793,38.6388761 2.13885057,74.3889908 2.13885057,74.3889908 L2.13885057,74.3889908 L5.53390805,99.9841743 C5.53390805,99.9841743 9.05413793,100.10906 11.4116092,99.4036697 L11.4116092,99.4036697 C13.5332184,89.7604358 16.9904598,73.4482798 15.3402299,59.8067661 L15.3402299,59.8067661 C14.6329885,44.9892202 21.2336782,26.4087156 21.2336782,26.4087156 L21.2336782,26.4087156 C21.2336782,26.4087156 26.8914943,45.2244266 30.8990805,54.6325688 L30.8990805,54.6325688 C34.9065517,64.0402523 42.5364368,93.5129587 43.2435632,95.6299312 L43.2435632,95.6299312 C47.9329885,96.0538991 49.935977,94.8167431 49.935977,94.8167431 L49.935977,94.8167431 C49.935977,94.8167431 46.9290805,63.0995413 44.1003448,51.1043578 L44.1003448,51.1043578 C41.2714943,39.109289 41.5072414,10.1801606 36.7922989,1.94805046 L36.7922989,1.94805046 C33.1204598,0.482683486 28.1204598,0.00355504587 23.1526437,0.00355504587 L23.1526437,0.00355504587 C13.768046,0.00355504587 4.4962069,1.71295872 4.4962069,1.71295872" id="path-31"></path>
        <path d="M4.49635888,1.69701425 C5.32889175,1.54607158 26.2455794,-2.18628 36.5821714,1.93522785 C41.2700571,10.113038 41.0355429,38.8519747 43.8483429,50.7679747 C46.6046629,62.445878 49.5311109,92.9401326 49.6470662,94.1552316 L49.6506286,94.1926329 C49.6506286,94.1926329 48.8233143,94.6982278 47.0001143,94.9492025 C46.5080663,92.6584747 46.6483972,90.2183718 46.785271,87.7768034 L46.8047322,87.428014 C46.9848693,84.1728506 47.1050331,80.9276035 45.6580571,78.0428734 C44.9637714,75.9664937 42.8808,73.89 42.1864,71.8137342 C40.1034286,64.8923924 44.2693714,55.894443 38.7146286,51.7416835 C31.7713143,45.5124304 28.9940571,40.6674684 27.6053714,31.6696329 C27.0032,29.2685696 23.7908571,25.8330759 21.1369143,26.3157722 C21.1220571,26.2672405 21.1123429,26.2348861 21.1123429,26.2348861 C21.1123429,26.2348861 21.1,26.2697468 21.0820571,26.3214684 C20.6949714,26.399962 20.32,26.5613924 19.9676571,26.8247848 C14.136,31.3460886 4.68011429,30.4398228 0.0568,26.361 C0.0312,24.8108354 0.0170285714,23.3562532 0.0170285714,22.0291519 C0.0170285714,5.67364557 4.47074286,1.70168354 4.47074286,1.70168354 L4.47074286,1.70168354" id="path-33"></path>
        <path d="M0.0256722689,0.54547619 C0.0256722689,0.54547619 1.83769748,4.84178571 6.73498319,4.94845238 L6.73498319,4.94845238 C10.5297815,5.03107143 12.9157731,1.78297619 12.9157731,1.78297619 L12.9157731,1.78297619 L11.8282521,0.919166667 C11.8282521,0.919166667 9.9917563,2.65345238 7.15131092,2.65345238 L7.15131092,2.65345238 C2.03368067,2.36011905 1.61735294,0.0117857143 1.61735294,0.0117857143 L1.61735294,0.0117857143 L0.0256722689,0.54547619 Z" id="path-35"></path>
        <path d="M6.71357895,0.152593985 C6.148,0.267857143 5.81273684,0.408947368 4.16568421,1.81161654 L4.16568421,1.81161654 C3.77231579,2.14691729 1.96947368,3.71221805 1.67410526,6.15552632 L1.67410526,6.15552632 C1.45642105,7.95552632 3.09073684,9.8737218 3.36336842,10.2278571 L3.36336842,10.2278571 C3.06294737,10.6804511 2.76284211,11.1329323 2.46231579,11.5853008 L2.46231579,11.5853008 C0.540421053,12.0318045 0.0410526316,12.4864286 0.0192631579,12.8551128 L0.0192631579,12.8551128 C-0.0345263158,13.7657143 2.776,14.9859023 5.42305263,14.913609 L5.42305263,14.913609 C7.53389474,14.8559774 9.81136842,13.9687218 9.77589474,13.2733083 L9.77589474,13.2733083 C9.75936842,12.952218 9.24431579,12.5502632 7.16410526,12.1584586 L7.16410526,12.1584586 C7.25810526,11.7161278 7.35178947,11.2736842 7.44568421,10.8312406 L7.44568421,10.8312406 C9.83221053,5.60672932 10.412,1.40605263 9.62473684,0.812706767 L9.62473684,0.812706767 C9.37821053,0.627180451 8.02284211,0.0603383459 7.57063158,0.0310150376 L7.57063158,0.0310150376 C7.52778947,0.0281954887 7.48621053,0.0271804511 7.48621053,0.0271804511 L7.48621053,0.0271804511 L6.71357895,0.152593985 Z" id="path-37"></path>
        <path d="M1.14171429,0.1423 C0.410761905,0.6015 -0.315904762,1.4538 0.20552381,1.8361 L0.20552381,1.8361 C0.727142857,2.2186 1.58704762,1.8173 1.84285714,1.1759 L1.84285714,1.1759 C2.05380952,0.6472 1.80952381,0.0556 1.41285714,0.0556 L1.41285714,0.0556 C1.32838095,0.0556 1.23704762,0.0824 1.14171429,0.1423" id="path-39"></path>
    </defs>
    <g id="Comfortable-Themes" stroke="none" stroke-width="1" fill="none" fill-rule="evenodd">
        <g id="Artboard" transform="translate(-720.000000, -686.000000)">
            <g id="Group-2" transform="translate(712.000000, 643.000000)">
                <g id="Group-260" transform="translate(8.000000, 43.000000)">
                    <g id="Group-16" transform="translate(0.000000, 25.000000)">
                        <path d="M195.016725,132.00098 C191.201868,112.07687 204.065859,92.7679624 223.728482,88.7648683 C243.390877,84.7618885 262.580017,97.5452263 266.610282,117.425368 C270.664912,137.425993 257.855144,157.009326 237.976657,161.056387 C218.098055,165.103449 198.854691,152.045686 195.016725,132.00098 M208.848158,64.6324453 L210.237719,71.7382713 C207.138404,72.9641068 204.180254,74.4342186 201.399759,76.1462086 L196.651779,70.7037228 C195.356365,69.2187648 193.096827,69.079782 191.604311,70.3929814 L182.259923,78.6140962 C180.764089,79.9302648 180.599359,82.2051524 181.892828,83.6957062 L186.682106,89.2137932 C184.622531,91.7977092 182.782596,94.5545257 181.189297,97.4563778 L174.253161,95.101892 C172.38291,94.4669334 170.337635,95.486179 169.684437,97.378721 L165.591256,109.236572 C164.935541,111.136195 165.92243,113.195128 167.796685,113.834312 L174.7565,116.208441 C174.239662,119.452325 174.009498,122.771012 174.059375,126.13081 L166.777765,127.613256 C164.823091,128.011133 163.537401,129.935194 163.906669,131.911788 L166.220087,144.29862 C166.590957,146.283551 168.481112,147.570027 170.441506,147.170894 L177.744622,145.684109 C178.924611,148.837089 180.352265,151.847204 182.022209,154.679736 L176.406654,159.662562 C174.892173,161.006139 174.723783,163.334587 176.030979,164.863855 L184.221232,174.443621 C185.533347,175.978485 187.827204,176.129345 189.3434,174.779829 L194.958384,169.782614 C197.531594,171.89545 200.285091,173.774859 203.183412,175.405195 L200.766924,182.574403 C200.112697,184.51548 201.123037,186.622949 203.024403,187.280862 L214.928044,191.399071 C216.833528,192.058697 218.906259,191.015126 219.556482,189.069367 L221.93419,181.955432 C225.199035,182.474362 228.53938,182.690888 231.919993,182.617799 L233.360002,189.98172 C233.754209,191.997485 235.677081,193.306459 237.654748,192.9039 L250.021348,190.38622 C251.998787,189.983661 253.27727,188.022941 252.877229,186.008204 L251.427267,178.707094 C254.596935,177.464242 257.616173,175.962154 260.452949,174.212364 L265.27014,179.762655 C266.607536,181.303686 268.915692,181.455345 270.424338,180.100805 L279.849032,171.640325 C281.354475,170.288982 281.488203,167.948429 280.148862,166.413222 L275.347459,160.909182 C277.442953,158.24818 279.299362,155.404571 280.90124,152.41604 L287.737509,154.748028 C289.648027,155.400003 291.707944,154.362713 292.337119,152.432599 L296.265571,140.38563 C296.892687,138.462597 295.854434,136.379796 293.947921,135.732617 L287.177086,133.434319 C287.661894,130.113577 287.843211,126.720203 287.73545,123.291312 L294.719403,121.869507 C296.679911,121.470374 297.936774,119.543115 297.526895,117.566293 L294.968099,105.229253 C294.559822,103.260767 292.644156,101.988452 290.689368,102.386443 L283.72612,103.804022 C282.478067,100.631171 280.981546,97.609179 279.238961,94.7764186 L284.527918,90.0692743 C286.015172,88.7457967 286.14604,86.4592607 284.820884,84.9629967 L276.550212,75.6222536 C275.230089,74.1313571 272.95648,73.9914607 271.471171,75.3095707 L266.148696,80.0323607 C263.541282,77.9605228 260.761588,76.1193713 257.838328,74.5364287 L260.098667,67.7740056 C260.727613,65.8920843 259.713612,63.8572476 257.834325,63.2281133 L246.095641,59.29925 C244.220586,58.6717145 242.188123,59.6844506 241.555288,61.561918 L239.270469,68.3403293 C236.039829,67.8630825 232.738263,67.676592 229.398261,67.7785737 L227.999205,60.7336169 C227.61415,58.7950518 225.730859,57.5442062 223.792772,57.9387713 L211.671207,60.4064305 C209.732778,60.801224 208.468937,62.6927382 208.848158,64.6324453" id="Fill-1" fill="#D7EFFF"></path>
                        <path d="M267.758113,52.6434794 C266.636238,46.7840451 270.419408,41.1056196 276.201981,39.9283196 C281.984325,38.7511338 287.627564,42.5105226 288.812929,48.3570522 C290.005386,54.2388699 286.238117,59.9981498 280.392055,61.1883546 C274.546107,62.3785593 268.886853,58.5383161 267.758113,52.6434794 M271.825785,32.8312871 L272.23452,34.9210546 C271.322903,35.2815877 270.45304,35.7138392 269.635342,36.2173522 L268.239032,34.6167084 C267.857981,34.1801173 267.193458,34.1392333 266.754637,34.5253475 L264.006517,36.9431007 C263.566552,37.3302427 263.518277,37.9992333 263.898642,38.4375374 L265.306963,40.0603362 C264.701354,40.8202309 264.160264,41.6309451 263.6917,42.4843705 L261.651802,41.7919688 C261.101789,41.6052498 260.500412,41.9050279 260.308228,42.4615303 L259.10456,45.9487776 C258.911689,46.5074498 259.20191,47.1129445 259.753067,47.3009196 L261.799829,47.9991457 C261.647912,48.9530682 261.58019,49.9290315 261.594833,50.9171001 L259.453465,51.3531202 C258.878629,51.4701764 258.500437,52.0360433 258.608999,52.6173273 L259.289537,56.2600025 C259.398556,56.8437989 259.954289,57.2221475 260.530841,57.1047486 L262.678615,56.6674723 C263.02569,57.5947859 263.445522,58.4799593 263.936621,59.3130569 L262.285209,60.7783723 C261.839868,61.1735084 261.79022,61.8582587 262.174589,62.307983 L264.583298,65.1253262 C264.969154,65.5767634 265.643858,65.6210735 266.089657,65.2242244 L267.741069,63.7545693 C268.497794,64.375938 269.307485,64.9286717 270.159845,65.4080883 L269.449221,67.5164705 C269.256808,68.0873622 269.553892,68.7071321 270.113057,68.9004747 L273.613785,70.1116924 C274.174208,70.3057202 274.783707,69.9987475 274.974976,69.4264853 L275.67416,67.3344338 C276.634395,67.4871208 277.616823,67.5507309 278.610919,67.5292611 L279.034411,69.6948581 C279.150293,70.2876764 279.71575,70.6726486 280.297336,70.554222 L283.934308,69.8138557 C284.51578,69.6954291 284.891798,69.1188273 284.774199,68.5263516 L284.347848,66.3791409 C285.279941,66.013583 286.167879,65.571967 287.002164,65.0573764 L288.418722,66.6895398 C288.812128,67.1428043 289.490836,67.1874569 289.934461,66.789009 L292.706262,64.3009078 C293.148972,63.9034877 293.188324,63.2151972 292.794346,62.7637599 L291.382364,61.1450723 C291.998612,60.3624516 292.544621,59.5261563 293.015701,58.647264 L295.026086,59.3331563 C295.587996,59.5247859 296.19372,59.2197546 296.378811,58.6521747 L297.53409,55.1093114 C297.718496,54.5437871 297.413175,53.931212 296.852523,53.7409528 L294.861356,53.064996 C295.003893,52.0884617 295.057201,51.0904575 295.025514,50.0820611 L297.079369,49.6639705 C297.655922,49.5465717 298.025647,48.9797912 297.90496,48.398393 L297.152582,44.7703356 C297.032467,44.1913356 296.469069,43.8172125 295.894232,43.9342688 L293.846441,44.3511031 C293.47946,43.4179652 293.039267,42.5292516 292.52689,41.6962682 L294.082209,40.3119214 C294.519543,39.9227238 294.558094,39.2503072 294.168349,38.8102901 L291.736074,36.0631806 C291.347931,35.6248764 290.679175,35.5836498 290.242414,35.9712486 L288.677141,37.3601634 C287.910349,36.7509001 287.09288,36.2094723 286.233198,35.7439883 L286.897836,33.7551747 C287.082927,33.2017557 286.784584,32.6033415 286.23194,32.4182214 L282.779716,31.262848 C282.22833,31.0782989 281.630614,31.3761356 281.444607,31.9282983 L280.772649,33.92168 C279.82248,33.7813267 278.851607,33.7265102 277.869294,33.7565451 L277.457928,31.6847072 C277.344676,31.1146149 276.790774,30.7467729 276.220856,30.8626871 L272.655952,31.5884356 C272.08592,31.7045782 271.714249,32.2608522 271.825785,32.8312871" id="Fill-3" fill="#D7EFFF"></path>
                        <g id="Group-9" transform="translate(37.178503, 0.000000)" fill="#FFFFFF">
                            <path d="M22.2088933,41.2115983 C15.405456,41.2115983 7.41116276,39.5426622 0.0281984645,33.8059942 L0.279639539,33.4836043 C16.847982,46.3576179 36.5496142,38.5086847 38.5061186,37.6771859 C35.1594814,24.7586338 38.119691,15.2286593 41.2013885,9.49987112 C44.5571774,3.26151728 48.7858031,0.054519645 48.828015,0.022771716 L49.0735075,0.349615503 C49.0318676,0.380906627 44.8644434,3.54507882 41.5525823,9.71068651 C38.4978821,15.3973344 35.5660426,24.8764895 38.9463121,37.7428516 L38.9897823,37.9089001 L38.833747,37.9803901 C38.7116871,38.0362344 31.5930906,41.2115983 22.2088933,41.2115983" id="Fill-5"></path>
                            <path d="M37.3859475,65.8532331 C32.2834554,65.8532331 26.1759997,64.9283177 19.0697579,62.336636 L19.2103498,61.9529201 C42.4926722,70.4442349 54.9210454,60.9323041 56.2043329,59.8698905 C50.5382147,46.6373993 58.5179797,25.237468 58.5994293,25.0219704 L58.982425,25.1665491 C58.9010899,25.3811331 50.9247567,46.7771816 56.639493,59.8456798 L56.6980634,59.979752 L56.5898454,60.0784218 C56.500617,60.1595047 50.0404803,65.8532331 37.3859475,65.8532331" id="Fill-7"></path>
                        </g>
                        <g id="Group-15" transform="translate(0.000000, 27.408284)">
                            <g id="Group-12">
                                <mask id="mask-2" fill="white">
                                    <use xlink:href="#path-1"></use>
                                </mask>
                                <g id="Clip-11"></g>
                                <path d="M31.7462775,38.5440985 C22.8166874,38.5440985 11.4273677,36.7092281 -4.57581574e-05,29.8699476 L0.210556161,29.5195784 C14.425099,38.0271098 28.5831304,38.7385831 37.9576041,37.8378784 C47.2566913,36.9441399 53.8046836,34.3341861 54.8969308,33.8762393 C51.112388,19.9368429 54.4847642,0.280649408 54.5193116,0.0829671598 L54.922441,0.153315089 C54.8876648,0.350997337 51.5040779,20.079937 55.3386114,33.939621 L55.3855136,34.1088672 L55.224788,34.1804713 C55.1558076,34.2111914 48.2195573,37.2619618 37.9969562,38.2445488 C36.0959335,38.4273849 33.9994091,38.5440985 31.7462775,38.5440985" id="Fill-10" fill="#FFFFFF" mask="url(#mask-2)"></path>
                            </g>
                            <path d="M43.8555446,70.9111578 C43.1746633,70.9111578 42.4878333,70.9038489 41.7918517,70.8888886 L41.8006602,70.4803909 C56.0780061,70.7886199 67.0714034,67.8254418 73.7779477,65.2861785 C80.1877504,62.859175 84.0099293,60.3468631 84.8492483,59.7680915 C74.3666264,46.7662868 78.4742218,25.5435957 78.5171201,25.3298111 L78.9183047,25.4100945 C78.8756352,25.6229655 74.7722725,46.8446288 85.304542,59.6796998 L85.4411301,59.8462051 L85.2673635,59.9737679 C85.1145312,60.0859134 70.0578095,70.9111578 43.8555446,70.9111578" id="Fill-13" fill="#FFFFFF"></path>
                        </g>
                    </g>
                    <g id="Group-19" transform="translate(26.000000, 86.000000)">
                        <mask id="mask-4" fill="white">
                            <use xlink:href="#path-3"></use>
                        </mask>
                        <g id="Clip-18"></g>
                        <path d="M11.8508936,0.750350093 C5.60147368,3.10161639 3.16820819,10.252514 2.02625029,13.6076723 L2.02625029,13.6076723 C-2.40483977,26.6295196 0.171585965,46.4712514 13.9632234,56.2582458 L13.9632234,56.2582458 C27.0388304,65.5371173 43.5934947,61.1150279 48.8493895,59.6734413 L48.8493895,59.6734413 C58.0701006,57.1444879 60.2553287,53.524473 69.6291719,51.2350912 L69.6291719,51.2350912 C81.028807,48.451095 91.2750222,50.5133743 97.9776491,52.5895084 L97.9776491,52.5895084 C93.5012842,49.3487672 86.1740936,44.6582421 76.3186175,41.1390205 L76.3186175,41.1390205 C58.7891111,34.8792142 50.755862,38.5721974 43.3349123,31.1072588 L43.3349123,31.1072588 C35.6534316,23.3802346 40.6288515,15.7694749 31.4323251,7.14062197 L31.4323251,7.14062197 C30.7795649,6.52835754 23.6431018,0.00323277467 16.0619135,0.00323277467 L16.0619135,0.00323277467 C14.6605708,0.00323277467 13.2445567,0.226063315 11.8508936,0.750350093" id="Fill-17" fill="url(#linearGradient-5)" mask="url(#mask-4)"></path>
                    </g>
                    <g id="Group-22" transform="translate(7.000000, 248.000000)">
                        <mask id="mask-7" fill="white">
                            <use xlink:href="#path-6"></use>
                        </mask>
                        <g id="Clip-21"></g>
                        <path d="M0.107246988,8.52692308 C0.107246988,10.8237692 1.51519277,12.777 3.42194578,13.125 L3.42194578,13.125 L94.6984036,29.7895385 C95.781747,29.9873077 96.8800843,30.0398077 97.9732711,29.9458846 L97.9732711,29.9458846 L319.393319,10.9457308 C321.370235,10.7761154 322.901223,8.817 322.901223,6.45692308 L322.901223,6.45692308 L322.901223,2.92442308 L0.107246988,0.0642692308 L0.107246988,8.52692308 Z" id="Fill-20" fill="url(#linearGradient-8)" mask="url(#mask-7)"></path>
                    </g>
                    <g id="Group-25" transform="translate(4.000000, 84.000000)">
                        <mask id="mask-10" fill="white">
                            <use xlink:href="#path-9"></use>
                        </mask>
                        <g id="Clip-24"></g>
                        <path d="M6.6692472,0.00193495935 C3.03858249,0.00193495935 0.0864361986,3.12780488 0.0864361986,6.9838374 L0.0864361986,6.9838374 L0.0864361986,161.470764 C0.0864361986,165.326797 3.03858249,168.230488 6.6692472,167.957203 L6.6692472,167.957203 L209.570246,152.685593 C212.56142,152.460341 214.979912,149.452618 214.979912,145.966732 L214.979912,145.966732 L214.979912,6.31354472 C214.979912,2.82765854 212.56142,0.00193495935 209.570246,0.00193495935 L209.570246,0.00193495935 L6.6692472,0.00193495935 Z" id="Fill-23" fill="url(#linearGradient-11)" mask="url(#mask-10)"></path>
                    </g>
                    <path d="M216.587652,236.708037 L13.586189,251.982199 C9.95349484,252.255413 7,249.351372 7,245.494724 L7,90.983131 C7,87.1264828 9.95349484,84 13.586189,84 L216.587652,84 C219.580424,84 222,86.8262886 222,90.3126175 L222,229.988216 C222,233.474545 219.580424,236.482749 216.587652,236.708037" id="Fill-26" fill="#40ACE8"></path>
                    <g id="Group-30" transform="translate(17.000000, 92.000000)">
                        <mask id="mask-13" fill="white">
                            <use xlink:href="#path-12"></use>
                        </mask>
                        <g id="Clip-29"></g>
                        <path d="M193.523121,0.0944204019 L5.42517715,0.937180062 C2.48442585,0.950306801 0.0944870167,3.54260742 0.0944870167,6.72722334 L0.0944870167,6.72722334 L0.0944870167,143.556088 C0.0944870167,146.740704 2.48442585,149.151764 5.42517715,148.941966 L5.42517715,148.941966 L193.523121,135.521948 C195.979212,135.34681 197.965838,132.853651 197.965838,129.953102 L197.965838,129.953102 L197.965838,5.32646213 C197.965838,2.43270711 195.988695,0.0944204019 193.540487,0.0944204019 L193.540487,0.0944204019 C193.534774,0.0944204019 193.528833,0.0944204019 193.523121,0.0944204019" id="Fill-28" fill="#FBFDFF" mask="url(#mask-13)"></path>
                    </g>
                    <g id="Group-35" transform="translate(8.000000, 84.000000)" fill="#FFFFFF">
                        <path d="M114.075117,4.22461422 C114.075117,5.65904076 113.041921,6.82525877 111.766155,6.82947869 C110.488685,6.83367583 109.452082,5.67155261 109.452082,4.23382749 C109.452082,2.79610237 110.488685,1.62988436 111.766155,1.62885999 C113.041921,1.62783697 114.075117,2.79007393 114.075117,4.22461422" id="Fill-31"></path>
                        <path d="M158.988988,110.240372 C143.514217,101.282912 131.346512,112.633092 119.60376,101.434305 C112.484497,94.6449213 115.979739,89.581945 107.219718,79.4359735 C97.5173522,68.1984 91.2004119,71.9759545 81.4496681,61.8620588 C69.120477,49.0736986 75.2869463,39.1239355 64.6667644,29.9424 C51.7831589,18.8037839 37.888843,29.1133194 25.62461,18.4310445 C20.3348468,13.823727 17.4326315,7.12545213 15.9169065,0.00188815166 L3.91682094,0.00188815166 C1.81408897,0.00188815166 0.106442573,1.83532891 0.106442573,4.0972436 L0.106442573,164.127992 C0.106442573,166.38968 1.81408897,168.092997 3.91682094,167.932391 L208.497333,152.309528 C209.501344,152.232978 210.391564,151.602381 210.962899,150.688106 C195.987009,150.100845 186.786478,144.699822 180.905393,139.116239 C169.400328,128.193509 171.395856,117.422059 158.988988,110.240372" id="Fill-33" opacity="0.200000003"></path>
                    </g>
                    <g id="Group-38" transform="translate(7.000000, 236.000000)">
                        <mask id="mask-15" fill="white">
                            <use xlink:href="#path-14"></use>
                        </mask>
                        <g id="Clip-37"></g>
                        <path d="M217.050163,0.157552542 L0.107246988,16.4347932 L94.6984036,33.6850102 C95.781747,33.8825559 96.8800843,33.9348814 97.9732711,33.8412949 L97.9732711,33.8412949 L322.901223,14.5617966 L220.501181,0.26819661 C219.756861,0.164237288 219.008422,0.112142373 218.259753,0.112142373 L218.259753,0.112142373 C217.856404,0.112142373 217.453054,0.127240678 217.050163,0.157552542" id="Fill-36" fill="url(#linearGradient-16)" mask="url(#mask-15)"></path>
                    </g>
                    <g id="Group-160" transform="translate(34.000000, 0.000000)">
                        <g id="Group-41" transform="translate(5.139005, 238.206533)">
                            <mask id="mask-18" fill="white">
                                <use xlink:href="#path-17"></use>
                            </mask>
                            <g id="Clip-40"></g>
                            <polygon id="Fill-39" fill="#8CCEFF" mask="url(#mask-18)" points="0.0576710563 13.7464162 180.262478 0.0935893104 236.034272 7.77672252 57.3819016 22.3710487"></polygon>
                        </g>
                        <g filter="url(#filter-19)" id="Group-90">
                            <g transform="translate(0.000000, 96.449619)">
                                <polygon id="Fill-42" fill="#FFFFFF" points="20.7522387 6.68711641 0.0490146878 6.75953943 0.0490146878 0.0471950985 20.7522387 0.0471950985"></polygon>
                                <polygon id="Fill-44" fill="#FFFFFF" points="129.227738 6.30767926 33.9027356 6.64119129 33.9027356 0.0472637459 129.227738 0.0472637459"></polygon>
                                <polygon id="Fill-46" fill="#FFFFFF" points="53.8856652 17.7152895 33.9027013 17.9045275 33.9027013 11.3106 53.8856652 11.1912679"></polygon>
                                <polygon id="Fill-48" fill="#FFFFFF" points="158.712003 16.7222817 66.582662 17.5950192 66.582662 11.1153896 158.712003 10.5649517"></polygon>
                                <polygon id="Fill-50" fill="#FFFFFF" points="53.8856652 28.8593165 33.9027013 29.168001 33.9027013 22.5740735 53.8856652 22.3354093"></polygon>
                                <polygon id="Fill-52" fill="#FFFFFF" points="158.712003 27.240004 66.582662 28.6631794 66.582662 22.1836642 158.712003 21.0827884"></polygon>
                                <polygon id="Fill-54" fill="#FFFFFF" points="20.7522387 40.7131692 0.0490146878 41.1567459 0.0490146878 34.4444016 20.7522387 34.0733623"></polygon>
                                <polygon id="Fill-56" fill="#FFFFFF" points="129.227738 38.389397 33.9027356 40.4315432 33.9027356 33.8376156 129.227738 32.128867"></polygon>
                                <polygon id="Fill-58" fill="#FFFFFF" points="53.8856652 51.1474963 33.9027013 51.6949595 33.9027013 45.1010319 53.8856652 44.6235892"></polygon>
                                <polygon id="Fill-60" fill="#FFFFFF" points="158.712003 48.2754486 66.582662 50.7996141 66.582662 44.3200989 158.712003 42.1182331"></polygon>
                                <polygon id="Fill-62" fill="#FFFFFF" points="53.8856652 62.2915233 33.9027013 62.958433 33.9027013 56.3645054 53.8856652 55.7676162"></polygon>
                                <polygon id="Fill-64" fill="#FFFFFF" points="158.712003 58.7932281 66.582662 61.8678315 66.582662 55.3882019 158.712003 52.6358982"></polygon>
                                <polygon id="Fill-66" fill="#FFFFFF" points="53.8856652 73.4355618 33.9027013 74.2219179 33.9027013 67.627876 53.8856652 66.9115402"></polygon>
                                <polygon id="Fill-68" fill="#FFFFFF" points="158.712003 69.3110076 66.582662 72.9360489 66.582662 66.4564193 158.712003 63.1536777"></polygon>
                                <polygon id="Fill-70" fill="#FFFFFF" points="86.1814339 83.1159229 66.8881245 83.9903766 66.8881245 77.5118911 86.1814339 76.7049407"></polygon>
                                <polygon id="Fill-72" fill="#FFFFFF" points="172.780361 79.1911556 98.4438536 82.560142 98.4438536 76.1920644 172.780361 73.0829086"></polygon>
                                <polygon id="Fill-74" fill="#FFFFFF" points="20.7522387 97.423383 0.0490146878 98.4853585 0.0490146878 91.7730142 20.7522387 90.7834617"></polygon>
                                <polygon id="Fill-76" fill="#FFFFFF" points="129.227738 91.8588578 33.9027356 96.7487277 33.9027356 90.1548001 129.227738 85.5984423"></polygon>
                                <polygon id="Fill-78" fill="#FFFFFF" points="53.8856652 106.867769 33.9027013 108.012235 33.9027013 101.418308 53.8856652 100.343747"></polygon>
                                <polygon id="Fill-80" fill="#FFFFFF" points="158.712003 100.86414 66.582662 106.140609 66.582662 99.6609799 158.712003 94.7069247"></polygon>
                                <polygon id="Fill-82" fill="#FFFFFF" points="53.8856652 118.011807 33.9027013 119.27572 33.9027013 112.681793 53.8856652 111.4879"></polygon>
                                <polygon id="Fill-84" fill="#FFFFFF" points="158.712003 111.38192 66.582662 117.208827 66.582662 110.729197 158.712003 105.22459"></polygon>
                                <polygon id="Fill-86" fill="#FFFFFF" points="20.7522387 131.449447 0.0490146878 132.882462 0.0490146878 126.170232 20.7522387 124.809526"></polygon>
                                <polygon id="Fill-88" fill="#FFFFFF" points="129.227738 123.940576 33.9027356 130.539194 33.9027356 123.945266 129.227738 117.68016"></polygon>
                            </g>
                        </g>
                        <path d="M25.2928123,0.0822624868 C19.3836417,-0.112352937 14.5733046,4.55773077 14.5733046,10.5139238 L14.5733046,182.581418 C14.5733046,188.537496 19.3836417,193.160099 25.2928123,192.907362 L201.508609,185.368961 C206.605474,185.150891 210.721246,180.516732 210.721246,175.017273 L210.721246,16.1446137 C210.721246,10.6451548 206.605474,6.05138413 201.508495,5.88365561 L25.2928123,0.0822624868 Z" id="Fill-91" fill="#FBFDFF"></path>
                        <g id="Fill-93">
                            <use fill="url(#linearGradient-20)" xlink:href="#path-21"></use>
                            <use fill="#8CCEFF" xlink:href="#path-21"></use>
                        </g>
                        <path d="M33.6326523,10.0240101 C33.6326523,11.9588375 32.0777036,13.4842975 30.1570861,13.4309813 C28.2334994,13.3776652 26.6720413,11.7615906 26.6720413,9.8213858 C26.6720413,7.881181 28.2334994,6.35606424 30.1570861,6.41475778 C32.0777036,6.4732225 33.6326523,8.08918267 33.6326523,10.0240101" id="Fill-95" fill="#FFFFFF"></path>
                        <path d="M45.7645184,10.3772468 C45.7645184,12.3029212 44.2244157,13.8211733 42.3220703,13.7684292 C40.4168698,13.7155706 38.8703719,12.1073905 38.8703719,10.1765675 C38.8703719,8.24563013 40.4168698,6.72760694 42.3220703,6.78561401 C44.2244157,6.84362107 45.7645184,8.45157238 45.7645184,10.3772468" id="Fill-97" fill="#FFFFFF"></path>
                        <path d="M57.7810082,10.7270855 C57.7810082,12.6434925 56.2555231,14.1547654 54.3713354,14.1025933 C52.4841786,14.0501925 50.9522983,12.4499068 50.9522983,10.5282368 C50.9522983,8.60668122 52.4841786,7.09552277 54.3713354,7.15307218 C56.2555231,7.2106216 57.7810082,8.81067846 57.7810082,10.7270855" id="Fill-99" fill="#FFFFFF"></path>
                        <polygon id="Fill-101" fill="#D7EFFF" points="120.144262 39.7796101 27.0683157 38.1035834 27.0683157 43.5863381 120.144262 45.0619143"></polygon>
                        <polygon id="Fill-103" fill="#FFFFFF" points="190.120939 41.0397593 190.120939 46.1713824 199.968301 46.3274409 199.968301 41.2170984"></polygon>
                        <g filter="url(#filter-22)" id="Group-157">
                            <g transform="translate(27.065426, 51.027913)">
                                <polygon id="Fill-105" fill="#FFFFFF" points="19.6802765 5.96992253 0.00291210284 5.76009026 0.00291210284 0.106289082 19.6802765 0.359826872"></polygon>
                                <polygon id="Fill-107" fill="#FFFFFF" points="124.802712 7.09130095 32.2424943 6.10392229 32.2424943 0.521743244 124.802712 1.71472092"></polygon>
                                <polygon id="Fill-109" fill="#FFFFFF" points="51.4265143 15.7711718 32.2424943 15.6392543 32.2424943 10.0570753 51.4265143 10.2315541"></polygon>
                                <polygon id="Fill-111" fill="#FFFFFF" points="153.97649 16.4759633 63.6756068 15.8553907 63.6756068 10.3428888 153.97649 11.1641407"></polygon>
                                <polygon id="Fill-113" fill="#FFFFFF" points="51.4265143 25.2337032 32.2424943 25.1746664 32.2424943 19.592373 51.4265143 19.6940855"></polygon>
                                <polygon id="Fill-115" fill="#FFFFFF" points="153.97649 25.5494584 63.6756068 25.2714364 63.6756068 19.7590489 153.97649 20.2376358"></polygon>
                                <polygon id="Fill-117" fill="#FFFFFF" points="19.6802765 34.7189798 0.00291210284 34.7331669 0.00291210284 29.0792513 19.6802765 29.1088841"></polygon>
                                <polygon id="Fill-119" fill="#FFFFFF" points="124.802712 34.6438452 32.2424943 34.71009 32.2424943 29.1277965 124.802712 29.2671508"></polygon>
                                <polygon id="Fill-121" fill="#FFFFFF" points="51.4265143 44.1588461 32.2424943 44.2453419 32.2424943 38.6631629 51.4265143 38.6193429"></polygon>
                                <polygon id="Fill-123" fill="#FFFFFF" points="153.97649 43.6963914 63.6756068 44.103585 63.6756068 38.5911975 153.97649 38.3845688"></polygon>
                                <polygon id="Fill-125" fill="#FFFFFF" points="51.4265143 53.6214348 32.2424943 53.7806968 32.2424943 48.1985178 51.4265143 48.0818171"></polygon>
                                <polygon id="Fill-127" fill="#FFFFFF" points="153.97649 52.769875 63.6756068 53.5197336 63.6756068 48.0073461 153.97649 47.4580524"></polygon>
                                <polygon id="Fill-129" fill="#FFFFFF" points="51.4265143 63.0840349 32.2424943 63.3160631 32.2424943 57.7338841 51.4265143 57.5444172"></polygon>
                                <polygon id="Fill-131" fill="#FFFFFF" points="153.97649 61.8433701 63.6756068 62.9358937 63.6756068 57.4233918 153.97649 56.5315475"></polygon>
                                <polygon id="Fill-133" fill="#FFFFFF" points="82.6754105 72.0499823 63.9709169 72.3472257 63.9709169 66.8355246 82.6754105 66.5796986"></polygon>
                                <polygon id="Fill-135" fill="#FFFFFF" points="167.989312 70.6941272 94.6203082 71.8601036 94.6203082 66.4164779 167.989312 65.4134248"></polygon>
                                <polygon id="Fill-137" fill="#FFFFFF" points="19.6802765 82.6341325 0.00291210284 83.0215327 0.00291210284 77.3677315 19.6802765 77.0240368"></polygon>
                                <polygon id="Fill-139" fill="#FFFFFF" points="124.802712 80.5646531 32.2424943 82.3867844 32.2424943 76.8046053 124.802712 75.1880731"></polygon>
                                <polygon id="Fill-141" fill="#FFFFFF" points="51.4265143 91.4717093 32.2424943 91.9222651 32.2424943 86.3398573 51.4265143 85.9320916"></polygon>
                                <polygon id="Fill-143" fill="#FFFFFF" points="153.97649 89.0637982 63.6756068 91.184088 63.6756068 85.6717005 153.97649 83.7518611"></polygon>
                                <polygon id="Fill-145" fill="#FFFFFF" points="51.4265143 100.934298 32.2424943 101.457506 32.2424943 95.8752122 51.4265143 95.3946803"></polygon>
                                <polygon id="Fill-147" fill="#FFFFFF" points="153.97649 98.1372246 63.6756068 100.600179 63.6756068 95.087792 153.97649 92.825402"></polygon>
                                <polygon id="Fill-149" fill="#FFFFFF" points="19.6802765 111.383144 0.00291210284 111.994564 0.00291210284 106.340762 19.6802765 105.773048"></polygon>
                                <polygon id="Fill-151" fill="#FFFFFF" points="124.802712 108.11714 32.2424943 110.992895 32.2424943 105.410716 124.802712 102.74056"></polygon>
                                <polygon id="Fill-153" fill="#FFFFFF" points="51.4265143 119.859384 32.2424943 120.528238 32.2424943 114.946059 51.4265143 114.31988"></polygon>
                                <polygon id="Fill-155" fill="#FFFFFF" points="153.97649 116.284226 63.6756068 119.432397 63.6756068 113.920009 153.97649 110.972404"></polygon>
                            </g>
                        </g>
                        <path d="M54.2698344,18.4222091 C50.2055666,12.4434768 47.4477481,6.35994282 45.5562517,0.749389516 L25.2928123,0.0822510456 C19.3836417,-0.112249966 14.5733046,4.55783374 14.5733046,10.5140268 L14.5733046,182.581521 C14.5733046,188.537599 19.3836417,193.160316 25.2926981,192.907465 L195.054704,185.645026 C191.165848,180.025892 157.29398,159.21211 148.543968,127.255365 C140.541966,98.030558 145.429845,90.1339313 133.012296,72.0314933 C112.430581,42.0271951 76.8059702,51.5735336 54.2698344,18.4222091 Z" id="Fill-158" fill="#FFFFFF" opacity="0.200000003"></path>
                    </g>
                    <g id="Group-163" transform="translate(154.000000, 75.000000)">
                        <mask id="mask-24" fill="white">
                            <use xlink:href="#path-23"></use>
                        </mask>
                        <g id="Clip-162"></g>
                        <path d="M1.83854167,0.0310857143 C1.63177083,0.133028571 1.8940625,1.36994286 2.04083333,1.91817143 L2.04083333,1.91817143 C2.34666667,3.05965714 2.67552083,3.16994286 2.64791667,3.69417143 L2.64791667,3.69417143 C2.59125,4.77348571 1.17125,4.8152 0.422083333,6.24742857 L0.422083333,6.24742857 C-0.117291667,7.27885714 -0.160416667,8.74788571 0.422083333,9.91051429 L0.422083333,9.91051429 C1.38864583,11.8393143 3.5678125,11.9073143 3.65989583,11.9084571 L3.65989583,11.9084571 C4.10697917,11.1482286 4.9228125,9.53017143 4.975,7.35737143 L4.975,7.35737143 C5.07364583,3.25108571 2.3765625,0.0236571429 1.87552083,0.0233142857 L1.87552083,0.0233142857 C1.86145833,0.0233142857 1.8490625,0.0258285714 1.83854167,0.0310857143" id="Fill-161" fill="#FFB48D" mask="url(#mask-24)"></path>
                    </g>
                    <g id="Group-166" transform="translate(224.000000, 170.000000)">
                        <mask id="mask-26" fill="white">
                            <use xlink:href="#path-25"></use>
                        </mask>
                        <g id="Clip-165"></g>
                        <polygon id="Fill-164" fill="#FFB48D" mask="url(#mask-26)" points="4.91835616 1.2146625 0.0998356164 4.880025 1.2540274 8.9571375 6.14356164 5.7663 7.92186301 0.06165"></polygon>
                    </g>
                    <g id="Group-169" transform="translate(219.000000, 261.000000)">
                        <mask id="mask-28" fill="white">
                            <use xlink:href="#path-27"></use>
                        </mask>
                        <g id="Clip-168"></g>
                        <path d="M0.00172131148,0.694148936 C0.00172131148,0.694148936 2.76155738,7.13042553 2.03539344,9.98489362 L2.03539344,9.98489362 C4.99834426,9.93106383 6.91554098,9.58117021 6.91554098,9.58117021 L6.91554098,9.58117021 C6.91554098,9.58117021 5.72462295,6.6456383 5.4922459,5.19148936 L5.4922459,5.19148936 C5.17827869,3.22670213 5.20180328,0.0477659574 5.20180328,0.0477659574 L5.20180328,0.0477659574 L0.00172131148,0.694148936 Z" id="Fill-167" fill="#FFB48D" mask="url(#mask-28)"></path>
                    </g>
                    <path d="M188.496578,279.030471 C188.668193,279.220586 188.972687,279.61762 188.998291,280.155671 C189.012197,280.448031 188.939357,280.688458 188.847755,280.90955 C188.395153,282.001951 187.68441,282.146005 186.917272,283.305118 C186.448777,284.013341 186.537179,284.22684 186.107753,284.546533 C185.541918,284.967863 184.857331,284.992057 184.263905,284.998233 C183.26125,285.008862 181.817471,284.975962 180,284.777343 C180.95255,283.651232 181.965469,282.507203 183.04284,281.352139 C183.515197,280.845774 183.987002,280.350949 184.457263,279.867968 L187.257854,279 C187.670836,279.010224 188.083707,279.020348 188.496578,279.030471" id="Fill-170" fill="#26264F"></path>
                    <g id="Group-174" transform="translate(181.000000, 264.000000)">
                        <mask id="mask-30" fill="white">
                            <use xlink:href="#path-29"></use>
                        </mask>
                        <g id="Clip-173"></g>
                        <path d="M0.583627119,0.486802548 C0.583627119,0.486802548 0.79220339,2.75984713 1.20935593,6.12997452 L1.20935593,6.12997452 C1.62650847,9.50033121 0.062440678,17.9932357 0.062440678,17.9932357 L0.062440678,17.9932357 L1.76145763,14.6845605 L4.59325424,11.8982293 C4.59325424,11.8982293 6.96457627,13.6315032 5.36562712,11.2018471 L5.36562712,11.2018471 C3.48854237,8.77207643 4.96362712,0.0948152866 4.96362712,0.0948152866 L4.96362712,0.0948152866 L0.583627119,0.486802548 Z" id="Fill-172" fill="#FFB48D" mask="url(#mask-30)"></path>
                    </g>
                    <g id="Group-177" transform="translate(175.000000, 167.000000)">
                        <mask id="mask-32" fill="white">
                            <use xlink:href="#path-31"></use>
                        </mask>
                        <g id="Clip-176"></g>
                        <path d="M4.4962069,1.71295872 C4.4962069,1.71295872 0.0172413793,5.71123853 0.0172413793,22.1751147 L0.0172413793,22.1751147 C0.0172413793,38.6388761 2.13885057,74.3889908 2.13885057,74.3889908 L2.13885057,74.3889908 L5.53390805,99.9841743 C5.53390805,99.9841743 9.05413793,100.10906 11.4116092,99.4036697 L11.4116092,99.4036697 C13.5332184,89.7604358 16.9904598,73.4482798 15.3402299,59.8067661 L15.3402299,59.8067661 C14.6329885,44.9892202 21.2336782,26.4087156 21.2336782,26.4087156 L21.2336782,26.4087156 C21.2336782,26.4087156 26.8914943,45.2244266 30.8990805,54.6325688 L30.8990805,54.6325688 C34.9065517,64.0402523 42.5364368,93.5129587 43.2435632,95.6299312 L43.2435632,95.6299312 C47.9329885,96.0538991 49.935977,94.8167431 49.935977,94.8167431 L49.935977,94.8167431 C49.935977,94.8167431 46.9290805,63.0995413 44.1003448,51.1043578 L44.1003448,51.1043578 C41.2714943,39.109289 41.5072414,10.1801606 36.7922989,1.94805046 L36.7922989,1.94805046 C33.1204598,0.482683486 28.1204598,0.00355504587 23.1526437,0.00355504587 L23.1526437,0.00355504587 C13.768046,0.00355504587 4.4962069,1.71295872 4.4962069,1.71295872" id="Fill-175" fill="#F7941D" mask="url(#mask-32)"></path>
                    </g>
                    <g id="Group-193" transform="translate(170.000000, 114.000000)">
                        <path d="M9.15642286,56.0434329 C9.15642286,56.0434329 4.70270857,60.0153949 4.70270857,76.3709013 C4.70270857,92.7262937 6.81230857,128.241091 6.81230857,128.241091 L10.1879657,153.667914 C10.1879657,153.667914 13.68808,153.791977 16.03208,153.091116 C18.14168,143.511357 21.5790514,127.306572 19.93848,113.754851 C19.2351657,99.034838 25.7980229,80.5766354 25.7980229,80.5766354 C25.7980229,80.5766354 31.4235086,99.2686101 35.4081943,108.614711 C39.3927657,117.960471 46.9791657,147.239294 47.6823657,149.342218 C52.3446514,149.763395 54.3363086,148.534382 54.3363086,148.534382 C54.3363086,148.534382 51.3465943,117.025952 48.5341371,105.109724 C45.7212229,93.1937241 45.9557371,64.4549013 41.2679657,56.2769772 C30.7204229,52.071357 9.15642286,56.0434329 9.15642286,56.0434329" id="Fill-178" fill="#F7941D"></path>
                        <g id="Group-182" transform="translate(4.685714, 54.341772)">
                            <mask id="mask-34" fill="white">
                                <use xlink:href="#path-33"></use>
                            </mask>
                            <g id="Clip-181"></g>
                            <path d="M27.6053714,31.6696329 C28.9940571,40.6674684 31.7713143,45.5124304 38.7146286,51.7416835 C44.2693714,55.894443 40.1034286,64.8923924 42.1864,71.8137342 C42.8808,73.89 44.9637714,75.9664937 45.6580571,78.0428734 C48.2419429,83.1941772 45.8285714,89.4950886 47.0001143,94.9492025 C48.8233143,94.6982278 49.6506286,94.1926329 49.6506286,94.1926329 C49.6506286,94.1926329 46.6609143,62.6842025 43.8483429,50.7679747 C41.0355429,38.8519747 41.2700571,10.113038 36.5821714,1.93522785 C26.0346286,-2.27039241 4.47074286,1.70168354 4.47074286,1.70168354 C4.47074286,1.70168354 0.0170285714,5.67364557 0.0170285714,22.0291519 C0.0170285714,23.3562532 0.0312,24.8108354 0.0568,26.361 C4.68011429,30.4398228 14.136,31.3460886 19.9676571,26.8247848 C20.32,26.5613924 20.6949714,26.399962 21.0820571,26.3214684 C21.1,26.2697468 21.1123429,26.2348861 21.1123429,26.2348861 C21.1123429,26.2348861 21.1220571,26.2672405 21.1369143,26.3157722 C23.7908571,25.8330759 27.0032,29.2685696 27.6053714,31.6696329" id="Fill-180" fill="#000000" opacity="0.100000001" mask="url(#mask-34)"></path>
                        </g>
                        <path d="M49.4182514,160.840094 C49.4182514,160.840094 48.7333371,160.840094 48.7902514,161.722094 C48.8475086,162.60398 48.4820229,165.638119 51.9638514,165.780296 C55.4460229,165.922473 55.9829371,165.534676 56.0971086,165.534676 C56.21128,165.534676 55.1837371,162.632347 55.1837371,162.632347 L54.0705943,161.210005 L51.0735657,160.897056 L49.4182514,160.840094 Z" id="Fill-183" fill="#26264F"></path>
                        <path d="M57.13912,163.885568 C57.0648343,163.152809 56.6536343,161.999556 56.23992,161.07153 C55.6250629,159.692708 56.1298629,159.176859 55.5422057,157.921075 C55.33912,157.48691 55.14152,157.075189 54.7124914,156.667113 C54.61352,156.573239 53.65272,155.688163 52.25352,155.733049 C51.9782057,155.742049 51.5542057,155.760505 51.0958057,156.003847 C50.55592,156.290708 50.28552,156.721568 50.0544343,157.099796 C49.6913486,157.694252 49.7747771,157.87653 49.2155771,159.579923 C49.1704343,159.716518 49.0720343,160.013859 48.9963771,160.423872 C48.93832,160.737733 48.9150057,161.001353 48.9046057,161.181467 C49.8179771,161.181467 53.32872,161.323758 54.0705486,161.864328 C54.8128343,162.404897 55.1838057,163.315378 55.1838057,164.225859 C55.1838057,165.136341 55.6406057,165.5631 56.0971771,165.534733 C56.5051771,165.5091 57.3156914,164.756062 57.13912,163.885568" id="Fill-185" fill="#444B8C"></path>
                        <path d="M14.9616686,160.185387 C15.7458971,160.19779 16.3213257,160.819929 16.7552686,162.319511 C17.1893257,163.819208 19.2722971,165.145853 16.84224,164.828689 C14.4119543,164.51141 12.6471543,167.943144 11.7793829,169.212258 C10.9113829,170.481144 8.58155429,171.608537 8.63938286,170.368473 C8.69721143,169.12841 9.72532571,168.548878 10.0144686,167.279992 C10.3037257,166.010992 13.17264,160.157575 14.9616686,160.185387" id="Fill-187" fill="#444B8C"></path>
                        <path d="M56.1805257,58.0175316 C56.7572114,56.4192911 60.3562971,45.9205063 54.5392686,36.3459873 C49.7770971,28.5080127 41.53664,25.9507595 40.3618971,25.605 C33.2095543,23.4994557 29.6248686,26.2044684 27.3680686,23.7148861 C23.5385829,19.4902405 27.8765257,5.10037975 36.2672686,2.21798734 C45.7255543,-1.03101266 57.0719543,11.4622405 61.6700114,19.667962 C67.7021257,30.433557 66.21744,41.1333038 65.8684114,43.3369367 C64.96144,49.0633291 62.85264,53.4312911 61.2898971,56.1130633 L56.1805257,58.0175316 Z" id="Fill-189" fill="#FFFFFF"></path>
                        <path d="M31.4810857,0.186550633 C23.0384571,-0.150094937 16.5276,-0.0166898734 12.8497714,3.64710759 C8.96497143,7.51687975 12.8908,11.8857532 12.0472571,22.0083608 C10.7559429,37.506019 0.849085714,41.2923987 0.1036,57.014943 C-0.147714286,62.3125253 0.7516,66.6424367 1.45011429,69.2499304 C3.62428571,71.9491329 7.18302857,75.7582975 12.4349143,78.9432722 C20.0774286,83.5783861 24.5092,82.7702089 35.4849714,85.7645886 C53.438,90.6624114 55.0352571,96.4953228 63.9374286,95.0092975 C72.9343429,93.5074367 80.8278286,85.9599684 79.8743429,81.8154114 C79.3032571,79.3333481 75.6764,80.0364873 71.5007429,76.2505633 C66.1189143,71.3716519 68.1943429,66.7142089 64.1026857,61.4711962 C58.2255429,53.9401329 50.0375429,58.5440316 45.0290857,52.0170949 C39.9629143,45.4145127 41.9724,32.4041582 46.2429143,25.3123861 C49.0321714,20.6803481 50.2266857,15.2522089 52.6002857,10.3953987 C52.7975429,9.99199367 53.0264571,9.33020886 52.9256571,8.50300633 C52.5405143,5.34001899 47.2509143,3.62420886 43.2448571,2.36557595 C37.1348,0.445841772 32.1754857,0.214006329 31.4810857,0.186550633" id="Fill-191" fill="#FFFFFF"></path>
                    </g>
                    <g id="Group-196" transform="translate(195.000000, 113.000000)">
                        <mask id="mask-36" fill="white">
                            <use xlink:href="#path-35"></use>
                        </mask>
                        <g id="Clip-195"></g>
                        <path d="M0.0256722689,0.54547619 C0.0256722689,0.54547619 1.83769748,4.84178571 6.73498319,4.94845238 L6.73498319,4.94845238 C10.5297815,5.03107143 12.9157731,1.78297619 12.9157731,1.78297619 L12.9157731,1.78297619 L11.8282521,0.919166667 C11.8282521,0.919166667 9.9917563,2.65345238 7.15131092,2.65345238 L7.15131092,2.65345238 C2.03368067,2.36011905 1.61735294,0.0117857143 1.61735294,0.0117857143 L1.61735294,0.0117857143 L0.0256722689,0.54547619 Z" id="Fill-194" mask="url(#mask-36)"></path>
                    </g>
                    <g id="Group-199" transform="translate(197.000000, 100.000000)">
                        <mask id="mask-38" fill="white">
                            <use xlink:href="#path-37"></use>
                        </mask>
                        <g id="Clip-198"></g>
                        <path d="M6.71357895,0.152593985 C6.148,0.267857143 5.81273684,0.408947368 4.16568421,1.81161654 L4.16568421,1.81161654 C3.77231579,2.14691729 1.96947368,3.71221805 1.67410526,6.15552632 L1.67410526,6.15552632 C1.45642105,7.95552632 3.09073684,9.8737218 3.36336842,10.2278571 L3.36336842,10.2278571 C3.06294737,10.6804511 2.76284211,11.1329323 2.46231579,11.5853008 L2.46231579,11.5853008 C0.540421053,12.0318045 0.0410526316,12.4864286 0.0192631579,12.8551128 L0.0192631579,12.8551128 C-0.0345263158,13.7657143 2.776,14.9859023 5.42305263,14.913609 L5.42305263,14.913609 C7.53389474,14.8559774 9.81136842,13.9687218 9.77589474,13.2733083 L9.77589474,13.2733083 C9.75936842,12.952218 9.24431579,12.5502632 7.16410526,12.1584586 L7.16410526,12.1584586 C7.25810526,11.7161278 7.35178947,11.2736842 7.44568421,10.8312406 L7.44568421,10.8312406 C9.83221053,5.60672932 10.412,1.40605263 9.62473684,0.812706767 L9.62473684,0.812706767 C9.37821053,0.627180451 8.02284211,0.0603383459 7.57063158,0.0310150376 L7.57063158,0.0310150376 C7.52778947,0.0281954887 7.48621053,0.0271804511 7.48621053,0.0271804511 L7.48621053,0.0271804511 L6.71357895,0.152593985 Z" id="Fill-197" fill="#FFB48D" mask="url(#mask-38)"></path>
                    </g>
                    <g id="Group-202" transform="translate(201.000000, 106.000000)">
                        <mask id="mask-40" fill="white">
                            <use xlink:href="#path-39"></use>
                        </mask>
                        <g id="Clip-201"></g>
                        <path d="M1.14171429,0.1423 C0.410761905,0.6015 -0.315904762,1.4538 0.20552381,1.8361 L0.20552381,1.8361 C0.727142857,2.2186 1.58704762,1.8173 1.84285714,1.1759 L1.84285714,1.1759 C2.05380952,0.6472 1.80952381,0.0556 1.41285714,0.0556 L1.41285714,0.0556 C1.32838095,0.0556 1.23704762,0.0824 1.14171429,0.1423" id="Fill-200" fill="#FFB48D" mask="url(#mask-40)"></path>
                    </g>
                    <g id="Group-209" transform="translate(152.000000, 86.000000)">
                        <path d="M134.121248,19.4509253 C125.553462,10.1465521 105.618146,12.6981454 94.5609126,20.1706524 C89.4229339,23.6430897 86.785814,27.7444602 80.7147779,28.0886774 C76.0994758,28.3503237 68.7573543,26.6137053 64.8905751,21.6103348 C64.4036186,20.9800312 62.4552221,18.3363877 59.5293748,15.0025967 C58.2395735,13.532878 56.9568477,12.1536106 54.9685086,11.8417136 C54.4632927,11.762683 52.7829676,11.4889309 51.6719947,12.574917 C50.7718042,13.4548752 50.5510932,14.9850089 50.8171104,16.0877833 C50.9765382,16.7472095 51.1824134,16.816761 51.15297,17.2485744 C51.0705743,18.4614435 48.8628937,18.9896468 48.9859167,19.6006496 C49.073562,20.0371454 50.2225374,19.877371 50.4204241,20.4252178 C50.637369,21.0257136 49.3754134,21.542268 48.8332221,23.0523014 C47.8175406,23.7327415 47.1758354,25.4260758 46.9537549,27.6919253 C46.6273674,31.0227471 46.9617434,33.7290897 47.5923789,35.7674407 C50.6288099,45.5814017 52.8009988,52.6010813 58.0574356,56.5210925 C65.0169076,61.7109616 71.2834339,56.919215 88.9865333,56.1613432 C113.227312,55.1236663 119.271301,63.3463933 127.983679,57.7211705 C138.862198,50.697151 143.016792,29.1108223 134.121248,19.4509253" id="Fill-203" fill="#4A2009"></path>
                        <path d="M6.97383998,0.459645404 C6.75769384,2.48943092 6.02663144,11.4685451 12.2155551,19.0500047 C17.9984344,26.1340967 26.1882505,27.5491106 27.7105173,27.7793501 C35.0740937,28.8928599 38.249753,25.7169017 40.8228507,27.8809936 C45.189482,31.5530632 42.8693917,46.4357206 34.9641947,50.4445841 C26.0533589,54.9634922 13.1182562,44.1072861 7.44630304,36.5865841 C0.00466756979,26.7198599 0.00774885057,15.8916343 0.0513432677,13.6555925 C0.16409532,7.84489889 1.65189745,3.21909387 2.83020205,0.342469916 C3.3143055,0.196628691 4.05107397,0.0352554318 4.95445985,0.066662117 C5.81527841,0.0966983287 6.51005016,0.290620334 6.97383998,0.459645404" id="Fill-205" fill="#FFFFFF"></path>
                        <path d="M82.6028498,116.715465 C80.4470945,114.503864 82.8201372,110.043772 79.6359188,106.728139 C76.680514,103.650741 73.3345855,106.136894 68.5769738,103.489025 C62.4747825,100.092763 64.1561347,93.875039 58.3271503,90.5323398 C54.1355814,88.1285292 52.1658441,90.7130139 45.6498482,89.4526351 C39.144808,88.1945404 31.2220362,83.7065822 27.3083531,75.6862284 C25.6452603,72.2782033 25.0323137,68.8903928 24.9509451,65.8621031 C22.025326,71.0928579 18.9907209,76.1058217 18.5911815,84.5655265 C18.3402283,89.8762256 19.2382505,94.2168579 19.935647,96.8308078 C22.1066947,99.5366936 25.6603244,103.355404 30.9046643,106.548265 C38.5361979,111.194627 42.961716,110.384563 53.9217177,113.386471 C71.8489516,118.296421 73.4437998,124.14366 82.3332948,122.653955 C88.0749763,121.691769 93.3541232,118.254393 96.177147,114.813819 C87.8921536,118.504618 84.1673416,118.320747 82.6028498,116.715465" id="Fill-207" fill="#BDE3FF" opacity="0.200000003"></path>
                    </g>
                </g>
            </g>
        </g>
    </g>
</svg>