<?xml version="1.0" encoding="UTF-8"?>
<svg width="327px" height="314px" viewBox="0 0 327 314" version="1.1" xmlns="http://www.w3.org/2000/svg" xmlns:xlink="http://www.w3.org/1999/xlink">
    <title>5FCF78F1-BFD7-45B1-88FC-2939DA655877@1x</title>
    <defs>
        <path d="M0.41192065,0.811595238 C-0.260110899,1.67216402 -0.0921912046,2.90109392 0.790092734,3.57930688 L0.790092734,3.57930688 L64.1302715,52.276787 C65.2031702,53.1021561 65.1783585,54.6801402 64.0800602,55.4505317 L64.0800602,55.4505317 L55.1926635,61.6839458 C53.8700019,62.6113823 54.1609216,64.5992844 55.7018317,65.1653056 L55.7018317,65.1653056 L120.105149,88.8214114 C122.098314,89.5538955 123.769044,87.2594378 122.391467,85.6816892 L122.391467,85.6816892 L77.3552409,34.1201984 C76.1842715,32.778959 73.9368757,33.4184405 73.7330908,35.1499378 L73.7330908,35.1499378 L72.6871205,44.0532341 C72.5109694,45.5496349 70.7434618,46.3058995 69.4604283,45.4334405 L69.4604283,45.4334405 L3.23997992,0.397203704 C2.87521319,0.149157407 2.45682505,0.0295489418 2.04325813,0.0295489418 L2.04325813,0.0295489418 C1.42179063,0.0295489418 0.811494264,0.299962963 0.41192065,0.811595238" id="path-1"></path>
        <linearGradient x1="-754.203971%" y1="286.759695%" x2="-620.417572%" y2="247.372509%" id="linearGradient-3">
            <stop stop-color="#FF918E" offset="0%"></stop>
            <stop stop-color="#FD7062" offset="100%"></stop>
        </linearGradient>
        <path d="M17.2653453,1.52338807 L0.116996997,66.4941262 C-0.329249249,68.183841 1.57897898,69.5602973 3.19183183,68.7126776 L3.19183183,68.7126776 L11.4834835,64.355153 C12.8771171,63.6226102 14.5954354,64.5578012 14.6198198,66.062382 L14.6198198,66.062382 L14.4735135,134.015717 C14.4910511,135.08632 15.4037237,135.951806 16.5387387,135.974939 L16.5387387,135.974939 C17.6851652,135.997179 18.640961,135.152733 18.6911712,134.072844 L18.6911712,134.072844 L23.7285285,66.2329404 C23.7897898,64.9187831 25.1619219,64.0214417 26.4886486,64.4283838 L26.4886486,64.4283838 L37.221021,67.718949 C38.8183784,68.2089957 40.3527928,66.8281901 39.9087087,65.3011582 L39.9087087,65.3011582 L21.3477477,1.47789801 C21.0634234,0.499920484 20.1890691,0.0144580599 19.3144745,0.0144580599 L19.3144745,0.0144580599 C18.4224625,0.0144580599 17.5303303,0.519903198 17.2653453,1.52338807" id="path-4"></path>
        <linearGradient x1="-132.773396%" y1="409.72016%" x2="-99.0709561%" y2="343.226125%" id="linearGradient-6">
            <stop stop-color="#FF918E" offset="0%"></stop>
            <stop stop-color="#FD7062" offset="100%"></stop>
        </linearGradient>
        <path d="M0.0172621951,9.51358861 C0.0172621951,14.7345 4.24870122,18.9665696 9.46860366,18.9665696 L9.46860366,18.9665696 C14.6885061,18.9665696 18.9197134,14.7345 18.9197134,9.51358861 L18.9197134,9.51358861 C18.9197134,4.29327848 14.6885061,0.0607278481 9.46860366,0.0607278481 L9.46860366,0.0607278481 C4.24870122,0.0607278481 0.0172621951,4.29327848 0.0172621951,9.51358861" id="path-7"></path>
        <linearGradient x1="-3930.73765%" y1="-7440.41533%" x2="-4377.48704%" y2="-8281.04806%" id="linearGradient-9">
            <stop stop-color="#FF918E" offset="0%"></stop>
            <stop stop-color="#FD7062" offset="100%"></stop>
        </linearGradient>
        <linearGradient x1="50%" y1="-2.48949813e-15%" x2="50%" y2="100%" id="linearGradient-10">
            <stop stop-color="#2C94E0" offset="0%"></stop>
            <stop stop-color="#57C6F2" offset="100%"></stop>
        </linearGradient>
        <linearGradient x1="50%" y1="-2.48949813e-15%" x2="50%" y2="100%" id="linearGradient-11">
            <stop stop-color="#57C6F2" offset="0%"></stop>
            <stop stop-color="#2C94E0" offset="100%"></stop>
        </linearGradient>
        <path d="M7.12979104,0.15342623 C6.25468657,0.815557377 5.89910448,1.84444262 5.4679403,2.80390164 L5.4679403,2.80390164 C4.96561194,3.92183607 4.4841791,5.04860656 4.05623881,6.19522951 L4.05623881,6.19522951 C3.60525373,7.40381967 3.22077612,8.63432787 2.928,9.88377049 L2.928,9.88377049 C2.34746269,8.39139344 1.67259701,6.93780328 0.816716418,5.55834426 L0.816716418,5.55834426 C0.58961194,5.19227869 -0.0520597015,5.40640984 0.0752238806,5.84132787 L0.0752238806,5.84132787 C0.815283582,8.36981967 1.72585075,10.8467869 2.42304478,13.3880164 L2.42304478,13.3880164 C2.66889552,14.2847049 3.94507463,14.0728689 4.0401194,13.2112951 L4.0401194,13.2112951 C4.29958209,10.8576885 4.89074627,8.60644262 5.73026866,6.38365574 L5.73026866,6.38365574 C6.12955224,5.327 6.57492537,4.2867541 7.03665672,3.25396721 L7.03665672,3.25396721 C7.44537313,2.3394918 7.94519403,1.48709836 7.88346269,0.471639344 L7.88346269,0.471639344 C7.86758209,0.206672131 7.66531343,0.045442623 7.43976119,0.045442623 L7.43976119,0.045442623 C7.336,0.045442623 7.22746269,0.0795245902 7.12979104,0.15342623" id="path-12"></path>
        <linearGradient x1="113.344636%" y1="-314.965257%" x2="20.5178064%" y2="184.541828%" id="linearGradient-14">
            <stop stop-color="#FF918E" offset="0%"></stop>
            <stop stop-color="#FD7062" offset="100%"></stop>
        </linearGradient>
        <path d="M10.9408125,0.102653631 C7.18690104,1.42107821 3.99169792,4.02191061 2.01238021,7.42520112 L2.01238021,7.42520112 C0.191666667,10.5557263 -0.90059375,14.9714749 1.48278125,18.1139665 L1.48278125,18.1139665 C3.9488125,21.3656816 8.63003125,21.4239888 12.1570573,20.0683743 L12.1570573,20.0683743 C16.0366302,18.577257 20.8672292,15.8108883 22.4115833,11.796486 L22.4115833,11.796486 C24.0297292,7.59085475 22.0329219,2.45265922 17.2607813,1.57828492 L17.2607813,1.57828492 C16.4972292,1.43832402 16.2195521,2.39552514 16.9196146,2.69715084 L16.9196146,2.69715084 C21.5530365,4.69367598 22.1587031,10.319095 18.811724,13.7254358 L18.811724,13.7254358 C17.2634167,15.3007877 15.2094687,16.5235978 13.2644115,17.5748883 L13.2644115,17.5748883 C11.2916823,18.6408436 9.08943229,19.4553855 6.80033333,19.2302514 L6.80033333,19.2302514 C1.49380208,18.708067 0.772416667,13.4187654 2.35905729,9.33725698 L2.35905729,9.33725698 C3.88496354,5.41154749 7.153,2.38109497 11.1540417,0.928340782 L11.1540417,0.928340782 C11.6190729,0.759519553 11.503474,0.0755530726 11.0898333,0.0755530726 L11.0898333,0.0755530726 C11.0437135,0.0755530726 10.994,0.084 10.9408125,0.102653631" id="path-15"></path>
        <linearGradient x1="129.686778%" y1="-171.422418%" x2="28.8050489%" y2="112.179192%" id="linearGradient-17">
            <stop stop-color="#FF918E" offset="0%"></stop>
            <stop stop-color="#FD7062" offset="100%"></stop>
        </linearGradient>
        <path d="M0.0301094225,31.6439269 C0.0301094225,31.6439269 4.03430699,42.696658 7.12490881,43.9616292 L7.12490881,43.9616292 C7.12490881,43.9616292 32.4072219,23.5175979 38.9043374,3.80031332 L38.9043374,3.80031332 L37.8616505,0.0359582245 C37.8616505,0.0359582245 20.5800274,26.5270601 0.0301094225,31.6439269" id="path-18"></path>
        <path d="M3.17916667,0.0353142857 C1.6827381,1.54937143 0.64452381,4.12171429 0.0772619048,5.83554286 L0.0772619048,5.83554286 C-0.233928571,6.77531429 0.429285714,7.76834286 1.45083333,7.872 L1.45083333,7.872 C3.77833333,8.10822857 6.15714286,7.9416 7.63964286,7.77908571 L7.63964286,7.77908571 C8.5175,7.68285714 9.20833333,7.01691429 9.31488095,6.17474286 L9.31488095,6.17474286 L9.87738095,1.73554286 C9.99190476,0.831771429 9.2572619,0.0353142857 8.30880952,0.0353142857 L8.30880952,0.0353142857 L3.17916667,0.0353142857 Z" id="path-20"></path>
        <linearGradient x1="100.000616%" y1="50.0005305%" x2="-4.37303748e-05%" y2="50.0005305%" id="linearGradient-22">
            <stop stop-color="#08005D" offset="0%"></stop>
            <stop stop-color="#1A0E90" offset="100%"></stop>
        </linearGradient>
        <path d="M3.64392241,4.19414343 L1.14881897,9.19278884 C0.291043103,10.9115139 -0.084387931,12.8575697 0.0675775862,14.798008 L0.0675775862,14.798008 L2.6537931,47.8288446 L0.679362069,50.7242629 L0.919525862,52.2940637 L12.9813966,59.8850199 L8.23538793,51.6653785 C7.32538793,50.089243 6.87677586,48.2621116 6.95298276,46.412988 L6.95298276,46.412988 C7.43846552,34.6188048 10.1679052,5.13358566 10.1679052,5.13358566 L10.1679052,5.13358566 L9.35282759,0.0203187251 L3.64392241,4.19414343 Z" id="path-23"></path>
        <path d="M0.134111111,4.65052427 L1.411,11.9998835 L2.41891111,11.9998835 C2.41891111,11.9998835 2.18897037,6.08551456 3.98706667,6.19666019 L3.98706667,6.19666019 C5.32288889,6.27914563 8.11642963,9.4416699 9.46484444,11.0626019 L9.46484444,11.0626019 C9.9586,11.6560777 10.721963,11.9998835 11.5315407,11.9998835 L11.5315407,11.9998835 L15.8567185,11.9998835 C17.2434148,11.9998835 17.4341926,10.1303301 16.0694074,9.90221359 L16.0694074,9.90221359 C15.1496444,9.74831068 14.3116074,9.85887379 14.3116074,9.85887379 L14.3116074,9.85887379 C14.3116074,9.85887379 7.47042963,5.40361165 5.24166667,4.15957282 L5.24166667,4.15957282 C3.01277778,2.91565049 2.60162963,0.103106796 2.60162963,0.103106796 L2.60162963,0.103106796 C0.806933333,0.969553398 -0.187125926,2.80147573 0.134111111,4.65052427" id="path-25"></path>
        <linearGradient x1="100.000127%" y1="50.0004907%" x2="0.000280352356%" y2="50.0004907%" id="linearGradient-27">
            <stop stop-color="#08005D" offset="0%"></stop>
            <stop stop-color="#1A0E90" offset="100%"></stop>
        </linearGradient>
        <path d="M21.3849035,2.21081649 C14.4932432,7.65324948 12.7044788,13.5613567 11.1220077,19.0079753 L11.1220077,19.0079753 C9.53942085,24.4544742 6.65374517,40.1198557 5.3123166,43.5766557 L5.3123166,43.5766557 C4.18876448,46.4717526 1.15494208,52.855101 0.198880309,54.8525732 L0.198880309,54.8525732 C-0.0705405405,55.4157113 -0.053976834,56.0842062 0.265830116,56.6185237 L0.265830116,56.6185237 C0.640772201,57.2446845 1.40629344,57.8916536 2.96965251,57.8916536 L2.96965251,57.8916536 C5.99872587,57.8916536 7.09760618,57.0167505 7.15262548,56.1045361 L7.15262548,56.1045361 C7.18783784,55.5208289 8.10822394,49.3560866 10.735251,41.9666474 L10.735251,41.9666474 C13.362278,34.5769691 29.8885714,2.21081649 29.8885714,2.21081649 L29.8885714,2.21081649 C28.630888,0.616115464 27.2671042,0.0847876087 26.0071042,0.0847876087 L26.0071042,0.0847876087 C23.4876834,0.0847876087 21.3849035,2.21081649 21.3849035,2.21081649" id="path-28"></path>
        <path d="M0.0859302326,9.70634 C0.0859302326,9.70634 10.9273256,20.03916 6.64790698,38.3081743 L6.64790698,38.3081743 C14.5474419,43.0880714 21.512907,39.7669543 21.512907,39.7669543 L21.512907,39.7669543 C21.512907,39.7669543 29.045814,19.7154943 29.8727907,15.6969086 L29.8727907,15.6969086 C31.2836047,8.84077143 19.3904651,0.08118 19.3904651,0.08118 L19.3904651,0.08118 C19.3904651,0.08118 6.92662791,3.09128286 0.0859302326,9.70634" id="path-30"></path>
        <linearGradient x1="5.27672696e-05%" y1="49.9999591%" x2="99.9998866%" y2="49.9999591%" id="linearGradient-32">
            <stop stop-color="#DAE2FD" offset="0%"></stop>
            <stop stop-color="#E8EFFD" offset="100%"></stop>
        </linearGradient>
        <path d="M3.81823596,1.63929114 L0.11988764,17.8021582 C-0.234337079,19.2259557 1.09962921,18.9929051 2.57906742,18.7214937 L2.57906742,18.7214937 C5.00178652,18.277038 8.12417978,17.3617911 9.16794382,15.5278101 L9.16794382,15.5278101 C9.27423596,15.341057 9.32725843,15.1300127 9.35729213,14.9187278 L9.35729213,14.9187278 L10.9461124,3.71089241 C11.0721798,2.82174051 10.5781685,1.95868354 9.7348764,1.59479747 L9.7348764,1.59479747 L6.6687191,0.272253165 C6.39421348,0.153803797 6.10957303,0.0982468354 5.83061798,0.0982468354 L5.83061798,0.0982468354 C4.91007865,0.0982468354 4.05121348,0.702037975 3.81823596,1.63929114" id="path-33"></path>
        <path d="M0.861875,13.0730962 C3.99503125,17.8714487 7.6111875,18.7302244 10.105375,18.8772308 L10.105375,18.8772308 C12.5992344,19.024359 15.0323906,16.6252436 13.5352656,9.93687821 L13.5352656,9.93687821 C12.0380313,3.24826923 8.55378125,0.62200641 8.55378125,0.62200641 L8.55378125,0.62200641 C7.98164063,0.219839744 7.38346875,0.0387307079 6.78004688,0.0387307079 L6.78004688,0.0387307079 C2.56735938,0.0395833333 -1.87873437,8.87604487 0.861875,13.0730962" id="path-35"></path>
        <path d="M0.652852941,0.3618 C-1.1715,1.75056 1.31047059,4.90008 2.30558824,5.97156 L2.30558824,5.97156 L2.98579412,3.83124 C2.98579412,3.83124 2.5965,0.1122 1.27720588,0.1122 L1.27720588,0.1122 C1.08855882,0.1122 0.881029412,0.18816 0.652852941,0.3618" id="path-37"></path>
        <linearGradient x1="85.1198022%" y1="330.993467%" x2="-10.332984%" y2="-447.473401%" id="linearGradient-39">
            <stop stop-color="#FDBABA" offset="0%"></stop>
            <stop stop-color="#FF918E" offset="100%"></stop>
        </linearGradient>
        <path d="M1.30734783,8.40194203 C0.544304348,9.13984058 0.23366087,13.889 0.0586695652,14.9735507 L0.0586695652,14.9735507 C0.695104348,17.4716884 2.69461739,17.0666449 2.64476522,16.4807609 L2.64476522,16.4807609 C2.64476522,16.4807609 4.45312174,16.8898696 6.10683478,15.2265797 L6.10683478,15.2265797 C6.98054783,14.3478768 7.94978261,13.1903986 8.66975652,12.2938333 L8.66975652,12.2938333 C9.38701739,11.4007174 9.78617391,10.2476739 9.73903478,9.07011594 L9.73903478,9.07011594 C9.67674783,7.51498551 9.126,6.31081884 8.74854783,4.94872464 L8.74854783,4.94872464 L12.3662783,2.28834783 C12.3662783,2.28834783 13.429113,1.40003623 12.6187043,0.0514927536 L12.6187043,0.0514927536 C12.6187043,0.0514927536 5.37148696,4.47223188 1.30734783,8.40194203" id="path-40"></path>
        <path d="M1.57536,1.96155224 L0.114,4.23916418 L0.64896,4.57958209 L2.0214,2.44131343 L5.1288,0.787701493 C5.25288,0.92 5.3184,1.04967164 5.32596,1.18113433 L5.32596,1.18113433 C5.34096,1.4238806 5.1774,1.72513433 4.83876,2.07665672 L4.83876,2.07665672 C3.9474,3.00358209 2.10456,7.45946269 2.02656,7.64859701 L2.02656,7.64859701 L2.61348,7.88883582 C3.13248,6.63020896 4.62648,3.2118209 5.29812,2.51402985 L5.29812,2.51402985 C5.77032,2.02292537 5.98656,1.57444776 5.9598,1.14232836 L5.9598,1.14232836 C5.93796,0.779462687 5.74752,0.457791045 5.37948,0.158328358 L5.37948,0.158328358 L5.2152,0.0251940299 L1.57536,1.96155224 Z" id="path-42"></path>
        <linearGradient x1="2.50341652e-05%" y1="49.9996515%" x2="99.9987691%" y2="49.9996515%" id="linearGradient-44">
            <stop stop-color="#FDBABA" offset="0%"></stop>
            <stop stop-color="#FF918E" offset="100%"></stop>
        </linearGradient>
        <path d="M32.5363699,0.0276 L1.40983562,0.05072 C0.640410959,0.05112 0.0172328767,0.47568 0.0180471466,0.9988 L0.0180471466,0.9988 C0.0189794521,1.5056 0.605130137,1.91904 1.34125342,1.94384 L1.34125342,1.94384 C1.36512329,1.94456 1.38899315,1.94504 1.41297945,1.94488 L1.41297945,1.94488 L32.5393973,1.92184 C33.3088219,1.92136 33.932,1.4968 33.9311857,0.97384 L33.9311857,0.97384 C33.9303699,0.45608 33.3169726,0.02752 32.5607055,0.02744 L32.5607055,0.02744 C32.5525548,0.02744 32.5445205,0.02752 32.5363699,0.0276" id="path-45"></path>
        <linearGradient x1="50%" y1="-2.48949813e-15%" x2="50%" y2="100%" id="linearGradient-47">
            <stop stop-color="#57C6F2" offset="0%"></stop>
            <stop stop-color="#2C94E0" offset="100%"></stop>
        </linearGradient>
        <path d="M16.3293995,0.0179294606 C14.4425692,0.0179294606 12.7251906,1.14640249 11.9205535,2.91492116 L11.9205535,2.91492116 L0.096616188,28.8983195 L31.8809295,28.8983195 C33.096846,28.8983195 34.1891488,28.1284357 34.6360418,26.9566432 L34.6360418,26.9566432 L43.8048146,2.91275519 C44.3346527,1.52352282 43.3466632,0.0179294606 41.9053473,0.0179294606 L41.9053473,0.0179294606 L16.3293995,0.0179294606 Z" id="path-48"></path>
        <linearGradient x1="50%" y1="-2.48949813e-15%" x2="50%" y2="100%" id="linearGradient-50">
            <stop stop-color="#57C6F2" offset="0%"></stop>
            <stop stop-color="#2C94E0" offset="100%"></stop>
        </linearGradient>
        <path d="M0.763139535,27.0155644 C3.11395349,30.7846337 11.117907,35.9151683 18.7396512,35.9219406 L18.7396512,35.9219406 L29.9848837,35.9219406 C25.2596512,30.7921188 22.0060465,29.4908911 18.1309302,33.0781782 L18.1309302,33.0781782 C15.0562791,31.7358416 11.0695349,26.5356832 8.40848837,24.2139802 L8.40848837,24.2139802 C7.36360465,23.3024554 7.11709302,21.7474455 7.81581395,20.5386535 L7.81581395,20.5386535 C9.92976744,16.8818614 12.5810465,13.122297 13.4239535,9.48083168 L13.4239535,9.48083168 C13.605,5.21358416 10.5144186,0.329584158 7.71569767,0.0215049505 L7.71569767,0.0215049505 C3.4744186,4.39461386 -1.90662791,23.7779406 0.763139535,27.0155644" id="path-51"></path>
        <path d="M0.0777087379,8.20310526 C1.85440777,8.55429474 11.9787961,14.5421158 11.9787961,7.69652632 L11.9787961,7.69652632 L11.9787961,0.0495578947 C11.9787961,0.0495578947 -0.432699029,8.10225263 0.0777087379,8.20310526" id="path-53"></path>
        <path d="M6.6359823,0.037173913 C4.48258407,0.464869565 1.95632743,2.62421739 0.327646018,4.22634783 L0.327646018,4.22634783 C0.0436017699,4.5056087 -0.0518849558,4.9503913 0.0877787611,5.34052174 L0.0877787611,5.34052174 C0.227557522,5.7303913 0.573035398,5.98330435 0.953831858,5.97443478 L0.953831858,5.97443478 C4.99223009,5.8796087 12.8931239,5.60752174 12.8931239,4.93252174 L12.8931239,4.93252174 C12.8931239,4.02586957 12.0478938,1.90434783 12.0478938,1.90434783 L12.0478938,1.90434783 C12.0478938,1.90434783 10.0296726,0.00560869565 7.25457522,0.00534782609 L7.25457522,0.00534782609 C7.05209735,0.00534782609 6.84593805,0.0153913043 6.6359823,0.037173913" id="path-55"></path>
        <linearGradient x1="86.0871089%" y1="32.6500019%" x2="12.9016103%" y2="81.0429043%" id="linearGradient-57">
            <stop stop-color="#08005D" offset="0%"></stop>
            <stop stop-color="#1A0E90" offset="100%"></stop>
        </linearGradient>
        <path d="M0.0424038462,4.38531818 C-0.118326923,6.33818182 4.78194231,5.93127273 4.78194231,5.93127273 L4.78194231,5.93127273 L6.95086538,1.78118182 L1.40794231,0.0721363636 C1.40794231,0.0721363636 0.202865385,2.43231818 0.0424038462,4.38531818" id="path-58"></path>
        <polygon id="path-60" points="0.0802622951 4.86423881 3.52380328 7.99952239 7.9064918 4.22304478 4.61940984 0.0903880597"></polygon>
        <path d="M0.0573529412,2.8885 L0.78,14.086125 C0.832218487,14.8945 1.24461345,15.605 1.84632773,15.886 L1.84632773,15.886 C7.10837815,18.342 10.9440336,15.81475 12.4117227,14.543875 L12.4117227,14.543875 C12.8129748,14.1965 12.9854706,13.55875 12.8457479,12.97 L12.8457479,12.97 L9.79752101,0.116125 L0.0573529412,2.8885 Z" id="path-62"></path>
        <path d="M0.0423519553,6.00831658 C0.0423519553,6.00831658 0.684201117,17.2528894 4.72030726,21.0334422 L4.72030726,21.0334422 C8.75641341,24.813995 17.4192067,22.9506482 20.9950726,14.8148894 L20.9950726,14.8148894 L16.5550391,0.0172211055 L0.0423519553,6.00831658 Z" id="path-64"></path>
        <path d="M0.0101463415,4.61447619 L0.267804878,7.93384127 C2.47014634,7.28215873 5.1355122,2.87657143 3.40292683,0.548190476 L3.40292683,0.548190476 C3.136,0.189460317 2.87092683,0.0378412698 2.61326829,0.0378412698 L2.61326829,0.0378412698 C1.19834146,0.0380952381 0.0101463415,4.61447619 0.0101463415,4.61447619" id="path-66"></path>
        <linearGradient x1="25.7117589%" y1="206.377528%" x2="70.9444419%" y2="-88.7413815%" id="linearGradient-68">
            <stop stop-color="#FDBABA" offset="0%"></stop>
            <stop stop-color="#FF918E" offset="100%"></stop>
        </linearGradient>
        <path d="M8.78429299,1.30214286 C5.40640764,0.688428571 2.50509554,2.04628571 0.550031847,3.42642857 L0.550031847,3.42642857 C0.123076433,3.72785714 -0.0821719745,4.32828571 0.0465923567,4.89571429 L0.0465923567,4.89571429 C0.175356688,5.46314286 0.607031847,5.86114286 1.10442038,5.871 L1.10442038,5.871 C4.92983439,5.94571429 11.2115732,6.02114286 14.3934076,5.79642857 L14.3934076,5.79642857 C19.1597452,5.45957143 19.8818662,5.62142857 17.8097771,2.22471429 L17.8097771,2.22471429 C16.8209299,2.23785714 12.660051,0.0801428571 12.660051,0.0801428571 L12.660051,0.0801428571 L8.78429299,1.30214286 Z" id="path-69"></path>
        <linearGradient x1="42.0214903%" y1="42.3768383%" x2="59.866998%" y2="65.3183505%" id="linearGradient-71">
            <stop stop-color="#08005D" offset="0%"></stop>
            <stop stop-color="#1A0E90" offset="100%"></stop>
        </linearGradient>
        <path d="M0.173366834,2.16159924 L9.1179397,28.2484542 C9.40619095,29.0888855 10.1431156,29.682855 11.0085628,29.7724237 L11.0085628,29.7724237 L21.6464673,30.9816603 L22.9545779,30.1347214 L14.9534673,2.81839695 C14.6270754,1.70405344 13.6600352,0.913435115 12.5261005,0.833923664 L12.5261005,0.833923664 L1.72361307,0.0773816794 C1.68709045,0.074778626 1.65079899,0.0734770992 1.61485427,0.0734770992 L1.61485427,0.0734770992 C0.572457286,0.0734770992 -0.179145729,1.13386641 0.173366834,2.16159924" id="path-72"></path>
        <path d="M23.8336047,0.0260714286 L1.0294186,0.734071429 C0.465697674,0.7515 0.031744186,1.04642857 0.0602325581,1.39278571 L0.0602325581,1.39278571 C0.0879069767,1.72821429 0.539418605,1.98892857 1.08011628,1.98892857 L1.08011628,1.98892857 C1.09755814,1.98892857 1.115,1.98871429 1.13255814,1.98807143 L1.13255814,1.98807143 L23.9368605,1.28 C24.5005814,1.26257143 24.9345349,0.967642857 24.9060465,0.621428571 L24.9060465,0.621428571 C24.8787209,0.288857143 24.4332558,0.0246428571 23.9005814,0.0246428571 L23.9005814,0.0246428571 C23.8783721,0.0246428571 23.8561628,0.0251428571 23.8336047,0.0260714286" id="path-74"></path>
        <path d="M6.57839634,0.137086093 C2.77161585,0.520092715 0.00963109756,5.71219868 0.00963109756,5.71219868 L0.00963109756,5.71219868 L7.35601829,5.56116556 C7.35601829,5.56116556 17.5555884,17.968649 38.8789573,17.968649 L38.8789573,17.968649 C39.476561,13.2122384 34.5987073,9.17737748 31.739936,4.8893245 L31.739936,4.8893245 C31.739936,4.8893245 27.1676616,10.7940397 14.0828049,3.16513907 L14.0828049,3.16513907 C14.0828049,3.16513907 10.7679238,0.107046358 7.18408537,0.107046358 L7.18408537,0.107046358 C6.98290244,0.107046358 6.7808872,0.116701987 6.57839634,0.137086093" id="path-76"></path>
        <path d="M12.4462645,0.214795699 C9.85539669,12.0932581 0.226909091,21.3478065 0.13,21.4401828 L0.13,21.4401828 C0.0292231405,21.5359892 0.0179421488,21.7035914 0.10507438,21.8145376 L0.10507438,21.8145376 C0.152561983,21.8755699 0.220033058,21.9066774 0.28761157,21.9066774 L0.28761157,21.9066774 C0.343694215,21.9066774 0.39977686,21.8856237 0.445115702,21.8420968 L0.445115702,21.8420968 C0.543421488,21.749129 10.2876198,12.3864731 12.9153388,0.338870968 L12.9153388,0.338870968 C12.9464959,0.196107527 12.8668843,0.0526344086 12.7372066,0.0184516129 L12.7372066,0.0184516129 C12.7185124,0.0136021505 12.6998182,0.0112365591 12.6813388,0.0112365591 L12.6813388,0.0112365591 C12.5725041,0.0112365591 12.473124,0.0929677419 12.4462645,0.214795699" id="path-78"></path>
        <linearGradient x1="0.000476029087%" y1="50.0000576%" x2="100.000325%" y2="50.0000576%" id="linearGradient-80">
            <stop stop-color="#E1463D" offset="0%"></stop>
            <stop stop-color="#E86059" offset="100%"></stop>
        </linearGradient>
    </defs>
    <g id="Comfortable-Themes" stroke="none" stroke-width="1" fill="none" fill-rule="evenodd">
        <g id="Artboard" transform="translate(-105.000000, -657.000000)">
            <g id="Group-3" transform="translate(104.000000, 643.000000)">
                <g id="Group-268" transform="translate(1.000000, 14.000000)">
                    <g id="Group-38" transform="translate(160.000000, 145.000000)">
                        <mask id="mask-2" fill="white">
                            <use xlink:href="#path-1"></use>
                        </mask>
                        <g id="Clip-37"></g>
                        <path d="M0.41192065,0.811595238 C-0.260110899,1.67216402 -0.0921912046,2.90109392 0.790092734,3.57930688 L0.790092734,3.57930688 L64.1302715,52.276787 C65.2031702,53.1021561 65.1783585,54.6801402 64.0800602,55.4505317 L64.0800602,55.4505317 L55.1926635,61.6839458 C53.8700019,62.6113823 54.1609216,64.5992844 55.7018317,65.1653056 L55.7018317,65.1653056 L120.105149,88.8214114 C122.098314,89.5538955 123.769044,87.2594378 122.391467,85.6816892 L122.391467,85.6816892 L77.3552409,34.1201984 C76.1842715,32.778959 73.9368757,33.4184405 73.7330908,35.1499378 L73.7330908,35.1499378 L72.6871205,44.0532341 C72.5109694,45.5496349 70.7434618,46.3058995 69.4604283,45.4334405 L69.4604283,45.4334405 L3.23997992,0.397203704 C2.87521319,0.149157407 2.45682505,0.0295489418 2.04325813,0.0295489418 L2.04325813,0.0295489418 C1.42179063,0.0295489418 0.811494264,0.299962963 0.41192065,0.811595238" id="Fill-36" fill="url(#linearGradient-3)" mask="url(#mask-2)"></path>
                    </g>
                    <path d="M273.991269,229.979665 C274.649702,230.078531 275.298566,229.813368 275.688584,229.261188 C276.155042,228.600442 276.092606,227.755286 275.53407,227.153907 L265.666445,216.534644 C265.324508,216.166641 264.739597,216.133334 264.363116,216.460435 C263.985118,216.787419 263.957226,217.350233 264.29963,217.719989 L274.167373,228.339369 C259.729344,222.809275 225.861824,210.209995 225.14714,210.030609 C224.665627,209.902293 224.152022,210.189427 224.027501,210.667047 C223.906247,211.138124 224.197185,211.618549 224.679165,211.750605 C225.702992,212.069642 251.659747,221.709473 273.61012,229.880097 C273.736392,229.92731 273.863597,229.960499 273.991269,229.979665" id="Fill-39" fill="#FFFFFF"></path>
                    <g id="Group-43" transform="translate(142.000000, 8.000000)">
                        <mask id="mask-5" fill="white">
                            <use xlink:href="#path-4"></use>
                        </mask>
                        <g id="Clip-42"></g>
                        <path d="M17.2653453,1.52338807 L0.116996997,66.4941262 C-0.329249249,68.183841 1.57897898,69.5602973 3.19183183,68.7126776 L3.19183183,68.7126776 L11.4834835,64.355153 C12.8771171,63.6226102 14.5954354,64.5578012 14.6198198,66.062382 L14.6198198,66.062382 L14.4735135,134.015717 C14.4910511,135.08632 15.4037237,135.951806 16.5387387,135.974939 L16.5387387,135.974939 C17.6851652,135.997179 18.640961,135.152733 18.6911712,134.072844 L18.6911712,134.072844 L23.7285285,66.2329404 C23.7897898,64.9187831 25.1619219,64.0214417 26.4886486,64.4283838 L26.4886486,64.4283838 L37.221021,67.718949 C38.8183784,68.2089957 40.3527928,66.8281901 39.9087087,65.3011582 L39.9087087,65.3011582 L21.3477477,1.47789801 C21.0634234,0.499920484 20.1890691,0.0144580599 19.3144745,0.0144580599 L19.3144745,0.0144580599 C18.4224625,0.0144580599 17.5303303,0.519903198 17.2653453,1.52338807" id="Fill-41" fill="url(#linearGradient-6)" mask="url(#mask-5)"></path>
                    </g>
                    <path d="M175.089341,66 C175.200448,66 175.312589,65.9805069 175.421855,65.9380737 C175.884223,65.7574057 176.114372,65.2421453 175.943802,64.7800155 C175.613013,63.7851529 168.481506,37.5135291 162.464857,15.2838764 C162.251385,14.4978518 161.580492,13.9809273 160.740408,14.0005393 C159.920568,14.0214588 159.253815,14.5720207 159.080484,15.3705258 L156.020575,29.4721389 C155.914874,29.9607745 156.2268,30.4441803 156.718382,30.5486587 C157.204789,30.6565841 157.692691,30.3449317 157.800346,29.8545132 L160.860371,15.7530189 C164.688133,30.4655752 173.976438,64.7500627 174.242357,65.4245962 C174.382678,65.7822475 174.725888,66 175.089341,66" id="Fill-44" fill="#FFFFFF"></path>
                    <g id="Group-48" transform="translate(152.000000, 135.000000)">
                        <mask id="mask-8" fill="white">
                            <use xlink:href="#path-7"></use>
                        </mask>
                        <g id="Clip-47"></g>
                        <path d="M0.0172621951,9.51358861 C0.0172621951,14.7345 4.24870122,18.9665696 9.46860366,18.9665696 L9.46860366,18.9665696 C14.6885061,18.9665696 18.9197134,14.7345 18.9197134,9.51358861 L18.9197134,9.51358861 C18.9197134,4.29327848 14.6885061,0.0607278481 9.46860366,0.0607278481 L9.46860366,0.0607278481 C4.24870122,0.0607278481 0.0172621951,4.29327848 0.0172621951,9.51358861" id="Fill-46" fill="url(#linearGradient-9)" mask="url(#mask-8)"></path>
                    </g>
                    <g id="Group-127" transform="translate(213.000000, 7.000000)">
                        <path d="M97.9475949,60.6884037 C96.5167475,46.3052956 92.9364254,10.5817652 92.1547983,5.36026182 C91.1724254,-1.20235642 83.1033237,0.246005068 83.1033237,0.246005068 L81.3753915,66.6570861 L92.6260525,66.6570861 C94.1381712,66.6570861 95.5801712,66.0074578 96.5935102,64.8685389 C97.6069678,63.7295017 98.0994593,62.2152787 97.9475949,60.6884037" id="Fill-49" fill="url(#linearGradient-10)"></path>
                        <path d="M6.92558644,68.3311385 C3.41241695,68.2568818 0.624755932,65.3581486 0.699264407,61.856848 L1.84667119,7.94230405 C1.91014576,4.96789527 4.30117966,2.56471959 7.28495932,2.47651014 L85.8006373,0.154922297 C88.1355525,0.0858682432 90.0639932,1.95730405 90.0570122,4.28539527 L89.8685864,66.1020169 C89.8619424,68.2895169 88.056061,70.0462568 85.8615017,69.9997872 L6.92558644,68.3311385 Z" id="Fill-51" fill="url(#linearGradient-11)"></path>
                        <path d="M3.85822203,62.9797095 C2.77630678,62.9631554 1.95920508,61.9973446 2.12732373,60.9322095 C3.24222203,53.8672939 6.74257797,29.5659426 5.61984915,9.38891554 C5.56859492,8.46874662 6.28378136,7.68633108 7.20801864,7.65688851 L83.1074763,5.24401689 C84.148222,5.21079054 85.0203746,6.02075676 85.0597644,7.05775 C85.3825949,15.5406385 86.5848153,50.4731216 85.0118322,62.8907905 C84.9160864,63.6466014 84.2640186,64.2080203 83.4998322,64.1964939 L3.85822203,62.9797095 Z" id="Fill-55" fill="#FFFFFF"></path>
                        <path d="M50.5078119,20.4757686 L50.3918966,25.9235895 C50.3742186,26.755076 51.0432525,27.4399409 51.8776763,27.4447889 L57.4845576,27.476266 C58.3008288,27.480853 58.9697441,26.8318159 58.9871847,26.0183024 L59.1090322,20.2910726 C59.1273034,19.4301436 58.4116424,18.7332179 57.5486254,18.7714105 L51.9359305,19.0193666 C51.1492017,19.0541301 50.5245407,19.6912247 50.5078119,20.4757686" id="Fill-57" fill="#E9F9FF"></path>
                        <path d="M30.9053559,27.3988868 L36.512,27.4304822 C37.3283898,27.4350693 37.9973051,26.7859139 38.0147458,25.9725186 L38.1184407,21.1012517 C38.1365932,20.2454071 37.4288814,19.5503733 36.5704915,19.5811166 L30.9587458,19.7820118 C30.1670339,19.810272 29.5350169,20.4494949 29.5182881,21.2388868 L29.4195763,25.8778057 C29.4017797,26.7092922 30.0708136,27.3941571 30.9053559,27.3988868" id="Fill-59" fill="#E9F9FF"></path>
                        <path d="M35.8177305,51.664848 L30.4843237,51.613216 C29.5909339,51.6046622 28.8568831,52.3140034 28.8379,53.204375 L28.7319508,58.1819426 C28.7132051,59.0661655 29.4070356,59.8030574 30.2935441,59.8405405 L35.6232729,60.0653209 C36.5368322,60.1038682 37.3033915,59.386723 37.3229678,58.475777 L37.4325949,53.3247466 C37.4516966,52.4200676 36.7258322,51.673598 35.8177305,51.664848" id="Fill-61" fill="#E9F9FF"></path>
                        <path d="M26.8449288,58.0621149 L26.9486237,53.1953412 C26.9674881,52.3059155 26.2539627,51.5724527 25.3614034,51.5638209 L19.9721153,51.5117168 C19.0940305,51.5032804 18.3725559,52.2004426 18.3539288,53.0754426 L18.2540305,57.7672162 C18.2356407,58.6361858 18.9176068,59.3604257 19.7889288,59.3973176 L25.174539,59.6244628 C26.0722,59.6623007 26.8259458,58.9574527 26.8449288,58.0621149" id="Fill-63" fill="#E9F9FF"></path>
                        <path d="M27.3126712,36.0902264 L27.3976203,32.0951419 C27.4182644,31.1303953 26.638061,30.3376926 25.6698068,30.3393454 L20.5233831,30.3485709 C19.5862136,30.3503446 18.8217898,31.0975236 18.8018576,32.031527 L18.7204678,35.8496014 C18.7004169,36.7912905 19.4444339,37.5735878 20.3888407,37.6044493 L25.5314678,37.7722365 C26.4914169,37.8034527 27.2922644,37.0472872 27.3126712,36.0902264" id="Fill-65" fill="#E9F9FF"></path>
                        <path d="M27.0655356,47.7002348 L27.1955695,41.5895422 C27.2143153,40.7146605 26.5230949,39.9874645 25.6452475,39.9588497 L20.382078,39.7872787 C19.4221288,39.755826 18.6212814,40.5119916 18.6008746,41.4691706 L18.4697729,47.6318902 C18.4507898,48.527228 19.1736881,49.2634105 20.0722983,49.2635287 L25.4626542,49.2640017 C26.3348068,49.2642382 27.0470271,48.5693226 27.0655356,47.7002348" id="Fill-67" fill="#E9F9FF"></path>
                        <path d="M41.3907627,27.4578902 L46.9975254,27.4894856 C47.8137966,27.4940726 48.4827119,26.8449172 48.5001525,26.031522 L48.6129831,20.7254747 C48.6312542,19.8696301 47.9235424,19.1747145 47.0651525,19.2053395 L41.4535254,19.4062348 C40.6618136,19.4346132 40.029678,20.0738361 40.0130678,20.8633463 L39.9049831,25.9368091 C39.8873051,26.7682956 40.556339,27.4532787 41.3907627,27.4578902" id="Fill-69" fill="#E9F9FF"></path>
                        <path d="M37.5527932,47.6741385 L37.6744034,41.9589696 C37.6935051,41.0688345 36.9901831,40.3289865 36.0971492,40.2998986 L30.7664712,40.1259628 C29.8587254,40.0962838 29.1017763,40.8113007 29.0823186,41.716098 L28.9570305,47.6046115 C28.9376915,48.5155574 29.6732847,49.2645101 30.5875559,49.2646284 L35.9220305,49.2652196 C36.8093695,49.2652196 37.5340475,48.5583615 37.5527932,47.6741385" id="Fill-71" fill="#E9F9FF"></path>
                        <path d="M47.1434932,30.3006924 L41.0207475,30.3118091 C40.3486288,30.3129916 39.8003746,30.8487517 39.7861373,31.5184814 L39.6691542,37.0139544 C39.6549169,37.6892416 40.188222,38.2501875 40.865561,38.2724172 L46.9836797,38.4717753 C47.6721712,38.4943598 48.2464085,37.9522145 48.2610017,37.2658125 L48.3823746,31.5596301 C48.3972051,30.8679071 47.8379169,30.2995118 47.1434932,30.3006924" id="Fill-73" fill="#E9F9FF"></path>
                        <path d="M50.2667034,31.8089932 L50.1552966,37.0429122 C50.1371441,37.8914257 50.8076017,38.5966284 51.6587542,38.6244155 L57.1420085,38.8031993 C58.007161,38.8314595 58.7288729,38.1500236 58.7472627,37.2874392 L58.8627034,31.8649223 C58.8812119,30.9952432 58.1782458,30.2808176 57.3055,30.2824701 L51.8182119,30.2924054 C50.9734661,30.2939426 50.2845,30.9673378 50.2667034,31.8089932" id="Fill-75" fill="#E9F9FF"></path>
                        <path d="M30.3860627,37.9305051 L36.5044186,38.1300997 C37.1927915,38.1525659 37.7670288,37.6103024 37.781622,36.9240186 L37.8954017,31.5785963 C37.9101136,30.8868733 37.3507068,30.3183598 36.6564017,30.3196582 L30.5335373,30.3306571 C29.8614186,30.3318395 29.3132831,30.8677179 29.2990458,31.5373294 L29.1897746,36.6720422 C29.1754186,37.3473294 29.7087237,37.9083936 30.3860627,37.9305051" id="Fill-77" fill="#E9F9FF"></path>
                        <path d="M46.5765763,40.6416689 L41.2457797,40.4677331 C40.3382712,40.4381723 39.5810847,41.1530709 39.5618644,42.0579865 L39.4438136,47.605723 C39.4244746,48.5167872 40.1600678,49.2657399 41.0742203,49.2657399 L46.4086949,49.2663311 C47.2960339,49.2664493 48.0207119,48.5595912 48.0394576,47.67525 L48.1539492,42.3007399 C48.1726949,41.4104865 47.4694915,40.6707568 46.5765763,40.6416689" id="Fill-79" fill="#E9F9FF"></path>
                        <path d="M57.2404,40.9895878 L51.5364678,40.8035912 C50.7326542,40.777223 50.0623153,41.4104155 50.0452305,42.2116318 L49.9264678,47.7968514 C49.9091458,48.6037432 50.5606203,49.2668514 51.3701288,49.2669696 L57.0780949,49.2675608 C57.8638746,49.2676791 58.5056203,48.6415811 58.5223492,47.8586926 L58.6371966,42.4587601 C58.6539254,41.6704324 58.0312814,41.0153649 57.2404,40.9895878" id="Fill-81" fill="#E9F9FF"></path>
                        <path d="M21.2038898,27.2719882 L25.4594153,27.2960241 C26.591161,27.3022584 27.5189576,26.4024274 27.5428051,25.2745051 L27.6173136,21.7756875 C27.6398559,20.7183564 26.7655678,19.8597922 25.7052458,19.8978666 L20.9693305,20.0671909 C19.8948898,20.1057382 19.0370932,20.9731706 19.0144322,22.0445726 L18.9521441,24.9667179 C18.9253305,26.2268361 19.9392627,27.2648936 21.2038898,27.2719882" id="Fill-83" fill="#E9F9FF"></path>
                        <path d="M16.4613661,53.217027 C16.4817729,52.259848 15.7137898,51.4705743 14.7533661,51.4612331 L12.8995525,51.4433784 C11.4906542,51.4297804 10.3388576,52.3577534 10.3139424,53.5265878 L10.2419254,56.9090541 C10.2172475,58.0681926 11.3109085,59.0395608 12.7068746,59.0984459 L14.6972475,59.1823986 C15.5949085,59.2203547 16.3486542,58.515625 16.3676373,57.6200507 L16.4613661,53.217027 Z" id="Fill-85" fill="#E9F9FF"></path>
                        <path d="M76.0695932,52.0539865 L72.4238983,52.0186742 C71.529678,52.0102365 70.7950339,52.7201689 70.7761695,53.6111318 L70.6411525,59.9487331 C70.6224068,60.8335473 71.3168305,61.5711486 72.2041695,61.6086318 L75.8332542,61.7617568 C77.2802373,61.8227703 78.494322,60.8826182 78.5197119,59.6811486 L78.6355085,54.246098 C78.6608983,53.0543243 77.5062542,52.0679392 76.0695932,52.0539865" id="Fill-87" fill="#E9F9FF"></path>
                        <path d="M13.0468847,49.2625709 L14.8564441,49.2629257 C15.7950373,49.2629257 16.561478,48.5152736 16.5812915,47.5800878 L16.713461,41.3679426 C16.7336305,40.4263716 15.9898508,39.6439561 15.0453254,39.6132128 L13.2239017,39.5537365 C11.7879525,39.5069122 10.5923763,40.4436351 10.5669864,41.6354088 L10.4513085,47.0703412 C10.4256814,48.2718108 11.5987153,49.2624527 13.0468847,49.2625709" id="Fill-89" fill="#E9F9FF"></path>
                        <path d="M13.1991288,37.3698902 L15.4770949,37.4442652 C16.203078,37.4679139 16.8087559,36.8959713 16.8241797,36.1722044 L16.9195695,31.6854645 C16.9352305,30.9556672 16.3452136,30.356174 15.613061,30.3574725 L13.3126712,30.3616132 C11.9176542,30.3640963 10.7872136,31.2876943 10.7626542,32.4450591 L10.7044,35.1793159 C10.6796034,36.3480321 11.791061,37.3238936 13.1991288,37.3698902" id="Fill-91" fill="#E9F9FF"></path>
                        <path d="M76.651922,18.0741892 L72.9960237,18.2049662 C72.1723966,18.2344088 71.5148712,18.8994088 71.4974305,19.7207264 L71.3641932,25.9807601 C71.3456847,26.8457095 72.0416508,27.5582432 72.9097695,27.5630912 L76.6741085,27.5844239 C78.0781424,27.5921791 79.2224644,26.6657432 79.247261,25.5010473 L79.3586678,20.264527 C79.3851254,19.0266385 78.1423288,18.0208615 76.651922,18.0741892" id="Fill-93" fill="#E9F9FF"></path>
                        <path d="M46.3022119,51.7662297 L40.9689237,51.7145977 C40.0755339,51.7060439 39.3413644,52.4153851 39.3223814,53.3057568 L39.2093136,58.6239831 C39.1904492,59.5082061 39.8842797,60.245098 40.7709068,60.2824628 L46.1005169,60.5073615 C47.0139576,60.5459088 47.7807542,59.8287635 47.8002119,58.9176993 L47.9170763,53.4261284 C47.9362966,52.5213311 47.2103136,51.775098 46.3022119,51.7662297" id="Fill-95" fill="#E9F9FF"></path>
                        <path d="M76.4980525,30.2479172 L72.792561,30.2545439 C71.9476966,30.2560811 71.2588492,30.9295946 71.2409339,31.77125 L71.114222,37.7264527 C71.0960695,38.5752027 71.7664085,39.2802872 72.6176797,39.3080743 L76.338239,39.4293919 C77.7743068,39.4763345 78.9697644,38.5394932 78.9951542,37.3477196 L79.099561,32.440152 C79.1253068,31.2366723 77.9487136,30.2453209 76.4980525,30.2479172" id="Fill-97" fill="#E9F9FF"></path>
                        <path d="M76.3630712,41.61325 L72.4952746,41.4872027 C71.6915797,41.4609527 71.0212407,42.0939088 71.0041559,42.8952432 L70.8997492,47.7991453 C70.8825458,48.6060372 71.5340203,49.2691453 72.3435288,49.2692635 L76.2297153,49.2696183 C77.6269864,49.2698547 78.7609864,48.3455473 78.7856644,47.1862905 L78.8576814,43.8039426 C78.8825966,42.6351081 77.771139,41.6592466 76.3630712,41.61325" id="Fill-99" fill="#E9F9FF"></path>
                        <path d="M60.5246695,42.5534257 L60.4131441,47.7979865 C60.3959407,48.6047601 61.0472966,49.2679865 61.8569237,49.2681047 L67.5648898,49.2686959 C68.3506695,49.2688142 68.9922966,48.6427162 69.0090254,47.8597095 L69.1166356,42.8005541 C69.1334831,42.0122264 68.5107203,41.3571588 67.7199576,41.3313818 L62.0159068,41.1453851 C61.2122119,41.1190169 60.5418729,41.7522095 60.5246695,42.5534257" id="Fill-101" fill="#E9F9FF"></path>
                        <path d="M67.27,51.9690051 L61.939322,51.9173731 C61.0452203,51.9088193 60.3104576,52.6187517 60.2915932,53.5097145 L60.1638136,59.5066571 C60.1449492,60.3914713 60.8396102,61.1291909 61.7267119,61.166674 L67.0538305,61.3913361 C67.9679831,61.4300017 68.7354915,60.712147 68.7548305,59.8003733 L68.8861695,53.6303226 C68.9053898,52.7246976 68.1788136,51.9777551 67.27,51.9690051" id="Fill-103" fill="#E9F9FF"></path>
                        <path d="M13.4987407,27.2285693 L15.7296051,27.2411256 C16.4421814,27.2452416 17.0261475,26.6785017 17.0412153,25.968451 L17.1347068,21.5799713 C17.1506051,20.8327922 16.5328254,20.2260861 15.7835881,20.2529274 L13.4206729,20.3374713 C12.0681305,20.385951 10.9998593,21.2953598 10.9760119,22.4187889 L10.9203678,25.0364578 C10.8948593,26.2322517 12.0572153,27.2205287 13.4987407,27.2285693" id="Fill-105" fill="#E9F9FF"></path>
                        <path d="M56.7854119,51.8676233 L51.5444288,51.8168149 C50.6004966,51.8077922 49.825039,52.5572179 49.8049881,53.4977247 L49.6865814,59.0646166 C49.6677169,59.9496672 50.3621407,60.6871503 51.2495983,60.7245152 L56.576361,60.9492956 C57.4906322,60.9878429 58.2581407,60.2701064 58.2774797,59.358451 L58.4015814,53.5289409 C58.4208017,52.6233159 57.6942254,51.8763733 56.7854119,51.8676233" id="Fill-107" fill="#E9F9FF"></path>
                        <path d="M61.002722,20.096326 L60.8786203,25.9216976 C60.8602305,26.7867652 61.5561966,27.4990625 62.4241966,27.5040287 L67.9106542,27.5349149 C68.7599085,27.5396199 69.4558746,26.864451 69.4737898,26.0183024 L69.6026373,19.965549 C69.621739,19.0751774 68.8854339,18.3521199 67.9924,18.3841639 L62.5013153,18.5806841 C61.6775695,18.6102449 61.0200441,19.2752449 61.002722,20.096326" id="Fill-109" fill="#E9F9FF"></path>
                        <path d="M60.7538424,31.7900507 L60.6347237,37.3846115 C60.6166898,38.2333615 61.2870288,38.9384459 62.1383,38.9662331 L67.6215542,39.1450169 C68.4867068,39.173277 69.2084186,38.4918412 69.2266898,37.6292568 L69.3498424,31.8459797 C69.3683508,30.9764189 68.6653847,30.2619932 67.792639,30.2636458 L62.3053508,30.2734628 C61.4606051,30.275 60.771639,30.9483953 60.7538424,31.7900507" id="Fill-111" fill="#E9F9FF"></path>
                        <path d="M12.8903458,15.6183243 L13.142939,17.4631554 C13.2238542,18.0537804 13.7237017,18.4980203 14.3217864,18.5107905 L14.4093458,18.5126824 C15.0806339,18.5267534 15.6364814,17.9958412 15.6507186,17.3267027 L15.6908203,15.4384764 C15.7064814,14.7065507 15.0723288,14.1281047 14.3421932,14.2082736 L13.961939,14.2500135 C13.2822271,14.324625 12.7978034,14.9429189 12.8903458,15.6183243" id="Fill-113" fill="#E9F9FF"></path>
                        <path d="M21.4818492,15.1433885 L21.734561,16.9882196 C21.8153576,17.5789628 22.3153237,18.0232027 22.9134085,18.0358547 L23.0008492,18.0378649 C23.6722559,18.0519358 24.2279847,17.5210236 24.242222,16.8518851 L24.2824424,14.9635405 C24.2979847,14.2317331 23.6640695,13.6532872 22.9338153,13.7333378 L22.553561,13.7751959 C21.8738492,13.8496892 21.3894254,14.4681014 21.4818492,15.1433885" id="Fill-115" fill="#E9F9FF"></path>
                        <path d="M32.0527508,15.2884257 L32.3053441,17.1332568 C32.3862593,17.724 32.8862254,18.1682399 33.4841915,18.1808919 L33.5717508,18.1827838 C34.2431576,18.196973 34.7988864,17.6659426 34.8131237,16.9969223 L34.8532254,15.1085777 C34.8688864,14.3767703 34.2348525,13.7983243 33.5045983,13.878375 L33.1244627,13.9202331 C32.4446322,13.9947264 31.9603271,14.6131385 32.0527508,15.2884257" id="Fill-117" fill="#E9F9FF"></path>
                        <path d="M42.3518508,14.8288497 L42.6044441,16.6736807 C42.6853593,17.2643057 43.1852068,17.7085456 43.7832915,17.7213159 L43.8708508,17.7230895 C44.542139,17.7372787 45.0979864,17.2062483 45.1122237,16.537228 L45.1523254,14.6490017 C45.1678678,13.917076 44.5338339,13.3386301 43.8038169,13.4186807 L43.4234441,13.4604206 C42.7437322,13.5350321 42.2593085,14.1534443 42.3518508,14.8288497" id="Fill-119" fill="#E9F9FF"></path>
                        <path d="M52.930061,13.4882196 L53.1826542,15.3330507 C53.2635695,15.9236757 53.7635356,16.3680338 54.3615017,16.3806858 L54.449061,16.3825777 C55.1204678,16.3967669 55.6761966,15.8657365 55.6904339,15.196598 L55.7305356,13.3083716 C55.7461966,12.5765642 55.1121627,11.9981182 54.3819085,12.0781689 L54.0017729,12.1199088 C53.3219424,12.1945203 52.8376373,12.8129324 52.930061,13.4882196" id="Fill-121" fill="#E9F9FF"></path>
                        <path d="M64.1360169,13.7251672 L64.3886102,15.5699983 C64.4695254,16.1606233 64.9693729,16.6048632 65.5674576,16.6175152 L65.6550169,16.6194071 C66.3264237,16.6335963 66.8821525,16.1026841 66.8963898,15.4335456 L66.9364915,13.5453193 C66.9520339,12.8133936 66.3181186,12.2349476 65.5879831,12.3149983 L65.2076102,12.3568564 C64.5278983,12.4314679 64.0435932,13.0498801 64.1360169,13.7251672" id="Fill-123" fill="#E9F9FF"></path>
                        <path d="M73.5946305,13.5277128 L73.8472237,15.3725439 C73.928139,15.9631689 74.4279864,16.4074088 75.0260712,16.4201791 L75.1136305,16.4220709 C75.7849186,16.4362601 76.3407661,15.9052297 76.3550034,15.2360912 L76.3951051,13.3478649 C76.4106475,12.6159392 75.7767322,12.0374932 75.046478,12.1176622 L74.6662237,12.159402 C73.9865119,12.2340135 73.5020881,12.8523074 73.5946305,13.5277128" id="Fill-125" fill="#E9F9FF"></path>
                    </g>
                    <g id="Group-130" transform="translate(275.000000, 19.000000)">
                        <mask id="mask-13" fill="white">
                            <use xlink:href="#path-12"></use>
                        </mask>
                        <g id="Clip-129"></g>
                        <path d="M7.12979104,0.15342623 C6.25468657,0.815557377 5.89910448,1.84444262 5.4679403,2.80390164 L5.4679403,2.80390164 C4.96561194,3.92183607 4.4841791,5.04860656 4.05623881,6.19522951 L4.05623881,6.19522951 C3.60525373,7.40381967 3.22077612,8.63432787 2.928,9.88377049 L2.928,9.88377049 C2.34746269,8.39139344 1.67259701,6.93780328 0.816716418,5.55834426 L0.816716418,5.55834426 C0.58961194,5.19227869 -0.0520597015,5.40640984 0.0752238806,5.84132787 L0.0752238806,5.84132787 C0.815283582,8.36981967 1.72585075,10.8467869 2.42304478,13.3880164 L2.42304478,13.3880164 C2.66889552,14.2847049 3.94507463,14.0728689 4.0401194,13.2112951 L4.0401194,13.2112951 C4.29958209,10.8576885 4.89074627,8.60644262 5.73026866,6.38365574 L5.73026866,6.38365574 C6.12955224,5.327 6.57492537,4.2867541 7.03665672,3.25396721 L7.03665672,3.25396721 C7.44537313,2.3394918 7.94519403,1.48709836 7.88346269,0.471639344 L7.88346269,0.471639344 C7.86758209,0.206672131 7.66531343,0.045442623 7.43976119,0.045442623 L7.43976119,0.045442623 C7.336,0.045442623 7.22746269,0.0795245902 7.12979104,0.15342623" id="Fill-128" fill="url(#linearGradient-14)" mask="url(#mask-13)"></path>
                    </g>
                    <g id="Group-133" transform="translate(266.000000, 19.000000)">
                        <mask id="mask-16" fill="white">
                            <use xlink:href="#path-15"></use>
                        </mask>
                        <g id="Clip-132"></g>
                        <path d="M10.9408125,0.102653631 C7.18690104,1.42107821 3.99169792,4.02191061 2.01238021,7.42520112 L2.01238021,7.42520112 C0.191666667,10.5557263 -0.90059375,14.9714749 1.48278125,18.1139665 L1.48278125,18.1139665 C3.9488125,21.3656816 8.63003125,21.4239888 12.1570573,20.0683743 L12.1570573,20.0683743 C16.0366302,18.577257 20.8672292,15.8108883 22.4115833,11.796486 L22.4115833,11.796486 C24.0297292,7.59085475 22.0329219,2.45265922 17.2607813,1.57828492 L17.2607813,1.57828492 C16.4972292,1.43832402 16.2195521,2.39552514 16.9196146,2.69715084 L16.9196146,2.69715084 C21.5530365,4.69367598 22.1587031,10.319095 18.811724,13.7254358 L18.811724,13.7254358 C17.2634167,15.3007877 15.2094687,16.5235978 13.2644115,17.5748883 L13.2644115,17.5748883 C11.2916823,18.6408436 9.08943229,19.4553855 6.80033333,19.2302514 L6.80033333,19.2302514 C1.49380208,18.708067 0.772416667,13.4187654 2.35905729,9.33725698 L2.35905729,9.33725698 C3.88496354,5.41154749 7.153,2.38109497 11.1540417,0.928340782 L11.1540417,0.928340782 C11.6190729,0.759519553 11.503474,0.0755530726 11.0898333,0.0755530726 L11.0898333,0.0755530726 C11.0437135,0.0755530726 10.994,0.084 10.9408125,0.102653631" id="Fill-131" fill="url(#linearGradient-17)" mask="url(#mask-16)"></path>
                    </g>
                    <g id="Group-172" transform="translate(19.000000, 0.000000)">
                        <path d="M284.068707,71.3047576 C283.959806,71.3047576 283.871221,71.2171987 283.870512,71.1084276 L283.629675,36.417771 C283.628971,36.3085286 283.716965,36.2194377 283.826456,36.2187306 L283.827992,36.2187306 C283.936774,36.2187306 284.025359,36.3062896 284.026068,36.4150606 L284.266907,71.1057172 C284.267728,71.2148418 284.179497,71.3039327 284.070124,71.3047576 L284.068707,71.3047576 Z" id="Fill-134" fill="#91B3FA"></path>
                        <path d="M283.77262,28.6487374 C283.66372,28.6487374 283.575135,28.5610606 283.574426,28.4522896 L283.490208,16.3363973 C283.489621,16.2272727 283.577733,16.1381818 283.687106,16.1373569 L283.688523,16.1373569 C283.797306,16.1373569 283.885891,16.2250337 283.886718,16.3338047 L283.970814,28.449697 C283.971641,28.5588215 283.88341,28.6479125 283.774037,28.6487374 L283.77262,28.6487374 Z" id="Fill-136" fill="#91B3FA"></path>
                        <path d="M211.472942,16.3626886 C211.472942,17.5300623 210.524492,18.4764764 209.354461,18.4764764 C208.18443,18.4764764 207.23598,17.5300623 207.23598,16.3626886 C207.23598,15.1953148 208.18443,14.2489007 209.354461,14.2489007 C210.524492,14.2489007 211.472942,15.1953148 211.472942,16.3626886" id="Fill-138" fill="#8CCEFF"></path>
                        <path d="M228.830763,16.2000741 C228.830763,17.3674478 227.882313,18.313862 226.712282,18.313862 C225.542251,18.313862 224.593801,17.3674478 224.593801,16.2000741 C224.593801,15.0327003 225.542251,14.0862862 226.712282,14.0862862 C227.882313,14.0862862 228.830763,15.0327003 228.830763,16.2000741" id="Fill-140" fill="#8CCEFF"></path>
                        <path d="M246.351675,15.6308822 C246.351675,16.7982559 245.403224,17.74467 244.233075,17.74467 C243.063044,17.74467 242.114594,16.7982559 242.114594,15.6308822 C242.114594,14.4636263 243.063044,13.5172121 244.233075,13.5172121 C245.403224,13.5172121 246.351675,14.4636263 246.351675,15.6308822" id="Fill-142" fill="#8CCEFF"></path>
                        <path d="M263.709496,14.8178098 C263.709496,15.9851835 262.761045,16.9315976 261.590896,16.9315976 C260.420983,16.9315976 259.472415,15.9851835 259.472415,14.8178098 C259.472415,13.6505539 260.420983,12.7041397 261.590896,12.7041397 C262.761045,12.7041397 263.709496,13.6505539 263.709496,14.8178098" id="Fill-144" fill="#8CCEFF"></path>
                        <path d="M263.20221,0.171417508 C259.637195,0.947545455 259.973582,10.3053906 260.260479,14.1044815 C260.327922,14.9984545 261.074162,15.688202 261.972887,15.688202 C262.222224,15.688202 262.459986,15.5810808 262.626644,15.3957104 C262.793184,15.2105758 262.872792,14.9627475 262.846217,14.7152727 C262.538295,11.8438586 261.883002,3.57454882 264.507599,3.13239394 C264.507599,3.13239394 266.390208,2.80007071 266.706988,6.43842088 L268.743617,6.43842088 C268.743617,6.43842088 267.684258,-0.804222222 263.20221,0.171417508" id="Fill-146" fill="#8CCEFF"></path>
                        <path d="M245.84439,0.652579125 C242.279256,1.42870707 242.615643,10.7898519 242.902658,14.5890606 C242.970101,15.4830337 243.716341,16.174431 244.614948,16.174431 C244.864403,16.174431 245.102165,16.0680168 245.268705,15.8827643 C245.435363,15.6976296 245.514971,15.4501549 245.488396,15.2026801 C245.180474,12.331266 244.525182,4.05559259 247.149778,3.61331987 C247.149778,3.61331987 249.032387,3.35370707 249.349049,6.91298316 L251.385796,6.91298316 C251.385796,6.91298316 250.326437,-0.323060606 245.84439,0.652579125" id="Fill-148" fill="#8CCEFF"></path>
                        <path d="M228.486451,1.13615657 C224.921435,1.91216667 225.257822,11.2755505 225.544719,15.0746414 C225.61228,15.9687323 226.35852,16.6610724 227.257127,16.6610724 C227.506582,16.6610724 227.744226,16.5553653 227.910884,16.3701128 C228.077542,16.1848603 228.157151,15.9378569 228.130575,15.6902643 C227.822654,12.8188502 227.167361,4.53893434 229.791958,4.09666162 C229.791958,4.09666162 231.673621,3.88524747 231.990402,7.46278956 L234.027975,7.39208249 C234.027975,7.39208249 232.968498,0.160516835 228.486451,1.13615657" id="Fill-150" fill="#8CCEFF"></path>
                        <path d="M211.12863,1.69523737 C207.563614,2.47136532 207.900001,11.8396987 208.186899,15.6387896 C208.254459,16.5328805 209.0007,17.2278131 209.899306,17.2278131 C210.148761,17.2278131 210.386405,17.1231667 210.553063,16.938032 C210.719721,16.7527795 210.79933,16.5063653 210.772754,16.2587727 C210.464833,13.3873586 209.80954,5.09766162 212.434137,4.65550673 C212.434137,4.65550673 214.316627,4.38187037 214.633407,7.94126431 L216.670154,7.94126431 C216.670154,7.94126431 215.610677,0.719597643 211.12863,1.69523737" id="Fill-152" fill="#8CCEFF"></path>
                        <path d="M100.966132,117.517072 L43.0056639,117.517072 C40.6657202,117.517072 38.7687015,115.785692 38.7687015,113.649749 L38.7687015,79.2010286 C38.7687015,77.1487559 40.5249291,75.4537896 42.7699096,75.3397155 L102.966736,72.2770387 C105.487157,72.1489411 107.570559,74.0480152 107.433429,76.3485875 L105.196835,113.859867 C105.074469,115.911079 103.216664,117.517072 100.966132,117.517072" id="Fill-154" fill="#8CCEFF"></path>
                        <path d="M73.3392528,96.7304192 L105.022216,72.6458232 C104.404247,72.3767828 103.704543,72.2396111 102.966807,72.2770859 L42.7699805,75.3396448 C41.7347169,75.3923215 40.8041018,75.781564 40.100973,76.386463 L63.8129381,96.5151162 C66.3872187,98.7003182 70.6219369,98.7958906 73.3392528,96.7304192" id="Fill-156" fill="#BDE3FF"></path>
                        <path d="M68.9346876,95.5367778 C67.3595279,95.5367778 65.791573,95.0225017 64.5315398,94.0070303 L55.5973273,86.8078721 C55.3351157,86.5965758 55.3101937,86.2313737 55.5415778,85.9920303 C55.77308,85.7523333 56.1737205,85.7297071 56.4354597,85.9412391 L65.369554,93.1403973 C67.2675176,94.6696734 70.0288897,94.7958855 72.0851252,93.4471481 L76.7145782,90.4099259 C76.9994676,90.2236128 77.3940843,90.2831246 77.5984205,90.5420303 C77.8025203,90.8012896 77.7376761,91.162367 77.4537316,91.348798 L72.8242786,94.3859024 C71.6501137,95.1560202 70.2898021,95.5367778 68.9346876,95.5367778" id="Fill-158" fill="#FFFFFF"></path>
                        <path d="M52.6924828,84.2741667 C52.5434238,84.2741667 52.3940104,84.2265572 52.2735348,84.129335 L51.0709046,83.1602946 C50.8086929,82.9491162 50.783771,82.5837963 51.0152732,82.3445707 C51.2465391,82.1048737 51.6467072,82.082601 51.9089188,82.2936616 L53.1117853,83.2628199 C53.3738788,83.4741162 53.3988007,83.8393182 53.1674166,84.0786616 C53.0422165,84.2080556 52.8675268,84.2741667 52.6924828,84.2741667" id="Fill-160" fill="#FFFFFF"></path>
                        <path d="M252.87582,123.068909 L252.87582,149.555424 C252.87582,152.70236 255.354074,155.29401 258.504748,155.44167 L291.702278,156.997815 C295.069336,157.155727 297.885513,154.474633 297.885513,151.111569 L297.885513,123.068909 C297.885513,119.814498 295.241309,117.176182 291.979372,117.176182 L258.78196,117.176182 C255.520141,117.176182 252.87582,119.814498 252.87582,123.068909" id="Fill-162" fill="#8CCEFF"></path>
                        <path d="M277.963959,143.921167 L274.871279,145.641588 C274.7084,145.731857 271.986242,147.238153 268.675406,148.619652 C276.212101,148.166184 288.96232,146.042025 290.517046,136.941907 C291.305925,132.322968 290.341766,128.795392 287.650435,126.458877 C283.475246,122.832901 276.077334,122.962884 270.596048,124.697682 C264.388482,126.664281 259.819503,132.426554 260.618658,137.281419 C261.344465,141.688827 266.374912,144.154264 274.423747,143.985628 L277.963959,143.921167 Z M264.902039,150.501049 C264.472933,150.501049 264.110561,150.495864 263.82331,150.490089 C263.333139,150.480308 262.930963,150.120173 262.868363,149.634062 C262.805527,149.144298 263.105653,148.692008 263.582004,148.558136 C266.131481,147.845173 268.911279,146.63349 270.958301,145.652429 C261.19635,144.858389 259.247362,139.856217 258.870935,137.568019 C257.920595,131.797614 262.940176,125.268406 270.060049,123.012968 C277.32591,120.713221 284.685672,121.54179 288.813025,125.125224 C291.006036,127.029601 293.384839,130.6762 292.263116,137.238877 C290.165305,149.51716 270.973774,150.501049 264.902039,150.501049 L264.902039,150.501049 Z" id="Fill-164" fill="#FFFFFF"></path>
                        <path d="M133.238292,279.976242 L98.8433283,279.976242 C96.2127076,279.976242 94.0804071,278.333717 94.0804071,276.307488 L94.0804071,249.743195 C94.0804071,247.831865 95.9856937,246.240603 98.4589874,246.086579 L135.104838,243.801916 C137.991646,243.622084 140.417104,245.451865 140.243359,247.678785 L137.992709,276.527505 C137.841642,278.464761 135.757886,279.976242 133.238292,279.976242" id="Fill-166" fill="#8CCEFF"></path>
                        <path d="M103.740757,274.691278 C102.784629,274.691278 101.89122,274.357423 101.265928,273.76148 C100.755914,273.275015 100.474923,272.649729 100.474923,272.000049 L100.474923,254.968955 C100.474923,254.552136 100.813672,254.214157 101.23132,254.214157 C101.649087,254.214157 101.987718,254.552136 101.987718,254.968955 L101.987718,272.000049 C101.987718,272.299258 102.163589,272.529173 102.310995,272.669998 C102.674429,273.016699 103.255075,273.205487 103.859815,273.178854 L130.06161,271.976833 C130.967303,271.93547 131.704094,271.406345 131.704094,270.797911 L131.704094,254.076749 C131.704094,253.76988 131.520074,253.535487 131.365818,253.39254 C130.982422,253.038416 130.382288,252.854813 129.756759,252.902658 L107.960357,254.565453 C107.073561,254.633214 106.590005,255.090571 106.445553,255.461665 C106.326376,255.768298 106.402796,256.078938 106.666661,256.359645 L114.979951,265.196261 C115.305944,265.542961 115.852573,265.752961 116.441841,265.758146 C117.036069,265.747894 117.594036,265.559577 117.931841,265.212759 L127.089169,255.814965 C127.380555,255.516581 127.859386,255.510217 128.158686,255.800352 C128.458339,256.090722 128.465072,256.568702 128.173804,256.867557 L119.016594,266.265234 C118.387286,266.910907 117.448048,267.265739 116.428612,267.267625 C115.419333,267.258786 114.489072,266.880386 113.876655,266.229527 L105.563482,257.392675 C104.90252,256.689493 104.705271,255.763466 105.035397,254.915217 C105.441353,253.872288 106.517838,253.1618 107.84496,253.060453 L129.641481,251.397776 C130.677217,251.318938 131.707047,251.650436 132.393876,252.285503 C132.924678,252.775975 133.217008,253.412456 133.217008,254.076749 L133.217008,270.797911 C133.217008,272.225133 131.861421,273.405588 130.13106,273.484779 L103.929148,274.686918 C103.866193,274.689746 103.803121,274.691278 103.740757,274.691278" id="Fill-168" fill="#FFFFFF"></path>
                        <path d="M25.7601098,139.651591 C25.7601098,139.651591 21.8592981,141.544655 21.1419956,143.719369 C20.5665474,145.464301 16.2532838,145.68915 15.8271308,149.120918 C15.6072037,150.892719 14.2930745,152.311692 12.524327,152.582264 C8.11917122,153.255867 1.33013357,155.538291 0.243963139,163.169352 C-0.585310741,168.9942 2.39079152,171.202854 5.51429925,171.967433 C7.80841498,172.528847 9.33290408,174.755177 8.8688367,177.065884 C8.42378557,179.282315 9.08746453,181.844503 12.935952,183.870497 C21.5601169,188.410951 30.1727067,173.114184 30.1727067,173.114184 L31.9377927,146.405177 L25.7601098,139.651591 Z" id="Fill-170" fill="#4A2009"></path>
                    </g>
                    <g id="Group-175" transform="translate(54.000000, 134.000000)">
                        <mask id="mask-19" fill="white">
                            <use xlink:href="#path-18"></use>
                        </mask>
                        <g id="Clip-174"></g>
                        <path d="M0.0301094225,31.6439269 C0.0301094225,31.6439269 4.03430699,42.696658 7.12490881,43.9616292 L7.12490881,43.9616292 C7.12490881,43.9616292 32.4072219,23.5175979 38.9043374,3.80031332 L38.9043374,3.80031332 L37.8616505,0.0359582245 C37.8616505,0.0359582245 20.5800274,26.5270601 0.0301094225,31.6439269" id="Fill-173" fill="#FFB48D" mask="url(#mask-19)"></path>
                    </g>
                    <g id="Group-178" transform="translate(0.000000, 306.000000)">
                        <mask id="mask-21" fill="white">
                            <use xlink:href="#path-20"></use>
                        </mask>
                        <g id="Clip-177"></g>
                        <path d="M3.17916667,0.0353142857 C1.6827381,1.54937143 0.64452381,4.12171429 0.0772619048,5.83554286 L0.0772619048,5.83554286 C-0.233928571,6.77531429 0.429285714,7.76834286 1.45083333,7.872 L1.45083333,7.872 C3.77833333,8.10822857 6.15714286,7.9416 7.63964286,7.77908571 L7.63964286,7.77908571 C8.5175,7.68285714 9.20833333,7.01691429 9.31488095,6.17474286 L9.31488095,6.17474286 L9.87738095,1.73554286 C9.99190476,0.831771429 9.2572619,0.0353142857 8.30880952,0.0353142857 L8.30880952,0.0353142857 L3.17916667,0.0353142857 Z" id="Fill-176" fill="url(#linearGradient-22)" mask="url(#mask-21)"></path>
                    </g>
                    <g id="Group-181" transform="translate(40.000000, 253.000000)">
                        <mask id="mask-24" fill="white">
                            <use xlink:href="#path-23"></use>
                        </mask>
                        <g id="Clip-180"></g>
                        <path d="M3.64392241,4.19414343 L1.14881897,9.19278884 C0.291043103,10.9115139 -0.084387931,12.8575697 0.0675775862,14.798008 L0.0675775862,14.798008 L2.6537931,47.8288446 L0.679362069,50.7242629 L0.919525862,52.2940637 L12.9813966,59.8850199 L8.23538793,51.6653785 C7.32538793,50.089243 6.87677586,48.2621116 6.95298276,46.412988 L6.95298276,46.412988 C7.43846552,34.6188048 10.1679052,5.13358566 10.1679052,5.13358566 L10.1679052,5.13358566 L9.35282759,0.0203187251 L3.64392241,4.19414343 Z" id="Fill-179" fill="#FFB48D" mask="url(#mask-24)"></path>
                    </g>
                    <g id="Group-184" transform="translate(39.000000, 302.000000)">
                        <mask id="mask-26" fill="white">
                            <use xlink:href="#path-25"></use>
                        </mask>
                        <g id="Clip-183"></g>
                        <path d="M0.134111111,4.65052427 L1.411,11.9998835 L2.41891111,11.9998835 C2.41891111,11.9998835 2.18897037,6.08551456 3.98706667,6.19666019 L3.98706667,6.19666019 C5.32288889,6.27914563 8.11642963,9.4416699 9.46484444,11.0626019 L9.46484444,11.0626019 C9.9586,11.6560777 10.721963,11.9998835 11.5315407,11.9998835 L11.5315407,11.9998835 L15.8567185,11.9998835 C17.2434148,11.9998835 17.4341926,10.1303301 16.0694074,9.90221359 L16.0694074,9.90221359 C15.1496444,9.74831068 14.3116074,9.85887379 14.3116074,9.85887379 L14.3116074,9.85887379 C14.3116074,9.85887379 7.47042963,5.40361165 5.24166667,4.15957282 L5.24166667,4.15957282 C3.01277778,2.91565049 2.60162963,0.103106796 2.60162963,0.103106796 L2.60162963,0.103106796 C0.806933333,0.969553398 -0.187125926,2.80147573 0.134111111,4.65052427" id="Fill-182" fill="url(#linearGradient-27)" mask="url(#mask-26)"></path>
                    </g>
                    <g id="Group-187" transform="translate(2.000000, 254.000000)">
                        <mask id="mask-29" fill="white">
                            <use xlink:href="#path-28"></use>
                        </mask>
                        <g id="Clip-186"></g>
                        <path d="M21.3849035,2.21081649 C14.4932432,7.65324948 12.7044788,13.5613567 11.1220077,19.0079753 L11.1220077,19.0079753 C9.53942085,24.4544742 6.65374517,40.1198557 5.3123166,43.5766557 L5.3123166,43.5766557 C4.18876448,46.4717526 1.15494208,52.855101 0.198880309,54.8525732 L0.198880309,54.8525732 C-0.0705405405,55.4157113 -0.053976834,56.0842062 0.265830116,56.6185237 L0.265830116,56.6185237 C0.640772201,57.2446845 1.40629344,57.8916536 2.96965251,57.8916536 L2.96965251,57.8916536 C5.99872587,57.8916536 7.09760618,57.0167505 7.15262548,56.1045361 L7.15262548,56.1045361 C7.18783784,55.5208289 8.10822394,49.3560866 10.735251,41.9666474 L10.735251,41.9666474 C13.362278,34.5769691 29.8885714,2.21081649 29.8885714,2.21081649 L29.8885714,2.21081649 C28.630888,0.616115464 27.2671042,0.0847876087 26.0071042,0.0847876087 L26.0071042,0.0847876087 C23.4876834,0.0847876087 21.3849035,2.21081649 21.3849035,2.21081649" id="Fill-185" fill="#FFB48D" mask="url(#mask-29)"></path>
                    </g>
                    <g id="Group-190" transform="translate(37.000000, 165.000000)">
                        <mask id="mask-31" fill="white">
                            <use xlink:href="#path-30"></use>
                        </mask>
                        <g id="Clip-189"></g>
                        <path d="M0.0859302326,9.70634 C0.0859302326,9.70634 10.9273256,20.03916 6.64790698,38.3081743 L6.64790698,38.3081743 C14.5474419,43.0880714 21.512907,39.7669543 21.512907,39.7669543 L21.512907,39.7669543 C21.512907,39.7669543 29.045814,19.7154943 29.8727907,15.6969086 L29.8727907,15.6969086 C31.2836047,8.84077143 19.3904651,0.08118 19.3904651,0.08118 L19.3904651,0.08118 C19.3904651,0.08118 6.92662791,3.09128286 0.0859302326,9.70634" id="Fill-188" fill="url(#linearGradient-32)" mask="url(#mask-31)"></path>
                    </g>
                    <path d="M33.9779659,213.01366 C35.7061308,207.745837 43.3931072,204 43.3931072,204 C51.2315777,208.763608 58.1431989,205.453809 58.1431989,205.453809 C58.1431989,205.453809 59.6933322,211.448595 58.6235268,217.019602 C57.553606,222.590609 50.8415926,258.394251 50.8415926,258.394251 C40.2657263,260.56253 24,256.212779 24,256.212779 C30.7365894,244.111366 32.2496856,218.281484 33.9779659,213.01366" id="Fill-191" fill="#F7941D"></path>
                    <g id="Group-195" transform="translate(44.000000, 151.000000)">
                        <mask id="mask-34" fill="white">
                            <use xlink:href="#path-33"></use>
                        </mask>
                        <g id="Clip-194"></g>
                        <path d="M3.81823596,1.63929114 L0.11988764,17.8021582 C-0.234337079,19.2259557 1.09962921,18.9929051 2.57906742,18.7214937 L2.57906742,18.7214937 C5.00178652,18.277038 8.12417978,17.3617911 9.16794382,15.5278101 L9.16794382,15.5278101 C9.27423596,15.341057 9.32725843,15.1300127 9.35729213,14.9187278 L9.35729213,14.9187278 L10.9461124,3.71089241 C11.0721798,2.82174051 10.5781685,1.95868354 9.7348764,1.59479747 L9.7348764,1.59479747 L6.6687191,0.272253165 C6.39421348,0.153803797 6.10957303,0.0982468354 5.83061798,0.0982468354 L5.83061798,0.0982468354 C4.91007865,0.0982468354 4.05121348,0.702037975 3.81823596,1.63929114" id="Fill-193" fill="#FFB48D" mask="url(#mask-34)"></path>
                    </g>
                    <g id="Group-198" transform="translate(46.000000, 138.000000)">
                        <mask id="mask-36" fill="white">
                            <use xlink:href="#path-35"></use>
                        </mask>
                        <g id="Clip-197"></g>
                        <path d="M0.861875,13.0730962 C3.99503125,17.8714487 7.6111875,18.7302244 10.105375,18.8772308 L10.105375,18.8772308 C12.5992344,19.024359 15.0323906,16.6252436 13.5352656,9.93687821 L13.5352656,9.93687821 C12.0380313,3.24826923 8.55378125,0.62200641 8.55378125,0.62200641 L8.55378125,0.62200641 C7.98164063,0.219839744 7.38346875,0.0387307079 6.78004688,0.0387307079 L6.78004688,0.0387307079 C2.56735938,0.0395833333 -1.87873437,8.87604487 0.861875,13.0730962" id="Fill-196" fill="#FFB48D" mask="url(#mask-36)"></path>
                    </g>
                    <path d="M50.1943578,148.811949 C50.1943578,148.811949 48.7659198,139.378557 56.7613545,140.821457 L58.3780154,142.470313 C58.3780154,142.470313 62.2915342,138.152884 57.9606941,134.889337 C53.6297317,131.62591 47.6199384,132.461607 44.2949528,138.402958 C40.9698447,144.344188 39.7631621,148.519078 42.5500359,152.210963 C45.3370321,155.902728 47.4333065,152.736405 47.4333065,152.736405 C47.4333065,152.736405 46.1552755,149.541191 47.215712,148.170101 C48.276271,146.798891 49.6444973,148.967436 49.6444973,148.967436 L50.1943578,148.811949 Z" id="Fill-199" fill="#4A2009"></path>
                    <g id="Group-203" transform="translate(46.000000, 145.000000)">
                        <mask id="mask-38" fill="white">
                            <use xlink:href="#path-37"></use>
                        </mask>
                        <g id="Clip-202"></g>
                        <path d="M0.652852941,0.3618 C-1.1715,1.75056 1.31047059,4.90008 2.30558824,5.97156 L2.30558824,5.97156 L2.98579412,3.83124 C2.98579412,3.83124 2.5965,0.1122 1.27720588,0.1122 L1.27720588,0.1122 C1.08855882,0.1122 0.881029412,0.18816 0.652852941,0.3618" id="Fill-201" fill="url(#linearGradient-39)" mask="url(#mask-38)"></path>
                    </g>
                    <g id="Group-206" transform="translate(89.000000, 122.000000)">
                        <mask id="mask-41" fill="white">
                            <use xlink:href="#path-40"></use>
                        </mask>
                        <g id="Clip-205"></g>
                        <path d="M1.30734783,8.40194203 C0.544304348,9.13984058 0.23366087,13.889 0.0586695652,14.9735507 L0.0586695652,14.9735507 C0.695104348,17.4716884 2.69461739,17.0666449 2.64476522,16.4807609 L2.64476522,16.4807609 C2.64476522,16.4807609 4.45312174,16.8898696 6.10683478,15.2265797 L6.10683478,15.2265797 C6.98054783,14.3478768 7.94978261,13.1903986 8.66975652,12.2938333 L8.66975652,12.2938333 C9.38701739,11.4007174 9.78617391,10.2476739 9.73903478,9.07011594 L9.73903478,9.07011594 C9.67674783,7.51498551 9.126,6.31081884 8.74854783,4.94872464 L8.74854783,4.94872464 L12.3662783,2.28834783 C12.3662783,2.28834783 13.429113,1.40003623 12.6187043,0.0514927536 L12.6187043,0.0514927536 C12.6187043,0.0514927536 5.37148696,4.47223188 1.30734783,8.40194203" id="Fill-204" fill="#FFB48D" mask="url(#mask-41)"></path>
                    </g>
                    <g id="Group-209" transform="translate(92.000000, 130.000000)">
                        <mask id="mask-43" fill="white">
                            <use xlink:href="#path-42"></use>
                        </mask>
                        <g id="Clip-208"></g>
                        <path d="M1.57536,1.96155224 L0.114,4.23916418 L0.64896,4.57958209 L2.0214,2.44131343 L5.1288,0.787701493 C5.25288,0.92 5.3184,1.04967164 5.32596,1.18113433 L5.32596,1.18113433 C5.34096,1.4238806 5.1774,1.72513433 4.83876,2.07665672 L4.83876,2.07665672 C3.9474,3.00358209 2.10456,7.45946269 2.02656,7.64859701 L2.02656,7.64859701 L2.61348,7.88883582 C3.13248,6.63020896 4.62648,3.2118209 5.29812,2.51402985 L5.29812,2.51402985 C5.77032,2.02292537 5.98656,1.57444776 5.9598,1.14232836 L5.9598,1.14232836 C5.93796,0.779462687 5.74752,0.457791045 5.37948,0.158328358 L5.37948,0.158328358 L5.2152,0.0251940299 L1.57536,1.96155224 Z" id="Fill-207" fill="url(#linearGradient-44)" mask="url(#mask-43)"></path>
                    </g>
                    <g id="Group-212" transform="translate(46.000000, 211.000000)">
                        <mask id="mask-46" fill="white">
                            <use xlink:href="#path-45"></use>
                        </mask>
                        <g id="Clip-211"></g>
                        <path d="M32.5363699,0.0276 L1.40983562,0.05072 C0.640410959,0.05112 0.0172328767,0.47568 0.0180471466,0.9988 L0.0180471466,0.9988 C0.0189794521,1.5056 0.605130137,1.91904 1.34125342,1.94384 L1.34125342,1.94384 C1.36512329,1.94456 1.38899315,1.94504 1.41297945,1.94488 L1.41297945,1.94488 L32.5393973,1.92184 C33.3088219,1.92136 33.932,1.4968 33.9311857,0.97384 L33.9311857,0.97384 C33.9303699,0.45608 33.3169726,0.02752 32.5607055,0.02744 L32.5607055,0.02744 C32.5525548,0.02744 32.5445205,0.02752 32.5363699,0.0276" id="Fill-210" fill="url(#linearGradient-47)" mask="url(#mask-46)"></path>
                    </g>
                    <g id="Group-215" transform="translate(63.000000, 184.000000)">
                        <mask id="mask-49" fill="white">
                            <use xlink:href="#path-48"></use>
                        </mask>
                        <g id="Clip-214"></g>
                        <path d="M16.3293995,0.0179294606 C14.4425692,0.0179294606 12.7251906,1.14640249 11.9205535,2.91492116 L11.9205535,2.91492116 L0.096616188,28.8983195 L31.8809295,28.8983195 C33.096846,28.8983195 34.1891488,28.1284357 34.6360418,26.9566432 L34.6360418,26.9566432 L43.8048146,2.91275519 C44.3346527,1.52352282 43.3466632,0.0179294606 41.9053473,0.0179294606 L41.9053473,0.0179294606 L16.3293995,0.0179294606 Z" id="Fill-213" fill="url(#linearGradient-50)" mask="url(#mask-49)"></path>
                    </g>
                    <path d="M88.228254,197.820256 C87.7163375,199.716047 88.0944384,201.557252 89.0729588,201.932703 C90.0515853,202.308026 91.2597465,201.07557 91.7717692,199.17978 C92.2836857,197.283861 91.9054787,195.442656 90.9269583,195.067333 C89.9484379,194.691882 88.7401706,195.924465 88.228254,197.820256" id="Fill-216" fill="#FFFFFF"></path>
                    <g id="Group-220" transform="translate(29.000000, 175.000000)">
                        <mask id="mask-52" fill="white">
                            <use xlink:href="#path-51"></use>
                        </mask>
                        <g id="Clip-219"></g>
                        <path d="M0.763139535,27.0155644 C3.11395349,30.7846337 11.117907,35.9151683 18.7396512,35.9219406 L18.7396512,35.9219406 L29.9848837,35.9219406 C25.2596512,30.7921188 22.0060465,29.4908911 18.1309302,33.0781782 L18.1309302,33.0781782 C15.0562791,31.7358416 11.0695349,26.5356832 8.40848837,24.2139802 L8.40848837,24.2139802 C7.36360465,23.3024554 7.11709302,21.7474455 7.81581395,20.5386535 L7.81581395,20.5386535 C9.92976744,16.8818614 12.5810465,13.122297 13.4239535,9.48083168 L13.4239535,9.48083168 C13.605,5.21358416 10.5144186,0.329584158 7.71569767,0.0215049505 L7.71569767,0.0215049505 C3.4744186,4.39461386 -1.90662791,23.7779406 0.763139535,27.0155644" id="Fill-218" fill="#FFB48D" mask="url(#mask-52)"></path>
                    </g>
                    <g id="Group-223" transform="translate(282.000000, 269.000000)">
                        <mask id="mask-54" fill="white">
                            <use xlink:href="#path-53"></use>
                        </mask>
                        <g id="Clip-222"></g>
                        <path d="M0.0777087379,8.20310526 C1.85440777,8.55429474 11.9787961,14.5421158 11.9787961,7.69652632 L11.9787961,7.69652632 L11.9787961,0.0495578947 C11.9787961,0.0495578947 -0.432699029,8.10225263 0.0777087379,8.20310526" id="Fill-221" mask="url(#mask-54)"></path>
                    </g>
                    <g id="Group-226" transform="translate(233.000000, 308.000000)">
                        <mask id="mask-56" fill="white">
                            <use xlink:href="#path-55"></use>
                        </mask>
                        <g id="Clip-225"></g>
                        <path d="M6.6359823,0.037173913 C4.48258407,0.464869565 1.95632743,2.62421739 0.327646018,4.22634783 L0.327646018,4.22634783 C0.0436017699,4.5056087 -0.0518849558,4.9503913 0.0877787611,5.34052174 L0.0877787611,5.34052174 C0.227557522,5.7303913 0.573035398,5.98330435 0.953831858,5.97443478 L0.953831858,5.97443478 C4.99223009,5.8796087 12.8931239,5.60752174 12.8931239,4.93252174 L12.8931239,4.93252174 C12.8931239,4.02586957 12.0478938,1.90434783 12.0478938,1.90434783 L12.0478938,1.90434783 C12.0478938,1.90434783 10.0296726,0.00560869565 7.25457522,0.00534782609 L7.25457522,0.00534782609 C7.05209735,0.00534782609 6.84593805,0.0153913043 6.6359823,0.037173913" id="Fill-224" fill="url(#linearGradient-57)" mask="url(#mask-56)"></path>
                    </g>
                    <g id="Group-229" transform="translate(240.000000, 305.000000)">
                        <mask id="mask-59" fill="white">
                            <use xlink:href="#path-58"></use>
                        </mask>
                        <g id="Clip-228"></g>
                        <path d="M0.0424038462,4.38531818 C-0.118326923,6.33818182 4.78194231,5.93127273 4.78194231,5.93127273 L4.78194231,5.93127273 L6.95086538,1.78118182 L1.40794231,0.0721363636 C1.40794231,0.0721363636 0.202865385,2.43231818 0.0424038462,4.38531818" id="Fill-227" fill="#FFB48D" mask="url(#mask-59)"></path>
                    </g>
                    <path d="M295.93413,309.186331 C292.937393,292.703619 293.420409,282.655818 293.420409,282.655818 C293.420409,282.655818 257.544198,260.533603 254.143978,265.814687 C250.743759,271.09589 241,307.136277 241,307.136277 L247.496908,308.920358 C247.496908,308.920358 259.917253,291.971473 261.05066,277.501502 C264.248367,288.055059 267.228366,313.274959 291.830221,313.998254 C293.051588,314.034251 294.223337,313.51211 295.019737,312.578213 C295.816137,311.644674 296.154212,310.397205 295.93413,309.186331" id="Fill-230" fill="#1179C5"></path>
                    <g id="Group-234" transform="translate(217.000000, 305.000000)">
                        <mask id="mask-61" fill="white">
                            <use xlink:href="#path-60"></use>
                        </mask>
                        <g id="Clip-233"></g>
                        <polygon id="Fill-232" fill="#FFB48D" mask="url(#mask-61)" points="0.0802622951 4.86423881 3.52380328 7.99952239 7.9064918 4.22304478 4.61940984 0.0903880597"></polygon>
                    </g>
                    <g id="Group-237" transform="translate(302.000000, 227.000000)">
                        <mask id="mask-63" fill="white">
                            <use xlink:href="#path-62"></use>
                        </mask>
                        <g id="Clip-236"></g>
                        <path d="M0.0573529412,2.8885 L0.78,14.086125 C0.832218487,14.8945 1.24461345,15.605 1.84632773,15.886 L1.84632773,15.886 C7.10837815,18.342 10.9440336,15.81475 12.4117227,14.543875 L12.4117227,14.543875 C12.8129748,14.1965 12.9854706,13.55875 12.8457479,12.97 L12.8457479,12.97 L9.79752101,0.116125 L0.0573529412,2.8885 Z" id="Fill-235" fill="#FFB48D" mask="url(#mask-63)"></path>
                    </g>
                    <g id="Group-240" transform="translate(293.000000, 212.000000)">
                        <mask id="mask-65" fill="white">
                            <use xlink:href="#path-64"></use>
                        </mask>
                        <g id="Clip-239"></g>
                        <path d="M0.0423519553,6.00831658 C0.0423519553,6.00831658 0.684201117,17.2528894 4.72030726,21.0334422 L4.72030726,21.0334422 C8.75641341,24.813995 17.4192067,22.9506482 20.9950726,14.8148894 L20.9950726,14.8148894 L16.5550391,0.0172211055 L0.0423519553,6.00831658 Z" id="Fill-238" fill="#FFB48D" mask="url(#mask-65)"></path>
                    </g>
                    <path d="M306.856751,222.279988 C306.520876,222.359276 306.196522,222.115101 306.174526,221.763185 C306.10749,220.693388 305.894513,218.568913 305.229395,217.076602 C305.229395,217.076602 305.764631,215.61084 301.456089,217.519593 C297.147662,219.428227 290.682462,222.219986 287.205345,219.918243 C283.815165,217.674003 281.029468,207.62522 290.265236,210.247926 C290.616474,210.347572 290.969108,210.085182 290.973298,209.712313 C290.991453,208.10226 291.453603,204.434877 295.195952,203.571516 C298.697974,202.763275 300.433565,204.500832 301.123471,205.518484 C301.32644,205.81778 301.747041,205.848852 301.98667,205.579558 C303.121967,204.304516 306.138098,201.643 310.068403,203.840334 C313.305542,205.650155 313.652008,207.815227 313.486398,209.131103 C313.43263,209.557427 313.832981,209.884461 314.228211,209.738385 C315.2988,209.342896 316.976898,209.235392 318.394536,211.408321 C320.354393,214.412348 317.015071,216.577657 316.021061,217.134938 C315.858244,217.226369 315.747798,217.391494 315.731039,217.580666 C315.600227,219.042738 315.099323,225.557357 311.673297,228.883538 C311.376642,229.171524 310.630174,228.882466 310.504483,228.484239 L308.586756,222.407968 C308.49784,222.125816 308.212358,221.960215 307.930017,222.026884 L306.856751,222.279988 Z" id="Fill-241" fill="#4A2009"></path>
                    <g id="Group-245" transform="translate(307.000000, 218.000000)">
                        <mask id="mask-67" fill="white">
                            <use xlink:href="#path-66"></use>
                        </mask>
                        <g id="Clip-244"></g>
                        <path d="M0.0101463415,4.61447619 L0.267804878,7.93384127 C2.47014634,7.28215873 5.1355122,2.87657143 3.40292683,0.548190476 L3.40292683,0.548190476 C3.136,0.189460317 2.87092683,0.0378412698 2.61326829,0.0378412698 L2.61326829,0.0378412698 C1.19834146,0.0380952381 0.0101463415,4.61447619 0.0101463415,4.61447619" id="Fill-243" fill="url(#linearGradient-68)" mask="url(#mask-67)"></path>
                    </g>
                    <g id="Group-248" transform="translate(205.000000, 308.000000)">
                        <mask id="mask-70" fill="white">
                            <use xlink:href="#path-69"></use>
                        </mask>
                        <g id="Clip-247"></g>
                        <path d="M8.78429299,1.30214286 C5.40640764,0.688428571 2.50509554,2.04628571 0.550031847,3.42642857 L0.550031847,3.42642857 C0.123076433,3.72785714 -0.0821719745,4.32828571 0.0465923567,4.89571429 L0.0465923567,4.89571429 C0.175356688,5.46314286 0.607031847,5.86114286 1.10442038,5.871 L1.10442038,5.871 C4.92983439,5.94571429 11.2115732,6.02114286 14.3934076,5.79642857 L14.3934076,5.79642857 C19.1597452,5.45957143 19.8818662,5.62142857 17.8097771,2.22471429 L17.8097771,2.22471429 C16.8209299,2.23785714 12.660051,0.0801428571 12.660051,0.0801428571 L12.660051,0.0801428571 L8.78429299,1.30214286 Z" id="Fill-246" fill="url(#linearGradient-71)" mask="url(#mask-70)"></path>
                    </g>
                    <g id="Group-251" transform="translate(232.000000, 240.000000)">
                        <mask id="mask-73" fill="white">
                            <use xlink:href="#path-72"></use>
                        </mask>
                        <g id="Clip-250"></g>
                        <path d="M0.173366834,2.16159924 L9.1179397,28.2484542 C9.40619095,29.0888855 10.1431156,29.682855 11.0085628,29.7724237 L11.0085628,29.7724237 L21.6464673,30.9816603 L22.9545779,30.1347214 L14.9534673,2.81839695 C14.6270754,1.70405344 13.6600352,0.913435115 12.5261005,0.833923664 L12.5261005,0.833923664 L1.72361307,0.0773816794 C1.68709045,0.074778626 1.65079899,0.0734770992 1.61485427,0.0734770992 L1.61485427,0.0734770992 C0.572457286,0.0734770992 -0.179145729,1.13386641 0.173366834,2.16159924" id="Fill-249" fill="#8CCEFF" mask="url(#mask-73)"></path>
                    </g>
                    <g id="Group-254" transform="translate(253.000000, 269.000000)">
                        <mask id="mask-75" fill="white">
                            <use xlink:href="#path-74"></use>
                        </mask>
                        <g id="Clip-253"></g>
                        <path d="M23.8336047,0.0260714286 L1.0294186,0.734071429 C0.465697674,0.7515 0.031744186,1.04642857 0.0602325581,1.39278571 L0.0602325581,1.39278571 C0.0879069767,1.72821429 0.539418605,1.98892857 1.08011628,1.98892857 L1.08011628,1.98892857 C1.09755814,1.98892857 1.115,1.98871429 1.13255814,1.98807143 L1.13255814,1.98807143 L23.9368605,1.28 C24.5005814,1.26257143 24.9345349,0.967642857 24.9060465,0.621428571 L24.9060465,0.621428571 C24.8787209,0.288857143 24.4332558,0.0246428571 23.9005814,0.0246428571 L23.9005814,0.0246428571 C23.8783721,0.0246428571 23.8561628,0.0251428571 23.8336047,0.0260714286" id="Fill-252" fill="#8CCEFF" mask="url(#mask-75)"></path>
                    </g>
                    <g id="Group-257" transform="translate(257.000000, 263.000000)">
                        <mask id="mask-77" fill="white">
                            <use xlink:href="#path-76"></use>
                        </mask>
                        <g id="Clip-256"></g>
                        <path d="M6.57839634,0.137086093 C2.77161585,0.520092715 0.00963109756,5.71219868 0.00963109756,5.71219868 L0.00963109756,5.71219868 L7.35601829,5.56116556 C7.35601829,5.56116556 17.5555884,17.968649 38.8789573,17.968649 L38.8789573,17.968649 C39.476561,13.2122384 34.5987073,9.17737748 31.739936,4.8893245 L31.739936,4.8893245 C31.739936,4.8893245 27.1676616,10.7940397 14.0828049,3.16513907 L14.0828049,3.16513907 C14.0828049,3.16513907 10.7679238,0.107046358 7.18408537,0.107046358 L7.18408537,0.107046358 C6.98290244,0.107046358 6.7808872,0.116701987 6.57839634,0.137086093" id="Fill-255" fill="#FFB48D" mask="url(#mask-77)"></path>
                    </g>
                    <path d="M306.291837,239.330781 C303.548631,239.929679 300.505024,242.810137 298.352778,245.236447 C296.625825,247.18301 295.377007,249.450491 294.64522,251.941031 C292.996414,257.552426 289.387974,268.532376 287,269.582164 C292.40686,277.209007 293.318255,279.704899 293.318255,279.704899 C292.302001,288.805541 290.173304,290.626088 290.173304,290.626088 C290.173304,290.626088 300.734659,301.037393 313.525236,304 C325.174196,295.482432 326.955863,271.11577 326.955863,271.11577 C327.868078,242.215311 314.428078,237.554101 306.291837,239.330781" id="Fill-258" fill="#F7941D"></path>
                    <g id="Group-262" transform="translate(294.000000, 259.000000)">
                        <mask id="mask-79" fill="white">
                            <use xlink:href="#path-78"></use>
                        </mask>
                        <g id="Clip-261"></g>
                        <path d="M12.4462645,0.214795699 C9.85539669,12.0932581 0.226909091,21.3478065 0.13,21.4401828 L0.13,21.4401828 C0.0292231405,21.5359892 0.0179421488,21.7035914 0.10507438,21.8145376 L0.10507438,21.8145376 C0.152561983,21.8755699 0.220033058,21.9066774 0.28761157,21.9066774 L0.28761157,21.9066774 C0.343694215,21.9066774 0.39977686,21.8856237 0.445115702,21.8420968 L0.445115702,21.8420968 C0.543421488,21.749129 10.2876198,12.3864731 12.9153388,0.338870968 L12.9153388,0.338870968 C12.9464959,0.196107527 12.8668843,0.0526344086 12.7372066,0.0184516129 L12.7372066,0.0184516129 C12.7185124,0.0136021505 12.6998182,0.0112365591 12.6813388,0.0112365591 L12.6813388,0.0112365591 C12.5725041,0.0112365591 12.473124,0.0929677419 12.4462645,0.214795699" id="Fill-260" fill="url(#linearGradient-80)" mask="url(#mask-79)"></path>
                    </g>
                    <g id="Group-267" transform="translate(220.000000, 243.000000)">
                        <path d="M93.7630706,61.390309 C93.7630706,61.390309 88.4975412,77.0592907 62.5088353,68.2762493 C49.9075412,64.0175444 32.2624824,39.3273239 32.2624824,39.3273239 C32.2624824,39.3273239 27.9096588,51.2721614 5.16271765,67.2926108 L0.108011765,62.7487285 C0.108011765,62.7487285 23.1356588,23.0259358 34.9302471,27.1481746 C46.7249529,31.2702957 97.3669529,51.2254167 93.7630706,61.390309" id="Fill-263" fill="#2C94E0"></path>
                        <polygon id="Fill-265" fill="#BDD0FB" points="15.0954471 0.0440953566 23.9614471 24.7789411 33.3772118 24.5335614 25.8714471 0.803077114"></polygon>
                    </g>
                </g>
            </g>
        </g>
    </g>
</svg>