<?xml version="1.0" encoding="UTF-8"?>
<svg width="250px" height="211px" viewBox="0 0 250 211" version="1.1" xmlns="http://www.w3.org/2000/svg" xmlns:xlink="http://www.w3.org/1999/xlink">
    <title>E5B0F59C-7223-4C80-BA94-1DE6E813A8B0@1x</title>
    <defs>
        <path d="M22.6044802,2.71772136 L0.199393939,67.4981053 L62.4024149,71.9264396 C62.7350303,71.9750341 63.066331,71.9991084 63.3947832,72 L63.3947832,72 L63.4285268,72 C66.2805175,71.9930898 68.8960839,70.2267492 69.9752214,67.4666749 L69.9752214,67.4666749 L93.6956503,6.77803096 C93.8450862,6.40710836 93.915641,6.02749226 93.9173939,5.65656966 L93.9173939,5.65656966 L93.9173939,5.6291517 C93.9110396,4.14590712 92.8071422,2.80198142 91.2365315,2.65976471 L91.2365315,2.65976471 C77.0271935,1.37334985 37.3063869,0.375380805 26.4004149,0.119702786 L26.4004149,0.119702786 C26.3697389,0.118588235 26.3395012,0.118588235 26.3090443,0.118588235 L26.3090443,0.118588235 C24.6672214,0.118588235 23.1903916,1.15043963 22.6044802,2.71772136" id="path-1"></path>
        <linearGradient x1="100%" y1="50%" x2="-2.22044605e-14%" y2="50%" id="linearGradient-3">
            <stop stop-color="#57C6F2" offset="0%"></stop>
            <stop stop-color="#2C94E0" offset="100%"></stop>
        </linearGradient>
        <path d="M0.0836327543,3.7944 C0.0836327543,5.01264 0.981975186,6 2.09016377,6 L2.09016377,6 L83.6172506,6 C85.3014789,6 86.6664615,4.49952 86.6664615,2.6484 L86.6664615,2.6484 L87.9491216,1.0104 L3.2977072,0.2136 C1.51565261,0.24024 0.0836327543,1.83552 0.0836327543,3.7944" id="path-4"></path>
        <polygon id="path-6" points="0 0.205814974 70.6537948 0.205814974 70.6537948 53.1316143 0 53.1316143"></polygon>
        <linearGradient x1="50%" y1="-2.48949813e-15%" x2="50%" y2="100%" id="linearGradient-8">
            <stop stop-color="#57C6F2" offset="0%"></stop>
            <stop stop-color="#2C94E0" offset="100%"></stop>
        </linearGradient>
        <path d="M61.4848801,0.0388235294 L2.77986301,3.20933824 C1.17400685,3.29625 -0.0391780822,4.68441176 0.102842466,6.27132353 L0.102842466,6.27132353 L3.32167808,42.2135294 C3.46169521,43.7746324 4.86030822,44.9225735 6.43433219,44.7675 L6.43433219,44.7675 L62.3060616,39.2688971 C63.7725685,39.1246324 64.8846918,37.8939706 64.8679644,36.4336765 L64.8679644,36.4336765 L64.482226,2.82 C64.4644178,1.26882353 63.1884589,0.0346323529 61.6422603,0.0346323529 L61.6422603,0.0346323529 C61.5901712,0.0346323529 61.537637,0.0361764706 61.4848801,0.0388235294" id="path-9"></path>
        <linearGradient x1="-6.39046862e-05%" y1="50.0002709%" x2="100.00006%" y2="50.0002709%" id="linearGradient-11">
            <stop stop-color="#E9F9FF" offset="0%"></stop>
            <stop stop-color="#E8EFFD" offset="100%"></stop>
        </linearGradient>
        <linearGradient x1="50%" y1="-2.48949813e-15%" x2="50%" y2="100%" id="linearGradient-12">
            <stop stop-color="#57C6F2" offset="0%"></stop>
            <stop stop-color="#2C94E0" offset="100%"></stop>
        </linearGradient>
        <path d="M0.0947588198,3.52275 L0.956304985,45.5864062 C0.993914956,47.4134062 2.5233871,48.8584688 4.35967742,48.80225 L4.35967742,48.80225 L69.554912,46.802875 C71.2660557,46.7501562 72.6532258,45.4061562 72.7504399,43.7060312 L72.7504399,43.7060312 L74.9876833,4.57428125 C75.0943548,2.7076875 73.6154692,1.1291875 71.7358504,1.10359375 L71.7358504,1.10359375 L3.44252199,0.1715 C3.4271261,0.1715 3.41195015,0.1715 3.39655425,0.1715 L3.39655425,0.1715 C1.54992669,0.1715 0.0578445748,1.680875 0.0947588198,3.52275" id="path-13"></path>
        <linearGradient x1="4.89908754e-05%" y1="49.9999762%" x2="100.000057%" y2="49.9999762%" id="linearGradient-15">
            <stop stop-color="#E9F9FF" offset="0%"></stop>
            <stop stop-color="#E8EFFD" offset="100%"></stop>
        </linearGradient>
        <polygon id="path-16" points="0.0180033488 0.150868167 92.2761319 0.150868167 92.2761319 63.5460875 0.0180033488 63.5460875"></polygon>
        <linearGradient x1="50%" y1="-2.48949813e-15%" x2="50%" y2="100%" id="linearGradient-18">
            <stop stop-color="#57C6F2" offset="0%"></stop>
            <stop stop-color="#2C94E0" offset="100%"></stop>
        </linearGradient>
        <path d="M0.159356201,3.80787097 L0.159356201,50.2576694 C0.159356201,52.2752661 1.83581003,53.9050645 3.88926649,53.8841465 L3.88926649,53.8841465 L76.7897414,53.1336048 C78.703124,53.1140081 80.2836095,51.6610161 80.4309974,49.7869113 L80.4309974,49.7869113 L83.8260158,6.642 C83.9880317,4.58412097 82.3714195,2.80865323 80.2716412,2.73832258 L80.2716412,2.73832258 L3.97636939,0.183774194 C3.93337203,0.182467742 3.89059631,0.181596774 3.84804222,0.181596774 L3.84804222,0.181596774 C1.81940897,0.181596774 0.159356201,1.79898387 0.159356201,3.80787097" id="path-19"></path>
        <filter id="filter-21">
            <feColorMatrix in="SourceGraphic" type="matrix" values="0 0 0 0 0.549020 0 0 0 0 0.807843 0 0 0 0 1.000000 0 0 0 1.000000 0"></feColorMatrix>
        </filter>
        <path d="M0.194147059,3.40820408 L20.4143039,10.9937143 C20.4143039,10.9937143 23.2263922,10.7443061 22.8507255,7.62883673 L22.8507255,7.62883673 L1.81497059,0.0271632653 L0.194147059,3.40820408 Z" id="path-22"></path>
        <linearGradient x1="-166.856462%" y1="-58.0461312%" x2="78.0735372%" y2="64.0495111%" id="linearGradient-24">
            <stop stop-color="#3F42E2" offset="0%"></stop>
            <stop stop-color="#4F52FF" offset="100%"></stop>
        </linearGradient>
        <path d="M0.217615385,1.802 L4.12176923,4.7955 C4.12176923,4.7955 6.41469231,3.112 5.78053846,1.03025 L5.78053846,1.03025 L0.629538462,0.15175 C0.555,0.64925 0.426,1.2085 0.217615385,1.802" id="path-25"></path>
        <linearGradient x1="-107.43838%" y1="-124.162107%" x2="389.283942%" y2="380.322287%" id="linearGradient-27">
            <stop stop-color="#FF918E" offset="0%"></stop>
            <stop stop-color="#FDB3B1" offset="100%"></stop>
        </linearGradient>
        <path d="M2.5886,1.8416 C2.7692,1.3668 2.881,0.9194 2.9456,0.5214 L2.9456,0.5214 L0.088,0.0718 L2.5886,1.8416 Z" id="path-28"></path>
        <linearGradient x1="-359.042664%" y1="-291.891222%" x2="91.6441139%" y2="69.0450006%" id="linearGradient-30">
            <stop stop-color="#3F42E2" offset="0%"></stop>
            <stop stop-color="#4F52FF" offset="100%"></stop>
        </linearGradient>
        <path d="M0.0576989796,5.57082723 C2.88780102,15.6675393 9.86696429,26.8749424 25.9169337,34.1594136 L25.9169337,34.1594136 C26.8293673,34.5736963 27.5640969,35.3002304 27.9780816,36.2143351 L27.9780816,36.2143351 C30.8746582,42.6082304 42.1002908,68.7460838 39.1177143,83.6112251 L39.1177143,83.6112251 C39.1177143,83.6112251 55.2751837,84.579644 63.8769388,83.4060628 L63.8769388,83.4060628 C64.2830255,83.3506492 64.5032908,82.8835916 64.5015357,82.4728272 L64.5015357,82.4728272 C64.4907857,79.4490471 64.7555867,66.3281152 69.7209898,50.5611832 L69.7209898,50.5611832 C69.9059337,49.9734031 70.0581888,49.3761675 70.1812653,48.7729948 L70.1812653,48.7729948 C73.7838316,56.3842304 73.6429847,62.5909948 71.9240816,67.4480419 L71.9240816,67.4480419 C73.8430663,69.5009843 76.6683418,71.2750995 78.6566531,72.3813927 L78.6566531,72.3813927 C94.2072959,53.115267 80.9720714,33.9955916 74.9632602,27.0319476 L74.9632602,27.0319476 C73.4512398,25.2793822 71.3484082,24.1506597 69.0553673,23.8612775 L69.0553673,23.8612775 C61.4018061,22.8948377 42.3569745,20.4190366 31.7508929,18.4155707 L31.7508929,18.4155707 C20.2635306,16.245644 13.2034133,8.148 8.94992347,0.213078534 L8.94992347,0.213078534 C6.30279082,0.835602094 2.5065051,2.27481675 0.0576989796,5.57082723" id="path-31"></path>
        <linearGradient x1="44.9401265%" y1="21.3938069%" x2="137.848233%" y2="220.70236%" id="linearGradient-33">
            <stop stop-color="#F7941D" offset="0%"></stop>
            <stop stop-color="#FF918E" offset="100%"></stop>
        </linearGradient>
        <path d="M1.07440816,0.0893714286 C1.07440816,0.0893714286 -1.65673469,10.6582 1.85495918,22.8541143 L1.85495918,22.8541143 C4.36071429,19.5708095 8.24528571,18.1371429 10.9539796,17.517019 L10.9539796,17.517019 C6.10073469,8.7027619 4.81934694,0.0893714286 4.81934694,0.0893714286 L4.81934694,0.0893714286 L1.07440816,0.0893714286 Z" id="path-34"></path>
        <path d="M1.18159091,0.175298507 L0.280227273,3.18179104 C0.0431818182,3.97253731 0.0752272727,4.81813433 0.371363636,5.58985075 L0.371363636,5.58985075 L3.92340909,14.8403731 L5.59045455,14.8403731 C5.59045455,14.8403731 11.3629545,7.47537313 9.48681818,3.63895522 L9.48681818,3.63895522 C7.91613636,0.426716418 3.15386364,0.165447761 1.64522727,0.165447761 L1.64522727,0.165447761 C1.35181818,0.165447761 1.18159091,0.175298507 1.18159091,0.175298507" id="path-36"></path>
        <path d="M0.00372413793,11.6652812 C4.96903448,15.3691562 11.7957931,13.1954375 11.7957931,13.1954375 L11.7957931,13.1954375 L10.608,0.36509375 L3.49427586,0.004375 L0.00372413793,11.6652812 Z" id="path-38"></path>
        <path d="M7.40720513,0.622581395 C7.23415385,0.787616279 0.102435897,14.9841512 0.102435897,14.9841512 L0.102435897,14.9841512 L8.1855,18.9392442 L16.9169615,6.50219767 C16.9169615,6.50219767 12.0024359,0.0771046512 8.79052564,0.0768837209 L8.79052564,0.0768837209 C8.27682051,0.0768837209 7.80670513,0.241255814 7.40720513,0.622581395" id="path-40"></path>
        <path d="M6.76472727,4.54935385 C5.98712727,7.15593846 9.89061818,8.99790769 12.3458182,9.30526154 L12.3458182,9.30526154 C14.1499636,9.5312 15.1385455,11.4744 15.5362909,12.4901538 L15.5362909,12.4901538 C15.6809455,12.8586769 15.6456,13.2702769 15.4396364,13.6092923 L15.4396364,13.6092923 L11.4037091,20.2502462 C11.3426182,20.3510462 11.2695273,20.4421538 11.1826909,20.5222769 L11.1826909,20.5222769 C10.7020364,20.9638154 9.05825455,22.2477231 7.78778182,20.4994462 L7.78778182,20.4994462 C6.70450909,19.0096308 5.68843636,17.6550769 4.59949091,17.0965846 L4.59949091,17.0965846 C3.96370909,16.7702769 3.18130909,17.0306769 2.85818182,17.6624 L2.85818182,17.6624 C2.19338182,18.9633231 0.905454545,21.6153538 0.0964363636,24.1301846 L0.0964363636,24.1301846 C-0.106254545,24.7601846 0.2232,25.4369231 0.844145455,25.6852615 L0.844145455,25.6852615 C2.48225455,26.3404615 5.72072727,27.5257231 8.5944,27.9172923 L8.5944,27.9172923 C9.06632727,27.9814769 9.53367273,27.7848308 9.81469091,27.4048923 L9.81469091,27.4048923 C11.0509091,25.7330769 14.5354909,21.0605231 15.7250182,19.8909846 L15.7250182,19.8909846 C16.8298909,18.8045846 18.8688,19.2142462 19.7875636,19.4748615 L19.7875636,19.4748615 C20.1364364,19.5737231 20.508,19.5263385 20.8184727,19.3413231 L20.8184727,19.3413231 C21.7512,18.7871385 23.3777455,17.4065231 21.8895273,15.0696 L21.8895273,15.0696 C21.5194909,14.4882769 21.708,13.7146154 22.2890182,13.3372615 L22.2890182,13.3372615 C23.3299636,12.6613846 24.4592727,11.3925538 23.3832,9.338 L23.3832,9.338 C22.2938182,7.25803077 20.3489455,7.07150769 19.0239273,7.23132308 L19.0239273,7.23132308 C18.4376727,7.30218462 17.8424727,6.99870769 17.6175273,6.45938462 L17.6175273,6.45938462 C17.5176,6.21987692 17.3197091,6.01526154 16.9516364,5.9416 L16.9516364,5.9416 C16.2571636,5.80246154 15.8013818,5.17569231 15.9377455,4.48926154 L15.9377455,4.48926154 C16.1714182,3.3124 15.9955636,1.78338462 14.0919273,0.750184615 L14.0919273,0.750184615 C13.3389818,0.3416 12.6063273,0.164553846 11.9120727,0.164553846 L11.9120727,0.164553846 C9.38749091,0.164553846 7.37476364,2.50492308 6.76472727,4.54935385" id="path-42"></path>
        <path d="M0.0267857143,4.59444444 C0.0267857143,4.59444444 1.56342857,7.41 4.57221429,4.59044444 L4.57221429,4.59044444 C6.99085714,2.32377778 5.45507143,0.307555556 3.50335714,0.137777778 L3.50335714,0.137777778 C3.468,0.134666667 3.43328571,0.133111111 3.39814286,0.133111111 L3.39814286,0.133111111 C1.497,0.133555556 0.0267857143,4.59444444 0.0267857143,4.59444444" id="path-44"></path>
        <path d="M1.89138462,0.192216216 C1.90153846,0.276540541 2.88530769,8.69016216 0.177923077,15.6313514 L0.177923077,15.6313514 L0.899769231,15.8784865 C3.67038462,8.7747027 2.66538462,0.196324324 2.655,0.110486486 L2.655,0.110486486 L1.89138462,0.192216216 Z" id="path-46"></path>
        <linearGradient x1="35.6057071%" y1="-96.472508%" x2="59.465637%" y2="146.706521%" id="linearGradient-48">
            <stop stop-color="#E1463D" offset="0%"></stop>
            <stop stop-color="#E86059" offset="100%"></stop>
        </linearGradient>
        <path d="M0.00241758242,16.8389474 L8.33208791,16.5481579 L8.90087912,15.4002105 C14.2294505,11.7322368 16.9217582,8.92343421 19.8962637,5.18119737 L19.8962637,5.18119737 C17.9043956,4.05584211 15.0740659,2.25115789 13.1516484,0.162842105 L13.1516484,0.162842105 C9.92461538,9.42090789 0.00241758242,16.8389474 0.00241758242,16.8389474" id="path-49"></path>
        <path d="M66.8820303,0.087077748 C56.0786242,0.335737265 16.7315455,1.30616622 2.65566667,2.55753351 L2.65566667,2.55753351 C0.701351515,2.73112601 -0.523430303,4.74930295 0.219630303,6.56310992 L0.219630303,6.56310992 L23.7170667,65.5907507 C24.7864727,68.2772118 27.3805152,69.9956836 30.2080909,70 L30.2080909,70 L30.2295091,70 C30.5569818,70 30.8870848,69.9759786 31.2186909,69.928311 L31.2186909,69.928311 L92.8367333,65.3835657 L70.6422364,2.61383378 C70.0620667,1.08941019 68.5996182,0.0859517426 66.9733394,0.0859517426 L66.9733394,0.0859517426 C66.942903,0.0859517426 66.9126545,0.0859517426 66.8820303,0.087077748" id="path-51"></path>
        <linearGradient x1="-2.22044605e-14%" y1="50%" x2="100%" y2="50%" id="linearGradient-53">
            <stop stop-color="#57C6F2" offset="0%"></stop>
            <stop stop-color="#2C94E0" offset="100%"></stop>
        </linearGradient>
        <path d="M0.147296137,0.711071429 L1.42839485,2.11910714 C1.42839485,3.71017857 2.79239485,5 4.4751588,5 L4.4751588,5 L85.928412,5 C87.0357768,5 87.9335279,4.15107143 87.9335279,3.10410714 L87.9335279,3.10410714 C87.9335279,1.42017857 86.502867,0.0489285714 84.7220944,0.0260714286 L84.7220944,0.0260714286 L0.147296137,0.711071429 Z" id="path-54"></path>
        <path d="M34.1310541,2.61478209 C18.9911892,2.3659791 2.28635135,6.56610448 2.28635135,6.56610448 L2.28635135,6.56610448 C-2.22656757,32.741194 1.49724324,62.9319224 1.49724324,62.9319224 L1.49724324,62.9319224 C23.3852973,63.2967582 25.9847568,62.0871582 25.9847568,62.0871582 L25.9847568,62.0871582 C27.933027,51.1467851 37.4768649,19.3334776 37.4768649,19.3334776 L37.4768649,19.3334776 C44.873973,18.4206358 50.9675676,16.2993224 55.9858108,13.4946 L55.9858108,13.4946 C52.1579459,9.08422388 50.3534595,3.47195821 49.5698378,0.154585075 L49.5698378,0.154585075 C44.2169189,1.80819403 38.8004324,2.69151045 34.1310541,2.61478209" id="path-56"></path>
        <path d="M25.6270194,0.37715847 C23.4235806,9.61902732 11.8711032,17.1129617 0.00224516129,20.7756721 L0.00224516129,20.7756721 C0.7772,24.0530492 2.56172903,29.5976503 6.34725806,33.9548525 L6.34725806,33.9548525 C26.0446194,22.9570601 28.9592129,1.30686339 28.9592129,1.30686339 L28.9592129,1.30686339 C28.2033419,0.400382514 27.3443806,0.179846995 26.6878581,0.179846995 L26.6878581,0.179846995 C26.0666968,0.179846995 25.6270194,0.37715847 25.6270194,0.37715847" id="path-58"></path>
        <linearGradient x1="88.0110184%" y1="36.4817348%" x2="191.545335%" y2="-5.3249668%" id="linearGradient-60">
            <stop stop-color="#A12A24" offset="0%"></stop>
            <stop stop-color="#BF423B" offset="100%"></stop>
        </linearGradient>
        <path d="M9.48132075,0.1836 C9.48132075,0.1836 3.51415094,5.44944444 0.436415094,9.65014444 L0.436415094,9.65014444 C-0.141509434,10.4389444 0.446603774,14.5867556 0.483584906,15.555 L0.483584906,15.555 C1.54169811,17.5749778 3.33886792,16.8230111 3.18396226,16.3288778 L3.18396226,16.3288778 C3.18396226,16.3288778 4.95264151,16.3156556 6.19301887,14.5510556 L6.19301887,14.5510556 C6.84849057,13.6188889 7.54188679,12.4273778 8.05,11.5108889 L8.05,11.5108889 C8.55622642,10.5979889 8.71660377,9.52566667 8.45433962,8.52228889 L8.45433962,8.52228889 C8.10830189,7.19742222 7.36981132,6.27262222 6.76415094,5.17725556 L6.76415094,5.17725556 L9.6590566,2.15843333 C9.6590566,2.15843333 10.4898113,1.17998889 9.48132075,0.1836 Z" id="path-61"></path>
        <linearGradient x1="26.6845799%" y1="65.8095239%" x2="171.159766%" y2="-20.1460357%" id="linearGradient-63">
            <stop stop-color="#A12A24" offset="0%"></stop>
            <stop stop-color="#BF423B" offset="100%"></stop>
        </linearGradient>
        <path d="M0.897217391,2.26728205 L0.13373913,4.38523077 L2.30173913,6.86735897 C2.30173913,6.86735897 3.03043478,2.66484615 3.57234783,1.75538462 L3.57234783,1.75538462 C4.11408696,0.84574359 3.83304348,0.406 3.32869565,0.14 L3.32869565,0.14 L0.897217391,2.26728205 Z" id="path-64"></path>
        <linearGradient x1="28.8958789%" y1="-299.916691%" x2="83.4016487%" y2="569.856514%" id="linearGradient-66">
            <stop stop-color="#A12A24" offset="0%"></stop>
            <stop stop-color="#BF423B" offset="100%"></stop>
        </linearGradient>
        <path d="M0.00857627119,21.6595149 C2.64186441,21.8535448 7.43320339,22.5389925 12.1231186,24.9087687 L12.1231186,24.9087687 C13.1539492,19.236194 21.9587966,14.6274254 21.9587966,14.6274254 L21.9587966,14.6274254 L16.2361864,0.170708955 C16.2361864,0.170708955 2.30049153,9.64589552 0.00857627119,21.6595149" id="path-67"></path>
        <path d="M2.19877665,11.479198 C11.5145127,28.5479703 36.8508731,10.5357822 36.8508731,10.5357822 L36.8508731,10.5357822 L34.7649746,6.6430396 C34.7649746,6.6430396 19.0029746,15.5653267 13.6845533,7.94689109 L13.6845533,7.94689109 C12.5803756,6.36518812 12.3164924,4.79289109 12.588264,3.29414851 L12.588264,3.29414851 C7.86372081,0.904663366 3.03700508,0.213514851 0.384274112,0.0178712871 L0.384274112,0.0178712871 C-0.31177665,3.66963366 0.0561573604,7.55372277 2.19877665,11.479198" id="path-69"></path>
        <linearGradient x1="52.5866346%" y1="41.2696945%" x2="-0.511443152%" y2="114.486083%" id="linearGradient-71">
            <stop stop-color="#A12A24" offset="0%"></stop>
            <stop stop-color="#BF423B" offset="100%"></stop>
        </linearGradient>
        <path d="M0.246774194,3.47818182 C-0.251225806,5.17054545 0.983612903,9.94054545 0.983612903,9.94054545 L0.983612903,9.94054545 C3.0603871,10.2174545 4.30548387,9.38581818 5.2083871,8.55418182 L5.2083871,8.55418182 C6.17825806,7.66072727 6.75309677,6.76709091 7.54025806,7.24854545 L7.54025806,7.24854545 C9.05941935,8.17836364 9.94625806,6.72890909 9.94625806,6.72890909 L9.94625806,6.72890909 L8.53625806,5.26727273 C10.6014194,6.21036364 10.8181935,4.44509091 10.8181935,4.44509091 L10.8181935,4.44509091 L9.30212903,3.34327273 C11.7470323,4.05436364 11.9386452,1.85 11.9386452,1.85 L11.9386452,1.85 C11.9386452,1.85 8.14393548,0.577090909 4.92696774,0.0936363636 L4.92696774,0.0936363636 C4.61670968,0.0469090909 4.32793548,0.0250909091 4.05793548,0.0250909091 L4.05793548,0.0250909091 C1.52864516,0.0252727273 0.696774194,1.94909091 0.246774194,3.47818182" id="path-72"></path>
        <linearGradient x1="45.304978%" y1="43.0058495%" x2="276.3787%" y2="-44.0663149%" id="linearGradient-74">
            <stop stop-color="#A12A24" offset="0%"></stop>
            <stop stop-color="#BF423B" offset="100%"></stop>
        </linearGradient>
        <path d="M5.00297468,0.176188235 L0.168227848,14.0370824 C0.0881012658,14.2667294 0.183417722,14.5210353 0.397974684,14.6384941 L0.397974684,14.6384941 C1.71588608,15.3607529 6.46386076,17.4488471 12.1856962,13.8524235 L12.1856962,13.8524235 C12.7817089,13.4778353 13.1874684,12.8668235 13.278038,12.1728 L13.278038,12.1728 L14.8435443,0.176188235 L5.00297468,0.176188235 Z" id="path-75"></path>
        <linearGradient x1="27.0684833%" y1="99.4062543%" x2="141.128559%" y2="-110.102788%" id="linearGradient-77">
            <stop stop-color="#A12A24" offset="0%"></stop>
            <stop stop-color="#BF423B" offset="100%"></stop>
        </linearGradient>
        <path d="M0.0907912088,3.7881978 L4.04095604,14.404978 C9.69392308,17.6304945 16.1673736,17.9157582 16.8369121,13.9441099 L16.8369121,13.9441099 C17.5064505,9.97227473 12.2831538,0.139736264 12.2831538,0.139736264 L12.2831538,0.139736264 L0.0907912088,3.7881978 Z" id="path-78"></path>
        <linearGradient x1="6360.46567%" y1="3546.14206%" x2="6568.04111%" y2="3661.34806%" id="linearGradient-80">
            <stop stop-color="#A12A24" offset="0%"></stop>
            <stop stop-color="#BF423B" offset="100%"></stop>
        </linearGradient>
        <path d="M15.7545882,2.16737288 C15.5941176,2.37749153 15.2794622,2.38215254 15.1191765,2.17184746 L15.1191765,2.17184746 C14.4273782,1.26350847 12.6084034,-0.621033898 10.0832101,0.521661017 L10.0832101,0.521661017 C7.71996639,1.59071186 7.4537479,3.33710169 7.48610084,4.21728814 L7.48610084,4.21728814 C7.49571429,4.47625424 7.26628571,4.67742373 7.01393277,4.62913559 L7.01393277,4.62913559 C5.81909244,4.39925424 2.95188235,4.20181356 1.61357983,7.16808475 L1.61357983,7.16808475 C0.511176471,9.61120339 1.2277479,10.9944068 1.88035294,11.6706271 L1.88035294,11.6706271 C2.09166387,11.8896949 1.99904202,12.2506441 1.70915966,12.3401356 L1.70915966,12.3401356 C0.923815126,12.5826949 -0.0902184874,13.2540678 0.0112773109,15.1095254 L0.0112773109,15.1095254 C0.151781513,17.6742034 2.99532773,17.4482373 3.80489076,17.3315254 L3.80489076,17.3315254 C3.93763025,17.312322 4.07110924,17.3581864 4.16095798,17.4583051 L4.16095798,17.4583051 C4.85515966,18.2329661 7.98285714,21.5225254 11.3678992,21.9188983 L11.3678992,21.9188983 C11.6611092,21.9533898 11.8881345,21.6614237 11.7921849,21.3800847 L11.7921849,21.3800847 L10.3272437,17.0856102 C10.2592101,16.8863051 10.3536807,16.6672373 10.5448403,16.5820339 L10.5448403,16.5820339 L11.2715798,16.2574407 C11.4987899,16.1556441 11.5827227,15.8752373 11.4466555,15.6653051 L11.4466555,15.6653051 C11.0325378,15.0274915 10.2562521,13.7257627 10.008521,12.5862373 L10.008521,12.5862373 C10.008521,12.5862373 9.07915966,11.9858983 12.3736134,11.1909153 L12.3736134,11.1909153 C15.6678824,10.3955593 20.5807227,9.16132203 21.6134286,6.33338983 L21.6134286,6.33338983 C22.3477479,4.32244068 21.1392269,0.0894915254 18.7937311,0.0894915254 L18.7937311,0.0894915254 C17.9235294,0.0894915254 16.8967395,0.672118644 15.7545882,2.16737288" id="path-81"></path>
        <path d="M0.136551724,1.0624 C-0.114310345,3.363 3.22741379,4.3946 4.88258621,3.537 L4.88258621,3.537 L3.81965517,1.4936 C3.81965517,1.4936 2.12,0.141 1.02534483,0.141 L1.02534483,0.141 C0.564310345,0.141 0.210689655,0.3808 0.136551724,1.0624" id="path-83"></path>
        <linearGradient x1="20663.6343%" y1="10404.059%" x2="21340.0886%" y2="10743.6696%" id="linearGradient-85">
            <stop stop-color="#A12A24" offset="0%"></stop>
            <stop stop-color="#BF423B" offset="100%"></stop>
        </linearGradient>
        <path d="M58.9756756,0.0559646018 C49.4496444,0.276165192 14.7538044,1.13611799 2.34192,2.24480236 L2.34192,2.24480236 C0.618644444,2.39861357 -0.461204444,4.18673746 0.193884444,5.79379941 L0.193884444,5.79379941 L20.9136444,58.0932684 C21.9681644,60.7550619 24.70332,62.3443835 27.5284933,61.9365369 L27.5284933,61.9365369 L81.8624222,58.1203363 L62.2915733,2.29473156 C61.7798933,0.944082596 60.4903067,0.0550501475 59.0560356,0.0550501475 L59.0560356,0.0550501475 C59.0292489,0.0550501475 59.0026444,0.0550501475 58.9756756,0.0559646018" id="path-86"></path>
        <linearGradient x1="50%" y1="-2.48949813e-15%" x2="50%" y2="100%" id="linearGradient-88">
            <stop stop-color="#57C6F2" offset="0%"></stop>
            <stop stop-color="#2C94E0" offset="100%"></stop>
        </linearGradient>
        <path d="M52.4105902,0.0354423077 L1.73051707,1.98221154 C0.601204878,2.00815385 -0.157746341,3.16423077 0.256112195,4.22804808 L0.256112195,4.22804808 L20.7602488,56.9398942 L73.948922,53.3925577 L55.3871951,2.00778846 C54.9246049,0.813528846 53.7873512,0.0330673077 52.5280878,0.0330673077 L52.5280878,0.0330673077 C52.4891024,0.0330673077 52.4497561,0.0337980769 52.4105902,0.0354423077" id="path-89"></path>
        <path d="M0.180150943,0.800769231 L1.30028302,2.17923077 C1.30028302,3.73711538 2.4930566,5 3.96422877,5 L3.96422877,5 L75.179967,5 C76.1480967,5 76.9329882,4.16884615 76.9329882,3.14384615 L76.9329882,3.14384615 C76.9329882,1.49519231 75.6819198,0.1525 74.1252123,0.130192308 L74.1252123,0.130192308 L0.180150943,0.800769231 Z" id="path-91"></path>
        <path d="M53.76353,0.594044025 C48.8545132,1.52222642 44.0949448,3.60822013 40.5034436,7.08366038 L40.5034436,7.08366038 C36.9121247,10.5594654 34.570705,15.4358428 34.6304844,20.4353333 L34.6304844,20.4353333 C34.6707626,23.8175723 35.7584556,27.3043208 34.6751367,30.5085472 L34.6751367,30.5085472 C33.8331223,33.0001761 31.6435204,34.9887736 29.0839424,35.5868302 L29.0839424,35.5868302 C27.3250072,35.9977547 25.5236067,35.782717 23.7141871,35.5676792 L23.7141871,35.5676792 C22.5969688,35.4348994 21.4768345,35.3021195 20.3616211,35.3165283 L20.3616211,35.3165283 C17.4665132,35.354283 14.5952806,36.4287421 12.3854484,38.3007925 L12.3854484,38.3007925 C10.4280384,39.9596289 8.97747722,42.2856478 8.64741487,44.8310818 L8.64741487,44.8310818 C8.31735252,47.3765157 9.20310791,50.1149182 11.1583309,51.7761258 L11.1583309,51.7761258 C12.4953477,52.9122327 14.37694,53.6813711 14.8704844,55.3657421 L14.8704844,55.3657421 C15.4227146,57.2503774 13.8021103,59.1437673 11.9946954,59.9090755 L11.9946954,59.9090755 C10.1872806,60.6742013 8.153506,60.7396792 6.3143789,61.4249182 L6.3143789,61.4249182 C2.44658034,62.8656164 0.0114820144,67.0525597 0,71.1893459 L0,71.1893459 L0,71.2469811 C0,71.4919308 0.00984172662,71.7366981 0.0277026379,71.9807358 L0.0277026379,71.9807358 C0.349199041,76.3626541 3.11928058,80.3292704 6.75251799,82.7964591 L6.75251799,82.7964591 C10.3855731,85.2636478 14.7952134,86.3714843 19.1713189,86.7284214 L19.1713189,86.7284214 C23.5474245,87.0853585 27.9454005,86.7364465 32.3311655,86.5296164 L32.3311655,86.5296164 C37.3477122,86.2930566 42.463952,86.2270314 47.2213333,84.6165283 L47.2213333,84.6165283 C52.0321151,82.9879686 56.1887866,79.8722013 60.0646043,76.5880881 L60.0646043,76.5880881 C61.8997218,75.0330314 63.7607194,73.3316981 64.5846906,71.0711572 L64.5846906,71.0711572 C65.1826667,69.4296478 65.1855827,67.6059308 65.8730456,65.9999874 L65.8730456,65.9999874 C67.34894,62.5535472 71.440729,61.0885912 73.807482,58.1820252 L73.807482,58.1820252 C76.2068585,55.2351509 76.5186954,50.7587547 74.5510791,47.5071069 L74.5510791,47.5071069 C72.9949928,44.9355912 70.2804988,43.2466604 68.6431271,40.7263962 L68.6431271,40.7263962 C66.5805564,37.5513522 66.510024,33.3470818 67.8612566,29.8099937 L67.8612566,29.8099937 C68.9824844,26.8751572 70.9794436,24.3408491 72.1229065,21.4147673 L72.1229065,21.4147673 C73.6616787,17.4760566 73.6906571,15.7820189 72.9895252,11.8281698 L72.9895252,11.8281698 C72.372048,8.34561635 71.0199041,4.6363522 67.6791847,2.639 L67.6791847,2.639 C64.8121439,0.924716981 61.5007674,0.17436478 58.1620528,0.17436478 L58.1620528,0.17436478 C56.6894388,0.17436478 55.2113573,0.32027673 53.76353,0.594044025" id="path-93"></path>
        <path d="M0.0265517241,17.1656364 C0.0265517241,17.1656364 4.83412069,19.3516364 9.45715517,15.8589091 L9.45715517,15.8589091 C9.45715517,15.8589091 10.1353621,3.998 10.863069,1.88345455 L10.863069,1.88345455 L5.02586207,0.114363636 C5.02586207,0.114363636 0.444172414,11.9287273 0.0265517241,17.1656364" id="path-95"></path>
        <path d="M1.34002062,2.11364103 C-1.27394845,4.88958974 1.0527732,13.2382564 1.0527732,13.2382564 L1.0527732,13.2382564 C1.0527732,13.2382564 8.42236082,24.1494615 14.8225979,19.845 L14.8225979,19.845 C21.2228351,15.5405385 10.8707113,0.186666667 10.8707113,0.186666667 L10.8707113,0.186666667 C10.8707113,0.186666667 9.87419588,0.0644358974 8.49474227,0.0644358974 L8.49474227,0.0644358974 C6.23987629,0.0644358974 2.96168041,0.391282051 1.34002062,2.11364103" id="path-97"></path>
        <path d="M0.55445122,3.54290625 C-1.61871951,8.38684375 3.52189024,16.912875 3.52189024,16.912875 L3.52189024,16.912875 L5.4579878,7.96503125 C7.67689024,7.898625 15.6245122,5.95938542 14.9496951,3.72388542 L14.9496951,3.72388542 C14.275061,1.4885625 9.21621951,0.244552083 9.21621951,0.244552083 L9.21621951,0.244552083 C9.21621951,0.244552083 8.23170732,0.00991666667 6.90091463,0.00991666667 L6.90091463,0.00991666667 C4.81573171,0.01009375 1.88103659,0.586145833 0.55445122,3.54290625" id="path-99"></path>
        <path d="M0.4196,1.22018182 C-1.5088,4.42145455 4.5536,6.93509091 6.6954,5.38072727 L6.6954,5.38072727 L6.9644,3.04018182 C6.9644,3.04018182 4.3098,0.153090909 2.186,0.152909006 L2.186,0.152909006 C1.5088,0.152727273 0.8858,0.446181818 0.4196,1.22018182" id="path-101"></path>
        <path d="M18.0569615,1.02336066 C18.0569615,1.02336066 4.15239103,11.870082 0.496346154,26.9314262 L0.496346154,26.9314262 C-3.15988462,41.9929508 20.2683974,43.9657377 20.2683974,43.9657377 L20.2683974,43.9657377 C20.2683974,43.9657377 23.5097051,40.5665574 27.2694808,41.8557213 L27.2694808,41.8557213 C31.0292564,43.1447049 27.6622821,35.8407049 23.2388526,35.7905738 L23.2388526,35.7905738 C21.6620705,35.7729016 20.9004487,36.1966721 20.2921923,36.6204426 L20.2921923,36.6204426 C19.1937244,37.3853934 18.5940192,38.1503443 14.5972244,36.3180328 L14.5972244,36.3180328 C8.54700641,33.5447705 4.91698718,25.2033443 20.6762564,12.8910984 L20.6762564,12.8910984 C21.5897564,12.177541 22.324609,11.2609344 22.7750385,10.2103443 L22.7750385,10.2103443 C25.2720128,4.38863934 24.3243077,0.116491718 21.0500962,0.116491718 L21.0500962,0.116491718 C20.2018462,0.116491718 19.198,0.402852459 18.0569615,1.02336066" id="path-103"></path>
    </defs>
    <g id="Comfortable-Themes" stroke="none" stroke-width="1" fill="none" fill-rule="evenodd">
        <g id="Outsourcing-IT-Profesional---alt" transform="translate(-938.000000, -2607.000000)">
            <g id="Group-98" transform="translate(938.000000, 2607.000000)">
                <g id="Group-104" transform="translate(62.000000, 0.000000)">
                    <g id="Group-3" transform="translate(94.000000, 71.000000)">
                        <mask id="mask-2" fill="white">
                            <use xlink:href="#path-1"></use>
                        </mask>
                        <g id="Clip-2"></g>
                        <path d="M22.6044802,2.71772136 L0.199393939,67.4981053 L62.4024149,71.9264396 C62.7350303,71.9750341 63.066331,71.9991084 63.3947832,72 L63.3947832,72 L63.4285268,72 C66.2805175,71.9930898 68.8960839,70.2267492 69.9752214,67.4666749 L69.9752214,67.4666749 L93.6956503,6.77803096 C93.8450862,6.40710836 93.915641,6.02749226 93.9173939,5.65656966 L93.9173939,5.65656966 L93.9173939,5.6291517 C93.9110396,4.14590712 92.8071422,2.80198142 91.2365315,2.65976471 L91.2365315,2.65976471 C77.0271935,1.37334985 37.3063869,0.375380805 26.4004149,0.119702786 L26.4004149,0.119702786 C26.3697389,0.118588235 26.3395012,0.118588235 26.3090443,0.118588235 L26.3090443,0.118588235 C24.6672214,0.118588235 23.1903916,1.15043963 22.6044802,2.71772136" id="Fill-1" fill="url(#linearGradient-3)" mask="url(#mask-2)"></path>
                    </g>
                    <path d="M157.975371,141 L181.866629,79.8651489 C182.349053,78.6313243 181.464609,77.2904526 180.148545,77.2606307 L121.096655,75.0026249 C119.575164,74.9443164 118.183556,75.8621181 117.628017,77.2900075 L96,136.885916 L157.975371,141 Z" id="Fill-4" fill="#FFFFFF"></path>
                    <g id="Group-8" transform="translate(73.000000, 137.000000)">
                        <mask id="mask-5" fill="white">
                            <use xlink:href="#path-4"></use>
                        </mask>
                        <g id="Clip-7"></g>
                        <path d="M0.0836327543,3.7944 C0.0836327543,5.01264 0.981975186,6 2.09016377,6 L2.09016377,6 L83.6172506,6 C85.3014789,6 86.6664615,4.49952 86.6664615,2.6484 L86.6664615,2.6484 L87.9491216,1.0104 L3.2977072,0.2136 C1.51565261,0.24024 0.0836327543,1.83552 0.0836327543,3.7944" id="Fill-6" fill="#167BBD" mask="url(#mask-5)"></path>
                    </g>
                    <g id="Group-14" transform="translate(0.000000, 36.000000)">
                        <path d="M177.572639,64.9471436 C177.541068,64.9471436 177.509496,64.9412145 177.478366,64.9291368 C177.348327,64.8773125 177.284964,64.7306233 177.337288,64.6012821 L186.138652,42.7061639 C186.438691,41.9593226 186.360094,41.1430895 185.922288,40.4667382 C185.484925,39.7901672 184.770704,39.3808429 183.962873,39.3432922 L168.002743,38.597549 C167.86299,38.5911807 167.754808,38.4728193 167.761431,38.3338159 C167.768055,38.1945929 167.887938,38.0861132 168.026587,38.0935794 L183.986717,38.839103 C184.960574,38.8845591 185.821392,39.3782078 186.349055,40.1935625 C186.876496,41.0091368 186.971431,41.9931402 186.609795,42.893478 L177.80799,64.7883767 C177.768691,64.8871943 177.673094,64.9471436 177.572639,64.9471436" id="Fill-9" fill="#7D97F4"></path>
                        <g id="Group-13">
                            <mask id="mask-7" fill="white">
                                <use xlink:href="#path-6"></use>
                            </mask>
                            <g id="Clip-12"></g>
                            <path d="M8.4950987,53.1135861 L66.2851636,48.0124037 C68.6280727,47.8057652 70.4280857,45.8601571 70.4411117,43.5205963 L70.6537948,4.76500507 C70.6685143,2.1270152 68.4247351,0.033839527 65.7786961,0.216981419 L4.24244935,4.47623818 C1.69686494,4.65257264 -0.207355844,6.87245439 0.0180597403,9.40042736 L3.55118961,48.9979443 C3.77373506,51.4923193 5.98726753,53.3349375 8.4950987,53.1135861" id="Fill-11" fill="url(#linearGradient-8)" mask="url(#mask-7)"></path>
                        </g>
                    </g>
                    <g id="Group-17" transform="translate(3.000000, 42.000000)">
                        <mask id="mask-10" fill="white">
                            <use xlink:href="#path-9"></use>
                        </mask>
                        <g id="Clip-16"></g>
                        <path d="M61.4848801,0.0388235294 L2.77986301,3.20933824 C1.17400685,3.29625 -0.0391780822,4.68441176 0.102842466,6.27132353 L0.102842466,6.27132353 L3.32167808,42.2135294 C3.46169521,43.7746324 4.86030822,44.9225735 6.43433219,44.7675 L6.43433219,44.7675 L62.3060616,39.2688971 C63.7725685,39.1246324 64.8846918,37.8939706 64.8679644,36.4336765 L64.8679644,36.4336765 L64.482226,2.82 C64.4644178,1.26882353 63.1884589,0.0346323529 61.6422603,0.0346323529 L61.6422603,0.0346323529 C61.5901712,0.0346323529 61.537637,0.0361764706 61.4848801,0.0388235294" id="Fill-15" fill="url(#linearGradient-11)" mask="url(#mask-10)"></path>
                    </g>
                    <g id="Group-26" transform="translate(7.000000, 18.000000)">
                        <path d="M33.9659495,56.4586591 L2.77595476,58.3046658 C2.45625106,58.3237128 2.21515582,58.6054309 2.24348122,58.9272362 L2.28783571,59.4324242 C2.3152828,59.7442631 2.58624048,59.9763705 2.89584365,59.952894 L34.0417034,57.6016993 C34.3574548,57.5777799 34.592841,57.298055 34.5649548,56.9797933 C34.5377272,56.6712765 34.2724786,56.440498 33.9659495,56.4586591" id="Fill-18" fill="#A0D7FF"></path>
                        <path d="M34.7964325,59.6103805 L34.8153161,59.8256557 C34.8429828,60.1408168 34.6122077,60.4187698 34.29975,60.4468973 L3.19231614,63.2315215 C2.87985847,63.2594275 2.60428968,63.0266557 2.57640344,62.7114946 L2.55751984,62.4962195 C2.52985317,62.1810584 2.76062831,61.9031054 3.0728664,61.8751993 L34.1805198,59.0905752 C34.4929775,59.0624477 34.7685463,59.2954409 34.7964325,59.6103805" id="Fill-20" fill="#A0D7FF"></path>
                        <path d="M25.6020966,63.2684195 L25.6104405,63.3629899 C25.6381071,63.678151 25.407332,63.956104 25.0948743,63.9840101 L3.42923942,65.9234799 C3.11678175,65.9516074 2.84099339,65.7186141 2.81332672,65.4036745 L2.77424206,64.9593926 C2.74613624,64.6406879 2.98240079,64.3607416 3.29881085,64.3374866 L24.9954061,62.7477282 C25.3047897,62.7251376 25.5746495,62.9570235 25.6020966,63.2684195" id="Fill-22" fill="#A0D7FF"></path>
                        <path d="M6.46032037,57.9876 L74.2895452,56.5949557 C77.0395241,56.5384792 79.2952357,54.381298 79.4974659,51.6148349 L82.8495241,5.78049262 C83.0774447,2.66055302 80.6271881,0.00394228188 77.5258865,0.00792437809 L5.39383624,0.103606711 C2.4100082,0.107593289 0.0102542328,2.58104295 0.0710769841,5.59002282 L1.02228333,52.7211101 C1.0820082,55.6900027 3.51689444,58.0478416 6.46032037,57.9876" id="Fill-24" fill="url(#linearGradient-12)"></path>
                    </g>
                    <g id="Group-29" transform="translate(10.000000, 23.000000)">
                        <mask id="mask-14" fill="white">
                            <use xlink:href="#path-13"></use>
                        </mask>
                        <g id="Clip-28"></g>
                        <path d="M0.0947588198,3.52275 L0.956304985,45.5864062 C0.993914956,47.4134062 2.5233871,48.8584688 4.35967742,48.80225 L4.35967742,48.80225 L69.554912,46.802875 C71.2660557,46.7501562 72.6532258,45.4061562 72.7504399,43.7060312 L72.7504399,43.7060312 L74.9876833,4.57428125 C75.0943548,2.7076875 73.6154692,1.1291875 71.7358504,1.10359375 L71.7358504,1.10359375 L3.44252199,0.1715 C3.4271261,0.1715 3.41195015,0.1715 3.39655425,0.1715 L3.39655425,0.1715 C1.54992669,0.1715 0.0578445748,1.680875 0.0947588198,3.52275" id="Fill-27" fill="url(#linearGradient-15)" mask="url(#mask-14)"></path>
                    </g>
                    <g id="Group-39" transform="translate(15.000000, 0.000000)">
                        <path d="M37.6631381,59.3754135 L0.753184219,59.0260116 C0.374805012,59.0225132 0.0683509494,59.3297158 0.0759301734,59.704481 L0.0882075841,60.2930855 C0.0957089795,60.656481 0.396426681,60.9468476 0.763112536,60.9444573 L37.6609319,60.7052399 C38.0353397,60.7026161 38.3349543,60.3973814 38.3275907,60.0267704 C38.3201721,59.6673106 38.0258527,59.3789119 37.6631381,59.3754135" id="Fill-30" fill="#8CCEFF"></path>
                        <path d="M38.3903102,63.0916026 L38.3955333,63.3423936 C38.4031067,63.7095061 38.1090078,64.0132103 37.7383507,64.0206444 L0.851121554,64.7647087 C0.480464372,64.7723614 0.174230938,64.480683 0.166508914,64.1135704 L0.161294074,63.8627794 C0.153933045,63.4956669 0.448031869,63.1919627 0.818689051,63.1845286 L37.7059182,62.4404643 C38.0763547,62.4330302 38.3828088,62.72449 38.3903102,63.0916026" id="Fill-32" fill="#8CCEFF"></path>
                        <path d="M27.2616813,66.5946958 L27.264028,66.7046765 C27.271389,67.0720077 26.9772902,67.3754932 26.6068536,67.3829273 L0.915457051,67.9013453 C0.545020498,67.9087794 0.238566435,67.617101 0.23106504,67.2502071 L0.220329376,66.732445 C0.21275281,66.3613968 0.513470512,66.0559434 0.888099021,66.0541942 L26.5878795,65.9433329 C26.9541241,65.9418084 27.2541799,66.2317376 27.2616813,66.5946958" id="Fill-34" fill="#8CCEFF"></path>
                        <g id="Group-38" transform="translate(2.426922, 0.000000)">
                            <mask id="mask-17" fill="white">
                                <use xlink:href="#path-16"></use>
                            </mask>
                            <g id="Clip-37"></g>
                            <path d="M5.95888784,63.5460875 L81.5692023,63.5460875 C84.6346254,63.5460875 87.1965725,61.2351807 87.4842731,58.2108206 L92.2494242,8.1077209 C92.5737492,4.69744437 89.9036937,1.73365016 86.4475362,1.6684926 L6.07207065,0.15193955 C2.74718748,0.0891871383 0.0180033488,2.74315498 0.0180033488,6.03864051 L0.0180033488,57.6582932 C0.0180033488,60.9100489 2.67790989,63.5460875 5.95888784,63.5460875" id="Fill-36" fill="url(#linearGradient-18)" mask="url(#mask-17)"></path>
                        </g>
                    </g>
                    <g id="Group-42" transform="translate(21.000000, 6.000000)">
                        <mask id="mask-20" fill="white">
                            <use xlink:href="#path-19"></use>
                        </mask>
                        <g id="Clip-41"></g>
                        <path d="M0.159356201,3.80787097 L0.159356201,50.2576694 C0.159356201,52.2752661 1.83581003,53.9050645 3.88926649,53.8841465 L3.88926649,53.8841465 L76.7897414,53.1336048 C78.703124,53.1140081 80.2836095,51.6610161 80.4309974,49.7869113 L80.4309974,49.7869113 L83.8260158,6.642 C83.9880317,4.58412097 82.3714195,2.80865323 80.2716412,2.73832258 L80.2716412,2.73832258 L3.97636939,0.183774194 C3.93337203,0.182467742 3.89059631,0.181596774 3.84804222,0.181596774 L3.84804222,0.181596774 C1.81940897,0.181596774 0.159356201,1.79898387 0.159356201,3.80787097" id="Fill-40" fill="#E9F9FF" mask="url(#mask-20)"></path>
                    </g>
                    <g filter="url(#filter-21)" id="Group-67">
                        <g transform="translate(25.000000, 11.000000)">
                            <path d="M41.7046188,1.27999665 L0.909677419,0.0323602871 C0.491348974,0.0195421053 0.145601173,0.362709569 0.145601173,0.790432057 L0.145601173,1.46214976 C0.145601173,1.87682919 0.471334311,2.2148244 0.8771261,2.22044641 L41.6722874,2.79658995 C42.0857771,2.80243684 42.4242669,2.46106842 42.4242669,2.03806842 C42.4242669,1.62811148 42.1053519,1.29236507 41.7046188,1.27999665" id="Fill-43" fill="#91B3FA"></path>
                            <path d="M42.4243768,5.53516077 L42.4243768,5.82143349 C42.4243768,6.24016077 42.0920455,6.57995502 41.6825147,6.57995502 L0.887353372,6.57995502 C0.477602639,6.57995502 0.145491202,6.24016077 0.145491202,5.82143349 L0.145491202,5.53516077 C0.145491202,5.11620861 0.477602639,4.77663923 0.887353372,4.77663923 L41.6825147,4.77663923 C42.0920455,4.77663923 42.4243768,5.11620861 42.4243768,5.53516077" id="Fill-45" fill="#91B3FA"></path>
                            <path d="M30.0421408,9.27456172 L30.0421408,9.40026986 C30.0421408,9.81899713 29.7100293,10.1585665 29.3004985,10.1585665 L0.887155425,10.1585665 C0.477624633,10.1585665 0.145513196,9.81899713 0.145513196,9.40026986 L0.145513196,8.80973397 C0.145513196,8.38605933 0.484882698,8.04446603 0.899252199,8.05143732 L29.3123754,8.51626507 C29.7172874,8.5227866 30.0421408,8.86033206 30.0421408,9.27456172" id="Fill-47" fill="#91B3FA"></path>
                            <path d="M10.9609531,32.1715 C11.032434,32.1715 11.1041349,32.1472129 11.1630792,32.0979641 L23.4094135,21.9261746 L35.4813343,30.9665909 C35.6176979,31.0691364 35.808827,31.0448493 35.9172581,30.911945 L52.7095601,10.3142512 C54.6193109,12.0262656 66.9907918,23.1175909 68.6379326,24.5903325 C68.771217,24.7092943 68.9740029,24.6955766 69.0903519,24.559299 C69.2069208,24.4227967 69.1935044,24.2156818 69.06,24.0967201 C67.2745161,22.5000694 52.8852933,9.59935646 52.8852933,9.59935646 C52.8201906,9.54133732 52.7350733,9.51210287 52.6488563,9.51907416 C52.5626393,9.52604545 52.4828006,9.56832297 52.4273754,9.63623684 L35.6172581,30.2555191 L23.5886657,21.2474856 C23.4709971,21.1593325 23.3097801,21.1636053 23.1969501,21.2576053 L10.9684311,31.4147775 L4.42099707,25.5640646 C4.28771261,25.444878 4.08492669,25.4583708 3.96835777,25.5950981 C3.85178886,25.7313756 3.86542522,25.9387153 3.99892962,26.057677 L10.7498094,32.0905431 C10.8100733,32.1442895 10.8855132,32.1715 10.9609531,32.1715" id="Fill-49" fill="#7D97F4"></path>
                            <path d="M52.2078959,14.6078923 L52.2078959,13.9519163 C52.2078959,13.8311555 52.4621748,13.7333325 52.7760777,13.7333325 C53.0899806,13.7333325 53.3442595,13.8311555 53.3442595,13.9519163 L53.3442595,14.6078923 C53.3442595,14.7286531 53.0899806,14.8264761 52.7760777,14.8264761 C52.4621748,14.8264761 52.2078959,14.7286531 52.2078959,14.6078923 M52.2078959,16.7941794 L52.2078959,16.1382033 C52.2078959,16.0174426 52.4621748,15.9196196 52.7760777,15.9196196 C53.0899806,15.9196196 53.3442595,16.0174426 53.3442595,16.1382033 L53.3442595,16.7941794 C53.3442595,16.9147153 53.0899806,17.0127632 52.7760777,17.0127632 C52.4621748,17.0127632 52.2078959,16.9147153 52.2078959,16.7941794 M52.2078959,18.9802416 L52.2078959,18.3244904 C52.2078959,18.2037297 52.4621748,18.1056818 52.7760777,18.1056818 C53.0899806,18.1056818 53.3442595,18.2037297 53.3442595,18.3244904 L53.3442595,18.9802416 C53.3442595,19.1010024 53.0899806,19.1988254 52.7760777,19.1988254 C52.4621748,19.1988254 52.2078959,19.1010024 52.2078959,18.9802416 M52.2078959,21.1665287 L52.2078959,20.5105526 C52.2078959,20.3897919 52.4621748,20.2919689 52.7760777,20.2919689 C53.0899806,20.2919689 53.3442595,20.3897919 53.3442595,20.5105526 L53.3442595,21.1665287 C53.3442595,21.2872895 53.0899806,21.3851124 52.7760777,21.3851124 C52.4621748,21.3851124 52.2078959,21.2872895 52.2078959,21.1665287 M52.2078959,23.3525909 L52.2078959,22.6968397 C52.2078959,22.5760789 52.4621748,22.478256 52.7760777,22.478256 C53.0899806,22.478256 53.3442595,22.5760789 53.3442595,22.6968397 L53.3442595,23.3525909 C53.3442595,23.4733517 53.0899806,23.5711746 52.7760777,23.5711746 C52.4621748,23.5711746 52.2078959,23.4733517 52.2078959,23.3525909 M52.2078959,25.5386531 L52.2078959,24.8829019 C52.2078959,24.7621411 52.4621748,24.6643182 52.7760777,24.6643182 C53.0899806,24.6643182 53.3442595,24.7621411 53.3442595,24.8829019 L53.3442595,25.5386531 C53.3442595,25.6596388 53.0899806,25.7574617 52.7760777,25.7574617 C52.4621748,25.7574617 52.2078959,25.6596388 52.2078959,25.5386531 M52.2078959,27.7249402 L52.2078959,27.069189 C52.2078959,26.9484282 52.4621748,26.8503804 52.7760777,26.8503804 C53.0899806,26.8503804 53.3442595,26.9484282 53.3442595,27.069189 L53.3442595,27.7249402 C53.3442595,27.845701 53.0899806,27.9435239 52.7760777,27.9435239 C52.4621748,27.9435239 52.2078959,27.845701 52.2078959,27.7249402 M52.2078959,29.9112273 L52.2078959,29.2552512 C52.2078959,29.1344904 52.4621748,29.0366675 52.7760777,29.0366675 C53.0899806,29.0366675 53.3442595,29.1344904 53.3442595,29.2552512 L53.3442595,29.9112273 C53.3442595,30.0317632 53.0899806,30.129811 52.7760777,30.129811 C52.4621748,30.129811 52.2078959,30.0317632 52.2078959,29.9112273 M52.2078959,32.0972895 L52.2078959,31.4415383 C52.2078959,31.3207775 52.4621748,31.2229545 52.7760777,31.2229545 C53.0899806,31.2229545 53.3442595,31.3207775 53.3442595,31.4415383 L53.3442595,32.0972895 C53.3442595,32.2180502 53.0899806,32.3160981 52.7760777,32.3160981 C52.4621748,32.3160981 52.2078959,32.2180502 52.2078959,32.0972895 M52.2078959,34.2835766 L52.2078959,33.6276005 C52.2078959,33.5070646 52.4621748,33.4090167 52.7760777,33.4090167 C53.0899806,33.4090167 53.3442595,33.5070646 53.3442595,33.6276005 L53.3442595,34.2835766 C53.3442595,34.4043373 53.0899806,34.5021603 52.7760777,34.5021603 C52.4621748,34.5021603 52.2078959,34.4043373 52.2078959,34.2835766 M52.2078959,36.4696388 L52.2078959,35.8138876 C52.2078959,35.6931268 52.4621748,35.5953038 52.7760777,35.5953038 C53.0899806,35.5953038 53.3442595,35.6931268 53.3442595,35.8138876 L53.3442595,36.4696388 C53.3442595,36.5903995 53.0899806,36.6884474 52.7760777,36.6884474 C52.4621748,36.6884474 52.2078959,36.5903995 52.2078959,36.4696388 M52.2078959,38.6559258 L52.2078959,38.0001746 C52.2078959,37.879189 52.4621748,37.781366 52.7760777,37.781366 C53.0899806,37.781366 53.3442595,37.879189 53.3442595,38.0001746 L53.3442595,38.6559258 C53.3442595,38.7766866 53.0899806,38.8745096 52.7760777,38.8745096 C52.4621748,38.8745096 52.2078959,38.7766866 52.2078959,38.6559258 M52.2078959,40.841988 L52.2078959,40.1862368 C52.2078959,40.0654761 52.4621748,39.9676531 52.7760777,39.9676531 C53.0899806,39.9676531 53.3442595,40.0654761 53.3442595,40.1862368 L53.3442595,40.841988 C53.3442595,40.9627488 53.0899806,41.0605718 52.7760777,41.0605718 C52.4621748,41.0605718 52.2078959,40.9627488 52.2078959,40.841988 M52.2078959,43.0282751 L52.2078959,42.372299 C52.2078959,42.2517632 52.4621748,42.1537153 52.7760777,42.1537153 C53.0899806,42.1537153 53.3442595,42.2517632 53.3442595,42.372299 L53.3442595,43.0282751 C53.3442595,43.1490359 53.0899806,43.2468589 52.7760777,43.2468589 C52.4621748,43.2468589 52.2078959,43.1490359 52.2078959,43.0282751" id="Fill-51" fill="#7D97F4"></path>
                            <path d="M35.4571188,32.499488 L35.4571188,31.843512 C35.4571188,31.7227512 35.7113977,31.6249282 36.0253006,31.6249282 C36.3392035,31.6249282 36.5934824,31.7227512 36.5934824,31.843512 L36.5934824,32.499488 C36.5934824,32.6202488 36.3392035,32.7180718 36.0253006,32.7180718 C35.7113977,32.7180718 35.4571188,32.6202488 35.4571188,32.499488 M35.4571188,34.6855502 L35.4571188,34.029799 C35.4571188,33.9090383 35.7113977,33.8112153 36.0253006,33.8112153 C36.3392035,33.8112153 36.5934824,33.9090383 36.5934824,34.029799 L36.5934824,34.6855502 C36.5934824,34.806311 36.3392035,34.904134 36.0253006,34.904134 C35.7113977,34.904134 35.4571188,34.806311 35.4571188,34.6855502 M35.4571188,36.8718373 L35.4571188,36.2158612 C35.4571188,36.0953254 35.7113977,35.9972775 36.0253006,35.9972775 C36.3392035,35.9972775 36.5934824,36.0953254 36.5934824,36.2158612 L36.5934824,36.8718373 C36.5934824,36.9925981 36.3392035,37.0904211 36.0253006,37.0904211 C35.7113977,37.0904211 35.4571188,36.9925981 35.4571188,36.8718373 M35.4571188,39.0581244 L35.4571188,38.4021483 C35.4571188,38.2813876 35.7113977,38.1835646 36.0253006,38.1835646 C36.3392035,38.1835646 36.5934824,38.2813876 36.5934824,38.4021483 L36.5934824,39.0581244 C36.5934824,39.1786603 36.3392035,39.2767081 36.0253006,39.2767081 C35.7113977,39.2767081 35.4571188,39.1786603 35.4571188,39.0581244 M35.4571188,41.2441866 L35.4571188,40.5882105 C35.4571188,40.4676746 35.7113977,40.3696268 36.0253006,40.3696268 C36.3392035,40.3696268 36.5934824,40.4676746 36.5934824,40.5882105 L36.5934824,41.2441866 C36.5934824,41.3649474 36.3392035,41.4627703 36.0253006,41.4627703 C35.7113977,41.4627703 35.4571188,41.3649474 35.4571188,41.2441866 M35.4571188,43.4302488 L35.4571188,42.7744976 C35.4571188,42.6537368 35.7113977,42.5559139 36.0253006,42.5559139 C36.3392035,42.5559139 36.5934824,42.6537368 36.5934824,42.7744976 L36.5934824,43.4302488 C36.5934824,43.5512344 36.3392035,43.6490574 36.0253006,43.6490574 C35.7113977,43.6490574 35.4571188,43.5512344 35.4571188,43.4302488" id="Fill-53" fill="#7D97F4"></path>
                            <path d="M23.602851,24.4023775 C23.4745656,24.3985545 23.3735649,24.2978081 23.3776336,24.1770474 L23.3991741,23.5215211 C23.4032428,23.4007603 23.5047223,23.3009134 23.6389911,23.3099086 C23.7675157,23.3135067 23.8682772,23.414478 23.8644478,23.5352388 L23.842668,24.1907651 C23.8388386,24.3090522 23.7356837,24.4023775 23.6102705,24.4023775 C23.6078771,24.4023775 23.6054837,24.4023775 23.602851,24.4023775 M23.5308101,26.5875402 C23.4022855,26.5837172 23.301524,26.4827459 23.3055928,26.36221 L23.3273726,25.7064589 C23.331202,25.585923 23.4317241,25.4872005 23.5671896,25.4948464 C23.6954749,25.4986694 23.7964757,25.5996407 23.7924069,25.7201766 L23.7706271,26.3757029 C23.7667977,26.4942148 23.6634036,26.5875402 23.5379903,26.5875402 C23.5358362,26.5875402 23.5332035,26.5875402 23.5308101,26.5875402 M23.45853,28.7727029 C23.3302446,28.7688799 23.2292439,28.6679086 23.2333126,28.5473727 L23.2550924,27.8916215 C23.2589218,27.7710856 23.3649487,27.6732627 23.4949094,27.6800091 C23.6231947,27.6838321 23.7241955,27.7845785 23.7201268,27.9053392 L23.698347,28.5608656 C23.6947569,28.6793775 23.5911234,28.7727029 23.4661888,28.7727029 C23.4635561,28.7727029 23.4611627,28.7727029 23.45853,28.7727029 M23.3867285,30.9576407 C23.2582038,30.9540426 23.157203,30.8530713 23.1610324,30.7325354 L23.1828122,30.0770091 C23.186881,29.9562483 23.2984126,29.8597746 23.4223899,29.8651718 C23.5509146,29.8689947 23.6519153,29.9697411 23.6478466,30.090277 L23.6265455,30.7458033 C23.6224767,30.8643153 23.5190826,30.9578656 23.3939086,30.9578656 C23.3915152,30.9578656 23.3888825,30.9578656 23.3867285,30.9576407 M23.3144483,33.1430282 C23.1859236,33.1392053 23.0851622,33.038234 23.0892309,32.9176981 L23.1105321,32.2621718 C23.1146008,32.141411 23.2254145,32.0404397 23.3503491,32.0503344 C23.4788737,32.0541574 23.5796352,32.1549038 23.5758057,32.2756646 L23.5542653,32.9311909 C23.5501965,33.049478 23.4470417,33.1430282 23.3216285,33.1430282 C23.3192351,33.1430282 23.3168417,33.1430282 23.3144483,33.1430282 M23.2421681,35.327966 C23.1136435,35.3243679 23.012882,35.2233967 23.0169508,35.1026359 L23.0384912,34.4471096 C23.0423206,34.3263488 23.1464328,34.2267268 23.2785476,34.2354971 C23.4068329,34.2393201 23.5078337,34.3400665 23.5037649,34.4608273 L23.4819851,35.1163536 C23.4781557,35.2346407 23.3747616,35.3281909 23.2493483,35.3281909 C23.2471942,35.3281909 23.2445615,35.3281909 23.2421681,35.327966 M23.169888,37.5131287 C23.0416026,37.5093057 22.9406019,37.4085593 22.9446706,37.2877986 L22.9664504,36.6322722 C22.9702798,36.5117364 23.0734346,36.4132388 23.2062674,36.4204349 C23.3345527,36.4242579 23.4355535,36.5252292 23.4314847,36.64599 L23.409705,37.3015163 C23.4058755,37.4198033 23.3024814,37.5133536 23.1775468,37.5133536 C23.1749141,37.5133536 23.1725207,37.5133536 23.169888,37.5131287 M23.0980865,39.6982914 C22.9695618,39.6944684 22.868561,39.593722 22.8723904,39.4729612 L22.8941702,38.8174349 C22.898239,38.696899 23.0066592,38.599301 23.1337479,38.6058225 C23.2622726,38.6094206 23.3632733,38.7103919 23.3592046,38.8309278 L23.3376641,39.4864541 C23.3338347,39.604966 23.2302012,39.6985163 23.1052666,39.6985163 C23.1028732,39.6985163 23.1002405,39.6985163 23.0980865,39.6982914 M23.0258063,41.8832292 C22.8972816,41.8796311 22.7965202,41.7788847 22.8003496,41.6581239 L22.82189,41.0025976 C22.8259588,40.8818368 22.933661,40.7858129 23.061707,40.7907603 C23.1899924,40.7945833 23.2909932,40.8953297 23.2871637,41.0160904 L23.2656233,41.6716167 C23.2615545,41.7899038 23.1583997,41.8834541 23.0329864,41.8834541 C23.0305931,41.8834541 23.0281997,41.8834541 23.0258063,41.8832292 M22.9532868,44.0686167 C22.8250014,44.0647938 22.72424,43.9638225 22.7283088,43.8430617 L22.7498492,43.1875354 C22.7536786,43.0669995 22.8546794,42.9662531 22.9894269,42.975923 C23.1181909,42.9797459 23.2189523,43.0804923 23.2148836,43.2012531 L23.1933431,43.8567794 C23.1892744,43.9752914 23.0861196,44.0686167 22.9607063,44.0686167 C22.9585522,44.0686167 22.9559195,44.0686167 22.9532868,44.0686167" id="Fill-55" fill="#7D97F4"></path>
                            <path d="M10.5876466,33.3105191 L10.5876466,32.6545431 C10.5876466,32.5337823 10.8425101,32.4359593 11.156413,32.4359593 C11.4697314,32.4359593 11.7240103,32.5337823 11.7240103,32.6545431 L11.7240103,33.3105191 C11.7240103,33.4312799 11.4697314,33.5291029 11.156413,33.5291029 C10.8425101,33.5291029 10.5876466,33.4312799 10.5876466,33.3105191 M10.5876466,35.4968062 L10.5876466,34.8408301 C10.5876466,34.7200694 10.8425101,34.6222464 11.156413,34.6222464 C11.4697314,34.6222464 11.7240103,34.7200694 11.7240103,34.8408301 L11.7240103,35.4968062 C11.7240103,35.6173421 11.4697314,35.71539 11.156413,35.71539 C10.8425101,35.71539 10.5876466,35.6173421 10.5876466,35.4968062 M10.5876466,37.6828684 L10.5876466,37.0271172 C10.5876466,36.9063565 10.8425101,36.8083086 11.156413,36.8083086 C11.4697314,36.8083086 11.7240103,36.9063565 11.7240103,37.0271172 L11.7240103,37.6828684 C11.7240103,37.8036292 11.4697314,37.9014522 11.156413,37.9014522 C10.8425101,37.9014522 10.5876466,37.8036292 10.5876466,37.6828684 M10.5876466,39.8691555 L10.5876466,39.2131794 C10.5876466,39.0924187 10.8425101,38.9945957 11.156413,38.9945957 C11.4697314,38.9945957 11.7240103,39.0924187 11.7240103,39.2131794 L11.7240103,39.8691555 C11.7240103,39.9899163 11.4697314,40.0877392 11.156413,40.0877392 C10.8425101,40.0877392 10.5876466,39.9899163 10.5876466,39.8691555 M10.5876466,42.0552177 L10.5876466,41.3994665 C10.5876466,41.2787057 10.8425101,41.1808828 11.156413,41.1808828 C11.4697314,41.1808828 11.7240103,41.2787057 11.7240103,41.3994665 L11.7240103,42.0552177 C11.7240103,42.1759785 11.4697314,42.2738014 11.156413,42.2738014 C10.8425101,42.2738014 10.5876466,42.1759785 10.5876466,42.0552177" id="Fill-57" fill="#7D97F4"></path>
                            <path d="M70.2819501,46.8166325 C70.4469062,46.8166325 70.5870088,46.6873263 70.601085,46.5164172 L74.047566,4.90050335 C74.0623021,4.72014928 73.931437,4.56138373 73.755044,4.54609187 C73.5768915,4.52990048 73.4231525,4.66482871 73.4084164,4.84518278 L69.9619355,46.4608718 C69.9471994,46.6414507 70.0778446,46.8002163 70.2544575,46.8155081 C70.263695,46.8166325 70.2729326,46.8166325 70.2819501,46.8166325" id="Fill-59" fill="#7D97F4"></path>
                            <polygon id="Fill-61" fill="#7D97F4" points="74.703761 6.26831579 73.7118255 5.06588038 72.5364589 6.08076555 72.6145381 5.13986603 73.7899047 4.12588038 74.7816202 5.32764115"></polygon>
                            <path d="M2.25327713,44.8740708 L72.8702859,44.8740708 C73.0475587,44.8740708 73.1911804,44.7274488 73.1911804,44.5461952 C73.1911804,44.3649416 73.0475587,44.2180947 72.8702859,44.2180947 L2.25327713,44.2180947 C2.0760044,44.2180947 1.93260264,44.3649416 1.93260264,44.5461952 C1.93260264,44.7274488 2.0760044,44.8740708 2.25327713,44.8740708" id="Fill-63" fill="#7D97F4"></path>
                            <polygon id="Fill-65" fill="#7D97F4" points="3.53104839 45.6580713 2.44299853 44.5462627 3.53104839 43.4344541 2.6077346 43.4344541 1.52012463 44.5462627 2.6077346 45.6580713"></polygon>
                        </g>
                    </g>
                    <g id="Group-70" transform="translate(79.000000, 23.000000)">
                        <mask id="mask-23" fill="white">
                            <use xlink:href="#path-22"></use>
                        </mask>
                        <g id="Clip-69"></g>
                        <path d="M0.194147059,3.40820408 L20.4143039,10.9937143 C20.4143039,10.9937143 23.2263922,10.7443061 22.8507255,7.62883673 L22.8507255,7.62883673 L1.81497059,0.0271632653 L0.194147059,3.40820408 Z" id="Fill-68" fill="url(#linearGradient-24)" mask="url(#mask-23)"></path>
                    </g>
                    <g id="Group-73" transform="translate(76.000000, 22.000000)">
                        <mask id="mask-26" fill="white">
                            <use xlink:href="#path-25"></use>
                        </mask>
                        <g id="Clip-72"></g>
                        <path d="M0.217615385,1.802 L4.12176923,4.7955 C4.12176923,4.7955 6.41469231,3.112 5.78053846,1.03025 L5.78053846,1.03025 L0.629538462,0.15175 C0.555,0.64925 0.426,1.2085 0.217615385,1.802" id="Fill-71" fill="url(#linearGradient-27)" mask="url(#mask-26)"></path>
                    </g>
                    <g id="Group-76" transform="translate(74.000000, 22.000000)">
                        <mask id="mask-29" fill="white">
                            <use xlink:href="#path-28"></use>
                        </mask>
                        <g id="Clip-75"></g>
                        <path d="M2.5886,1.8416 C2.7692,1.3668 2.881,0.9194 2.9456,0.5214 L2.9456,0.5214 L0.088,0.0718 L2.5886,1.8416 Z" id="Fill-74" fill="url(#linearGradient-30)" mask="url(#mask-29)"></path>
                    </g>
                    <g id="Group-79" transform="translate(88.000000, 54.000000)">
                        <mask id="mask-32" fill="white">
                            <use xlink:href="#path-31"></use>
                        </mask>
                        <g id="Clip-78"></g>
                        <path d="M0.0576989796,5.57082723 C2.88780102,15.6675393 9.86696429,26.8749424 25.9169337,34.1594136 L25.9169337,34.1594136 C26.8293673,34.5736963 27.5640969,35.3002304 27.9780816,36.2143351 L27.9780816,36.2143351 C30.8746582,42.6082304 42.1002908,68.7460838 39.1177143,83.6112251 L39.1177143,83.6112251 C39.1177143,83.6112251 55.2751837,84.579644 63.8769388,83.4060628 L63.8769388,83.4060628 C64.2830255,83.3506492 64.5032908,82.8835916 64.5015357,82.4728272 L64.5015357,82.4728272 C64.4907857,79.4490471 64.7555867,66.3281152 69.7209898,50.5611832 L69.7209898,50.5611832 C69.9059337,49.9734031 70.0581888,49.3761675 70.1812653,48.7729948 L70.1812653,48.7729948 C73.7838316,56.3842304 73.6429847,62.5909948 71.9240816,67.4480419 L71.9240816,67.4480419 C73.8430663,69.5009843 76.6683418,71.2750995 78.6566531,72.3813927 L78.6566531,72.3813927 C94.2072959,53.115267 80.9720714,33.9955916 74.9632602,27.0319476 L74.9632602,27.0319476 C73.4512398,25.2793822 71.3484082,24.1506597 69.0553673,23.8612775 L69.0553673,23.8612775 C61.4018061,22.8948377 42.3569745,20.4190366 31.7508929,18.4155707 L31.7508929,18.4155707 C20.2635306,16.245644 13.2034133,8.148 8.94992347,0.213078534 L8.94992347,0.213078534 C6.30279082,0.835602094 2.5065051,2.27481675 0.0576989796,5.57082723" id="Fill-77" fill="url(#linearGradient-33)" mask="url(#mask-32)"></path>
                    </g>
                    <g id="Group-82" transform="translate(86.000000, 37.000000)">
                        <mask id="mask-35" fill="white">
                            <use xlink:href="#path-34"></use>
                        </mask>
                        <g id="Clip-81"></g>
                        <path d="M1.07440816,0.0893714286 C1.07440816,0.0893714286 -1.65673469,10.6582 1.85495918,22.8541143 L1.85495918,22.8541143 C4.36071429,19.5708095 8.24528571,18.1371429 10.9539796,17.517019 L10.9539796,17.517019 C6.10073469,8.7027619 4.81934694,0.0893714286 4.81934694,0.0893714286 L4.81934694,0.0893714286 L1.07440816,0.0893714286 Z" id="Fill-80" fill="#FFB48D" mask="url(#mask-35)"></path>
                    </g>
                    <g id="Group-85" transform="translate(84.000000, 25.000000)">
                        <mask id="mask-37" fill="white">
                            <use xlink:href="#path-36"></use>
                        </mask>
                        <g id="Clip-84"></g>
                        <path d="M1.18159091,0.175298507 L0.280227273,3.18179104 C0.0431818182,3.97253731 0.0752272727,4.81813433 0.371363636,5.58985075 L0.371363636,5.58985075 L3.92340909,14.8403731 L5.59045455,14.8403731 C5.59045455,14.8403731 11.3629545,7.47537313 9.48681818,3.63895522 L9.48681818,3.63895522 C7.91613636,0.426716418 3.15386364,0.165447761 1.64522727,0.165447761 L1.64522727,0.165447761 C1.35181818,0.165447761 1.18159091,0.175298507 1.18159091,0.175298507" id="Fill-83" fill="#FFB48D" mask="url(#mask-37)"></path>
                    </g>
                    <g id="Group-88" transform="translate(135.000000, 63.000000)">
                        <mask id="mask-39" fill="white">
                            <use xlink:href="#path-38"></use>
                        </mask>
                        <g id="Clip-87"></g>
                        <path d="M0.00372413793,11.6652812 C4.96903448,15.3691562 11.7957931,13.1954375 11.7957931,13.1954375 L11.7957931,13.1954375 L10.608,0.36509375 L3.49427586,0.004375 L0.00372413793,11.6652812 Z" id="Fill-86" fill="#FFB48D" mask="url(#mask-39)"></path>
                    </g>
                    <g id="Group-91" transform="translate(130.000000, 49.000000)">
                        <mask id="mask-41" fill="white">
                            <use xlink:href="#path-40"></use>
                        </mask>
                        <g id="Clip-90"></g>
                        <path d="M7.40720513,0.622581395 C7.23415385,0.787616279 0.102435897,14.9841512 0.102435897,14.9841512 L0.102435897,14.9841512 L8.1855,18.9392442 L16.9169615,6.50219767 C16.9169615,6.50219767 12.0024359,0.0771046512 8.79052564,0.0768837209 L8.79052564,0.0768837209 C8.27682051,0.0768837209 7.80670513,0.241255814 7.40720513,0.622581395" id="Fill-89" fill="#FFB48D" mask="url(#mask-41)"></path>
                    </g>
                    <g id="Group-94" transform="translate(128.000000, 43.000000)">
                        <mask id="mask-43" fill="white">
                            <use xlink:href="#path-42"></use>
                        </mask>
                        <g id="Clip-93"></g>
                        <path d="M6.76472727,4.54935385 C5.98712727,7.15593846 9.89061818,8.99790769 12.3458182,9.30526154 L12.3458182,9.30526154 C14.1499636,9.5312 15.1385455,11.4744 15.5362909,12.4901538 L15.5362909,12.4901538 C15.6809455,12.8586769 15.6456,13.2702769 15.4396364,13.6092923 L15.4396364,13.6092923 L11.4037091,20.2502462 C11.3426182,20.3510462 11.2695273,20.4421538 11.1826909,20.5222769 L11.1826909,20.5222769 C10.7020364,20.9638154 9.05825455,22.2477231 7.78778182,20.4994462 L7.78778182,20.4994462 C6.70450909,19.0096308 5.68843636,17.6550769 4.59949091,17.0965846 L4.59949091,17.0965846 C3.96370909,16.7702769 3.18130909,17.0306769 2.85818182,17.6624 L2.85818182,17.6624 C2.19338182,18.9633231 0.905454545,21.6153538 0.0964363636,24.1301846 L0.0964363636,24.1301846 C-0.106254545,24.7601846 0.2232,25.4369231 0.844145455,25.6852615 L0.844145455,25.6852615 C2.48225455,26.3404615 5.72072727,27.5257231 8.5944,27.9172923 L8.5944,27.9172923 C9.06632727,27.9814769 9.53367273,27.7848308 9.81469091,27.4048923 L9.81469091,27.4048923 C11.0509091,25.7330769 14.5354909,21.0605231 15.7250182,19.8909846 L15.7250182,19.8909846 C16.8298909,18.8045846 18.8688,19.2142462 19.7875636,19.4748615 L19.7875636,19.4748615 C20.1364364,19.5737231 20.508,19.5263385 20.8184727,19.3413231 L20.8184727,19.3413231 C21.7512,18.7871385 23.3777455,17.4065231 21.8895273,15.0696 L21.8895273,15.0696 C21.5194909,14.4882769 21.708,13.7146154 22.2890182,13.3372615 L22.2890182,13.3372615 C23.3299636,12.6613846 24.4592727,11.3925538 23.3832,9.338 L23.3832,9.338 C22.2938182,7.25803077 20.3489455,7.07150769 19.0239273,7.23132308 L19.0239273,7.23132308 C18.4376727,7.30218462 17.8424727,6.99870769 17.6175273,6.45938462 L17.6175273,6.45938462 C17.5176,6.21987692 17.3197091,6.01526154 16.9516364,5.9416 L16.9516364,5.9416 C16.2571636,5.80246154 15.8013818,5.17569231 15.9377455,4.48926154 L15.9377455,4.48926154 C16.1714182,3.3124 15.9955636,1.78338462 14.0919273,0.750184615 L14.0919273,0.750184615 C13.3389818,0.3416 12.6063273,0.164553846 11.9120727,0.164553846 L11.9120727,0.164553846 C9.38749091,0.164553846 7.37476364,2.50492308 6.76472727,4.54935385" id="Fill-92" fill="#434343" mask="url(#mask-43)"></path>
                    </g>
                    <g id="Group-97" transform="translate(143.000000, 61.000000)">
                        <mask id="mask-45" fill="white">
                            <use xlink:href="#path-44"></use>
                        </mask>
                        <g id="Clip-96"></g>
                        <path d="M0.0267857143,4.59444444 C0.0267857143,4.59444444 1.56342857,7.41 4.57221429,4.59044444 L4.57221429,4.59044444 C6.99085714,2.32377778 5.45507143,0.307555556 3.50335714,0.137777778 L3.50335714,0.137777778 C3.468,0.134666667 3.43328571,0.133111111 3.39814286,0.133111111 L3.39814286,0.133111111 C1.497,0.133555556 0.0267857143,4.59444444 0.0267857143,4.59444444" id="Fill-95" fill="#FFB48D" mask="url(#mask-45)"></path>
                    </g>
                    <g id="Group-100" transform="translate(158.000000, 86.000000)">
                        <mask id="mask-47" fill="white">
                            <use xlink:href="#path-46"></use>
                        </mask>
                        <g id="Clip-99"></g>
                        <path d="M1.89138462,0.192216216 C1.90153846,0.276540541 2.88530769,8.69016216 0.177923077,15.6313514 L0.177923077,15.6313514 L0.899769231,15.8784865 C3.67038462,8.7747027 2.66538462,0.196324324 2.655,0.110486486 L2.655,0.110486486 L1.89138462,0.192216216 Z" id="Fill-98" fill="url(#linearGradient-48)" mask="url(#mask-47)"></path>
                    </g>
                    <g id="Group-103" transform="translate(146.000000, 121.000000)">
                        <mask id="mask-50" fill="white">
                            <use xlink:href="#path-49"></use>
                        </mask>
                        <g id="Clip-102"></g>
                        <path d="M0.00241758242,16.8389474 L8.33208791,16.5481579 L8.90087912,15.4002105 C14.2294505,11.7322368 16.9217582,8.92343421 19.8962637,5.18119737 L19.8962637,5.18119737 C17.9043956,4.05584211 15.0740659,2.25115789 13.1516484,0.162842105 L13.1516484,0.162842105 C9.92461538,9.42090789 0.00241758242,16.8389474 0.00241758242,16.8389474" id="Fill-101" fill="#FFB48D" mask="url(#mask-50)"></path>
                    </g>
                </g>
                <g id="Group-51" transform="translate(0.000000, 71.000000)">
                    <g id="Group-3" transform="translate(0.000000, 33.000000)">
                        <mask id="mask-52" fill="white">
                            <use xlink:href="#path-51"></use>
                        </mask>
                        <g id="Clip-2"></g>
                        <path d="M2.65566667,2.55753351 C0.701351515,2.73112601 -0.523430303,4.74930295 0.219630303,6.56310992 L23.7170667,65.5907507 C24.7864727,68.2772118 27.3805152,69.9956836 30.2080909,70 L30.2295091,70 C30.5569818,70 30.8870848,69.9759786 31.2186909,69.928311 L92.8367333,65.3835657 L70.6422364,2.61383378 C70.0620667,1.08941019 68.5996182,0.0859517426 66.9733394,0.0859517426 C66.942903,0.0859517426 66.9126545,0.0859517426 66.8820303,0.087077748 C56.0786242,0.335737265 16.7315455,1.30616622 2.65566667,2.55753351 Z" id="Fill-1" fill="url(#linearGradient-53)" mask="url(#mask-52)"></path>
                    </g>
                    <path d="M28.7453789,100 L5.13171677,39.7916283 C4.65511977,38.576294 5.52932189,37.255856 6.82985346,37.2264497 L65.1950343,35.0025739 C66.6989039,34.945279 68.0740809,35.8490961 68.6234336,37.2554765 L90,95.9483799 L28.7453789,100 Z" id="Fill-4" fill="#FFFFFF"></path>
                    <g id="Group-8" transform="translate(26.000000, 98.000000)">
                        <mask id="mask-55" fill="white">
                            <use xlink:href="#path-54"></use>
                        </mask>
                        <g id="Clip-7"></g>
                        <path d="M0.147296137,0.711071429 L1.42839485,2.11910714 C1.42839485,3.71017857 2.79239485,5 4.4751588,5 L4.4751588,5 L85.928412,5 C87.0357768,5 87.9335279,4.15107143 87.9335279,3.10410714 L87.9335279,3.10410714 C87.9335279,1.42017857 86.502867,0.0489285714 84.7220944,0.0260714286 L84.7220944,0.0260714286 L0.147296137,0.711071429 Z" id="Fill-6" fill="#167BBD" mask="url(#mask-55)"></path>
                    </g>
                    <path d="M18.0238088,61 C17.8743667,61 17.7335174,60.9070406 17.6769162,60.7554306 L17.3236724,59.8141452 C15.0162857,53.6640685 12.4012351,46.693266 11.170579,43.4672885 C10.8720684,42.6847048 10.9693926,41.8034117 11.4307952,41.109379 C11.892945,40.4147713 12.6584624,40 13.4783393,40 L23.6280759,40 C23.833372,40 24,40.1707769 24,40.3816126 C24,40.5922566 23.833372,40.7630335 23.6280759,40.7630335 L13.4783393,40.7630335 C12.8957018,40.7630335 12.3732147,41.0461283 12.0451892,41.5394838 C11.7175373,42.0322642 11.6510355,42.6335293 11.8630566,43.1891771 C13.0946466,46.417263 15.7100709,53.3890238 18.0176443,59.5398671 L18.3707014,60.4811526 C18.4444884,60.6778048 18.3488455,60.8986072 18.1573727,60.9743164 C18.1132873,60.9917582 18.0682678,61 18.0238088,61" id="Fill-9" fill="#BDD0FB"></path>
                    <g id="Group-13" transform="translate(41.000000, 35.000000)">
                        <mask id="mask-57" fill="white">
                            <use xlink:href="#path-56"></use>
                        </mask>
                        <g id="Clip-12"></g>
                        <path d="M34.1310541,2.61478209 C18.9911892,2.3659791 2.28635135,6.56610448 2.28635135,6.56610448 L2.28635135,6.56610448 C-2.22656757,32.741194 1.49724324,62.9319224 1.49724324,62.9319224 L1.49724324,62.9319224 C23.3852973,63.2967582 25.9847568,62.0871582 25.9847568,62.0871582 L25.9847568,62.0871582 C27.933027,51.1467851 37.4768649,19.3334776 37.4768649,19.3334776 L37.4768649,19.3334776 C44.873973,18.4206358 50.9675676,16.2993224 55.9858108,13.4946 L55.9858108,13.4946 C52.1579459,9.08422388 50.3534595,3.47195821 49.5698378,0.154585075 L49.5698378,0.154585075 C44.2169189,1.80819403 38.8004324,2.69151045 34.1310541,2.61478209" id="Fill-11" fill="#BAE3FF" mask="url(#mask-57)"></path>
                    </g>
                    <g id="Group-16" transform="translate(91.000000, 15.000000)">
                        <mask id="mask-59" fill="white">
                            <use xlink:href="#path-58"></use>
                        </mask>
                        <g id="Clip-15"></g>
                        <path d="M25.6270194,0.37715847 C23.4235806,9.61902732 11.8711032,17.1129617 0.00224516129,20.7756721 L0.00224516129,20.7756721 C0.7772,24.0530492 2.56172903,29.5976503 6.34725806,33.9548525 L6.34725806,33.9548525 C26.0446194,22.9570601 28.9592129,1.30686339 28.9592129,1.30686339 L28.9592129,1.30686339 C28.2033419,0.400382514 27.3443806,0.179846995 26.6878581,0.179846995 L26.6878581,0.179846995 C26.0666968,0.179846995 25.6270194,0.37715847 25.6270194,0.37715847" id="Fill-14" fill="url(#linearGradient-60)" mask="url(#mask-59)"></path>
                    </g>
                    <g id="Group-19" transform="translate(116.000000, 0.000000)">
                        <mask id="mask-62" fill="white">
                            <use xlink:href="#path-61"></use>
                        </mask>
                        <g id="Clip-18"></g>
                        <path d="M9.48132075,0.1836 C9.48132075,0.1836 3.51415094,5.44944444 0.436415094,9.65014444 L0.436415094,9.65014444 C-0.141509434,10.4389444 0.446603774,14.5867556 0.483584906,15.555 L0.483584906,15.555 C1.54169811,17.5749778 3.33886792,16.8230111 3.18396226,16.3288778 L3.18396226,16.3288778 C3.18396226,16.3288778 4.95264151,16.3156556 6.19301887,14.5510556 L6.19301887,14.5510556 C6.84849057,13.6188889 7.54188679,12.4273778 8.05,11.5108889 L8.05,11.5108889 C8.55622642,10.5979889 8.71660377,9.52566667 8.45433962,8.52228889 L8.45433962,8.52228889 C8.10830189,7.19742222 7.36981132,6.27262222 6.76415094,5.17725556 L6.76415094,5.17725556 L9.6590566,2.15843333 C9.6590566,2.15843333 10.4898113,1.17998889 9.48132075,0.1836 Z" id="Fill-17" fill="url(#linearGradient-63)" mask="url(#mask-62)"></path>
                    </g>
                    <g id="Group-22" transform="translate(118.000000, 7.000000)">
                        <mask id="mask-65" fill="white">
                            <use xlink:href="#path-64"></use>
                        </mask>
                        <g id="Clip-21"></g>
                        <path d="M0.897217391,2.26728205 L0.13373913,4.38523077 L2.30173913,6.86735897 C2.30173913,6.86735897 3.03043478,2.66484615 3.57234783,1.75538462 L3.57234783,1.75538462 C4.11408696,0.84574359 3.83304348,0.406 3.32869565,0.14 L3.32869565,0.14 L0.897217391,2.26728205 Z" id="Fill-20" fill="url(#linearGradient-66)" mask="url(#mask-65)"></path>
                    </g>
                    <g id="Group-25" transform="translate(27.000000, 42.000000)">
                        <mask id="mask-68" fill="white">
                            <use xlink:href="#path-67"></use>
                        </mask>
                        <g id="Clip-24"></g>
                        <path d="M0.00857627119,21.6595149 C2.64186441,21.8535448 7.43320339,22.5389925 12.1231186,24.9087687 L12.1231186,24.9087687 C13.1539492,19.236194 21.9587966,14.6274254 21.9587966,14.6274254 L21.9587966,14.6274254 L16.2361864,0.170708955 C16.2361864,0.170708955 2.30049153,9.64589552 0.00857627119,21.6595149" id="Fill-23" fill="#BAE3FF" mask="url(#mask-68)"></path>
                    </g>
                    <g id="Group-28" transform="translate(27.000000, 64.000000)">
                        <mask id="mask-70" fill="white">
                            <use xlink:href="#path-69"></use>
                        </mask>
                        <g id="Clip-27"></g>
                        <path d="M2.19877665,11.479198 C11.5145127,28.5479703 36.8508731,10.5357822 36.8508731,10.5357822 L36.8508731,10.5357822 L34.7649746,6.6430396 C34.7649746,6.6430396 19.0029746,15.5653267 13.6845533,7.94689109 L13.6845533,7.94689109 C12.5803756,6.36518812 12.3164924,4.79289109 12.588264,3.29414851 L12.588264,3.29414851 C7.86372081,0.904663366 3.03700508,0.213514851 0.384274112,0.0178712871 L0.384274112,0.0178712871 C-0.31177665,3.66963366 0.0561573604,7.55372277 2.19877665,11.479198" id="Fill-26" fill="url(#linearGradient-71)" mask="url(#mask-70)"></path>
                    </g>
                    <g id="Group-35" transform="translate(59.000000, 46.000000)">
                        <path d="M0.192663507,35.5569437 L8.87531754,5.51576091 C8.97389573,5.17468477 9.26754502,4.92601472 9.62318483,4.88488274 C11.1962654,4.70326345 15.7545592,4.19258832 21.0178768,3.7515934 C27.3574028,3.22025838 34.7194882,2.78978122 39.1189194,3.15602487 C39.7445118,3.20823807 40.1223318,3.86353249 39.8442275,4.42097411 C37.3424265,9.43550711 27.0518104,29.8330249 21.8986351,36.5153751 C21.7278294,36.7366239 21.4639431,36.8660299 21.1826161,36.8634398 L1.03721327,36.6778371 C0.451052133,36.6722025 0.0311469194,36.1153244 0.192663507,35.5569437" id="Fill-29" fill="#E9F9FF"></path>
                        <path d="M21.9184455,1.14713147 L28.2136114,0.107938579 C28.5489668,0.0525324873 28.8234692,0.369943655 28.7169289,0.689796447 L28.0938009,2.56045635 C28.0395829,2.72348173 27.8960758,2.84143096 27.7245118,2.86396904 L21.6666919,3.66576091 C21.353327,3.70726853 21.0949384,3.42516701 21.1669763,3.11996396 L21.5527583,1.48670508 C21.5942749,1.3107203 21.7385403,1.1768066 21.9184455,1.14713147" id="Fill-31" fill="#F89332"></path>
                        <path d="M17.2048531,6.4271066 L17.7235261,3.75089848 C17.7754692,3.4823198 17.9991659,3.27966497 18.2734787,3.25205584 L30.9883602,1.97377157 C31.4162275,1.93076142 31.7589763,2.31916751 31.6585024,2.7336802 L30.8501611,6.06856345 C30.785327,6.33545178 30.5508246,6.52815228 30.274237,6.54186294 L17.8494028,7.16147208 C17.4450427,7.18175635 17.1286445,6.82114721 17.2048531,6.4271066" id="Fill-33" fill="#F89332"></path>
                    </g>
                    <g id="Group-38" transform="translate(60.000000, 64.000000)">
                        <mask id="mask-73" fill="white">
                            <use xlink:href="#path-72"></use>
                        </mask>
                        <g id="Clip-37"></g>
                        <path d="M0.246774194,3.47818182 C-0.251225806,5.17054545 0.983612903,9.94054545 0.983612903,9.94054545 L0.983612903,9.94054545 C3.0603871,10.2174545 4.30548387,9.38581818 5.2083871,8.55418182 L5.2083871,8.55418182 C6.17825806,7.66072727 6.75309677,6.76709091 7.54025806,7.24854545 L7.54025806,7.24854545 C9.05941935,8.17836364 9.94625806,6.72890909 9.94625806,6.72890909 L9.94625806,6.72890909 L8.53625806,5.26727273 C10.6014194,6.21036364 10.8181935,4.44509091 10.8181935,4.44509091 L10.8181935,4.44509091 L9.30212903,3.34327273 C11.7470323,4.05436364 11.9386452,1.85 11.9386452,1.85 L11.9386452,1.85 C11.9386452,1.85 8.14393548,0.577090909 4.92696774,0.0936363636 L4.92696774,0.0936363636 C4.61670968,0.0469090909 4.32793548,0.0250909091 4.05793548,0.0250909091 L4.05793548,0.0250909091 C1.52864516,0.0252727273 0.696774194,1.94909091 0.246774194,3.47818182" id="Fill-36" fill="url(#linearGradient-74)" mask="url(#mask-73)"></path>
                    </g>
                    <g id="Group-41" transform="translate(55.000000, 26.000000)">
                        <mask id="mask-76" fill="white">
                            <use xlink:href="#path-75"></use>
                        </mask>
                        <g id="Clip-40"></g>
                        <path d="M5.00297468,0.176188235 L0.168227848,14.0370824 C0.0881012658,14.2667294 0.183417722,14.5210353 0.397974684,14.6384941 L0.397974684,14.6384941 C1.71588608,15.3607529 6.46386076,17.4488471 12.1856962,13.8524235 L12.1856962,13.8524235 C12.7817089,13.4778353 13.1874684,12.8668235 13.278038,12.1728 L13.278038,12.1728 L14.8435443,0.176188235 L5.00297468,0.176188235 Z" id="Fill-39" fill="url(#linearGradient-77)" mask="url(#mask-76)"></path>
                    </g>
                    <g id="Group-44" transform="translate(58.000000, 13.000000)">
                        <mask id="mask-79" fill="white">
                            <use xlink:href="#path-78"></use>
                        </mask>
                        <g id="Clip-43"></g>
                        <path d="M0.0907912088,3.7881978 L4.04095604,14.404978 C9.69392308,17.6304945 16.1673736,17.9157582 16.8369121,13.9441099 L16.8369121,13.9441099 C17.5064505,9.97227473 12.2831538,0.139736264 12.2831538,0.139736264 L12.2831538,0.139736264 L0.0907912088,3.7881978 Z" id="Fill-42" fill="url(#linearGradient-80)" mask="url(#mask-79)"></path>
                    </g>
                    <g id="Group-47" transform="translate(51.000000, 6.000000)">
                        <mask id="mask-82" fill="white">
                            <use xlink:href="#path-81"></use>
                        </mask>
                        <g id="Clip-46"></g>
                        <path d="M15.7545882,2.16737288 C15.5941176,2.37749153 15.2794622,2.38215254 15.1191765,2.17184746 L15.1191765,2.17184746 C14.4273782,1.26350847 12.6084034,-0.621033898 10.0832101,0.521661017 L10.0832101,0.521661017 C7.71996639,1.59071186 7.4537479,3.33710169 7.48610084,4.21728814 L7.48610084,4.21728814 C7.49571429,4.47625424 7.26628571,4.67742373 7.01393277,4.62913559 L7.01393277,4.62913559 C5.81909244,4.39925424 2.95188235,4.20181356 1.61357983,7.16808475 L1.61357983,7.16808475 C0.511176471,9.61120339 1.2277479,10.9944068 1.88035294,11.6706271 L1.88035294,11.6706271 C2.09166387,11.8896949 1.99904202,12.2506441 1.70915966,12.3401356 L1.70915966,12.3401356 C0.923815126,12.5826949 -0.0902184874,13.2540678 0.0112773109,15.1095254 L0.0112773109,15.1095254 C0.151781513,17.6742034 2.99532773,17.4482373 3.80489076,17.3315254 L3.80489076,17.3315254 C3.93763025,17.312322 4.07110924,17.3581864 4.16095798,17.4583051 L4.16095798,17.4583051 C4.85515966,18.2329661 7.98285714,21.5225254 11.3678992,21.9188983 L11.3678992,21.9188983 C11.6611092,21.9533898 11.8881345,21.6614237 11.7921849,21.3800847 L11.7921849,21.3800847 L10.3272437,17.0856102 C10.2592101,16.8863051 10.3536807,16.6672373 10.5448403,16.5820339 L10.5448403,16.5820339 L11.2715798,16.2574407 C11.4987899,16.1556441 11.5827227,15.8752373 11.4466555,15.6653051 L11.4466555,15.6653051 C11.0325378,15.0274915 10.2562521,13.7257627 10.008521,12.5862373 L10.008521,12.5862373 C10.008521,12.5862373 9.07915966,11.9858983 12.3736134,11.1909153 L12.3736134,11.1909153 C15.6678824,10.3955593 20.5807227,9.16132203 21.6134286,6.33338983 L21.6134286,6.33338983 C22.3477479,4.32244068 21.1392269,0.0894915254 18.7937311,0.0894915254 L18.7937311,0.0894915254 C17.9235294,0.0894915254 16.8967395,0.672118644 15.7545882,2.16737288" id="Fill-45" fill="#4A2009" mask="url(#mask-82)"></path>
                    </g>
                    <g id="Group-50" transform="translate(59.000000, 21.000000)">
                        <mask id="mask-84" fill="white">
                            <use xlink:href="#path-83"></use>
                        </mask>
                        <g id="Clip-49"></g>
                        <path d="M0.136551724,1.0624 C-0.114310345,3.363 3.22741379,4.3946 4.88258621,3.537 L4.88258621,3.537 L3.81965517,1.4936 C3.81965517,1.4936 2.12,0.141 1.02534483,0.141 L1.02534483,0.141 C0.564310345,0.141 0.210689655,0.3808 0.136551724,1.0624" id="Fill-48" fill="url(#linearGradient-85)" mask="url(#mask-84)"></path>
                    </g>
                </g>
                <g id="Group-30" transform="translate(151.500000, 161.500000) scale(-1, 1) translate(-151.500000, -161.500000) translate(100.000000, 112.000000)">
                    <g id="Group-3" transform="translate(2.000000, 36.000000)">
                        <mask id="mask-87" fill="white">
                            <use xlink:href="#path-86"></use>
                        </mask>
                        <g id="Clip-2"></g>
                        <path d="M58.9756756,0.0559646018 C49.4496444,0.276165192 14.7538044,1.13611799 2.34192,2.24480236 L2.34192,2.24480236 C0.618644444,2.39861357 -0.461204444,4.18673746 0.193884444,5.79379941 L0.193884444,5.79379941 L20.9136444,58.0932684 C21.9681644,60.7550619 24.70332,62.3443835 27.5284933,61.9365369 L27.5284933,61.9365369 L81.8624222,58.1203363 L62.2915733,2.29473156 C61.7798933,0.944082596 60.4903067,0.0550501475 59.0560356,0.0550501475 L59.0560356,0.0550501475 C59.0292489,0.0550501475 59.0026444,0.0550501475 58.9756756,0.0559646018" id="Fill-1" fill="url(#linearGradient-88)" mask="url(#mask-87)"></path>
                    </g>
                    <g id="Group-6" transform="translate(7.000000, 39.000000)">
                        <mask id="mask-90" fill="white">
                            <use xlink:href="#path-89"></use>
                        </mask>
                        <g id="Clip-5"></g>
                        <path d="M52.4105902,0.0354423077 L1.73051707,1.98221154 C0.601204878,2.00815385 -0.157746341,3.16423077 0.256112195,4.22804808 L0.256112195,4.22804808 L20.7602488,56.9398942 L73.948922,53.3925577 L55.3871951,2.00778846 C54.9246049,0.813528846 53.7873512,0.0330673077 52.5280878,0.0330673077 L52.5280878,0.0330673077 C52.4891024,0.0330673077 52.4497561,0.0337980769 52.4105902,0.0354423077" id="Fill-4" fill="#FFFFFF" mask="url(#mask-90)"></path>
                    </g>
                    <g id="Group-9" transform="translate(26.000000, 93.000000)">
                        <mask id="mask-92" fill="white">
                            <use xlink:href="#path-91"></use>
                        </mask>
                        <g id="Clip-8"></g>
                        <path d="M0.180150943,0.800769231 L1.30028302,2.17923077 C1.30028302,3.73711538 2.4930566,5 3.96422877,5 L3.96422877,5 L75.179967,5 C76.1480967,5 76.9329882,4.16884615 76.9329882,3.14384615 L76.9329882,3.14384615 C76.9329882,1.49519231 75.6819198,0.1525 74.1252123,0.130192308 L74.1252123,0.130192308 L0.180150943,0.800769231 Z" id="Fill-7" fill="#167BBD" mask="url(#mask-92)"></path>
                    </g>
                    <g id="Group-12">
                        <mask id="mask-94" fill="white">
                            <use xlink:href="#path-93"></use>
                        </mask>
                        <g id="Clip-11"></g>
                        <path d="M53.76353,0.594044025 C48.8545132,1.52222642 44.0949448,3.60822013 40.5034436,7.08366038 L40.5034436,7.08366038 C36.9121247,10.5594654 34.570705,15.4358428 34.6304844,20.4353333 L34.6304844,20.4353333 C34.6707626,23.8175723 35.7584556,27.3043208 34.6751367,30.5085472 L34.6751367,30.5085472 C33.8331223,33.0001761 31.6435204,34.9887736 29.0839424,35.5868302 L29.0839424,35.5868302 C27.3250072,35.9977547 25.5236067,35.782717 23.7141871,35.5676792 L23.7141871,35.5676792 C22.5969688,35.4348994 21.4768345,35.3021195 20.3616211,35.3165283 L20.3616211,35.3165283 C17.4665132,35.354283 14.5952806,36.4287421 12.3854484,38.3007925 L12.3854484,38.3007925 C10.4280384,39.9596289 8.97747722,42.2856478 8.64741487,44.8310818 L8.64741487,44.8310818 C8.31735252,47.3765157 9.20310791,50.1149182 11.1583309,51.7761258 L11.1583309,51.7761258 C12.4953477,52.9122327 14.37694,53.6813711 14.8704844,55.3657421 L14.8704844,55.3657421 C15.4227146,57.2503774 13.8021103,59.1437673 11.9946954,59.9090755 L11.9946954,59.9090755 C10.1872806,60.6742013 8.153506,60.7396792 6.3143789,61.4249182 L6.3143789,61.4249182 C2.44658034,62.8656164 0.0114820144,67.0525597 0,71.1893459 L0,71.1893459 L0,71.2469811 C0,71.4919308 0.00984172662,71.7366981 0.0277026379,71.9807358 L0.0277026379,71.9807358 C0.349199041,76.3626541 3.11928058,80.3292704 6.75251799,82.7964591 L6.75251799,82.7964591 C10.3855731,85.2636478 14.7952134,86.3714843 19.1713189,86.7284214 L19.1713189,86.7284214 C23.5474245,87.0853585 27.9454005,86.7364465 32.3311655,86.5296164 L32.3311655,86.5296164 C37.3477122,86.2930566 42.463952,86.2270314 47.2213333,84.6165283 L47.2213333,84.6165283 C52.0321151,82.9879686 56.1887866,79.8722013 60.0646043,76.5880881 L60.0646043,76.5880881 C61.8997218,75.0330314 63.7607194,73.3316981 64.5846906,71.0711572 L64.5846906,71.0711572 C65.1826667,69.4296478 65.1855827,67.6059308 65.8730456,65.9999874 L65.8730456,65.9999874 C67.34894,62.5535472 71.440729,61.0885912 73.807482,58.1820252 L73.807482,58.1820252 C76.2068585,55.2351509 76.5186954,50.7587547 74.5510791,47.5071069 L74.5510791,47.5071069 C72.9949928,44.9355912 70.2804988,43.2466604 68.6431271,40.7263962 L68.6431271,40.7263962 C66.5805564,37.5513522 66.510024,33.3470818 67.8612566,29.8099937 L67.8612566,29.8099937 C68.9824844,26.8751572 70.9794436,24.3408491 72.1229065,21.4147673 L72.1229065,21.4147673 C73.6616787,17.4760566 73.6906571,15.7820189 72.9895252,11.8281698 L72.9895252,11.8281698 C72.372048,8.34561635 71.0199041,4.6363522 67.6791847,2.639 L67.6791847,2.639 C64.8121439,0.924716981 61.5007674,0.17436478 58.1620528,0.17436478 L58.1620528,0.17436478 C56.6894388,0.17436478 55.2113573,0.32027673 53.76353,0.594044025" id="Fill-10" fill="#4A2009" mask="url(#mask-94)"></path>
                    </g>
                    <path d="M70.450104,41.8458335 C67.6556749,40.950088 59.504972,39.2475364 51.6127363,46.3683044 C50.2742071,47.5758818 49.7053277,49.4348939 50.1478494,51.1913537 C52.1127751,58.9907827 56.0988852,83.9676509 51.1085636,93.8159502 C51.1085636,93.8159502 52.6721282,93.802337 70.0433508,94 C70.0433508,94 74.5041562,75.722981 80.0921157,67.7581976 C83.949891,62.2595729 74.414825,46.7815997 71.9994691,43.0405238 C71.6338765,42.4740351 71.0881836,42.0503938 70.450104,41.8458335" id="Fill-13" fill="#FFE7D0"></path>
                    <g id="Group-17" transform="translate(58.000000, 26.000000)">
                        <mask id="mask-96" fill="white">
                            <use xlink:href="#path-95"></use>
                        </mask>
                        <g id="Clip-16"></g>
                        <path d="M0.0265517241,17.1656364 C0.0265517241,17.1656364 4.83412069,19.3516364 9.45715517,15.8589091 L9.45715517,15.8589091 C9.45715517,15.8589091 10.1353621,3.998 10.863069,1.88345455 L10.863069,1.88345455 L5.02586207,0.114363636 C5.02586207,0.114363636 0.444172414,11.9287273 0.0265517241,17.1656364" id="Fill-15" fill="#FCB28C" mask="url(#mask-96)"></path>
                    </g>
                    <g id="Group-20" transform="translate(57.000000, 10.000000)">
                        <mask id="mask-98" fill="white">
                            <use xlink:href="#path-97"></use>
                        </mask>
                        <g id="Clip-19"></g>
                        <path d="M1.34002062,2.11364103 C-1.27394845,4.88958974 1.0527732,13.2382564 1.0527732,13.2382564 L1.0527732,13.2382564 C1.0527732,13.2382564 8.42236082,24.1494615 14.8225979,19.845 L14.8225979,19.845 C21.2228351,15.5405385 10.8707113,0.186666667 10.8707113,0.186666667 L10.8707113,0.186666667 C10.8707113,0.186666667 9.87419588,0.0644358974 8.49474227,0.0644358974 L8.49474227,0.0644358974 C6.23987629,0.0644358974 2.96168041,0.391282051 1.34002062,2.11364103" id="Fill-18" fill="#FCB28C" mask="url(#mask-98)"></path>
                    </g>
                    <g id="Group-23" transform="translate(54.000000, 6.000000)">
                        <mask id="mask-100" fill="white">
                            <use xlink:href="#path-99"></use>
                        </mask>
                        <g id="Clip-22"></g>
                        <path d="M0.55445122,3.54290625 C-1.61871951,8.38684375 3.52189024,16.912875 3.52189024,16.912875 L3.52189024,16.912875 L5.4579878,7.96503125 C7.67689024,7.898625 15.6245122,5.95938542 14.9496951,3.72388542 L14.9496951,3.72388542 C14.275061,1.4885625 9.21621951,0.244552083 9.21621951,0.244552083 L9.21621951,0.244552083 C9.21621951,0.244552083 8.23170732,0.00991666667 6.90091463,0.00991666667 L6.90091463,0.00991666667 C4.81573171,0.01009375 1.88103659,0.586145833 0.55445122,3.54290625" id="Fill-21" fill="#4A2009" mask="url(#mask-100)"></path>
                    </g>
                    <g id="Group-26" transform="translate(54.000000, 19.000000)">
                        <mask id="mask-102" fill="white">
                            <use xlink:href="#path-101"></use>
                        </mask>
                        <g id="Clip-25"></g>
                        <path d="M0.4196,1.22018182 C-1.5088,4.42145455 4.5536,6.93509091 6.6954,5.38072727 L6.6954,5.38072727 L6.9644,3.04018182 C6.9644,3.04018182 4.3098,0.153090909 2.186,0.152909006 L2.186,0.152909006 C1.5088,0.152727273 0.8858,0.446181818 0.4196,1.22018182" id="Fill-24" fill="#FCB28C" mask="url(#mask-102)"></path>
                    </g>
                    <g id="Group-29" transform="translate(32.000000, 47.000000)">
                        <mask id="mask-104" fill="white">
                            <use xlink:href="#path-103"></use>
                        </mask>
                        <g id="Clip-28"></g>
                        <path d="M18.0569615,1.02336066 C18.0569615,1.02336066 4.15239103,11.870082 0.496346154,26.9314262 L0.496346154,26.9314262 C-3.15988462,41.9929508 20.2683974,43.9657377 20.2683974,43.9657377 L20.2683974,43.9657377 C20.2683974,43.9657377 23.5097051,40.5665574 27.2694808,41.8557213 L27.2694808,41.8557213 C31.0292564,43.1447049 27.6622821,35.8407049 23.2388526,35.7905738 L23.2388526,35.7905738 C21.6620705,35.7729016 20.9004487,36.1966721 20.2921923,36.6204426 L20.2921923,36.6204426 C19.1937244,37.3853934 18.5940192,38.1503443 14.5972244,36.3180328 L14.5972244,36.3180328 C8.54700641,33.5447705 4.91698718,25.2033443 20.6762564,12.8910984 L20.6762564,12.8910984 C21.5897564,12.177541 22.324609,11.2609344 22.7750385,10.2103443 L22.7750385,10.2103443 C25.2720128,4.38863934 24.3243077,0.116491718 21.0500962,0.116491718 L21.0500962,0.116491718 C20.2018462,0.116491718 19.198,0.402852459 18.0569615,1.02336066" id="Fill-27" fill="#FCB28C" mask="url(#mask-104)"></path>
                    </g>
                </g>
            </g>
        </g>
    </g>
</svg>