<?xml version="1.0" encoding="UTF-8"?>
<svg width="250px" height="180px" viewBox="0 0 250 180" version="1.1" xmlns="http://www.w3.org/2000/svg" xmlns:xlink="http://www.w3.org/1999/xlink">
    <title>F7403A90-0A46-4D2A-A269-AB225084AE84@1x</title>
    <defs>
        <filter id="filter-1">
            <feColorMatrix in="SourceGraphic" type="matrix" values="0 0 0 0 0.305882 0 0 0 0 0.733333 0 0 0 0 0.933333 0 0 0 1.000000 0"></feColorMatrix>
        </filter>
        <filter id="filter-2">
            <feColorMatrix in="SourceGraphic" type="matrix" values="0 0 0 0 1.000000 0 0 0 0 1.000000 0 0 0 0 1.000000 0 0 0 1.000000 0"></feColorMatrix>
        </filter>
        <filter id="filter-3">
            <feColorMatrix in="SourceGraphic" type="matrix" values="0 0 0 0 0.968627 0 0 0 0 0.580392 0 0 0 0 0.113725 0 0 0 1.000000 0"></feColorMatrix>
        </filter>
        <path d="M0.11588785,14.8005 C5.79018692,12.3620714 16.9509346,20.1704286 29.188785,24.91775 L29.188785,24.91775 C41.4261682,29.6655357 49.6373832,13.9824286 49.6373832,13.9824286 L49.6373832,13.9824286 L49.8504673,7.74985714 C42.2607477,2.34139286 35.1462617,0.368178571 28.8,0.368642775 L28.8,0.368642775 C11.6429907,0.3705 0.11588785,14.8005 0.11588785,14.8005" id="path-4"></path>
        <path d="M32.0350656,0.603240741 C25.5537705,2.51666667 8.0389918,14.2222222 2.20863115,18.1898148 L2.20863115,18.1898148 C1.00106557,19.0115741 0.280008197,20.3319444 0.260642566,21.75 L0.260642566,21.75 C0.258729508,21.9212963 0.388336066,22.0648148 0.566786885,22.0810185 L0.566786885,22.0810185 C4.53187705,22.4282407 45.2989426,25.9388889 50.7283934,23.9092593 L50.7283934,23.9092593 C56.4364016,21.775463 58.6353607,4.59722222 58.6353607,4.59722222 L58.6353607,4.59722222 C58.6353607,4.59722222 45.2273689,0.0939814815 36.3493197,0.0939814815 L36.3493197,0.0939814815 C34.7224672,0.0944444444 33.2469836,0.24537037 32.0350656,0.603240741" id="path-6"></path>
        <linearGradient x1="100%" y1="50%" x2="-2.22044605e-14%" y2="50%" id="linearGradient-8">
            <stop stop-color="#57C6F2" offset="0%"></stop>
            <stop stop-color="#2C94E0" offset="100%"></stop>
        </linearGradient>
        <path d="M37.9161818,0.0358490566 C23.9400992,0.0514150943 3.3788595,1.34622642 0.629371901,1.52311321 L0.629371901,1.52311321 C0.452016529,1.53443396 0.319719008,1.67735849 0.316927267,1.85235849 L0.316927267,1.85235849 C0.29814876,3.29716981 0.97785124,4.66037736 2.15175207,5.52688679 L2.15175207,5.52688679 C7.82233058,9.71650943 24.8633058,22.0806604 31.2346777,24.1929245 L31.2346777,24.1929245 C38.9285455,26.7443396 57.6980165,20.7966981 57.6980165,20.7966981 L57.6980165,20.7966981 C57.6980165,20.7966981 55.9791074,3.24386792 50.3804298,0.926886792 L50.3804298,0.926886792 C48.8168264,0.279716981 44.2161322,0.0419811321 38.4022314,0.0358490566 L38.4022314,0.0358490566 L37.9161818,0.0358490566 Z" id="path-9"></path>
        <linearGradient x1="-2.22044605e-14%" y1="50%" x2="100%" y2="50%" id="linearGradient-11">
            <stop stop-color="#2C94E0" offset="0%"></stop>
            <stop stop-color="#57C6F2" offset="100%"></stop>
        </linearGradient>
        <path d="M5.69794737,6.57877358 C3.86573684,7.01320755 2.41578947,8.425 1.96342105,10.245283 L1.96342105,10.245283 C-0.441473684,19.9212264 -0.496421053,29.6174528 1.81231579,39.334434 L1.81231579,39.334434 C2.10552632,40.5674528 3.03584211,41.5523585 4.26268421,41.8877358 L4.26268421,41.8877358 C11.0463158,43.7419811 35.0625789,49.6231132 67.8140526,49.9509434 L67.8140526,49.9509434 C78.3634737,50.0561321 87.8447368,48.3419811 96.0631579,45.7886792 L96.0631579,45.7886792 C98.0767895,37.0391509 100.730842,21.440566 96.4046842,5.21745283 L96.4046842,5.21745283 C88.2966316,2.48679245 78.9262105,0.557075472 68.4587368,0.391981132 L68.4587368,0.391981132 C66.9363158,0.367924528 65.4333158,0.356603774 63.9487895,0.356603774 L63.9487895,0.356603774 C34.8773684,0.356603774 13.2612632,4.78490566 5.69794737,6.57877358" id="path-12"></path>
        <linearGradient x1="100%" y1="50%" x2="-2.22044605e-14%" y2="50%" id="linearGradient-14">
            <stop stop-color="#57C6F2" offset="0%"></stop>
            <stop stop-color="#2C94E0" offset="100%"></stop>
        </linearGradient>
        <path d="M0.378378378,42.5413333 C18.3059459,36.6962989 30.2149324,26.6506092 34.0502703,23.0885287 L34.0502703,23.0885287 C34.8027703,22.3891609 34.8179054,21.1723103 34.0833784,20.4541609 L34.0833784,20.4541609 C30.3241892,16.775931 18.6006081,6.35164368 0.719391892,0.0301494253 L0.719391892,0.0301494253 C5.03905405,17.0289885 2.38898649,33.3734368 0.378378378,42.5413333" id="path-15"></path>
        <linearGradient x1="66.6655113%" y1="13.3808019%" x2="-47.5928816%" y2="113.027759%" id="linearGradient-17">
            <stop stop-color="#08005D" offset="0%"></stop>
            <stop stop-color="#1A0E90" offset="100%"></stop>
        </linearGradient>
        <path d="M0.378378378,42.5413333 C18.3059459,36.6962989 30.2149324,26.6506092 34.0502703,23.0885287 L34.0502703,23.0885287 C34.8027703,22.3891609 34.8179054,21.1723103 34.0833784,20.4541609 L34.0833784,20.4541609 C30.3241892,16.775931 18.6006081,6.35164368 0.719391892,0.0301494253 L0.719391892,0.0301494253 C5.03905405,17.0289885 2.38898649,33.3734368 0.378378378,42.5413333" id="path-18"></path>
        <path d="M0.222169811,12.8585965 C0.128301887,19.8448421 5.50990566,25.5767018 12.240566,25.6606316 L12.240566,25.6606316 C18.9716981,25.7450175 24.5042453,20.1495439 24.5976415,13.1637544 L24.5976415,13.1637544 C24.6910377,6.17796491 19.3108491,0.446105263 12.5792453,0.362175439 L12.5792453,0.362175439 C12.529717,0.361263158 12.4792453,0.361263158 12.429717,0.361263158 L12.429717,0.361263158 C5.76603774,0.360350877 0.31509434,5.92435088 0.222169811,12.8585965" id="path-19"></path>
        <path d="M0.346971429,9.3935 C0.287542857,14.4525 3.73257143,18.6035 8.04205714,18.664 L8.04205714,18.664 C12.352,18.7255 15.8939429,14.6735 15.9533714,9.6145 L15.9533714,9.6145 C16.0137143,4.5555 12.5686857,0.405 8.25874286,0.344 L8.25874286,0.344 C8.22674286,0.3435 8.19474286,0.3435 8.16274286,0.3435 L8.16274286,0.3435 C3.89622857,0.3435 0.406857143,4.372 0.346971429,9.3935" id="path-21"></path>
    </defs>
    <g id="Comfortable-Themes" stroke="none" stroke-width="1" fill="none" fill-rule="evenodd">
        <g id="Outsourcing-IT-Profesional---alt" transform="translate(-938.000000, -3116.000000)">
            <g id="Group-130" transform="translate(938.000000, 3097.000000)">
                <g id="Group-129" transform="translate(0.000000, 19.000000)">
                    <g filter="url(#filter-1)" id="Group-29" opacity="0.299319">
                        <g transform="translate(0.000000, 29.000000)">
                            <polygon id="Fill-1" fill="#FFFFFF" points="0 11 23 11 23 8 0 8"></polygon>
                            <polygon id="Fill-2" fill="#FFFFFF" points="26 11 52 11 52 8 26 8"></polygon>
                            <polygon id="Fill-3" fill="#FFFFFF" points="53 11 70 11 70 8 53 8"></polygon>
                            <polygon id="Fill-4" fill="#FFFFFF" points="72 11 85 11 85 8 72 8"></polygon>
                            <polygon id="Fill-5" fill="#FFFFFF" points="0 24 23 24 23 21 0 21"></polygon>
                            <polygon id="Fill-6" fill="#FFFFFF" points="26 24 52 24 52 21 26 21"></polygon>
                            <polygon id="Fill-7" fill="#FFFFFF" points="53 24 70 24 70 21 53 21"></polygon>
                            <polygon id="Fill-8" fill="#FFFFFF" points="72 24 85 24 85 21 72 21"></polygon>
                            <polygon id="Fill-9" fill="#FFFFFF" points="0 3 36 3 36 0 0 0"></polygon>
                            <polygon id="Fill-10" fill="#FFFFFF" points="39 3 60 3 60 0 39 0"></polygon>
                            <polygon id="Fill-11" fill="#FFFFFF" points="62 3 85 3 85 0 62 0"></polygon>
                            <polygon id="Fill-12" fill="#FFFFFF" points="0 17 36 17 36 14 0 14"></polygon>
                            <polygon id="Fill-13" fill="#FFFFFF" points="39 17 60 17 60 14 39 14"></polygon>
                            <polygon id="Fill-14" fill="#FFFFFF" points="62 17 85 17 85 14 62 14"></polygon>
                            <polygon id="Fill-15" fill="#FFFFFF" points="0 37 23 37 23 34 0 34"></polygon>
                            <polygon id="Fill-16" fill="#FFFFFF" points="26 37 52 37 52 34 26 34"></polygon>
                            <polygon id="Fill-17" fill="#FFFFFF" points="53 37 70 37 70 34 53 34"></polygon>
                            <polygon id="Fill-18" fill="#FFFFFF" points="72 37 85 37 85 34 72 34"></polygon>
                            <polygon id="Fill-19" fill="#FFFFFF" points="0 32 36 32 36 29 0 29"></polygon>
                            <polygon id="Fill-20" fill="#FFFFFF" points="39 32 60 32 60 29 39 29"></polygon>
                            <polygon id="Fill-21" fill="#FFFFFF" points="62 32 85 32 85 29 62 29"></polygon>
                            <polygon id="Fill-22" fill="#FFFFFF" points="0 51 23 51 23 48 0 48"></polygon>
                            <polygon id="Fill-23" fill="#FFFFFF" points="26 51 52 51 52 48 26 48"></polygon>
                            <polygon id="Fill-24" fill="#FFFFFF" points="53 51 70 51 70 48 53 48"></polygon>
                            <polygon id="Fill-25" fill="#FFFFFF" points="72 51 85 51 85 48 72 48"></polygon>
                            <polygon id="Fill-26" fill="#FFFFFF" points="0 44 36 44 36 41 0 41"></polygon>
                            <polygon id="Fill-27" fill="#FFFFFF" points="39 44 60 44 60 41 39 41"></polygon>
                            <polygon id="Fill-28" fill="#FFFFFF" points="62 44 85 44 85 41 62 41"></polygon>
                        </g>
                    </g>
                    <g filter="url(#filter-2)" id="Group-29-Copy">
                        <g transform="translate(166.000000, 89.000000)">
                            <polygon id="Fill-1" fill="#FFFFFF" points="0 11 23 11 23 8 0 8"></polygon>
                            <polygon id="Fill-2" fill="#FFFFFF" points="25 11 51 11 51 8 25 8"></polygon>
                            <polygon id="Fill-3" fill="#FFFFFF" points="53 11 69 11 69 8 53 8"></polygon>
                            <polygon id="Fill-4" fill="#FFFFFF" points="72 11 84 11 84 8 72 8"></polygon>
                            <polygon id="Fill-5" fill="#FFFFFF" points="0 24 23 24 23 21 0 21"></polygon>
                            <polygon id="Fill-6" fill="#FFFFFF" points="25 24 51 24 51 21 25 21"></polygon>
                            <polygon id="Fill-7" fill="#FFFFFF" points="53 24 69 24 69 21 53 21"></polygon>
                            <polygon id="Fill-8" fill="#FFFFFF" points="72 24 84 24 84 21 72 21"></polygon>
                            <polygon id="Fill-9" fill="#FFFFFF" points="0 3 35 3 35 0 0 0"></polygon>
                            <polygon id="Fill-10" fill="#FFFFFF" points="39 3 60 3 60 0 39 0"></polygon>
                            <polygon id="Fill-11" fill="#FFFFFF" points="62 3 84 3 84 0 62 0"></polygon>
                            <polygon id="Fill-12" fill="#FFFFFF" points="0 17 35 17 35 14 0 14"></polygon>
                            <polygon id="Fill-13" fill="#FFFFFF" points="39 17 60 17 60 14 39 14"></polygon>
                            <polygon id="Fill-14" fill="#FFFFFF" points="62 17 84 17 84 14 62 14"></polygon>
                            <polygon id="Fill-15" fill="#FFFFFF" points="0 37 23 37 23 34 0 34"></polygon>
                            <polygon id="Fill-16" fill="#FFFFFF" points="25 37 51 37 51 34 25 34"></polygon>
                            <polygon id="Fill-17" fill="#FFFFFF" points="53 37 69 37 69 34 53 34"></polygon>
                            <polygon id="Fill-18" fill="#FFFFFF" points="72 37 84 37 84 34 72 34"></polygon>
                            <polygon id="Fill-19" fill="#FFFFFF" points="0 31 35 31 35 28 0 28"></polygon>
                            <polygon id="Fill-20" fill="#FFFFFF" points="39 31 60 31 60 28 39 28"></polygon>
                            <polygon id="Fill-21" fill="#FFFFFF" points="62 31 84 31 84 28 62 28"></polygon>
                            <polygon id="Fill-22" fill="#FFFFFF" points="0 50 23 50 23 47 0 47"></polygon>
                            <polygon id="Fill-23" fill="#FFFFFF" points="25 50 51 50 51 47 25 47"></polygon>
                            <polygon id="Fill-24" fill="#FFFFFF" points="53 50 69 50 69 47 53 47"></polygon>
                            <polygon id="Fill-25" fill="#FFFFFF" points="72 50 84 50 84 47 72 47"></polygon>
                            <polygon id="Fill-26" fill="#FFFFFF" points="0 43 35 43 35 40 0 40"></polygon>
                            <polygon id="Fill-27" fill="#FFFFFF" points="39 43 60 43 60 40 39 40"></polygon>
                            <polygon id="Fill-28" fill="#FFFFFF" points="62 43 84 43 84 40 62 40"></polygon>
                        </g>
                    </g>
                    <g id="Group-5" transform="translate(0.000000, 89.000000)" fill="#FFFFFF">
                        <polygon id="Fill-1" points="0 4 44 4 44 0 0 0"></polygon>
                        <polygon id="Fill-2" points="48 4 81 4 81 0 48 0"></polygon>
                        <polygon id="Fill-3" points="0 12 25 12 25 8 0 8"></polygon>
                        <polygon id="Fill-4" points="32 12 57 12 57 8 32 8"></polygon>
                    </g>
                    <g id="Group-5-Copy-2" transform="translate(0.000000, 108.000000)" fill="#FFFFFF">
                        <polygon id="Fill-1" points="0 4 44 4 44 0 0 0"></polygon>
                        <polygon id="Fill-2" points="48 4 81 4 81 0 48 0"></polygon>
                        <polygon id="Fill-3" points="0 12 25 12 25 8 0 8"></polygon>
                        <polygon id="Fill-4" points="32 12 57 12 57 8 32 8"></polygon>
                    </g>
                    <g filter="url(#filter-3)" id="Group-5-Copy">
                        <g transform="translate(219.500000, 74.500000) scale(-1, -1) translate(-219.500000, -74.500000) translate(189.000000, 70.000000)">
                            <polygon id="Fill-1" fill="#FFFFFF" points="0 3 33 3 33 0 0 0"></polygon>
                            <polygon id="Fill-2" fill="#FFFFFF" points="36 3 61 3 61 0 36 0"></polygon>
                            <polygon id="Fill-3" fill="#FFFFFF" points="0 9 19 9 19 6 0 6"></polygon>
                            <polygon id="Fill-4" fill="#FFFFFF" points="24 9 43 9 43 6 24 6"></polygon>
                        </g>
                    </g>
                    <g id="Group-37" transform="translate(127.797769, 90.039624) rotate(-90.000000) translate(-127.797769, -90.039624) translate(38.297769, 47.039624)">
                        <g id="Group-5" transform="translate(0.539624, 30.202231)">
                            <mask id="mask-5" fill="white">
                                <use xlink:href="#path-4"></use>
                            </mask>
                            <g id="Clip-4"></g>
                            <path d="M0.11588785,14.8005 C5.79018692,12.3620714 16.9509346,20.1704286 29.188785,24.91775 L29.188785,24.91775 C41.4261682,29.6655357 49.6373832,13.9824286 49.6373832,13.9824286 L49.6373832,13.9824286 L49.8504673,7.74985714 C42.2607477,2.34139286 35.1462617,0.368178571 28.8,0.368642775 L28.8,0.368642775 C11.6429907,0.3705 0.11588785,14.8005 0.11588785,14.8005" id="Fill-3" fill="#F7941D" mask="url(#mask-5)"></path>
                        </g>
                        <g id="Group-8" transform="translate(25.539624, 60.202231)">
                            <mask id="mask-7" fill="white">
                                <use xlink:href="#path-6"></use>
                            </mask>
                            <g id="Clip-7"></g>
                            <path d="M32.0350656,0.603240741 C25.5537705,2.51666667 8.0389918,14.2222222 2.20863115,18.1898148 L2.20863115,18.1898148 C1.00106557,19.0115741 0.280008197,20.3319444 0.260642566,21.75 L0.260642566,21.75 C0.258729508,21.9212963 0.388336066,22.0648148 0.566786885,22.0810185 L0.566786885,22.0810185 C4.53187705,22.4282407 45.2989426,25.9388889 50.7283934,23.9092593 L50.7283934,23.9092593 C56.4364016,21.775463 58.6353607,4.59722222 58.6353607,4.59722222 L58.6353607,4.59722222 C58.6353607,4.59722222 45.2273689,0.0939814815 36.3493197,0.0939814815 L36.3493197,0.0939814815 C34.7224672,0.0944444444 33.2469836,0.24537037 32.0350656,0.603240741" id="Fill-6" fill="url(#linearGradient-8)" mask="url(#mask-7)"></path>
                        </g>
                        <path d="M42.1282877,81.6226416 C42.1963248,81.7080608 42.2972073,81.765956 42.4135741,81.7744979 C42.6322312,81.7906326 64.3285434,83.3822767 73.6937264,83.6997513 C75.361338,83.757172 76.9064829,82.8132901 77.6295526,81.2980487 C78.7706982,78.9077353 80.8592011,74.1574797 82.0284999,69.2045909 C82.0801142,68.9862974 81.9473247,68.7656312 81.7296061,68.7134306 C81.5132952,68.66123 81.2955766,68.796477 81.2434931,69.0157196 C80.0920246,73.8936294 78.0307366,78.5826678 76.9031984,80.9430845 C76.3185489,82.1683752 75.0699517,82.9305042 73.7209412,82.8844727 C64.3707733,82.5679472 42.6899453,80.9772522 42.4722268,80.9611175 C42.2507544,80.9445082 42.0579046,81.1134484 42.0405434,81.3383855 C42.0335051,81.444685 42.067289,81.5452898 42.1282877,81.6226416" id="Fill-9" fill="#BDD0FB"></path>
                        <g id="Group-13" transform="translate(28.039624, 0.702231)">
                            <mask id="mask-10" fill="white">
                                <use xlink:href="#path-9"></use>
                            </mask>
                            <g id="Clip-12"></g>
                            <path d="M37.9161818,0.0358490566 C23.9400992,0.0514150943 3.3788595,1.34622642 0.629371901,1.52311321 L0.629371901,1.52311321 C0.452016529,1.53443396 0.319719008,1.67735849 0.316927267,1.85235849 L0.316927267,1.85235849 C0.29814876,3.29716981 0.97785124,4.66037736 2.15175207,5.52688679 L2.15175207,5.52688679 C7.82233058,9.71650943 24.8633058,22.0806604 31.2346777,24.1929245 L31.2346777,24.1929245 C38.9285455,26.7443396 57.6980165,20.7966981 57.6980165,20.7966981 L57.6980165,20.7966981 C57.6980165,20.7966981 55.9791074,3.24386792 50.3804298,0.926886792 L50.3804298,0.926886792 C48.8168264,0.279716981 44.2161322,0.0419811321 38.4022314,0.0358490566 L38.4022314,0.0358490566 L37.9161818,0.0358490566 Z" id="Fill-11" fill="url(#linearGradient-11)" mask="url(#mask-10)"></path>
                        </g>
                        <path d="M42.1285398,6.44668425 C42.2070744,6.54408582 42.3296074,6.60355697 42.464914,6.59746937 C42.6853787,6.58716728 64.5785641,5.57849912 74.0112361,5.50732105 C75.3723454,5.49701896 76.6113948,6.28138255 77.16918,7.50452147 C78.2440637,9.86276328 80.2017523,14.542253 81.2359494,19.38283 C81.2799477,19.601047 81.4975738,19.7396569 81.7175654,19.6932975 C81.9370839,19.6474064 82.0771216,19.4343404 82.0307578,19.2165917 C81.0334625,14.5478723 79.2399396,10.0908141 77.910528,7.1734498 C77.2202748,5.65997928 75.6879032,4.68970982 74.0055589,4.70223119 C64.5563284,4.77353136 42.6475307,5.78360435 42.427066,5.79343816 C42.2028165,5.80374025 42.0296618,5.99245579 42.0400701,6.2139507 C42.044328,6.30198673 42.0769719,6.38253033 42.1285398,6.44668425" id="Fill-14" fill="#BDD0FB"></path>
                        <g id="Group-18" transform="translate(48.039624, 17.702231)">
                            <mask id="mask-13" fill="white">
                                <use xlink:href="#path-12"></use>
                            </mask>
                            <g id="Clip-17"></g>
                            <path d="M1.96342105,10.245283 C-0.441473684,19.9212264 -0.496421053,29.6174528 1.81231579,39.334434 C2.10552632,40.5674528 3.03584211,41.5523585 4.26268421,41.8877358 C11.0463158,43.7419811 35.0625789,49.6231132 67.8140526,49.9509434 C78.3634737,50.0561321 87.8447368,48.3419811 96.0631579,45.7886792 C98.0767895,37.0391509 100.730842,21.440566 96.4046842,5.21745283 C88.2966316,2.48679245 78.9262105,0.557075472 68.4587368,0.391981132 C66.9363158,0.367924528 65.4333158,0.356603774 63.9487895,0.356603774 C34.8773684,0.356603774 13.2612632,4.78490566 5.69794737,6.57877358 C3.86573684,7.01320755 2.41578947,8.425 1.96342105,10.245283 Z" id="Fill-16" fill="url(#linearGradient-14)" mask="url(#mask-13)"></path>
                        </g>
                        <g id="Group-21" transform="translate(143.539624, 22.202231)">
                            <mask id="mask-16" fill="white">
                                <use xlink:href="#path-15"></use>
                            </mask>
                            <g id="Clip-20"></g>
                            <g id="Fill-19" mask="url(#mask-16)">
                                <use fill="url(#linearGradient-17)" xlink:href="#path-18"></use>
                                <use fill="#1B6A9E" xlink:href="#path-18"></use>
                            </g>
                        </g>
                        <path d="M117.754702,25.7034847 C109.195581,25.5906563 102.159685,33.1091283 102.041154,42.4973276 C101.922144,51.8855268 108.76447,59.5881386 117.324547,59.700967 C125.883668,59.8142838 132.919086,52.2953233 133.038095,42.9076125 C133.157105,33.5189249 126.314301,25.8168015 117.754702,25.7034847" id="Fill-22" fill="#FFFFFF"></path>
                        <g id="Group-26" transform="translate(106.039624, 30.702231)">
                            <mask id="mask-20" fill="white">
                                <use xlink:href="#path-19"></use>
                            </mask>
                            <g id="Clip-25"></g>
                            <path d="M0.222169811,12.8585965 C0.128301887,19.8448421 5.50990566,25.5767018 12.240566,25.6606316 L12.240566,25.6606316 C18.9716981,25.7450175 24.5042453,20.1495439 24.5976415,13.1637544 L24.5976415,13.1637544 C24.6910377,6.17796491 19.3108491,0.446105263 12.5792453,0.362175439 L12.5792453,0.362175439 C12.529717,0.361263158 12.4792453,0.361263158 12.429717,0.361263158 L12.429717,0.361263158 C5.76603774,0.360350877 0.31509434,5.92435088 0.222169811,12.8585965" id="Fill-24" fill="#F7941D" mask="url(#mask-20)"></path>
                        </g>
                        <g id="Group-31" transform="translate(76.539624, 31.202231)" fill="#FFFFFF">
                            <path d="M43.4502688,21.0471043 C43.5485257,21.1758064 43.7150945,21.237466 43.8765165,21.1880404 C47.9995624,19.9284234 50.9187275,15.7796149 50.9772138,11.0974021 C50.9912505,9.91852979 50.8293606,8.75727447 50.4966908,7.64691277 C50.4311862,7.42523191 50.2047275,7.30240213 49.9918376,7.37189149 C49.7808193,7.44138085 49.6624431,7.67725319 49.7293514,7.89844468 C50.0372229,8.92414681 50.1860119,9.99731702 50.1724431,11.0866362 C50.1195716,15.402317 47.4376266,19.2242319 43.6514615,20.3805936 C43.4381037,20.4456787 43.3155165,20.6795936 43.3786817,20.9017638 C43.3931862,20.9565723 43.4184523,21.0055085 43.4502688,21.0471043" id="Fill-27"></path>
                            <path d="M10.5362257,0.319014894 C5.00062018,0.244142553 0.450858716,5.2204617 0.373656881,11.4343766 C0.296922936,17.6487809 4.72222569,22.7469511 10.2578312,22.8218234 C15.7934367,22.8966957 20.3436661,17.9198872 20.4204,11.7059723 C20.4971339,5.49205745 16.0718312,0.393887234 10.5362257,0.319014894" id="Fill-29"></path>
                        </g>
                        <g id="Group-34" transform="translate(79.039624, 32.702231)">
                            <mask id="mask-22" fill="white">
                                <use xlink:href="#path-21"></use>
                            </mask>
                            <g id="Clip-33"></g>
                            <path d="M0.346971429,9.3935 C0.287542857,14.4525 3.73257143,18.6035 8.04205714,18.664 L8.04205714,18.664 C12.352,18.7255 15.8939429,14.6735 15.9533714,9.6145 L15.9533714,9.6145 C16.0137143,4.5555 12.5686857,0.405 8.25874286,0.344 L8.25874286,0.344 C8.22674286,0.3435 8.19474286,0.3435 8.16274286,0.3435 L8.16274286,0.3435 C3.89622857,0.3435 0.406857143,4.372 0.346971429,9.3935" id="Fill-32" fill="#F7941D" mask="url(#mask-22)"></path>
                        </g>
                        <path d="M88.1227668,49.534795 C88.2153926,49.6716926 88.3724155,49.7365115 88.5245865,49.6841378 C91.145898,48.7849698 93.0023846,45.8214489 93.0389939,42.4778299 C93.0486975,41.6367396 92.946368,40.8070575 92.7337696,40.0141925 C92.6724602,39.7798073 92.4589796,39.6491323 92.2587314,39.7227666 C92.0589242,39.7969195 91.9482143,40.0463427 92.011288,40.2812464 C92.1991862,40.9838835 92.2896067,41.7191893 92.2816673,42.4664217 C92.2485866,45.4221644 90.6166074,48.0377373 88.3124292,48.8285281 C88.1112988,48.898014 87.995737,49.145363 88.0552822,49.3813038 C88.0689556,49.4393816 88.0927736,49.4907182 88.1227668,49.534795" id="Fill-35" fill="#FFFFFF"></path>
                    </g>
                </g>
            </g>
        </g>
    </g>
</svg>