<?xml version="1.0" encoding="UTF-8"?>
<svg width="250px" height="222px" viewBox="0 0 250 222" version="1.1" xmlns="http://www.w3.org/2000/svg" xmlns:xlink="http://www.w3.org/1999/xlink">
    <title>858F9AF7-8B9E-431C-B9C0-D848C267083B@1x</title>
    <defs>
        <linearGradient x1="50%" y1="0%" x2="50%" y2="148.559671%" id="linearGradient-1">
            <stop stop-color="#C9E8FF" stop-opacity="0.4" offset="0%"></stop>
            <stop stop-color="#0395FF" stop-opacity="0.8" offset="100%"></stop>
        </linearGradient>
        <linearGradient x1="50%" y1="0%" x2="50%" y2="149.915601%" id="linearGradient-2">
            <stop stop-color="#C9E8FF" stop-opacity="0.7" offset="0%"></stop>
            <stop stop-color="#0395FF" stop-opacity="0.3" offset="100%"></stop>
        </linearGradient>
        <filter id="filter-3">
            <feColorMatrix in="SourceGraphic" type="matrix" values="0 0 0 0 0.968627 0 0 0 0 0.580392 0 0 0 0 0.113725 0 0 0 1.000000 0"></feColorMatrix>
        </filter>
        <path d="M13,2.62715385 C13,2.62715385 -2.01567568,13.4082308 0.591891892,20.6521538 L0.591891892,20.6521538 C0.591891892,20.6521538 17.0205405,13.5907692 19.0054054,8.02846154 L19.0054054,8.02846154 C20.9897297,2.46669231 18.6691892,0.00969230769 18.6691892,0.00969230769 L18.6691892,0.00969230769 L13,2.62715385 Z" id="path-4"></path>
        <linearGradient x1="4.89536757%" y1="-39.9626116%" x2="47.417567%" y2="48.132337%" id="linearGradient-6">
            <stop stop-color="#08005D" offset="0%"></stop>
            <stop stop-color="#1A0E90" offset="100%"></stop>
        </linearGradient>
        <path d="M0.484736842,3.74104762 L3.34421053,9.10066667 C3.93631579,10.210619 5.20789474,10.7763333 6.43947368,10.4987143 L6.43947368,10.4987143 C7.31210526,10.3012381 7.95052632,10.0299048 8.41736842,9.73604762 L8.41736842,9.73604762 C9.35052632,9.14990476 9.71105263,7.96766667 9.35052632,6.93 L9.35052632,6.93 L6.96,0.0523809524 L0.484736842,3.74104762 Z" id="path-7"></path>
        <linearGradient x1="100.00012%" y1="49.9980073%" x2="-0.000772222863%" y2="49.9980073%" id="linearGradient-9">
            <stop stop-color="#FF918E" offset="0%"></stop>
            <stop stop-color="#FDB3B1" offset="100%"></stop>
        </linearGradient>
        <path d="M4.18076471,17.8693953 C-8.77658824,29.9625814 16.0734706,68.5373256 16.0734706,68.5373256 L16.0734706,68.5373256 C16.0734706,68.5373256 20.1446471,68.5127209 25.0787647,64.2395349 L25.0787647,64.2395349 C25.0787647,64.2395349 10.3441765,35.2274419 23.0426471,26.7666512 L23.0426471,26.7666512 C37.3182353,17.254814 53.7702353,15.1126047 53.7702353,15.1126047 L53.7702353,15.1126047 L47.6348824,1.4195814 L47.3431765,0.486744186 C47.3431765,0.486744186 17.1375882,5.7762093 4.18076471,17.8693953" id="path-10"></path>
        <path d="M19.4316522,0.229655172 C17.9097391,0.50637931 8.88573913,6.76810345 5.69843478,8.23086207 L5.69843478,8.23086207 C3.57495652,9.20534483 1.58765217,11.0141379 0.472695652,12.6972414 L0.472695652,12.6972414 C2.4986087,14.1460345 5.75165217,15.3832759 10.4029565,14.055 L10.4029565,14.055 C16.7253913,12.2503448 21.4283478,7.40689655 23.5466087,4.8662069 L23.5466087,4.8662069 C24.2332174,2.87017241 23.5914783,1.72603448 23.5914783,1.72603448 L23.5914783,1.72603448 C23.5914783,1.72603448 21.3208696,0.200172414 19.778087,0.200689524 L19.778087,0.200689524 C19.658087,0.200689524 19.5417391,0.21 19.4316522,0.229655172" id="path-12"></path>
        <linearGradient x1="32.1926431%" y1="35.7075647%" x2="164.975053%" y2="141.83256%" id="linearGradient-14">
            <stop stop-color="#08005D" offset="0%"></stop>
            <stop stop-color="#1A0E90" offset="100%"></stop>
        </linearGradient>
        <path d="M11.137766,10.2716957 C6.39574468,11.7231739 3.07925532,10.3711739 1.01382979,8.788 L1.01382979,8.788 C-0.229255319,10.7996087 -0.406914894,12.6461739 1.47606383,12.9542174 L1.47606383,12.9542174 C1.65425532,12.9830435 1.88138298,12.9988696 2.15265957,13 L2.15265957,13 L2.23404255,13 C5.62446809,12.9830435 15.3446809,10.8894783 20.6441489,5.82852174 L20.6441489,5.82852174 C22.9744681,3.60269565 24.0648936,1.70469565 24.537766,0.230608696 L24.537766,0.230608696 C22.3781915,3.00695652 17.5835106,8.29965217 11.137766,10.2716957" id="path-15"></path>
        <linearGradient x1="100.000159%" y1="49.9994237%" x2="0.000384276329%" y2="49.9994237%" id="linearGradient-17">
            <stop stop-color="#3F42E2" offset="0%"></stop>
            <stop stop-color="#4F52FF" offset="100%"></stop>
        </linearGradient>
        <path d="M0.254647059,7.52368421 C-0.0232941176,8.47052632 0.511411765,9.48 1.46488235,9.75210526 L1.46488235,9.75210526 C2.09964706,9.93315789 2.799,9.98631579 3.40782353,9.98427018 L3.40782353,9.98427018 C4.36658824,9.98157895 5.25282353,9.48631579 5.75841176,8.67631579 L5.75841176,8.67631579 C6.82358824,6.97210526 8.64476471,3.93315789 8.68129412,3.04736842 L8.68129412,3.04736842 L2.33523529,0.462631579 L0.254647059,7.52368421 Z" id="path-18"></path>
        <path d="M21.1696154,9.35117284 L23.0025385,13.8948395 C24.0094615,16.390963 24.3874615,18.9598148 22.2163846,20.5821358 L22.2163846,20.5821358 C14.6321538,26.2480494 10.675,36.385963 7.98861538,43.4087654 L7.98861538,43.4087654 C4.88707692,51.5193086 0.184692308,83.126963 0.184692308,83.126963 L0.184692308,83.126963 C2.35576923,85.405963 8.15769231,85.9601852 8.15769231,85.9601852 L8.15769231,85.9601852 C16.4144615,78.4611975 22.5846923,57.2892716 26.2203846,46.3943457 L26.2203846,46.3943457 C29.8566154,35.4999506 46.1326923,29.3419259 52.9555385,23.8719012 L52.9555385,23.8719012 C59.7783846,18.4024074 52.9555385,0.416197531 52.9555385,0.416197531 L52.9555385,0.416197531 L21.1696154,9.35117284 Z" id="path-20"></path>
        <path d="M0.622916667,18.0832453 C1.33697917,20.6418113 1.58385417,23.8729057 0.366666667,27.4738113 L0.366666667,27.4738113 C3.221875,28.0956226 6.45,28.0396226 9.9828125,26.7674717 L9.9828125,26.7674717 C23.9458333,21.7375094 24.8354167,12.1477736 24.8354167,12.1477736 L24.8354167,12.1477736 L8.040625,0.115698113 C8.24010417,0.828377358 11.6880208,18.7605283 0.622916667,18.0832453" id="path-22"></path>
        <path d="M7.42894737,1.60065625 C3.26210526,4.52625 0.176315789,13.8332187 0.176315789,13.8332187 L0.176315789,13.8332187 C0.176315789,13.8332187 2.39473684,15.595375 4.15894737,13.8332187 L4.15894737,13.8332187 C5.92263158,12.0705312 10.4415789,7.48371875 10.4415789,7.48371875 L10.4415789,7.48371875 C10.4415789,7.48371875 9.49894737,11.7092812 9.66894737,12.4222188 L9.66894737,12.4222188 C9.83947368,13.1351562 12.0989474,12.5104063 11.7973684,10.5447812 L11.7973684,10.5447812 C11.6447368,9.547625 12.4873684,8.6009375 13.3547368,7.90978125 L13.3547368,7.90978125 C14.2089474,7.22871875 15.4463158,7.37534375 16.1442105,8.217375 L16.1442105,8.217375 C18.0847368,10.557 22.55,15.1167187 28.7915789,16.470875 L28.7915789,16.470875 C30.0215789,12.849875 29.7721053,9.60075 29.0505263,7.02790625 L29.0505263,7.02790625 C26.0094737,6.84303125 21.8878947,5.2785 16.3163158,1.60065625 L16.3163158,1.60065625 C16.3163158,1.60065625 14.2184211,0.3006875 11.5852632,0.3006875 L11.5852632,0.3006875 C10.2689474,0.3006875 8.81789474,0.6258125 7.42894737,1.60065625" id="path-24"></path>
        <linearGradient x1="99.9996854%" y1="49.9997615%" x2="0.000291221355%" y2="49.9997615%" id="linearGradient-26">
            <stop stop-color="#FF918E" offset="0%"></stop>
            <stop stop-color="#FDB3B1" offset="100%"></stop>
        </linearGradient>
        <path d="M1.50484127,19.8349254 C1.50484127,19.8349254 -1.04966667,25.1790448 1.73721429,29.934806 L1.73721429,29.934806 C4.52409524,34.6911045 31.0805556,57.8665075 34.7309921,70.7185075 L34.7309921,70.7185075 C34.7309921,70.7185075 50.5525635,75.9132537 66.9143889,63.594806 L66.9143889,63.594806 C66.9143889,63.594806 65.4701667,27.8258507 48.5276746,0.967164179 L48.5276746,0.967164179 C48.5276746,0.967164179 46.5979683,0.186985075 42.8316111,0.186985075 L42.8316111,0.186985075 C35.6046508,0.186985075 21.6133492,3.06 1.50484127,19.8349254" id="path-27"></path>
        <path d="M0.341526316,4.32461111 L6.22152632,15.9320278 C7.01952632,17.5079722 8.63763158,18.5608889 10.4646316,18.6965278 L10.4646316,18.6965278 C16.6060263,19.1546389 19.3752632,15.8449444 20.5424211,13.5702222 L20.5424211,13.5702222 C21.1193684,12.4455278 20.9353421,11.1012778 20.1008684,10.1343889 L20.1008684,10.1343889 L11.6925789,0.399 L0.341526316,4.32461111 Z" id="path-29"></path>
        <path d="M0.235083333,17.3510459 C0.235083333,17.3510459 19.9214167,34.6866606 17.9779167,42.4629174 L17.9779167,42.4629174 C21.8075,44.3306239 27.262625,48.4810826 30.6854167,57.5328073 L30.6854167,57.5328073 C33.0774167,56.0311927 35.1400833,53.7867523 36.6925,50.5813211 L36.6925,50.5813211 C47.5258333,28.2263119 5.016375,0.425688073 5.016375,0.425688073 L5.016375,0.425688073 L0.235083333,17.3510459 Z" id="path-31"></path>
        <filter id="filter-33">
            <feColorMatrix in="SourceGraphic" type="matrix" values="0 0 0 0 0.847000 0 0 0 0 0.847000 0 0 0 0 0.847000 0 0 0 1.000000 0"></feColorMatrix>
        </filter>
        <path d="M0.43225,0.56646 C0.264944444,0.75708 0.280777778,1.05084 0.466555556,1.22202 L0.466555556,1.22202 C0.656555556,1.39536 19.4253889,18.71694 17.61775,26.24886 L17.61775,26.24886 C17.5581111,26.4978 17.7069444,26.7489 17.9497222,26.81046 L17.9497222,26.81046 C17.9856111,26.8191 18.0225556,26.82342 18.0584444,26.82342 L18.0584444,26.82342 C18.2616389,26.82342 18.4468889,26.68194 18.4975556,26.47026 L18.4975556,26.47026 C20.4345,18.40212 1.86358333,1.25712 1.07191667,0.53082 L1.07191667,0.53082 C0.985888889,0.45198 0.877694444,0.41256 0.770027778,0.41256 L0.770027778,0.41256 C0.646,0.41256 0.521972222,0.4644 0.43225,0.56646" id="path-34"></path>
        <linearGradient x1="29.4849383%" y1="95.8933417%" x2="287.196274%" y2="-485.396169%" id="linearGradient-36">
            <stop stop-color="#E1463D" offset="0%"></stop>
            <stop stop-color="#E86059" offset="100%"></stop>
        </linearGradient>
        <path d="M0.461258621,15.5340833 C3.11496552,17.2936944 5.60031034,14.9012778 7.79062069,12.5093889 L7.79062069,12.5093889 C9.53731034,10.602 11.0958621,8.69408333 12.4016034,8.89252778 L12.4016034,8.89252778 C14.413931,9.19811111 18.1435517,8.54841667 20.3028621,8.10613889 L20.3028621,8.10613889 C21.3707586,7.88763889 22.476069,8.08977778 23.3964483,8.66716667 L23.3964483,8.66716667 C28.9951552,12.1731944 49.6999483,24.0687778 61.812931,16.4255 L61.812931,16.4255 C58.4355345,7.44747222 53.0527586,3.33080556 49.2739655,1.47830556 L49.2739655,1.47830556 C49.1344655,2.03880556 48.885931,2.55180556 48.5048448,3.00252778 L48.5048448,3.00252778 C42.8826207,9.64355556 19.8517586,0.814361111 19.8517586,0.814361111 L19.8517586,0.814361111 C18.6272586,0.566305556 17.4749138,0.452305556 16.3899138,0.452305556 L16.3899138,0.452305556 C3.91936207,0.452833333 0.461258621,15.5340833 0.461258621,15.5340833" id="path-37"></path>
        <path d="M0.108648649,1.87765957 C0.108648649,1.87765957 -0.0335135135,12.5617021 1.72054054,17.4138298 L1.72054054,17.4138298 C3.47513514,22.2654255 3.74972973,25.7707447 9.72756757,24.4244681 L9.72756757,24.4244681 C15.7059459,23.0771277 19.2340541,18.4074468 19.7616216,12.6351064 L19.7616216,12.6351064 C19.7616216,12.6351064 20.6405405,3.71223404 18.4756757,1.10053191 L18.4756757,1.10053191 C17.8735135,0.374468085 16.1848649,0.112234043 14.0616216,0.112234043 L14.0616216,0.112234043 C8.55081081,0.112234043 0.108648649,1.87765957 0.108648649,1.87765957" id="path-39"></path>
        <path d="M18.389381,0.183857143 C16.6079048,0.193285714 14.6362857,0.445238095 12.5227143,0.906714286 L12.5227143,0.906714286 C7.46428571,2.01142857 5.005,1.05757143 3.92280952,0.290190476 L3.92280952,0.290190476 C3.6462381,0.0948095238 3.26857143,0.33 3.30785714,0.666809524 L3.30785714,0.666809524 C3.3492381,1.02195238 2.937,1.24666667 2.66095238,1.02038095 L2.66095238,1.02038095 L2.25709524,0.689333333 C2.09890476,0.559428571 1.86266667,0.563619048 1.72333333,0.712904762 L1.72333333,0.712904762 C-0.485571429,3.06271429 -0.485571429,8.14942857 2.95585714,10.6427619 L2.95585714,10.6427619 C6.52561905,13.2293333 17.1500476,11.1162857 20.0467143,11.0921905 L20.0467143,11.0921905 C22.9428571,11.0680952 22.5520952,18.0164286 22.5520952,18.0164286 L22.5520952,18.0164286 L23.234619,17.7304286 L24.6892381,17.1191429 C24.9008571,17.0300952 25.143381,17.138 25.2188095,17.3548571 L25.2188095,17.3548571 L26.6791905,21.5400952 C26.7430952,21.7229048 26.925381,21.8313333 27.1160476,21.8030476 L27.1160476,21.8030476 C27.8268571,21.6972381 29.5968095,21.1519524 31.8245714,18.4108571 L31.8245714,18.4108571 C34.0020476,15.7310476 32.4458095,15.0600476 31.5197143,14.8924286 L31.5197143,14.8924286 C31.2572857,14.8442381 31.1310476,14.5472381 31.2562381,14.3115238 L31.2562381,14.3115238 C33.8878571,9.34633333 32.9612381,5.0432381 30.4862381,4.27271429 L30.4862381,4.27271429 C29.0635714,3.83009524 28.336,4.301 27.9698571,4.80752381 L27.9698571,4.80752381 C27.7844286,5.06366667 27.4051905,5.03380952 27.2758095,4.74466667 L27.2758095,4.74466667 C25.8604762,1.58347619 22.7642381,0.206904762 18.603619,0.183857143 L18.603619,0.183857143 L18.389381,0.183857143 Z" id="path-41"></path>
        <path d="M0.320444444,5.806 L1.76311111,7.921 C3.42488889,6.897 5.008,0.7895 2.27911111,0.29 L2.27911111,0.29 C2.16977778,0.27 2.06666667,0.2605 1.96888889,0.2605 L1.96888889,0.2605 C-0.389777778,0.2605 0.320444444,5.806 0.320444444,5.806" id="path-43"></path>
        <linearGradient x1="1404.71138%" y1="4479.10999%" x2="1324.81755%" y2="4217.56264%" id="linearGradient-45">
            <stop stop-color="#FF918E" offset="0%"></stop>
            <stop stop-color="#FDB3B1" offset="100%"></stop>
        </linearGradient>
        <filter id="filter-46">
            <feColorMatrix in="SourceGraphic" type="matrix" values="0 0 0 0 0.549020 0 0 0 0 0.807843 0 0 0 0 1.000000 0 0 0 1.000000 0"></feColorMatrix>
        </filter>
        <polygon id="path-47" points="9.03811912e-05 0.357632653 196.57414 0.357632653 196.57414 10.7836327 9.03811912e-05 10.7836327"></polygon>
        <path d="M0.216816188,1.95022222 C0.215212121,2.944 1.18420202,3.74977778 2.38125253,3.75066667 L2.38125253,3.75066667 L50.7825657,3.79466667 C50.8200404,3.79511111 50.8569798,3.79422222 50.8933838,3.79244444 L50.8933838,3.79244444 C52.0390404,3.74533333 52.9502121,2.96044444 52.9512848,1.99777778 L52.9512848,1.99777778 C52.9528889,1.00488889 51.983899,0.198666667 50.7873838,0.197777778 L50.7873838,0.197777778 L2.38553535,0.153777778 C2.37268687,0.153777778 2.36037374,0.153777778 2.34806061,0.153777778 L2.34806061,0.153777778 C1.17188889,0.153777778 0.217888889,0.967555556 0.216816188,1.95022222" id="path-49"></path>
        <path d="M3.27643846,0.236433735 C1.02385385,0.236433735 -0.519623077,2.50322892 0.308376923,4.59561446 L0.308376923,4.59561446 L14.6349,40.8028434 C15.3333923,42.5676145 17.0398154,43.726988 18.9399692,43.726988 L18.9399692,43.726988 L68.6045769,43.726988 L50.1290308,4.5993253 C48.8716385,1.93546988 46.1880692,0.236433735 43.2401769,0.236433735 L43.2401769,0.236433735 L3.27643846,0.236433735 Z" id="path-51"></path>
        <path d="M1.94761538,0.51095 C0.268692308,1.0637 -0.380153846,3.7708 0.497538462,6.5593 L0.497538462,6.5593 C1.37630769,9.34725 3.44992308,11.16005 5.12938462,10.60785 L5.12938462,10.60785 C6.80830769,10.05565 7.45769231,7.348 6.57946154,4.5595 L6.57946154,4.5595 C5.80676923,2.10925 4.11115385,0.41195 2.57169231,0.41195 L2.57169231,0.41195 C2.36007692,0.4125 2.15061538,0.4444 1.94761538,0.51095" id="path-53"></path>
    </defs>
    <g id="Comfortable-Themes" stroke="none" stroke-width="1" fill="none" fill-rule="evenodd">
        <g id="Outsourcing-IT-Profesional---alt" transform="translate(-558.000000, -4357.000000)">
            <g id="Group-143" transform="translate(558.000000, 4357.000000)">
                <g id="Group-142">
                    <path d="M119.751712,221.193498 C227.911024,224.306873 299.293257,98.7868949 208.657112,99.8316354 C118.020967,100.876376 168.069133,-4.40536496e-13 96.8229295,-4.40536496e-13 C25.5767256,-4.40536496e-13 0,65.3364845 0,96.8460676 C0,128.355651 11.5924005,218.080122 119.751712,221.193498 Z" id="Oval-Copy-18" fill="url(#linearGradient-1)" opacity="0.2"></path>
                    <circle id="Oval-Copy-19" fill="url(#linearGradient-2)" opacity="0.3" cx="199" cy="44" r="25"></circle>
                </g>
                <g id="Group-141" transform="translate(27.854571, 4.000000)">
                    <path d="M188.145429,41.41256 C177.566306,58 127.64118,207 54.3622455,179 C-18.9166887,151 -0.971547866,96.2916922 11.227212,69.819273 C23.4259718,43.3468538 95.1454293,27.1737839 110.145429,77.893209" id="Path-2" stroke="#1B6A9E" stroke-dasharray="2"></path>
                    <g id="Group-79" transform="translate(7.145429, 0.000000)">
                        <polygon id="Fill-1" fill="#F7941D" points="115 179 120 179 120 123 115 123"></polygon>
                        <g filter="url(#filter-3)" id="Group-6">
                            <g transform="translate(88.000000, 108.000000)">
                                <path d="M52.3483807,70.7564647 L6.75837193,70.7564647 L6.75837193,68.9003218 C6.75837193,68.0584647 7.44274912,67.3762241 8.28658246,67.3762241 L50.7013807,67.3762241 C51.6110298,67.3762241 52.3483807,68.1118481 52.3483807,69.0193669 L52.3483807,70.7564647 Z" id="Fill-2" fill="#91B3FA"></path>
                                <path d="M60.969607,11.4434917 C60.969607,14.7078902 58.2925632,17.3786647 55.0205018,17.3786647 L6.0005807,17.3786647 C2.72905439,17.3786647 0.0520105263,14.7078902 0.0520105263,11.4434917 L0.0520105263,6.07685263 C0.0520105263,2.81298797 2.72905439,0.142213534 6.0005807,0.142213534 L55.0205018,0.142213534 C58.2925632,0.142213534 60.969607,2.81298797 60.969607,6.07685263 L60.969607,11.4434917 Z" id="Fill-4" fill="#91B3FA"></path>
                            </g>
                        </g>
                        <g id="Group-9" transform="translate(76.000000, 166.000000)">
                            <mask id="mask-5" fill="white">
                                <use xlink:href="#path-4"></use>
                            </mask>
                            <g id="Clip-8"></g>
                            <path d="M13,2.62715385 C13,2.62715385 -2.01567568,13.4082308 0.591891892,20.6521538 L0.591891892,20.6521538 C0.591891892,20.6521538 17.0205405,13.5907692 19.0054054,8.02846154 L19.0054054,8.02846154 C20.9897297,2.46669231 18.6691892,0.00969230769 18.6691892,0.00969230769 L18.6691892,0.00969230769 L13,2.62715385 Z" id="Fill-7" fill="url(#linearGradient-6)" mask="url(#mask-5)"></path>
                        </g>
                        <g id="Group-12" transform="translate(84.000000, 159.000000)">
                            <mask id="mask-8" fill="white">
                                <use xlink:href="#path-7"></use>
                            </mask>
                            <g id="Clip-11"></g>
                            <path d="M0.484736842,3.74104762 L3.34421053,9.10066667 C3.93631579,10.210619 5.20789474,10.7763333 6.43947368,10.4987143 L6.43947368,10.4987143 C7.31210526,10.3012381 7.95052632,10.0299048 8.41736842,9.73604762 L8.41736842,9.73604762 C9.35052632,9.14990476 9.71105263,7.96766667 9.35052632,6.93 L9.35052632,6.93 L6.96,0.0523809524 L0.484736842,3.74104762 Z" id="Fill-10" fill="url(#linearGradient-9)" mask="url(#mask-8)"></path>
                        </g>
                        <g id="Group-15" transform="translate(67.000000, 96.000000)">
                            <mask id="mask-11" fill="white">
                                <use xlink:href="#path-10"></use>
                            </mask>
                            <g id="Clip-14"></g>
                            <path d="M4.18076471,17.8693953 C-8.77658824,29.9625814 16.0734706,68.5373256 16.0734706,68.5373256 L16.0734706,68.5373256 C16.0734706,68.5373256 20.1446471,68.5127209 25.0787647,64.2395349 L25.0787647,64.2395349 C25.0787647,64.2395349 10.3441765,35.2274419 23.0426471,26.7666512 L23.0426471,26.7666512 C37.3182353,17.254814 53.7702353,15.1126047 53.7702353,15.1126047 L53.7702353,15.1126047 L47.6348824,1.4195814 L47.3431765,0.486744186 C47.3431765,0.486744186 17.1375882,5.7762093 4.18076471,17.8693953" id="Fill-13" fill="#1B6A9E" mask="url(#mask-11)"></path>
                        </g>
                        <g id="Group-18" transform="translate(74.000000, 174.000000)">
                            <mask id="mask-13" fill="white">
                                <use xlink:href="#path-12"></use>
                            </mask>
                            <g id="Clip-17"></g>
                            <path d="M19.4316522,0.229655172 C17.9097391,0.50637931 8.88573913,6.76810345 5.69843478,8.23086207 L5.69843478,8.23086207 C3.57495652,9.20534483 1.58765217,11.0141379 0.472695652,12.6972414 L0.472695652,12.6972414 C2.4986087,14.1460345 5.75165217,15.3832759 10.4029565,14.055 L10.4029565,14.055 C16.7253913,12.2503448 21.4283478,7.40689655 23.5466087,4.8662069 L23.5466087,4.8662069 C24.2332174,2.87017241 23.5914783,1.72603448 23.5914783,1.72603448 L23.5914783,1.72603448 C23.5914783,1.72603448 21.3208696,0.200172414 19.778087,0.200689524 L19.778087,0.200689524 C19.658087,0.200689524 19.5417391,0.21 19.4316522,0.229655172" id="Fill-16" fill="url(#linearGradient-14)" mask="url(#mask-13)"></path>
                        </g>
                        <g id="Group-21" transform="translate(73.000000, 178.000000)">
                            <mask id="mask-16" fill="white">
                                <use xlink:href="#path-15"></use>
                            </mask>
                            <g id="Clip-20"></g>
                            <path d="M11.137766,10.2716957 C6.39574468,11.7231739 3.07925532,10.3711739 1.01382979,8.788 L1.01382979,8.788 C-0.229255319,10.7996087 -0.406914894,12.6461739 1.47606383,12.9542174 L1.47606383,12.9542174 C1.65425532,12.9830435 1.88138298,12.9988696 2.15265957,13 L2.15265957,13 L2.23404255,13 C5.62446809,12.9830435 15.3446809,10.8894783 20.6441489,5.82852174 L20.6441489,5.82852174 C22.9744681,3.60269565 24.0648936,1.70469565 24.537766,0.230608696 L24.537766,0.230608696 C22.3781915,3.00695652 17.5835106,8.29965217 11.137766,10.2716957" id="Fill-19" fill="url(#linearGradient-17)" mask="url(#mask-16)"></path>
                        </g>
                        <g id="Group-24" transform="translate(91.000000, 168.000000)">
                            <mask id="mask-19" fill="white">
                                <use xlink:href="#path-18"></use>
                            </mask>
                            <g id="Clip-23"></g>
                            <path d="M0.254647059,7.52368421 C-0.0232941176,8.47052632 0.511411765,9.48 1.46488235,9.75210526 L1.46488235,9.75210526 C2.09964706,9.93315789 2.799,9.98631579 3.40782353,9.98427018 L3.40782353,9.98427018 C4.36658824,9.98157895 5.25282353,9.48631579 5.75841176,8.67631579 L5.75841176,8.67631579 C6.82358824,6.97210526 8.64476471,3.93315789 8.68129412,3.04736842 L8.68129412,3.04736842 L2.33523529,0.462631579 L0.254647059,7.52368421 Z" id="Fill-22" fill="#FFB48D" mask="url(#mask-19)"></path>
                        </g>
                        <g id="Group-27" transform="translate(91.000000, 87.000000)">
                            <mask id="mask-21" fill="white">
                                <use xlink:href="#path-20"></use>
                            </mask>
                            <g id="Clip-26"></g>
                            <path d="M21.1696154,9.35117284 L23.0025385,13.8948395 C24.0094615,16.390963 24.3874615,18.9598148 22.2163846,20.5821358 L22.2163846,20.5821358 C14.6321538,26.2480494 10.675,36.385963 7.98861538,43.4087654 L7.98861538,43.4087654 C4.88707692,51.5193086 0.184692308,83.126963 0.184692308,83.126963 L0.184692308,83.126963 C2.35576923,85.405963 8.15769231,85.9601852 8.15769231,85.9601852 L8.15769231,85.9601852 C16.4144615,78.4611975 22.5846923,57.2892716 26.2203846,46.3943457 L26.2203846,46.3943457 C29.8566154,35.4999506 46.1326923,29.3419259 52.9555385,23.8719012 L52.9555385,23.8719012 C59.7783846,18.4024074 52.9555385,0.416197531 52.9555385,0.416197531 L52.9555385,0.416197531 L21.1696154,9.35117284 Z" id="Fill-25" fill="#167BBD" mask="url(#mask-21)"></path>
                        </g>
                        <g id="Group-30" transform="translate(73.000000, 55.000000)">
                            <mask id="mask-23" fill="white">
                                <use xlink:href="#path-22"></use>
                            </mask>
                            <g id="Clip-29"></g>
                            <path d="M0.622916667,18.0832453 C1.33697917,20.6418113 1.58385417,23.8729057 0.366666667,27.4738113 L0.366666667,27.4738113 C3.221875,28.0956226 6.45,28.0396226 9.9828125,26.7674717 L9.9828125,26.7674717 C23.9458333,21.7375094 24.8354167,12.1477736 24.8354167,12.1477736 L24.8354167,12.1477736 L8.040625,0.115698113 C8.24010417,0.828377358 11.6880208,18.7605283 0.622916667,18.0832453" id="Fill-28" fill="#FFFFFF" mask="url(#mask-23)"></path>
                        </g>
                        <g id="Group-33" transform="translate(44.000000, 66.000000)">
                            <mask id="mask-25" fill="white">
                                <use xlink:href="#path-24"></use>
                            </mask>
                            <g id="Clip-32"></g>
                            <path d="M7.42894737,1.60065625 C3.26210526,4.52625 0.176315789,13.8332187 0.176315789,13.8332187 L0.176315789,13.8332187 C0.176315789,13.8332187 2.39473684,15.595375 4.15894737,13.8332187 L4.15894737,13.8332187 C5.92263158,12.0705312 10.4415789,7.48371875 10.4415789,7.48371875 L10.4415789,7.48371875 C10.4415789,7.48371875 9.49894737,11.7092812 9.66894737,12.4222188 L9.66894737,12.4222188 C9.83947368,13.1351562 12.0989474,12.5104063 11.7973684,10.5447812 L11.7973684,10.5447812 C11.6447368,9.547625 12.4873684,8.6009375 13.3547368,7.90978125 L13.3547368,7.90978125 C14.2089474,7.22871875 15.4463158,7.37534375 16.1442105,8.217375 L16.1442105,8.217375 C18.0847368,10.557 22.55,15.1167187 28.7915789,16.470875 L28.7915789,16.470875 C30.0215789,12.849875 29.7721053,9.60075 29.0505263,7.02790625 L29.0505263,7.02790625 C26.0094737,6.84303125 21.8878947,5.2785 16.3163158,1.60065625 L16.3163158,1.60065625 C16.3163158,1.60065625 14.2184211,0.3006875 11.5852632,0.3006875 L11.5852632,0.3006875 C10.2689474,0.3006875 8.81789474,0.6258125 7.42894737,1.60065625" id="Fill-31" fill="url(#linearGradient-26)" mask="url(#mask-25)"></path>
                        </g>
                        <g id="Group-36" transform="translate(77.000000, 26.000000)">
                            <mask id="mask-28" fill="white">
                                <use xlink:href="#path-27"></use>
                            </mask>
                            <g id="Clip-35"></g>
                            <path d="M1.50484127,19.8349254 C1.50484127,19.8349254 -1.04966667,25.1790448 1.73721429,29.934806 L1.73721429,29.934806 C4.52409524,34.6911045 31.0805556,57.8665075 34.7309921,70.7185075 L34.7309921,70.7185075 C34.7309921,70.7185075 50.5525635,75.9132537 66.9143889,63.594806 L66.9143889,63.594806 C66.9143889,63.594806 65.4701667,27.8258507 48.5276746,0.967164179 L48.5276746,0.967164179 C48.5276746,0.967164179 46.5979683,0.186985075 42.8316111,0.186985075 L42.8316111,0.186985075 C35.6046508,0.186985075 21.6133492,3.06 1.50484127,19.8349254" id="Fill-34" fill="#FFFFFF" mask="url(#mask-28)"></path>
                        </g>
                        <g id="Group-39" transform="translate(82.000000, 21.000000)">
                            <mask id="mask-30" fill="white">
                                <use xlink:href="#path-29"></use>
                            </mask>
                            <g id="Clip-38"></g>
                            <path d="M0.341526316,4.32461111 L6.22152632,15.9320278 C7.01952632,17.5079722 8.63763158,18.5608889 10.4646316,18.6965278 L10.4646316,18.6965278 C16.6060263,19.1546389 19.3752632,15.8449444 20.5424211,13.5702222 L20.5424211,13.5702222 C21.1193684,12.4455278 20.9353421,11.1012778 20.1008684,10.1343889 L20.1008684,10.1343889 L11.6925789,0.399 L0.341526316,4.32461111 Z" id="Fill-37" fill="#FFB48D" mask="url(#mask-30)"></path>
                        </g>
                        <g id="Group-42" transform="translate(121.000000, 27.000000)">
                            <mask id="mask-32" fill="white">
                                <use xlink:href="#path-31"></use>
                            </mask>
                            <g id="Clip-41"></g>
                            <path d="M0.235083333,17.3510459 C0.235083333,17.3510459 19.9214167,34.6866606 17.9779167,42.4629174 L17.9779167,42.4629174 C21.8075,44.3306239 27.262625,48.4810826 30.6854167,57.5328073 L30.6854167,57.5328073 C33.0774167,56.0311927 35.1400833,53.7867523 36.6925,50.5813211 L36.6925,50.5813211 C47.5258333,28.2263119 5.016375,0.425688073 5.016375,0.425688073 L5.016375,0.425688073 L0.235083333,17.3510459 Z" id="Fill-40" fill="#FFFFFF" mask="url(#mask-32)"></path>
                        </g>
                        <g filter="url(#filter-33)" id="Group-45">
                            <g transform="translate(121.000000, 41.000000)">
                                <mask id="mask-35" fill="white">
                                    <use xlink:href="#path-34"></use>
                                </mask>
                                <g id="Clip-44"></g>
                                <path d="M0.43225,0.56646 C0.264944444,0.75708 0.280777778,1.05084 0.466555556,1.22202 L0.466555556,1.22202 C0.656555556,1.39536 19.4253889,18.71694 17.61775,26.24886 L17.61775,26.24886 C17.5581111,26.4978 17.7069444,26.7489 17.9497222,26.81046 L17.9497222,26.81046 C17.9856111,26.8191 18.0225556,26.82342 18.0584444,26.82342 L18.0584444,26.82342 C18.2616389,26.82342 18.4468889,26.68194 18.4975556,26.47026 L18.4975556,26.47026 C20.4345,18.40212 1.86358333,1.25712 1.07191667,0.53082 L1.07191667,0.53082 C0.985888889,0.45198 0.877694444,0.41256 0.770027778,0.41256 L0.770027778,0.41256 C0.646,0.41256 0.521972222,0.4644 0.43225,0.56646" id="Fill-43" fill="url(#linearGradient-36)" mask="url(#mask-35)"></path>
                            </g>
                        </g>
                        <g id="Group-48" transform="translate(89.000000, 68.000000)">
                            <mask id="mask-38" fill="white">
                                <use xlink:href="#path-37"></use>
                            </mask>
                            <g id="Clip-47"></g>
                            <path d="M0.461258621,15.5340833 C3.11496552,17.2936944 5.60031034,14.9012778 7.79062069,12.5093889 L7.79062069,12.5093889 C9.53731034,10.602 11.0958621,8.69408333 12.4016034,8.89252778 L12.4016034,8.89252778 C14.413931,9.19811111 18.1435517,8.54841667 20.3028621,8.10613889 L20.3028621,8.10613889 C21.3707586,7.88763889 22.476069,8.08977778 23.3964483,8.66716667 L23.3964483,8.66716667 C28.9951552,12.1731944 49.6999483,24.0687778 61.812931,16.4255 L61.812931,16.4255 C58.4355345,7.44747222 53.0527586,3.33080556 49.2739655,1.47830556 L49.2739655,1.47830556 C49.1344655,2.03880556 48.885931,2.55180556 48.5048448,3.00252778 L48.5048448,3.00252778 C42.8826207,9.64355556 19.8517586,0.814361111 19.8517586,0.814361111 L19.8517586,0.814361111 C18.6272586,0.566305556 17.4749138,0.452305556 16.3899138,0.452305556 L16.3899138,0.452305556 C3.91936207,0.452833333 0.461258621,15.5340833 0.461258621,15.5340833" id="Fill-46" fill="#FFB48D" mask="url(#mask-38)"></path>
                        </g>
                        <g id="Group-51" transform="translate(73.000000, 8.000000)">
                            <mask id="mask-40" fill="white">
                                <use xlink:href="#path-39"></use>
                            </mask>
                            <g id="Clip-50"></g>
                            <path d="M0.108648649,1.87765957 C0.108648649,1.87765957 -0.0335135135,12.5617021 1.72054054,17.4138298 L1.72054054,17.4138298 C3.47513514,22.2654255 3.74972973,25.7707447 9.72756757,24.4244681 L9.72756757,24.4244681 C15.7059459,23.0771277 19.2340541,18.4074468 19.7616216,12.6351064 L19.7616216,12.6351064 C19.7616216,12.6351064 20.6405405,3.71223404 18.4756757,1.10053191 L18.4756757,1.10053191 C17.8735135,0.374468085 16.1848649,0.112234043 14.0616216,0.112234043 L14.0616216,0.112234043 C8.55081081,0.112234043 0.108648649,1.87765957 0.108648649,1.87765957" id="Fill-49" fill="#FFB48D" mask="url(#mask-40)"></path>
                        </g>
                        <g id="Group-54" transform="translate(66.000000, 0.000000)">
                            <mask id="mask-42" fill="white">
                                <use xlink:href="#path-41"></use>
                            </mask>
                            <g id="Clip-53"></g>
                            <path d="M18.389381,0.183857143 C16.6079048,0.193285714 14.6362857,0.445238095 12.5227143,0.906714286 L12.5227143,0.906714286 C7.46428571,2.01142857 5.005,1.05757143 3.92280952,0.290190476 L3.92280952,0.290190476 C3.6462381,0.0948095238 3.26857143,0.33 3.30785714,0.666809524 L3.30785714,0.666809524 C3.3492381,1.02195238 2.937,1.24666667 2.66095238,1.02038095 L2.66095238,1.02038095 L2.25709524,0.689333333 C2.09890476,0.559428571 1.86266667,0.563619048 1.72333333,0.712904762 L1.72333333,0.712904762 C-0.485571429,3.06271429 -0.485571429,8.14942857 2.95585714,10.6427619 L2.95585714,10.6427619 C6.52561905,13.2293333 17.1500476,11.1162857 20.0467143,11.0921905 L20.0467143,11.0921905 C22.9428571,11.0680952 22.5520952,18.0164286 22.5520952,18.0164286 L22.5520952,18.0164286 L23.234619,17.7304286 L24.6892381,17.1191429 C24.9008571,17.0300952 25.143381,17.138 25.2188095,17.3548571 L25.2188095,17.3548571 L26.6791905,21.5400952 C26.7430952,21.7229048 26.925381,21.8313333 27.1160476,21.8030476 L27.1160476,21.8030476 C27.8268571,21.6972381 29.5968095,21.1519524 31.8245714,18.4108571 L31.8245714,18.4108571 C34.0020476,15.7310476 32.4458095,15.0600476 31.5197143,14.8924286 L31.5197143,14.8924286 C31.2572857,14.8442381 31.1310476,14.5472381 31.2562381,14.3115238 L31.2562381,14.3115238 C33.8878571,9.34633333 32.9612381,5.0432381 30.4862381,4.27271429 L30.4862381,4.27271429 C29.0635714,3.83009524 28.336,4.301 27.9698571,4.80752381 L27.9698571,4.80752381 C27.7844286,5.06366667 27.4051905,5.03380952 27.2758095,4.74466667 L27.2758095,4.74466667 C25.8604762,1.58347619 22.7642381,0.206904762 18.603619,0.183857143 L18.603619,0.183857143 L18.389381,0.183857143 Z" id="Fill-52" fill="#4A2009" mask="url(#mask-42)"></path>
                        </g>
                        <g id="Group-57" transform="translate(90.000000, 13.000000)">
                            <mask id="mask-44" fill="white">
                                <use xlink:href="#path-43"></use>
                            </mask>
                            <g id="Clip-56"></g>
                            <path d="M0.320444444,5.806 L1.76311111,7.921 C3.42488889,6.897 5.008,0.7895 2.27911111,0.29 L2.27911111,0.29 C2.16977778,0.27 2.06666667,0.2605 1.96888889,0.2605 L1.96888889,0.2605 C-0.389777778,0.2605 0.320444444,5.806 0.320444444,5.806" id="Fill-55" fill="url(#linearGradient-45)" mask="url(#mask-44)"></path>
                        </g>
                        <g filter="url(#filter-46)" id="Group-69">
                            <g transform="translate(0.000000, 85.000000)">
                                <path d="M12.9452895,103.706624 C12.6792598,103.706624 12.4089822,103.654624 12.1487935,103.54691 C11.1255617,103.120829 10.6529741,101.972584 11.0931709,100.982992 L53.4030361,5.82935918 C53.8432329,4.83976735 55.0289499,4.3829102 56.0537747,4.80793061 C57.0770065,5.23401224 57.5495941,6.38172653 57.1093973,7.37184898 L14.7995321,102.524951 C14.4713757,103.264094 13.7274485,103.706624 12.9452895,103.706624" id="Fill-58" fill="#BDD0FB"></path>
                                <path d="M60.6095722,103.706624 C59.8274132,103.706624 59.083486,103.264094 58.7553296,102.524951 L16.4454644,7.37184898 C16.0047367,6.38172653 16.4778553,5.23401224 17.5010871,4.80793061 C18.5237879,4.38237959 19.7110978,4.83923673 20.1518256,5.82935918 L62.4616908,100.982992 C62.9018876,101.972584 62.4293,103.120829 61.4060682,103.54691 C61.1458795,103.654624 60.8750709,103.706624 60.6095722,103.706624" id="Fill-60" fill="#BDD0FB"></path>
                                <path d="M143.91312,103.706624 C143.64709,103.706624 143.376812,103.654624 143.116624,103.54691 C142.093392,103.120829 141.620804,101.972584 142.061001,100.982992 L184.370866,5.82935918 C184.811063,4.83976735 185.996249,4.3829102 187.021605,4.80793061 C188.044837,5.23401224 188.517424,6.38172653 188.077227,7.37184898 L145.767362,102.524951 C145.439206,103.264094 144.694748,103.706624 143.91312,103.706624" id="Fill-62" fill="#BDD0FB"></path>
                                <path d="M191.576871,103.706624 C190.795243,103.706624 190.050785,103.264094 189.722629,102.524951 L147.412764,7.37184898 C146.972567,6.38172653 147.445154,5.23401224 148.468386,4.80793061 C149.491618,4.38237959 150.678397,4.83923673 151.119125,5.82935918 L193.42899,100.982992 C193.869187,101.972584 193.396599,103.120829 192.373367,103.54691 C192.113179,103.654624 191.842901,103.706624 191.576871,103.706624" id="Fill-64" fill="#BDD0FB"></path>
                                <g id="Group-68">
                                    <mask id="mask-48" fill="white">
                                        <use xlink:href="#path-47"></use>
                                    </mask>
                                    <g id="Clip-67"></g>
                                    <path d="M196.539413,2.89183673 C196.647736,2.26783673 196.50065,1.62208163 196.139041,1.13232653 C195.777432,0.641510204 195.239001,0.357632653 194.670302,0.357632653 L2.19068248,0.357632653 C1.44356927,0.357632653 0.747962803,0.783714286 0.345466846,1.48783673 C-0.0575601078,2.1924898 -0.111190836,3.07755102 0.202097574,3.83632653 L2.28785499,8.88669388 C2.76522156,10.0434286 3.80013531,10.7836327 4.93912453,10.7836327 L193.349712,10.7836327 C194.409052,10.7836327 195.319712,9.94367347 195.52096,8.78004082 L196.539413,2.89183673 Z" id="Fill-66" fill="#BDD0FB" mask="url(#mask-48)"></path>
                                </g>
                            </g>
                        </g>
                        <g id="Group-72" transform="translate(47.000000, 82.000000)">
                            <mask id="mask-50" fill="white">
                                <use xlink:href="#path-49"></use>
                            </mask>
                            <g id="Clip-71"></g>
                            <path d="M0.216816188,1.95022222 C0.215212121,2.944 1.18420202,3.74977778 2.38125253,3.75066667 L2.38125253,3.75066667 L50.7825657,3.79466667 C50.8200404,3.79511111 50.8569798,3.79422222 50.8933838,3.79244444 L50.8933838,3.79244444 C52.0390404,3.74533333 52.9502121,2.96044444 52.9512848,1.99777778 L52.9512848,1.99777778 C52.9528889,1.00488889 51.983899,0.198666667 50.7873838,0.197777778 L50.7873838,0.197777778 L2.38553535,0.153777778 C2.37268687,0.153777778 2.36037374,0.153777778 2.34806061,0.153777778 L2.34806061,0.153777778 C1.17188889,0.153777778 0.217888889,0.967555556 0.216816188,1.95022222" id="Fill-70" fill="#BED1DB" mask="url(#mask-50)"></path>
                        </g>
                        <g id="Group-75" transform="translate(4.000000, 42.000000)">
                            <mask id="mask-52" fill="white">
                                <use xlink:href="#path-51"></use>
                            </mask>
                            <g id="Clip-74"></g>
                            <path d="M3.27643846,0.236433735 C1.02385385,0.236433735 -0.519623077,2.50322892 0.308376923,4.59561446 L0.308376923,4.59561446 L14.6349,40.8028434 C15.3333923,42.5676145 17.0398154,43.726988 18.9399692,43.726988 L18.9399692,43.726988 L68.6045769,43.726988 L50.1290308,4.5993253 C48.8716385,1.93546988 46.1880692,0.236433735 43.2401769,0.236433735 L43.2401769,0.236433735 L3.27643846,0.236433735 Z" id="Fill-73" fill="#D7E1E6" mask="url(#mask-52)"></path>
                        </g>
                        <g id="Group-78" transform="translate(28.000000, 58.000000)">
                            <mask id="mask-54" fill="white">
                                <use xlink:href="#path-53"></use>
                            </mask>
                            <g id="Clip-77"></g>
                            <path d="M1.94761538,0.51095 C0.268692308,1.0637 -0.380153846,3.7708 0.497538462,6.5593 L0.497538462,6.5593 C1.37630769,9.34725 3.44992308,11.16005 5.12938462,10.60785 L5.12938462,10.60785 C6.80830769,10.05565 7.45769231,7.348 6.57946154,4.5595 L6.57946154,4.5595 C5.80676923,2.10925 4.11115385,0.41195 2.57169231,0.41195 L2.57169231,0.41195 C2.36007692,0.4125 2.15061538,0.4444 1.94761538,0.51095" id="Fill-76" fill="#BED1DB" mask="url(#mask-54)"></path>
                        </g>
                    </g>
                    <g id="Group-176" transform="translate(176.145429, 8.000000)">
                        <polygon id="Fill-168" fill="#CE7912" points="11 24 15.6336861 31 19 25.2139581"></polygon>
                        <path d="M43,0 L33.0714464,29.5006834 C32.8813481,30.0655441 32.4668779,30.5296351 31.9232843,30.785889 C31.3792922,31.0425365 30.7536016,31.069697 30.188886,30.8606789 L0.576585319,19.8992334 C0.237835648,19.7736651 0.00947851733,19.4575793 0,19.1001623 C-0.00925234683,18.7423516 0.201569507,18.4152441 0.533544185,18.2723561 L43,0 Z" id="Fill-170" fill="#F7941D"></path>
                        <polygon id="Fill-172" fill="#CE7912" points="12 24.074319 43 0 16.7047539 25.8668475 17.8269348 28"></polygon>
                        <polygon id="Fill-174" fill="#CE7912" points="19 27.0938928 16 32 16.327914 26"></polygon>
                    </g>
                </g>
            </g>
        </g>
    </g>
</svg>