<?xml version="1.0" encoding="UTF-8"?>
<svg width="250px" height="222px" viewBox="0 0 250 222" version="1.1" xmlns="http://www.w3.org/2000/svg" xmlns:xlink="http://www.w3.org/1999/xlink">
    <title>DAF76F71-0078-43BA-B1EF-9FA1433FEA00@1x</title>
    <defs>
        <linearGradient x1="50%" y1="0%" x2="50%" y2="148.559671%" id="linearGradient-1">
            <stop stop-color="#C9E8FF" stop-opacity="0.4" offset="0%"></stop>
            <stop stop-color="#0395FF" stop-opacity="0.8" offset="100%"></stop>
        </linearGradient>
        <linearGradient x1="50%" y1="0%" x2="50%" y2="149.915601%" id="linearGradient-2">
            <stop stop-color="#C9E8FF" stop-opacity="0.7" offset="0%"></stop>
            <stop stop-color="#0395FF" stop-opacity="0.3" offset="100%"></stop>
        </linearGradient>
        <path d="M6.86174233,11.7549287 L0.239877301,163.981651 C0.0559018405,168.214074 3.39165644,171.773515 7.64144785,171.879929 L7.64144785,171.879929 L127.738209,174.88943 C132.261252,175.00291 135.979975,171.362411 135.946001,166.854394 L135.946001,166.854394 L134.796859,15.267399 C134.753472,9.50653207 130.186626,4.79067696 124.409546,4.54043943 L124.409546,4.54043943 L19.7074847,0.0187054632 C19.5255951,0.010807601 19.3453742,0.00706650831 19.1651534,0.00706650831 L19.1651534,0.00706650831 C12.6050307,0.00706650831 7.14876074,5.16104513 6.86174233,11.7549287" id="path-3"></path>
        <linearGradient x1="50%" y1="-2.48949813e-15%" x2="50%" y2="100%" id="linearGradient-5">
            <stop stop-color="#57C6F2" offset="0%"></stop>
            <stop stop-color="#2C94E0" offset="100%"></stop>
        </linearGradient>
        <filter id="filter-6">
            <feColorMatrix in="SourceGraphic" type="matrix" values="0 0 0 0 1.000000 0 0 0 0 1.000000 0 0 0 0 1.000000 0 0 0 1.000000 0"></feColorMatrix>
        </filter>
        <path d="M1.12049057,0.462876712 L0.206566038,21.0999589 C0.000867924528,25.7423151 3.69084906,29.7323973 8.43232075,29.9939863 L8.43232075,29.9939863 L22.3924528,30.7630411 C22.4002642,30.7634658 22.4085094,30.7634658 22.4167547,30.7634658 L22.4167547,30.7634658 C22.6454528,30.7634658 22.8368302,30.5889315 22.8498491,30.362589 L22.8498491,30.362589 C22.8633019,30.1290274 22.6801698,29.9281644 22.4410566,29.915 L22.4410566,29.915 L8.48092453,29.1459452 C4.21116981,28.9102603 0.888320755,25.3172329 1.07362264,21.1364795 L1.07362264,21.1364795 L1.98754717,0.500246575 C1.9975283,0.265835616 1.81222642,0.0675205479 1.57267925,0.0577534247 L1.57267925,0.0577534247 C1.56616981,0.0573287671 1.56009434,0.0573287671 1.55358491,0.0573287671 L1.55358491,0.0573287671 C1.31967925,0.0573287671 1.13090566,0.235260274 1.12049057,0.462876712" id="path-7"></path>
        <linearGradient x1="-0.000846095217%" y1="49.9998701%" x2="100.000382%" y2="49.9998701%" id="linearGradient-9">
            <stop stop-color="#3F42E2" offset="0%"></stop>
            <stop stop-color="#4F52FF" offset="100%"></stop>
        </linearGradient>
        <path d="M0.192,0.530454545 L0.078,4.10818182 C0.07,4.35909091 0.212666667,4.57136364 0.396333333,4.58181818 L0.396333333,4.58181818 C0.401666667,4.58227273 0.406666667,4.58227273 0.411333333,4.58227273 L0.411333333,4.58227273 C0.588666667,4.58227273 0.736333333,4.39181818 0.744,4.14772727 L0.744,4.14772727 L0.858,0.570454545 C0.866,0.319545455 0.723333333,0.107272727 0.539666667,0.0968181818 L0.539666667,0.0968181818 C0.536333333,0.0963636364 0.533333333,0.0963636364 0.530333333,0.0963636364 L0.530333333,0.0963636364 C0.350666667,0.0963636364 0.199666667,0.284545455 0.192,0.530454545" id="path-10"></path>
        <path d="M12.5308,0.383659091 L6.864,12.2214545 C6.6712,12.6232727 6.0872,12.6414318 5.8684,12.2523636 L5.8684,12.2523636 L3.6816,8.36709091 C3.2168,7.54104545 2.1392,7.24547727 1.2944,7.71259091 L1.2944,7.71259091 C0.4864,8.15922727 0.1612,9.12706818 0.538,9.94925 L0.538,9.94925 C3.1448,15.6438636 6.448,16.9246591 6.448,16.9246591 L6.448,16.9246591 C12.5332,11.1983636 13.6112,4.29211364 13.7088,0.653727273 L13.7088,0.653727273 C13.7192,0.267363636 13.4012,0.0363181818 13.082,0.0363181818 L13.082,0.0363181818 C12.864,0.0363181818 12.6456,0.144113636 12.5308,0.383659091" id="path-12"></path>
        <path d="M12.6263529,0.6332 L6.79247059,12.8892 C6.59441176,13.3048 5.99323529,13.324 5.768,12.9212 L5.768,12.9212 L3.51688235,8.8984 C3.03841176,8.0436 1.92952941,7.7376 1.05988235,8.2212 L1.05988235,8.2212 C0.227705882,8.6832 -0.107058824,9.6856 0.280823529,10.5368 L0.280823529,10.5368 C2.96429412,16.4324 6.36464706,17.758 6.36464706,17.758 L6.36464706,17.758 C12.6284118,11.8296 13.7385294,4.6796 13.8385882,0.9132 L13.8385882,0.9132 C13.8497059,0.5128 13.5223529,0.2736 13.1937647,0.2736 L13.1937647,0.2736 C12.9693529,0.2736 12.7445294,0.3852 12.6263529,0.6332" id="path-14"></path>
        <path d="M12.5102353,0.694 L6.67676471,12.95 C6.47870588,13.366 5.87670588,13.3848 5.65188235,12.9824 L5.65188235,12.9824 L3.40035294,8.9596 C2.92188235,8.104 1.81341176,7.7984 0.943764706,8.2816 L0.943764706,8.2816 C0.112,8.7444 -0.223176471,9.746 0.164705882,10.598 L0.164705882,10.598 C2.84817647,16.4932 6.24852941,17.8188 6.24852941,17.8188 L6.24852941,17.8188 C12.5127059,11.8908 13.622,4.7408 13.7224706,0.974 L13.7224706,0.974 C13.7331765,0.5736 13.4058235,0.3344 13.0772353,0.3344 L13.0772353,0.3344 C12.8532353,0.3348 12.6284118,0.446 12.5102353,0.694" id="path-16"></path>
        <path d="M12.5645882,0.68 L6.73111765,12.936 C6.53305882,13.3516 5.93147059,13.3708 5.70623529,12.968 L5.70623529,12.968 L3.45470588,8.9452 C2.97623529,8.09 1.86776471,7.7844 0.998117647,8.2676 L0.998117647,8.2676 C0.166352941,8.73 -0.168823529,9.7324 0.218647059,10.5836 L0.218647059,10.5836 C2.90294118,16.4788 6.30288235,17.8044 6.30288235,17.8044 L6.30288235,17.8044 C12.5666471,11.8764 13.6763529,4.7264 13.7772353,0.9592 L13.7772353,0.9592 C13.7875294,0.5592 13.4601765,0.32 13.132,0.32 L13.132,0.32 C12.9075882,0.3204 12.6827647,0.432 12.5645882,0.68" id="path-18"></path>
        <path d="M5.62153846,0.133627907 C4.85423077,0.137976744 4.14884615,0.24472093 3.51730769,0.406023256 L3.51730769,0.406023256 C1.54576923,0.910093023 0.202307692,2.7864186 0.299615385,4.87188372 L0.299615385,4.87188372 L0.784615385,15.239907 L11.6953846,16.726814 C11.6953846,16.726814 18.7261538,7.78323256 12.0942308,2.58834884 L12.0942308,2.58834884 C9.74384615,0.747604651 7.56115385,0.144697674 5.72269231,0.133627907 L5.72269231,0.133627907 L5.62153846,0.133627907 Z M6.92653846,10.7052558 C5.41846154,10.6376512 4.24884615,9.32667442 4.31384615,7.77611628 L4.31384615,7.77611628 C4.37961538,6.22595349 5.655,5.02330233 7.16346154,5.09051163 L7.16346154,5.09051163 C8.67153846,5.15772093 9.84153846,6.46909302 9.77615385,8.01965116 L9.77615385,8.01965116 C9.71192308,9.52869767 8.50192308,10.7080233 7.04653846,10.7080233 L7.04653846,10.7080233 C7.00653846,10.7080233 6.96653846,10.7072326 6.92653846,10.7052558 L6.92653846,10.7052558 Z" id="path-20"></path>
        <path d="M0.422083333,3.56275862 L0.184583333,8.99710345 L44.7754167,11.7053793 L44.6879167,6.47006897 C44.6604167,4.80496552 43.3616667,3.43406897 41.69,3.30537931 L41.69,3.30537931 L4.01958333,0.397655172 C3.93125,0.391034483 3.84375,0.387724138 3.75666667,0.387724138 L3.75666667,0.387724138 C1.98541667,0.387724138 0.5,1.77517241 0.422083333,3.56275862" id="path-22"></path>
        <path d="M0.58625,3.384 L0.309166667,6.2864 C0.167083333,7.7744 1.35,9.074 2.90541667,9.1384 L2.90541667,9.1384 L70.5875,11.9552 C73.1858333,12.0632 75.25875,9.8968 74.92625,7.4208 L74.92625,7.4208 L74.8841667,7.1088 C74.58125,4.848 72.6270833,3.1248 70.255,3.0264 L70.255,3.0264 L4.28375,0.2832 C4.23125,0.2808 4.17916667,0.28 4.12708333,0.28 L4.12708333,0.28 C2.29791667,0.28 0.754583333,1.6192 0.58625,3.384" id="path-24"></path>
        <path d="M5.72273684,17.6 C2.34682591,18.2117895 0.011562753,21.2008421 0,24.5292632 L0,24.5292632 L0,24.5781053 C0.00206477733,25.1578947 0.0743319838,25.7473684 0.224234818,26.3364211 L0.224234818,26.3364211 L0.39065587,26.9915789 C1.28842105,30.5208421 4.83323077,32.6311579 8.28966802,31.6930526 L8.28966802,31.6930526 L101.924016,6.27578947 L100.617012,0.397052632 L5.72273684,17.6 Z" id="path-26"></path>
        <linearGradient x1="-1.11022302e-14%" y1="50%" x2="100%" y2="50%" id="linearGradient-28">
            <stop stop-color="#57C6F2" offset="0%"></stop>
            <stop stop-color="#2C94E0" offset="100%"></stop>
        </linearGradient>
        <path d="M1.05413223,41.2844538 C-3.59586777,68.3260504 14.5896694,94.1504202 41.6731405,98.9651261 L41.6731405,98.9651261 C68.7561983,103.780252 94.4805785,85.762605 99.1301653,58.7210084 L99.1301653,58.7210084 C103.780165,31.6794118 85.5946281,5.85462185 58.5115702,1.03991597 L58.5115702,1.03991597 C55.5595041,0.51512605 52.6210744,0.261344538 49.7268595,0.261344538 L49.7268595,0.261344538 C26.068595,0.261344538 5.19710744,17.1907563 1.05413223,41.2844538 M42.9095041,91.7726891 C19.8053719,87.6651261 4.29090909,65.6340336 8.25743802,42.5651261 L8.25743802,42.5651261 C12.2243802,19.4957983 34.1702479,4.12436975 57.2752066,8.23235294 L57.2752066,8.23235294 C80.3793388,12.339916 95.8938017,34.3710084 91.9268595,57.439916 L91.9268595,57.439916 C88.392562,77.9932773 70.585124,92.4357143 50.403719,92.4369748 L50.403719,92.4369748 C47.9330579,92.4369748 45.4293388,92.2205882 42.9095041,91.7726891" id="path-29"></path>
        <linearGradient x1="50%" y1="100%" x2="50%" y2="3.061617e-15%" id="linearGradient-31">
            <stop stop-color="#57C6F2" offset="0%"></stop>
            <stop stop-color="#2C94E0" offset="100%"></stop>
        </linearGradient>
        <path d="M27.5310842,4.21901887 C19.1308895,7.96607547 12.1256684,13.9940755 7.27257368,21.6521509 L7.27257368,21.6521509 C5.55910526,24.3564906 4.13211579,27.2501132 3.03235263,30.2524906 L3.03235263,30.2524906 C2.99950526,30.3429811 3.04316316,30.4421887 3.13047895,30.4795472 L3.13047895,30.4795472 C3.13380526,30.4812075 3.13671579,30.4824528 3.13962632,30.483283 L3.13962632,30.483283 C3.23359474,30.5177358 3.33712632,30.4695849 3.37163684,30.3761887 L3.37163684,30.3761887 C4.46225263,27.3978868 5.8776,24.5275094 7.57776316,21.8447547 L7.57776316,21.8447547 C17.5953789,6.03630189 36.1844947,-2.06343396 54.9353526,1.20916981 L54.9353526,1.20916981 C63.6798211,2.73588679 71.7552842,6.64441509 78.2885842,12.5126038 L78.2885842,12.5126038 C78.3621789,12.5798491 78.4765211,12.5732075 78.5430474,12.4989057 L78.5430474,12.4989057 C78.6099895,12.4250189 78.6037526,12.311283 78.5297421,12.2448679 L78.5297421,12.2448679 C71.9457158,6.33101887 63.8083,2.39260377 54.9977211,0.854264151 L54.9977211,0.854264151 C52.2418684,0.373584906 49.4764526,0.134490566 46.7243421,0.134490566 L46.7243421,0.134490566 C40.1203579,0.13490566 33.6016105,1.5109434 27.5310842,4.21901887 M0.614121053,40.2633208 C0.469426316,41.4235094 0.368805263,42.6040377 0.314336842,43.7725283 L0.314336842,43.7725283 C0.311010526,43.8497358 0.356331579,43.9173962 0.423273684,43.9464528 L0.423273684,43.9464528 C0.442815789,43.9547547 0.464436842,43.9597358 0.486473684,43.9609811 L0.486473684,43.9609811 C0.585847368,43.9655472 0.669836842,43.8887547 0.674826316,43.7891321 L0.674826316,43.7891321 C0.728463158,42.6301887 0.828252632,41.4592075 0.972115789,40.3077358 L0.972115789,40.3077358 C0.984173684,40.2093585 0.914736842,40.1188679 0.815363158,40.1068302 L0.815363158,40.1068302 C0.807878947,40.1055849 0.800394737,40.1051698 0.793326316,40.1051698 L0.793326316,40.1051698 C0.703515789,40.1051698 0.625347368,40.172 0.614121053,40.2633208" id="path-32"></path>
        <path d="M7.92940909,2.74925749 L10.4273182,21.6717844 C10.4273182,21.6717844 6.68004545,25.4564551 5.43109091,30.5021317 L5.43109091,30.5021317 C4.18172727,35.5482216 3.03054545,56.7353533 3.03054545,56.7353533 L3.03054545,56.7353533 L0.659454545,58.1831138 L0.371045455,59.3916467 L7.26954545,68.7591198 L6.12531818,61.3034012 C5.94368182,60.1196587 6.25827273,57.7199461 6.15886364,57.6695389 L6.15886364,57.6695389 C9.90654545,47.5773593 17.9218636,19.1485329 17.9218636,19.1485329 L17.9218636,19.1485329 L17.9218636,0.226419162 L7.92940909,2.74925749 Z" id="path-34"></path>
        <path d="M0.188076923,11.7949194 L6.05961538,33.4425024 C2.03576923,39.9870332 6.71615385,78.3145782 6.615,78.2978957 L6.615,78.2978957 L6.62153846,78.3829763 L5.08923077,80.6676398 L5.27615385,81.9058957 L14.635,87.8944834 L10.9523077,81.4100095 C10.3676923,80.3807014 10.0453846,79.213763 9.97923077,78.015128 L9.97923077,78.015128 C9.93807692,78.0142938 9.89730769,78.015545 9.85653846,78.0167962 L9.85653846,78.0167962 C9.79615385,78.0180474 9.73615385,78.0197156 9.675,78.015128 L9.675,78.015128 C10.1292308,71.8738957 12.2038462,44.846218 14.2796154,34.7157915 L14.2796154,34.7157915 C16.6284615,23.2553555 10.7569231,0.334900474 10.7569231,0.334900474 L10.7569231,0.334900474 L0.188076923,11.7949194 Z" id="path-36"></path>
        <path d="M9.6152,46.6850175 L11.7956,44.6813333 C11.7956,44.6813333 1.1704,31.7711754 11.7956,15.9663947 L11.7956,15.9663947 L9.6152,0.385070175 C9.6152,0.385070175 -11.7856,30.9919649 9.6152,46.6850175" id="path-38"></path>
        <path d="M0.178225806,3.68863636 L1.13980645,9.09090909 L1.89841935,9.09090909 C1.89841935,9.09090909 1.72522581,4.74318182 3.07890323,4.82462121 L3.07890323,4.82462121 C4.08493548,4.88560606 6.18841935,7.21022727 7.20325806,8.40151515 L7.20325806,8.40151515 C7.57480645,8.83787879 8.15016129,9.09090909 8.75948387,9.09090909 L8.75948387,9.09090909 L12.0161935,9.09090909 C13.0603871,9.09090909 13.2038065,7.71628788 12.1763871,7.54848485 L12.1763871,7.54848485 C11.4836129,7.43560606 10.8529032,7.51704545 10.8529032,7.51704545 L10.8529032,7.51704545 C10.8529032,7.51704545 5.70154839,4.24204545 4.02370968,3.32765152 L4.02370968,3.32765152 C2.34545161,2.41325758 2.0363871,0.345454545 2.0363871,0.345454545 L2.0363871,0.345454545 C0.684806452,0.982575758 -0.0633225806,2.32878788 0.178225806,3.68863636" id="path-40"></path>
        <linearGradient x1="-53.467817%" y1="-41.8518583%" x2="30.6973705%" y2="46.4363234%" id="linearGradient-42">
            <stop stop-color="#08005D" offset="0%"></stop>
            <stop stop-color="#1A0E90" offset="100%"></stop>
        </linearGradient>
        <path d="M1.66414286,3.072125 L0.199714286,9.2124375 L0.914571429,9.5195625 C0.914571429,9.5195625 2.65885714,4.8208125 3.89871429,5.455625 L3.89871429,5.455625 C4.81928571,5.92725 5.78057143,9.253125 6.21428571,10.93225 L6.21428571,10.93225 C6.37285714,11.5469375 6.80357143,12.04875 7.37785714,12.2955 L7.37785714,12.2955 L10.4455714,13.612375 C11.4291429,14.0354375 12.1671429,12.6301875 11.2727143,12.035625 L11.2727143,12.035625 C10.6701429,11.6353125 10.0401429,11.4664375 10.0401429,11.4664375 L10.0401429,11.4664375 C10.0401429,11.4664375 6.62485714,5.89575 5.445,4.24375 L5.445,4.24375 C4.26557143,2.5913125 4.881,0.2646875 4.881,0.2646875 L4.881,0.2646875 C3.32871429,0.396375 2.03271429,1.526875 1.66414286,3.072125" id="path-43"></path>
        <linearGradient x1="26.4306759%" y1="-126.853158%" x2="44.9597845%" y2="35.4807292%" id="linearGradient-45">
            <stop stop-color="#08005D" offset="0%"></stop>
            <stop stop-color="#1A0E90" offset="100%"></stop>
        </linearGradient>
        <path d="M0.35625,14.8734727 C-0.974583333,23.3098727 4.4875,45.4998545 4.4875,45.4998545 L4.4875,45.4998545 C17.42875,46.3245091 24.8779167,44.5827818 24.8779167,44.5827818 L24.8779167,44.5827818 C25.41125,30.3700364 22.79125,15.5153818 22.2429167,9.18870909 L22.2429167,9.18870909 C21.6945833,2.86203636 22.06875,0.560363636 22.06875,0.560363636 L22.06875,0.560363636 L8.90416667,0.385563636 C8.90416667,0.385563636 1.68666667,6.43790909 0.35625,14.8734727" id="path-46"></path>
        <polygon id="path-48" points="0.068952381 15.9736 7.97714286 15.9736 7.14514286 5.6956 2.03504762 0.2856"></polygon>
        <path d="M3.03060345,0.581927711 C2.02456897,0.636325301 1.17068966,1.31692771 0.909051724,2.26951807 L0.909051724,2.26951807 C-2.45387931,14.5321687 5.76293103,33.7020482 5.76293103,33.7020482 L5.76293103,33.7020482 C15.1193966,36.3839759 19.3814655,33.8783133 19.3814655,33.8783133 L19.3814655,33.8783133 L24.1737069,16.6692771 C24.7452586,14.6160843 24.812069,12.4595783 24.3672414,10.3760241 L24.3672414,10.3760241 L23.174569,4.78277108 C22.6474138,2.31253012 20.4900862,0.505180723 17.9150862,0.36813253 L17.9150862,0.36813253 C16.5594828,0.29560241 15.0491379,0.266927711 13.5081897,0.266927711 L13.5081897,0.266927711 C9.48965517,0.266927711 5.26293103,0.461746988 3.03060345,0.581927711" id="path-50"></path>
        <path d="M3.25585366,0.142928571 C1.30310976,0.306157143 -0.143414634,1.9749 0.0247560976,3.86984286 L0.0247560976,3.86984286 C0.376036585,7.82668571 1.20792683,11.5519429 2.43634146,15.3426571 L2.43634146,15.3426571 C3.04243902,17.2334571 3.78939024,19.1122429 4.74591463,21.0076 L4.74591463,21.0076 C5.22310976,21.9571429 5.75408537,22.9253286 6.42420732,23.8918571 L6.42420732,23.8918571 C7.09603659,24.8592143 7.85878049,25.8667571 9.08676829,26.8821714 L9.08676829,26.8821714 C9.41926829,27.1398571 9.76243902,27.3921571 10.1389024,27.6324429 L10.1389024,27.6324429 C10.5917683,27.8772857 10.952439,28.1126 11.5103049,28.3069 L11.5103049,28.3069 C11.7770732,28.4038429 12.0476829,28.4929143 12.3195732,28.5716286 L12.3195732,28.5716286 C12.5748171,28.6399857 12.7306098,28.6441286 12.9414634,28.6797571 L12.9414634,28.6797571 C13.3371341,28.7356857 13.7345122,28.7833286 14.1293293,28.8210286 L14.1293293,28.8210286 C14.8737195,28.8628714 15.4921951,28.8040429 16.1729878,28.7812571 L16.1729878,28.7812571 C16.7803659,28.7021286 17.3629878,28.6014571 17.9537195,28.5061714 L17.9537195,28.5061714 C20.1996951,28.0334714 22.1494512,27.2985286 24.0368902,26.4997857 L24.0368902,26.4997857 C24.9746341,26.0846714 25.8769512,25.6364143 26.777561,25.1906429 L26.777561,25.1906429 C27.6598171,24.7142143 28.5284146,24.2174857 29.3816463,23.7108143 L29.3816463,23.7108143 C31.0770122,22.6577 32.7121951,21.5751714 34.2539024,20.2577429 L34.2539024,20.2577429 C34.5962195,19.9631857 34.7780488,19.5058143 34.6884146,19.0372571 L34.6884146,19.0372571 C34.5526829,18.3267571 33.8496951,17.8577857 33.1176829,17.9895286 L33.1176829,17.9895286 L33.0886585,17.9949143 C29.2638415,18.6834571 25.5389024,19.5936429 21.9565244,20.242 L21.9565244,20.242 C20.180061,20.5771571 18.4095732,20.8447857 16.8460976,20.9230857 L16.8460976,20.9230857 L15.755122,20.9288857 C15.4764024,20.8833143 14.5659756,20.7420429 14.5937195,20.7387286 L14.5937195,20.7387286 C14.6393902,20.7366571 14.7772561,20.7101429 14.7362805,20.6757571 L14.7362805,20.6757571 C14.5267073,20.4433429 14.125061,19.9391571 13.7686585,19.3326429 L13.7686585,19.3326429 C13.4122561,18.7199143 13.0238415,18.0442143 12.6708537,17.3088571 L12.6708537,17.3088571 C11.9717073,15.8319286 11.3186585,14.2240857 10.6745732,12.5835143 L10.6745732,12.5835143 C9.40817073,9.30651429 8.22926829,5.80745714 6.92445122,2.47038571 L6.92445122,2.47038571 L6.87707317,2.34858571 C6.36359756,1.03654286 5.05493902,0.130085714 3.56487805,0.130085714 L3.56487805,0.130085714 C3.46243902,0.130085714 3.35957317,0.134228571 3.25585366,0.142928571" id="path-52"></path>
        <path d="M1.7624,2.23494444 L0.28,5.65483333 C0.2024,7.931 6.8316,6.44972222 7.4552,4.97077778 L7.4552,4.97077778 C8.0792,3.49261111 6.9096,2.23494444 6.9096,2.23494444 L6.9096,2.23494444 C10.1852,1.65977778 9.5612,0.345722222 9.5612,0.345722222 L9.5612,0.345722222 L1.7624,2.23494444 Z" id="path-54"></path>
        <path d="M0.575142857,8.17657895 C2.31128571,13.1060526 8.71671429,16.9247368 10.8141429,13.5153947 L10.8141429,13.5153947 C12.9115714,10.1064474 10.4087143,1.97526316 10.0911429,1.80276316 L10.0911429,1.80276316 C7.968,0.649736842 6.20314286,0.166184211 4.77642857,0.166184211 L4.77642857,0.166184211 C0.515142857,0.166973684 -0.724714286,4.48342105 0.575142857,8.17657895" id="path-56"></path>
        <path d="M43.6945833,0.43270073 C34.77375,1.90762774 36.7929167,10.566219 36.1708333,13.6109343 L36.1708333,13.6109343 C34.77375,20.4442774 30.1454167,18.5745109 26.8675,21.6146496 L26.8675,21.6146496 C24.1766667,24.1105839 20.8991667,24.0386058 17.3591667,23.9670438 L17.3591667,23.9670438 C13.9104167,23.897562 10.2129167,23.8276642 6.56666667,26.1317956 L6.56666667,26.1317956 C1.2325,29.5027007 -1.3375,38.1271752 1.2225,45.0903285 L1.2225,45.0903285 C4.76791667,54.734562 16.8833333,58.7004307 23.1616667,55.7630584 L23.1616667,55.7630584 C29.1620833,52.9559124 28.3075,44.5477883 36.38125,41.2983723 L36.38125,41.2983723 C39.8091667,39.9187226 41.5016667,40.8153285 43.5541667,38.7708175 L43.5541667,38.7708175 C47.1475,35.1918832 46.1779167,28.2462044 45.8041667,25.5701168 L45.8041667,25.5701168 C44.9941667,19.7640219 43.0441667,18.7130584 43.9758333,16.1613723 L43.9758333,16.1613723 C45.7883333,11.1982117 54.24125,12.2221314 54.9458333,8.71850365 L54.9458333,8.71850365 C55.5408333,5.75658394 50.30375,0.332014599 44.9375,0.332014599 L44.9375,0.332014599 C44.5229167,0.332014599 44.1083333,0.364051095 43.6945833,0.43270073" id="path-58"></path>
    </defs>
    <g id="Comfortable-Themes" stroke="none" stroke-width="1" fill="none" fill-rule="evenodd">
        <g id="Outsourcing-IT-Profesional---alt" transform="translate(-178.000000, -3867.000000)">
            <g id="Group-132" transform="translate(178.000000, 3867.000000)">
                <g id="Group-131">
                    <path d="M119.751712,221.193498 C227.911024,224.306873 299.293257,98.7868949 208.657112,99.8316354 C118.020967,100.876376 168.069133,1.42108547e-14 96.8229295,1.42108547e-14 C25.5767256,1.42108547e-14 0,65.3364845 0,96.8460676 C0,128.355651 11.5924005,218.080122 119.751712,221.193498 Z" id="Oval-Copy-3" fill="url(#linearGradient-1)" opacity="0.2"></path>
                    <circle id="Oval-Copy-4" fill="url(#linearGradient-2)" opacity="0.3" cx="199" cy="44" r="25"></circle>
                </g>
                <g id="Group-127" transform="translate(21.000000, 10.000000)">
                    <g id="Group-3" transform="translate(72.000000, 22.000000)">
                        <mask id="mask-4" fill="white">
                            <use xlink:href="#path-3"></use>
                        </mask>
                        <g id="Clip-2"></g>
                        <path d="M6.86174233,11.7549287 L0.239877301,163.981651 C0.0559018405,168.214074 3.39165644,171.773515 7.64144785,171.879929 L7.64144785,171.879929 L127.738209,174.88943 C132.261252,175.00291 135.979975,171.362411 135.946001,166.854394 L135.946001,166.854394 L134.796859,15.267399 C134.753472,9.50653207 130.186626,4.79067696 124.409546,4.54043943 L124.409546,4.54043943 L19.7074847,0.0187054632 C19.5255951,0.010807601 19.3453742,0.00706650831 19.1651534,0.00706650831 L19.1651534,0.00706650831 C12.6050307,0.00706650831 7.14876074,5.16104513 6.86174233,11.7549287" id="Fill-1" fill="url(#linearGradient-5)" mask="url(#mask-4)"></path>
                    </g>
                    <g filter="url(#filter-6)" id="Group-6">
                        <g transform="translate(76.000000, 162.000000)">
                            <mask id="mask-8" fill="white">
                                <use xlink:href="#path-7"></use>
                            </mask>
                            <g id="Clip-5"></g>
                            <path d="M1.12049057,0.462876712 L0.206566038,21.0999589 C0.000867924528,25.7423151 3.69084906,29.7323973 8.43232075,29.9939863 L8.43232075,29.9939863 L22.3924528,30.7630411 C22.4002642,30.7634658 22.4085094,30.7634658 22.4167547,30.7634658 L22.4167547,30.7634658 C22.6454528,30.7634658 22.8368302,30.5889315 22.8498491,30.362589 L22.8498491,30.362589 C22.8633019,30.1290274 22.6801698,29.9281644 22.4410566,29.915 L22.4410566,29.915 L8.48092453,29.1459452 C4.21116981,28.9102603 0.888320755,25.3172329 1.07362264,21.1364795 L1.07362264,21.1364795 L1.98754717,0.500246575 C1.9975283,0.265835616 1.81222642,0.0675205479 1.57267925,0.0577534247 L1.57267925,0.0577534247 C1.56616981,0.0573287671 1.56009434,0.0573287671 1.55358491,0.0573287671 L1.55358491,0.0573287671 C1.31967925,0.0573287671 1.13090566,0.235260274 1.12049057,0.462876712" id="Fill-4" fill="url(#linearGradient-9)" mask="url(#mask-8)"></path>
                        </g>
                    </g>
                    <g id="Group-9" transform="translate(78.000000, 152.000000)">
                        <mask id="mask-11" fill="white">
                            <use xlink:href="#path-10"></use>
                        </mask>
                        <g id="Clip-8"></g>
                        <path d="M0.192,0.530454545 L0.078,4.10818182 C0.07,4.35909091 0.212666667,4.57136364 0.396333333,4.58181818 L0.396333333,4.58181818 C0.401666667,4.58227273 0.406666667,4.58227273 0.411333333,4.58227273 L0.411333333,4.58227273 C0.588666667,4.58227273 0.736333333,4.39181818 0.744,4.14772727 L0.744,4.14772727 L0.858,0.570454545 C0.866,0.319545455 0.723333333,0.107272727 0.539666667,0.0968181818 L0.539666667,0.0968181818 C0.536333333,0.0963636364 0.533333333,0.0963636364 0.530333333,0.0963636364 L0.530333333,0.0963636364 C0.350666667,0.0963636364 0.199666667,0.284545455 0.192,0.530454545" id="Fill-7" fill="#FFFFFF" mask="url(#mask-11)"></path>
                    </g>
                    <g id="Group-30" transform="translate(82.000000, 20.000000)">
                        <path d="M10.5113728,0.470583333 C24.7575052,3.026 73.7752056,11.1443333 114.653394,9.78725 C116.517784,9.72516667 118.069003,11.1980833 118.087401,13.0568333 L119.585705,165.696417 C119.606007,167.789333 117.928098,169.506 115.828307,169.538917 C98.6486551,169.809333 27.9088641,170.667667 2.85227875,166.953083 C1.32698258,166.726833 0.220222997,165.391417 0.277923345,163.856 L6.29088502,3.85766667 C6.37283624,1.68433333 8.36349826,0.0855833333 10.5113728,0.470583333" id="Fill-10" fill="#FFFFFF"></path>
                        <path d="M11.8747317,4.48729167 C25.584,6.946875 72.7557073,14.7589583 112.094801,13.453125 C113.888948,13.3935417 115.382049,14.810625 115.39961,16.599375 L116.841467,163.491458 C116.861352,165.505625 115.24616,167.157292 113.225394,167.188958 C96.6925714,167.449375 28.6170314,168.275208 4.50372125,164.700625 C3.03570732,164.483125 1.97075958,163.197708 2.02636934,161.720208 L7.81312892,7.746875 C7.89173519,5.65520833 9.80755401,4.11645833 11.8747317,4.48729167" id="Fill-12" fill="#E9F9FF"></path>
                        <path d="M105.876669,26.0430833 C106.795275,26.0826667 107.55416,25.6401667 107.562174,25.05975 C107.570467,24.4793333 106.826216,23.9589167 105.908028,23.9026667 L68.9714425,21.64975 C68.0536725,21.5935 67.4992474,22.1926667 67.7400836,22.9814167 C67.9805017,23.76975 68.9296307,24.44725 69.8482369,24.4868333 L105.876669,26.0430833 Z" id="Fill-14" fill="#8CCEFF"></path>
                        <path d="M68.7172265,27.507125 C67.7990383,27.450875 67.2446132,28.0504583 67.4854495,28.8387917 C67.7258676,29.627125 68.6745784,30.304625 69.5940209,30.344625 L105.622035,31.9004583 C106.540641,31.9400417 107.299108,31.4979583 107.30754,30.9175417 C107.315833,30.3367083 106.571164,29.8162917 105.653394,29.7600417 L68.7172265,27.507125 Z" id="Fill-16" fill="#8CCEFF"></path>
                        <path d="M68.4587456,33.4495 C67.5405575,33.3936667 66.9865505,33.9928333 67.2269686,34.7811667 C67.4673868,35.5695 68.4160976,36.247 69.3355401,36.287 L105.363554,37.8428333 C106.28216,37.8828333 107.040627,37.4403333 107.049053,36.8599167 C107.056934,36.2795 106.312683,35.7586667 105.394495,35.7024167 L68.4587456,33.4495 Z" id="Fill-18" fill="#8CCEFF"></path>
                        <path d="M108.50584,50.2707917 C109.424446,50.310375 110.166188,49.8670417 110.15258,49.2857917 C110.139429,48.7045417 109.377199,48.190375 108.458592,48.1437083 L20.7051429,43.6624583 C19.7865366,43.615375 19.477547,44.1832917 20.0185923,44.9245417 L20.1841672,45.1507917 C20.7256307,45.8920417 21.9201951,46.5307917 22.8388014,46.570375 L108.50584,50.2707917 Z" id="Fill-20" fill="#8CCEFF"></path>
                        <path d="M20.4502578,49.519625 C19.5316516,49.4725417 19.222662,50.0404583 19.7637073,50.7817083 L19.9292822,51.0079583 C20.4707456,51.7492083 21.6653101,52.3879583 22.5843345,52.4279583 L108.250955,56.1279583 C109.169561,56.1679583 109.910885,55.724625 109.898091,55.143375 C109.884544,54.5617083 109.122314,54.0479583 108.203707,54.000875 L20.4502578,49.519625 Z" id="Fill-22" fill="#8CCEFF"></path>
                        <path d="M20.5143554,64.9232917 C20.0523345,64.9495417 19.6287805,65.1487083 19.3524042,65.4695417 C19.1249477,65.7324583 19.0166551,66.0574583 19.0471777,66.3837083 L19.9783275,76.2782917 C20.0765854,77.3270417 21.0654355,78.1362083 22.2783972,78.1612083 L34.0973519,78.4032917 C34.104878,78.4038465 34.1128223,78.4038465 34.1207666,78.4038465 C35.2509408,78.4157917 36.1954704,77.6337083 36.2314286,76.6512083 C36.3961672,72.1499583 36.49777,67.930375 35.9383275,65.775375 C35.6903833,64.821625 34.6701742,64.104125 33.5617422,64.131625 C31.4059233,64.1349583 27.529547,64.421625 24.4149826,64.651625 C22.8963763,64.764125 21.5161672,64.8657917 20.5143554,64.9232917 M34.1103136,79.3645417 C34.0990244,79.3645417 34.0885714,79.3645417 34.0772822,79.364125 L22.2583275,79.1224583 C20.555331,79.0874583 19.1621603,77.9032917 19.0179094,76.3682917 L18.0867596,66.4732917 C18.0319861,65.8849583 18.2213937,65.3057917 18.621115,64.842875 C19.0672474,64.3249583 19.7374913,64.0049583 20.4587456,63.9632917 C21.4567944,63.9070417 22.8315679,63.8049583 24.3439024,63.6932917 C27.6370035,63.4495417 31.3691289,63.1737083 33.5600697,63.170375 C33.5763763,63.170375 33.5922648,63.170375 33.6085714,63.170375 C35.1752613,63.1874583 36.5136585,64.1545417 36.8719861,65.5349583 C37.4640418,67.8145417 37.3628571,72.1107917 37.1956098,76.6862083 C37.1404181,78.1874583 35.7593728,79.382875 34.1103136,79.3645417" id="Fill-24" fill="#8CCEFF"></path>
                        <path d="M21.7731847,65.92875 C24.2580627,65.7866667 29.6609895,65.2995833 32.2211289,65.2954149 C33.3057282,65.2941667 34.2502578,65.9575 34.4940209,66.8975 C34.9681672,68.7233333 34.8628014,72.3508333 34.7402927,75.6983333 C34.7034983,76.70125 33.7702578,77.4916667 32.6417561,77.46875 L23.196878,77.275 C22.0353449,77.25125 21.0795261,76.45125 20.9829408,75.4225 L20.239108,67.5154167 C20.1621742,66.6975 20.8520697,65.98125 21.7731847,65.92875" id="Fill-26" fill="#FFFFFF"></path>
                        <path d="M45.3005436,69.246 C44.381101,69.2143333 43.812878,69.9155833 44.0378258,70.8043333 L44.7135052,73.4755833 C44.938453,74.3643333 45.8750383,75.09975 46.7944808,75.10975 L104.908348,75.7435 C105.828209,75.7535 106.57246,75.0118333 106.562525,74.0951667 L106.550718,73.0330833 C106.540683,72.1164167 105.780125,71.3405833 104.860683,71.3089167 L45.3005436,69.246 Z" id="Fill-28" fill="#8CCEFF"></path>
                    </g>
                    <g id="Group-33" transform="translate(103.000000, 79.000000)">
                        <mask id="mask-13" fill="white">
                            <use xlink:href="#path-12"></use>
                        </mask>
                        <g id="Clip-32"></g>
                        <path d="M12.5308,0.383659091 L6.864,12.2214545 C6.6712,12.6232727 6.0872,12.6414318 5.8684,12.2523636 L5.8684,12.2523636 L3.6816,8.36709091 C3.2168,7.54104545 2.1392,7.24547727 1.2944,7.71259091 L1.2944,7.71259091 C0.4864,8.15922727 0.1612,9.12706818 0.538,9.94925 L0.538,9.94925 C3.1448,15.6438636 6.448,16.9246591 6.448,16.9246591 L6.448,16.9246591 C12.5332,11.1983636 13.6112,4.29211364 13.7088,0.653727273 L13.7088,0.653727273 C13.7192,0.267363636 13.4012,0.0363181818 13.082,0.0363181818 L13.082,0.0363181818 C12.864,0.0363181818 12.6456,0.144113636 12.5308,0.383659091" id="Fill-31" fill="#F7941D" mask="url(#mask-13)"></path>
                    </g>
                    <g id="Group-40" transform="translate(99.000000, 108.000000)">
                        <path d="M2.64429671,1.76248 C2.18818404,1.78768 1.76925446,1.97848 1.49616526,2.28648 C1.27141408,2.53888 1.16440939,2.85128 1.19456901,3.16448 L2.11464413,12.66328 C2.21173333,13.67008 3.18882254,14.44688 4.38735775,14.47088 L16.0657427,14.70328 C16.0731793,14.70328 16.0810291,14.70328 16.0888789,14.7038126 C17.2051981,14.71528 18.1384939,13.96448 18.1744376,13.02128 C18.3372169,8.69968 18.4376113,4.64928 17.8848225,2.58088 C17.6398272,1.66448 16.6317521,0.98768 15.5365033,1.00248 C13.4063249,1.00568 9.57605258,1.28088 6.49853146,1.50128 C4.99798685,1.60968 3.63419343,1.70728 2.64429671,1.76248 M16.0785502,15.62608 C16.0673953,15.62608 16.0566535,15.62608 16.0459117,15.62568 L4.36752676,15.39328 C2.68478498,15.35968 1.30818404,14.22328 1.16564883,12.74968 L0.245573709,3.25088 C0.191451643,2.68528 0.378606573,2.12928 0.773160563,1.68488 C1.2144,1.18808 1.87625915,0.88048 2.58934836,0.84088 C3.57552676,0.78648 4.9339493,0.68848 6.42829671,0.58128 C9.68223099,0.34768 13.3699681,0.08288 15.5348507,0.07928 C15.5509634,0.07968 15.5666629,0.07928 15.5823624,0.07968 C17.1308319,0.09608 18.4533108,1.02448 18.8073765,2.35008 C19.3923906,4.53808 19.2924094,8.66248 19.126738,13.05488 C19.072616,14.49568 17.7079962,15.64328 16.0785502,15.62608" id="Fill-34" fill="#8CCEFF"></path>
                        <path d="M3.88778216,2.72792 C6.3431061,2.59152 11.6821859,2.12392 14.2114629,2.11991831 C15.2835756,2.11872 16.2164582,2.75512 16.4577352,3.65752 C16.9262423,5.41032 16.8221296,8.89312 16.7010779,12.10672 C16.6647211,13.06952 15.7425803,13.82832 14.6275005,13.80592 L5.29495587,13.62032 C4.14723756,13.59752 3.20278685,12.82952 3.10693709,11.84152 L2.37236432,4.25112 C2.29634554,3.46592 2.97762254,2.77832 3.88778216,2.72792" id="Fill-36" fill="#FFFFFF"></path>
                        <path d="M27.1356883,5.91248 C26.2271812,5.88208 25.6657164,6.55488 25.8875756,7.40848 L26.5556319,9.97248 C26.7779042,10.82608 27.7033502,11.53208 28.6118573,11.54168 L86.0345427,12.15008 C86.9434629,12.15968 87.678862,11.44768 87.6690456,10.56768 L87.6573784,9.54808 C87.6474629,8.66808 86.8959512,7.92328 85.9874441,7.89248 L27.1356883,5.91248 Z" id="Fill-38" fill="#8CCEFF"></path>
                    </g>
                    <g id="Group-43" transform="translate(103.000000, 104.000000)">
                        <mask id="mask-15" fill="white">
                            <use xlink:href="#path-14"></use>
                        </mask>
                        <g id="Clip-42"></g>
                        <path d="M12.6263529,0.6332 L6.79247059,12.8892 C6.59441176,13.3048 5.99323529,13.324 5.768,12.9212 L5.768,12.9212 L3.51688235,8.8984 C3.03841176,8.0436 1.92952941,7.7376 1.05988235,8.2212 L1.05988235,8.2212 C0.227705882,8.6832 -0.107058824,9.6856 0.280823529,10.5368 L0.280823529,10.5368 C2.96429412,16.4324 6.36464706,17.758 6.36464706,17.758 L6.36464706,17.758 C12.6284118,11.8296 13.7385294,4.6796 13.8385882,0.9132 L13.8385882,0.9132 C13.8497059,0.5128 13.5223529,0.2736 13.1937647,0.2736 L13.1937647,0.2736 C12.9693529,0.2736 12.7445294,0.3852 12.6263529,0.6332" id="Fill-41" fill="#F7941D" mask="url(#mask-15)"></path>
                    </g>
                    <g id="Group-50" transform="translate(98.000000, 133.000000)">
                        <path d="M2.53963019,1.82324 C2.08136604,1.84844 1.66046038,2.03964 1.38566792,2.34764 C1.1602717,2.60084 1.05276226,2.91244 1.08306415,3.22524 L2.00747925,12.72404 C2.10502642,13.73084 3.08672453,14.50804 4.29091321,14.53164 L16.0243849,14.76444 C17.1306113,14.75724 18.1069132,14.03164 18.1430264,13.08204 C18.3065736,8.76044 18.4078566,4.71044 17.8520453,2.64164 C17.6058943,1.72564 16.5930642,1.06004 15.4926491,1.06362547 C13.3515925,1.06604 9.50159245,1.34164 6.40830943,1.56284 C4.90234717,1.67004 3.53378113,1.76804 2.53963019,1.82324 M16.0360075,15.68724 C16.0256302,15.68724 16.0156679,15.68724 16.0048755,15.68684 L4.27098868,15.45404 C2.58072453,15.42124 1.19763019,14.28444 1.05400755,12.81044 L0.129592453,3.31204 C0.0752150943,2.74684 0.26325283,2.19084 0.659667925,1.74604 C1.10257358,1.24924 1.76796981,0.94204 2.48442264,0.90164 C3.47442264,0.84724 4.83759245,0.74964 6.3373283,0.64244 C9.44638491,0.42044 13.3154792,0.14404 15.4914038,0.14084 C17.0355547,0.14964 18.4194792,1.07164 18.779366,2.41084 C19.3667245,4.59924 19.2662717,8.72324 19.100234,13.11564 C19.0454415,14.55644 17.6739698,15.70484 16.0360075,15.68724" id="Fill-44" fill="#8CCEFF"></path>
                        <path d="M3.78935472,2.78868 C6.25626038,2.65228 11.6201094,2.18468 14.1617321,2.18107699 C15.2389019,2.17948 16.1761849,2.81628 16.4181849,3.71868 C16.8889019,5.47148 16.7847132,8.95388 16.6626755,12.16788 C16.6265623,13.13028 15.6996566,13.88908 14.579317,13.86668 L5.20275094,13.681077 C4.04961887,13.65828 3.1011283,12.89068 3.00482642,11.90268 L2.26637358,4.31188 C2.18999623,3.52668 2.87490189,2.83908 3.78935472,2.78868" id="Fill-46" fill="#FFFFFF"></path>
                        <path d="M27.1465472,5.97344 C26.2341698,5.94304 25.6696415,6.61584 25.8929623,7.46944 L26.5637547,10.03344 C26.7870755,10.88664 27.7168868,11.59264 28.6296792,11.60264 L86.3232264,12.21104 C87.236434,12.22064 87.9753019,11.50864 87.9654392,10.62864 L87.953717,9.60904 C87.9437547,8.72904 87.1886981,7.98384 86.2763208,7.95344 L27.1465472,5.97344 Z" id="Fill-48" fill="#8CCEFF"></path>
                    </g>
                    <g id="Group-53" transform="translate(102.000000, 128.000000)">
                        <mask id="mask-17" fill="white">
                            <use xlink:href="#path-16"></use>
                        </mask>
                        <g id="Clip-52"></g>
                        <path d="M12.5102353,0.694 L6.67676471,12.95 C6.47870588,13.366 5.87670588,13.3848 5.65188235,12.9824 L5.65188235,12.9824 L3.40035294,8.9596 C2.92188235,8.104 1.81341176,7.7984 0.943764706,8.2816 L0.943764706,8.2816 C0.112,8.7444 -0.223176471,9.746 0.164705882,10.598 L0.164705882,10.598 C2.84817647,16.4932 6.24852941,17.8188 6.24852941,17.8188 L6.24852941,17.8188 C12.5127059,11.8908 13.622,4.7408 13.7224706,0.974 L13.7224706,0.974 C13.7331765,0.5736 13.4058235,0.3344 13.0772353,0.3344 L13.0772353,0.3344 C12.8532353,0.3348 12.6284118,0.446 12.5102353,0.694" id="Fill-51" fill="#F7941D" mask="url(#mask-17)"></path>
                    </g>
                    <g id="Group-60" transform="translate(96.000000, 157.000000)">
                        <path d="M2.58215962,1.80936 C2.12604695,1.83456 1.70711737,2.02536 1.43402817,2.33336 C1.20969014,2.58616 1.1022723,2.89816 1.13284507,3.21096 L2.05250704,12.71016 C2.14959624,13.71696 3.12668545,14.49376 4.3256338,14.51776 L16.0036056,14.75016 C16.0114554,14.75016 16.018892,14.75016 16.0267418,14.75016 C17.1434742,14.76216 18.07677,14.01136 18.1127136,13.06816 C18.2750798,8.74656 18.3758873,4.69576 17.8230986,2.62736 C17.5776901,1.71136 16.5692019,1.05736 15.4747793,1.04936 C13.3441878,1.05216 9.51391549,1.32736 6.43639437,1.54816 C4.93584977,1.65616 3.57205634,1.75416 2.58215962,1.80936 M16.0164131,15.67296 C16.0056714,15.67296 15.9949296,15.67296 15.9837746,15.67256 L4.30538967,15.44016 C2.62264789,15.40656 1.24604695,14.27016 1.10351174,12.79656 L0.18343662,3.29736 C0.129314554,2.73216 0.316469484,2.17616 0.71143662,1.73176 C1.15226291,1.23496 1.81453521,0.92736 2.52762441,0.88776 C3.51380282,0.83336 4.87181221,0.73536 6.36615962,0.62816 C9.6200939,0.39456 13.3082441,0.12976 15.4727136,0.12656 C17.0591925,0.16336 18.3878685,1.05776 18.7456526,2.39656 C19.3306667,4.58496 19.2306854,8.70936 19.0650141,13.10176 C19.0104789,14.54256 17.6462723,15.69016 16.0164131,15.67296" id="Fill-54" fill="#8CCEFF"></path>
                        <path d="M3.82605822,2.7744 C6.28138216,2.6384 11.6200488,2.1704 14.149739,2.16679699 C15.2218516,2.1652 16.1547343,2.802 16.3960113,3.7044 C16.8645183,5.4572 16.7604056,8.9396 16.639354,12.1536 C16.6029972,13.116 15.6808563,13.8748 14.5657765,13.8528 L5.23281878,13.666797 C4.08551362,13.644 3.14106291,12.8764 3.04521315,11.8884 L2.31022723,4.2976 C2.23420845,3.5124 2.91589859,2.8252 3.82605822,2.7744" id="Fill-56" fill="#FFFFFF"></path>
                        <path d="M27.0735512,5.95916 C26.1654573,5.92836 25.6035793,6.60156 25.8258516,7.45516 L26.493908,10.01916 C26.7157671,10.87276 27.6412131,11.57876 28.5501333,11.58836 L85.9724056,12.19676 C86.8813258,12.20636 87.6167249,11.49436 87.6073136,10.61436 L87.5952413,9.59476 C87.5853258,8.71476 86.8338141,7.96996 85.9257202,7.93916 L27.0735512,5.95916 Z" id="Fill-58" fill="#8CCEFF"></path>
                    </g>
                    <g id="Group-63" transform="translate(100.000000, 153.000000)">
                        <mask id="mask-19" fill="white">
                            <use xlink:href="#path-18"></use>
                        </mask>
                        <g id="Clip-62"></g>
                        <path d="M12.5645882,0.68 L6.73111765,12.936 C6.53305882,13.3516 5.93147059,13.3708 5.70623529,12.968 L5.70623529,12.968 L3.45470588,8.9452 C2.97623529,8.09 1.86776471,7.7844 0.998117647,8.2676 L0.998117647,8.2676 C0.166352941,8.73 -0.168823529,9.7324 0.218647059,10.5836 L0.218647059,10.5836 C2.90294118,16.4788 6.30288235,17.8044 6.30288235,17.8044 L6.30288235,17.8044 C12.5666471,11.8764 13.6763529,4.7264 13.7772353,0.9592 L13.7772353,0.9592 C13.7875294,0.5592 13.4601765,0.32 13.132,0.32 L13.132,0.32 C12.9075882,0.3204 12.6827647,0.432 12.5645882,0.68" id="Fill-61" fill="#FA9341" mask="url(#mask-19)"></path>
                    </g>
                    <g id="Group-66" transform="translate(140.000000, 0.000000)">
                        <mask id="mask-21" fill="white">
                            <use xlink:href="#path-20"></use>
                        </mask>
                        <g id="Clip-65"></g>
                        <path d="M5.62153846,0.133627907 C4.85423077,0.137976744 4.14884615,0.24472093 3.51730769,0.406023256 L3.51730769,0.406023256 C1.54576923,0.910093023 0.202307692,2.7864186 0.299615385,4.87188372 L0.299615385,4.87188372 L0.784615385,15.239907 L11.6953846,16.726814 C11.6953846,16.726814 18.7261538,7.78323256 12.0942308,2.58834884 L12.0942308,2.58834884 C9.74384615,0.747604651 7.56115385,0.144697674 5.72269231,0.133627907 L5.72269231,0.133627907 L5.62153846,0.133627907 Z M6.92653846,10.7052558 C5.41846154,10.6376512 4.24884615,9.32667442 4.31384615,7.77611628 L4.31384615,7.77611628 C4.37961538,6.22595349 5.655,5.02330233 7.16346154,5.09051163 L7.16346154,5.09051163 C8.67153846,5.15772093 9.84153846,6.46909302 9.77615385,8.01965116 L9.77615385,8.01965116 C9.71192308,9.52869767 8.50192308,10.7080233 7.04653846,10.7080233 L7.04653846,10.7080233 C7.00653846,10.7080233 6.96653846,10.7072326 6.92653846,10.7052558 L6.92653846,10.7052558 Z" id="Fill-64" fill="#F7941D" mask="url(#mask-21)"></path>
                    </g>
                    <path d="M140.405921,8.66376893 C140.214736,8.58209155 140.07537,8.3929863 140.065163,8.16646234 L140.005099,6.89060541 C139.904206,4.72917259 141.310421,2.78420493 143.349863,2.26436666 C144.74587,1.90868784 146.16975,1.91190665 147.580675,2.27402309 C147.872753,2.35409106 148.05805,2.65867123 147.98346,2.96325139 C147.90887,3.26702685 147.608156,3.45251094 147.311367,3.37606414 C146.078279,3.05941343 144.835378,3.05659697 143.617208,3.36681005 C142.089688,3.75588405 141.036009,5.21481097 141.112561,6.83628794 L141.172233,8.11214488 C141.186758,8.42557678 140.951212,8.69153119 140.645394,8.7064182 C140.560989,8.71044171 140.479333,8.69515235 140.405921,8.66376893 M140.560597,11.9566145 C140.368626,11.8749371 140.230046,11.6858318 140.219446,11.4593079 L140.140538,9.77868523 C140.126013,9.46565568 140.361952,9.19970127 140.667378,9.1844119 C140.972804,9.16872019 141.233083,9.41013116 141.248001,9.72477011 L141.326516,11.4049904 C141.341434,11.7184223 141.105102,11.9843767 140.799677,11.9992637 C140.71488,12.0036896 140.633616,11.9879979 140.560597,11.9566145" id="Fill-67" fill="#FFFFFF"></path>
                    <g id="Group-71" transform="translate(123.000000, 15.000000)">
                        <mask id="mask-23" fill="white">
                            <use xlink:href="#path-22"></use>
                        </mask>
                        <g id="Clip-70"></g>
                        <path d="M0.422083333,3.56275862 L0.184583333,8.99710345 L44.7754167,11.7053793 L44.6879167,6.47006897 C44.6604167,4.80496552 43.3616667,3.43406897 41.69,3.30537931 L41.69,3.30537931 L4.01958333,0.397655172 C3.93125,0.391034483 3.84375,0.387724138 3.75666667,0.387724138 L3.75666667,0.387724138 C1.98541667,0.387724138 0.5,1.77517241 0.422083333,3.56275862" id="Fill-69" fill="#F7941D" mask="url(#mask-23)"></path>
                    </g>
                    <g id="Group-76" transform="translate(124.000000, 15.000000)" fill="#FFFFFF">
                        <path d="M13.5347625,1.6222875 C13.5282,1.6222875 13.522075,1.6222875 13.5155125,1.6219125 L11.8118875,1.5589125 C11.5703875,1.5499125 11.3831375,1.3747875 11.3936375,1.1677875 C11.4041375,0.9611625 11.60145,0.8055375 11.8495125,0.8096625 L13.553575,0.8726625 C13.795075,0.8816625 13.9818875,1.0564125 13.9713875,1.2634125 C13.9617625,1.4647875 13.7675125,1.6222875 13.5347625,1.6222875" id="Fill-72"></path>
                        <path d="M0.4417875,5.7932625 C0.209475,5.7103875 0.0506625,5.5097625 0.062475,5.2813875 L0.1631,3.2890125 C0.204225,2.4711375 0.6150375,1.7158875 1.318975,1.1623875 C2.0229125,0.6088875 2.9364125,0.3235125 3.8910375,0.3587625 L10.15385,0.5916375 C10.49335,0.6055125 10.75935,0.8515125 10.7440375,1.1440125 C10.7296,1.4361375 10.44085,1.6622625 10.1000375,1.6498875 L3.8376625,1.4170125 C2.547475,1.3690125 1.45285,2.2296375 1.3972875,3.3351375 L1.296225,5.3275125 C1.28135,5.6196375 0.9930375,5.8461375 0.652225,5.8333875 C0.5782875,5.8303875 0.506975,5.8165125 0.4417875,5.7932625" id="Fill-74"></path>
                    </g>
                    <g id="Group-79" transform="translate(106.000000, 21.000000)">
                        <mask id="mask-25" fill="white">
                            <use xlink:href="#path-24"></use>
                        </mask>
                        <g id="Clip-78"></g>
                        <path d="M0.58625,3.384 L0.309166667,6.2864 C0.167083333,7.7744 1.35,9.074 2.90541667,9.1384 L2.90541667,9.1384 L70.5875,11.9552 C73.1858333,12.0632 75.25875,9.8968 74.92625,7.4208 L74.92625,7.4208 L74.8841667,7.1088 C74.58125,4.848 72.6270833,3.1248 70.255,3.0264 L70.255,3.0264 L4.28375,0.2832 C4.23125,0.2808 4.17916667,0.28 4.12708333,0.28 L4.12708333,0.28 C2.29791667,0.28 0.754583333,1.6192 0.58625,3.384" id="Fill-77" fill="#F7941D" mask="url(#mask-25)"></path>
                    </g>
                    <g id="Group-82" transform="translate(0.000000, 72.000000)">
                        <mask id="mask-27" fill="white">
                            <use xlink:href="#path-26"></use>
                        </mask>
                        <g id="Clip-81"></g>
                        <path d="M5.72273684,17.6 C2.34682591,18.2117895 0.011562753,21.2008421 0,24.5292632 L0,24.5292632 L0,24.5781053 C0.00206477733,25.1578947 0.0743319838,25.7473684 0.224234818,26.3364211 L0.224234818,26.3364211 L0.39065587,26.9915789 C1.28842105,30.5208421 4.83323077,32.6311579 8.28966802,31.6930526 L8.28966802,31.6930526 L101.924016,6.27578947 L100.617012,0.397052632 L5.72273684,17.6 Z" id="Fill-80" fill="url(#linearGradient-28)" mask="url(#mask-27)"></path>
                    </g>
                    <path d="M191.343964,68.2994519 C187.139068,92.4912629 163.876805,108.610911 139.386294,104.303582 C114.8962,99.9958356 98.4512467,76.8923591 102.656142,52.7005481 C106.860621,28.5087371 130.122885,12.389089 154.613395,16.6964176 C179.103906,21.0041644 195.548443,44.1076409 191.343964,68.2994519" id="Fill-83" fill="#FFFFFF" opacity="0.603448"></path>
                    <g id="Group-87" transform="translate(97.000000, 10.000000)">
                        <mask id="mask-30" fill="white">
                            <use xlink:href="#path-29"></use>
                        </mask>
                        <g id="Clip-86"></g>
                        <path d="M1.05413223,41.2844538 C-3.59586777,68.3260504 14.5896694,94.1504202 41.6731405,98.9651261 L41.6731405,98.9651261 C68.7561983,103.780252 94.4805785,85.762605 99.1301653,58.7210084 L99.1301653,58.7210084 C103.780165,31.6794118 85.5946281,5.85462185 58.5115702,1.03991597 L58.5115702,1.03991597 C55.5595041,0.51512605 52.6210744,0.261344538 49.7268595,0.261344538 L49.7268595,0.261344538 C26.068595,0.261344538 5.19710744,17.1907563 1.05413223,41.2844538 M42.9095041,91.7726891 C19.8053719,87.6651261 4.29090909,65.6340336 8.25743802,42.5651261 L8.25743802,42.5651261 C12.2243802,19.4957983 34.1702479,4.12436975 57.2752066,8.23235294 L57.2752066,8.23235294 C80.3793388,12.339916 95.8938017,34.3710084 91.9268595,57.439916 L91.9268595,57.439916 C88.392562,77.9932773 70.585124,92.4357143 50.403719,92.4369748 L50.403719,92.4369748 C47.9330579,92.4369748 45.4293388,92.2205882 42.9095041,91.7726891" id="Fill-85" fill="url(#linearGradient-31)" mask="url(#mask-30)"></path>
                    </g>
                    <g id="Group-90" transform="translate(100.000000, 14.000000)">
                        <mask id="mask-33" fill="white">
                            <use xlink:href="#path-32"></use>
                        </mask>
                        <g id="Clip-89"></g>
                        <path d="M27.5310842,4.21901887 C19.1308895,7.96607547 12.1256684,13.9940755 7.27257368,21.6521509 L7.27257368,21.6521509 C5.55910526,24.3564906 4.13211579,27.2501132 3.03235263,30.2524906 L3.03235263,30.2524906 C2.99950526,30.3429811 3.04316316,30.4421887 3.13047895,30.4795472 L3.13047895,30.4795472 C3.13380526,30.4812075 3.13671579,30.4824528 3.13962632,30.483283 L3.13962632,30.483283 C3.23359474,30.5177358 3.33712632,30.4695849 3.37163684,30.3761887 L3.37163684,30.3761887 C4.46225263,27.3978868 5.8776,24.5275094 7.57776316,21.8447547 L7.57776316,21.8447547 C17.5953789,6.03630189 36.1844947,-2.06343396 54.9353526,1.20916981 L54.9353526,1.20916981 C63.6798211,2.73588679 71.7552842,6.64441509 78.2885842,12.5126038 L78.2885842,12.5126038 C78.3621789,12.5798491 78.4765211,12.5732075 78.5430474,12.4989057 L78.5430474,12.4989057 C78.6099895,12.4250189 78.6037526,12.311283 78.5297421,12.2448679 L78.5297421,12.2448679 C71.9457158,6.33101887 63.8083,2.39260377 54.9977211,0.854264151 L54.9977211,0.854264151 C52.2418684,0.373584906 49.4764526,0.134490566 46.7243421,0.134490566 L46.7243421,0.134490566 C40.1203579,0.13490566 33.6016105,1.5109434 27.5310842,4.21901887 M0.614121053,40.2633208 C0.469426316,41.4235094 0.368805263,42.6040377 0.314336842,43.7725283 L0.314336842,43.7725283 C0.311010526,43.8497358 0.356331579,43.9173962 0.423273684,43.9464528 L0.423273684,43.9464528 C0.442815789,43.9547547 0.464436842,43.9597358 0.486473684,43.9609811 L0.486473684,43.9609811 C0.585847368,43.9655472 0.669836842,43.8887547 0.674826316,43.7891321 L0.674826316,43.7891321 C0.728463158,42.6301887 0.828252632,41.4592075 0.972115789,40.3077358 L0.972115789,40.3077358 C0.984173684,40.2093585 0.914736842,40.1188679 0.815363158,40.1068302 L0.815363158,40.1068302 C0.807878947,40.1055849 0.800394737,40.1051698 0.793326316,40.1051698 L0.793326316,40.1051698 C0.703515789,40.1051698 0.625347368,40.172 0.614121053,40.2633208" id="Fill-88" fill="#FFFFFF" mask="url(#mask-33)"></path>
                    </g>
                    <g id="Group-93" transform="translate(29.000000, 127.000000)">
                        <mask id="mask-35" fill="white">
                            <use xlink:href="#path-34"></use>
                        </mask>
                        <g id="Clip-92"></g>
                        <path d="M7.92940909,2.74925749 L10.4273182,21.6717844 C10.4273182,21.6717844 6.68004545,25.4564551 5.43109091,30.5021317 L5.43109091,30.5021317 C4.18172727,35.5482216 3.03054545,56.7353533 3.03054545,56.7353533 L3.03054545,56.7353533 L0.659454545,58.1831138 L0.371045455,59.3916467 L7.26954545,68.7591198 L6.12531818,61.3034012 C5.94368182,60.1196587 6.25827273,57.7199461 6.15886364,57.6695389 L6.15886364,57.6695389 C9.90654545,47.5773593 17.9218636,19.1485329 17.9218636,19.1485329 L17.9218636,19.1485329 L17.9218636,0.226419162 L7.92940909,2.74925749 Z" id="Fill-91" fill="#F9A67A" mask="url(#mask-35)"></path>
                    </g>
                    <g id="Group-96" transform="translate(40.000000, 109.000000)">
                        <mask id="mask-37" fill="white">
                            <use xlink:href="#path-36"></use>
                        </mask>
                        <g id="Clip-95"></g>
                        <path d="M0.188076923,11.7949194 L6.05961538,33.4425024 C2.03576923,39.9870332 6.71615385,78.3145782 6.615,78.2978957 L6.615,78.2978957 L6.62153846,78.3829763 L5.08923077,80.6676398 L5.27615385,81.9058957 L14.635,87.8944834 L10.9523077,81.4100095 C10.3676923,80.3807014 10.0453846,79.213763 9.97923077,78.015128 L9.97923077,78.015128 C9.93807692,78.0142938 9.89730769,78.015545 9.85653846,78.0167962 L9.85653846,78.0167962 C9.79615385,78.0180474 9.73615385,78.0197156 9.675,78.015128 L9.675,78.015128 C10.1292308,71.8738957 12.2038462,44.846218 14.2796154,34.7157915 L14.2796154,34.7157915 C16.6284615,23.2553555 10.7569231,0.334900474 10.7569231,0.334900474 L10.7569231,0.334900474 L0.188076923,11.7949194 Z" id="Fill-94" fill="#FFB48D" mask="url(#mask-37)"></path>
                    </g>
                    <g id="Group-99" transform="translate(27.000000, 59.000000)">
                        <mask id="mask-39" fill="white">
                            <use xlink:href="#path-38"></use>
                        </mask>
                        <g id="Clip-98"></g>
                        <path d="M9.6152,46.6850175 L11.7956,44.6813333 C11.7956,44.6813333 1.1704,31.7711754 11.7956,15.9663947 L11.7956,15.9663947 L9.6152,0.385070175 C9.6152,0.385070175 -11.7856,30.9919649 9.6152,46.6850175" id="Fill-97" fill="#FFB48D" mask="url(#mask-39)"></path>
                    </g>
                    <g id="Group-102" transform="translate(44.000000, 189.000000)">
                        <mask id="mask-41" fill="white">
                            <use xlink:href="#path-40"></use>
                        </mask>
                        <g id="Clip-101"></g>
                        <path d="M0.178225806,3.68863636 L1.13980645,9.09090909 L1.89841935,9.09090909 C1.89841935,9.09090909 1.72522581,4.74318182 3.07890323,4.82462121 L3.07890323,4.82462121 C4.08493548,4.88560606 6.18841935,7.21022727 7.20325806,8.40151515 L7.20325806,8.40151515 C7.57480645,8.83787879 8.15016129,9.09090909 8.75948387,9.09090909 L8.75948387,9.09090909 L12.0161935,9.09090909 C13.0603871,9.09090909 13.2038065,7.71628788 12.1763871,7.54848485 L12.1763871,7.54848485 C11.4836129,7.43560606 10.8529032,7.51704545 10.8529032,7.51704545 L10.8529032,7.51704545 C10.8529032,7.51704545 5.70154839,4.24204545 4.02370968,3.32765152 L4.02370968,3.32765152 C2.34545161,2.41325758 2.0363871,0.345454545 2.0363871,0.345454545 L2.0363871,0.345454545 C0.684806452,0.982575758 -0.0633225806,2.32878788 0.178225806,3.68863636" id="Fill-100" fill="url(#linearGradient-42)" mask="url(#mask-41)"></path>
                    </g>
                    <g id="Group-105" transform="translate(26.000000, 184.000000)">
                        <mask id="mask-44" fill="white">
                            <use xlink:href="#path-43"></use>
                        </mask>
                        <g id="Clip-104"></g>
                        <path d="M1.66414286,3.072125 L0.199714286,9.2124375 L0.914571429,9.5195625 C0.914571429,9.5195625 2.65885714,4.8208125 3.89871429,5.455625 L3.89871429,5.455625 C4.81928571,5.92725 5.78057143,9.253125 6.21428571,10.93225 L6.21428571,10.93225 C6.37285714,11.5469375 6.80357143,12.04875 7.37785714,12.2955 L7.37785714,12.2955 L10.4455714,13.612375 C11.4291429,14.0354375 12.1671429,12.6301875 11.2727143,12.035625 L11.2727143,12.035625 C10.6701429,11.6353125 10.0401429,11.4664375 10.0401429,11.4664375 L10.0401429,11.4664375 C10.0401429,11.4664375 6.62485714,5.89575 5.445,4.24375 L5.445,4.24375 C4.26557143,2.5913125 4.881,0.2646875 4.881,0.2646875 L4.881,0.2646875 C3.32871429,0.396375 2.03271429,1.526875 1.66414286,3.072125" id="Fill-103" fill="url(#linearGradient-45)" mask="url(#mask-44)"></path>
                    </g>
                    <g id="Group-108" transform="translate(33.000000, 89.000000)">
                        <mask id="mask-47" fill="white">
                            <use xlink:href="#path-46"></use>
                        </mask>
                        <g id="Clip-107"></g>
                        <path d="M0.35625,14.8734727 C-0.974583333,23.3098727 4.4875,45.4998545 4.4875,45.4998545 L4.4875,45.4998545 C17.42875,46.3245091 24.8779167,44.5827818 24.8779167,44.5827818 L24.8779167,44.5827818 C25.41125,30.3700364 22.79125,15.5153818 22.2429167,9.18870909 L22.2429167,9.18870909 C21.6945833,2.86203636 22.06875,0.560363636 22.06875,0.560363636 L22.06875,0.560363636 L8.90416667,0.385563636 C8.90416667,0.385563636 1.68666667,6.43790909 0.35625,14.8734727" id="Fill-106" fill="#167BBD" mask="url(#mask-47)"></path>
                    </g>
                    <g id="Group-111" transform="translate(41.000000, 42.000000)">
                        <mask id="mask-49" fill="white">
                            <use xlink:href="#path-48"></use>
                        </mask>
                        <g id="Clip-110"></g>
                        <polygon id="Fill-109" fill="#FFB48D" mask="url(#mask-49)" points="0.068952381 15.9736 7.97714286 15.9736 7.14514286 5.6956 2.03504762 0.2856"></polygon>
                    </g>
                    <g id="Group-114" transform="translate(35.000000, 55.000000)">
                        <mask id="mask-51" fill="white">
                            <use xlink:href="#path-50"></use>
                        </mask>
                        <g id="Clip-113"></g>
                        <path d="M3.03060345,0.581927711 C2.02456897,0.636325301 1.17068966,1.31692771 0.909051724,2.26951807 L0.909051724,2.26951807 C-2.45387931,14.5321687 5.76293103,33.7020482 5.76293103,33.7020482 L5.76293103,33.7020482 C15.1193966,36.3839759 19.3814655,33.8783133 19.3814655,33.8783133 L19.3814655,33.8783133 L24.1737069,16.6692771 C24.7452586,14.6160843 24.812069,12.4595783 24.3672414,10.3760241 L24.3672414,10.3760241 L23.174569,4.78277108 C22.6474138,2.31253012 20.4900862,0.505180723 17.9150862,0.36813253 L17.9150862,0.36813253 C16.5594828,0.29560241 15.0491379,0.266927711 13.5081897,0.266927711 L13.5081897,0.266927711 C9.48965517,0.266927711 5.26293103,0.461746988 3.03060345,0.581927711" id="Fill-112" fill="#F7941D" mask="url(#mask-51)"></path>
                    </g>
                    <g id="Group-117" transform="translate(50.000000, 58.000000)">
                        <mask id="mask-53" fill="white">
                            <use xlink:href="#path-52"></use>
                        </mask>
                        <g id="Clip-116"></g>
                        <path d="M3.25585366,0.142928571 C1.30310976,0.306157143 -0.143414634,1.9749 0.0247560976,3.86984286 L0.0247560976,3.86984286 C0.376036585,7.82668571 1.20792683,11.5519429 2.43634146,15.3426571 L2.43634146,15.3426571 C3.04243902,17.2334571 3.78939024,19.1122429 4.74591463,21.0076 L4.74591463,21.0076 C5.22310976,21.9571429 5.75408537,22.9253286 6.42420732,23.8918571 L6.42420732,23.8918571 C7.09603659,24.8592143 7.85878049,25.8667571 9.08676829,26.8821714 L9.08676829,26.8821714 C9.41926829,27.1398571 9.76243902,27.3921571 10.1389024,27.6324429 L10.1389024,27.6324429 C10.5917683,27.8772857 10.952439,28.1126 11.5103049,28.3069 L11.5103049,28.3069 C11.7770732,28.4038429 12.0476829,28.4929143 12.3195732,28.5716286 L12.3195732,28.5716286 C12.5748171,28.6399857 12.7306098,28.6441286 12.9414634,28.6797571 L12.9414634,28.6797571 C13.3371341,28.7356857 13.7345122,28.7833286 14.1293293,28.8210286 L14.1293293,28.8210286 C14.8737195,28.8628714 15.4921951,28.8040429 16.1729878,28.7812571 L16.1729878,28.7812571 C16.7803659,28.7021286 17.3629878,28.6014571 17.9537195,28.5061714 L17.9537195,28.5061714 C20.1996951,28.0334714 22.1494512,27.2985286 24.0368902,26.4997857 L24.0368902,26.4997857 C24.9746341,26.0846714 25.8769512,25.6364143 26.777561,25.1906429 L26.777561,25.1906429 C27.6598171,24.7142143 28.5284146,24.2174857 29.3816463,23.7108143 L29.3816463,23.7108143 C31.0770122,22.6577 32.7121951,21.5751714 34.2539024,20.2577429 L34.2539024,20.2577429 C34.5962195,19.9631857 34.7780488,19.5058143 34.6884146,19.0372571 L34.6884146,19.0372571 C34.5526829,18.3267571 33.8496951,17.8577857 33.1176829,17.9895286 L33.1176829,17.9895286 L33.0886585,17.9949143 C29.2638415,18.6834571 25.5389024,19.5936429 21.9565244,20.242 L21.9565244,20.242 C20.180061,20.5771571 18.4095732,20.8447857 16.8460976,20.9230857 L16.8460976,20.9230857 L15.755122,20.9288857 C15.4764024,20.8833143 14.5659756,20.7420429 14.5937195,20.7387286 L14.5937195,20.7387286 C14.6393902,20.7366571 14.7772561,20.7101429 14.7362805,20.6757571 L14.7362805,20.6757571 C14.5267073,20.4433429 14.125061,19.9391571 13.7686585,19.3326429 L13.7686585,19.3326429 C13.4122561,18.7199143 13.0238415,18.0442143 12.6708537,17.3088571 L12.6708537,17.3088571 C11.9717073,15.8319286 11.3186585,14.2240857 10.6745732,12.5835143 L10.6745732,12.5835143 C9.40817073,9.30651429 8.22926829,5.80745714 6.92445122,2.47038571 L6.92445122,2.47038571 L6.87707317,2.34858571 C6.36359756,1.03654286 5.05493902,0.130085714 3.56487805,0.130085714 L3.56487805,0.130085714 C3.46243902,0.130085714 3.35957317,0.134228571 3.25585366,0.142928571" id="Fill-115" fill="#FFB48D" mask="url(#mask-53)"></path>
                    </g>
                    <g id="Group-120" transform="translate(82.000000, 72.000000)">
                        <mask id="mask-55" fill="white">
                            <use xlink:href="#path-54"></use>
                        </mask>
                        <g id="Clip-119"></g>
                        <path d="M1.7624,2.23494444 L0.28,5.65483333 C0.2024,7.931 6.8316,6.44972222 7.4552,4.97077778 L7.4552,4.97077778 C8.0792,3.49261111 6.9096,2.23494444 6.9096,2.23494444 L6.9096,2.23494444 C10.1852,1.65977778 9.5612,0.345722222 9.5612,0.345722222 L9.5612,0.345722222 L1.7624,2.23494444 Z" id="Fill-118" fill="#FFB48D" mask="url(#mask-55)"></path>
                    </g>
                    <g id="Group-123" transform="translate(42.000000, 34.000000)">
                        <mask id="mask-57" fill="white">
                            <use xlink:href="#path-56"></use>
                        </mask>
                        <g id="Clip-122"></g>
                        <path d="M0.575142857,8.17657895 C2.31128571,13.1060526 8.71671429,16.9247368 10.8141429,13.5153947 L10.8141429,13.5153947 C12.9115714,10.1064474 10.4087143,1.97526316 10.0911429,1.80276316 L10.0911429,1.80276316 C7.968,0.649736842 6.20314286,0.166184211 4.77642857,0.166184211 L4.77642857,0.166184211 C0.515142857,0.166973684 -0.724714286,4.48342105 0.575142857,8.17657895" id="Fill-121" fill="#FFB48D" mask="url(#mask-57)"></path>
                    </g>
                    <g id="Group-126" transform="translate(0.000000, 29.000000)">
                        <mask id="mask-59" fill="white">
                            <use xlink:href="#path-58"></use>
                        </mask>
                        <g id="Clip-125"></g>
                        <path d="M43.6945833,0.43270073 C34.77375,1.90762774 36.7929167,10.566219 36.1708333,13.6109343 L36.1708333,13.6109343 C34.77375,20.4442774 30.1454167,18.5745109 26.8675,21.6146496 L26.8675,21.6146496 C24.1766667,24.1105839 20.8991667,24.0386058 17.3591667,23.9670438 L17.3591667,23.9670438 C13.9104167,23.897562 10.2129167,23.8276642 6.56666667,26.1317956 L6.56666667,26.1317956 C1.2325,29.5027007 -1.3375,38.1271752 1.2225,45.0903285 L1.2225,45.0903285 C4.76791667,54.734562 16.8833333,58.7004307 23.1616667,55.7630584 L23.1616667,55.7630584 C29.1620833,52.9559124 28.3075,44.5477883 36.38125,41.2983723 L36.38125,41.2983723 C39.8091667,39.9187226 41.5016667,40.8153285 43.5541667,38.7708175 L43.5541667,38.7708175 C47.1475,35.1918832 46.1779167,28.2462044 45.8041667,25.5701168 L45.8041667,25.5701168 C44.9941667,19.7640219 43.0441667,18.7130584 43.9758333,16.1613723 L43.9758333,16.1613723 C45.7883333,11.1982117 54.24125,12.2221314 54.9458333,8.71850365 L54.9458333,8.71850365 C55.5408333,5.75658394 50.30375,0.332014599 44.9375,0.332014599 L44.9375,0.332014599 C44.5229167,0.332014599 44.1083333,0.364051095 43.6945833,0.43270073" id="Fill-124" fill="#4A2009" mask="url(#mask-59)"></path>
                    </g>
                </g>
            </g>
        </g>
    </g>
</svg>