<?xml version="1.0" encoding="UTF-8"?>
<svg width="250px" height="222px" viewBox="0 0 250 222" version="1.1" xmlns="http://www.w3.org/2000/svg" xmlns:xlink="http://www.w3.org/1999/xlink">
    <title>461D11C7-6023-4F47-875E-0BFFD352008E@1x</title>
    <defs>
        <linearGradient x1="50%" y1="0%" x2="50%" y2="148.559671%" id="linearGradient-1">
            <stop stop-color="#C9E8FF" stop-opacity="0.4" offset="0%"></stop>
            <stop stop-color="#0395FF" stop-opacity="0.8" offset="100%"></stop>
        </linearGradient>
        <linearGradient x1="50%" y1="0%" x2="50%" y2="149.915601%" id="linearGradient-2">
            <stop stop-color="#C9E8FF" stop-opacity="0.7" offset="0%"></stop>
            <stop stop-color="#0395FF" stop-opacity="0.3" offset="100%"></stop>
        </linearGradient>
        <polygon id="path-3" points="0 0.35827051 123.39536 0.35827051 123.39536 92.4883656 0 92.4883656"></polygon>
        <linearGradient x1="50%" y1="-2.48949813e-15%" x2="50%" y2="100%" id="linearGradient-5">
            <stop stop-color="#57C6F2" offset="0%"></stop>
            <stop stop-color="#2C94E0" offset="100%"></stop>
        </linearGradient>
        <path d="M107.835021,0.0681568627 L4.87545205,5.63417157 C2.0590274,5.78675 -0.0687123288,8.2237451 0.180369863,11.0096569 L0.180369863,11.0096569 L5.82571233,74.1081961 C6.07128082,76.848799 8.52423288,78.8640735 11.2848288,78.5918333 L11.2848288,78.5918333 L109.275247,68.9387304 C111.847274,68.6854657 113.797767,66.5249706 113.76843,63.9613431 L113.76843,63.9613431 L113.091904,4.95066667 C113.060671,2.2274902 110.822836,0.0607990196 108.111041,0.0607990196 L108.111041,0.0607990196 C108.019685,0.0607990196 107.927548,0.0635098039 107.835021,0.0681568627" id="path-6"></path>
        <linearGradient x1="-6.39046862e-05%" y1="50.0002709%" x2="100.00006%" y2="50.0002709%" id="linearGradient-8">
            <stop stop-color="#E9F9FF" offset="0%"></stop>
            <stop stop-color="#E8EFFD" offset="100%"></stop>
        </linearGradient>
        <linearGradient x1="50%" y1="-2.48949813e-15%" x2="50%" y2="100%" id="linearGradient-9">
            <stop stop-color="#57C6F2" offset="0%"></stop>
            <stop stop-color="#2C94E0" offset="100%"></stop>
        </linearGradient>
        <path d="M0.165512072,6.11089286 L1.67034604,79.0784598 C1.73603812,82.2477455 4.40751613,84.7544866 7.61490323,84.6569643 L7.61490323,84.6569643 L121.489246,81.1886607 C124.478044,81.0972098 126.900968,78.7657812 127.070768,75.8165848 L127.070768,75.8165848 L130.978487,7.93497768 C131.164806,4.69700893 128.581686,1.95879464 125.298619,1.91439732 L125.298619,1.91439732 L6.01293842,0.2975 C5.98604692,0.2975 5.95953959,0.2975 5.93264809,0.2975 L5.93264809,0.2975 C2.70720528,0.2975 0.101035191,2.91580357 0.165512072,6.11089286" id="path-10"></path>
        <linearGradient x1="4.89908754e-05%" y1="49.9999762%" x2="100.000057%" y2="49.9999762%" id="linearGradient-12">
            <stop stop-color="#E9F9FF" offset="0%"></stop>
            <stop stop-color="#E8EFFD" offset="100%"></stop>
        </linearGradient>
        <polygon id="path-13" points="0.0315058605 0.264019293 161.483231 0.264019293 161.483231 111.205653 0.0315058605 111.205653"></polygon>
        <linearGradient x1="50%" y1="-2.48949813e-15%" x2="50%" y2="100%" id="linearGradient-15">
            <stop stop-color="#57C6F2" offset="0%"></stop>
            <stop stop-color="#2C94E0" offset="100%"></stop>
        </linearGradient>
        <path d="M0.278873351,6.62851613 L0.278873351,87.4855726 C0.278873351,90.9976855 3.21266755,93.8347419 6.80621636,93.7983292 L6.80621636,93.7983292 L134.382047,92.4918306 C137.730467,92.4577177 140.496317,89.9284355 140.754245,86.6661048 L140.754245,86.6661048 L146.695528,11.562 C146.979055,7.97976613 144.149984,4.8891371 140.475372,4.76670968 L140.475372,4.76670968 L6.95864644,0.319903226 C6.88340106,0.317629032 6.80854354,0.316112903 6.73407388,0.316112903 L6.73407388,0.316112903 C3.1839657,0.316112903 0.278873351,3.13156452 0.278873351,6.62851613" id="path-16"></path>
        <filter id="filter-18">
            <feColorMatrix in="SourceGraphic" type="matrix" values="0 0 0 0 0.549020 0 0 0 0 0.807843 0 0 0 0 1.000000 0 0 0 1.000000 0"></feColorMatrix>
        </filter>
        <path d="M4.31433333,2.7624 C4.61533333,2.0502 4.80166667,1.3791 4.90933333,0.7821 L4.90933333,0.7821 L0.146666667,0.1077 L4.31433333,2.7624 Z" id="path-19"></path>
        <linearGradient x1="-359.042664%" y1="-226.931889%" x2="91.6441139%" y2="65.4264505%" id="linearGradient-21">
            <stop stop-color="#3F42E2" offset="0%"></stop>
            <stop stop-color="#4F52FF" offset="100%"></stop>
        </linearGradient>
        <path d="M6.98846154,0.459 C2.9070989,4.51 0.385186813,10.0975 0.385186813,16.269 L0.385186813,16.269 C0.385186813,28.6395 10.5233846,38.6675 23.0303297,38.6675 L23.0303297,38.6675 C35.5367692,38.6675 45.6754725,28.6395 45.6754725,16.269 L45.6754725,16.269 C45.6754725,10.0975 43.1530549,4.51 39.0721978,0.459 L39.0721978,0.459 L6.98846154,0.459 Z M10.1285934,16.269 C10.1285934,9.221 15.9048791,3.507 23.0303297,3.507 L23.0303297,3.507 C30.1557802,3.507 35.9310549,9.221 35.9310549,16.269 L35.9310549,16.269 C35.9310549,23.316 30.1557802,29.03 23.0303297,29.03 L23.0303297,29.03 C15.9048791,29.03 10.1285934,23.316 10.1285934,16.269 L10.1285934,16.269 Z" id="path-22"></path>
        <filter id="filter-24">
            <feColorMatrix in="SourceGraphic" type="matrix" values="0 0 0 0 0.196078 0 0 0 0 0.607843 0 0 0 0 0.886275 0 0 0 1.000000 0"></feColorMatrix>
        </filter>
        <polygon id="path-25" points="0.173029323 0.107983405 32.831622 0.107983405 32.831622 23.4046347 0.173029323 23.4046347"></polygon>
        <path d="M16.5416296,0.263544974 L15.2051958,3.15426455 C13.6865291,3.35142857 12.2353228,3.79612698 10.8983492,4.44932275 L10.8983492,4.44932275 L8.18878307,2.77198942 C8.09397884,2.71334392 7.97201058,2.72125926 7.88530159,2.79177778 L7.88530159,2.79177778 L4.9238836,5.20847619 C4.8373545,5.2791746 4.80515344,5.3968254 4.84365079,5.5017037 L4.84365079,5.5017037 L5.94352381,8.49262434 C5.03559788,9.67183069 4.3088254,11.004127 3.8110582,12.452455 L3.8110582,12.452455 L0.710941799,13.1819259 C0.602465608,13.2074709 0.521693122,13.2992169 0.510359788,13.4105714 L0.510359788,13.4105714 L0.125206349,17.2135344 C0.113873016,17.3245291 0.174497354,17.4304868 0.275777778,17.4774392 L0.275777778,17.4774392 L3.16667725,18.8136931 C3.36384127,20.3323598 3.80853968,21.7835661 4.46173545,23.1207196 L4.46173545,23.1207196 L2.78458201,25.8302857 C2.72557672,25.9252698 2.73349206,26.0470582 2.80419048,26.1335873 L2.80419048,26.1335873 L5.22088889,29.0951852 C5.29140741,29.1817143 5.40941799,29.2139153 5.5141164,29.175418 L5.5141164,29.175418 L8.50521693,28.075545 C9.68406349,28.9836508 11.0163598,29.7102434 12.4648677,30.2080106 L12.4648677,30.2080106 L13.1941587,33.3079471 C13.2198836,33.4167831 13.3116296,33.4973757 13.4228042,33.5085291 L13.4228042,33.5085291 L17.2257672,33.8938624 C17.3369418,33.9050159 17.4428995,33.8443915 17.489672,33.7431111 L17.489672,33.7431111 L18.8262857,30.8523915 C20.3449524,30.6552275 21.7959788,30.2105291 23.1331323,29.5573333 L23.1331323,29.5573333 L25.8426984,31.2346667 C25.9375026,31.2934921 26.0594709,31.2855767 26.1461799,31.2150582 L26.1461799,31.2150582 L29.107418,28.798 C29.194127,28.7274815 29.226328,28.6098307 29.1878307,28.5047725 L29.1878307,28.5047725 L28.0877778,25.5140317 C28.9958836,24.3350053 29.7226561,23.002709 30.2202434,21.5542011 L30.2202434,21.5542011 L33.3203598,20.8247302 C33.4291958,20.7991852 33.5096085,20.7074392 33.5209418,20.5962646 L33.5209418,20.5962646 L33.9062751,16.7933016 C33.9174286,16.682127 33.8569841,16.5759894 33.7555238,16.5292169 L33.7555238,16.5292169 L30.8646243,15.192963 C30.6676402,13.6741164 30.2229418,12.2232698 29.569746,10.8861164 L29.569746,10.8861164 L31.2470794,8.17619048 C31.3059048,8.08138624 31.2979894,7.95959788 31.227291,7.87306878 L31.227291,7.87306878 L28.8104127,4.9114709 C28.7398942,4.8247619 28.6220635,4.79274074 28.5171852,4.8312381 L28.5171852,4.8312381 L25.5262646,5.93111111 C24.347418,5.02300529 23.0149418,4.29659259 21.5666138,3.7986455 L21.5666138,3.7986455 L20.8371429,0.698708995 C20.811418,0.589873016 20.7198519,0.509460317 20.6088571,0.498126984 L20.6088571,0.498126984 L16.8057143,0.112973545 C16.7967196,0.112074074 16.7879048,0.111534392 16.7790899,0.111534392 L16.7790899,0.111534392 C16.6778095,0.111534392 16.5848042,0.170179894 16.5416296,0.263544974" id="path-27"></path>
        <linearGradient x1="50%" y1="100%" x2="50%" y2="3.061617e-15%" id="linearGradient-29">
            <stop stop-color="#57C6F2" offset="0%"></stop>
            <stop stop-color="#2C94E0" offset="100%"></stop>
        </linearGradient>
        <path d="M16.5416296,0.263544974 L15.2051958,3.15426455 C13.6865291,3.35142857 12.2353228,3.79612698 10.8983492,4.44932275 L10.8983492,4.44932275 L8.18878307,2.77198942 C8.09397884,2.71334392 7.97201058,2.72125926 7.88530159,2.79177778 L7.88530159,2.79177778 L4.9238836,5.20847619 C4.8373545,5.2791746 4.80515344,5.3968254 4.84365079,5.5017037 L4.84365079,5.5017037 L5.94352381,8.49262434 C5.03559788,9.67183069 4.3088254,11.004127 3.8110582,12.452455 L3.8110582,12.452455 L0.710941799,13.1819259 C0.602465608,13.2074709 0.521693122,13.2992169 0.510359788,13.4105714 L0.510359788,13.4105714 L0.125206349,17.2135344 C0.113873016,17.3245291 0.174497354,17.4304868 0.275777778,17.4774392 L0.275777778,17.4774392 L3.16667725,18.8136931 C3.36384127,20.3323598 3.80853968,21.7835661 4.46173545,23.1207196 L4.46173545,23.1207196 L2.78458201,25.8302857 C2.72557672,25.9252698 2.73349206,26.0470582 2.80419048,26.1335873 L2.80419048,26.1335873 L5.22088889,29.0951852 C5.29140741,29.1817143 5.40941799,29.2139153 5.5141164,29.175418 L5.5141164,29.175418 L8.50521693,28.075545 C9.68406349,28.9836508 11.0163598,29.7102434 12.4648677,30.2080106 L12.4648677,30.2080106 L13.1941587,33.3079471 C13.2198836,33.4167831 13.3116296,33.4973757 13.4228042,33.5085291 L13.4228042,33.5085291 L17.2257672,33.8938624 C17.3369418,33.9050159 17.4428995,33.8443915 17.489672,33.7431111 L17.489672,33.7431111 L18.8262857,30.8523915 C20.3449524,30.6552275 21.7959788,30.2105291 23.1331323,29.5573333 L23.1331323,29.5573333 L25.8426984,31.2346667 C25.9375026,31.2934921 26.0594709,31.2855767 26.1461799,31.2150582 L26.1461799,31.2150582 L29.107418,28.798 C29.194127,28.7274815 29.226328,28.6098307 29.1878307,28.5047725 L29.1878307,28.5047725 L28.0877778,25.5140317 C28.9958836,24.3350053 29.7226561,23.002709 30.2202434,21.5542011 L30.2202434,21.5542011 L33.3203598,20.8247302 C33.4291958,20.7991852 33.5096085,20.7074392 33.5209418,20.5962646 L33.5209418,20.5962646 L33.9062751,16.7933016 C33.9174286,16.682127 33.8569841,16.5759894 33.7555238,16.5292169 L33.7555238,16.5292169 L30.8646243,15.192963 C30.6676402,13.6741164 30.2229418,12.2232698 29.569746,10.8861164 L29.569746,10.8861164 L31.2470794,8.17619048 C31.3059048,8.08138624 31.2979894,7.95959788 31.227291,7.87306878 L31.227291,7.87306878 L28.8104127,4.9114709 C28.7398942,4.8247619 28.6220635,4.79274074 28.5171852,4.8312381 L28.5171852,4.8312381 L25.5262646,5.93111111 C24.347418,5.02300529 23.0149418,4.29659259 21.5666138,3.7986455 L21.5666138,3.7986455 L20.8371429,0.698708995 C20.811418,0.589873016 20.7198519,0.509460317 20.6088571,0.498126984 L20.6088571,0.498126984 L16.8057143,0.112973545 C16.7967196,0.112074074 16.7879048,0.111534392 16.7790899,0.111534392 L16.7790899,0.111534392 C16.6778095,0.111534392 16.5848042,0.170179894 16.5416296,0.263544974" id="path-30"></path>
        <filter id="filter-31">
            <feColorMatrix in="SourceGraphic" type="matrix" values="0 0 0 0 0.196078 0 0 0 0 0.607843 0 0 0 0 0.886275 0 0 0 1.000000 0"></feColorMatrix>
        </filter>
        <polygon id="path-32" points="0.120368225 0.0751188901 22.8393892 0.0751188901 22.8393892 16.281485 0.120368225 16.281485"></polygon>
        <path d="M11.6764444,0.186031746 L10.7330794,2.22653968 C9.66107937,2.36571429 8.63669841,2.67961905 7.69295238,3.14069841 L7.69295238,3.14069841 L5.78031746,1.95669841 C5.71339683,1.91530159 5.62730159,1.92088889 5.56609524,1.97066667 L5.56609524,1.97066667 L3.47568254,3.67657143 C3.41460317,3.72647619 3.39187302,3.80952381 3.41904762,3.88355556 L3.41904762,3.88355556 L4.19542857,5.99479365 C3.55453968,6.8271746 3.04152381,7.76761905 2.69015873,8.78996825 L2.69015873,8.78996825 L0.50184127,9.30488889 C0.425269841,9.32292063 0.368253968,9.38768254 0.360253968,9.46628571 L0.360253968,9.46628571 L0.0883809524,12.1507302 C0.0803809524,12.2290794 0.123174603,12.303873 0.194666667,12.3370159 L0.194666667,12.3370159 L2.23530159,13.280254 C2.37447619,14.352254 2.68838095,15.3766349 3.14946032,16.3205079 L3.14946032,16.3205079 L1.9655873,18.2331429 C1.92393651,18.3001905 1.92952381,18.3861587 1.97942857,18.4472381 L1.97942857,18.4472381 L3.68533333,20.5377778 C3.73511111,20.5988571 3.8184127,20.6215873 3.89231746,20.5944127 L3.89231746,20.5944127 L6.00368254,19.8180317 C6.83580952,20.4590476 7.77625397,20.9719365 8.79873016,21.3233016 L8.79873016,21.3233016 L9.31352381,23.5114921 C9.33168254,23.5883175 9.39644444,23.6452063 9.47492063,23.6530794 L9.47492063,23.6530794 L12.1593651,23.9250794 C12.2378413,23.9329524 12.3126349,23.8901587 12.3456508,23.8186667 L12.3456508,23.8186667 L13.2891429,21.7781587 C14.3611429,21.6389841 15.3853968,21.3250794 16.3292698,20.864 L16.3292698,20.864 L18.2419048,22.048 C18.3088254,22.0895238 18.3949206,22.0839365 18.456127,22.0341587 L18.456127,22.0341587 L20.5464127,20.328 C20.607619,20.2782222 20.6303492,20.1951746 20.6031746,20.1210159 L20.6031746,20.1210159 L19.8266667,18.0099048 C20.4676825,17.1776508 20.9806984,16.2372063 21.3319365,15.2147302 L21.3319365,15.2147302 L23.520254,14.6998095 C23.5970794,14.6817778 23.6538413,14.6170159 23.6618413,14.5385397 L23.6618413,14.5385397 L23.9338413,11.8540952 C23.9417143,11.775619 23.8990476,11.7006984 23.8274286,11.6676825 L23.8274286,11.6676825 L21.7867937,10.7244444 C21.647746,9.65231746 21.3338413,8.62819048 20.8727619,7.68431746 L20.8727619,7.68431746 L22.0567619,5.77142857 C22.0982857,5.70450794 22.0926984,5.61853968 22.0427937,5.55746032 L22.0427937,5.55746032 L20.3367619,3.46692063 C20.2869841,3.40571429 20.2038095,3.38311111 20.1297778,3.41028571 L20.1297778,3.41028571 L18.0185397,4.18666667 C17.1864127,3.54565079 16.2458413,3.03288889 15.2234921,2.68139683 L15.2234921,2.68139683 L14.7085714,0.493206349 C14.6904127,0.416380952 14.6257778,0.359619048 14.5474286,0.351619048 L14.5474286,0.351619048 L11.8628571,0.0797460317 C11.8565079,0.0791111111 11.8502857,0.0787301587 11.8440635,0.0787301587 L11.8440635,0.0787301587 C11.7725714,0.0787301587 11.7069206,0.120126984 11.6764444,0.186031746" id="path-34"></path>
        <linearGradient x1="50%" y1="100%" x2="50%" y2="3.061617e-15%" id="linearGradient-36">
            <stop stop-color="#57C6F2" offset="0%"></stop>
            <stop stop-color="#2C94E0" offset="100%"></stop>
        </linearGradient>
        <path d="M11.6764444,0.186031746 L10.7330794,2.22653968 C9.66107937,2.36571429 8.63669841,2.67961905 7.69295238,3.14069841 L7.69295238,3.14069841 L5.78031746,1.95669841 C5.71339683,1.91530159 5.62730159,1.92088889 5.56609524,1.97066667 L5.56609524,1.97066667 L3.47568254,3.67657143 C3.41460317,3.72647619 3.39187302,3.80952381 3.41904762,3.88355556 L3.41904762,3.88355556 L4.19542857,5.99479365 C3.55453968,6.8271746 3.04152381,7.76761905 2.69015873,8.78996825 L2.69015873,8.78996825 L0.50184127,9.30488889 C0.425269841,9.32292063 0.368253968,9.38768254 0.360253968,9.46628571 L0.360253968,9.46628571 L0.0883809524,12.1507302 C0.0803809524,12.2290794 0.123174603,12.303873 0.194666667,12.3370159 L0.194666667,12.3370159 L2.23530159,13.280254 C2.37447619,14.352254 2.68838095,15.3766349 3.14946032,16.3205079 L3.14946032,16.3205079 L1.9655873,18.2331429 C1.92393651,18.3001905 1.92952381,18.3861587 1.97942857,18.4472381 L1.97942857,18.4472381 L3.68533333,20.5377778 C3.73511111,20.5988571 3.8184127,20.6215873 3.89231746,20.5944127 L3.89231746,20.5944127 L6.00368254,19.8180317 C6.83580952,20.4590476 7.77625397,20.9719365 8.79873016,21.3233016 L8.79873016,21.3233016 L9.31352381,23.5114921 C9.33168254,23.5883175 9.39644444,23.6452063 9.47492063,23.6530794 L9.47492063,23.6530794 L12.1593651,23.9250794 C12.2378413,23.9329524 12.3126349,23.8901587 12.3456508,23.8186667 L12.3456508,23.8186667 L13.2891429,21.7781587 C14.3611429,21.6389841 15.3853968,21.3250794 16.3292698,20.864 L16.3292698,20.864 L18.2419048,22.048 C18.3088254,22.0895238 18.3949206,22.0839365 18.456127,22.0341587 L18.456127,22.0341587 L20.5464127,20.328 C20.607619,20.2782222 20.6303492,20.1951746 20.6031746,20.1210159 L20.6031746,20.1210159 L19.8266667,18.0099048 C20.4676825,17.1776508 20.9806984,16.2372063 21.3319365,15.2147302 L21.3319365,15.2147302 L23.520254,14.6998095 C23.5970794,14.6817778 23.6538413,14.6170159 23.6618413,14.5385397 L23.6618413,14.5385397 L23.9338413,11.8540952 C23.9417143,11.775619 23.8990476,11.7006984 23.8274286,11.6676825 L23.8274286,11.6676825 L21.7867937,10.7244444 C21.647746,9.65231746 21.3338413,8.62819048 20.8727619,7.68431746 L20.8727619,7.68431746 L22.0567619,5.77142857 C22.0982857,5.70450794 22.0926984,5.61853968 22.0427937,5.55746032 L22.0427937,5.55746032 L20.3367619,3.46692063 C20.2869841,3.40571429 20.2038095,3.38311111 20.1297778,3.41028571 L20.1297778,3.41028571 L18.0185397,4.18666667 C17.1864127,3.54565079 16.2458413,3.03288889 15.2234921,2.68139683 L15.2234921,2.68139683 L14.7085714,0.493206349 C14.6904127,0.416380952 14.6257778,0.359619048 14.5474286,0.351619048 L14.5474286,0.351619048 L11.8628571,0.0797460317 C11.8565079,0.0791111111 11.8502857,0.0787301587 11.8440635,0.0787301587 L11.8440635,0.0787301587 C11.7725714,0.0787301587 11.7069206,0.120126984 11.6764444,0.186031746" id="path-37"></path>
    </defs>
    <g id="Comfortable-Themes" stroke="none" stroke-width="1" fill="none" fill-rule="evenodd">
        <g id="Outsourcing-IT-Profesional---alt" transform="translate(-558.000000, -3867.000000)">
            <g id="Group-135" transform="translate(558.000000, 3867.000000)">
                <g id="Group-134">
                    <path d="M119.751712,221.193498 C227.911024,224.306873 299.293257,98.7868949 208.657112,99.8316354 C118.020967,100.876376 168.069133,1.42108547e-14 96.8229295,1.42108547e-14 C25.5767256,1.42108547e-14 0,65.3364845 0,96.8460676 C0,128.355651 11.5924005,218.080122 119.751712,221.193498 Z" id="Oval-Copy-16" fill="url(#linearGradient-1)" opacity="0.2"></path>
                    <circle id="Oval-Copy-17" fill="url(#linearGradient-2)" opacity="0.3" cx="199" cy="44" r="25"></circle>
                </g>
                <g id="Group-133" transform="translate(0.000000, 24.000000)">
                    <g id="Group-104" transform="translate(45.000000, 17.000000)">
                        <g id="Group-13" transform="translate(0.000000, 63.000000)">
                            <mask id="mask-4" fill="white">
                                <use xlink:href="#path-3"></use>
                            </mask>
                            <g id="Clip-12"></g>
                            <path d="M14.8365104,92.4569833 L115.765638,83.5771472 C119.857479,83.2174431 123.001164,79.8306438 123.023913,75.758075 L123.39536,8.29463845 C123.421067,3.70258202 119.502354,0.0589058433 114.881103,0.377708396 L7.40934816,7.79197016 C2.96353876,8.09892274 -0.362142601,11.9631613 0.0315409548,16.3637069 L6.20207763,85.2927178 C6.59074856,89.634778 10.4566363,92.8422986 14.8365104,92.4569833" id="Fill-11" fill="url(#linearGradient-5)" mask="url(#mask-4)"></path>
                        </g>
                        <g id="Group-17" transform="translate(5.000000, 73.000000)">
                            <mask id="mask-7" fill="white">
                                <use xlink:href="#path-6"></use>
                            </mask>
                            <g id="Clip-16"></g>
                            <path d="M107.835021,0.0681568627 L4.87545205,5.63417157 C2.0590274,5.78675 -0.0687123288,8.2237451 0.180369863,11.0096569 L0.180369863,11.0096569 L5.82571233,74.1081961 C6.07128082,76.848799 8.52423288,78.8640735 11.2848288,78.5918333 L11.2848288,78.5918333 L109.275247,68.9387304 C111.847274,68.6854657 113.797767,66.5249706 113.76843,63.9613431 L113.76843,63.9613431 L113.091904,4.95066667 C113.060671,2.2274902 110.822836,0.0607990196 108.111041,0.0607990196 L108.111041,0.0607990196 C108.019685,0.0607990196 107.927548,0.0635098039 107.835021,0.0681568627" id="Fill-15" fill="url(#linearGradient-8)" mask="url(#mask-7)"></path>
                        </g>
                        <g id="Group-26" transform="translate(12.000000, 31.000000)">
                            <path d="M59.3381045,98.3749362 L4.84955952,101.591463 C4.29104101,101.624651 3.86985053,102.115523 3.91933466,102.676245 L3.99682143,103.556497 C4.04477116,104.099852 4.51813095,104.504282 5.05900397,104.463376 L59.4704458,100.366597 C60.0220595,100.324919 60.4332765,99.8375201 60.3845595,99.2829732 C60.3369934,98.745406 59.8736071,98.3432919 59.3381045,98.3749362" id="Fill-18" fill="#A0D7FF"></path>
                            <path d="M60.7889484,103.866572 L60.8219378,104.241673 C60.8702712,104.790817 60.4671098,105.275129 59.92125,105.324139 L5.57693783,110.176136 C5.03107804,110.22476 4.5496627,109.819173 4.50094577,109.270029 L4.46795635,108.894928 C4.41962302,108.345784 4.82278439,107.861471 5.36826058,107.812847 L59.7129563,102.960851 C60.2588161,102.911841 60.7402315,103.317814 60.7889484,103.866572" id="Fill-20" fill="#A0D7FF"></path>
                            <path d="M44.7265542,110.240428 L44.741131,110.40521 C44.7894643,110.954354 44.3863029,111.438666 43.8404431,111.48729 L5.99083995,114.866669 C5.44498016,114.91568 4.96318122,114.509706 4.91484788,113.960948 L4.84656746,113.18682 C4.79746693,112.631502 5.21021825,112.143716 5.7629828,112.103196 L43.6666733,109.333163 C44.2071627,109.2938 44.6786045,109.697844 44.7265542,110.240428" id="Fill-22" fill="#A0D7FF"></path>
                            <path d="M11.2861019,101.039 L129.78294,98.6124228 C134.58712,98.5140168 138.527821,94.7552919 138.881115,89.9349396 L144.73712,10.0720705 C145.135295,4.63581208 140.854726,0.00686912752 135.43679,0.0138076285 L9.42296693,0.180526846 C4.21025529,0.187473154 0.0179140212,4.49727181 0.124170635,9.74019128 L1.78591667,91.8625403 C1.89025529,97.0356107 6.14397222,101.143966 11.2861019,101.039" id="Fill-24" fill="url(#linearGradient-9)"></path>
                        </g>
                        <g id="Group-29" transform="translate(18.000000, 40.000000)">
                            <mask id="mask-11" fill="white">
                                <use xlink:href="#path-10"></use>
                            </mask>
                            <g id="Clip-28"></g>
                            <path d="M0.165512072,6.11089286 L1.67034604,79.0784598 C1.73603812,82.2477455 4.40751613,84.7544866 7.61490323,84.6569643 L7.61490323,84.6569643 L121.489246,81.1886607 C124.478044,81.0972098 126.900968,78.7657812 127.070768,75.8165848 L127.070768,75.8165848 L130.978487,7.93497768 C131.164806,4.69700893 128.581686,1.95879464 125.298619,1.91439732 L125.298619,1.91439732 L6.01293842,0.2975 C5.98604692,0.2975 5.95953959,0.2975 5.93264809,0.2975 L5.93264809,0.2975 C2.70720528,0.2975 0.101035191,2.91580357 0.165512072,6.11089286" id="Fill-27" fill="url(#linearGradient-12)" mask="url(#mask-11)"></path>
                        </g>
                        <g id="Group-39" transform="translate(26.000000, 0.000000)">
                            <path d="M65.9104918,103.906974 L1.31807238,103.29552 C0.655908772,103.289398 0.119614161,103.827003 0.132877804,104.482842 L0.154363272,105.5129 C0.167490714,106.148842 0.693746692,106.656983 1.33544694,106.6528 L65.9066307,106.23417 C66.5618445,106.229578 67.08617,105.695417 67.0732838,105.046848 C67.0603012,104.417794 66.5452422,103.913096 65.9104918,103.906974" id="Fill-30" fill="#8CCEFF"></path>
                            <path d="M67.1830428,110.410305 L67.1921833,110.849189 C67.2054367,111.491636 66.6907637,112.023118 66.0421137,112.036128 L1.48946272,113.33824 C0.840812651,113.351632 0.304904142,112.841195 0.291390599,112.198748 L0.282264629,111.759864 C0.269382829,111.117417 0.78405577,110.585935 1.43270584,110.572925 L65.9853568,109.270813 C66.6336207,109.257803 67.1699154,109.767858 67.1830428,110.410305" id="Fill-32" fill="#8CCEFF"></path>
                            <path d="M47.7079423,116.540718 L47.7120489,116.733184 C47.7249307,117.376014 47.2102578,117.907113 46.5619938,117.920123 L1.60204984,118.827354 C0.953785871,118.840364 0.417491261,118.329927 0.404363819,117.687862 L0.385576408,116.781779 C0.372317417,116.132444 0.898573395,115.597901 1.55417329,115.59484 L46.5287891,115.400833 C47.1697171,115.398165 47.6948148,115.905541 47.7079423,116.540718" id="Fill-34" fill="#8CCEFF"></path>
                            <g id="Group-38" transform="translate(4.247114, 0.000000)">
                                <mask id="mask-14" fill="white">
                                    <use xlink:href="#path-13"></use>
                                </mask>
                                <g id="Clip-37"></g>
                                <path d="M10.4280537,111.205653 L142.746104,111.205653 C148.110594,111.205653 152.594002,107.161566 153.097478,101.868936 L161.436492,14.1885116 C162.004061,8.22052765 157.331464,3.03388778 151.283188,2.91986206 L10.6261236,0.265894212 C4.80757809,0.156077492 0.0315058605,4.80052122 0.0315058605,10.5676209 L0.0315058605,100.902013 C0.0315058605,106.592586 4.6863423,111.205653 10.4280537,111.205653" id="Fill-36" fill="url(#linearGradient-15)" mask="url(#mask-14)"></path>
                            </g>
                        </g>
                        <g id="Group-42" transform="translate(37.000000, 11.000000)">
                            <mask id="mask-17" fill="white">
                                <use xlink:href="#path-16"></use>
                            </mask>
                            <g id="Clip-41"></g>
                            <path d="M0.278873351,6.62851613 L0.278873351,87.4855726 C0.278873351,90.9976855 3.21266755,93.8347419 6.80621636,93.7983292 L6.80621636,93.7983292 L134.382047,92.4918306 C137.730467,92.4577177 140.496317,89.9284355 140.754245,86.6661048 L140.754245,86.6661048 L146.695528,11.562 C146.979055,7.97976613 144.149984,4.8891371 140.475372,4.76670968 L140.475372,4.76670968 L6.95864644,0.319903226 C6.88340106,0.317629032 6.80854354,0.316112903 6.73407388,0.316112903 L6.73407388,0.316112903 C3.1839657,0.316112903 0.278873351,3.13156452 0.278873351,6.62851613" id="Fill-40" fill="#E9F9FF" mask="url(#mask-17)"></path>
                        </g>
                        <g filter="url(#filter-18)" id="Group-67">
                            <g transform="translate(44.000000, 19.000000)">
                                <path d="M72.8440674,2.23318565 L1.58890323,0.0564583732 C0.858222874,0.0340947368 0.254316716,0.63281244 0.254316716,1.37905167 L0.254316716,2.55098469 C0.254316716,3.27446794 0.82326393,3.86416172 1.53204692,3.87397033 L72.7875953,4.87915694 C73.509824,4.88935789 74.1010528,4.29377895 74.1010528,3.55577895 C74.1010528,2.84053493 73.5440147,2.25476459 72.8440674,2.23318565" id="Fill-43" fill="#91B3FA"></path>
                                <path d="M74.1012449,9.657089 L74.1012449,10.1565435 C74.1012449,10.887089 73.5207727,11.4799215 72.8054589,11.4799215 L1.54991056,11.4799215 C0.83421261,11.4799215 0.254124633,10.887089 0.254124633,10.1565435 L0.254124633,9.657089 C0.254124633,8.9261512 0.83421261,8.333711 1.54991056,8.333711 L72.8054589,8.333711 C73.5207727,8.333711 74.1012449,8.9261512 74.1012449,9.657089" id="Fill-45" fill="#91B3FA"></path>
                                <path d="M52.4736059,16.1811502 L52.4736059,16.4004708 C52.4736059,17.1310163 51.8935179,17.7234565 51.1782041,17.7234565 L1.54956481,17.7234565 C0.834251026,17.7234565 0.25416305,17.1310163 0.25416305,16.4004708 L0.25416305,15.3701742 C0.25416305,14.6309971 0.846928446,14.0350258 1.57069384,14.0471885 L51.198949,14.8581646 C51.9061953,14.8695426 52.4736059,15.4584517 52.4736059,16.1811502" id="Fill-47" fill="#91B3FA"></path>
                                <path d="M19.1451314,56.129 C19.2699848,56.129 19.3952223,56.0866268 19.4981783,56.0007033 L40.8884422,38.254177 L61.9740639,54.0268182 C62.2122457,54.2057273 62.5460845,54.1633541 62.7354774,53.9314785 L92.0660317,17.9950766 C95.4017296,20.9819952 117.010583,40.3328182 119.887589,42.9022823 C120.120392,43.1098325 120.474592,43.0858995 120.677815,42.8481388 C120.881422,42.6099856 120.857988,42.2486364 120.6248,42.0410861 C117.506155,39.2554402 92.3729789,16.7478134 92.3729789,16.7478134 C92.2592663,16.6465885 92.1105947,16.5955837 91.9600023,16.6077464 C91.80941,16.6199091 91.6699584,16.6936699 91.573149,16.8121579 L62.2114774,52.7862249 L41.2015361,37.0700813 C40.9960082,36.9162823 40.7144158,36.9237368 40.5173396,37.0877368 L19.158193,54.8087608 L7.72200821,44.601134 C7.48920469,44.3931914 7.13500528,44.4167321 6.93139824,44.6552775 C6.7277912,44.8930383 6.75160938,45.2547799 6.98479707,45.4623301 L18.7763337,55.987756 C18.8815947,56.0815263 19.013363,56.129 19.1451314,56.129" id="Fill-49" fill="#7D97F4"></path>
                                <path d="M91.1897915,25.48611 L91.1897915,24.3416411 C91.1897915,24.1309522 91.633932,23.9602823 92.1822157,23.9602823 C92.7304995,23.9602823 93.17464,24.1309522 93.17464,24.3416411 L93.17464,25.48611 C93.17464,25.696799 92.7304995,25.8674689 92.1822157,25.8674689 C91.633932,25.8674689 91.1897915,25.696799 91.1897915,25.48611 M91.1897915,29.3004833 L91.1897915,28.1560144 C91.1897915,27.9453254 91.633932,27.7746555 92.1822157,27.7746555 C92.7304995,27.7746555 93.17464,27.9453254 93.17464,28.1560144 L93.17464,29.3004833 C93.17464,29.5107799 92.7304995,29.6818421 92.1822157,29.6818421 C91.633932,29.6818421 91.1897915,29.5107799 91.1897915,29.3004833 M91.1897915,33.1144641 L91.1897915,31.9703876 C91.1897915,31.7596986 91.633932,31.5886364 92.1822157,31.5886364 C92.7304995,31.5886364 93.17464,31.7596986 93.17464,31.9703876 L93.17464,33.1144641 C93.17464,33.3251531 92.7304995,33.495823 92.1822157,33.495823 C91.633932,33.495823 91.1897915,33.3251531 91.1897915,33.1144641 M91.1897915,36.9288373 L91.1897915,35.7843684 C91.1897915,35.5736794 91.633932,35.4030096 92.1822157,35.4030096 C92.7304995,35.4030096 93.17464,35.5736794 93.17464,35.7843684 L93.17464,36.9288373 C93.17464,37.1395263 92.7304995,37.3101962 92.1822157,37.3101962 C91.633932,37.3101962 91.1897915,37.1395263 91.1897915,36.9288373 M91.1897915,40.7428182 L91.1897915,39.5987416 C91.1897915,39.3880526 91.633932,39.2173828 92.1822157,39.2173828 C92.7304995,39.2173828 93.17464,39.3880526 93.17464,39.5987416 L93.17464,40.7428182 C93.17464,40.9535072 92.7304995,41.124177 92.1822157,41.124177 C91.633932,41.124177 91.1897915,40.9535072 91.1897915,40.7428182 M91.1897915,44.556799 L91.1897915,43.4127225 C91.1897915,43.2020335 91.633932,43.0313636 92.1822157,43.0313636 C92.7304995,43.0313636 93.17464,43.2020335 93.17464,43.4127225 L93.17464,44.556799 C93.17464,44.7678804 92.7304995,44.9385502 92.1822157,44.9385502 C91.633932,44.9385502 91.1897915,44.7678804 91.1897915,44.556799 M91.1897915,48.3711722 L91.1897915,47.2270957 C91.1897915,47.0164067 91.633932,46.8453445 92.1822157,46.8453445 C92.7304995,46.8453445 93.17464,47.0164067 93.17464,47.2270957 L93.17464,48.3711722 C93.17464,48.5818612 92.7304995,48.7525311 92.1822157,48.7525311 C91.633932,48.7525311 91.1897915,48.5818612 91.1897915,48.3711722 M91.1897915,52.1855455 L91.1897915,51.0410766 C91.1897915,50.8303876 91.633932,50.6597177 92.1822157,50.6597177 C92.7304995,50.6597177 93.17464,50.8303876 93.17464,51.0410766 L93.17464,52.1855455 C93.17464,52.3958421 92.7304995,52.5669043 92.1822157,52.5669043 C91.633932,52.5669043 91.1897915,52.3958421 91.1897915,52.1855455 M91.1897915,55.9995263 L91.1897915,54.8554498 C91.1897915,54.6447608 91.633932,54.4740909 92.1822157,54.4740909 C92.7304995,54.4740909 93.17464,54.6447608 93.17464,54.8554498 L93.17464,55.9995263 C93.17464,56.2102153 92.7304995,56.3812775 92.1822157,56.3812775 C91.633932,56.3812775 91.1897915,56.2102153 91.1897915,55.9995263 M91.1897915,59.8138995 L91.1897915,58.6694306 C91.1897915,58.459134 91.633932,58.2880718 92.1822157,58.2880718 C92.7304995,58.2880718 93.17464,58.459134 93.17464,58.6694306 L93.17464,59.8138995 C93.17464,60.0245885 92.7304995,60.1952584 92.1822157,60.1952584 C91.633932,60.1952584 91.1897915,60.0245885 91.1897915,59.8138995 M91.1897915,63.6278804 L91.1897915,62.4838038 C91.1897915,62.2731148 91.633932,62.102445 92.1822157,62.102445 C92.7304995,62.102445 93.17464,62.2731148 93.17464,62.4838038 L93.17464,63.6278804 C93.17464,63.8385694 92.7304995,64.0096316 92.1822157,64.0096316 C91.633932,64.0096316 91.1897915,63.8385694 91.1897915,63.6278804 M91.1897915,67.4422536 L91.1897915,66.298177 C91.1897915,66.0870957 91.633932,65.9164258 92.1822157,65.9164258 C92.7304995,65.9164258 93.17464,66.0870957 93.17464,66.298177 L93.17464,67.4422536 C93.17464,67.6529426 92.7304995,67.8236124 92.1822157,67.8236124 C91.633932,67.8236124 91.1897915,67.6529426 91.1897915,67.4422536 M91.1897915,71.2562344 L91.1897915,70.1121579 C91.1897915,69.9014689 91.633932,69.730799 92.1822157,69.730799 C92.7304995,69.730799 93.17464,69.9014689 93.17464,70.1121579 L93.17464,71.2562344 C93.17464,71.4669234 92.7304995,71.6375933 92.1822157,71.6375933 C91.633932,71.6375933 91.1897915,71.4669234 91.1897915,71.2562344 M91.1897915,75.0706077 L91.1897915,73.9261388 C91.1897915,73.7158421 91.633932,73.5447799 92.1822157,73.5447799 C92.7304995,73.5447799 93.17464,73.7158421 93.17464,73.9261388 L93.17464,75.0706077 C93.17464,75.2812967 92.7304995,75.4519665 92.1822157,75.4519665 C91.633932,75.4519665 91.1897915,75.2812967 91.1897915,75.0706077" id="Fill-51" fill="#7D97F4"></path>
                                <path d="M61.9317674,56.7012344 L61.9317674,55.5567656 C61.9317674,55.3460766 62.3759079,55.1754067 62.9241917,55.1754067 C63.4724755,55.1754067 63.9166159,55.3460766 63.9166159,55.5567656 L63.9166159,56.7012344 C63.9166159,56.9119234 63.4724755,57.0825933 62.9241917,57.0825933 C62.3759079,57.0825933 61.9317674,56.9119234 61.9317674,56.7012344 M61.9317674,60.5152153 L61.9317674,59.3711388 C61.9317674,59.1604498 62.3759079,58.9897799 62.9241917,58.9897799 C63.4724755,58.9897799 63.9166159,59.1604498 63.9166159,59.3711388 L63.9166159,60.5152153 C63.9166159,60.7259043 63.4724755,60.8965742 62.9241917,60.8965742 C62.3759079,60.8965742 61.9317674,60.7259043 61.9317674,60.5152153 M61.9317674,64.3295885 L61.9317674,63.1851196 C61.9317674,62.974823 62.3759079,62.8037608 62.9241917,62.8037608 C63.4724755,62.8037608 63.9166159,62.974823 63.9166159,63.1851196 L63.9166159,64.3295885 C63.9166159,64.5402775 63.4724755,64.7109474 62.9241917,64.7109474 C62.3759079,64.7109474 61.9317674,64.5402775 61.9317674,64.3295885 M61.9317674,68.1439617 L61.9317674,66.9994928 C61.9317674,66.7888038 62.3759079,66.618134 62.9241917,66.618134 C63.4724755,66.618134 63.9166159,66.7888038 63.9166159,66.9994928 L63.9166159,68.1439617 C63.9166159,68.3542584 63.4724755,68.5253206 62.9241917,68.5253206 C62.3759079,68.5253206 61.9317674,68.3542584 61.9317674,68.1439617 M61.9317674,71.9579426 L61.9317674,70.8134737 C61.9317674,70.603177 62.3759079,70.4321148 62.9241917,70.4321148 C63.4724755,70.4321148 63.9166159,70.603177 63.9166159,70.8134737 L63.9166159,71.9579426 C63.9166159,72.1686316 63.4724755,72.3393014 62.9241917,72.3393014 C62.3759079,72.3393014 61.9317674,72.1686316 61.9317674,71.9579426 M61.9317674,75.7719234 L61.9317674,74.6278469 C61.9317674,74.4171579 62.3759079,74.246488 62.9241917,74.246488 C63.4724755,74.246488 63.9166159,74.4171579 63.9166159,74.6278469 L63.9166159,75.7719234 C63.9166159,75.9830048 63.4724755,76.1536746 62.9241917,76.1536746 C62.3759079,76.1536746 61.9317674,75.9830048 61.9317674,75.7719234" id="Fill-53" fill="#7D97F4"></path>
                                <path d="M41.226313,42.5743608 C41.0022413,42.5676909 40.8258266,42.3919206 40.8329334,42.1812316 L40.8705574,41.0375474 C40.8776641,40.8268584 41.0549149,40.6526574 41.2894377,40.6683512 C41.5139275,40.6746287 41.6899241,40.8507914 41.6832354,41.0614804 L41.6451934,42.2051646 C41.6385047,42.4115378 41.4583276,42.5743608 41.2392724,42.5743608 C41.235092,42.5743608 41.2309115,42.5743608 41.226313,42.5743608 M41.1004817,46.3867722 C40.875992,46.3801024 40.6999953,46.2039397 40.7071021,45.9936431 L40.7451441,44.8495665 C40.7518328,44.6392699 40.9274114,44.4670306 41.1640244,44.4803703 C41.3880962,44.4870402 41.5645108,44.6632029 41.5574041,44.8734995 L41.5193621,46.0171837 C41.5126734,46.2239493 41.3320782,46.3867722 41.113023,46.3867722 C41.1092606,46.3867722 41.1046622,46.3867722 41.1004817,46.3867722 M40.9742324,50.1991837 C40.7501606,50.1925139 40.5737459,50.0163512 40.5808527,49.8060545 L40.6188947,48.661978 C40.6255834,48.4516813 40.810777,48.2810115 41.0377751,48.2927818 C41.2618468,48.2994517 41.4382615,48.475222 41.4311547,48.685911 L41.3931127,49.8295952 C41.386842,50.0363608 41.2058289,50.1991837 40.9876098,50.1991837 C40.9830113,50.1991837 40.9788308,50.1991837 40.9742324,50.1991837 M40.8488191,54.0112029 C40.6243293,54.0049254 40.4479146,53.8287627 40.4546033,53.618466 L40.4926454,52.4747818 C40.4997521,52.2640928 40.6945607,52.095777 40.9111077,52.1051933 C41.1355974,52.1118632 41.3120121,52.2876335 41.3049054,52.4979301 L41.2676994,53.6416144 C41.2605927,53.8483799 41.0799976,54.0115952 40.8613604,54.0115952 C40.85718,54.0115952 40.8525815,54.0115952 40.8488191,54.0112029 M40.7225697,57.8240067 C40.4980799,57.8173368 40.3220833,57.6411742 40.3291901,57.4308775 L40.366396,56.2871933 C40.3735027,56.0765043 40.5670572,55.9003416 40.7852763,55.9176048 C41.0097661,55.9242746 41.1857627,56.100045 41.179074,56.310734 L41.1414501,57.4544182 C41.1343433,57.6607914 40.9541662,57.8240067 40.735111,57.8240067 C40.7309306,57.8240067 40.7267501,57.8240067 40.7225697,57.8240067 M40.5963203,61.6360258 C40.3718306,61.6297483 40.1958339,61.4535856 40.2029407,61.2428967 L40.2405647,60.0992124 C40.2472534,59.8885234 40.4291026,59.7147148 40.6598631,59.7300163 C40.8839348,59.7366861 41.0603495,59.9124565 41.0532427,60.1231455 L41.0152007,61.2668297 C41.008512,61.4732029 40.8279169,61.6364182 40.6088617,61.6364182 C40.6050993,61.6364182 40.6005008,61.6364182 40.5963203,61.6360258 M40.470071,65.4484373 C40.2459992,65.4417675 40.0695846,65.2659971 40.0766913,65.0553081 L40.1147334,63.9116239 C40.1214221,63.7013273 40.3015991,63.5294804 40.5336137,63.5420354 C40.7576854,63.5487053 40.9341001,63.7248679 40.9269934,63.9355569 L40.8889513,65.0792411 C40.8822626,65.2856144 40.7016675,65.4488297 40.4834484,65.4488297 C40.4788499,65.4488297 40.4746695,65.4488297 40.470071,65.4484373 M40.3446577,69.2608488 C40.1201679,69.2541789 39.9437532,69.0784086 39.950442,68.8677196 L39.988484,67.7240354 C39.9955907,67.5137388 40.1849648,67.3434612 40.4069463,67.3548392 C40.6314361,67.3611167 40.8078507,67.5372794 40.800744,67.7475761 L40.76312,68.8912603 C40.7564313,69.0980258 40.5754181,69.2612411 40.357199,69.2612411 C40.3530186,69.2612411 40.3484201,69.2612411 40.3446577,69.2608488 M40.2184083,73.0728679 C39.9939186,73.0665904 39.8179219,72.8908201 39.8246106,72.6801311 L39.8622346,71.5364469 C39.8693414,71.3257579 40.0574613,71.1582268 40.281115,71.1668584 C40.5051867,71.1735282 40.6816014,71.3492986 40.6749127,71.5599876 L40.6372887,72.7036718 C40.6301819,72.910045 40.4500048,73.0732603 40.2309497,73.0732603 C40.2267692,73.0732603 40.2225888,73.0732603 40.2184083,73.0728679 M40.0917409,76.8856718 C39.8676692,76.8790019 39.6916726,76.7028392 39.6987793,76.4921502 L39.7364033,75.348466 C39.743092,75.1381694 39.9195067,74.962399 40.1548656,74.9792699 C40.3797734,74.9859397 40.55577,75.16171 40.5486633,75.372399 L40.5110393,76.5160833 C40.5039326,76.7228488 40.3237555,76.8856718 40.1047003,76.8856718 C40.1009379,76.8856718 40.0963394,76.8856718 40.0917409,76.8856718" id="Fill-55" fill="#7D97F4"></path>
                                <path d="M18.4930894,58.1162249 L18.4930894,56.971756 C18.4930894,56.761067 18.9382509,56.5903971 19.4865347,56.5903971 C20.0337974,56.5903971 20.4779379,56.761067 20.4779379,56.971756 L20.4779379,58.1162249 C20.4779379,58.3269139 20.0337974,58.4975837 19.4865347,58.4975837 C18.9382509,58.4975837 18.4930894,58.3269139 18.4930894,58.1162249 M18.4930894,61.9305981 L18.4930894,60.7861292 C18.4930894,60.5754402 18.9382509,60.4047703 19.4865347,60.4047703 C20.0337974,60.4047703 20.4779379,60.5754402 20.4779379,60.7861292 L20.4779379,61.9305981 C20.4779379,62.1408947 20.0337974,62.3119569 19.4865347,62.3119569 C18.9382509,62.3119569 18.4930894,62.1408947 18.4930894,61.9305981 M18.4930894,65.7445789 L18.4930894,64.6005024 C18.4930894,64.3898134 18.9382509,64.2187512 19.4865347,64.2187512 C20.0337974,64.2187512 20.4779379,64.3898134 20.4779379,64.6005024 L20.4779379,65.7445789 C20.4779379,65.9552679 20.0337974,66.1259378 19.4865347,66.1259378 C18.9382509,66.1259378 18.4930894,65.9552679 18.4930894,65.7445789 M18.4930894,69.5589522 L18.4930894,68.4144833 C18.4930894,68.2037943 18.9382509,68.0331244 19.4865347,68.0331244 C20.0337974,68.0331244 20.4779379,68.2037943 20.4779379,68.4144833 L20.4779379,69.5589522 C20.4779379,69.7696411 20.0337974,69.940311 19.4865347,69.940311 C18.9382509,69.940311 18.4930894,69.7696411 18.4930894,69.5589522 M18.4930894,73.372933 L18.4930894,72.2288565 C18.4930894,72.0181675 18.9382509,71.8474976 19.4865347,71.8474976 C20.0337974,71.8474976 20.4779379,72.0181675 20.4779379,72.2288565 L20.4779379,73.372933 C20.4779379,73.583622 20.0337974,73.7542919 19.4865347,73.7542919 C18.9382509,73.7542919 18.4930894,73.583622 18.4930894,73.372933" id="Fill-57" fill="#7D97F4"></path>
                                <path d="M122.75914,81.6800823 C123.047263,81.6800823 123.291975,81.4544842 123.316562,81.1563024 L129.336415,8.54981435 C129.362154,8.23515407 129.133577,7.95815885 128.825477,7.93147943 C128.514304,7.90323062 128.245773,8.13863732 128.220034,8.45329761 L122.200181,81.0593933 C122.174442,81.3744459 122.402635,81.6514411 122.711119,81.6781206 C122.727254,81.6800823 122.743389,81.6800823 122.75914,81.6800823" id="Fill-59" fill="#7D97F4"></path>
                                <polygon id="Fill-61" fill="#7D97F4" points="130.482569 10.9362105 128.749989 8.8383445 126.697015 10.6089952 126.833393 8.96742584 128.886367 7.1983445 130.618563 9.29503349"></polygon>
                                <path d="M3.93572405,78.2909321 L127.280099,78.2909321 C127.589736,78.2909321 127.840595,78.0351234 127.840595,77.7188938 C127.840595,77.4026641 127.589736,77.1464632 127.280099,77.1464632 L3.93572405,77.1464632 C3.62608768,77.1464632 3.37561261,77.4026641 3.37561261,77.7188938 C3.37561261,78.0351234 3.62608768,78.2909321 3.93572405,78.2909321" id="Fill-63" fill="#7D97F4"></path>
                                <polygon id="Fill-65" fill="#7D97F4" points="6.16756452 79.6587627 4.26710411 77.7190115 6.16756452 75.7792603 4.55484311 75.7792603 2.65515103 77.7190115 4.55484311 79.6587627"></polygon>
                            </g>
                        </g>
                        <g id="Group-76" transform="translate(129.000000, 39.000000)">
                            <mask id="mask-20" fill="white">
                                <use xlink:href="#path-19"></use>
                            </mask>
                            <g id="Clip-75"></g>
                            <path d="M4.31433333,2.7624 C4.61533333,2.0502 4.80166667,1.3791 4.90933333,0.7821 L4.90933333,0.7821 L0.146666667,0.1077 L4.31433333,2.7624 Z" id="Fill-74" fill="url(#linearGradient-21)" mask="url(#mask-20)"></path>
                        </g>
                    </g>
                    <g id="Group-6" transform="translate(204.000000, 141.000000)">
                        <path d="M23,34.53407 C16.0775481,34.53407 10.4663155,28.9222836 10.4663155,22.0002455 C10.4663155,15.0777164 16.0775481,9.46593002 23,9.46593002 C29.9224519,9.46593002 35.5336845,15.0777164 35.5336845,22.0002455 C35.5336845,28.9222836 29.9224519,34.53407 23,34.53407 M23,0 C10.8498594,0 1,9.84947821 1,22.0002455 C1,34.1505218 10.8498594,44 23,44 C35.1506317,44 45,34.1505218 45,22.0002455 C45,9.84947821 35.1506317,0 23,0" id="Fill-1" fill="#167BBD"></path>
                        <g id="Group-5" transform="translate(0.000000, 6.000000)">
                            <mask id="mask-23" fill="white">
                                <use xlink:href="#path-22"></use>
                            </mask>
                            <g id="Clip-4"></g>
                            <path d="M6.98846154,0.459 C2.9070989,4.51 0.385186813,10.0975 0.385186813,16.269 L0.385186813,16.269 C0.385186813,28.6395 10.5233846,38.6675 23.0303297,38.6675 L23.0303297,38.6675 C35.5367692,38.6675 45.6754725,28.6395 45.6754725,16.269 L45.6754725,16.269 C45.6754725,10.0975 43.1530549,4.51 39.0721978,0.459 L39.0721978,0.459 L6.98846154,0.459 Z M10.1285934,16.269 C10.1285934,9.221 15.9048791,3.507 23.0303297,3.507 L23.0303297,3.507 C30.1557802,3.507 35.9310549,9.221 35.9310549,16.269 L35.9310549,16.269 C35.9310549,23.316 30.1557802,29.03 23.0303297,29.03 L23.0303297,29.03 C15.9048791,29.03 10.1285934,23.316 10.1285934,16.269 L10.1285934,16.269 Z" id="Fill-3" fill="#F7941D" mask="url(#mask-23)"></path>
                        </g>
                    </g>
                    <g id="Group-25-Copy" transform="translate(0.000000, 25.000000)">
                        <g filter="url(#filter-24)" id="Group-16">
                            <g>
                                <g id="Group-7" fill="#FFFFFF">
                                    <path d="M1.44724813,29.1007593 C1.19605853,29.1007593 0.964671524,28.9362114 0.890456416,28.6826898 C0.80179077,28.3798575 0.71794197,28.0698787 0.641764443,27.7615078 C0.564873309,27.449921 0.754514319,27.1345823 1.06564689,27.0572216 C1.37695786,26.9802182 1.69148006,27.1701361 1.7689064,27.4819015 C1.84115909,27.7743715 1.92054784,28.0684494 2.00475345,28.3557381 C2.09466791,28.6637517 1.91858543,28.9867728 1.61084249,29.0769972 C1.55625157,29.0930768 1.50130384,29.1007593 1.44724813,29.1007593" id="Fill-1"></path>
                                    <path d="M19.8712201,1.45654319 C19.5784629,1.45654319 19.3267381,1.23553811 19.2949826,0.937529642 C19.2603726,0.618260376 19.491046,0.331507623 19.8098499,0.29720449 C20.4331854,0.23002752 21.0688307,0.188756563 21.6989455,0.174820916 C21.703584,0.174820916 21.7078656,0.174820916 21.7121472,0.174820916 C22.0268478,0.174820916 22.2853519,0.426555888 22.2921312,0.743323883 C22.2994456,1.06420111 22.0454016,1.33022905 21.7249922,1.33737554 C21.1273465,1.35059654 20.5248839,1.38954489 19.9341959,1.45332727 C19.9129661,1.45564988 19.8919147,1.45654319 19.8712201,1.45654319 M26.5273876,1.76580738 C26.4892096,1.76580738 26.4504964,1.76205547 26.4116049,1.754373 C25.8280529,1.63627732 25.2311208,1.54158638 24.6381136,1.47315877 C24.3196665,1.43653303 24.0911339,1.14799366 24.1278847,0.829081716 C24.1646354,0.510169775 24.4527542,0.281839545 24.7710228,0.318107961 C25.3964992,0.390287471 26.025722,0.489980951 26.6415647,0.614508471 C26.9559085,0.678112197 27.159108,0.98469645 27.095597,1.29949916 C27.0401141,1.57535352 26.7978446,1.76580738 26.5273876,1.76580738 M15.1576687,2.5115432 C14.9168264,2.5115432 14.6920403,2.36039502 14.6089051,2.1197371 C14.5043617,1.81636877 14.6651016,1.4853078 14.9685629,1.38043312 C15.5635326,1.17479298 16.1736664,0.992736247 16.782373,0.839265458 C17.0938624,0.760654111 17.4087414,0.949678668 17.4870597,1.2610868 C17.5651997,1.57231627 17.3768075,1.88836961 17.0656749,1.9668023 C16.4890806,2.11205463 15.9110591,2.28464227 15.3471313,2.47974134 C15.2845123,2.50135946 15.2206445,2.5115432 15.1576687,2.5115432 M31.1260483,3.25156183 C31.0461243,3.25156183 30.9647731,3.23512491 30.8871684,3.19992847 C30.344292,2.95391069 29.7841106,2.72861771 29.2219669,2.53048139 C28.919576,2.42382008 28.7607985,2.0918658 28.8671259,1.7888548 C28.9734533,1.48620111 29.3052805,1.32665581 29.607493,1.4338531 C30.2010354,1.64306648 30.7926155,1.8808658 31.3656417,2.14046191 C31.6575069,2.27285056 31.7873834,2.61731119 31.6551877,2.90978114 C31.5583156,3.12453304 31.3469096,3.25156183 31.1260483,3.25156183 M10.7982447,4.59242128 C10.6043221,4.59242128 10.4148594,4.49505041 10.3047856,4.31817488 C10.1354824,4.04553644 10.2189744,3.6869615 10.4908586,3.51741111 C11.0251717,3.18438486 11.5798226,2.87083279 12.1394687,2.58497334 C12.4259818,2.43954235 12.775114,2.55281416 12.9205114,2.83903092 C13.0659087,3.12506903 12.9524453,3.47506818 12.6670025,3.62103516 C12.1366143,3.89170832 11.6106861,4.18900214 11.1045604,4.5045195 C11.0091155,4.564014 10.9027881,4.59242128 10.7982447,4.59242128 M7.00435411,7.58930022 C6.85449668,7.58930022 6.70481765,7.53159234 6.59135417,7.41635525 C6.36603282,7.18802502 6.36835204,6.81980233 6.59652782,6.59415203 C7.04342408,6.15214187 7.51529658,5.72353137 7.9989436,5.32011223 C8.24478114,5.11482941 8.61121824,5.14806057 8.8163802,5.39479301 C9.02172056,5.64152544 8.98835944,6.00814017 8.74180829,6.21360165 C8.28331591,6.59593865 7.83624125,7.00239505 7.4123588,7.42153646 C7.29907372,7.53337896 7.15171391,7.58930022 7.00435411,7.58930022 M3.96456751,11.3522825 C3.85752648,11.3522825 3.74941505,11.3226245 3.65254293,11.2606288 C3.38226435,11.0878625 3.3032324,10.7283942 3.47592524,10.4577211 C3.81453167,9.92655849 4.18007676,9.40397169 4.56221321,8.90443232 C4.75738467,8.64948143 5.12132414,8.60106398 5.37626017,8.79616305 C5.630661,8.99144078 5.67900786,9.3562689 5.4838364,9.61121979 C5.12168095,10.0848532 4.77540324,10.5802833 4.45428018,11.0835746 C4.34349272,11.2572342 4.15599253,11.3522825 3.96456751,11.3522825 M1.83730561,15.6982393 C1.77254579,15.6982393 1.70653716,15.6873409 1.64177734,15.6641148 C1.34010007,15.5562029 1.18257136,15.2233553 1.29068279,14.9210589 C1.50280242,14.3270073 1.74275271,13.7358142 2.0039328,13.164274 C2.13719887,12.87234 2.48133575,12.7437033 2.77320094,12.8775212 C3.06488772,13.0111605 3.19298014,13.3561572 3.05971407,13.6480911 C2.81227091,14.1894374 2.58480874,14.7493646 2.38410683,15.3125077 C2.29918762,15.5501284 2.07565028,15.6982393 1.83730561,15.6982393 M0.733534279,20.4083096 C0.710520459,20.4083096 0.687149836,20.4068803 0.663779213,20.4042004 C0.345510577,20.3659667 0.118226808,20.076534 0.156226371,19.7578007 C0.231155085,19.1314112 0.333379261,18.5019845 0.460401273,17.8868507 C0.525339492,17.5722266 0.83219042,17.3699811 1.14635582,17.4351927 C1.46052121,17.5000471 1.66229354,17.807882 1.59735532,18.1221487 C1.47729097,18.7051233 1.38024045,19.3020336 1.30923657,19.8959066 C1.27391303,20.1912351 1.02325864,20.4083096 0.733534279,20.4083096 M0.690539468,25.2477313 C0.396711865,25.2477313 0.14463026,25.0249396 0.113766765,24.7258592 C0.0495421527,24.100899 0.0111857867,23.4637897 0.000124881192,22.832755 C-0.00540557157,22.5116991 0.249887264,22.2467432 0.570296721,22.2412046 C0.896593434,22.2329862 1.1554543,22.4913316 1.16116316,22.8122089 C1.17168886,23.4105484 1.2079044,24.0142478 1.26891779,24.6066915 C1.3013869,24.9261394 1.06964309,25.2116416 0.750660842,25.2445154 C0.73050145,25.2466593 0.710520459,25.2477313 0.690539468,25.2477313" id="Fill-3"></path>
                                    <path d="M34.5496483,5.19788945 C34.434936,5.19788945 34.3196885,5.1641223 34.2185347,5.09372941 C33.973054,4.92257107 33.719902,4.75427133 33.4662147,4.59329673 C33.195401,4.4216024 33.1149418,4.06249147 33.2862074,3.79110366 C33.4581867,3.51953719 33.8169525,3.43913923 34.0874095,3.61119088 C34.3551904,3.78091992 34.6224362,3.9585101 34.8814754,4.1393162 C35.1447964,4.32262357 35.2097346,4.68495041 35.026516,4.94847708 C34.9137662,5.11088098 34.7330452,5.19788945 34.5496483,5.19788945" id="Fill-5"></path>
                                </g>
                                <g id="Group-15" transform="translate(8.384880, 17.508891)">
                                    <path d="M35.196176,2.08246818 C34.9153718,2.08246818 34.6686422,1.87807867 34.6233282,1.59186191 C34.5760517,1.29296013 34.5221744,0.993343698 34.4631235,0.701588404 C34.3992556,0.386964355 34.6022768,0.0800227778 34.9162638,0.0162403896 C35.2295372,-0.0473633365 35.5369233,0.155418206 35.6009695,0.470220917 C35.6632317,0.778413129 35.7203202,1.09464514 35.7702727,1.4101625 C35.8204036,1.72728782 35.6043591,2.02511762 35.2875177,2.07514303 C35.2568326,2.08014557 35.2263259,2.08246818 35.196176,2.08246818" id="Fill-8" fill="#FFFFFF"></path>
                                    <g id="Group-12" transform="translate(3.211231, 3.751905)">
                                        <mask id="mask-26" fill="white">
                                            <use xlink:href="#path-25"></use>
                                        </mask>
                                        <g id="Clip-11"></g>
                                        <path d="M32.2084649,3.08771077 C32.1963336,3.08771077 32.1838455,3.08735345 32.1715357,3.0866388 C31.8514831,3.06627131 31.6085,2.79023829 31.6286594,2.46989705 C31.65649,2.02663625 31.6705838,1.57819425 31.6705838,1.13725606 C31.6705838,0.99182507 31.6689782,0.846751402 31.6661237,0.701856397 C31.6589877,0.38080051 31.9135669,0.114951228 32.2339763,0.108162067 C32.2380796,0.107983405 32.2423612,0.107983405 32.2466429,0.107983405 C32.5615219,0.107983405 32.8200259,0.360254363 32.8266268,0.677022358 C32.8300164,0.830135822 32.831622,0.983427949 32.831622,1.13725606 C32.831622,1.6024923 32.8166363,2.07523236 32.7873784,2.54279121 C32.768111,2.85080476 32.5124614,3.08771077 32.2084649,3.08771077 M31.3969156,7.77866423 C31.3435734,7.77866423 31.2891609,7.77133908 31.235462,7.75561681 C30.9273623,7.6664644 30.7498526,7.34415788 30.8390534,7.035787 C31.0015774,6.4726439 31.1423363,5.89467184 31.2575838,5.3184864 C31.3203812,5.00350503 31.6286594,4.80054482 31.9406839,4.86236193 C32.2552061,4.92542967 32.4589409,5.2316566 32.3959651,5.54645931 C32.2744735,6.15480393 32.1258649,6.76457786 31.9542425,7.35880817 C31.880741,7.61340174 31.6488188,7.77866423 31.3969156,7.77866423 M29.5768614,12.1805423 C29.4821301,12.1805423 29.38615,12.1573162 29.2973059,12.1083628 C29.0165016,11.9536414 28.9142775,11.5998903 29.0687733,11.3186761 C29.35154,10.8044864 29.6161098,10.2715372 29.8546328,9.73483613 C29.9852229,9.44147288 30.3286462,9.30944155 30.621225,9.44022224 C30.9139821,9.57082428 31.045821,9.91439159 30.9154094,10.2077548 C30.6635062,10.7742925 30.3843075,11.336721 30.0858414,11.8794966 C29.9800492,12.0719157 29.7814881,12.1805423 29.5768614,12.1805423 M26.8383953,16.0737693 C26.701918,16.0737693 26.5647271,16.0257092 26.4542964,15.9281596 C26.2138109,15.715373 26.1911539,15.3480436 26.4038087,15.1073857 C26.7921892,14.6669835 27.166476,14.2051418 27.5166785,13.7341884 C27.7077468,13.4765576 28.0718646,13.4236736 28.3289415,13.6151994 C28.5860183,13.8070826 28.6393604,14.1713747 28.447757,14.4288268 C28.0786439,14.925329 27.6836625,15.4127193 27.2736954,15.8772409 C27.1589831,16.007307 26.9989568,16.0737693 26.8383953,16.0737693 M23.3199569,19.275931 C23.1403064,19.275931 22.9635103,19.1928531 22.8498684,19.0361664 C22.6612978,18.7763917 22.7191,18.4128142 22.978496,18.2241469 C23.4530446,17.8789717 23.9184946,17.5094983 24.3625364,17.126268 C24.6060548,16.9166973 24.9723135,16.9436753 25.1814003,17.1870131 C25.3906655,17.4301723 25.3635484,17.7973231 25.1207437,18.0068938 C24.6524392,18.4112062 24.1612993,18.8008684 23.6605257,19.1649818 C23.557588,19.2400199 23.4384156,19.275931 23.3199569,19.275931 M19.1910279,21.6344501 C18.9664202,21.6344501 18.7526949,21.5033121 18.6579636,21.2835576 C18.5305848,20.9889437 18.6659917,20.6468057 18.9603545,20.5192409 C19.497522,20.2866228 20.0323703,20.02792 20.5492001,19.7501004 C20.8314316,19.5982375 21.1835965,19.7043629 21.3354164,19.9875424 C21.486701,20.2703646 21.3807304,20.622865 21.0981421,20.7749065 C20.5524113,21.0677337 19.9883051,21.3410868 19.4211661,21.5867473 C19.346059,21.6190851 19.267919,21.6344501 19.1910279,21.6344501 M2.40182212,21.7879209 C2.32832061,21.7879209 2.2537487,21.7738066 2.18149601,21.7443273 C1.60882655,21.5090293 1.03936832,21.2462172 0.488642262,20.9637524 C0.203556342,20.8172494 0.0908064664,20.4668929 0.237095862,20.1810335 C0.383206856,19.8955314 0.732874192,19.7827956 1.01849532,19.9289412 C1.54014189,20.1967558 2.07945024,20.4456321 2.62232662,20.6686025 C2.91900865,20.7902714 3.0606596,21.1300868 2.93898964,21.4270233 C2.84693436,21.651959 2.6303547,21.7879209 2.40182212,21.7879209 M14.6473149,23.0299802 C14.3738251,23.0299802 14.1303068,22.8354171 14.0776783,22.5563468 C14.0179137,22.2410081 14.2250381,21.9367465 14.5402739,21.8770733 C15.1161546,21.7680894 15.6948897,21.6330208 16.2593527,21.4757981 C16.5672741,21.3902189 16.8882187,21.571025 16.9740299,21.8801106 C17.0600196,22.1895534 16.8792986,22.5098946 16.5704853,22.5960098 C15.9746236,22.7621656 15.3639546,22.9045593 14.7556048,23.0197964 C14.7193892,23.0265856 14.6831737,23.0299802 14.6473149,23.0299802 M6.97514975,23.0966211 C6.94285904,23.0966211 6.91021153,23.0937625 6.87738562,23.088224 C6.26671659,22.9846 5.65354994,22.8536406 5.05465543,22.6994552 C4.74423646,22.6194145 4.55744988,22.3024679 4.63719544,21.9915957 C4.71711941,21.6807236 5.03342562,21.4936643 5.34402299,21.5733476 C5.9115188,21.7196719 6.49275155,21.8434848 7.07166507,21.941749 C7.38761449,21.9955263 7.60026931,22.2955001 7.54692721,22.6122681 C7.49875875,22.8959835 7.2530996,23.0966211 6.97514975,23.0966211 M10.6446944,23.4046347 C10.3983216,23.4035627 10.1416016,23.4007041 9.88844955,23.392307 C9.56804009,23.3815873 9.31685049,23.1128794 9.32719779,22.7921808 C9.33754509,22.4777355 9.59533555,22.229931 9.90700332,22.229931 C9.91342578,22.229931 9.92002665,22.229931 9.92662751,22.2302884 C10.1646154,22.2379708 10.4018896,22.2419014 10.6380935,22.2419014 L10.6446944,22.2419014 C10.9925777,22.2419014 11.3450994,22.233147 11.6929828,22.2158167 C12.0191011,22.1999158 12.28599,22.4466482 12.3018678,22.7675255 C12.3177455,23.088224 12.0711944,23.3610411 11.7509633,23.3771207 C11.3838126,23.3955229 11.0116667,23.4046347 10.6446944,23.4046347" id="Fill-10" fill="#FFFFFF" mask="url(#mask-26)"></path>
                                    </g>
                                    <path d="M1.42773098,23.2483589 C1.31266188,23.2483589 1.19670078,23.2144131 1.09536861,23.1431269 C0.835258929,22.9608915 0.576576461,22.770795 0.326278873,22.5785545 C0.0718780458,22.3830981 0.0238879879,22.0180913 0.219237852,21.7633191 C0.41405251,21.5085469 0.778883991,21.4606654 1.03292802,21.6561218 C1.26984548,21.8379999 1.51479101,22.0179127 1.76116376,22.190679 C2.02377107,22.3748796 2.08763888,22.7373852 1.90370672,23.0003758 C1.79077845,23.1620651 1.61077113,23.2483589 1.42773098,23.2483589" id="Fill-13" fill="#FFFFFF"></path>
                                </g>
                            </g>
                        </g>
                        <g id="Group-19" transform="translate(5.000000, 5.000000)">
                            <mask id="mask-28" fill="white">
                                <use xlink:href="#path-27"></use>
                            </mask>
                            <g id="Clip-18"></g>
                            <g id="Fill-17" mask="url(#mask-28)">
                                <use fill="url(#linearGradient-29)" xlink:href="#path-30"></use>
                                <use fill="#F7941D" xlink:href="#path-30"></use>
                            </g>
                        </g>
                        <g id="Group-24" transform="translate(12.000000, 12.000000)" fill="#FFFFFF">
                            <path d="M9.43154623,6.91042547 C9.30015943,6.91042547 9.16751792,6.92010472 9.03487642,6.93964245 C8.32614057,7.04414245 7.70057453,7.41822736 7.27325377,7.99324623 C6.84611226,8.56826509 6.6681217,9.27520849 6.77280094,9.98394434 C6.87730094,10.6928594 7.25138585,11.3184255 7.82622547,11.745567 C8.40106509,12.1727085 9.10765,12.3503406 9.81710283,12.2463783 C10.5258387,12.1418783 11.151584,11.7676142 11.5787255,11.1925953 C12.005867,10.6175764 12.1838575,9.91063302 12.0791783,9.20189717 C11.9746783,8.49334057 11.6007726,7.86759528 11.0257538,7.44027453 C10.5582821,7.09289717 10.0033387,6.91042547 9.43154623,6.91042547 M9.41756509,13.6756802 C8.54679151,13.6756802 7.70272547,13.39785 6.99148019,12.8692557 C6.11640472,12.2189538 5.54676321,11.2666236 5.38795189,10.1881047 C5.22896132,9.10958585 5.49944245,8.03339717 6.14974434,7.1583217 C6.80004623,6.28306698 7.75219717,5.71378396 8.83071604,5.5547934 C9.91031038,5.39562358 10.9854236,5.66628396 11.8606783,6.31658585 C12.7357538,6.96706698 13.305216,7.91921792 13.4640274,8.99773679 C13.6231972,10.0764349 13.352716,11.1524443 12.7024142,12.0275198 C12.051933,12.9027745 11.0999613,13.4720575 10.0212632,13.6310481 C9.81943302,13.6608028 9.61778208,13.6756802 9.41756509,13.6756802" id="Fill-20"></path>
                            <path d="M9.49123491,18.9607274 C9.17486698,18.9607274 8.85616887,18.9447745 8.53460283,18.9123311 C7.86583868,18.8445764 7.20496132,18.7060198 6.57115,18.500784 C6.47256509,18.4686991 6.40982925,18.377284 6.40982925,18.2788783 C6.40982925,18.2550387 6.41341415,18.2308406 6.4211217,18.2068217 C6.46091415,18.0843972 6.59194245,18.0171802 6.71508396,18.0567934 C7.31752736,18.2519915 7.94542358,18.3835575 8.58156509,18.4480858 C13.4962915,18.9480009 17.8978387,15.3530575 18.3957821,10.4394066 C18.4267915,10.1334349 18.4420274,9.82943491 18.4418481,9.52830283 C18.4411311,4.99268019 14.9949613,1.09230283 10.3871028,0.625548113 C5.47237642,0.127963208 1.07082925,3.72039717 0.573065094,8.63404811 C0.542234906,8.93715189 0.526999057,9.24025566 0.527178302,9.5428217 C0.527536792,10.8538217 0.814687736,12.1501236 1.37249906,13.3376236 C1.38755566,13.3697085 1.39454623,13.4035858 1.39454623,13.4369255 C1.39454623,13.5243972 1.34507453,13.608284 1.26047075,13.6480764 C1.14431981,13.7027462 1.00504623,13.6525575 0.95019717,13.5360481 C0.362989623,12.2865292 0.060776292,10.9224726 0.060776292,9.54300094 C0.0604235849,9.22484057 0.0767349057,8.90578396 0.108640566,8.58708585 C0.632574528,3.4172934 5.26265943,-0.361017925 10.4340651,0.161123585 C15.2821123,0.65225566 18.9075274,4.75589717 18.9086028,9.52794434 C18.9086028,9.84485 18.8924708,10.1644443 18.8600274,10.4863689 C18.368716,15.3347745 14.2638198,18.9607274 9.49123491,18.9607274" id="Fill-22"></path>
                        </g>
                    </g>
                    <g id="Group-25-Copy-4" transform="translate(38.000000, 0.000000)">
                        <g filter="url(#filter-31)" id="Group-16">
                            <g>
                                <g id="Group-7" fill="#FFFFFF">
                                    <path d="M1.00678131,20.2440065 C0.832040718,20.2440065 0.671075843,20.1295384 0.619447941,19.9531755 C0.557767492,19.7425096 0.499437892,19.5268721 0.44644483,19.3123532 C0.392955346,19.0955972 0.524879526,18.8762312 0.741319574,18.822415 C0.957883727,18.7688474 1.17668178,18.9009642 1.23054358,19.1178445 C1.28080632,19.3213019 1.33603328,19.5258778 1.39461109,19.7257309 C1.45716028,19.9400012 1.33466812,20.1647115 1.12058608,20.2274763 C1.08260979,20.2386621 1.04438528,20.2440065 1.00678131,20.2440065" id="Fill-1"></path>
                                    <path d="M13.8234574,1.01324744 C13.6198003,1.01324744 13.4446874,0.859504773 13.4225966,0.652194533 C13.3985201,0.430094175 13.5589886,0.230613998 13.7807651,0.206750949 C14.2143899,0.160019145 14.6565779,0.131308914 15.0949186,0.12161455 C15.0981454,0.12161455 15.1011239,0.12161455 15.1041024,0.12161455 C15.3230246,0.12161455 15.5028535,0.29673453 15.5075695,0.517094875 C15.5126578,0.740313814 15.3359316,0.925376732 15.113038,0.9303482 C14.6972845,0.939545417 14.2781801,0.966639921 13.8672667,1.01101028 C13.8524981,1.012626 13.8378537,1.01324744 13.8234574,1.01324744 M18.4538348,1.22838774 C18.4272763,1.22838774 18.4003454,1.22577772 18.3732903,1.22043339 C17.9673412,1.13827987 17.552084,1.07240791 17.1395573,1.0248061 C16.9180289,0.999327327 16.7590497,0.798604283 16.7846154,0.576752498 C16.8101812,0.354900713 17.0106116,0.196062292 17.2320159,0.221292495 C17.6671299,0.271504327 18.1048501,0.340856314 18.5332624,0.427484154 C18.7519363,0.471730224 18.8932925,0.685006226 18.849111,0.903999417 C18.8105141,1.0958981 18.6419788,1.22838774 18.4538348,1.22838774 M10.5444652,1.74716049 C10.3769227,1.74716049 10.2205497,1.64201393 10.1627166,1.47459972 C10.0899907,1.26356088 10.2018098,1.0332576 10.4129133,0.960301298 C10.8268053,0.81724729 11.2512462,0.690599128 11.6746943,0.583836841 C11.8913825,0.529150686 12.1104288,0.66064603 12.1649111,0.877277773 C12.2192693,1.09378523 12.0882139,1.31364843 11.8717738,1.36821029 C11.4706648,1.46925539 11.0685628,1.58931636 10.6762653,1.72503745 C10.6327042,1.74007614 10.5882744,1.74716049 10.5444652,1.74716049 M21.6529031,2.26195606 C21.5973039,2.26195606 21.5407117,2.25052168 21.4867258,2.2260372 C21.1090727,2.05489439 20.7193813,1.89816884 20.3283248,1.76033488 C20.1179659,1.68613571 20.007512,1.45521099 20.0814789,1.24442073 C20.1554458,1.03387903 20.3862821,0.922890997 20.5965168,0.997463026 C21.0094159,1.14300277 21.4209499,1.30842839 21.8195769,1.48901698 C22.0226135,1.58111344 22.1129623,1.82073822 22.0210001,2.02419557 C21.9536108,2.1735882 21.8065458,2.26195606 21.6529031,2.26195606 M7.5118224,3.19472785 C7.37691969,3.19472785 7.24511962,3.12699159 7.1685465,3.00394774 C7.05077035,2.81428622 7.10885174,2.56484278 7.29798857,2.44689469 C7.66968464,2.21522425 8.05552874,1.99710107 8.44484779,1.79824233 C8.64416128,1.69707294 8.8870358,1.77587072 8.98818181,1.97497803 C9.08932782,2.17396106 9.0103967,2.41743874 8.81182785,2.51898098 C8.4428621,2.70727535 8.076999,2.91408845 7.7249116,3.13357878 C7.65851514,3.17496626 7.58454825,3.19472785 7.5118224,3.19472785 M4.87259416,5.27951319 C4.76834552,5.27951319 4.66422097,5.23936859 4.58528986,5.15920365 C4.42854457,5.00036523 4.43015794,4.74421032 4.58888892,4.5872362 C4.89977327,4.27975086 5.22803241,3.98158704 5.5644825,3.70094764 C5.73549993,3.5581422 5.99041269,3.58125953 6.13313405,3.75289948 C6.27597952,3.92453943 6.25277178,4.17957577 6.08125794,4.32250549 C5.76230672,4.58847906 5.45129826,4.87123134 5.15642351,5.16280797 C5.0776165,5.24061145 4.97510533,5.27951319 4.87259416,5.27951319 M2.75796,7.89723997 C2.68349668,7.89723997 2.60828873,7.87660838 2.54089943,7.83348089 C2.35287955,7.71329563 2.2979008,7.46323077 2.41803495,7.27493639 C2.65358725,6.90543199 2.90787949,6.54189335 3.17371354,6.1943877 C3.30948499,6.01703056 3.56266027,5.98334886 3.74000708,6.11906995 C3.91698157,6.25491533 3.95061417,6.5087088 3.81484271,6.68606594 C3.56290848,7.01555002 3.32201965,7.36019708 3.09862969,7.71031275 C3.02156015,7.83111944 2.89112524,7.89723997 2.75796,7.89723997 M1.27812564,10.9205143 C1.23307533,10.9205143 1.18715629,10.9129328 1.14210598,10.8967755 C0.932243524,10.8217064 0.822658339,10.5901602 0.897866292,10.3798671 C1.04542777,9.96661377 1.21234971,9.55534903 1.39404021,9.15775583 C1.48674704,8.95467134 1.72614661,8.8651849 1.92918326,8.95827565 C2.13209581,9.05124211 2.22120358,9.29123976 2.12849675,9.49432425 C1.95636237,9.870913 1.79812782,10.2604276 1.6585091,10.6521793 C1.59943486,10.8174806 1.44393063,10.9205143 1.27812564,10.9205143 M0.510284716,14.1970849 C0.494275102,14.1970849 0.478017277,14.1960907 0.461759453,14.1942264 C0.240355184,14.167629 0.082244736,13.9662845 0.108679214,13.744557 C0.160803538,13.3088078 0.231916007,12.8709457 0.320279146,12.4430265 C0.36545356,12.2241576 0.578915075,12.0834651 0.797464916,12.1288297 C1.01601476,12.1739458 1.15637811,12.3880918 1.1112037,12.6067122 C1.02768068,13.0122597 0.960167269,13.4275016 0.910773267,13.8406307 C0.886200372,14.0460766 0.711832099,14.1970849 0.510284716,14.1970849 M0.480375282,17.5636392 C0.275973471,17.5636392 0.100612355,17.4086536 0.0791420977,17.2005977 C0.0344641062,16.7658428 0.00778141685,16.3226363 8.68738731e-05,15.8836557 C-0.00376039762,15.6603124 0.173834619,15.4759952 0.396728154,15.4721423 C0.623717172,15.4664252 0.803794299,15.6461437 0.807765676,15.8693627 C0.815087902,16.2855989 0.840281325,16.7055637 0.882725417,17.1176984 C0.905312624,17.3399231 0.744099538,17.5385333 0.522198847,17.561402 C0.508174922,17.5628935 0.494275102,17.5636392 0.480375282,17.5636392" id="Fill-3"></path>
                                    <path d="M24.0345379,3.61592309 C23.9547381,3.61592309 23.8745659,3.59243291 23.8041981,3.54346394 C23.6334289,3.42439727 23.4573231,3.30731918 23.280845,3.19533685 C23.0924528,3.07589732 23.0364812,2.82608103 23.1556226,2.63728951 C23.2752603,2.4483737 23.5248365,2.39244468 23.7129805,2.51213278 C23.8992629,2.63020516 24.085173,2.75374616 24.2653742,2.87952431 C24.448554,3.00704248 24.4937284,3.25909594 24.366272,3.44241884 C24.2878373,3.55539546 24.1621184,3.61592309 24.0345379,3.61592309" id="Fill-5"></path>
                                </g>
                                <g id="Group-15" transform="translate(5.832960, 12.180098)">
                                    <path d="M24.4842964,1.44867351 C24.2889543,1.44867351 24.1173163,1.30648951 24.0857935,1.1073822 C24.0529056,0.899450523 24.0154257,0.691021703 23.9743467,0.488061498 C23.929917,0.269192595 24.0711491,0.0556680193 24.2895748,0.0112976623 C24.5075041,-0.032948408 24.7213379,0.108117013 24.7658918,0.327110203 C24.8092047,0.541504786 24.8489184,0.76149227 24.883668,0.980982607 C24.9185416,1.20159153 24.7682498,1.40877748 24.5478384,1.44357776 C24.5264923,1.44705779 24.5052702,1.44867351 24.4842964,1.44867351" id="Fill-8" fill="#FFFFFF"></path>
                                    <g id="Group-12" transform="translate(2.233900, 2.610021)">
                                        <mask id="mask-33" fill="white">
                                            <use xlink:href="#path-32"></use>
                                        </mask>
                                        <g id="Clip-11"></g>
                                        <path d="M22.4058886,2.14797271 C22.3974495,2.14797271 22.3887621,2.14772414 22.3801988,2.14722699 C22.1575535,2.13305831 21.9885217,1.94103533 22.0025456,1.71818925 C22.0219061,1.40983392 22.0317104,1.09787426 22.0317104,0.791134651 C22.0317104,0.689965266 22.0305935,0.589044454 22.0286078,0.488247929 C22.0236436,0.264904703 22.2007422,0.079966072 22.4236357,0.0752431769 C22.4264901,0.0751188901 22.4294687,0.0751188901 22.4324472,0.0751188901 C22.6514935,0.0751188901 22.8313224,0.250611731 22.8359143,0.470972075 C22.8382723,0.577485789 22.8393892,0.68412379 22.8393892,0.791134651 C22.8393892,1.11477726 22.8289644,1.4436399 22.8086111,1.76889823 C22.7952077,1.98316853 22.6173645,2.14797271 22.4058886,2.14797271 M21.8413326,5.41124468 C21.804225,5.41124468 21.7663728,5.40614893 21.7290171,5.3952117 C21.5146868,5.33319263 21.3912018,5.10897939 21.4532546,4.89446052 C21.5663147,4.5027088 21.664234,4.10064128 21.7444061,3.69981663 C21.7880913,3.48069915 22.0025456,3.33950944 22.2196062,3.38251265 C22.4384043,3.42638586 22.5801328,3.63941328 22.5363235,3.85840647 C22.4518077,4.28160274 22.3484278,4.70579329 22.2290382,5.1191709 C22.1779068,5.29627947 22.0165696,5.41124468 21.8413326,5.41124468 M20.5752079,8.47342075 C20.5093079,8.47342075 20.4425391,8.45726348 20.3807346,8.42320892 C20.1853924,8.31557662 20.11428,8.06948893 20.2217554,7.87386164 C20.4184626,7.51616448 20.6025111,7.14541721 20.7684402,6.77205992 C20.8592855,6.56798113 21.0981886,6.47613325 21.3017217,6.56711113 C21.5053789,6.65796471 21.5970929,6.89696807 21.5063717,7.10104685 C21.3311347,7.49516002 21.1369096,7.8864146 20.929281,8.26399764 C20.8556864,8.39785443 20.717557,8.47342075 20.5752079,8.47342075 M18.670188,11.1817525 C18.5752473,11.1817525 18.4798101,11.1483194 18.4029888,11.0804589 C18.2356945,10.9324334 18.2199331,10.6768999 18.3678669,10.5094857 C18.6380447,10.203119 18.8984181,9.8818378 19.1420372,9.55421802 C19.2749543,9.37499658 19.5282537,9.33820771 19.7070897,9.47144307 C19.8859258,9.604927 19.9230334,9.85834761 19.789744,10.0374448 C19.5329697,10.3828375 19.2582,10.7218917 18.9730055,11.0450372 C18.8932057,11.1355179 18.781883,11.1817525 18.670188,11.1817525 M16.2225787,13.4093433 C16.0976044,13.4093433 15.9746159,13.35155 15.8955606,13.2425506 C15.7643811,13.0618377 15.8045913,12.8089142 15.9850407,12.6776674 C16.3151614,12.4375455 16.6389528,12.1805206 16.9478514,11.9139256 C17.1172555,11.7681373 17.3720441,11.7869046 17.5174958,11.9561831 C17.6630716,12.1253373 17.6442076,12.3807465 17.4752999,12.5265348 C17.1495229,12.8077956 16.8078604,13.0788649 16.4594962,13.3321613 C16.3878873,13.3843617 16.3049848,13.4093433 16.2225787,13.4093433 M13.3502803,15.0500522 C13.1940314,15.0500522 13.045353,14.9588258 12.9794529,14.8059531 C12.8908416,14.6010043 12.9850377,14.3629953 13.1898118,14.2742546 C13.5634936,14.1124333 13.935562,13.9324661 14.2950957,13.7392003 C14.4914306,13.6335566 14.736415,13.7073829 14.8420288,13.9043773 C14.9472703,14.1011232 14.8735516,14.3463409 14.6769684,14.4521089 C14.2973296,14.6558148 13.9049079,14.8459735 13.5103764,15.0168677 C13.458128,15.0393636 13.4037698,15.0500522 13.3502803,15.0500522 M1.67083278,15.1568145 C1.6197013,15.1568145 1.56782518,15.1469959 1.51756244,15.1264886 C1.11918369,14.962803 0.723038829,14.7799772 0.339925052,14.5834799 C0.141604412,14.4815648 0.0631697157,14.2378386 0.164936252,14.0389798 C0.266578683,13.8403696 0.509825525,13.7619447 0.708518482,13.8636113 C1.07140306,14.049917 1.44657408,14.2230484 1.82422721,14.3781583 C2.03061471,14.4627975 2.12915451,14.6991908 2.04451453,14.9057554 C1.98047608,15.0622323 1.82981196,15.1568145 1.67083278,15.1568145 M10.1894365,16.0208558 C9.99918271,16.0208558 9.82977866,15.8855075 9.79316752,15.6913717 C9.75159217,15.4720056 9.89567869,15.2603454 10.1149732,15.2188336 C10.5155858,15.1430187 10.9181842,15.0490579 11.3108541,14.9396856 C11.5250602,14.8801523 11.7483261,15.0059305 11.8080208,15.2209465 C11.8678397,15.4362111 11.7421208,15.6590571 11.5272941,15.7189633 C11.1127816,15.83455 10.6879684,15.9336065 10.2647685,16.0137714 C10.2395751,16.0184943 10.2143817,16.0208558 10.1894365,16.0208558 M4.85227809,16.0672147 C4.82981499,16.0672147 4.80710367,16.0652261 4.78426826,16.0613732 C4.35945502,15.9892869 3.93290431,15.8981848 3.51628204,15.7909253 C3.30033841,15.7352449 3.17039992,15.5147603 3.22587509,15.2985014 C3.28147437,15.0822425 3.50151348,14.9521143 3.71758121,15.0075462 C4.11236091,15.109337 4.51669673,15.1954677 4.91941918,15.2638254 C5.13921008,15.3012357 5.28714387,15.5099131 5.25003632,15.7302734 C5.21652782,15.9276407 5.04563451,16.0672147 4.85227809,16.0672147 M7.40500477,16.281485 C7.23361503,16.2807393 7.05502717,16.2787507 6.87892142,16.2729092 C6.65602789,16.265452 6.4812873,16.0785248 6.48848542,15.8554301 C6.49568354,15.6366855 6.67501603,15.4642999 6.8918284,15.4642999 C6.8962962,15.4642999 6.9008881,15.4642999 6.90548001,15.4645484 C7.07103679,15.4698928 7.23609714,15.4726271 7.40041287,15.4726271 L7.40500477,15.4726271 C7.64701056,15.4726271 7.89224309,15.466537 8.13424888,15.4544812 C8.36111379,15.4434197 8.54677567,15.6150596 8.55782106,15.8382786 C8.56886645,16.0613732 8.39735261,16.251159 8.17458318,16.2623449 C7.91917399,16.2751464 7.66028985,16.281485 7.40500477,16.281485" id="Fill-10" fill="#FFFFFF" mask="url(#mask-33)"></path>
                                    </g>
                                    <path d="M0.993204161,16.1727714 C0.913156093,16.1727714 0.832487498,16.1491569 0.761995555,16.0995665 C0.58104969,15.9727941 0.401096669,15.840553 0.226976607,15.7068205 C0.0500021188,15.5708509 0.0166177307,15.3169331 0.152513288,15.1397002 C0.288036529,14.9624674 0.541832342,14.9291586 0.718558619,15.0651282 C0.883370766,15.1916521 1.05376766,15.3168088 1.2251574,15.4369941 C1.40784074,15.5651337 1.45227052,15.8173114 1.32431772,16.0002615 C1.24575892,16.1127409 1.12053644,16.1727714 0.993204161,16.1727714" id="Fill-13" fill="#FFFFFF"></path>
                                </g>
                            </g>
                        </g>
                        <g id="Group-19" transform="translate(3.000000, 3.000000)">
                            <mask id="mask-35" fill="white">
                                <use xlink:href="#path-34"></use>
                            </mask>
                            <g id="Clip-18"></g>
                            <g id="Fill-17" mask="url(#mask-35)">
                                <use fill="url(#linearGradient-36)" xlink:href="#path-37"></use>
                                <use fill="#F7941D" xlink:href="#path-37"></use>
                            </g>
                        </g>
                        <g id="Group-24" transform="translate(8.000000, 8.000000)" fill="#FFFFFF">
                            <path d="M6.45316321,4.72818585 C6.36326698,4.72818585 6.27251226,4.73480849 6.18175755,4.74817642 C5.69683302,4.81967642 5.26881415,5.07562925 4.97643679,5.46906321 C4.68418208,5.86249717 4.56239906,6.34619528 4.6340217,6.83111981 C4.7055217,7.31616698 4.96147453,7.74418585 5.35478585,8.03644057 C5.74809717,8.32869528 6.23155,8.45023302 6.71696509,8.37910094 C7.20188962,8.30760094 7.63003113,8.05152547 7.92228585,7.65809151 C8.21454057,7.26465755 8.33632358,6.78095943 8.26470094,6.29603491 C8.19320094,5.81123302 7.93737075,5.38309151 7.54393679,5.09071415 C7.22408774,4.85303491 6.84438962,4.72818585 6.45316321,4.72818585 M6.44359717,9.35704434 C5.84780472,9.35704434 5.27028585,9.16695 4.78364434,8.80528019 C4.18490849,8.36033679 3.79515377,7.70874245 3.6864934,6.97080849 C3.57771038,6.23287453 3.76277642,5.49653491 4.20771981,4.89779906 C4.65266321,4.29894057 5.30413491,3.90943113 6.04206887,3.80064811 C6.78073868,3.69174245 7.51634245,3.87693113 8.11520094,4.32187453 C8.71393679,4.76694057 9.10356887,5.41841226 9.21222925,6.15634623 C9.32113491,6.89440283 9.13606887,7.63061981 8.69112547,8.22935566 C8.24605943,8.82821415 7.59471038,9.21772358 6.85665377,9.3265066 C6.71855943,9.34686509 6.58058774,9.35704434 6.44359717,9.35704434" id="Fill-20"></path>
                            <path d="M6.49400283,12.9731292 C6.27754057,12.9731292 6.05948396,12.9622142 5.83946509,12.940016 C5.38188962,12.8936575 4.92971038,12.7988557 4.49605,12.6584311 C4.42859717,12.6364783 4.38567264,12.5739311 4.38567264,12.5066009 C4.38567264,12.4902896 4.38812547,12.473733 4.39339906,12.4572991 C4.42062547,12.3735349 4.51027642,12.3275443 4.59453113,12.3546481 C5.00672925,12.4882047 5.43634245,12.5782236 5.87159717,12.6223745 C9.23430472,12.9644217 12.2458896,10.5047236 12.5865877,7.14275189 C12.6078047,6.93340283 12.6182292,6.72540283 12.6181066,6.51936509 C12.617616,3.41604434 10.2597104,0.747365094 7.10696509,0.428006604 C3.74425755,0.0875537736 0.732672642,2.54553491 0.39209717,5.9075066 C0.37100283,6.1148934 0.360578302,6.32228019 0.360700943,6.52929906 C0.360946226,7.42629906 0.557417925,8.31324245 0.939078302,9.12574245 C0.949380189,9.14769528 0.954163208,9.17087453 0.954163208,9.19368585 C0.954163208,9.25353491 0.920314151,9.31093113 0.862427358,9.33815755 C0.78295566,9.37556321 0.687663208,9.34122358 0.650134906,9.2615066 C0.248361321,8.40657264 0.0415837788,7.47327075 0.0415837788,6.5294217 C0.0413424528,6.31173302 0.0525028302,6.09343113 0.0743330189,5.87537453 C0.432814151,2.33814811 3.60076698,-0.247012264 7.13909717,0.110242453 C10.4561821,0.446280189 12.9367292,3.25403491 12.9374651,6.51911981 C12.9374651,6.73595 12.9264274,6.95461981 12.9042292,7.17488396 C12.5680689,10.4922142 9.75945566,12.9731292 6.49400283,12.9731292" id="Fill-22"></path>
                        </g>
                    </g>
                </g>
            </g>
        </g>
    </g>
</svg>