<?xml version="1.0" encoding="UTF-8"?>
<svg width="394px" height="247px" viewBox="0 0 394 247" version="1.1" xmlns="http://www.w3.org/2000/svg" xmlns:xlink="http://www.w3.org/1999/xlink">
    <title>89B2306A-E51D-4CCA-9D36-22847CC25F25@1x</title>
    <g id="Comfortable-Themes" stroke="none" stroke-width="1" fill="none" fill-rule="evenodd">
        <g id="Artboard" transform="translate(-690.000000, -194.000000)">
            <g id="Group" transform="translate(690.000000, 113.000000)">
                <g id="Group-159" transform="translate(0.000000, 81.000000)">
                    <path d="M186.968052,156.874772 C186.22343,156.270318 185.323616,156.544217 182.739361,155.383872 C182.238612,155.159023 180.92273,154.802081 180.333467,154.686176 C180.222949,154.664646 180.135268,154.583221 180.10643,154.477353 C179.320802,151.591222 175.880073,138.247744 175.502344,134.399893 C175.116114,130.464952 172.502854,113.782893 172.104289,111.246419 C172.076951,111.073695 171.900755,110.963942 171.727394,111.010886 L164.219499,113.043918 C164.065474,113.085682 163.972126,113.236877 164.007465,113.388071 C164.471207,115.376586 167.356846,127.861461 168.204651,134.180386 C168.880428,139.217719 176.607858,155.377882 176.762883,156.411476 C176.764384,156.421027 176.765717,156.43074 176.767218,156.440291 C176.813725,156.751259 177.088103,156.98145 177.411656,156.98145 C179.318135,156.980965 185.429967,156.979832 185.778691,156.981612 C186.096576,156.983231 187.200757,157.063685 186.968052,156.874772" id="Fill-1" fill="#F48C7F"></path>
                    <path d="M170.75554,104.38648 C166.62223,92.4966457 162,93.0031215 162,93.0031215 L165.574545,118 C168.126929,117.338164 171.450375,115.865017 174,115.182248 C173.154609,111.423501 171.77339,107.31462 170.75554,104.38648" id="Fill-3" fill="#3CA6E6"></path>
                    <path d="M169.612157,73.550873 C168.422865,65.9550587 161.40872,60.4933482 154.073215,64.1790219 C152.423448,65.007945 150.189817,66.6900966 149.050302,68.1229993 C145.969818,71.9967613 145.181821,76.7815763 142,80.5427077 C143.168538,81.4110277 144.582392,82.3219218 146.265722,83.1972315 L148.247226,80.6086339 L147.564944,83.8388606 C152.489763,86.1478674 159.444565,88.0527385 168.956952,87.9988855 C170.152567,82.7222449 170.246608,77.6027153 169.612157,73.550873" id="Fill-5" fill="#4A2009"></path>
                    <path d="M171.181196,245.958574 C170.069424,245.130418 169.172278,244.583142 165.621047,242.842859 C165.389676,242.729433 164.546306,242.186225 164.242159,241.998104 C163.471244,241.521129 162.696787,240.770435 162.030207,240.018601 C161.393735,239.300942 161.090393,236.999713 160.947255,235.165858 C161.312909,231.069992 167.185095,165.377643 168.423743,158.266144 C169.702322,150.92519 167.754909,139.728078 167.754909,139.728078 L163.221357,138 L154.615386,168.147873 L155.294203,191.096534 C155.294203,191.096534 153.27031,197.711204 153.014627,201.664189 C152.758943,205.616847 155.940013,237.702564 155.940013,237.702564 L155.940174,237.702564 C155.940496,238.849842 155.895735,239.887437 155.769665,240.535772 C155.536201,241.735939 154.235403,244.206249 154.832105,245.335627 C155.428807,246.465004 156.110683,246.747511 156.110683,246.747511 L171.574704,247 C172.416946,247.01342 171.860335,246.464353 171.181196,245.958574" id="Fill-7" fill="#F48C7F"></path>
                    <path d="M147.96616,137.541571 C147.96616,137.541571 142.636742,145.731279 141.367787,152.509074 C140.098833,159.287032 142.299089,180.116719 139.858177,188.998546 C138.536809,193.806599 133.528585,201.231426 132.767308,207.444391 C132.005871,213.657356 129.356743,231.589971 129.356743,231.589971 L129.357062,231.589971 C128.956129,233.472629 128.328284,235.800965 127.513315,236.883583 C127.014426,237.546077 126.103418,238.384207 125.505135,239.581744 C124.574153,241.445682 125.088862,244.220836 125.775673,245.749295 C126.128027,246.533708 125.750904,246.53143 126.553569,246.784219 C128.930722,247.532985 131.459522,246.271966 132.471522,243.947699 C133.036887,242.649405 133.532899,240.917477 133.632613,238.734987 C133.738399,236.421789 134.09363,234.583895 134.472031,233.224397 L151.507599,190.656737 L163.840637,153.920172 L167,135 L147.96616,137.541571 Z" id="Fill-9" fill="#F79C8D"></path>
                    <path d="M133,242.931203 C129.074634,243.567083 126.46294,241.527048 125.103845,240 C124.106257,241.730011 123.619371,244.311382 124.353272,245.732575 C124.999561,246.984432 126.888582,246.948393 128.375778,246.997551 C129.948204,247.049422 131.164907,246.273307 131.945081,245.056886 C132.30948,244.48871 132.685277,243.781355 133,242.931203" id="Fill-11" fill="#86B1F2"></path>
                    <path d="M163.872297,242.326032 C159.665638,243.315181 156.556023,242.642826 154.816387,242 C154.367732,243.165113 153.773169,244.626728 154.088503,245.469746 C154.474555,246.5016 155.024567,246.734955 155.510155,246.746615 C159.352623,246.83914 169.585404,246.964979 172.515159,247 C172.924398,247.004806 173.149967,246.566866 172.886968,246.278995 C172.160409,245.483678 164.185809,242.501541 163.872297,242.326032" id="Fill-13" fill="#86B1F2"></path>
                    <path d="M152.534331,189.795546 C152.551228,189.796694 152.56829,189.797513 152.585187,189.798661 C152.909843,189.818 153.235975,189.83652 153.563092,189.853402 C153.582942,189.854549 153.602792,189.855532 153.622478,189.856516 C153.950087,189.873397 154.27868,189.888967 154.607765,189.903062 C154.624499,189.903882 154.641232,189.904537 154.658129,189.905193 C154.99312,189.919452 155.328603,189.932236 155.664087,189.943217 C159.398697,190.065811 164.011961,190.018281 166.971924,189.515612 C168.481025,174.42343 169.043062,160.649789 169.601654,157.601326 C170.956383,150.20815 168.421146,138.538603 168.421146,138.538603 L167.210946,138.321441 L167.976077,134 L147.655961,136.559233 C147.655961,136.559233 141.966361,144.805488 140.611632,151.629782 C139.256903,158.454404 141.605942,179.427497 139,188.370472 C139,188.370472 144.801154,189.273374 151.547075,189.732283 C151.874028,189.754573 152.203441,189.775551 152.534331,189.795546 Z" id="Fill-15" fill="#1179C5"></path>
                    <path d="M152.819199,91.0992309 C152.819199,91.0992309 146.453059,90.2783239 143.594997,93.358743 C140.73677,96.4390008 149.076673,121.172257 149.596291,125.092629 C150.116072,129.013001 146.946991,139.437197 146.946991,139.437197 C146.946991,139.437197 163.918508,142.813957 168.768986,139.640245 C168.768986,139.640245 169.288768,111.448882 168.768986,108.648501 C168.249368,105.847958 163.918508,94.4595268 162.879109,93.339213 C161.839709,92.2190606 152.819199,91.0992309 152.819199,91.0992309" id="Fill-17" fill="#8CCEFF"></path>
                    <path d="M154.617723,81.1594863 C154.617723,81.1594863 154.580713,81.3704094 154.514449,81.729011 C154.196224,83.4503632 152.97084,89.1598438 152.143035,90.7294738 C151.142784,92.6263258 155.567873,98.6761301 159.82698,97.9378993 C161.09487,97.71808 158.755294,92.3791705 158.86778,91.8136896 C159.082893,90.7310913 159.374936,89.2541446 159.673605,87.7398333 C159.84201,86.8856272 160.012517,86.0194516 160.172841,85.2055214 C160.62828,82.8919994 161,81 161,81 L154.617723,81.1594863 Z" id="Fill-19" fill="#F7A491"></path>
                    <path d="M154.17393,81.7589226 C154.233455,81.3855219 154.266702,81.1659933 154.266702,81.1659933 L160,81 C160,81 159.666223,82.9691919 159.256951,85.3771044 C159.1138,86.2195286 158.961502,87.1158249 158.810802,88 C157.925763,87.8486532 157.000944,87.3484848 156.073511,86.4050505 C155.062453,85.3765993 154.399835,84.1405724 154,82.8208754 C154.070704,82.3996633 154.129504,82.0367003 154.17393,81.7589226" id="Fill-21" fill="#F47458"></path>
                    <path d="M158.420224,67.0173171 C158.420224,67.0173171 155.229883,66.6652345 153.230113,69.1361841 C151.230173,71.6071336 149.07494,79.2487132 154.042568,83.4031237 C159.010539,87.5576976 163.919032,82.8549859 164.646813,77.8688111 C165.374594,72.8827996 165.657411,66.837273 158.420224,67.0173171" id="Fill-23" fill="#F7A491"></path>
                    <path d="M166.596236,77.2552039 C166.030828,78.5709785 165.081615,79.299535 164.476159,78.8825476 C163.870703,78.4655603 163.838338,77.060766 164.403746,75.7447961 C164.969318,74.4290215 165.91853,73.700465 166.523986,74.1174524 C167.129279,74.5344397 167.161644,75.939234 166.596236,77.2552039" id="Fill-25" fill="#F7A491"></path>
                    <path d="M159,66.0779301 C159,66.0779301 155.039088,73.4200869 152.205588,73.7593213 C149.372087,74.0987209 149,78 149,78 C149,78 150.013045,69.0102037 152.818193,67.2765586 C155.623341,65.5429136 159,66.0779301 159,66.0779301" id="Fill-27" fill="#4A2009"></path>
                    <path d="M152.941303,75.1747825 C153.170021,76.5435155 152.710056,77.7989096 151.914048,77.9784497 C151.118039,78.158163 150.287415,77.1940883 150.058697,75.8253553 C149.829979,74.4564489 150.289944,73.2012282 151.085952,73.0215148 C151.881961,72.8419748 152.712585,73.8058761 152.941303,75.1747825" id="Fill-29" fill="#F7A491"></path>
                    <path d="M157.020376,80 L162,80.7746949 C162,80.7746949 161.513122,82.2528065 159.310792,81.9621312 C156.625656,81.607642 157.020376,80 157.020376,80" id="Fill-31" fill="#FFFFFF"></path>
                    <path d="M111.485441,114.858523 C111.220916,114.230773 114.312194,113.517508 114.437766,112.858033 C114.563339,112.198396 110.450233,112.404854 110.267436,111.843776 C109.930534,110.810517 114.758226,111.341158 114.633459,110.855932 C114.508532,110.370544 109.557201,109.578207 110.032088,108.702127 C110.507136,107.826369 115.08062,110.059085 115.178628,109.478682 C115.276475,108.898279 110.738453,107.784819 110.739582,106.525776 C110.740227,105.852933 118.254108,109.411687 119.073473,108.994583 C119.89316,108.57764 117.947511,105.536804 118.588753,105.027421 C119.230156,104.518199 121.585085,111.26756 122.062228,111.467738 C122.537599,111.667594 132.700754,116.649173 136.247575,117.320405 C136.598339,116.12578 139.256963,109.741667 139.561626,108.613714 C141.607862,109.883869 143.898796,110.045879 146,111.189293 C144.765069,114.947903 140.298297,124.290397 139.306612,124.814757 C136.28739,126.411349 123.647602,117.205742 121.142438,115.651827 C118.635017,114.096462 117.295791,114.735163 115.638685,114.297929 C113.981739,113.860694 111.749804,115.486112 111.485441,114.858523" id="Fill-33" fill="#F7A491"></path>
                    <path d="M144.46176,119 C144.46176,119 150.802159,105.678243 150.993991,101.036966 C151.185665,96.3958551 146.755217,91.2052774 142.912895,92.1018707 C139.070573,92.998464 136,114.410339 136,114.410339 L144.46176,119 Z" id="Fill-35" fill="#3CA6E6"></path>
                    <path d="M282.615043,153.937755 L303.814293,148.484611 C303.814293,148.484611 308.733772,139.093644 315.951764,129 C318.311773,131.332189 319.623559,134.915261 322,137.224385 L308.18485,154.620779 C307.549212,155.322969 281,158 281,158 L282.615043,153.937755 Z" id="Fill-37" fill="#F48C7F"></path>
                    <path d="M316.026537,103.86483 C315.862104,99.8255072 316.446042,95.8366632 318.220797,92.0760379 C319.747699,88.8406259 323.525651,87.0045847 326.971207,87 C337.911385,86.9856345 339.302569,101.70533 346.266673,107.383351 C348.394679,109.118107 350.773104,110.5312 352.786728,112.402201 C360.221673,119.311003 356.872691,132.099579 350.045588,138.15644 C345.307828,142.359454 337.861814,144.7475 332.022753,141.461935 C328.974724,139.746783 326.660789,136.895602 325.012447,133.77193 C322.672844,129.338738 321.164712,124.22334 319.500649,119.49838 C317.729423,114.469402 316.245193,109.233932 316.026537,103.86483" id="Fill-39" fill="#4A2009"></path>
                    <path d="M320.008763,142 C320.008763,142 328.244968,133.432608 330.364542,129.710317 C332.483954,125.988026 328.921178,128.411312 325.282104,127.432037 C323.90393,127.061196 324.252578,118.8684 321.647537,121.531402 C317.373461,125.900501 312,133.540219 312,133.540219 L320.008763,142 Z" id="Fill-41" fill="#3EA8E6"></path>
                    <path d="M104.24795,153.394513 C104.502315,153.040829 103.879344,152.431738 103.412315,151.975067 C102.894477,151.468963 99.7422324,150.182664 99.2055407,150.026566 C98.6688491,149.870615 94.0506487,150.430272 92.2795183,150.947852 C90.5085477,151.465726 89.3476065,151.236802 89.3476065,151.236802 C88.8853711,151.14588 88.1905,151.023327 87.6510921,150.915632 L87,154.700527 C91.1454197,154.687433 94.9827889,155.005661 95.3758408,154.999923 C96.6214639,154.98168 98.9150658,153.800721 99.4460054,153.629028 C99.9771049,153.457188 101.047612,153.605488 101.765172,153.922686 C102.482571,154.239884 104.573256,154.996834 104.926364,154.827789 C105.279471,154.658744 104.24795,153.394513 104.24795,153.394513" id="Fill-43" fill="#F48C7F"></path>
                    <path d="M92.5565981,149.824254 L69.0728819,143.82843 C69.0728819,143.82843 63.9133842,133.789896 56.3431907,123 C53.8680937,125.492963 52.4924853,129.323174 50,131.791725 L63.1376724,149.982358 C63.8045463,150.732901 93,154 93,154 L92.5565981,149.824254 Z" id="Fill-45" fill="#F48C7F"></path>
                    <path d="M58.0000316,143 C58.0000316,143 51.2187839,133.849086 48.7424719,129.518869 C46.2661599,125.188488 50.4288533,128.007595 54.6806098,126.868261 C56.2908591,126.436889 54.9562046,117.556522 58.0000316,120.654666 C62.9937119,125.737092 68,136.748198 68,136.748198 L58.0000316,143 Z" id="Fill-47" fill="#B7E0FF"></path>
                    <path d="M316.028029,31 L372.971971,31 C375.748751,31 378,33.2421778 378,36.0083367 L378,69.0550155 C378,71.821012 375.748751,74.0633522 372.971971,74.0633522 L333.127416,74.0633522 C330.565982,77.6239235 325.921719,84 325.511791,84 C325.127862,84 325.866778,77.9776269 326.387568,74.0633522 L316.028029,74.0633522 C313.251249,74.0633522 311,71.821012 311,69.0550155 L311,36.0083367 C311,33.2421778 313.251249,31 316.028029,31" id="Fill-49" fill="#8CCEFF"></path>
                    <path d="M71.9719502,27 L15.0280498,27 C12.2512092,27 10,29.2423146 10,32.0083886 L10,65.0551376 C10,67.821049 12.2512092,70.0635261 15.0280498,70.0635261 L54.8725526,70.0635261 C57.4340645,73.6238548 62.0782887,80 62.4881503,80 C62.8721396,80 62.1331443,73.9777419 61.6122616,70.0635261 L71.9719502,70.0635261 C74.7487908,70.0635261 77,67.821049 77,65.0551376 L77,32.0083886 C77,29.2423146 74.7487908,27 71.9719502,27" id="Fill-51" fill="#FFC880"></path>
                    <path d="M160.971938,6 L104.027898,6 C101.251051,6 99,8.24231457 99,11.0083886 L99,44.0551376 C99,46.821049 101.251051,49.0635261 104.027898,49.0635261 L143.872499,49.0635261 C146.434017,52.6238548 151.078416,59 151.488115,59 C151.872105,59 151.133108,52.9777419 150.612224,49.0635261 L160.971938,49.0635261 C163.748785,49.0635261 166,46.821049 166,44.0551376 L166,11.0083886 C166,8.24231457 163.748785,6 160.971938,6" id="Fill-53" fill="#E3F4FF"></path>
                    <path d="M123.856718,17 L105.143282,17 C105.064201,17 105,16.9172652 105,16.8153548 L105,14.1846452 C105,14.0827348 105.064201,14 105.143282,14 L123.856718,14 C123.935799,14 124,14.0827348 124,14.1846452 L124,16.8153548 C124,16.9172652 123.935799,17 123.856718,17" id="Fill-55" fill="#FFFFFF"></path>
                    <path d="M116.851625,24 L105.148375,24 C105.066483,24 105,23.9172652 105,23.8153548 L105,21.1846452 C105,21.0827348 105.066483,21 105.148375,21 L116.851625,21 C116.93369,21 117,21.0827348 117,21.1846452 L117,23.8153548 C117,23.9172652 116.93369,24 116.851625,24" id="Fill-57" fill="#FFFFFF"></path>
                    <path d="M133.853472,24 L120.146528,24 C120.065484,24 120,23.9172652 120,23.8153548 L120,21.1846452 C120,21.0827348 120.065484,21 120.146528,21 L133.853472,21 C133.934516,21 134,21.0827348 134,21.1846452 L134,23.8153548 C134,23.9172652 133.934516,24 133.853472,24" id="Fill-59" fill="#FFFFFF"></path>
                    <path d="M158.857193,24 L137.142974,24 C137.063988,24 137,23.9172652 137,23.8153548 L137,21.1846452 C137,21.0827348 137.063988,21 137.142974,21 L158.857193,21 C158.936178,21 159,21.0827348 159,21.1846452 L159,23.8153548 C159,23.9172652 158.936178,24 158.857193,24" id="Fill-61" fill="#FFFFFF"></path>
                    <path d="M158.85828,17 L130.141885,17 C130.063501,17 130,16.9174806 130,16.8153548 L130,14.1848607 C130,14.0827348 130.063501,14 130.141885,14 L158.85828,14 C158.936664,14 159,14.0827348 159,14.1848607 L159,16.8153548 C159,16.9174806 158.936664,17 158.85828,17" id="Fill-63" fill="#FFFFFF"></path>
                    <path d="M158.860262,39 L106.139575,39 C106.06245,39 106,38.9172652 106,38.8153548 L106,36.1848607 C106,36.0827348 106.06245,36 106.139575,36 L158.860262,36 C158.937387,36 159,36.0827348 159,36.1848607 L159,38.8153548 C159,38.9172652 158.937387,39 158.860262,39" id="Fill-65" fill="#FFFFFF"></path>
                    <path d="M129.860513,32 L106.139487,32 C106.0625,32 106,31.9172652 106,31.8153548 L106,29.1846452 C106,29.0827348 106.0625,29 106.139487,29 L129.860513,29 C129.937662,29 130,29.0827348 130,29.1848607 L130,31.8153548 C130,31.9172652 129.937662,32 129.860513,32" id="Fill-67" fill="#FFFFFF"></path>
                    <path d="M158.861772,32 L135.138389,32 C135.061936,32 135,31.9172652 135,31.8153548 L135,29.1846452 C135,29.0827348 135.061936,29 135.138389,29 L158.861772,29 C158.938064,29 159,29.0827348 159,29.1846452 L159,31.8153548 C159,31.9172652 158.938064,32 158.861772,32" id="Fill-69" fill="#FFFFFF"></path>
                    <path d="M227.977741,0 L280.022421,0 C282.771478,0 285,2.24231457 285,5.00838857 L285,38.0551376 C285,40.821049 282.771478,43.0635261 280.022421,43.0635261 L244.90605,43.0635261 C242.370167,46.6240174 237.772249,53 237.366488,53 C236.986341,53 237.718104,46.9777419 238.233775,43.0635261 L227.977741,43.0635261 C225.228522,43.0635261 223,40.821049 223,38.0551376 L223,5.00838857 C223,2.24231457 225.228522,0 227.977741,0" id="Fill-71" fill="#FFDCAE"></path>
                    <path d="M278.844303,16 L265.67939,16 L265.679226,16 L253.155697,16 C253.069784,16 253,16.0913531 253,16.2040362 L253,18.7959638 C253,18.9086469 253.069784,19 253.155697,19 L265.67939,19 L266.32061,19 L278.844303,19 C278.930216,19 279,18.9086469 279,18.7959638 L279,16.2040362 C279,16.0913531 278.930216,16 278.844303,16" id="Fill-73" fill="#FFFFFF"></path>
                    <path d="M228.142808,19 L249.857192,19 C249.936011,19 250,18.9172652 250,18.8153548 L250,16.1846452 C250,16.0827348 249.936011,16 249.857192,16 L228.142808,16 C228.063822,16 228,16.0827348 228,16.1846452 L228,18.8153548 C228,18.9172652 228.063822,19 228.142808,19" id="Fill-75" fill="#FFFFFF"></path>
                    <path d="M228.141555,12 L256.858114,12 C256.936499,12 257,11.9172652 257,11.8153548 L257,9.18464522 C257,9.08251939 256.936499,9 256.858114,9 L228.141555,9 C228.063171,9 228,9.08251939 228,9.18464522 L228,11.8153548 C228,11.9172652 228.063171,12 228.141555,12" id="Fill-77" fill="#FFFFFF"></path>
                    <path d="M262.135106,12 L278.864894,12 C278.93962,12 279,11.9172652 279,11.8153548 L279,9.18464522 C279,9.08251939 278.93962,9 278.864737,9 L262.135106,9 C262.06038,9 262,9.08251939 262,9.18464522 L262,11.8153548 C262,11.9172652 262.06038,12 262.135106,12" id="Fill-79" fill="#FFFFFF"></path>
                    <polygon id="Fill-81" fill="#FFFFFF" points="229 34 279 34 279 31 229 31"></polygon>
                    <polygon id="Fill-83" fill="#FFFFFF" points="255 27 279 27 279 24 255 24"></polygon>
                    <polygon id="Fill-84" fill="#FFFFFF" points="228 27 252 27 252 24 228 24"></polygon>
                    <path d="M68.0236275,236 C68.0236275,236 67.6608414,241.934882 67.6587218,241.947126 C67.5253469,242.700647 67,244.562296 67,245.247183 C67,247.820624 79.3666857,243.062827 76.5951628,241.922315 C76.3442289,241.819042 75.0300464,241.038294 74.9475432,240.16265 C74.8203642,238.813015 74.4980145,236.083295 74.4980145,236.083295 L68.0236275,236 Z" id="Fill-85" fill="#F7A491"></path>
                    <path d="M75.8727082,242.095349 C75.8727082,242.095349 73.0070317,242.804209 71.5391087,242.981206 C70.0713467,243.158493 68.1362183,241.666348 67.098163,242.069379 C65.9553364,242.513033 66.0002383,246.506209 66.0002383,246.506209 C66.0002383,246.506209 81.368447,247.642909 85.6899761,246.467038 C87.4018823,246.001187 81.731525,243.746212 75.8727082,242.095349" id="Fill-86" fill="#B75742"></path>
                    <path d="M88.0236275,235.914492 C88.0236275,235.914492 87.6608414,241.900122 87.6587218,241.912471 C87.5253469,242.672435 87,244.550002 87,245.240746 C87,247.836192 99.3666857,243.037711 96.5951628,241.887447 C96.3442289,241.783292 94.4717634,241.453113 94.3894232,240.569819 C94.2622443,239.208806 94.0248436,235 94.0248436,235 L88.0236275,235.914492 Z" id="Fill-87" fill="#F7A491"></path>
                    <path d="M95.8727082,242.095349 C95.8727082,242.095349 93.0070317,242.804209 91.5391087,242.981206 C90.0713467,243.158493 88.1362183,241.666348 87.098163,242.069379 C85.9553364,242.513033 86.0002383,246.506209 86.0002383,246.506209 C86.0002383,246.506209 101.368447,247.642909 105.689976,246.467038 C107.401882,246.001187 101.731525,243.746212 95.8727082,242.095349" id="Fill-88" fill="#B75742"></path>
                    <path d="M48.7304092,171 L78.6607188,171.128601 C78.6607188,171.128601 92.1806843,170.775524 94.3180919,175.432788 C96.4554995,180.090052 95.9471904,239.238125 95.9471904,239.238125 C95.9471904,239.238125 88.730819,240.307223 88.3611847,239.91254 L80.2353379,204.500396 C79.3661442,201.498829 79.0704698,198.361425 79.3636679,195.25132 L80.1397514,187.0151 L67.7899369,187.643798 C67.7899369,187.643798 53.7887368,187.421953 49.1728478,182.796099 C44.5569587,178.17041 48.7304092,171 48.7304092,171" id="Fill-89" fill="#DD841A"></path>
                    <path d="M28.3388901,169 L60.3894365,170.930607 C60.3894365,170.930607 74.1829533,172.03079 76.3114576,176.602804 C78.4402908,181.174657 74.9530688,239.736346 74.9530688,239.736346 C74.9530688,239.736346 66.9518589,240.220813 66.9681359,239.87631 C66.9873724,239.466264 63.6844585,213.051545 61.8520639,204.686443 C61.2706958,202.031475 61.0671512,199.311287 61.2468557,196.601593 L62.4043307,187.22655 C62.4043307,187.22655 32.6340428,187.060271 31.1562893,185.600733 C26.5592724,181.059715 28.3388901,169 28.3388901,169" id="Fill-90" fill="#F7941D"></path>
                    <path d="M57.5880391,119.599263 C53.113089,118.265558 44.7290306,117.567816 44.7290306,117.567816 C44.7290306,117.567816 39.4736772,116.727704 37.7657615,117.09125 C35.2522097,117.626353 30.5333423,117.871366 30.0943242,128.59808 C29.7799859,136.274381 28.8912298,155.265848 28,168.09033 L60,170 C58.5519989,150.268631 61.8250091,120.861945 57.5880391,119.599263" id="Fill-91" fill="#D8ECFB"></path>
                    <path d="M49.0324168,108 L44,117.142937 C44,117.142937 47.790909,123.818108 51.3767165,123.996265 C54.3855316,124.145871 53.9127414,119.751173 53.9127414,119.751173 C53.9127414,119.751173 54.386027,114.069569 55.8301592,111.524471 C57.2744566,108.979047 49.0324168,108 49.0324168,108" id="Fill-92" fill="#F7A491"></path>
                    <path d="M49.4380325,111.454817 C50.5765373,112.577841 52.4794287,114.058169 54.542157,115 C54.8421841,113.654065 55.259758,112.264102 55.8288439,111.325504 C56.5008248,110.217105 55.0920958,109.424138 53.3808421,108.890876 C51.0883483,108.327439 48.9751715,108 48.9751715,108 L48,109.657826 C48.2480802,110.239735 49.0589194,111.080887 49.4380325,111.454817" id="Fill-93" fill="#F47458"></path>
                    <path d="M51.387337,93.6937933 C51.1900489,93.5446271 46.4645669,105.194895 48.5143194,109.38635 C50.5640719,113.577806 55.9776256,116.345613 58.7121485,114.324469 C61.7368657,112.088804 65.0448603,99.0464842 61.3971529,94.2816448 C57.7496027,89.5168054 51.387337,93.6937933 51.387337,93.6937933" id="Fill-94" fill="#F7A491"></path>
                    <path d="M61.9071751,87.0311232 C57.9855344,86.7597862 54.9504692,88.3323334 53.7984022,89.0411054 C52.0581057,88.7758054 49.5085581,89.0649269 46.0538505,92.2684329 C41.8061531,96.2073062 42.4695499,102.040317 45.1266216,105.540124 C47.7835274,109.03993 46.8952925,112 46.8952925,112 L47.8654978,110.608562 C48.5901236,109.551604 49.1008628,108.360691 49.3144175,107.102718 C49.442683,106.347935 49.5072306,105.511571 49.3829474,104.775224 C49.0550655,102.833933 51.9414554,102.393235 53.0646502,101.1599 C53.9296546,100.210139 54.6692142,97.6985991 56.0562411,96.1170781 L57.4905587,95.0124771 C57.4905587,95.0124771 60.4129559,93.8316799 62.6163691,94.9933872 C64.8199482,96.1549314 66.9389019,87.3791459 61.9071751,87.0311232" id="Fill-95" fill="#4A2009"></path>
                    <path d="M51.8227688,102.871021 C51.3688492,104.236354 50.184711,105.176876 49.1779981,104.971969 C48.1712852,104.767215 47.723423,103.494159 48.1771472,102.128979 C48.6312623,100.763646 49.8152051,99.8231237 50.821918,100.028031 C51.8286309,100.232938 52.2766885,101.505841 51.8227688,102.871021" id="Fill-96" fill="#F7A491"></path>
                    <path d="M57.0280723,107 L62,108.275386 C62,108.275386 61.4637929,110.415817 59.2632296,109.927585 C56.5800974,109.332151 57.0280723,107 57.0280723,107" id="Fill-97" fill="#FFFFFF"></path>
                    <path d="M81,150.356217 L56.592729,143.969368 C56.592729,143.969368 49.1217702,135.614669 42.099945,126 C39.5909522,128.052105 38.5233234,133.470415 36,135.498838 L52.115886,151.367448 C52.6751046,152.101747 79.7630097,154 79.7630097,154 L81,150.356217 Z" id="Fill-98" fill="#F7A491"></path>
                    <path d="M42.3102214,144 C42.3102214,144 33.8515443,133.527678 31.7862619,129.415221 C29.7209795,125.302926 31.9283632,118.793449 36.0282169,118.023071 C40.1279046,117.252532 52,136.038887 52,136.038887 L42.3102214,144 Z" id="Fill-99" fill="#B7E0FF"></path>
                    <path d="M95.3853568,154.566075 C95.6402264,154.238688 95.1039019,153.618803 94.7016188,153.15385 C94.2558757,152.638637 91.4349587,151.232253 90.9508498,151.053342 C90.4669002,150.874586 86.1885625,151.169542 84.5297614,151.574857 C82.8711195,151.980173 81.8174147,151.698281 81.8174147,151.698281 C81.3980978,151.586078 80.7667346,151.431145 80.2773723,151.298806 L79,154.88378 C82.8111034,155.090664 86.7729635,155.628933 87.1346522,155.64415 C88.2806895,155.692412 90.4590997,154.675512 90.957536,154.537948 C91.4558131,154.400691 92.4310353,154.600197 93.0716318,154.943878 C93.7123875,155.287558 95.5889659,156.1277 95.9235916,155.983526 C96.2582173,155.839045 95.3853568,154.566075 95.3853568,154.566075" id="Fill-100" fill="#F7A491"></path>
                    <path d="M357.904674,30.832901 C358.270708,37.6247858 353.033634,43.4259924 346.207006,43.790172 C339.38054,44.1543516 333.549959,38.9438069 333.183925,32.151922 C332.817729,25.3600372 338.054803,19.5588306 344.881269,19.194651 C351.707897,18.83031 357.538478,24.0410161 357.904674,30.832901 M370.630191,25.875474 C369.113649,25.8047689 367.594187,25.7873348 366.080079,25.6867657 C365.803606,25.668363 365.42005,25.424608 365.300472,25.1806916 C364.529302,23.6083914 363.848668,21.9916988 363.06679,20.4248871 C362.839316,19.9690169 362.799079,19.6821609 363.117574,19.2664861 C364.238714,17.8026649 365.320104,16.3086568 366.414961,14.8248187 C366.592623,14.5842923 366.761525,14.3374702 367.06201,13.9135626 C364.999013,12.1049331 362.95857,10.3166434 360.867179,8.48347697 C359.213375,9.99443486 357.68791,11.3438042 356.220367,12.7532244 C355.703279,13.2502585 355.334001,13.378916 354.609883,13.0597745 C353.13001,12.4076089 351.559601,11.9611015 350.043546,11.3854524 C349.811044,11.2971518 349.548687,10.9938302 349.505042,10.7529809 C349.172269,8.91545595 348.835602,7.0750253 348.615917,5.22184191 C348.510455,4.33253988 348.121869,4.05520808 347.297482,4.11106186 C346.980609,4.1326931 346.655949,4.04035678 346.334858,4 C344.900252,4.07651646 343.465484,4.15303291 342.030878,4.22954937 C341.878526,4.28491888 341.730393,4.36676243 341.573336,4.39178363 C339.926021,4.65394128 340.186918,4.51091685 340.108227,6.05981011 C340.012338,7.9468932 339.948412,9.83559057 339.880754,11.4743987 C337.745719,12.510438 335.750218,13.4785165 333.689331,14.4783961 C331.860297,13.1430709 329.949166,11.7475334 328.025541,10.342956 C325.84102,12.102996 324.11031,14.1731374 322.58452,16.485581 C324.081429,18.1009822 325.537128,19.6797395 327.004346,21.2478426 C327.267676,21.5292101 327.366972,21.7358368 327.194502,22.1636187 C326.518897,23.8382637 325.885314,25.5327642 325.327015,27.2490574 C325.166227,27.7438315 324.949462,27.8770089 324.492893,27.9451311 C322.608533,28.2263372 320.730987,28.5511286 318.8476,28.8399217 C318.379836,28.9117568 318.145062,29.0694711 318.090871,29.6002435 C317.847984,31.9811321 318.118128,34.3166598 318.591409,36.6436318 C318.685027,37.1041834 318.967827,37.1571315 319.367608,37.1687542 C321.217734,37.2228323 323.0664,37.3217871 324.916688,37.3631125 C325.449838,37.3750581 325.695483,37.5145311 325.920685,38.0540206 C326.698669,39.9185039 327.585846,41.7377876 328.499471,43.7222112 C327.279196,45.3761935 325.894887,47.2531067 324.510903,49.1293742 C326.30343,51.3502886 328.320185,53.1894278 330.697134,54.6672931 C332.461105,53.0336506 334.177051,51.4442392 335.731235,50.0047935 C337.616731,50.6043338 339.355067,51.2066184 341.125366,51.6942898 C341.794319,51.8784781 342.064788,52.1591999 342.152727,52.8344495 C342.38669,54.6327477 342.691231,56.422006 342.985876,58.2120714 C343.044123,58.5657582 343.018974,59.0338969 343.607452,58.99806 C346.000949,58.8521299 348.394447,58.7087826 350.787945,58.5622068 C351.296596,58.5310514 351.460792,58.255011 351.47296,57.7529726 C351.51839,55.8849379 351.645918,54.0183561 351.659547,52.1508057 C351.664739,51.430195 352.002704,51.1980628 352.59329,50.9404251 C354.051909,50.3040794 355.505336,49.6351254 356.881856,48.8433253 C357.475363,48.5022298 357.782501,48.523861 358.296993,48.9221018 C359.949661,50.2012503 361.653276,51.415828 363.301888,52.6294371 C364.751746,51.7504664 367.948863,48.1254589 368.833932,46.3825302 C367.377422,44.8375112 365.920426,43.2598839 364.420433,41.7240662 C364.045314,41.3398697 364.061052,41.0675421 364.239688,40.5911707 C364.816483,39.0543845 365.28376,37.4774029 365.844818,35.934321 C365.939247,35.6749076 366.264394,35.3662589 366.525615,35.3205751 C368.184286,35.0306519 369.853829,34.7985197 371.52256,34.5663875 C372.45533,34.4367615 372.832234,34.3878491 373,34.0270595 L372.590483,26.4285233 C372.312551,25.9581247 371.857118,25.9326192 370.630191,25.875474" id="Fill-101" fill="#D7EFFF"></path>
                    <polygon id="Fill-102" fill="#13375B" points="320 241 323 241 323 196 320 196"></polygon>
                    <path d="M284.789653,229 C284.789653,229 284.120459,235.709864 284.560463,237.897985 C284.619453,238.190849 284.749198,238.561882 284.900379,238.970839 C285.353922,240.197555 284.111755,243.943488 284.111755,243.943488 L267.455727,244 C266.548479,244.003082 267.155138,243.475091 267.893314,242.990752 C269.101312,242.197914 270.07448,241.675805 273.921539,240.024499 C274.172486,239.916764 275.087631,239.398061 275.417715,239.218659 C276.254046,238.763419 277.097792,238.041785 277.825653,237.317675 C279.03768,236.111701 279.222063,230.19808 279.222063,230.19808 L284.789653,229 Z" id="Fill-103" fill="#F7A491"></path>
                    <path d="M275.669307,240.2343 C280.040663,241.323763 283.291656,240.654424 285.114312,240 C285.565442,241.229297 286.340917,245.848639 285.834419,245.848639 C281.675388,245.848639 278.229242,246.114946 266.312731,245.941085 C265.886155,245.93487 265.938153,244.578635 266.216438,244.279234 C266.985013,243.452504 275.339987,240.415152 275.669307,240.2343" id="Fill-104" fill="#0F0571"></path>
                    <path d="M266,218.076853 C266,218.076853 262.341237,224.18344 261.749762,226.436526 C261.670607,226.738381 261.620589,227.142363 261.572999,227.590783 C261.430391,228.936203 258.594255,232 258.594255,232 L243.349922,225.427542 C242.519526,225.069614 243.313663,224.80945 244.207999,224.64301 C245.671957,224.370564 246.798253,224.261812 251.063222,224.224 C251.341154,224.221414 252.413061,224.092787 252.796047,224.053681 C253.76711,223.954302 254.865726,223.604615 255.85945,223.206289 C257.514739,222.543113 260.368681,217 260.368681,217 L266,218.076853 Z" id="Fill-105" fill="#F7A491"></path>
                    <path d="M253.252875,224.16247 C256.76086,226.898055 260.037401,227.55366 262,227.660778 C261.858293,228.984084 260.760141,233.192432 260.296767,232.993156 C256.491325,231.356453 252.942345,230.650392 242.117867,225.799173 C241.73035,225.625523 242.389661,224.38196 242.779275,224.212448 C243.855477,223.7445 252.870039,224.201306 253.252875,224.16247" id="Fill-106" fill="#0F0571"></path>
                    <path d="M318.009563,165.094467 L318.009563,168.706705 L282.751444,175.848644 L274,201.168204 L278.876791,197.961523 L277.750734,236.950217 L285.167067,237 C285.167067,237 298.016862,204.287967 293.801672,187.836196 L332.824687,188.41121 C332.824687,188.41121 350.510234,181.833582 341.384619,162 L318.009563,165.094467 Z" id="Fill-107" fill="#F7941D"></path>
                    <path d="M318,169 C318,169 280.983818,169.236152 278.35522,171.16184 C275.726458,173.087527 256,220.943472 256,220.943472 L264.603737,224 C264.603737,224 281.72049,196.85042 282.626224,194.913711 C283.532283,192.977002 290.16168,178.819368 292.692229,177.375062 C295.222778,175.930918 318,169 318,169" id="Fill-108" fill="#E88418"></path>
                    <path d="M337.42689,242 L306.573274,242 C305.152071,242 304,243.143274 304,244.553464 C304,244.800097 304.201604,245 304.449971,245 L339.550029,245 C339.798559,245 340,244.800097 340,244.553464 C340,243.143274 338.847929,242 337.42689,242" id="Fill-109" fill="#13375B"></path>
                    <path d="M322.931037,240 L319.068963,240 C317.926296,240 317,240.895421 317,242 C317,243.104579 317.926296,244 319.068963,244 L322.931037,244 C324.073704,244 325,243.104579 325,242 C325,240.895421 324.073704,240 322.931037,240" id="Fill-110" fill="#13375B"></path>
                    <path d="M330.56416,116.378561 C330.56416,116.378561 338.000188,114.915818 341.393481,117.740945 C344.786937,120.566395 340.666602,145.686106 340.670019,149.850269 C340.673598,154.014756 343,165.779928 343,165.779928 C343,165.779928 320.462369,169.711272 316.882313,163.460001 C316.882313,163.460001 315.863902,139.643172 316.015362,136.648295 C316.167148,133.653418 319.508544,121.404611 320.432435,120.092974 C321.356,118.781175 330.56416,116.378561 330.56416,116.378561" id="Fill-111" fill="#3EA8E6"></path>
                    <path d="M332.091642,105.168906 C332.091642,105.168906 332.132573,105.392208 332.206249,105.772 C332.559791,107.594516 333.92143,113.639674 334.841014,115.301778 C335.952632,117.310187 331.035792,123.716026 326.303483,122.934224 C324.894773,122.701448 327.494064,117.048498 327.369225,116.449814 C327.130119,115.303411 326.805741,113.739645 326.474029,112.136184 C326.286769,111.231706 326.097293,110.314649 325.919072,109.452805 C325.413062,107.003346 325,105 325,105 L332.091642,105.168906 Z" id="Fill-112" fill="#F7A491"></path>
                    <path d="M331.796994,106.758848 C331.727503,106.385526 331.688896,106.166028 331.688896,106.166028 L325,106 C325,106 325.389604,107.969217 325.866877,110.376947 C326.03401,111.219452 326.211761,112.115587 326.38726,113 C327.419823,112.848423 328.499035,112.348412 329.580982,111.404909 C330.76041,110.376465 331.533344,109.140567 332,107.820851 C331.917479,107.399679 331.84863,107.036633 331.796994,106.758848" id="Fill-113" fill="#F47458"></path>
                    <path d="M326.579784,90.0182909 C326.579784,90.0182909 329.770062,89.6465511 331.769887,92.254816 C333.769712,94.863081 335.92516,102.929178 330.957423,107.314392 C325.989523,111.699771 321.08104,106.735893 320.353224,101.472813 C319.625408,96.2095688 319.342486,89.8283088 326.579784,90.0182909" id="Fill-114" fill="#F7A491"></path>
                    <path d="M319.403821,102.255065 C319.969357,103.570905 320.918488,104.299487 321.52392,103.882596 C322.129353,103.465333 322.161642,102.060677 321.596106,100.744837 C321.030571,99.428996 320.081595,98.7004147 319.476162,99.1174917 C318.87073,99.5345686 318.838285,100.939224 319.403821,102.255065" id="Fill-115" fill="#F7A491"></path>
                    <path d="M326,89.0843744 C326,89.0843744 330.357235,97.0383297 333.473943,97.4059051 C336.590818,97.7734804 337,102 337,102 C337,102 335.885773,92.2610441 332.800015,90.3829132 C329.714424,88.5049528 326,89.0843744 326,89.0843744" id="Fill-116" fill="#4A2009"></path>
                    <path d="M332.078155,99.1747155 C331.773516,100.543527 332.386397,101.798781 333.44803,101.978457 C334.509264,102.158133 335.616934,101.19413 335.921773,99.8253183 C336.226612,98.4565068 335.613531,97.2012533 334.552097,97.0215771 C333.490864,96.8417357 332.382994,97.805904 332.078155,99.1747155" id="Fill-117" fill="#F7A491"></path>
                    <path d="M323,104.246785 L327,104 C327,104 326.986551,105.815721 325.230121,105.984683 C323.08838,106.190892 323,104.246785 323,104.246785" id="Fill-118" fill="#FFFFFF"></path>
                    <path d="M336.910634,184.84977 C336.910634,184.84977 300.462567,185.479955 296.662845,184.84977 C292.863123,184.219584 291.21847,189.0321 292.352708,191.553003 C293.486946,194.073907 296.606061,195.047622 301.199959,195.276913 C305.793696,195.506042 344.018859,196.594484 345.096313,195.563406 C345.976473,194.72104 357.564382,154.700292 361.780792,140.064743 C362.623687,137.139524 360.961612,134.082792 358.067699,133.224945 C355.187499,132.371172 352.164208,134.02168 351.293244,136.923596 L336.910634,184.84977 Z" id="Fill-119" fill="#F47458"></path>
                    <polygon id="Fill-120" fill="#8CCEFF" points="40 241 43 241 43 196 40 196"></polygon>
                    <path d="M25.5731702,243 L56.4269924,243 C57.8480065,243 59,244.143187 59,245.5535 C59,245.799978 58.7986003,246 58.550061,246 L23.449939,246 C23.2013997,246 23,245.799978 23,245.5535 C23,244.143187 24.1519935,243 25.5731702,243" id="Fill-121" fill="#8CCEFF"></path>
                    <path d="M39.3275959,241 L43.6724041,241 C44.9578515,241 46,241.895472 46,243 C46,244.104528 44.9578515,245 43.6724041,245 L39.3275959,245 C38.0421485,245 37,244.104528 37,243 C37,241.895472 38.0421485,241 39.3275959,241" id="Fill-122" fill="#8CCEFF"></path>
                    <path d="M61.2347101,190 L59.1076894,181.385834 C57.6202406,175.36113 52.1364032,170.978073 45.7722789,170.72773 L18.8314273,169.668368 L18,167 L45.8813987,168.096438 C53.449749,168.394314 59.9707126,173.606354 61.7397554,180.770751 L64,189.924263 C63.234696,189.956111 62.3009892,189.980987 61.2347101,190" id="Fill-123" fill="#8CCEFF"></path>
                    <path d="M25.4477478,184.849739 C25.4477478,184.849739 62.4164169,185.480123 66.2704682,184.849739 C70.1245196,184.219517 71.7926619,189.032047 70.6422862,191.552934 C69.4917479,194.073822 66.3278894,195.047668 61.6684776,195.276913 C57.0090657,195.505997 18.2380546,196.594547 17.1451001,195.563348 C16.2523877,194.721055 4.49893832,154.700346 0.22228012,140.06478 C-0.632530989,137.139675 1.05334196,134.082856 3.98849165,133.225009 C6.90981472,132.37105 9.97639874,134.021778 10.8596764,136.923715 L25.4477478,184.849739 Z" id="Fill-124" fill="#BDE3FF"></path>
                    <path d="M141.989182,130 L111.185319,130 C110.370359,130 109.636149,130.490606 109.326965,131.24181 L99.8421789,154.28814 L82.8598014,154.28814 C82.3850585,154.28814 82,154.671269 82,155.14407 C82,155.616709 82.3850585,156 82.8598014,156 L131.193086,156 C132.521781,156 133.726835,155.222897 134.271116,154.01524 L143.821541,132.820457 C144.418138,131.49642 143.445906,130 141.989182,130" id="Fill-125" fill="#86B1F2"></path>
                    <path d="M125.949226,143.344807 C125.703191,144.432744 124.630821,145.160076 123.554223,144.969738 C122.477624,144.77923 121.804678,143.743003 122.050714,142.655066 C122.296942,141.5673 123.369119,140.839798 124.445718,141.030306 C125.522316,141.220814 126.195454,142.256871 125.949226,143.344807" id="Fill-126" fill="#FFFFFF"></path>
                    <path d="M246.010818,130 L276.814681,130 C277.629478,130 278.363851,130.490606 278.672873,131.24181 L288.157659,154.28814 L305.140036,154.28814 C305.614942,154.28814 306,154.671269 306,155.14407 C306,155.616709 305.614942,156 305.140036,156 L256.806752,156 C255.478056,156 254.273002,155.222897 253.728721,154.01524 L244.178459,132.820457 C243.581862,131.49642 244.554094,130 246.010818,130" id="Fill-127" fill="#D7E1E6"></path>
                    <path d="M262.050776,143.344807 C262.29682,144.432744 263.369032,145.160076 264.445666,144.969738 C265.5223,144.77923 266.195461,143.743003 265.949225,142.655066 C265.703181,141.5673 264.630968,140.839798 263.554142,141.030306 C262.4777,141.220814 261.80454,142.256871 262.050776,143.344807" id="Fill-128" fill="#FFFFFF"></path>
                    <path d="M77.7571123,161 L306.242888,161 C306.661082,161 307,160.672518 307,160.268435 L307,156.731565 C307,156.327639 306.661082,156 306.242888,156 L77.7571123,156 C77.338918,156 77,156.327639 77,156.731565 L77,160.268435 C77,160.672518 77.338918,161 77.7571123,161" id="Fill-129" fill="#7DC4F9"></path>
                    <polygon id="Fill-130" fill="#7DC4F9" points="295.196057 246 299 246 290.803943 161 287 161"></polygon>
                    <polygon id="Fill-131" fill="#7DC4F9" points="263.803943 246 260 246 268.196057 161 272 161"></polygon>
                    <polygon id="Fill-132" fill="#7DC4F9" points="118.195942 246 122 246 113.80389 161 110 161"></polygon>
                    <path d="M234,116.14676 C233.799279,116.854179 233.683293,117.08879 233.427921,117.563818 C231.780375,120.627764 227.957327,125 227.957327,125 L225,118.192692 C225,118.192692 225.482164,116.055409 226.318304,113 C229.174686,113.761718 231.894691,114.202766 234,116.14676" id="Fill-133" fill="#F8A492"></path>
                    <path d="M218,110.091741 C218,110.091741 233.898289,117.132619 234.412494,116.998097 C234.743537,116.911452 240.933803,106.255705 241,96.2352937 C241.030458,91.6070348 236.356869,86.039937 231.142334,87.1409646 C228.517186,87.6952888 228.557781,88.4462605 224.673863,94.2502631 C220.789784,100.054431 218,110.091741 218,110.091741" id="Fill-134" fill="#DD841A"></path>
                    <path d="M203.874115,233 C203.874115,233 204.273161,239.52834 204.275377,239.541814 C204.422313,240.370658 205,242.418427 205,243.171982 C205,246.002614 191.396651,240.768994 194.445319,239.514529 C194.721463,239.401007 196.16696,238.542183 196.257644,237.578933 C196.397592,236.094393 196.752318,233.091457 196.752318,233.091457 L203.874115,233 Z" id="Fill-135" fill="#F7A491"></path>
                    <path d="M194.139914,240.114225 C194.139914,240.114225 197.292255,240.964894 198.906933,241.177561 C200.521281,241.390081 202.649945,239.599588 203.791954,240.083273 C205.04899,240.615682 204.99974,245.407507 204.99974,245.407507 C204.99974,245.407507 188.094704,246.771479 183.341072,245.360412 C181.457832,244.801346 187.695249,242.095466 194.139914,240.114225" id="Fill-136" fill="#DD513A"></path>
                    <path d="M230.874102,233 C230.874102,233 231.273153,239.52834 231.275539,239.541814 C231.422306,240.370658 232,242.418427 232,243.171982 C232,246.002614 218.396498,240.768994 221.445371,239.514529 C221.721348,239.401007 223.595571,237.901139 223.686256,236.937889 C223.826035,235.453349 223.752225,233.091457 223.752225,233.091457 L230.874102,233 Z" id="Fill-137" fill="#F7A491"></path>
                    <path d="M221.085866,240.112344 C221.085866,240.112344 224.225046,240.949002 225.833067,241.158167 C227.440923,241.367186 229.560812,239.606183 230.698112,240.081902 C231.949965,240.605541 232,245.318445 232,245.318445 C232,245.318445 215.088294,246.882372 210.331547,245.272125 C208.484709,244.646962 214.667772,242.060954 221.085866,240.112344" id="Fill-138" fill="#DD513A"></path>
                    <path d="M226,118.947134 L214.544136,102.786859 C214.496054,102.645382 214.391904,102.356026 214.232827,101.913704 C213.655845,100.310183 212.455266,96.9734805 211.409363,93.6538475 L211.39828,93.618396 C211.069531,92.4583463 210.373241,90.4341678 209.69928,88.4758042 C208.950344,86.2988235 208.021142,83.598934 207.988708,83.1382295 C208.017557,83.0596127 208.071506,82.9182993 208.143221,82.730538 C208.563408,81.6323641 209.131099,79.0178207 209.331902,77.8807488 C209.460012,77.1567845 209.587632,75.3970146 208.73308,75.3970146 C207.389233,75.3970146 208.029618,77.1544867 207.410096,78.2523323 C207.182237,77.5185204 206.721955,76.0632062 206.478775,74.5901662 L206.254339,71.1544954 C206.210984,70.8953388 206.484806,69 205.542076,69 L205.497091,69.0014771 C204.650524,69.0638454 204.669431,71.0789969 204.317537,74.4870944 C204.206215,74.094995 204.094894,73.6219809 204.010791,73.1872085 C204.020571,72.9541481 203.851062,71.9295031 203.724256,71.3887046 C203.894254,70.4390657 203.795483,68.9412425 202.79098,69.0823918 C202.287669,69.1534588 202.329231,71.2437804 202.329231,71.2437804 C202.33461,71.5305103 202.364111,73.7408089 202.348953,74.1773868 C202.245292,73.4358609 201.842871,70.272805 201.054981,70.272805 C200.401394,70.272805 200.349074,71.124296 200.362765,71.7977091 C200.370752,72.1963737 200.781159,75.6231816 200.80414,76.021682 C200.496417,75.5017277 200.131647,72.4819547 199.826857,72.4819547 C198.552607,72.4819547 199.013214,76.7756816 199.481319,77.8945354 C199.525164,78.0087678 199.571942,78.2334577 199.62638,78.4934349 C199.785294,79.2584309 200.051782,80.5386217 200.718897,81.6881673 C201.518848,83.0663419 202.622286,85.2574375 202.790817,85.5934055 C202.914037,86.2778152 203.297387,88.7392281 203.77951,91.8356484 C203.986017,93.1604817 204.212083,94.6134982 204.447766,96.1182146 L204.460316,96.1164092 C204.503345,96.4422014 204.742287,97.4776787 205.648508,101.362565 C206.888367,106.678803 207.017128,106.908581 207.072219,107.006729 C207.610572,107.966544 219.962388,124.857512 220.488029,125.575896 L220.798034,126 L226,118.947134 Z" id="Fill-139" fill="#F7A491"></path>
                    <path d="M205,82 C205,82 206.078941,79.1128797 208,79.1075365 C208,79.1075365 206.926923,78.7024412 206.006305,79.4647407 C205.085876,80.2272381 205,82 205,82" id="Fill-140" fill="#F47458"></path>
                    <path d="M228.580487,76.5636029 L230,86.1894518 C230,86.1894518 224.591167,90.8462687 221.438211,89.8638675 C218.792471,89.0397608 220.606868,85.3313648 220.606868,85.3313648 C220.606868,85.3313648 222.016183,80.1925994 221.583645,77.4990709 C221.151265,74.8057105 228.580487,76.5636029 228.580487,76.5636029" id="Fill-141" fill="#F7A491"></path>
                    <path d="M227.605862,80.2622951 C226.142821,80.9070015 223.250598,81.7869941 221,82 C221.215342,80.7347638 221.338081,79.396208 221.155412,78.4073422 C220.940239,77.2397601 222.532113,76.9635476 224.308518,77.0036838 C226.633266,77.1896689 228.705597,77.5286138 228.705597,77.5286138 L229,79.2663186 C228.557973,79.7014954 228.09326,80.0477091 227.605862,80.2622951" id="Fill-142" fill="#FE875E"></path>
                    <path d="M235.984657,65.9737763 C236.219904,65.9749083 233.730124,76.3120421 229.876838,78.0904755 C226.023551,79.8689088 220.276708,78.9419306 219.19841,76.1577614 C218.005797,73.07813 222.356378,62.5314072 227.775992,61.1917198 C233.195607,59.8518708 235.984657,65.9737763 235.984657,65.9737763" id="Fill-143" fill="#F7A491"></path>
                    <path d="M232.042864,57.4863151 C235.047979,59.2131885 236.427377,61.774291 236.891591,62.8231923 C238.302,63.4900606 240.008479,64.9325816 240.82788,68.8187307 C241.835131,73.5972023 238.253867,77.2805874 234.456809,78.3887088 C230.660075,79.4966692 230.07375,82 230.07375,82 L229.643133,79.3059745 C229.643133,79.3059745 230.487731,76.96051 231.757616,75.7867317 C233.027986,74.6127925 231.156109,72.9020115 230.991518,71.5066411 C230.864884,70.4321528 231.658926,68.3459366 231.486905,66.5828553 C231.486905,66.5828553 229.377106,63.3973685 227.297511,62.6102901 C223.752105,61.2683465 228.187174,55.2705552 232.042864,57.4863151" id="Fill-144" fill="#4A2009"></path>
                    <path d="M230.334697,72.9519974 C229.723134,74.298836 229.973182,75.6360061 230.892836,75.938648 C231.812489,76.2412899 233.053891,75.3948412 233.665454,74.0480026 C234.276816,72.701164 234.026768,71.3639939 233.107114,71.061352 C232.187461,70.7587101 230.946059,71.6051588 230.334697,72.9519974" id="Fill-145" fill="#F7A491"></path>
                    <path d="M216,119 L194,115.372707 C194,115.372707 196.503168,109 197.397435,109 C198.291864,109 214.032483,115.94903 214.032483,115.94903 L215.284554,118.49145 L216,119 Z" id="Fill-146" fill="#F8A492"></path>
                    <path d="M227.204655,134.013454 C227.204655,134.013454 229.426561,144.708203 228.521139,152.817141 C227.615553,160.926243 227.544414,189.732306 227.544414,189.732306 L231,235.822204 L222.800931,236 C222.800931,236 213.078861,189.932347 213.259912,191.115092 C213.440964,192.297509 210,158.678685 210,158.678685 L221.590416,133 L227.204655,134.013454 Z" id="Fill-147" fill="#1179C5"></path>
                    <path d="M224.467418,134.509093 C224.467418,134.509093 225.873718,144.033634 224.115923,148.211056 C222.35781,152.38864 209.037679,193.377076 208.861772,196.719045 C208.686025,200.061177 204.256453,237 204.256453,237 L195.001959,236.735969 L193,195.667127 L197.192264,144.050298 L201.262366,131 L224.467418,134.509093 Z" id="Fill-148" fill="#2C94E0"></path>
                    <path d="M231,87.4411527 C231,87.4411527 228.609901,89.1858728 226.380979,88.9836941 C224.151724,88.7817013 221,86.4930685 221,86.4930685 L221.437934,84.8412614 C221.437934,84.8412614 227.20457,83.9065567 227.350047,84.007646 C227.495524,84.1087353 231,87.4411527 231,87.4411527" id="Fill-149" fill="#F7A491"></path>
                    <path d="M205,108.542175 C205,108.542175 196.697909,116.149679 192.950531,114.850768 C189.202991,113.551857 187.65243,109.112011 196.795851,102.616197 C204.979116,96.8026142 205,108.542175 205,108.542175" id="Fill-150" fill="#F8A492"></path>
                    <path d="M199.860856,119.281312 C201.096554,112.556842 210.052524,91.6312586 210.767698,87.77693 C211.115633,85.9024959 215.946339,85.861123 220.547683,86.1056286 C225.40791,86.3640873 230.236021,86.9790016 230.236021,86.9790016 C230.236021,86.9790016 234.538578,87.6859097 236.431542,89.4600755 C238.324667,91.2342413 238.827673,96.1410631 236.106315,105.455636 C233.9582,112.808324 231.295074,116.845667 229.9773,122.201425 C229.710306,123.997981 229.481593,125.770362 229.178589,127.841114 C228.694237,135.849278 229.184266,146.428726 229.184266,146.428726 C229.184266,146.428726 205.761321,151.288334 197,143.91504 C197,143.91504 198.594663,126.170786 199.860856,119.281312" id="Fill-151" fill="#F7941D"></path>
                    <path d="M194,104.452791 C194,104.452791 203.118214,112 203.650566,112 C203.993183,112 216.662609,102.654699 219.587003,94.9771062 C221.203853,90.73288 217.812765,85.984065 213.939214,86 C211.254442,86.0108517 210.060835,86.7045604 204.738926,91.2045504 C199.417339,95.7045403 194,104.452791 194,104.452791" id="Fill-152" fill="#DD841A"></path>
                    <polygon id="Fill-153" fill="#7DC4F9" points="86.8040578 246 83 246 91.1961103 161 95 161"></polygon>
                    <path d="M298.242969,142.569412 C297.988134,141.842685 301.577803,141.269188 301.771394,140.535785 C301.964984,139.802383 297.244474,139.729106 297.07787,139.083604 C296.770678,137.894805 302.252623,138.851217 302.146617,138.295363 C302.040449,137.739668 296.436661,136.479341 297.046359,135.528016 C297.655895,134.577009 302.718501,137.431302 302.87444,136.785005 C303.030218,136.138708 297.923658,134.547285 298.020291,133.129437 C298.07184,132.371874 306.397371,136.938235 307.366294,136.529411 C308.335217,136.120747 306.339681,132.551489 307.111943,132.025518 C307.884044,131.499548 310.067191,139.275776 310.597707,139.536934 C311.126607,139.797296 322.374905,146.16283 326.381004,147.182663 C326.872737,145.863365 330.396637,138.870927 330.830519,137.623316 C333.074749,139.205997 335.682891,139.558869 338,141.002626 C336.303092,145.143632 330.48713,155.333382 329.313143,155.850292 C325.738987,157.423913 311.977243,146.116893 309.22916,144.180704 C306.478653,142.242448 304.89874,142.86236 303.036197,142.24674 C301.173977,141.631121 298.497966,143.29582 298.242969,142.569412" id="Fill-155" fill="#F7A491"></path>
                    <path d="M339.337867,141 C339.337867,141 344.169687,130.253561 344.903399,126.083354 C345.636951,121.913308 342.071008,116.678028 338.335587,117.015518 C334.600326,117.353009 329,135.906762 329,135.906762 L339.337867,141 Z" id="Fill-156" fill="#3EA8E6"></path>
                    <path d="M220.114916,73 L224,74.968196 C224,74.968196 223.245787,76.5826931 221.514996,75.7725623 C219.404811,74.7849643 220.114916,73 220.114916,73" id="Fill-157" fill="#FFFFFF"></path>
                    <path d="M380.746131,83.8925614 C377.733336,87.9678351 371.991542,88.8261373 367.921436,85.8095173 C363.851492,82.7928972 362.994278,77.0439748 366.006911,72.9687011 C369.019544,68.8934273 374.761338,68.0351252 378.831606,71.0517452 C382.90155,74.0682032 383.758764,79.8172877 380.746131,83.8925614 M390.362953,87.057662 C389.53067,86.3003461 388.671352,85.5723698 387.854611,84.7990063 C387.705347,84.65782 387.602384,84.3365443 387.649657,84.139921 C387.955145,82.8721625 388.333485,81.6217484 388.630393,80.3520448 C388.716681,79.9826263 388.829843,79.7988086 389.208669,79.7104659 C390.5433,79.3992402 391.86935,79.0518669 393.198315,78.7166509 C393.41363,78.6623485 393.627165,78.6004276 394,78.498955 C393.679941,76.4847411 393.363444,74.4932208 393.039014,72.4516125 C391.378172,72.5383343 389.86708,72.5926367 388.360683,72.7090221 C387.82968,72.7500326 387.557864,72.6496947 387.295763,72.1241772 C386.760227,71.0501243 386.075427,70.0514463 385.483067,69.0043015 C385.392084,68.8438258 385.386256,68.5454057 385.47562,68.3865509 C386.157344,67.1732569 386.838096,65.9568831 387.591538,64.7883278 C387.953365,64.2276352 387.863029,63.8844765 387.365861,63.5272153 C387.17483,63.3899194 387.033175,63.1834082 386.869017,63.0085058 C386.013584,62.3743834 385.158151,61.7404231 384.30288,61.1064628 C384.189718,61.0664249 384.066357,61.0434072 383.96469,60.9834314 C382.899931,60.3557929 383.116704,60.3968034 382.337036,61.2495942 C381.38722,62.2884721 380.454727,63.3433976 379.638796,64.2530844 C377.928415,63.8392515 376.329902,63.4526508 374.678936,63.0532445 C374.268218,61.421741 373.839044,59.7168076 373.407118,58.0008517 C371.325036,57.9797791 369.354982,58.3511427 367.387033,58.9588433 C367.475264,60.5945614 367.557505,62.189431 367.651401,63.7836523 C367.668238,64.069753 367.626794,64.2354159 367.325515,64.3996199 C366.14549,65.0424955 364.979873,65.7168178 363.846959,66.4391209 C363.520424,66.647253 363.333602,66.6214797 363.040741,66.4447942 C361.831576,65.7160074 360.605412,65.0152632 359.393332,64.2913393 C359.092053,64.1114119 358.883213,64.0911498 358.600551,64.3704425 C357.332458,65.6236122 356.378919,67.093019 355.545341,68.6538484 C355.380212,68.9626426 355.516524,69.1265224 355.739287,69.3223353 C356.769724,70.2276455 357.778468,71.1580807 358.815057,72.0560965 C359.113908,72.314965 359.188054,72.511102 359.060808,72.9275285 C358.620464,74.3664611 358.26398,75.8308429 357.844196,77.4026949 C356.363053,77.776652 354.682299,78.200697 353.002193,78.62458 C352.972081,80.7477229 353.251019,82.7575601 353.907164,84.729791 C355.6891,84.6247523 357.422631,84.5224693 358.992814,84.4297499 C359.784785,85.6652512 360.491602,86.8328339 361.270946,87.9495182 C361.565426,88.371456 361.586796,88.6606365 361.3166,89.0900308 C360.597317,90.2337852 359.922393,91.4059067 359.241479,92.5734894 C359.106947,92.804153 358.870424,93.0612384 359.223509,93.318648 C360.65916,94.3659549 362.093677,95.4147207 363.529652,96.4615414 C363.834979,96.6839381 364.059522,96.6028897 364.304463,96.320193 C365.216558,95.2685095 366.174792,94.2563775 367.068593,93.189619 C367.413421,92.7780554 367.716482,92.8044772 368.175929,92.9354513 C369.3103,93.2591585 370.457461,93.561631 371.618869,93.7571196 C372.119598,93.8414099 372.284565,93.9992921 372.389471,94.4709936 C372.726366,95.9870843 373.122676,97.489883 373.488226,98.96626 C374.733007,99.1463494 378.277776,98.5743101 379.609817,97.9912482 C379.511225,96.4151817 379.427689,94.8204741 379.299957,93.2291706 C379.267903,92.8310611 379.40632,92.6820942 379.734149,92.4929273 C380.792108,91.882471 381.807166,91.1971261 382.859459,90.5756472 C383.036244,90.4710949 383.368444,90.4475908 383.53924,90.5446868 C384.623749,91.1621132 385.68705,91.8176323 386.749704,92.4728273 C387.343844,92.8390038 387.58231,92.9891054 387.849107,92.8610489 L391.219681,88.3017544 C391.284276,87.9002408 391.03642,87.6702256 390.362953,87.057662" id="Fill-158" fill="#EAF4FF"></path>
                </g>
            </g>
        </g>
    </g>
</svg>