<?xml version="1.0" encoding="UTF-8"?>
<svg width="250px" height="171px" viewBox="0 0 250 171" version="1.1" xmlns="http://www.w3.org/2000/svg" xmlns:xlink="http://www.w3.org/1999/xlink">
    <title>C44BD23A-09B4-4935-B493-07343AC0FB5C@1x</title>
    <defs>
        <linearGradient x1="50%" y1="100%" x2="50%" y2="3.061617e-15%" id="linearGradient-1">
            <stop stop-color="#57C6F2" offset="0%"></stop>
            <stop stop-color="#2C94E0" offset="100%"></stop>
        </linearGradient>
        <path d="M0.958974359,22.1398974 C0.958974359,33.8664615 10.4652308,43.3749744 22.1929231,43.3749744 L22.1929231,43.3749744 C33.9206154,43.3749744 43.428,33.8664615 43.428,22.1398974 L43.428,22.1398974 C43.428,10.4122051 33.9206154,0.905948718 22.1929231,0.905948718 L22.1929231,0.905948718 C10.4652308,0.905948718 0.958974359,10.4122051 0.958974359,22.1398974" id="path-2"></path>
        <path d="M0.0795789474,22.1398974 C0.0795789474,33.8664615 9.39363158,43.3749744 20.8817368,43.3749744 L20.8817368,43.3749744 C32.3709474,43.3749744 41.685,33.8664615 41.685,22.1398974 L41.685,22.1398974 C41.685,10.4122051 32.3709474,0.905948718 20.8817368,0.905948718 L20.8817368,0.905948718 C9.39363158,0.905948718 0.0795789474,10.4122051 0.0795789474,22.1398974" id="path-4"></path>
        <path d="M0.326052632,21.7077949 C0.326052632,33.434359 9.639,42.9417436 21.1271053,42.9417436 L21.1271053,42.9417436 C32.6163158,42.9417436 41.9314737,33.434359 41.9314737,21.7077949 L41.9314737,21.7077949 C41.9314737,9.98010256 32.6163158,0.471589744 21.1271053,0.471589744 L21.1271053,0.471589744 C9.639,0.471589744 0.326052632,9.98010256 0.326052632,21.7077949" id="path-6"></path>
        <path d="M17.0043548,0.114032258 L17.0043548,3.57451613 C17.2335484,3.56322581 17.4616129,3.55645161 17.6930645,3.55645161 L17.6930645,3.55645161 C25.2316129,3.55645161 31.3430645,9.66790323 31.3430645,17.2075806 L31.3430645,17.2075806 C31.3430645,24.745 25.2316129,30.8564516 17.6930645,30.8564516 L17.6930645,30.8564516 C10.1545161,30.8564516 4.04306452,24.745 4.04306452,17.2075806 L4.04306452,17.2075806 C4.04306452,15.3706452 4.40887097,13.6195161 5.06596774,12.0196774 L5.06596774,12.0196774 L1.89225806,10.641129 C1.05112903,12.6620968 0.585967742,14.8806452 0.585967742,17.2075806 L0.585967742,17.2075806 C0.585967742,26.6553226 8.24532258,34.3135484 17.6930645,34.3135484 L17.6930645,34.3135484 C27.1419355,34.3135484 34.8012903,26.6553226 34.8012903,17.2075806 L34.8012903,17.2075806 C34.8012903,7.75870968 27.1419355,0.100483871 17.6930645,0.100483871 L17.6930645,0.100483871 C17.4616129,0.100483871 17.2335484,0.106129032 17.0043548,0.114032258" id="path-8"></path>
        <path d="M8.425125,0.114032258 L8.425125,3.57451613 C8.652375,3.56322581 8.88075,3.55645161 9.111375,3.55645161 L9.111375,3.55645161 C16.621875,3.55645161 22.712625,9.66790323 22.712625,17.2075806 L22.712625,17.2075806 C22.712625,24.745 16.621875,30.8564516 9.111375,30.8564516 L9.111375,30.8564516 C6.44625,30.8564516 3.963375,30.0853226 1.864125,28.7553226 L1.864125,28.7553226 L0.15525,31.7630645 C2.7585,33.3798387 5.826375,34.3135484 9.111375,34.3135484 L9.111375,34.3135484 C18.525375,34.3135484 26.157375,26.6553226 26.157375,17.2075806 L26.157375,17.2075806 C26.157375,7.75870968 18.525375,0.100483871 9.111375,0.100483871 L9.111375,0.100483871 C8.88075,0.100483871 8.652375,0.106129032 8.425125,0.114032258" id="path-10"></path>
        <path d="M13.6993103,0.114032258 L13.6993103,3.57451613 C13.9233103,3.56322581 14.1473103,3.55645161 14.3724138,3.55645161 L14.3724138,3.55645161 C21.7412414,3.55645161 27.7131034,9.66790323 27.7131034,17.2075806 L27.7131034,17.2075806 C27.7131034,24.745 21.7412414,30.8564516 14.3724138,30.8564516 L14.3724138,30.8564516 C9.78537931,30.8564516 5.74234483,28.4877419 3.34013793,24.8816129 L3.34013793,24.8816129 L0.60137931,26.9093548 C3.6182069,31.3825806 8.66096552,34.3135484 14.3724138,34.3135484 L14.3724138,34.3135484 C23.6071724,34.3135484 31.0918621,26.6553226 31.0918621,17.2075806 L31.0918621,17.2075806 C31.0918621,7.75870968 23.6071724,0.100483871 14.3724138,0.100483871 L14.3724138,0.100483871 C14.1473103,0.100483871 13.9233103,0.106129032 13.6993103,0.114032258" id="path-12"></path>
        <path d="M4.89076923,0.471375 C2.71784615,0.471375 0.958974359,2.226375 0.958974359,4.393125 L0.958974359,4.393125 C0.958974359,6.55875 2.71784615,8.314875 4.89076923,8.314875 L4.89076923,8.314875 L39.4950769,8.314875 C41.6668718,8.314875 43.428,6.55875 43.428,4.393125 L43.428,4.393125 C43.428,2.226375 41.6668718,0.471375 39.4950769,0.471375 L39.4950769,0.471375 L4.89076923,0.471375 Z" id="path-14"></path>
        <path d="M3.93252632,0.471375 C1.80489474,0.471375 0.0795789474,2.226375 0.0795789474,4.393125 L0.0795789474,4.393125 C0.0795789474,6.55875 1.80489474,8.314875 3.93252632,8.314875 L3.93252632,8.314875 L37.8320526,8.314875 C39.9596842,8.314875 41.685,6.55875 41.685,4.393125 L41.685,4.393125 C41.685,2.226375 39.9596842,0.471375 37.8320526,0.471375 L37.8320526,0.471375 L3.93252632,0.471375 Z" id="path-16"></path>
        <path d="M4.17789474,0.471375 C2.05026316,0.471375 0.326052632,2.226375 0.326052632,4.393125 L0.326052632,4.393125 C0.326052632,6.55875 2.05026316,8.314875 4.17789474,8.314875 L4.17789474,8.314875 L38.0785263,8.314875 C40.2072632,8.314875 41.9314737,6.55875 41.9314737,4.393125 L41.9314737,4.393125 C41.9314737,2.226375 40.2072632,0.471375 38.0785263,0.471375 L38.0785263,0.471375 L4.17789474,0.471375 Z" id="path-18"></path>
        <path d="M4.89076923,0.291178571 C2.71784615,0.291178571 0.958974359,2.02053571 0.958974359,4.15067857 L0.958974359,4.15067857 L0.958974359,26.8781071 C0.958974359,29.0093571 2.71784615,30.7376071 4.89076923,30.7376071 L4.89076923,30.7376071 L39.4950769,30.7376071 C41.6668718,30.7376071 43.428,29.0093571 43.428,26.8781071 L43.428,26.8781071 L43.428,4.15067857 C43.428,2.02053571 41.6668718,0.291178571 39.4950769,0.291178571 L39.4950769,0.291178571 L4.89076923,0.291178571 Z" id="path-20"></path>
        <path d="M3.93252632,0.291178571 C1.80489474,0.291178571 0.0795789474,2.02053571 0.0795789474,4.15067857 L0.0795789474,4.15067857 L0.0795789474,26.8781071 C0.0795789474,29.0093571 1.80489474,30.7376071 3.93252632,30.7376071 L3.93252632,30.7376071 L37.8320526,30.7376071 C39.9596842,30.7376071 41.685,29.0093571 41.685,26.8781071 L41.685,26.8781071 L41.685,4.15067857 C41.685,2.02053571 39.9596842,0.291178571 37.8320526,0.291178571 L37.8320526,0.291178571 L3.93252632,0.291178571 Z" id="path-22"></path>
        <path d="M4.17789474,0.291178571 C2.05026316,0.291178571 0.326052632,2.02053571 0.326052632,4.15067857 L0.326052632,4.15067857 L0.326052632,26.8781071 C0.326052632,29.0093571 2.05026316,30.7376071 4.17789474,30.7376071 L4.17789474,30.7376071 L38.0785263,30.7376071 C40.2072632,30.7376071 41.9314737,29.0093571 41.9314737,26.8781071 L41.9314737,26.8781071 L41.9314737,4.15067857 C41.9314737,2.02053571 40.2072632,0.291178571 38.0785263,0.291178571 L38.0785263,0.291178571 L4.17789474,0.291178571 Z" id="path-24"></path>
        <path d="M1.53748739,0.544721805 C-4.46502521,11.8753684 9.04507563,17.2561805 9.04507563,17.2561805 L9.04507563,17.2561805 C9.04507563,17.2561805 -2.69529412,39.9574135 15.0173697,55.5584962 L15.0173697,55.5584962 C32.7302773,71.1590977 47.9582017,60.0644812 47.9582017,60.0644812 L47.9582017,60.0644812 L57.8242941,29.1856842 C57.8242941,29.1856842 37.9461345,55.074406 23.8314202,46.1076692 L23.8314202,46.1076692 C9.71621849,37.1411729 13.3397563,24.8673684 15.759916,15.587609 L15.759916,15.587609 C16.9028571,13.0899248 16.0996303,10.0448722 14.4266471,8.67681203 L14.4266471,8.67681203 C12.4846218,7.0883609 12.3184202,4.56541353 12.3184202,4.56541353 L12.3184202,4.56541353 C12.3184202,4.56541353 9.80882353,7.42977444 11.1991176,9.52709774 L11.1991176,9.52709774 C11.684563,10.2602105 11.6821261,10.9569925 11.4788824,11.5575338 L11.4788824,11.5575338 C11.272958,11.4579248 11.059479,11.3590376 10.8343025,11.2613534 L10.8343025,11.2613534 C6.36342857,9.32306767 4.23253782,3.86357895 3.35205882,0.735278195 L3.35205882,0.735278195 C3.22168067,0.271879699 2.813,0.0257443609 2.40236975,0.0257443609 L2.40236975,0.0257443609 C2.06363025,0.0257443609 1.72367227,0.193203008 1.53748739,0.544721805" id="path-26"></path>
        <path d="M27.0047907,3.07455049 L0.219935849,78.7053627 L74.5821537,84.1808073 C78.4482928,84.7355265 82.1917893,82.5741921 83.6352541,78.954553 L83.6352541,78.954553 L111.992493,7.833242 C112.889136,5.64783128 111.411148,3.21611946 109.052692,3.00665517 L109.052692,3.00665517 C92.0657259,1.49923461 44.5805862,0.329846059 31.542567,0.0300954433 L31.542567,0.0300954433 C31.5058708,0.0288916256 31.469416,0.0288916256 31.4329612,0.0288916256 L31.4329612,0.0288916256 C29.4701967,0.0288916256 27.7049158,1.23776539 27.0047907,3.07455049" id="path-28"></path>
        <linearGradient x1="50%" y1="26.121898%" x2="50%" y2="100%" id="linearGradient-30">
            <stop stop-color="#57C6F2" offset="0%"></stop>
            <stop stop-color="#2C94E0" offset="100%"></stop>
        </linearGradient>
        <path d="M26.0223184,2.80727554 L0.214988208,72.9705697 L74.166559,77.8142972 L102.674724,5.83865015 C103.250212,4.38586997 102.194948,2.80751703 100.624684,2.77250155 L100.624684,2.77250155 L30.1612665,0.113739938 C30.1068514,0.11180805 30.0524363,0.110600619 29.9982642,0.110600619 L29.9982642,0.110600619 C28.2472642,0.110600619 26.6658255,1.17603715 26.0223184,2.80727554" id="path-31"></path>
        <path d="M0.0431762014,4.41492593 C0.0431762014,5.84240741 1.12597712,7 2.4615286,7 L2.4615286,7 L100.722801,7 C102.75281,7 104.398357,5.24118519 104.398357,3.0717037 L104.398357,3.0717037 L105.943968,1.15162963 L3.91690618,0.218037037 C1.76901144,0.248888889 0.0431762014,2.11892593 0.0431762014,4.41492593" id="path-33"></path>
        <path d="M0.650268657,0.0036407767 C0.404059701,0.0036407767 0.204179104,0.206796117 0.204179104,0.457281553 L0.204179104,0.457281553 C0.204179104,0.708009709 0.404059701,0.911165049 0.650268657,0.911165049 L0.650268657,0.911165049 L12.8365373,0.911165049 C13.5362388,0.911165049 14.1633433,1.24781553 14.5571343,1.83446602 L14.5571343,1.83446602 C14.9509254,2.42063107 15.0304478,3.13567961 14.7758806,3.79660194 L14.7758806,3.79660194 C13.297194,7.63592233 10.1568955,15.9271845 7.38650746,23.2427184 L7.38650746,23.2427184 L6.96262687,24.3621359 C6.87402985,24.5961165 6.98889552,24.8587379 7.21862687,24.9487864 L7.21862687,24.9487864 C7.2718806,24.9691748 7.32561194,24.9793689 7.37910448,24.9793689 L7.37910448,24.9793689 C7.55844776,24.9793689 7.72752239,24.8684466 7.7958209,24.6883495 L7.7958209,24.6883495 L8.21970149,23.5686893 C10.9900896,16.2543689 14.1296716,7.96432039 15.6071642,4.12742718 L15.6071642,4.12742718 C15.9656119,3.19684466 15.8490746,2.14830097 15.294806,1.32305825 L15.294806,1.32305825 C14.7400597,0.49684466 13.8208955,0.0036407767 12.8365373,0.0036407767 L12.8365373,0.0036407767 L0.650268657,0.0036407767 Z" id="path-35"></path>
        <path d="M16.9156989,0.00726993865 C3.45446237,0.0462852761 6.58521147,14.2326012 6.58521147,14.2326012 L6.58521147,14.2326012 C6.58521147,14.2326012 18.8183548,19.7914387 5.92721864,35.3357791 L5.92721864,35.3357791 C-6.96415771,50.880362 5.30956989,58.8787485 5.30956989,58.8787485 L5.30956989,58.8787485 C4.78125448,77.6877761 31.170129,74.1688834 31.170129,74.1688834 L31.170129,74.1688834 C40.4439857,83.2805399 56.1433584,77.9989294 59.2433692,70.506046 L59.2433692,70.506046 C62.3436201,63.0134049 55.7944301,59.6949202 55.7944301,59.6949202 L55.7944301,59.6949202 C63.8778961,57.2544018 71.5888996,47.8836933 63.2002115,30.8536196 L63.2002115,30.8536196 C54.8112832,13.8240307 35.5575484,21.328546 35.5575484,21.328546 L35.5575484,21.328546 C40.3011004,13.0439663 33.8225125,8.73628528 33.8225125,8.73628528 L33.8225125,8.73628528 C33.3112473,-0.836285276 23.2605269,0.820776074 23.2605269,0.820776074 L23.2605269,0.820776074 C20.8631756,0.261717791 18.7991434,0.0118742331 17.0204014,0.00726993865 L17.0204014,0.00726993865 L16.9156989,0.00726993865 Z" id="path-37"></path>
        <path d="M0.0571428571,2.74295455 C1.08495238,5.92478182 1.79606349,23.6942182 1.79606349,23.6942182 L1.79606349,23.6942182 C8.57295238,29.0291727 15.7650794,25.8682091 15.7650794,25.8682091 L15.7650794,25.8682091 C15.2756825,18.0200455 8.76825397,0.229990909 8.76825397,0.229990909 L8.76825397,0.229990909 L0.0571428571,2.74295455 Z" id="path-39"></path>
        <path d="M9.6135,0.267945736 C9.6135,0.267945736 -6.52118519,22.8068682 3.12361111,29.3533953 L3.12361111,29.3533953 C12.7681667,35.9001628 24.2539074,19.8827752 24.2539074,19.8827752 L24.2539074,19.8827752 C24.2539074,19.8827752 27.9976667,7.54621705 24.0829815,3.36145736 L24.0829815,3.36145736 C21.5104259,0.611348837 16.0692037,0.139620155 12.641537,0.139620155 L12.641537,0.139620155 C10.8530741,0.139620155 9.6135,0.267945736 9.6135,0.267945736" id="path-41"></path>
        <path d="M8.59769565,0.413084112 C8.59769565,0.413084112 1.2351087,2.18618692 0.20326087,5.57080374 L0.20326087,5.57080374 C-0.828586957,8.95614953 10.6441739,12.0951028 13.8585652,12.2484299 L13.8585652,12.2484299 L16.4488261,25.9081495 C16.4488261,25.9081495 24.1057826,13.0580748 21.072413,5.63714019 L21.072413,5.63714019 C19.1675,0.976336449 14.7342609,0.109345649 11.700413,0.109345649 L11.700413,0.109345649 C9.90358696,0.109345649 8.59769565,0.413084112 8.59769565,0.413084112" id="path-43"></path>
        <path d="M0.18875,4.459 L0.504,8.03325 C3.434,10.45075 11.89825,6.754 9.30425,1.83025 L9.30425,1.83025 C8.6665,0.61975 7.79175,0.16325 6.83425,0.16325 L6.83425,0.16325 C3.898,0.1635 0.18875,4.459 0.18875,4.459" id="path-45"></path>
        <path d="M9.71744828,14.9745556 C10.340931,16.5403333 11.3766897,17.9137593 12.6748276,18.9913148 L12.6748276,18.9913148 C35.0685517,37.5805926 29.6437931,49.8439259 20.8665172,53.8089259 L20.8665172,53.8089259 C11.8567931,57.8793704 14.8071724,52.8565556 8.43789655,52.8283889 L8.43789655,52.8283889 C5.49813793,52.8153889 2.84537931,55.094963 1.37634483,57.374537 L1.37634483,57.374537 C-0.337448276,60.034 -0.440758621,62.6932222 2.49055172,61.7126852 L2.49055172,61.7126852 C7.93389655,59.8912407 12.5191379,64.9978333 12.5191379,64.9978333 L12.5191379,64.9978333 C12.5191379,64.9978333 46.2953448,62.6195556 41.3919655,40.2410185 L41.3919655,40.2410185 C36.4883448,17.862 16.7297586,1.48512963 16.7297586,1.48512963 L16.7297586,1.48512963 C15.0647241,0.518555556 13.5971379,0.0727037037 12.3583793,0.0727037037 L12.3583793,0.0727037037 C7.71062069,0.0727037037 6.28237931,6.35074074 9.71744828,14.9745556" id="path-47"></path>
    </defs>
    <g id="Comfortable-Themes" stroke="none" stroke-width="1" fill="none" fill-rule="evenodd">
        <g id="Outsourcing-IT-Profesional---alt" transform="translate(-178.000000, -4376.000000)">
            <g id="Group-140" transform="translate(178.000000, 4357.000000)">
                <g id="Group-138" transform="translate(0.000000, 19.000000)">
                    <g id="Group-42">
                        <g id="Group-5">
                            <path d="M201.676716,1.90677179 L3.42888132,0.504409835 C1.53187033,0.476267202 -0.0108659341,2.96489106 0.000390860994,6.03139335 L0.42263956,118.285132 C0.433958242,121.37207 2.01065055,123.839123 3.91898022,123.747162 C21.3995516,122.904753 200.575409,119.184306 204.001574,119.415912 C207.386991,119.645247 205.546574,30.9982397 205.04176,7.20985665 C204.979508,4.269375 203.495629,1.93288417 201.676716,1.90677179" id="Fill-1" fill="url(#linearGradient-1)"></path>
                            <path d="M3.78485385,118.253343 L3.81767802,118.318056 C14.9903484,117.778779 122.016403,115.618263 173.449623,114.579444 C188.060909,114.28426 198.566909,114.071955 201.805184,114.00043 C202.963085,102.431508 202.922337,65.6164507 201.686337,7.39718463 L3.40001868,5.93602638 L3.78145824,118.253343 L3.78485385,118.253343 Z M3.83239231,119.453377 C3.41133736,119.453377 3.08196374,118.918641 3.07856813,118.26129 L2.65523678,6.00755161 C2.65523678,5.68057913 2.72882088,5.38539564 2.87143626,5.15379014 C3.01178791,4.92672592 3.19967802,4.80070528 3.40115055,4.80070528 L201.651249,6.20282683 C202.050799,6.20850344 202.373381,6.71599197 202.386964,7.35858372 C203.643337,66.455453 203.663711,103.560017 202.446953,114.660052 L202.397151,115.122127 L202.10626,115.128939 C199.255085,115.193653 188.543085,115.410499 173.458678,115.714765 C122.033381,116.753584 15.0322275,118.9141 3.84257912,119.453377 L3.83239231,119.453377 Z" id="Fill-3" fill="#FFFFFF"></path>
                        </g>
                        <g id="Group-8" transform="translate(131.000000, 12.000000)">
                            <mask id="mask-3" fill="white">
                                <use xlink:href="#path-2"></use>
                            </mask>
                            <g id="Clip-7"></g>
                            <path d="M0.958974359,22.1398974 C0.958974359,33.8664615 10.4652308,43.3749744 22.1929231,43.3749744 L22.1929231,43.3749744 C33.9206154,43.3749744 43.428,33.8664615 43.428,22.1398974 L43.428,22.1398974 C43.428,10.4122051 33.9206154,0.905948718 22.1929231,0.905948718 L22.1929231,0.905948718 C10.4652308,0.905948718 0.958974359,10.4122051 0.958974359,22.1398974" id="Fill-6" fill="#E9F9FF" mask="url(#mask-3)"></path>
                        </g>
                        <g id="Group-11" transform="translate(80.000000, 12.000000)">
                            <mask id="mask-5" fill="white">
                                <use xlink:href="#path-4"></use>
                            </mask>
                            <g id="Clip-10"></g>
                            <path d="M0.0795789474,22.1398974 C0.0795789474,33.8664615 9.39363158,43.3749744 20.8817368,43.3749744 L20.8817368,43.3749744 C32.3709474,43.3749744 41.685,33.8664615 41.685,22.1398974 L41.685,22.1398974 C41.685,10.4122051 32.3709474,0.905948718 20.8817368,0.905948718 L20.8817368,0.905948718 C9.39363158,0.905948718 0.0795789474,10.4122051 0.0795789474,22.1398974" id="Fill-9" fill="#E9F9FF" mask="url(#mask-5)"></path>
                        </g>
                        <g id="Group-14" transform="translate(26.000000, 14.000000)">
                            <mask id="mask-7" fill="white">
                                <use xlink:href="#path-6"></use>
                            </mask>
                            <g id="Clip-13"></g>
                            <path d="M0.326052632,21.7077949 C0.326052632,33.434359 9.639,42.9417436 21.1271053,42.9417436 L21.1271053,42.9417436 C32.6163158,42.9417436 41.9314737,33.434359 41.9314737,21.7077949 L41.9314737,21.7077949 C41.9314737,9.98010256 32.6163158,0.471589744 21.1271053,0.471589744 L21.1271053,0.471589744 C9.639,0.471589744 0.326052632,9.98010256 0.326052632,21.7077949" id="Fill-12" fill="#E9F9FF" mask="url(#mask-7)"></path>
                        </g>
                        <g id="Group-17" transform="translate(136.000000, 18.000000)">
                            <mask id="mask-9" fill="white">
                                <use xlink:href="#path-8"></use>
                            </mask>
                            <g id="Clip-16"></g>
                            <path d="M17.0043548,0.114032258 L17.0043548,3.57451613 C17.2335484,3.56322581 17.4616129,3.55645161 17.6930645,3.55645161 L17.6930645,3.55645161 C25.2316129,3.55645161 31.3430645,9.66790323 31.3430645,17.2075806 L31.3430645,17.2075806 C31.3430645,24.745 25.2316129,30.8564516 17.6930645,30.8564516 L17.6930645,30.8564516 C10.1545161,30.8564516 4.04306452,24.745 4.04306452,17.2075806 L4.04306452,17.2075806 C4.04306452,15.3706452 4.40887097,13.6195161 5.06596774,12.0196774 L5.06596774,12.0196774 L1.89225806,10.641129 C1.05112903,12.6620968 0.585967742,14.8806452 0.585967742,17.2075806 L0.585967742,17.2075806 C0.585967742,26.6553226 8.24532258,34.3135484 17.6930645,34.3135484 L17.6930645,34.3135484 C27.1419355,34.3135484 34.8012903,26.6553226 34.8012903,17.2075806 L34.8012903,17.2075806 C34.8012903,7.75870968 27.1419355,0.100483871 17.6930645,0.100483871 L17.6930645,0.100483871 C17.4616129,0.100483871 17.2335484,0.106129032 17.0043548,0.114032258" id="Fill-15" fill="#F7941D" mask="url(#mask-9)"></path>
                        </g>
                        <g id="Group-20" transform="translate(91.000000, 18.000000)">
                            <mask id="mask-11" fill="white">
                                <use xlink:href="#path-10"></use>
                            </mask>
                            <g id="Clip-19"></g>
                            <path d="M8.425125,0.114032258 L8.425125,3.57451613 C8.652375,3.56322581 8.88075,3.55645161 9.111375,3.55645161 L9.111375,3.55645161 C16.621875,3.55645161 22.712625,9.66790323 22.712625,17.2075806 L22.712625,17.2075806 C22.712625,24.745 16.621875,30.8564516 9.111375,30.8564516 L9.111375,30.8564516 C6.44625,30.8564516 3.963375,30.0853226 1.864125,28.7553226 L1.864125,28.7553226 L0.15525,31.7630645 C2.7585,33.3798387 5.826375,34.3135484 9.111375,34.3135484 L9.111375,34.3135484 C18.525375,34.3135484 26.157375,26.6553226 26.157375,17.2075806 L26.157375,17.2075806 C26.157375,7.75870968 18.525375,0.100483871 9.111375,0.100483871 L9.111375,0.100483871 C8.88075,0.100483871 8.652375,0.106129032 8.425125,0.114032258" id="Fill-18" fill="#F7941D" mask="url(#mask-11)"></path>
                        </g>
                        <g id="Group-23" transform="translate(33.000000, 18.000000)">
                            <mask id="mask-13" fill="white">
                                <use xlink:href="#path-12"></use>
                            </mask>
                            <g id="Clip-22"></g>
                            <path d="M13.6993103,0.114032258 L13.6993103,3.57451613 C13.9233103,3.56322581 14.1473103,3.55645161 14.3724138,3.55645161 L14.3724138,3.55645161 C21.7412414,3.55645161 27.7131034,9.66790323 27.7131034,17.2075806 L27.7131034,17.2075806 C27.7131034,24.745 21.7412414,30.8564516 14.3724138,30.8564516 L14.3724138,30.8564516 C9.78537931,30.8564516 5.74234483,28.4877419 3.34013793,24.8816129 L3.34013793,24.8816129 L0.60137931,26.9093548 C3.6182069,31.3825806 8.66096552,34.3135484 14.3724138,34.3135484 L14.3724138,34.3135484 C23.6071724,34.3135484 31.0918621,26.6553226 31.0918621,17.2075806 L31.0918621,17.2075806 C31.0918621,7.75870968 23.6071724,0.100483871 14.3724138,0.100483871 L14.3724138,0.100483871 C14.1473103,0.100483871 13.9233103,0.106129032 13.6993103,0.114032258" id="Fill-21" fill="#F7941D" mask="url(#mask-13)"></path>
                        </g>
                        <g id="Group-26" transform="translate(131.000000, 64.000000)">
                            <mask id="mask-15" fill="white">
                                <use xlink:href="#path-14"></use>
                            </mask>
                            <g id="Clip-25"></g>
                            <path d="M4.89076923,0.471375 C2.71784615,0.471375 0.958974359,2.226375 0.958974359,4.393125 L0.958974359,4.393125 C0.958974359,6.55875 2.71784615,8.314875 4.89076923,8.314875 L4.89076923,8.314875 L39.4950769,8.314875 C41.6668718,8.314875 43.428,6.55875 43.428,4.393125 L43.428,4.393125 C43.428,2.226375 41.6668718,0.471375 39.4950769,0.471375 L39.4950769,0.471375 L4.89076923,0.471375 Z" id="Fill-24" fill="#E9F9FF" mask="url(#mask-15)"></path>
                        </g>
                        <g id="Group-29" transform="translate(80.000000, 64.000000)">
                            <mask id="mask-17" fill="white">
                                <use xlink:href="#path-16"></use>
                            </mask>
                            <g id="Clip-28"></g>
                            <path d="M3.93252632,0.471375 C1.80489474,0.471375 0.0795789474,2.226375 0.0795789474,4.393125 L0.0795789474,4.393125 C0.0795789474,6.55875 1.80489474,8.314875 3.93252632,8.314875 L3.93252632,8.314875 L37.8320526,8.314875 C39.9596842,8.314875 41.685,6.55875 41.685,4.393125 L41.685,4.393125 C41.685,2.226375 39.9596842,0.471375 37.8320526,0.471375 L37.8320526,0.471375 L3.93252632,0.471375 Z" id="Fill-27" fill="#E9F9FF" mask="url(#mask-17)"></path>
                        </g>
                        <g id="Group-32" transform="translate(26.000000, 64.000000)">
                            <mask id="mask-19" fill="white">
                                <use xlink:href="#path-18"></use>
                            </mask>
                            <g id="Clip-31"></g>
                            <path d="M4.17789474,0.471375 C2.05026316,0.471375 0.326052632,2.226375 0.326052632,4.393125 L0.326052632,4.393125 C0.326052632,6.55875 2.05026316,8.314875 4.17789474,8.314875 L4.17789474,8.314875 L38.0785263,8.314875 C40.2072632,8.314875 41.9314737,6.55875 41.9314737,4.393125 L41.9314737,4.393125 C41.9314737,2.226375 40.2072632,0.471375 38.0785263,0.471375 L38.0785263,0.471375 L4.17789474,0.471375 Z" id="Fill-30" fill="#E9F9FF" mask="url(#mask-19)"></path>
                        </g>
                        <g id="Group-35" transform="translate(131.000000, 78.000000)">
                            <mask id="mask-21" fill="white">
                                <use xlink:href="#path-20"></use>
                            </mask>
                            <g id="Clip-34"></g>
                            <path d="M4.89076923,0.291178571 C2.71784615,0.291178571 0.958974359,2.02053571 0.958974359,4.15067857 L0.958974359,4.15067857 L0.958974359,26.8781071 C0.958974359,29.0093571 2.71784615,30.7376071 4.89076923,30.7376071 L4.89076923,30.7376071 L39.4950769,30.7376071 C41.6668718,30.7376071 43.428,29.0093571 43.428,26.8781071 L43.428,26.8781071 L43.428,4.15067857 C43.428,2.02053571 41.6668718,0.291178571 39.4950769,0.291178571 L39.4950769,0.291178571 L4.89076923,0.291178571 Z" id="Fill-33" fill="#E9F9FF" mask="url(#mask-21)"></path>
                        </g>
                        <g id="Group-38" transform="translate(80.000000, 78.000000)">
                            <mask id="mask-23" fill="white">
                                <use xlink:href="#path-22"></use>
                            </mask>
                            <g id="Clip-37"></g>
                            <path d="M3.93252632,0.291178571 C1.80489474,0.291178571 0.0795789474,2.02053571 0.0795789474,4.15067857 L0.0795789474,4.15067857 L0.0795789474,26.8781071 C0.0795789474,29.0093571 1.80489474,30.7376071 3.93252632,30.7376071 L3.93252632,30.7376071 L37.8320526,30.7376071 C39.9596842,30.7376071 41.685,29.0093571 41.685,26.8781071 L41.685,26.8781071 L41.685,4.15067857 C41.685,2.02053571 39.9596842,0.291178571 37.8320526,0.291178571 L37.8320526,0.291178571 L3.93252632,0.291178571 Z" id="Fill-36" fill="#E9F9FF" mask="url(#mask-23)"></path>
                        </g>
                        <g id="Group-41" transform="translate(26.000000, 78.000000)">
                            <mask id="mask-25" fill="white">
                                <use xlink:href="#path-24"></use>
                            </mask>
                            <g id="Clip-40"></g>
                            <path d="M4.17789474,0.291178571 C2.05026316,0.291178571 0.326052632,2.02053571 0.326052632,4.15067857 L0.326052632,4.15067857 L0.326052632,26.8781071 C0.326052632,29.0093571 2.05026316,30.7376071 4.17789474,30.7376071 L4.17789474,30.7376071 L38.0785263,30.7376071 C40.2072632,30.7376071 41.9314737,29.0093571 41.9314737,26.8781071 L41.9314737,26.8781071 L41.9314737,4.15067857 C41.9314737,2.02053571 40.2072632,0.291178571 38.0785263,0.291178571 L38.0785263,0.291178571 L4.17789474,0.291178571 Z" id="Fill-39" fill="#E9F9FF" mask="url(#mask-25)"></path>
                        </g>
                    </g>
                    <g id="Group-40" transform="translate(109.000000, 31.000000)">
                        <g id="Group-3" transform="translate(0.000000, 31.000000)">
                            <mask id="mask-27" fill="white">
                                <use xlink:href="#path-26"></use>
                            </mask>
                            <g id="Clip-2"></g>
                            <path d="M1.53748739,0.544721805 C-4.46502521,11.8753684 9.04507563,17.2561805 9.04507563,17.2561805 L9.04507563,17.2561805 C9.04507563,17.2561805 -2.69529412,39.9574135 15.0173697,55.5584962 L15.0173697,55.5584962 C32.7302773,71.1590977 47.9582017,60.0644812 47.9582017,60.0644812 L47.9582017,60.0644812 L57.8242941,29.1856842 C57.8242941,29.1856842 37.9461345,55.074406 23.8314202,46.1076692 L23.8314202,46.1076692 C9.71621849,37.1411729 13.3397563,24.8673684 15.759916,15.587609 L15.759916,15.587609 C16.9028571,13.0899248 16.0996303,10.0448722 14.4266471,8.67681203 L14.4266471,8.67681203 C12.4846218,7.0883609 12.3184202,4.56541353 12.3184202,4.56541353 L12.3184202,4.56541353 C12.3184202,4.56541353 9.80882353,7.42977444 11.1991176,9.52709774 L11.1991176,9.52709774 C11.684563,10.2602105 11.6821261,10.9569925 11.4788824,11.5575338 L11.4788824,11.5575338 C11.272958,11.4579248 11.059479,11.3590376 10.8343025,11.2613534 L10.8343025,11.2613534 C6.36342857,9.32306767 4.23253782,3.86357895 3.35205882,0.735278195 L3.35205882,0.735278195 C3.22168067,0.271879699 2.813,0.0257443609 2.40236975,0.0257443609 L2.40236975,0.0257443609 C2.06363025,0.0257443609 1.72367227,0.193203008 1.53748739,0.544721805" id="Fill-1" fill="#FFB48D" mask="url(#mask-27)"></path>
                        </g>
                        <path d="M14.904922,68.486398 C11.7654734,69.72118 8.42116323,69.7868879 5,69.6444408 C5.88933432,75.3512005 8.50978445,81.3694735 14.3710332,86.5978122 C32.0102579,102.33151 47.1752934,91.1422127 47.1752934,91.1422127 L57,60 C57,60 37.2045659,86.1097988 23.1483763,77.0665618 C19.0605126,74.436565 16.4686422,71.5243118 14.904922,68.486398 Z" id="Fill-4" fill="#EC8810"></path>
                        <g id="Group-8" transform="translate(28.000000, 55.000000)">
                            <mask id="mask-29" fill="white">
                                <use xlink:href="#path-28"></use>
                            </mask>
                            <g id="Clip-7"></g>
                            <path d="M27.0047907,3.07455049 L0.219935849,78.7053627 L74.5821537,84.1808073 C78.4482928,84.7355265 82.1917893,82.5741921 83.6352541,78.954553 L83.6352541,78.954553 L111.992493,7.833242 C112.889136,5.64783128 111.411148,3.21611946 109.052692,3.00665517 L109.052692,3.00665517 C92.0657259,1.49923461 44.5805862,0.329846059 31.542567,0.0300954433 L31.542567,0.0300954433 C31.5058708,0.0288916256 31.469416,0.0288916256 31.4329612,0.0288916256 L31.4329612,0.0288916256 C29.4701967,0.0288916256 27.7049158,1.23776539 27.0047907,3.07455049" id="Fill-6" fill="url(#linearGradient-30)" mask="url(#mask-29)"></path>
                        </g>
                        <g id="Group-11" transform="translate(31.000000, 58.000000)">
                            <mask id="mask-32" fill="white">
                                <use xlink:href="#path-31"></use>
                            </mask>
                            <g id="Clip-10"></g>
                            <path d="M26.0223184,2.80727554 L0.214988208,72.9705697 L74.166559,77.8142972 L102.674724,5.83865015 C103.250212,4.38586997 102.194948,2.80751703 100.624684,2.77250155 L100.624684,2.77250155 L30.1612665,0.113739938 C30.1068514,0.11180805 30.0524363,0.110600619 29.9982642,0.110600619 L29.9982642,0.110600619 C28.2472642,0.110600619 26.6658255,1.17603715 26.0223184,2.80727554" id="Fill-9" fill="#FFFFFF" mask="url(#mask-32)"></path>
                        </g>
                        <g id="Group-14" transform="translate(3.000000, 132.000000)">
                            <mask id="mask-34" fill="white">
                                <use xlink:href="#path-33"></use>
                            </mask>
                            <g id="Clip-13"></g>
                            <path d="M0.0431762014,4.41492593 C0.0431762014,5.84240741 1.12597712,7 2.4615286,7 L2.4615286,7 L100.722801,7 C102.75281,7 104.398357,5.24118519 104.398357,3.0717037 L104.398357,3.0717037 L105.943968,1.15162963 L3.91690618,0.218037037 C1.76901144,0.248888889 0.0431762014,2.11892593 0.0431762014,4.41492593" id="Fill-12" fill="#1B6A9E" mask="url(#mask-34)"></path>
                        </g>
                        <g id="Group-17" transform="translate(111.000000, 64.000000)">
                            <mask id="mask-36" fill="white">
                                <use xlink:href="#path-35"></use>
                            </mask>
                            <g id="Clip-16"></g>
                            <path d="M0.650268657,0.0036407767 C0.404059701,0.0036407767 0.204179104,0.206796117 0.204179104,0.457281553 L0.204179104,0.457281553 C0.204179104,0.708009709 0.404059701,0.911165049 0.650268657,0.911165049 L0.650268657,0.911165049 L12.8365373,0.911165049 C13.5362388,0.911165049 14.1633433,1.24781553 14.5571343,1.83446602 L14.5571343,1.83446602 C14.9509254,2.42063107 15.0304478,3.13567961 14.7758806,3.79660194 L14.7758806,3.79660194 C13.297194,7.63592233 10.1568955,15.9271845 7.38650746,23.2427184 L7.38650746,23.2427184 L6.96262687,24.3621359 C6.87402985,24.5961165 6.98889552,24.8587379 7.21862687,24.9487864 L7.21862687,24.9487864 C7.2718806,24.9691748 7.32561194,24.9793689 7.37910448,24.9793689 L7.37910448,24.9793689 C7.55844776,24.9793689 7.72752239,24.8684466 7.7958209,24.6883495 L7.7958209,24.6883495 L8.21970149,23.5686893 C10.9900896,16.2543689 14.1296716,7.96432039 15.6071642,4.12742718 L15.6071642,4.12742718 C15.9656119,3.19684466 15.8490746,2.14830097 15.294806,1.32305825 L15.294806,1.32305825 C14.7400597,0.49684466 13.8208955,0.0036407767 12.8365373,0.0036407767 L12.8365373,0.0036407767 L0.650268657,0.0036407767 Z" id="Fill-15" fill="#8CCEFF" mask="url(#mask-36)"></path>
                        </g>
                        <g id="Group-20" transform="translate(53.000000, 0.000000)">
                            <mask id="mask-38" fill="white">
                                <use xlink:href="#path-37"></use>
                            </mask>
                            <g id="Clip-19"></g>
                            <path d="M16.9156989,0.00726993865 C3.45446237,0.0462852761 6.58521147,14.2326012 6.58521147,14.2326012 L6.58521147,14.2326012 C6.58521147,14.2326012 18.8183548,19.7914387 5.92721864,35.3357791 L5.92721864,35.3357791 C-6.96415771,50.880362 5.30956989,58.8787485 5.30956989,58.8787485 L5.30956989,58.8787485 C4.78125448,77.6877761 31.170129,74.1688834 31.170129,74.1688834 L31.170129,74.1688834 C40.4439857,83.2805399 56.1433584,77.9989294 59.2433692,70.506046 L59.2433692,70.506046 C62.3436201,63.0134049 55.7944301,59.6949202 55.7944301,59.6949202 L55.7944301,59.6949202 C63.8778961,57.2544018 71.5888996,47.8836933 63.2002115,30.8536196 L63.2002115,30.8536196 C54.8112832,13.8240307 35.5575484,21.328546 35.5575484,21.328546 L35.5575484,21.328546 C40.3011004,13.0439663 33.8225125,8.73628528 33.8225125,8.73628528 L33.8225125,8.73628528 C33.3112473,-0.836285276 23.2605269,0.820776074 23.2605269,0.820776074 L23.2605269,0.820776074 C20.8631756,0.261717791 18.7991434,0.0118742331 17.0204014,0.00726993865 L17.0204014,0.00726993865 L16.9156989,0.00726993865 Z" id="Fill-18" fill="#4A2009" mask="url(#mask-38)"></path>
                        </g>
                        <path d="M58.4182361,56.1130753 C62.6452125,54.8641146 74.9526279,52.5580819 86.659152,63.2059893 C88.6448014,65.012101 89.4562364,67.7560154 88.7477556,70.3255946 C85.6037497,81.7352863 78.2498452,118.337723 85.5239724,132.922959 C85.5239724,132.922959 76.0336468,133.189391 57.778554,132.731311 C57.778554,132.731311 51.5039605,105.777661 43.285924,93.9449958 C37.6117339,85.7757729 52.3332052,63.2685095 56.057853,57.8309374 C56.6219053,57.0075947 57.4531017,56.398504 58.4182361,56.1130753" id="Fill-21" fill="#F7941D"></path>
                        <g id="Group-25" transform="translate(62.000000, 34.000000)">
                            <mask id="mask-40" fill="white">
                                <use xlink:href="#path-39"></use>
                            </mask>
                            <g id="Clip-24"></g>
                            <path d="M0.0571428571,2.74295455 C1.08495238,5.92478182 1.79606349,23.6942182 1.79606349,23.6942182 L1.79606349,23.6942182 C8.57295238,29.0291727 15.7650794,25.8682091 15.7650794,25.8682091 L15.7650794,25.8682091 C15.2756825,18.0200455 8.76825397,0.229990909 8.76825397,0.229990909 L8.76825397,0.229990909 L0.0571428571,2.74295455 Z" id="Fill-23" fill="#FFB48D" mask="url(#mask-40)"></path>
                        </g>
                        <g id="Group-28" transform="translate(52.000000, 10.000000)">
                            <mask id="mask-42" fill="white">
                                <use xlink:href="#path-41"></use>
                            </mask>
                            <g id="Clip-27"></g>
                            <path d="M9.6135,0.267945736 C9.6135,0.267945736 -6.52118519,22.8068682 3.12361111,29.3533953 L3.12361111,29.3533953 C12.7681667,35.9001628 24.2539074,19.8827752 24.2539074,19.8827752 L24.2539074,19.8827752 C24.2539074,19.8827752 27.9976667,7.54621705 24.0829815,3.36145736 L24.0829815,3.36145736 C21.5104259,0.611348837 16.0692037,0.139620155 12.641537,0.139620155 L12.641537,0.139620155 C10.8530741,0.139620155 9.6135,0.267945736 9.6135,0.267945736" id="Fill-26" fill="#FFB48D" mask="url(#mask-42)"></path>
                        </g>
                        <g id="Group-31" transform="translate(61.000000, 4.000000)">
                            <mask id="mask-44" fill="white">
                                <use xlink:href="#path-43"></use>
                            </mask>
                            <g id="Clip-30"></g>
                            <path d="M8.59769565,0.413084112 C8.59769565,0.413084112 1.2351087,2.18618692 0.20326087,5.57080374 L0.20326087,5.57080374 C-0.828586957,8.95614953 10.6441739,12.0951028 13.8585652,12.2484299 L13.8585652,12.2484299 L16.4488261,25.9081495 C16.4488261,25.9081495 24.1057826,13.0580748 21.072413,5.63714019 L21.072413,5.63714019 C19.1675,0.976336449 14.7342609,0.109345649 11.700413,0.109345649 L11.700413,0.109345649 C9.90358696,0.109345649 8.59769565,0.413084112 8.59769565,0.413084112" id="Fill-29" fill="#4A2009" mask="url(#mask-44)"></path>
                        </g>
                        <g id="Group-34" transform="translate(73.000000, 24.000000)">
                            <mask id="mask-46" fill="white">
                                <use xlink:href="#path-45"></use>
                            </mask>
                            <g id="Clip-33"></g>
                            <path d="M0.18875,4.459 L0.504,8.03325 C3.434,10.45075 11.89825,6.754 9.30425,1.83025 L9.30425,1.83025 C8.6665,0.61975 7.79175,0.16325 6.83425,0.16325 L6.83425,0.16325 C3.898,0.1635 0.18875,4.459 0.18875,4.459" id="Fill-32" fill="#FFB48D" mask="url(#mask-46)"></path>
                        </g>
                        <g id="Group-37" transform="translate(72.000000, 65.000000)">
                            <mask id="mask-48" fill="white">
                                <use xlink:href="#path-47"></use>
                            </mask>
                            <g id="Clip-36"></g>
                            <path d="M9.71744828,14.9745556 C10.340931,16.5403333 11.3766897,17.9137593 12.6748276,18.9913148 L12.6748276,18.9913148 C35.0685517,37.5805926 29.6437931,49.8439259 20.8665172,53.8089259 L20.8665172,53.8089259 C11.8567931,57.8793704 14.8071724,52.8565556 8.43789655,52.8283889 L8.43789655,52.8283889 C5.49813793,52.8153889 2.84537931,55.094963 1.37634483,57.374537 L1.37634483,57.374537 C-0.337448276,60.034 -0.440758621,62.6932222 2.49055172,61.7126852 L2.49055172,61.7126852 C7.93389655,59.8912407 12.5191379,64.9978333 12.5191379,64.9978333 L12.5191379,64.9978333 C12.5191379,64.9978333 46.2953448,62.6195556 41.3919655,40.2410185 L41.3919655,40.2410185 C36.4883448,17.862 16.7297586,1.48512963 16.7297586,1.48512963 L16.7297586,1.48512963 C15.0647241,0.518555556 13.5971379,0.0727037037 12.3583793,0.0727037037 L12.3583793,0.0727037037 C7.71062069,0.0727037037 6.28237931,6.35074074 9.71744828,14.9745556" id="Fill-35" fill="#FFB48D" mask="url(#mask-48)"></path>
                        </g>
                        <path d="M112.514291,104.327871 C107.619686,81.8601849 87.8959181,65.4180091 87.8959181,65.4180091 C79.9976803,60.8073937 76.5532044,67.9954678 80.8961559,78.9612689 C81.5188047,80.5330257 82.5525552,81.9121498 83.8482212,82.9937447 C101.089789,97.3885037 101.810056,108.00336 97.218621,113.933159 C99.5348458,114.665502 101.732105,115.85296 103.748758,117.161992 C105.310657,118.206365 106.743517,118.993573 108.048537,120 C111.822326,116.364149 114.037334,111.317996 112.514291,104.327871" id="Fill-38" fill="#F7941D"></path>
                    </g>
                </g>
            </g>
        </g>
    </g>
</svg>