<?xml version="1.0" encoding="UTF-8"?>
<svg width="224px" height="192px" viewBox="0 0 224 192" version="1.1" xmlns="http://www.w3.org/2000/svg" xmlns:xlink="http://www.w3.org/1999/xlink">
    <title>94C00FC5-4FCB-4570-9369-9A8C1046AB78@1x</title>
    <defs>
        <polygon id="path-1" points="0.897340351 86.7683314 0.0754842105 85.2672086 57.8707298 53.7580457 111.599046 77.3231143 157.732604 32.1703629 157.822786 32.1174171 211.992049 0.219737143 212.862982 1.69277143 158.783902 33.5377543 111.971235 79.35444 57.9526912 55.6623514"></polygon>
        <path d="M0.133669355,42.5215927 C0.133669355,65.8996774 19.0852419,84.8515927 42.4633266,84.8515927 L42.4633266,84.8515927 C65.8420968,84.8515927 84.7936694,65.8996774 84.7936694,42.5215927 L84.7936694,42.5215927 C84.7936694,19.1435081 65.8420968,0.191592742 42.4633266,0.191592742 L42.4633266,0.191592742 C19.0852419,0.191592742 0.133669355,19.1435081 0.133669355,42.5215927" id="path-3"></path>
        <linearGradient x1="50%" y1="100%" x2="50%" y2="3.061617e-15%" id="linearGradient-5">
            <stop stop-color="#57C6F2" offset="0%"></stop>
            <stop stop-color="#2C94E0" offset="100%"></stop>
        </linearGradient>
        <path d="M0.171533333,41.5217875 C0.171533333,64.3267292 18.6584,82.81325 41.4629958,82.81325 L41.4629958,82.81325 C64.2679375,82.81325 82.7548042,64.3267292 82.7548042,41.5217875 L82.7548042,41.5217875 C82.7548042,18.7171917 64.2679375,0.229979167 41.4629958,0.229979167 L41.4629958,0.229979167 C18.6584,0.229979167 0.171533333,18.7171917 0.171533333,41.5217875" id="path-6"></path>
        <linearGradient x1="50%" y1="-2.48949813e-15%" x2="50%" y2="100%" id="linearGradient-8">
            <stop stop-color="#57C6F2" offset="0%"></stop>
            <stop stop-color="#2C94E0" offset="100%"></stop>
        </linearGradient>
        <path d="M0.113225806,36.0182903 C0.113225806,55.8209032 16.1663226,71.8742903 35.9689355,71.8742903 L35.9689355,71.8742903 C55.772129,71.8742903 71.8252258,55.8209032 71.8252258,36.0182903 L71.8252258,36.0182903 C71.8252258,16.2156774 55.772129,0.162290323 35.9689355,0.162290323 L35.9689355,0.162290323 C16.1663226,0.162290323 0.113225806,16.2156774 0.113225806,36.0182903" id="path-9"></path>
        <path d="M0.144666667,35.018375 C0.144666667,54.2514583 15.736,69.8425 34.9687917,69.8425 L34.9687917,69.8425 C54.201875,69.8425 69.7932083,54.2514583 69.7932083,35.018375 L69.7932083,35.018375 C69.7932083,15.7855833 54.201875,0.193958333 34.9687917,0.193958333 L34.9687917,0.193958333 C15.736,0.193958333 0.144666667,15.7855833 0.144666667,35.018375" id="path-11"></path>
        <path d="M0.0896370968,28.5144798 C0.0896370968,44.1915484 12.7983387,56.9004798 28.4754073,56.9004798 L28.4754073,56.9004798 C44.1529355,56.9004798 56.8616371,44.1915484 56.8616371,28.5144798 L56.8616371,28.5144798 C56.8616371,12.8374113 44.1529355,0.128479839 28.4754073,0.128479839 L28.4754073,0.128479839 C12.7983387,0.128479839 0.0896370968,12.8374113 0.0896370968,28.5144798" id="path-13"></path>
        <path d="M0.115733333,28.0147 C0.115733333,43.4011667 12.5888,55.874 27.9750333,55.874 L27.9750333,55.874 C43.3615,55.874 55.8345667,43.4011667 55.8345667,28.0147 L55.8345667,28.0147 C55.8345667,12.6284667 43.3615,0.155166667 27.9750333,0.155166667 L27.9750333,0.155166667 C12.5888,0.155166667 0.115733333,12.6284667 0.115733333,28.0147" id="path-15"></path>
    </defs>
    <g id="Comfortable-Themes" stroke="none" stroke-width="1" fill="none" fill-rule="evenodd">
        <g id="Outsourcing-IT-Profesional---alt" transform="translate(-571.000000, -2617.000000)">
            <g id="Group-95" transform="translate(558.000000, 2607.000000)">
                <g id="Group-89" transform="translate(13.000000, 10.000000)">
                    <g id="Group-19" transform="translate(0.000000, 25.000000)">
                        <g id="Group-3" transform="translate(6.000000, 6.000000)">
                            <mask id="mask-2" fill="white">
                                <use xlink:href="#path-1"></use>
                            </mask>
                            <g id="Clip-2"></g>
                            <polygon id="Fill-1" fill="#F7941D" mask="url(#mask-2)" points="0.897340351 86.7683314 0.0754842105 85.2672086 57.8707298 53.7580457 111.599046 77.3231143 157.732604 32.1703629 157.822786 32.1174171 211.992049 0.219737143 212.862982 1.69277143 158.783902 33.5377543 111.971235 79.35444 57.9526912 55.6623514"></polygon>
                        </g>
                        <path d="M0,91.51248 C0,95.09528 2.90472,98 6.48752,98 L6.48752,98 C10.07058,98 12.97504,95.09528 12.97504,91.51248 L12.97504,91.51248 C12.97504,87.92942 10.07058,85.02496 6.48752,85.02496 L6.48752,85.02496 C2.90472,85.02496 0,87.92942 0,91.51248" id="Fill-4" fill="#F7941D"></path>
                        <path d="M57.1302549,60.3977843 C57.1302549,63.9105882 59.9777647,66.758098 63.4903137,66.758098 L63.4903137,66.758098 C67.0033725,66.758098 69.8508824,63.9105882 69.8508824,60.3977843 L69.8508824,60.3977843 C69.8508824,56.8849804 67.0033725,54.0374706 63.4903137,54.0374706 L63.4903137,54.0374706 C59.9777647,54.0374706 57.1302549,56.8849804 57.1302549,60.3977843" id="Fill-7" fill="#F7941D"></path>
                        <path d="M111.19449,82.4750196 C111.19449,85.9878235 114.042,88.8355882 117.554804,88.8355882 L117.554804,88.8355882 C121.067608,88.8355882 123.915118,85.9878235 123.915118,82.4750196 L123.915118,82.4750196 C123.915118,78.9622157 121.067608,76.1147059 117.554804,76.1147059 L117.554804,76.1147059 C114.042,76.1147059 111.19449,78.9622157 111.19449,82.4750196" id="Fill-10" fill="#F7941D"></path>
                        <path d="M156.094059,38.4163922 C156.094059,41.9291961 158.941569,44.7767059 162.454373,44.7767059 L162.454373,44.7767059 C165.967176,44.7767059 168.814686,41.9291961 168.814686,38.4163922 L168.814686,38.4163922 C168.814686,34.9035882 165.967176,32.0560784 162.454373,32.0560784 L162.454373,32.0560784 C158.941569,32.0560784 156.094059,34.9035882 156.094059,38.4163922" id="Fill-13" fill="#F7941D"></path>
                        <path d="M217.55149,0.227882353 C214.038941,0.227882353 211.191176,3.07564706 211.191176,6.58845098 L211.191176,6.58845098 C211.191176,10.1012549 214.038941,12.9485098 217.55149,12.9485098 L217.55149,12.9485098 C221.064549,12.9485098 223.911804,10.1012549 223.911804,6.58845098 L223.911804,6.58845098 C223.911804,3.07564706 221.064549,0.227882353 217.55149,0.227882353 Z" id="Fill-16" fill="#F7941D"></path>
                    </g>
                    <g id="Group-57" transform="translate(70.000000, 0.000000)">
                        <g id="Group-17">
                            <mask id="mask-4" fill="white">
                                <use xlink:href="#path-3"></use>
                            </mask>
                            <g id="Clip-16"></g>
                            <path d="M0.133669355,42.5215927 C0.133669355,65.8996774 19.0852419,84.8515927 42.4633266,84.8515927 L42.4633266,84.8515927 C65.8420968,84.8515927 84.7936694,65.8996774 84.7936694,42.5215927 L84.7936694,42.5215927 C84.7936694,19.1435081 65.8420968,0.191592742 42.4633266,0.191592742 L42.4633266,0.191592742 C19.0852419,0.191592742 0.133669355,19.1435081 0.133669355,42.5215927" id="Fill-15" fill="url(#linearGradient-5)" mask="url(#mask-4)"></path>
                        </g>
                        <g id="Group-20" transform="translate(1.000000, 2.000000)">
                            <mask id="mask-7" fill="white">
                                <use xlink:href="#path-6"></use>
                            </mask>
                            <g id="Clip-19"></g>
                            <path d="M0.171533333,41.5217875 C0.171533333,64.3267292 18.6584,82.81325 41.4629958,82.81325 L41.4629958,82.81325 C64.2679375,82.81325 82.7548042,64.3267292 82.7548042,41.5217875 L82.7548042,41.5217875 C82.7548042,18.7171917 64.2679375,0.229979167 41.4629958,0.229979167 L41.4629958,0.229979167 C18.6584,0.229979167 0.171533333,18.7171917 0.171533333,41.5217875" id="Fill-18" fill="url(#linearGradient-8)" mask="url(#mask-7)"></path>
                        </g>
                        <g id="Group-25" transform="translate(7.000000, 5.000000)" fill="#FFFFFF">
                            <path d="M0.844207317,22.7278341 C0.724026829,22.7278341 0.601768293,22.7008756 0.487129268,22.6428111 C0.0954170732,22.4454608 -0.0618219512,21.9685023 0.135939024,21.5782949 C6.8089,8.38589862 20.1461634,0.190506912 34.9436024,0.190506912 C37.3049585,0.190506912 39.6701244,0.402718894 41.9726024,0.822304147 C42.4041439,0.900414747 42.6905683,1.31308756 42.6119488,1.74442396 C42.5329829,2.1747235 42.1201439,2.46504608 41.6879098,2.38140553 C39.4789439,1.979447 37.2097146,1.77587558 34.9436024,1.77587558 C20.7494902,1.77587558 7.95529024,9.63739631 1.55420732,22.2920046 C1.41428537,22.5685023 1.1347878,22.7278341 0.844207317,22.7278341" id="Fill-21"></path>
                            <path d="M70.8440771,39.9760369 C70.8440771,59.2658986 55.1745502,74.9032258 35.8445405,74.9032258 C16.5148771,74.9032258 0.845350244,59.2658986 0.845350244,39.9760369 C0.845350244,20.6865207 16.5148771,5.04919355 35.8445405,5.04919355 C55.1745502,5.04919355 70.8440771,20.6865207 70.8440771,39.9760369" id="Fill-23"></path>
                        </g>
                        <path d="M30.936,53 C31.0666667,53 31.1693333,52.9626667 31.244,52.888 C31.3186667,52.8133333 31.356,52.7106667 31.356,52.58 L31.356,52.58 L31.356,45.608 C31.356,45.5146667 31.4026667,45.468 31.496,45.468 L31.496,45.468 L32.672,45.468 C32.7466667,45.468 32.8026667,45.5053333 32.84,45.58 L32.84,45.58 L35.92,52.692 C35.9946667,52.8973333 36.1533333,53 36.396,53 L36.396,53 L41.1,53 C41.212,53 41.3053333,52.972 41.38,52.916 C41.4546667,52.86 41.492,52.7853333 41.492,52.692 C41.492,52.6826667 41.4873333,52.6616667 41.478,52.629 L41.436,52.496 L37.88,45.104 C37.8426667,45.0106667 37.8706667,44.9453333 37.964,44.908 C39.028,44.4786667 39.8633333,43.802 40.47,42.878 C41.0766667,41.954 41.38,40.876 41.38,39.644 C41.38,38.412 41.114,37.3246667 40.582,36.382 C40.05,35.4393333 39.3033333,34.7066667 38.342,34.184 C37.3806667,33.6613333 36.2653333,33.4 34.996,33.4 L34.996,33.4 L26.512,33.4 C26.3813333,33.4 26.2786667,33.4373333 26.204,33.512 C26.1293333,33.5866667 26.092,33.6893333 26.092,33.82 L26.092,33.82 L26.092,52.58 C26.092,52.7106667 26.1293333,52.8133333 26.204,52.888 C26.2786667,52.9626667 26.3813333,53 26.512,53 L26.512,53 L30.936,53 Z M34.128,41.464 L31.496,41.464 C31.4026667,41.464 31.356,41.4173333 31.356,41.324 L31.356,41.324 L31.356,38.048 C31.356,37.9546667 31.4026667,37.908 31.496,37.908 L31.496,37.908 L34.128,37.908 C34.7253333,37.908 35.2106667,38.0713333 35.584,38.398 C35.9573333,38.7246667 36.144,39.1586667 36.144,39.7 C36.144,40.2226667 35.9573333,40.6473333 35.584,40.974 C35.2106667,41.3006667 34.7253333,41.464 34.128,41.464 L34.128,41.464 Z M48.072,58.04 C48.2026667,58.04 48.3053333,58.0026667 48.38,57.928 C48.4546667,57.8533333 48.492,57.7506667 48.492,57.62 L48.492,57.62 L48.492,51.992 C48.492,51.936 48.5106667,51.9033333 48.548,51.894 C48.5853333,51.8846667 48.6226667,51.8986667 48.66,51.936 C49.3133333,52.7946667 50.3213333,53.224 51.684,53.224 C53.0093333,53.224 54.148,52.8646667 55.1,52.146 C56.052,51.4273333 56.752,50.4986667 57.2,49.36 C57.6106667,48.3146667 57.816,47.12 57.816,45.776 C57.816,44.6186667 57.676,43.5733333 57.396,42.64 C56.9853333,41.2773333 56.2806667,40.1993333 55.282,39.406 C54.2833333,38.6126667 53.1586667,38.216 51.908,38.216 C50.4333333,38.216 49.3506667,38.7293333 48.66,39.756 C48.6226667,39.812 48.5853333,39.8306667 48.548,39.812 C48.5106667,39.7933333 48.492,39.756 48.492,39.7 L48.492,39.7 L48.492,38.86 C48.492,38.7293333 48.4546667,38.6266667 48.38,38.552 C48.3053333,38.4773333 48.2026667,38.44 48.072,38.44 L48.072,38.44 L43.648,38.44 C43.5173333,38.44 43.4146667,38.4773333 43.34,38.552 C43.2653333,38.6266667 43.228,38.7293333 43.228,38.86 L43.228,38.86 L43.228,57.62 C43.228,57.7506667 43.2653333,57.8533333 43.34,57.928 C43.4146667,58.0026667 43.5173333,58.04 43.648,58.04 L43.648,58.04 L48.072,58.04 Z M50.396,48.716 C49.7613333,48.716 49.276,48.4266667 48.94,47.848 C48.6413333,47.3066667 48.492,46.588 48.492,45.692 C48.492,44.8706667 48.632,44.1986667 48.912,43.676 C49.248,43.0413333 49.7426667,42.724 50.396,42.724 C51.0493333,42.724 51.544,43.032 51.88,43.648 C52.16,44.1706667 52.3,44.852 52.3,45.692 C52.3,46.5506667 52.16,47.2506667 51.88,47.792 C51.5626667,48.408 51.068,48.716 50.396,48.716 Z M61.932,53.224 C62.6786667,53.224 63.304,52.972 63.808,52.468 C64.312,51.964 64.564,51.3386667 64.564,50.592 C64.564,49.808 64.3166667,49.1733333 63.822,48.688 C63.3273333,48.2026667 62.6973333,47.96 61.932,47.96 C61.1666667,47.96 60.5366667,48.2026667 60.042,48.688 C59.5473333,49.1733333 59.3,49.808 59.3,50.592 C59.3,51.3573333 59.5473333,51.9873333 60.042,52.482 C60.5366667,52.9766667 61.1666667,53.224 61.932,53.224 Z" id="Rp." fill="#167BBD" fill-rule="nonzero"></path>
                    </g>
                    <g id="Group-57-Copy-2" transform="translate(60.000000, 120.000000)">
                        <g id="Group-17">
                            <mask id="mask-10" fill="white">
                                <use xlink:href="#path-9"></use>
                            </mask>
                            <g id="Clip-16"></g>
                            <path d="M0.113225806,36.0182903 C0.113225806,55.8209032 16.1663226,71.8742903 35.9689355,71.8742903 L35.9689355,71.8742903 C55.772129,71.8742903 71.8252258,55.8209032 71.8252258,36.0182903 L71.8252258,36.0182903 C71.8252258,16.2156774 55.772129,0.162290323 35.9689355,0.162290323 L35.9689355,0.162290323 C16.1663226,0.162290323 0.113225806,16.2156774 0.113225806,36.0182903" id="Fill-15" fill="url(#linearGradient-5)" mask="url(#mask-10)"></path>
                        </g>
                        <g id="Group-20" transform="translate(1.000000, 2.000000)">
                            <mask id="mask-12" fill="white">
                                <use xlink:href="#path-11"></use>
                            </mask>
                            <g id="Clip-19"></g>
                            <path d="M0.144666667,35.018375 C0.144666667,54.2514583 15.736,69.8425 34.9687917,69.8425 L34.9687917,69.8425 C54.201875,69.8425 69.7932083,54.2514583 69.7932083,35.018375 L69.7932083,35.018375 C69.7932083,15.7855833 54.201875,0.193958333 34.9687917,0.193958333 L34.9687917,0.193958333 C15.736,0.193958333 0.144666667,15.7855833 0.144666667,35.018375" id="Fill-18" fill="url(#linearGradient-8)" mask="url(#mask-12)"></path>
                        </g>
                        <g id="Group-25" transform="translate(6.000000, 4.000000)" fill="#FFFFFF">
                            <path d="M0.713414634,19.3944184 C0.611853659,19.3944184 0.508536585,19.3714138 0.411658537,19.3218654 C0.0806341463,19.1534599 -0.0522439024,18.7464553 0.114878049,18.4134783 C5.754,7.15596682 17.0249268,0.162565899 29.5298049,0.162565899 C31.5253171,0.162565899 33.5240488,0.343653456 35.4698049,0.701699539 C35.8344878,0.768353917 36.0765366,1.12050138 36.0100976,1.48857512 C35.9433659,1.85576406 35.5944878,2.10350599 35.2292195,2.03213272 C33.3624878,1.68912811 31.4448293,1.51541382 29.5298049,1.51541382 C17.5347805,1.51541382 6.72278049,8.22391152 1.31341463,19.0225106 C1.19517073,19.2584553 0.95897561,19.3944184 0.713414634,19.3944184" id="Fill-21"></path>
                            <path d="M59.8682341,34.1128848 C59.8682341,50.5735668 46.6263805,63.9174194 30.291161,63.9174194 C13.9562341,63.9174194 0.714380488,50.5735668 0.714380488,34.1128848 C0.714380488,17.6524977 13.9562341,4.30864516 30.291161,4.30864516 C46.6263805,4.30864516 59.8682341,17.6524977 59.8682341,34.1128848" id="Fill-23"></path>
                        </g>
                        <path d="M26.1550218,44.7045455 C26.2671033,44.7045455 26.3551674,44.6727273 26.419214,44.6090909 C26.4832606,44.5454545 26.5152838,44.4579545 26.5152838,44.3465909 L26.5152838,44.3465909 L26.5152838,38.4045455 C26.5152838,38.325 26.555313,38.2852273 26.6353712,38.2852273 L26.6353712,38.2852273 L27.6441048,38.2852273 C27.7081514,38.2852273 27.7561863,38.3170455 27.7882096,38.3806818 L27.7882096,38.3806818 L30.430131,44.4420455 C30.4941776,44.6170455 30.6302766,44.7045455 30.8384279,44.7045455 L30.8384279,44.7045455 L34.8733624,44.7045455 C34.9694323,44.7045455 35.0494905,44.6806818 35.1135371,44.6329545 C35.1775837,44.5852273 35.209607,44.5215909 35.209607,44.4420455 C35.209607,44.4340909 35.2056041,44.4161932 35.1975983,44.3883523 L35.1615721,44.275 L32.1113537,37.975 C32.0793304,37.8954545 32.1033479,37.8397727 32.1834061,37.8079545 C33.0960699,37.4420455 33.812591,36.8653409 34.3329694,36.0778409 C34.8533479,35.2903409 35.1135371,34.3715909 35.1135371,33.3215909 C35.1135371,32.2715909 34.8853712,31.3448864 34.4290393,30.5414773 C33.9727074,29.7380682 33.3322416,29.1136364 32.5076419,28.6681818 C31.6830422,28.2227273 30.7263464,28 29.6375546,28 L29.6375546,28 L22.360262,28 C22.2481805,28 22.1601164,28.0318182 22.0960699,28.0954545 C22.0320233,28.1590909 22,28.2465909 22,28.3579545 L22,28.3579545 L22,44.3465909 C22,44.4579545 22.0320233,44.5454545 22.0960699,44.6090909 C22.1601164,44.6727273 22.2481805,44.7045455 22.360262,44.7045455 L22.360262,44.7045455 L26.1550218,44.7045455 Z M28.8930131,34.8727273 L26.6353712,34.8727273 C26.555313,34.8727273 26.5152838,34.8329545 26.5152838,34.7534091 L26.5152838,34.7534091 L26.5152838,31.9613636 C26.5152838,31.8818182 26.555313,31.8420455 26.6353712,31.8420455 L26.6353712,31.8420455 L28.8930131,31.8420455 C29.4053857,31.8420455 29.8216885,31.98125 30.1419214,32.2596591 C30.4621543,32.5380682 30.6222707,32.9079545 30.6222707,33.3693182 C30.6222707,33.8147727 30.4621543,34.1767045 30.1419214,34.4551136 C29.8216885,34.7335227 29.4053857,34.8727273 28.8930131,34.8727273 L28.8930131,34.8727273 Z M40.8537118,49 C40.9657933,49 41.0538574,48.9681818 41.1179039,48.9045455 C41.1819505,48.8409091 41.2139738,48.7534091 41.2139738,48.6420455 L41.2139738,48.6420455 L41.2139738,43.8454545 C41.2139738,43.7977273 41.2299854,43.7698864 41.2620087,43.7619318 C41.294032,43.7539773 41.3260553,43.7659091 41.3580786,43.7977273 C41.9184862,44.5295455 42.783115,44.8954545 43.9519651,44.8954545 C45.0887918,44.8954545 46.0655022,44.5892045 46.8820961,43.9767045 C47.69869,43.3642045 48.2991266,42.5727273 48.6834061,41.6022727 C49.0356623,40.7113636 49.2117904,39.6931818 49.2117904,38.5477273 C49.2117904,37.5613636 49.0917031,36.6704545 48.8515284,35.875 C48.4992722,34.7136364 47.8948326,33.7948864 47.0382096,33.11875 C46.1815866,32.4426136 45.216885,32.1045455 44.1441048,32.1045455 C42.8791849,32.1045455 41.9505095,32.5420455 41.3580786,33.4170455 C41.3260553,33.4647727 41.294032,33.4806818 41.2620087,33.4647727 C41.2299854,33.4488636 41.2139738,33.4170455 41.2139738,33.3693182 L41.2139738,33.3693182 L41.2139738,32.6534091 C41.2139738,32.5420455 41.1819505,32.4545455 41.1179039,32.3909091 C41.0538574,32.3272727 40.9657933,32.2954545 40.8537118,32.2954545 L40.8537118,32.2954545 L37.058952,32.2954545 C36.9468705,32.2954545 36.8588064,32.3272727 36.7947598,32.3909091 C36.7307132,32.4545455 36.69869,32.5420455 36.69869,32.6534091 L36.69869,32.6534091 L36.69869,48.6420455 C36.69869,48.7534091 36.7307132,48.8409091 36.7947598,48.9045455 C36.8588064,48.9681818 36.9468705,49 37.058952,49 L37.058952,49 L40.8537118,49 Z M42.8471616,41.0534091 C42.3027656,41.0534091 41.8864629,40.8068182 41.5982533,40.3136364 C41.342067,39.8522727 41.2139738,39.2397727 41.2139738,38.4761364 C41.2139738,37.7761364 41.3340611,37.2034091 41.5742358,36.7579545 C41.8624454,36.2170455 42.286754,35.9465909 42.8471616,35.9465909 C43.4075691,35.9465909 43.8318777,36.2090909 44.1200873,36.7340909 C44.360262,37.1795455 44.4803493,37.7602273 44.4803493,38.4761364 C44.4803493,39.2079545 44.360262,39.8045455 44.1200873,40.2659091 C43.8478894,40.7909091 43.4235808,41.0534091 42.8471616,41.0534091 Z M52.7423581,44.8954545 C53.3828239,44.8954545 53.919214,44.6806818 54.3515284,44.2511364 C54.7838428,43.8215909 55,43.2886364 55,42.6522727 C55,41.9840909 54.7878457,41.4431818 54.3635371,41.0295455 C53.9392285,40.6159091 53.3988355,40.4090909 52.7423581,40.4090909 C52.0858806,40.4090909 51.5454876,40.6159091 51.121179,41.0295455 C50.6968705,41.4431818 50.4847162,41.9840909 50.4847162,42.6522727 C50.4847162,43.3045455 50.6968705,43.8414773 51.121179,44.2630682 C51.5454876,44.6846591 52.0858806,44.8954545 52.7423581,44.8954545 Z" id="Rp." fill="#167BBD" fill-rule="nonzero"></path>
                    </g>
                    <g id="Group-57-Copy" transform="translate(145.000000, 79.000000)">
                        <g id="Group-17">
                            <mask id="mask-14" fill="white">
                                <use xlink:href="#path-13"></use>
                            </mask>
                            <g id="Clip-16"></g>
                            <path d="M0.0896370968,28.5144798 C0.0896370968,44.1915484 12.7983387,56.9004798 28.4754073,56.9004798 L28.4754073,56.9004798 C44.1529355,56.9004798 56.8616371,44.1915484 56.8616371,28.5144798 L56.8616371,28.5144798 C56.8616371,12.8374113 44.1529355,0.128479839 28.4754073,0.128479839 L28.4754073,0.128479839 C12.7983387,0.128479839 0.0896370968,12.8374113 0.0896370968,28.5144798" id="Fill-15" fill="url(#linearGradient-5)" mask="url(#mask-14)"></path>
                        </g>
                        <g id="Group-20" transform="translate(1.000000, 1.000000)">
                            <mask id="mask-16" fill="white">
                                <use xlink:href="#path-15"></use>
                            </mask>
                            <g id="Clip-19"></g>
                            <path d="M0.115733333,28.0147 C0.115733333,43.4011667 12.5888,55.874 27.9750333,55.874 L27.9750333,55.874 C43.3615,55.874 55.8345667,43.4011667 55.8345667,28.0147 L55.8345667,28.0147 C55.8345667,12.6284667 43.3615,0.155166667 27.9750333,0.155166667 L27.9750333,0.155166667 C12.5888,0.155166667 0.115733333,12.6284667 0.115733333,28.0147" id="Fill-18" fill="url(#linearGradient-8)" mask="url(#mask-16)"></path>
                        </g>
                        <g id="Group-25" transform="translate(5.000000, 4.000000)" fill="#FFFFFF">
                            <path d="M0.570731707,15.1518894 C0.489482927,15.1518894 0.406829268,15.1339171 0.329326829,15.0952074 C0.0645073171,14.9636406 -0.041795122,14.6456682 0.091902439,14.38553 C4.6032,5.59059908 13.6199415,0.127004608 23.6238439,0.127004608 C25.2202537,0.127004608 26.819239,0.268479263 28.3758439,0.548202765 C28.6675902,0.600276498 28.8612293,0.875391705 28.808078,1.16294931 C28.7546927,1.44981567 28.4755902,1.64336406 28.1833756,1.58760369 C26.6899902,1.31963134 25.1558634,1.18391705 23.6238439,1.18391705 C14.0278244,1.18391705 5.37822439,6.42493088 1.05073171,14.8613364 C0.956136585,15.0456682 0.767180488,15.1518894 0.570731707,15.1518894" id="Fill-21"></path>
                            <path d="M47.8945873,26.6506912 C47.8945873,39.5105991 37.3011044,49.9354839 24.2329288,49.9354839 C11.1649873,49.9354839 0.57150439,39.5105991 0.57150439,26.6506912 C0.57150439,13.7910138 11.1649873,3.36612903 24.2329288,3.36612903 C37.3011044,3.36612903 47.8945873,13.7910138 47.8945873,26.6506912" id="Fill-23"></path>
                        </g>
                        <path d="M20.2736536,35.5227273 C20.3619602,35.5227273 20.431344,35.4969697 20.4818049,35.4454545 C20.5322659,35.3939394 20.5574964,35.3231061 20.5574964,35.2329545 L20.5574964,35.2329545 L20.5574964,30.4227273 C20.5574964,30.3583333 20.5890344,30.3261364 20.6521106,30.3261364 L20.6521106,30.3261364 L21.4468705,30.3261364 C21.4973314,30.3261364 21.5351771,30.3518939 21.5604076,30.4034091 L21.5604076,30.4034091 L23.6419214,35.3102273 C23.6923823,35.4518939 23.7996118,35.5227273 23.9636099,35.5227273 L23.9636099,35.5227273 L27.1426492,35.5227273 C27.2183406,35.5227273 27.2814168,35.5034091 27.3318777,35.4647727 C27.3823387,35.4261364 27.4075691,35.3746212 27.4075691,35.3102273 C27.4075691,35.3037879 27.4044153,35.2892992 27.3981077,35.2667614 L27.3697234,35.175 L24.9665211,30.075 C24.9412906,30.0106061 24.9602135,29.9655303 25.0232897,29.9397727 C25.7423581,29.6435606 26.3068899,29.1767045 26.716885,28.5392045 C27.1268802,27.9017045 27.3318777,27.1579545 27.3318777,26.3079545 C27.3318777,25.4579545 27.1521106,24.7077652 26.7925764,24.0573864 C26.4330422,23.4070076 25.9284328,22.9015152 25.2787482,22.5409091 C24.6290636,22.180303 23.8753033,22 23.0174672,22 L23.0174672,22 L17.2838428,22 C17.1955361,22 17.1261524,22.0257576 17.0756914,22.0772727 C17.0252305,22.1287879 17,22.1996212 17,22.2897727 L17,22.2897727 L17,35.2329545 C17,35.3231061 17.0252305,35.3939394 17.0756914,35.4454545 C17.1261524,35.4969697 17.1955361,35.5227273 17.2838428,35.5227273 L17.2838428,35.5227273 L20.2736536,35.5227273 Z M22.4308588,27.5636364 L20.6521106,27.5636364 C20.5890344,27.5636364 20.5574964,27.5314394 20.5574964,27.4670455 L20.5574964,27.4670455 L20.5574964,25.2068182 C20.5574964,25.1424242 20.5890344,25.1102273 20.6521106,25.1102273 L20.6521106,25.1102273 L22.4308588,25.1102273 C22.8345463,25.1102273 23.1625425,25.2229167 23.4148472,25.4482955 C23.6671519,25.6736742 23.7933042,25.9731061 23.7933042,26.3465909 C23.7933042,26.707197 23.6671519,27.0001894 23.4148472,27.2255682 C23.1625425,27.450947 22.8345463,27.5636364 22.4308588,27.5636364 L22.4308588,27.5636364 Z M31.8544396,39 C31.9427462,39 32.01213,38.9742424 32.062591,38.9227273 C32.1130519,38.8712121 32.1382824,38.8003788 32.1382824,38.7102273 L32.1382824,38.7102273 L32.1382824,34.8272727 C32.1382824,34.7886364 32.1508976,34.7660985 32.1761281,34.7596591 C32.2013586,34.7532197 32.226589,34.7628788 32.2518195,34.7886364 C32.6933527,35.3810606 33.3745754,35.6772727 34.2954876,35.6772727 C35.1911693,35.6772727 35.9606987,35.4293561 36.6040757,34.9335227 C37.2474527,34.4376894 37.720524,33.7969697 38.0232897,33.0113636 C38.3008248,32.2901515 38.4395924,31.4659091 38.4395924,30.5386364 C38.4395924,29.7401515 38.3449782,29.0189394 38.1557496,28.375 C37.8782145,27.4348485 37.4019893,26.6910985 36.7270742,26.14375 C36.0521591,25.5964015 35.2920912,25.3227273 34.4468705,25.3227273 C33.4502669,25.3227273 32.7185832,25.6768939 32.2518195,26.3852273 C32.226589,26.4238636 32.2013586,26.4367424 32.1761281,26.4238636 C32.1508976,26.4109848 32.1382824,26.3852273 32.1382824,26.3465909 L32.1382824,26.3465909 L32.1382824,25.7670455 C32.1382824,25.6768939 32.1130519,25.6060606 32.062591,25.5545455 C32.01213,25.5030303 31.9427462,25.4772727 31.8544396,25.4772727 L31.8544396,25.4772727 L28.8646288,25.4772727 C28.7763222,25.4772727 28.7069384,25.5030303 28.6564774,25.5545455 C28.6060165,25.6060606 28.580786,25.6768939 28.580786,25.7670455 L28.580786,25.7670455 L28.580786,38.7102273 C28.580786,38.8003788 28.6060165,38.8712121 28.6564774,38.9227273 C28.7069384,38.9742424 28.7763222,39 28.8646288,39 L28.8646288,39 L31.8544396,39 Z M33.4250364,32.5670455 C32.9961184,32.5670455 32.6681223,32.3674242 32.441048,31.9681818 C32.2392043,31.594697 32.1382824,31.0988636 32.1382824,30.4806818 C32.1382824,29.9140152 32.2328967,29.4503788 32.4221252,29.0897727 C32.6491994,28.6518939 32.9835032,28.4329545 33.4250364,28.4329545 C33.8665696,28.4329545 34.2008734,28.6454545 34.4279476,29.0704545 C34.6171761,29.4310606 34.7117904,29.9011364 34.7117904,30.4806818 C34.7117904,31.0731061 34.6171761,31.5560606 34.4279476,31.9295455 C34.2134886,32.3545455 33.8791849,32.5670455 33.4250364,32.5670455 Z M41.2212518,35.6772727 C41.7258612,35.6772727 42.1484716,35.5034091 42.489083,35.1556818 C42.8296943,34.8079545 43,34.3765152 43,33.8613636 C43,33.3204545 42.8328481,32.8825758 42.4985444,32.5477273 C42.1642407,32.2128788 41.7384765,32.0454545 41.2212518,32.0454545 C40.7040272,32.0454545 40.278263,32.2128788 39.9439592,32.5477273 C39.6096555,32.8825758 39.4425036,33.3204545 39.4425036,33.8613636 C39.4425036,34.3893939 39.6096555,34.824053 39.9439592,35.1653409 C40.278263,35.5066288 40.7040272,35.6772727 41.2212518,35.6772727 Z" id="Rp." fill="#167BBD" fill-rule="nonzero"></path>
                    </g>
                </g>
            </g>
        </g>
    </g>
</svg>