<?xml version="1.0" encoding="UTF-8"?>
<svg width="36px" height="36px" viewBox="0 0 36 36" version="1.1" xmlns="http://www.w3.org/2000/svg" xmlns:xlink="http://www.w3.org/1999/xlink">
    <title>3A69BC08-EA8D-461A-9A5E-501DDC5D4F50@2x</title>
    <defs>
        <filter id="filter-1">
            <feColorMatrix in="SourceGraphic" type="matrix" values="0 0 0 0 1.000000 0 0 0 0 1.000000 0 0 0 0 1.000000 0 0 0 1.000000 0"></feColorMatrix>
        </filter>
    </defs>
    <g id="Page-1" stroke="none" stroke-width="1" fill="none" fill-rule="evenodd">
        <g id="bank-building-(1)" transform="translate(-740.000000, -2345.000000)" filter="url(#filter-1)">
            <g transform="translate(740.000000, 2345.000000)">
                <path d="M34.3493617,32.7201702 L1.63608511,32.7201702 C0.732255319,32.7201702 0,33.4524255 0,34.3570213 C0,35.2600851 0.732255319,35.9923404 1.63608511,35.9923404 L34.3485957,35.9923404 C35.2524255,35.9923404 35.9846809,35.2600851 35.9846809,34.3570213 C35.9839149,33.4524255 35.2516596,32.7201702 34.3493617,32.7201702 Z" id="Path" fill="#000000" fill-rule="nonzero"></path>
                <path d="M3.68042553,28.4668085 C2.77659574,28.4668085 2.04434043,29.1990638 2.04434043,30.1028936 C2.04434043,31.0067234 2.77659574,31.7397447 3.68042553,31.7397447 L32.3042553,31.7397447 C33.2080851,31.7397447 33.9403404,31.0067234 33.9403404,30.1028936 C33.9403404,29.1990638 33.2080851,28.4668085 32.3042553,28.4668085 L31.896,28.4668085 L31.896,13.7451064 L32.3042553,13.7451064 C32.7569362,13.7451064 33.1215319,13.3789787 33.1215319,12.9278298 C33.1215319,12.4766809 32.7554043,12.1105532 32.3042553,12.1105532 L3.68042553,12.1105532 C3.22851064,12.1105532 2.86314894,12.4766809 2.86314894,12.9278298 C2.86314894,13.3789787 3.2292766,13.7451064 3.68042553,13.7451064 L4.08944681,13.7451064 L4.08944681,28.4660426 L3.68042553,28.4660426 L3.68042553,28.4668085 Z M28.6238298,13.7451064 L28.6238298,28.4660426 L23.7171064,28.4660426 L23.7171064,13.7451064 L28.6238298,13.7451064 Z M20.4449362,13.7451064 L20.4449362,28.4660426 L15.5382128,28.4660426 L15.5382128,13.7451064 L20.4449362,13.7451064 Z M7.36008511,13.7451064 L12.2668085,13.7451064 L12.2668085,28.4660426 L7.36008511,28.4660426 L7.36008511,13.7451064 Z" id="Shape" fill="#000000" fill-rule="nonzero"></path>
                <path d="M1.63608511,10.6399149 L34.3485957,10.6399149 C34.3539574,10.6399149 34.3600851,10.6399149 34.3646809,10.6399149 C35.2692766,10.6399149 36.000766,9.90765957 36.000766,9.00382979 C36.000766,8.2853617 35.5381277,7.67642553 34.8954894,7.45582979 L18.6648511,0.152425532 C18.2382128,-0.0390638298 17.7502979,-0.0390638298 17.3228936,0.152425532 L0.965106383,7.51251064 C0.261191489,7.82961702 -0.125617021,8.59404255 0.0367659574,9.34774468 C0.198382979,10.1014468 0.864765957,10.6399149 1.63608511,10.6399149 Z" id="Path" fill="#000000" fill-rule="nonzero"></path>
            </g>
        </g>
    </g>
</svg>