<svg xmlns="http://www.w3.org/2000/svg" xmlns:xlink="http://www.w3.org/1999/xlink" version="1.1" enable-background="new 0 0 50 50" xml:space="preserve" width="42" height="42" style=""><rect id="backgroundrect" width="100%" height="100%" x="0" y="0" fill="none" stroke="none" class="" style=""/>



<g class="currentLayer" style=""><title>Layer 1</title><path fill="#f7941d" d="M6.08079314661026,11.551724195480347 h30 c0.552,0 1,-0.44700000000000106 1,-1 s-0.44800000000000106,-1 -1,-1 h-30 c-0.552,0 -1,0.44700000000000106 -1,1 S5.52779314661026,11.551724195480347 6.08079314661026,11.551724195480347 z" id="svg_1" class="" fill-opacity="1"/><path fill="#f7941d" d="M6.08079314661026,33.55172419548035 h30 c0.552,0 1,-0.4470000000000012 1,-1 s-0.4480000000000012,-1 -1,-1 h-30 c-0.552,0 -1,0.4470000000000012 -1,1 S5.52779314661026,33.55172419548035 6.08079314661026,33.55172419548035 z" class="" fill-opacity="1" id="svg_5"/><path fill="#f7941d" d="M6.08079314661026,22.551724195480347 h30 c0.552,0 1,-0.44700000000000106 1,-1 s-0.44800000000000106,-1 -1,-1 h-30 c-0.552,0 -1,0.44700000000000106 -1,1 S5.52779314661026,22.551724195480347 6.08079314661026,22.551724195480347 z" id="svg_3" class="" fill-opacity="1"/></g></svg>