<?xml version="1.0" encoding="UTF-8"?>
<svg width="20px" height="20px" viewBox="0 0 20 20" version="1.1" xmlns="http://www.w3.org/2000/svg" xmlns:xlink="http://www.w3.org/1999/xlink">
    <title>B966647E-9705-4B41-B724-6A32863D8525@2x</title>
    <g id="Page-1" stroke="none" stroke-width="1" fill="none" fill-rule="evenodd">
        <g id="Homepage-Kazokku" transform="translate(-1138.000000, -3715.000000)" fill="#FFFFFF">
            <g id="Group-13" transform="translate(0.000000, 3579.000000)">
                <g id="Facebook" transform="translate(1138.000000, 136.000000)">
                    <path d="M10.682648,20 L1.10384647,20 C0.494030274,20 0,19.5056631 0,18.8960845 L0,1.1038379 C0,0.494104044 0.494107878,0 1.10384647,0 L18.8962311,0 C19.5058145,0 20,0.494104044 20,1.1038379 L20,18.8960845 C20,19.5057407 19.5057369,20 18.8962311,20 L13.7997105,20 L13.7997105,12.2548978 L16.3993838,12.2548978 L16.788648,9.23649401 L13.7997105,9.23649401 L13.7997105,7.30943392 C13.7997105,6.43553638 14.0423798,5.84000404 15.2955374,5.84000404 L16.8938797,5.8393056 L16.8938797,3.13962106 C16.6174525,3.10283681 15.6686598,3.02065428 14.5648133,3.02065428 C12.2603476,3.02065428 10.682648,4.4273026 10.682648,7.01050369 L10.682648,9.23649401 L8.07630075,9.23649401 L8.07630075,12.2548978 L10.682648,12.2548978 L10.682648,20 L10.682648,20 Z"></path>
                </g>
            </g>
        </g>
    </g>
</svg>