<?xml version="1.0" encoding="UTF-8"?>
<svg width="20px" height="20px" viewBox="0 0 20 20" version="1.1" xmlns="http://www.w3.org/2000/svg" xmlns:xlink="http://www.w3.org/1999/xlink">
    <title>9AF94DBE-2FE3-4702-8119-C65124E8D059@2x</title>
    <defs>
        <filter id="filter-1">
            <feColorMatrix in="SourceGraphic" type="matrix" values="0 0 0 0 1.000000 0 0 0 0 1.000000 0 0 0 0 1.000000 0 0 0 1.000000 0"></feColorMatrix>
        </filter>
    </defs>
    <g id="Page-1" stroke="none" stroke-width="1" fill="none" fill-rule="evenodd">
        <g id="Homepage-Kazokku" transform="translate(-998.000000, -3715.000000)">
            <g id="Group-13" transform="translate(0.000000, 3579.000000)">
                <g id="Instagram/Black" transform="translate(998.000000, 136.000000)" filter="url(#filter-1)">
                    <g fill="#000000" id="Instagram">
                        <path d="M11.0275584,0.000779550849 C12.8279528,0.00404727617 13.2087532,0.0184638748 14.1229872,0.0601777148 C15.1873706,0.108724776 15.9143063,0.277786048 16.55038,0.525006897 C17.2079684,0.780524015 17.7656443,1.12245728 18.3216134,1.67838663 C18.8775427,2.23435568 19.219476,2.79203161 19.4750328,3.44962002 C19.722214,4.0856937 19.8912752,4.81262938 19.9398223,5.87701279 C19.9815361,6.79124679 19.9959527,7.17204719 19.9992204,8.97246663 L19.9999548,9.71798312 L19.9999548,9.71798312 L20,10.0000198 C20,10.0970133 19.9999853,10.1909771 19.9999548,10.2820525 L19.9992204,11.0275584 C19.9959527,12.8279528 19.9815361,13.2087532 19.9398223,14.1229872 C19.8912752,15.1873706 19.722214,15.9143063 19.4750328,16.55038 C19.219476,17.2079684 18.8775427,17.7656443 18.3216134,18.3216134 C17.7656443,18.8775427 17.2079684,19.219476 16.55038,19.4750328 C15.9143063,19.722214 15.1873706,19.8912752 14.1229872,19.9398223 C13.2087532,19.9815361 12.8279528,19.9959527 11.0275584,19.9992204 L10.2820525,19.9999548 L10.2820525,19.9999548 L10.0000198,20 C9.90302496,20 9.80905981,19.9999853 9.71798312,19.9999548 L8.97246663,19.9992204 C7.17204719,19.9959527 6.79124679,19.9815361 5.87701279,19.9398223 C4.81262938,19.8912752 4.0856937,19.722214 3.44962002,19.4750328 C2.79203161,19.219476 2.23435568,18.8775427 1.67838663,18.3216134 C1.12245728,17.7656443 0.780524015,17.2079684 0.525006897,16.55038 C0.277786048,15.9143063 0.108724776,15.1873706 0.0601777148,14.1229872 C0.0184638748,13.2087532 0.00404727617,12.8279528 0.000779550849,11.0275584 L0.000779550849,8.97246663 C0.00404727617,7.17204719 0.0184638748,6.79124679 0.0601777148,5.87701279 C0.108724776,4.81262938 0.277786048,4.0856937 0.525006897,3.44962002 C0.780524015,2.79203161 1.12245728,2.23435568 1.67838663,1.67838663 C2.23435568,1.12245728 2.79203161,0.780524015 3.44962002,0.525006897 C4.0856937,0.277786048 4.81262938,0.108724776 5.87701279,0.0601777148 C6.79124679,0.0184638748 7.17204719,0.00404727617 8.97246663,0.000779550849 Z M10.5558839,1.80197777 L9.44414763,1.80197777 C7.88522956,1.80308669 7.27066715,1.80964184 6.68431013,1.82985275 L6.48864571,1.83710674 C6.32436803,1.84359198 6.15441218,1.85120129 5.95914187,1.86011063 C4.98415175,1.9045691 4.45465931,2.06747764 4.10228624,2.2044256 C3.635512,2.38583204 3.30239103,2.60252738 2.95247906,2.95247906 C2.60252738,3.30239103 2.38583204,3.635512 2.2044256,4.10228624 C2.06747764,4.45465931 1.9045691,4.98415175 1.86011063,5.95914187 C1.85120129,6.15441218 1.84359198,6.32436803 1.83710674,6.48864571 L1.82985275,6.68431013 C1.80964184,7.27066715 1.80308669,7.88522956 1.80197777,9.44414763 L1.80197777,10.5558839 C1.80308669,12.1147793 1.80964184,12.7293353 1.82985275,13.3156906 L1.83710674,13.5113545 C1.84359198,13.675632 1.85120129,13.8455878 1.86011063,14.0408581 C1.9045691,15.0158483 2.06747764,15.5453407 2.2044256,15.8977138 C2.38583204,16.364488 2.60256708,16.697609 2.95247906,17.0475209 C3.30239103,17.3974726 3.635512,17.614168 4.10228624,17.7955744 C4.45465931,17.9325224 4.98415175,18.0954309 5.95914187,18.1398894 C6.15439012,18.1487987 6.32432528,18.156408 6.48858515,18.1628933 L6.68422966,18.1701473 C7.27053169,18.1903582 7.88508419,18.1969133 9.444108,18.1980222 L10.5559241,18.1980222 C12.1149287,18.1969133 12.7294921,18.1903582 13.315788,18.1701473 L13.5114297,18.1628933 C13.6756867,18.156408 13.8456172,18.1487987 14.0408581,18.1398894 C15.0158483,18.0954309 15.5453407,17.9325224 15.8977138,17.7955744 C16.364488,17.614168 16.697609,17.3974726 17.0475209,17.0475209 C17.3974726,16.697609 17.614168,16.364488 17.7955744,15.8977138 C17.9325224,15.5453407 18.0954309,15.0158483 18.1398894,14.0408581 C18.1487987,13.8455878 18.156408,13.675632 18.1628933,13.5113545 L18.1701473,13.3156906 C18.1903582,12.7293353 18.1969133,12.1147793 18.1980222,10.5558839 L18.1980222,9.44414763 C18.1969133,7.88522956 18.1903582,7.27066715 18.1701473,6.68431013 L18.1628933,6.48864571 C18.156408,6.32436803 18.1487987,6.15441218 18.1398894,5.95914187 C18.0954309,4.98415175 17.9325224,4.45465931 17.7955744,4.10228624 C17.614168,3.635512 17.3974726,3.30239103 17.0475209,2.95247906 C16.697609,2.60252738 16.364488,2.38583204 15.8977138,2.2044256 C15.5453407,2.06747764 15.0158483,1.9045691 14.0408581,1.86011063 C13.8455878,1.85120129 13.675632,1.84359198 13.5113545,1.83710674 L13.3156906,1.82985275 C12.7293353,1.80964184 12.1147793,1.80308669 10.5558839,1.80197777 Z M10.0000198,4.86486808 C12.8360733,4.86486808 15.1351319,7.16392671 15.1351319,10.0000198 C15.1351319,12.8360733 12.8360733,15.1351319 10.0000198,15.1351319 C7.16392671,15.1351319 4.86486808,12.8360733 4.86486808,10.0000198 C4.86486808,7.16392671 7.16392671,4.86486808 10.0000198,4.86486808 Z M10.0000198,6.66666667 C8.15904224,6.66666667 6.66666667,8.15904224 6.66666667,10.0000198 C6.66666667,11.8409578 8.15904224,13.3333333 10.0000198,13.3333333 C11.8409578,13.3333333 13.3333333,11.8409578 13.3333333,10.0000198 C13.3333333,8.15904224 11.8409578,6.66666667 10.0000198,6.66666667 Z M15.3380134,3.46196518 C16.0007621,3.46196518 16.5380348,3.99923785 16.5380348,4.66198662 C16.5380348,5.32473538 16.0007621,5.86196836 15.3380134,5.86196836 C14.6753043,5.86196836 14.1380316,5.32473538 14.1380316,4.66198662 C14.1380316,3.99923785 14.6753043,3.46196518 15.3380134,3.46196518 Z"></path>
                    </g>
                </g>
            </g>
        </g>
    </g>
</svg>