<?xml version="1.0" encoding="UTF-8"?>
<svg width="23px" height="23px" viewBox="0 0 23 23" version="1.1" xmlns="http://www.w3.org/2000/svg" xmlns:xlink="http://www.w3.org/1999/xlink">
    <title>26409F3D-B789-41C0-9EBE-D766CABEBD7C@2x</title>
    <defs>
        <filter id="filter-1">
            <feColorMatrix in="SourceGraphic" type="matrix" values="0 0 0 0 1.000000 0 0 0 0 1.000000 0 0 0 0 1.000000 0 0 0 1.000000 0"></feColorMatrix>
        </filter>
    </defs>
    <g id="Page-1" stroke="none" stroke-width="1" fill="none" fill-rule="evenodd">
        <g id="Homepage-Kazokku" transform="translate(-1067.000000, -3713.000000)">
            <g id="Group-13" transform="translate(0.000000, 3579.000000)">
                <g id="icon/linkedin3" transform="translate(1058.000000, 126.000000)" filter="url(#filter-1)">
                    <g id="linkedin-(2)" transform="translate(9.000000, 8.000000)" fill="#000000" fill-rule="nonzero">
                        <path d="M5.18823242,22.234375 L0.317321797,22.234375 L0.317321797,7.58013914 L5.18823242,7.58013914 L5.18823242,22.234375 Z M2.75292969,5.57910156 L2.72119141,5.57910156 C1.08666992,5.57910156 0.0295410156,4.45391844 0.0295410156,3.04766844 C0.0295410156,1.60968016 1.11901859,0.515625 2.78527828,0.515625 C4.45153812,0.515625 5.47692875,1.60968016 5.50866703,3.04766844 C5.50866703,4.45391844 4.45153812,5.57910156 2.75292969,5.57910156 Z M22.751709,22.234375 L17.8814087,22.234375 L17.8814087,14.3947144 C17.8814087,12.4244995 17.1761475,11.0808105 15.4137573,11.0808105 C14.0682373,11.0808105 13.2668457,11.9871827 12.9146728,12.8621216 C12.7858887,13.175232 12.7544555,13.612854 12.7544555,14.0507812 L12.7544555,22.234375 L7.88385008,22.234375 C7.88385008,22.234375 7.94763188,8.95495609 7.88385008,7.58013914 L12.7544555,7.58013914 L12.7544555,9.6550293 C13.4017334,8.65649414 14.5598755,7.23620609 17.144104,7.23620609 C20.3487548,7.23620609 22.751709,9.33062742 22.751709,13.831665 L22.751709,22.234375 Z" id="Shape"></path>
                    </g>
                </g>
            </g>
        </g>
    </g>
</svg>