<?xml version="1.0" encoding="UTF-8"?>
<svg width="20px" height="15px" viewBox="0 0 20 15" version="1.1" xmlns="http://www.w3.org/2000/svg" xmlns:xlink="http://www.w3.org/1999/xlink">
    <title>30B035EA-F3F7-4941-8DAB-CE052D274971@2x</title>
    <defs>
        <filter id="filter-1">
            <feColorMatrix in="SourceGraphic" type="matrix" values="0 0 0 0 1.000000 0 0 0 0 1.000000 0 0 0 0 1.000000 0 0 0 1.000000 0"></feColorMatrix>
        </filter>
    </defs>
    <g id="Page-1" stroke="none" stroke-width="1" fill="none" fill-rule="evenodd">
        <g id="Homepage-Kazokku" transform="translate(-1208.000000, -3718.000000)">
            <g id="Group-13" transform="translate(0.000000, 3579.000000)">
                <g id="icon/mail1" transform="translate(1208.000000, 139.000000)" filter="url(#filter-1)">
                    <g id="mail-(2)" fill="#000000" fill-rule="nonzero">
                        <path d="M19.8238281,1.00472656 L13.7582422,7.03125 L19.8238281,13.0577734 C19.9334766,12.8285937 20,12.5752344 20,12.3046875 L20,1.7578125 C20,1.48722656 19.9334766,1.23390625 19.8238281,1.00472656 Z" id="Path"></path>
                        <path d="M18.2421875,0 L1.7578125,0 C1.48722656,0 1.23390625,0.0665234375 1.00472656,0.176171875 L8.7571875,7.88957031 C9.44265625,8.57503906 10.5573438,8.57503906 11.2428125,7.88957031 L18.9952734,0.176171875 C18.7660937,0.0665234375 18.5127734,0 18.2421875,0 Z" id="Path"></path>
                        <path d="M0.176171875,1.00472656 C0.0665234375,1.23390625 0,1.48722656 0,1.7578125 L0,12.3046875 C0,12.5752734 0.0665234375,12.8286328 0.176171875,13.0577734 L6.24175781,7.03125 L0.176171875,1.00472656 Z" id="Path"></path>
                        <path d="M12.9296875,7.85980469 L12.0713672,8.718125 C10.9292188,9.86027344 9.07074219,9.86027344 7.92859375,8.718125 L7.0703125,7.85980469 L1.00472656,13.8863281 C1.23390625,13.9959766 1.48722656,14.0625 1.7578125,14.0625 L18.2421875,14.0625 C18.5127734,14.0625 18.7660937,13.9959766 18.9952734,13.8863281 L12.9296875,7.85980469 Z" id="Path"></path>
                    </g>
                </g>
            </g>
        </g>
    </g>
</svg>