<?xml version="1.0" encoding="UTF-8"?>
<svg width="12px" height="9px" viewBox="0 0 12 9" version="1.1" xmlns="http://www.w3.org/2000/svg" xmlns:xlink="http://www.w3.org/1999/xlink">
    <title>B7ADC850-805C-40C3-A70B-447A501F3279@2x</title>
    <defs>
        <filter id="filter-1">
            <feColorMatrix in="SourceGraphic" type="matrix" values="0 0 0 0 0.000000 0 0 0 0 0.000000 0 0 0 0 0.000000 0 0 0 1.000000 0"></feColorMatrix>
        </filter>
    </defs>
    <g id="Page-1" stroke="none" stroke-width="1" fill="none" fill-rule="evenodd">
        <g id="Homepage-Kazokku" transform="translate(-128.000000, -3755.000000)">
            <g id="Group-13" transform="translate(0.000000, 3579.000000)">
                <g id="Group-10" transform="translate(128.000000, 175.000000)">
                    <g id="icon/phone2" transform="translate(0.705882, 1.000000)" filter="url(#filter-1)">
                        <g id="old-typical-phone" transform="translate(0.000000, 0.000000)" fill="#010002" fill-rule="nonzero">
                            <path d="M5.29187783,1.68475113 C7.0558371,1.70205882 8.16088235,1.59230769 8.31013575,3.54746606 L10.4611765,3.54746606 C10.4611765,0.51861991 7.81961538,0.110361991 5.23588235,0.110361991 C2.6519457,0.110361991 0.0105882353,0.51861991 0.0105882353,3.54746606 L2.14493213,3.54746606 C2.31006787,1.55504525 3.54257919,1.66764706 5.29187783,1.68475113 Z" id="Path"></path>
                            <path d="M1.07735294,4.52117647 C1.60126697,4.52117647 2.03721719,4.55253394 2.13414027,4.03717195 C2.14717195,3.9671267 2.15470588,3.88771493 2.15470588,3.79588235 L2.12986425,3.79588235 L0,3.79588235 C0,4.56251131 0.482375566,4.52117647 1.07735294,4.52117647 Z" id="Path"></path>
                            <path d="M8.3239819,3.79588235 L8.30382353,3.79588235 C8.30382353,3.88832579 8.31176471,3.96794118 8.32662896,4.03717195 C8.42884615,4.51242081 8.86418552,4.48289593 9.38626697,4.48289593 C9.98409502,4.48289593 10.4687104,4.52219457 10.4687104,3.79588235 L8.3239819,3.79588235 Z" id="Path"></path>
                            <path d="M7.27309955,3.2738009 L7.27309955,2.96918552 C7.27309955,2.8329638 7.1161086,2.82441176 6.92226244,2.82441176 L6.60563348,2.82441176 C6.41199095,2.82441176 6.255,2.8329638 6.255,2.96918552 L6.255,3.23165158 L6.255,3.43527149 L4.015181,3.43527149 L4.015181,3.23165158 L4.015181,2.96918552 C4.015181,2.8329638 3.85819005,2.82441176 3.66454751,2.82441176 L3.34771493,2.82441176 C3.1540724,2.82441176 2.99708145,2.8329638 2.99708145,2.96918552 L2.99708145,3.2738009 L2.99708145,3.53972851 C2.48680995,4.06995475 0.817126697,6.32708145 0.756447964,6.60033937 L0.757262443,8.42375566 C0.757262443,8.59214932 0.894298643,8.72918552 1.06269231,8.72918552 L9.20748869,8.72918552 C9.37588235,8.72918552 9.51291855,8.59214932 9.51291855,8.42375566 L9.51291855,6.59117647 C9.45285068,6.32585973 7.78357466,4.06975113 7.27309955,3.53952489 L7.27309955,3.2738009 Z M3.904819,6.84570136 C3.74090498,6.84570136 3.60794118,6.71294118 3.60794118,6.54882353 C3.60794118,6.38470588 3.74090498,6.2519457 3.904819,6.2519457 C4.06873303,6.2519457 4.20169683,6.38470588 4.20169683,6.54882353 C4.20169683,6.71294118 4.06873303,6.84570136 3.904819,6.84570136 Z M3.904819,5.82760181 C3.74090498,5.82760181 3.60794118,5.69484163 3.60794118,5.53072398 C3.60794118,5.36660633 3.74090498,5.23384615 3.904819,5.23384615 C4.06873303,5.23384615 4.20169683,5.36660633 4.20169683,5.53072398 C4.20169683,5.69484163 4.06873303,5.82760181 3.904819,5.82760181 Z M3.904819,4.80970588 C3.74090498,4.80970588 3.60794118,4.6769457 3.60794118,4.51282805 C3.60794118,4.34891403 3.74090498,4.21595023 3.904819,4.21595023 C4.06873303,4.21595023 4.20169683,4.34891403 4.20169683,4.51282805 C4.20169683,4.6769457 4.06873303,4.80970588 3.904819,4.80970588 Z M5.12653846,6.84570136 C4.96262443,6.84570136 4.82966063,6.71294118 4.82966063,6.54882353 C4.82966063,6.38470588 4.96262443,6.2519457 5.12653846,6.2519457 C5.29065611,6.2519457 5.42341629,6.38470588 5.42341629,6.54882353 C5.42341629,6.71294118 5.29065611,6.84570136 5.12653846,6.84570136 Z M5.12653846,5.82760181 C4.96262443,5.82760181 4.82966063,5.69484163 4.82966063,5.53072398 C4.82966063,5.36660633 4.96262443,5.23384615 5.12653846,5.23384615 C5.29065611,5.23384615 5.42341629,5.36660633 5.42341629,5.53072398 C5.42341629,5.69484163 5.29065611,5.82760181 5.12653846,5.82760181 Z M5.12653846,4.80970588 C4.96262443,4.80970588 4.82966063,4.6769457 4.82966063,4.51282805 C4.82966063,4.34891403 4.96262443,4.21595023 5.12653846,4.21595023 C5.29065611,4.21595023 5.42341629,4.34891403 5.42341629,4.51282805 C5.42341629,4.6769457 5.29065611,4.80970588 5.12653846,4.80970588 Z M6.34825792,6.84570136 C6.18414027,6.84570136 6.05138009,6.71294118 6.05138009,6.54882353 C6.05138009,6.38470588 6.18414027,6.2519457 6.34825792,6.2519457 C6.51237557,6.2519457 6.64513575,6.38470588 6.64513575,6.54882353 C6.64513575,6.71294118 6.51237557,6.84570136 6.34825792,6.84570136 Z M6.34825792,5.82760181 C6.18414027,5.82760181 6.05138009,5.69484163 6.05138009,5.53072398 C6.05138009,5.36660633 6.18414027,5.23384615 6.34825792,5.23384615 C6.51237557,5.23384615 6.64513575,5.36660633 6.64513575,5.53072398 C6.64513575,5.69484163 6.51237557,5.82760181 6.34825792,5.82760181 Z M6.34825792,4.80970588 C6.18414027,4.80970588 6.05138009,4.6769457 6.05138009,4.51282805 C6.05138009,4.34891403 6.18414027,4.21595023 6.34825792,4.21595023 C6.51237557,4.21595023 6.64513575,4.34891403 6.64513575,4.51282805 C6.64513575,4.6769457 6.51237557,4.80970588 6.34825792,4.80970588 Z" id="Shape"></path>
                        </g>
                    </g>
                </g>
            </g>
        </g>
    </g>
</svg>