<?xml version="1.0" encoding="UTF-8"?>
<svg width="86px" height="62px" viewBox="0 0 86 62" version="1.1" xmlns="http://www.w3.org/2000/svg" xmlns:xlink="http://www.w3.org/1999/xlink">
    <title>89492BCB-036C-408E-B31F-39F6D3C05E72@3x</title>
    <g id="Page-1" stroke="none" stroke-width="1" fill="none" fill-rule="evenodd" opacity="0.100000001">
        <g id="Tentang" transform="translate(-167.000000, -859.000000)" fill="#000000" fill-rule="nonzero">
            <path d="M186.1,920.1 C196.9,920.1 204.7,912 204.7,900.9 C204.7,894.6 202,888.9 196.6,885.3 L208,859.2 L190.3,859.2 L173.2,885 C169.9,889.8 167.8,894.9 167.8,900.9 C167.8,912.9 176.5,920.1 186.1,920.1 Z M230.8,920.1 C241.6,920.1 249.4,912 249.4,900.9 C249.4,894.6 246.7,888.9 241.3,885.3 L252.7,859.2 L235,859.2 L217.9,885 C214.6,889.8 212.5,894.9 212.5,900.9 C212.5,912.9 221.2,920.1 230.8,920.1 Z" id="“"></path>
        </g>
    </g>
</svg>