<svg xmlns="http://www.w3.org/2000/svg" xmlns:xlink="http://www.w3.org/1999/xlink" version="1.1" style="" xml:space="preserve" width="48" height="48"><rect id="backgroundrect" width="100%" height="100%" x="0" y="0" fill="none" stroke="none" class="" style=""/>
















<g class="currentLayer" style=""><title>Layer 1</title><g id="svg_1" class="" fill="#f7941d" fill-opacity="1">
	<g id="svg_2" fill="#f7941d" fill-opacity="1">
		<path d="M46.10581398275517,24.38592832633046 c-0.000546564522605408,-0.000546564522605408 -0.0010020349581099175,-0.0011842231323117187 -0.0016396935678162227,-0.0017307876549171259 l-9.519696478392577,-9.473785058493723 c-0.7131756079129551,-0.7097140326031228 -1.8667000328716674,-0.7070723040771957 -2.5765962536489897,0.006194397922861294 c-0.709805126690223,0.7131756079129551 -0.7070723040771957,1.8667000328716674 0.006103303835760407,2.5765051595618895 L40.40551038832917,23.8536655753999 H1.8218810440456727 c-1.0062252861165546,0 -1.8218817420180238,0.8156564559014695 -1.8218817420180238,1.8218817420180238 c0,1.0062252861165546 0.8156564559014695,1.8218817420180238 1.8218817420180238,1.8218817420180238 h38.583538250196405 l-6.39134333917343,6.360553537733325 c-0.7131756079129551,0.709805126690223 -0.7159084305259833,1.8633295516489339 -0.006103303835760407,2.5765051595618895 c0.7098962207773225,0.7133577960871577 1.8635117398231362,0.7158173364388832 2.5765962536489897,0.006194397922861294 l9.519696478392577,-9.473785058493723 c0.000546564522605408,-0.000546564522605408 0.0010020349581099175,-0.0011842231323117187 0.0016396935678162227,-0.0017307876549171259 C46.81944506110362,26.252992735550535 46.8171677089261,25.09573345302069 46.10581398275517,24.38592832633046 z" id="svg_3" fill="#f7941d" fill-opacity="1"/>
	</g>
</g><g id="svg_4" class="">
</g><g id="svg_5" class="">
</g><g id="svg_6" class="">
</g><g id="svg_7" class="">
</g><g id="svg_8" class="">
</g><g id="svg_9" class="">
</g><g id="svg_10" class="">
</g><g id="svg_11" class="">
</g><g id="svg_12" class="">
</g><g id="svg_13" class="">
</g><g id="svg_14" class="">
</g><g id="svg_15" class="">
</g><g id="svg_16" class="">
</g><g id="svg_17" class="">
</g><g id="svg_18" class="">
</g></g></svg>