<?xml version="1.0" encoding="UTF-8"?>
<svg width="12px" height="12px" viewBox="0 0 12 12" version="1.1" xmlns="http://www.w3.org/2000/svg" xmlns:xlink="http://www.w3.org/1999/xlink">
    <title>FD7077EC-3F21-4DF9-9BD5-EFCC2E12F7DC@2x</title>
    <defs>
        <filter id="filter-1">
            <feColorMatrix in="SourceGraphic" type="matrix" values="0 0 0 0 0.000000 0 0 0 0 0.000000 0 0 0 0 0.000000 0 0 0 1.000000 0"></feColorMatrix>
        </filter>
    </defs>
    <g id="Page-1" stroke="none" stroke-width="1" fill="none" fill-rule="evenodd">
        <g id="Homepage-Kazokku" transform="translate(-128.000000, -3774.000000)">
            <g id="Group-13" transform="translate(0.000000, 3579.000000)">
                <g id="icon/whatsapp2" transform="translate(128.000000, 195.000000)" filter="url(#filter-1)">
                    <g id="whatsapp-(2)" fill="#000000" fill-rule="nonzero">
                        <path d="M6.0015,0 L5.9985,0 C2.69025,0 0,2.691 0,6 C0,7.3125 0.423,8.529 1.14225,9.51675 L0.3945,11.74575 L2.70075,11.0085 C3.6495,11.637 4.78125,12 6.0015,12 C9.30975,12 12,9.30825 12,6 C12,2.69175 9.30975,0 6.0015,0 Z M9.49275,8.47275 C9.348,8.8815 8.7735,9.2205 8.31525,9.3195 C8.00175,9.38625 7.59225,9.4395 6.21375,8.868 C4.4505,8.1375 3.315,6.34575 3.2265,6.2295 C3.14175,6.11325 2.514,5.28075 2.514,4.41975 C2.514,3.55875 2.95125,3.1395 3.1275,2.9595 C3.27225,2.81175 3.5115,2.74425 3.741,2.74425 C3.81525,2.74425 3.882,2.748 3.942,2.751 C4.11825,2.7585 4.20675,2.769 4.323,3.04725 C4.46775,3.396 4.82025,4.257 4.86225,4.3455 C4.905,4.434 4.94775,4.554 4.88775,4.67025 C4.8315,4.79025 4.782,4.8435 4.6935,4.9455 C4.605,5.0475 4.521,5.1255 4.4325,5.235 C4.3515,5.33025 4.26,5.43225 4.362,5.6085 C4.464,5.781 4.8165,6.35625 5.3355,6.81825 C6.00525,7.4145 6.54825,7.605 6.7425,7.686 C6.88725,7.746 7.05975,7.73175 7.1655,7.61925 C7.29975,7.4745 7.4655,7.2345 7.63425,6.99825 C7.75425,6.82875 7.90575,6.80775 8.06475,6.86775 C8.22675,6.924 9.084,7.34775 9.26025,7.4355 C9.4365,7.524 9.55275,7.566 9.5955,7.64025 C9.6375,7.7145 9.6375,8.06325 9.49275,8.47275 Z" id="Shape"></path>
                    </g>
                </g>
            </g>
        </g>
    </g>
</svg>