<?xml version="1.0" encoding="UTF-8"?>
<svg width="30px" height="31px" viewBox="0 0 30 31" version="1.1" xmlns="http://www.w3.org/2000/svg" xmlns:xlink="http://www.w3.org/1999/xlink">
    <title>66F351C1-0A1A-40E6-B42C-BD4DB3103566@3x</title>
    <g id="Page-1" stroke="none" stroke-width="1" fill="none" fill-rule="evenodd">
        <g id="Layanan-Haken" transform="translate(-668.000000, -3187.000000)" fill-rule="nonzero">
            <g id="analyst" transform="translate(668.000000, 3187.000000)">
                <path d="M26.7420968,23.2345161 L25.9906452,22.5701613 C26.0791935,22.3151613 26.1290323,22.046129 26.1290323,21.7741935 L26.1290323,7.25806452 C26.1290323,6.57096774 25.8377419,5.95306452 25.376129,5.51225806 L26.6216129,4.16709677 L25.9112903,3.50951613 L24.5366129,4.99403226 C24.2777419,4.89870968 24.0014516,4.83870968 23.7096774,4.83870968 L2.41935484,4.83870968 C1.08532258,4.83870968 3.43811001e-15,5.92403226 3.43811001e-15,7.25806452 L3.43811001e-15,21.7741935 C3.43811001e-15,23.1082258 1.08532258,24.1935484 2.41935484,24.1935484 L10.6451613,24.1935484 L10.6451613,25.1612903 L6.0483871,25.1612903 L4.35483871,27.4195161 L4.35483871,30 L21.7741935,30 L21.7741935,27.4195161 L20.0806452,25.1612903 L15.483871,25.1612903 L15.483871,24.1935484 L20.9903226,24.1935484 C21.858871,25.1777419 22.713871,26.1483871 23.2354839,26.7401613 C23.7053226,27.2743548 24.3841935,27.5806452 25.0974194,27.5806452 C26.4667742,27.5806452 27.5806452,26.4667742 27.5806452,25.0945161 C27.5806452,24.3837097 27.2748387,23.7053226 26.7420968,23.2345161 Z M6.53225806,26.1290323 L10.6451613,26.1290323 L10.6451613,27.0967742 L5.80645161,27.0967742 L6.53225806,26.1290323 Z M5.32258065,29.0322581 L5.32258065,28.0645161 L20.8064516,28.0645161 L20.8064516,29.0322581 L5.32258065,29.0322581 Z M19.5967742,26.1290323 L20.3225806,27.0967742 L15.483871,27.0967742 L15.483871,26.1290323 L19.5967742,26.1290323 Z M14.516129,27.0967742 L11.6129032,27.0967742 L11.6129032,24.1935484 L14.516129,24.1935484 L14.516129,27.0967742 Z M25.0974194,26.6129032 C24.6619355,26.6129032 24.2482258,26.426129 23.9612903,26.1009677 C22.8077419,24.7906452 20.021129,21.6275806 19.0601613,20.5587097 L18.3406452,21.206129 C18.7219355,21.63 19.3935484,22.3872581 20.1353226,23.2258065 L2.41935484,23.2258065 C1.61903226,23.2258065 0.967741935,22.5745161 0.967741935,21.7741935 L0.967741935,7.25806452 C0.967741935,6.45774194 1.61903226,5.80645161 2.41935484,5.80645161 L23.7096774,5.80645161 C24.51,5.80645161 25.1612903,6.45774194 25.1612903,7.25806452 L25.1612903,21.7741935 C25.1612903,21.7935484 25.155,21.8119355 25.1540323,21.8308065 L23.4241935,20.3017742 C23.8630645,20.2098387 24.1935484,19.8203226 24.1935484,19.3548387 L24.1935484,7.74193548 C24.1935484,7.20822581 23.7595161,6.77419355 23.2258065,6.77419355 L2.90322581,6.77419355 C2.36951613,6.77419355 1.93548387,7.20822581 1.93548387,7.74193548 L1.93548387,19.3548387 C1.93548387,19.8885484 2.36951613,20.3225806 2.90322581,20.3225806 L10.9466129,20.3225806 L10.9466129,19.3548387 L2.90322581,19.3548387 L2.90322581,7.74193548 L21.9929032,7.74193548 L19.4022581,10.5401613 L20.1125806,11.1972581 L23.2258065,7.83483871 L23.2258065,19.3548387 L22.3533871,19.3548387 L21.2032258,18.3377419 L20.5625806,19.0625806 L26.1014516,23.9593548 C26.426129,24.2467742 26.6129032,24.6604839 26.6129032,25.0974194 C26.6129032,25.9330645 25.9330645,26.6129032 25.0974194,26.6129032 L25.0974194,26.6129032 Z" id="Shape" fill="#000000"></path>
                <polygon id="Path" fill="#000000" points="7.25806452 15 9.19354839 15 9.19354839 15.9677419 7.25806452 15.9677419"></polygon>
                <path d="M15.483871,22.2580645 C11.7483871,22.2580645 8.70967742,19.2193548 8.70967742,15.483871 C8.70967742,11.7483871 11.7483871,8.70967742 15.483871,8.70967742 C19.2193548,8.70967742 22.2580645,11.7483871 22.2580645,15.483871 C22.2580645,19.2193548 19.2193548,22.2580645 15.483871,22.2580645 Z M15.483871,11.1290323 C13.0824194,11.1290323 11.1290323,13.0824194 11.1290323,15.483871 C11.1290323,17.8853226 13.0824194,19.8387097 15.483871,19.8387097 C17.8853226,19.8387097 19.8387097,17.8853226 19.8387097,15.483871 C19.8387097,13.0824194 17.8853226,11.1290323 15.483871,11.1290323 Z" id="Shape" fill="#F09525"></path>
                <path d="M15.483871,10.6451613 C12.8158065,10.6451613 10.6451613,12.8158065 10.6451613,15.483871 C10.6451613,18.1519355 12.8158065,20.3225806 15.483871,20.3225806 C18.1519355,20.3225806 20.3225806,18.1519355 20.3225806,15.483871 C20.3225806,12.8158065 18.1519355,10.6451613 15.483871,10.6451613 Z M15.483871,19.3548387 C13.5135484,19.3548387 11.8858065,17.8741935 11.6462903,15.9677419 L14.0322581,15.9677419 L14.0322581,15 L11.6462903,15 C11.8858065,13.0935484 13.5135484,11.6129032 15.483871,11.6129032 C16.323871,11.6129032 17.0995161,11.8848387 17.7348387,12.3406452 L16.113871,14.0912903 L16.8241935,14.748871 L18.4466129,12.9967742 C19.0122581,13.6703226 19.3548387,14.5374194 19.3548387,15.483871 C19.3548387,17.6182258 17.6182258,19.3548387 15.483871,19.3548387 Z" id="Shape" fill="#000000"></path>
                <g id="Group" transform="translate(3.870968, 0.000000)" fill="#F09525">
                    <path d="M11.6129032,13.5483871 C10.5454839,13.5483871 9.67741935,14.4164516 9.67741935,15.483871 C9.67741935,16.5512903 10.5454839,17.4193548 11.6129032,17.4193548 C12.6803226,17.4193548 13.5483871,16.5512903 13.5483871,15.483871 C13.5483871,14.4164516 12.6803226,13.5483871 11.6129032,13.5483871 Z" id="Path"></path>
                    <path d="M1.93548387,13.5483871 C0.868064516,13.5483871 0,14.4164516 0,15.483871 C0,16.5512903 0.868064516,17.4193548 1.93548387,17.4193548 C3.00290323,17.4193548 3.87096774,16.5512903 3.87096774,15.483871 C3.87096774,14.4164516 3.00290323,13.5483871 1.93548387,13.5483871 Z" id="Path"></path>
                    <path d="M23.7096774,0 C22.3756452,0 21.2903226,1.08532258 21.2903226,2.41935484 C21.2903226,3.7533871 22.3756452,4.83870968 23.7096774,4.83870968 C25.0437097,4.83870968 26.1290323,3.7533871 26.1290323,2.41935484 C26.1290323,1.08532258 25.0437097,0 23.7096774,0 Z" id="Path"></path>
                </g>
                <path d="M23.8514516,24.5356452 L23.2016129,23.8858065 L23.8858065,23.2016129 L24.5356452,23.8514516 L23.8514516,24.5356452 Z M22.5174194,23.2016129 L21.8332258,22.5174194 L22.5174194,21.8332258 L23.2016129,22.5174194 L22.5174194,23.2016129 Z M21.1485484,21.8327419 L20.4643548,21.1485484 L21.1485484,20.4643548 L21.8327419,21.1485484 L21.1485484,21.8327419 Z" id="Shape" fill="#000000"></path>
                <polygon id="Path" fill="#000000" points="3.87096774 8.70967742 8.70967742 8.70967742 8.70967742 9.67741935 3.87096774 9.67741935"></polygon>
                <path d="M8.70967742,11.6451613 L7.74193548,11.6451613 L7.74193548,10.6451613 L8.70967742,10.6451613 L8.70967742,11.6451613 Z M6.77419355,11.6451613 L5.80645161,11.6451613 L5.80645161,10.6451613 L6.77419355,10.6451613 L6.77419355,11.6451613 Z M4.83870968,11.6451613 L3.87096774,11.6451613 L3.87096774,10.6451613 L4.83870968,10.6451613 L4.83870968,11.6451613 Z" id="Shape" fill="#000000"></path>
            </g>
        </g>
    </g>
</svg>