<?xml version="1.0" encoding="UTF-8"?>
<svg width="30px" height="29px" viewBox="0 0 30 29" version="1.1" xmlns="http://www.w3.org/2000/svg" xmlns:xlink="http://www.w3.org/1999/xlink">
    <title>1076437B-4990-4A50-BE2E-FAE40D43973A@3x</title>
    <g id="Page-1" stroke="none" stroke-width="1" fill="none" fill-rule="evenodd">
        <g id="Layanan-Haken" transform="translate(-440.000000, -3187.000000)">
            <g id="settings-(2)" transform="translate(440.000000, 3187.000000)">
                <path d="M28.0225195,0 L1.97748047,0 C0.887109375,0 -1.66533454e-15,0.88640625 -1.66533454e-15,1.97601563 L-1.66533454e-15,21.1134375 C-1.66533454e-15,22.2030469 0.887109375,23.0894531 1.97748047,23.0894531 L11.0898633,23.0894531 L10.7109375,25.016543 L8.95171875,25.016543 C7.86685547,25.016543 6.98419922,25.897793 6.98419922,26.980957 L6.98419922,28.217168 C6.98419922,28.6187109 7.31173828,28.9453711 7.71427734,28.9453711 L22.891875,28.9453711 C23.2935352,28.9453711 23.6203711,28.6187109 23.6203711,28.217168 L23.6203711,26.980957 C23.6203711,25.897793 22.7377734,25.016543 21.6528516,25.016543 L19.8938672,25.016543 L19.5160547,23.0894531 L28.0225195,23.0894531 C29.1128906,23.0894531 30,22.2030469 30,21.1134375 L30,1.97601562 C30,0.88640625 29.1128906,0 28.0225195,0 Z M18.9982031,25.0164844 L16.3046484,25.0164844 C16.0619531,25.0164844 15.8651953,25.2131836 15.8651953,25.4559375 C15.8651953,25.6986914 16.0619531,25.8953906 16.3046484,25.8953906 L21.6528516,25.8953906 C22.2531445,25.8953906 22.7414648,26.3823633 22.7414648,26.9808984 L22.7414648,28.0664062 L7.86310547,28.0664062 L7.86310547,26.980957 C7.86310547,26.3823633 8.35142578,25.8954492 8.95171875,25.8954492 L14.2750195,25.8954492 C14.5177148,25.8954492 14.7144727,25.69875 14.7144727,25.4559961 C14.7144727,25.2132422 14.5177148,25.016543 14.2750195,25.016543 L11.6066602,25.016543 L11.9855859,23.0894531 L18.6203906,23.0894531 L18.9982031,25.0164844 Z M29.1210938,21.1134375 C29.1210938,21.7183594 28.6282617,22.2105469 28.0225195,22.2105469 L11.6211328,22.2105469 C11.6206641,22.2105469 11.6202539,22.2105469 11.6198437,22.2105469 L1.97748047,22.2105469 C1.37173828,22.2105469 0.87890625,21.7183594 0.87890625,21.1134375 L0.87890625,1.97601562 C0.87890625,1.37103516 1.37173828,0.87890625 1.97748047,0.87890625 L28.0225195,0.87890625 C28.6282617,0.87890625 29.1210938,1.37103516 29.1210938,1.97601562 L29.1210938,21.1134375 Z" id="Shape" fill="#000000" fill-rule="nonzero"></path>
                <rect id="Rectangle" fill="#F09525" x="3" y="3" width="24" height="17" rx="1"></rect>
                <path d="M26.8532227,2.39941406 L3.14677734,2.39941406 C2.72496094,2.39941406 2.38177734,2.74171875 2.38177734,3.16242188 L2.38177734,19.9252734 C2.38177734,20.3469141 2.72496094,20.6899805 3.14683594,20.6899805 L14.2750781,20.6883398 C14.5177734,20.6882812 14.7145313,20.4915234 14.7144727,20.2488281 C14.7144727,20.0060742 14.5176563,19.809375 14.2749609,19.8094336 L3.26068359,19.8110742 L3.26068359,3.27832031 L26.7376758,3.27832031 L26.7376758,19.8110742 L16.304707,19.8094336 C16.304707,19.8094336 16.304707,19.8094336 16.3046484,19.8094336 C16.0619531,19.8094336 15.8651953,20.0061328 15.8651953,20.2488281 C15.8651953,20.4915234 16.0618359,20.6882812 16.3045898,20.6883398 L26.8532227,20.6899805 C27.2741602,20.6899805 27.616582,20.3469727 27.616582,19.9252734 L27.616582,3.16248047 C27.616582,2.74171875 27.2741602,2.39941406 26.8532227,2.39941406 L26.8532227,2.39941406 Z" id="Path" fill="#000000" fill-rule="nonzero"></path>
                <path d="M19.0112695,16.2597656 L19.0112695,13.8835547 C19.0112695,13.6408008 18.8145117,13.4441016 18.5718164,13.4441016 C18.3291211,13.4441016 18.1323633,13.6408008 18.1323633,13.8835547 L18.1323633,16.2597656 C18.1323633,16.5025195 18.3291211,16.6992188 18.5718164,16.6992188 C18.8145117,16.6992188 19.0112695,16.5025195 19.0112695,16.2597656 Z" id="Path" fill="#000000" fill-rule="nonzero"></path>
                <path d="M21.9743555,16.2597656 L21.9743555,11.509043 C21.9743555,11.2662891 21.7775977,11.0695898 21.5349023,11.0695898 C21.292207,11.0695898 21.0954492,11.2662891 21.0954492,11.509043 L21.0954492,16.2597656 C21.0954492,16.5025195 21.292207,16.6992188 21.5349023,16.6992188 C21.7775977,16.6992188 21.9743555,16.5025195 21.9743555,16.2597656 Z" id="Path" fill="#000000" fill-rule="nonzero"></path>
                <path d="M24.9375,16.2597656 L24.9375,8.0409375 C24.9375,7.79818359 24.7407422,7.60148437 24.4980469,7.60148437 C24.2553516,7.60148437 24.0585938,7.79818359 24.0585938,8.0409375 L24.0585938,16.2597656 C24.0585938,16.5025195 24.2553516,16.6992188 24.4980469,16.6992188 C24.7407422,16.6992188 24.9375,16.5025195 24.9375,16.2597656 Z" id="Path" fill="#000000" fill-rule="nonzero"></path>
                <path d="M15.2366602,13.7087109 C15.2931445,13.5899414 15.3445313,13.4692969 15.3906445,13.3473633 L15.6087305,13.3473633 C16.1450391,13.3473633 16.5813281,12.9120117 16.5813281,12.376875 L16.5813281,10.964707 C16.5813281,10.4286914 16.1450391,9.99257812 15.6087305,9.99257812 L15.4182422,9.99257812 C15.3711914,9.86267578 15.3183984,9.73429688 15.2600977,9.60785156 L15.3945117,9.47355469 C15.7719727,9.09638672 15.7725,8.48085937 15.3942188,8.09982422 L14.3929687,7.10121094 C14.0157422,6.72433594 13.4001563,6.72380859 13.0186523,7.10191406 L12.8855273,7.23550781 C12.7589062,7.17726563 12.6304102,7.12447266 12.5004492,7.07753906 L12.5004492,6.88605469 C12.5004492,6.35091797 12.0641602,5.91556641 11.5278516,5.91556641 L10.1143945,5.91556641 C9.57808594,5.91556641 9.14179688,6.35091797 9.14179688,6.88605469 L9.14179688,7.10542969 C9.02003906,7.15148438 8.8996875,7.2028125 8.78103516,7.25917969 L8.62166016,7.09992188 C8.24214844,6.72380859 7.62650391,6.72427734 7.24933594,7.10115234 L6.24949219,8.10005859 C6.06544922,8.28392578 5.964375,8.52867187 5.96490234,8.78941406 C5.96542969,9.04927734 6.06697266,9.29267578 6.24884766,9.47291016 L6.43441406,9.6590625 C6.38513672,9.76880859 6.34013672,9.88013672 6.29953125,9.99257812 L6.03357422,9.99257812 C5.49726562,9.99257812 5.06097656,10.4286328 5.06097656,10.964707 L5.06097656,12.376875 C5.06097656,12.9120117 5.49726562,13.3473633 6.03357422,13.3473633 L6.32777344,13.3473633 C6.36773438,13.4523633 6.41126953,13.555957 6.45832031,13.657793 L6.24955078,13.8664453 C6.06550781,14.0503125 5.96443359,14.2950586 5.96496094,14.5558008 C5.96548828,14.8156641 6.06703125,15.0590625 6.24955078,15.2399414 L7.24804688,16.2375 C7.43027344,16.4210156 7.67367187,16.5223828 7.93347656,16.5229102 C8.19574219,16.5210937 8.43896484,16.4225391 8.62283203,16.2387305 L8.83201172,16.0298437 C8.93361328,16.0767187 9.03703125,16.1201953 9.14179687,16.1601562 L9.14179687,16.4539453 C9.14179687,16.989082 9.57808594,17.4244336 10.1143945,17.4244336 L11.5278516,17.4244336 C12.0641602,17.4244336 12.5004492,16.989082 12.5004492,16.4539453 L12.5004492,16.1886328 C12.6125391,16.1482031 12.7238672,16.1031445 12.834082,16.05375 L13.0193555,16.2387891 C13.2028125,16.4220703 13.4467969,16.5229687 13.7067187,16.5229687 L13.7087695,16.5229687 C13.9685742,16.5223828 14.2119727,16.4210742 14.3926758,16.239082 L15.3945117,15.2398828 C15.7719727,14.8627148 15.7725,14.2471875 15.3945117,13.8664453 L15.2366602,13.7087109 Z M14.3879297,14.1031641 L14.7720117,14.4868945 C14.807168,14.5222852 14.8077539,14.5836328 14.7735352,14.617793 L13.7704687,15.6182227 C13.7494336,15.6394336 13.7242969,15.6438867 13.7069531,15.6439453 C13.6899023,15.6438281 13.6628906,15.6392578 13.6405078,15.6169336 L13.2335742,15.2104102 C13.097168,15.0740625 12.8876953,15.0427148 12.7171875,15.1330078 C12.4649414,15.2666602 12.2043164,15.3716016 11.9424609,15.4449023 C11.7526758,15.4980469 11.6214844,15.6710156 11.6214844,15.868125 L11.6214844,16.4538281 C11.6214844,16.503457 11.5785937,16.5454102 11.527793,16.5454102 L10.1143359,16.5454102 C10.0644141,16.5454102 10.0206445,16.5026367 10.0206445,16.4538281 L10.0206445,15.8465625 C10.0206445,15.6534375 9.89460938,15.4829883 9.70998047,15.4263867 C9.44841797,15.3462305 9.19494141,15.2395312 8.95658203,15.1091602 C8.8903125,15.0729492 8.81783203,15.0553125 8.7459375,15.0553125 C8.63220703,15.0553125 8.51976563,15.0994336 8.43521484,15.1838672 L8.00167969,15.6169336 C7.97935547,15.6392578 7.95339844,15.6439453 7.93546875,15.6439453 C7.91642578,15.6455859 7.8928125,15.6395508 7.87048828,15.6169336 L6.86935547,14.6167969 C6.84826172,14.5959375 6.84375,14.5710938 6.84375,14.5539258 C6.84375,14.5361719 6.84837891,14.5103906 6.87058594,14.488125 L7.3040625,14.055 C7.44222656,13.9170117 7.47269531,13.7043164 7.37888672,13.5330469 C7.24822266,13.2945117 7.14152344,13.0410352 7.06160156,12.7795313 C7.00517578,12.594668 6.83455078,12.4683984 6.64130859,12.4683984 L6.03339844,12.4683984 C5.98347656,12.4683984 5.93970703,12.425625 5.93970703,12.3768164 L5.93970703,10.9646484 C5.93970703,10.9141406 5.98259766,10.8714258 6.03339844,10.8714258 L6.6196875,10.8714258 C6.81667969,10.8714258 6.98958984,10.7403516 7.04279297,10.5506836 C7.11708984,10.2857813 7.22197266,10.0258008 7.35439453,9.77789063 C7.44544922,9.60744141 7.41445313,9.39744141 7.27798828,9.26056641 L6.86917969,8.85046875 C6.84808594,8.82960938 6.84357422,8.80476563 6.84357422,8.78759766 C6.84357422,8.76984375 6.84820313,8.7440625 6.87041016,8.72179688 L7.87025391,7.72289063 C7.90505859,7.68814453 7.96693359,7.68861328 8.00150391,7.72289063 L8.38681641,8.10779297 C8.52615234,8.24695313 8.74107422,8.27648438 8.9128125,8.17992188 C9.16775391,8.03654297 9.43494141,7.92257813 9.70693359,7.84130859 C9.89302734,7.78570313 10.0205273,7.61449219 10.0205273,7.42025391 L10.0205273,6.8859375 C10.0205273,6.8371875 10.0642969,6.79435547 10.1142187,6.79435547 L11.5276758,6.79435547 C11.5784766,6.79435547 11.6213672,6.83630859 11.6213672,6.8859375 L11.6213672,7.39705078 C11.6213672,7.59345703 11.7516797,7.76601563 11.9405273,7.81974609 C12.2221289,7.89984375 12.4988672,8.01322266 12.7630078,8.15660156 C12.9342187,8.24953125 13.1463281,8.21859375 13.2839648,8.08054688 L13.6391602,7.72412109 C13.6749023,7.68873047 13.7368359,7.68808594 13.771875,7.723125 L14.7718945,8.72044922 C14.8070508,8.75583984 14.8076367,8.8171875 14.773125,8.85164063 L14.4143555,9.21005859 C14.276543,9.34775391 14.2458398,9.55974609 14.3388867,9.73089844 C14.4823828,9.9946875 14.5958203,10.2711328 14.6760352,10.5524414 C14.7298828,10.7411719 14.9023828,10.8713086 15.0986133,10.8713086 L15.6085547,10.8713086 C15.6602344,10.8713086 15.7022461,10.9131445 15.7022461,10.9645313 L15.7022461,12.3766992 C15.7022461,12.4263281 15.6593555,12.4682813 15.6085547,12.4682813 L15.0753516,12.4682813 C14.8810547,12.4682813 14.7097852,12.595957 14.6542383,12.7821094 C14.5730859,13.0541602 14.4591211,13.3214063 14.3154492,13.5764063 C14.2188281,13.7484961 14.2483594,13.9637695 14.3879297,14.1031641 L14.3879297,14.1031641 Z" id="Shape" fill="#000000" fill-rule="nonzero"></path>
                <path d="M10.8219141,9.88974609 C9.83865234,9.88974609 9.03873047,10.6883789 9.03873047,11.67 C9.03873047,12.6525586 9.83865234,13.4518945 10.8219141,13.4518945 C11.8042383,13.4518945 12.6033984,12.6525 12.6033984,11.67 C12.6033984,10.6883789 11.8042383,9.88974609 10.8219141,9.88974609 Z M10.8219141,12.5729883 C10.3232813,12.5729883 9.91763672,12.1679297 9.91763672,11.67 C9.91763672,11.1730078 10.3232813,10.7686523 10.8219141,10.7686523 C11.3196094,10.7686523 11.7244922,11.1729492 11.7244922,11.67 C11.7244922,12.1679297 11.3196094,12.5729883 10.8219141,12.5729883 Z" id="Shape" fill="#000000" fill-rule="nonzero"></path>
            </g>
        </g>
    </g>
</svg>