<?xml version="1.0" encoding="UTF-8"?>
<svg width="30px" height="31px" viewBox="0 0 30 31" version="1.1" xmlns="http://www.w3.org/2000/svg" xmlns:xlink="http://www.w3.org/1999/xlink">
    <title>5599288F-F70D-478C-A858-0D671EED1C75@3x</title>
    <g id="Page-1" stroke="none" stroke-width="1" fill="none" fill-rule="evenodd">
        <g id="Layanan-Haken" transform="translate(-212.000000, -3186.000000)" fill-rule="nonzero">
            <g id="cyber-security" transform="translate(212.000000, 3186.000000)">
                <path d="M27.6043548,3.49548387 C26.1469355,3.42387097 24.7475806,3.05419355 23.4435484,2.3966129 L23.2258065,2.28677419 L23.0080645,2.39709677 C21.705,3.05419355 20.3051613,3.42387097 18.8472581,3.49596774 L18.3870968,3.51822581 L18.3870968,6.60435484 C18.3870968,9.66387097 20.2151613,12.3779032 23.0448387,13.5183871 L23.2258065,13.5909677 L23.4067742,13.5183871 C26.2364516,12.3774194 28.0645161,9.66387097 28.0645161,6.60387097 L28.0645161,3.51822581 L27.6043548,3.49548387 Z M24.1935484,8.56209677 L24.1935484,10.2822581 L22.2580645,10.2822581 L22.2580645,8.56209677 C21.6817742,8.22677419 21.2903226,7.60983871 21.2903226,6.89516129 C21.2903226,5.82629032 22.1569355,4.95967742 23.2258065,4.95967742 C24.2946774,4.95967742 25.1612903,5.82629032 25.1612903,6.89516129 C25.1612903,7.60983871 24.7698387,8.22677419 24.1935484,8.56209677 Z" id="Shape" fill="#F09525"></path>
                <polygon id="Path" fill="#F09525" points="16.4516129 16.0887097 21.2903226 16.0887097 21.2903226 22.3790323 16.4516129 22.3790323"></polygon>
                <path d="M23.2258065,4.47580645 C21.8917742,4.47580645 20.8064516,5.56112903 20.8064516,6.89516129 C20.8064516,7.65145161 21.1712903,8.36612903 21.7741935,8.82048387 L21.7741935,10.766129 L24.6774194,10.766129 L24.6774194,8.82048387 C25.2803226,8.36612903 25.6451613,7.65145161 25.6451613,6.89516129 C25.6451613,5.56112903 24.5598387,4.47580645 23.2258065,4.47580645 Z M23.9501613,8.14403226 L23.7096774,8.28387097 L23.7096774,9.7983871 L22.7419355,9.7983871 L22.7419355,8.28387097 L22.5014516,8.14403226 C22.046129,7.87887097 21.7741935,7.41193548 21.7741935,6.89516129 C21.7741935,6.09483871 22.4254839,5.44354839 23.2258065,5.44354839 C24.026129,5.44354839 24.6774194,6.09483871 24.6774194,6.89516129 C24.6774194,7.41193548 24.4054839,7.87887097 23.9501613,8.14403226 Z" id="Shape" fill="#000000"></path>
                <path d="M28.1133871,1.57258065 C26.5867742,1.57258065 25.0872581,1.15741935 23.7779032,0.372096774 L23.2258065,0.0401612903 L22.6737097,0.372096774 C21.3643548,1.15741935 19.8653226,1.57258065 18.3382258,1.57258065 L16.4516129,1.57258065 L16.4516129,2.72516129 L15.1141935,2.05645161 L7.21935484,2.05645161 C6.53225806,0.871451613 5.25048387,0.120967742 3.87096774,0.120967742 C1.7366129,0.120967742 0,1.85758065 0,3.99193548 C0,6.12629032 1.7366129,7.86290323 3.87096774,7.86290323 C5.25048387,7.86290323 6.53225806,7.11241935 7.21935484,5.92741935 L10.6451613,5.92741935 L10.6451613,6.89516129 C10.6451613,7.42887097 11.0791935,7.86290323 11.6129032,7.86290323 L12.5806452,7.86290323 L12.5806452,6.89516129 L11.6129032,6.89516129 L11.6129032,5.92741935 L14.516129,5.92741935 L14.516129,6.89516129 L13.5483871,6.89516129 L13.5483871,7.86290323 L14.516129,7.86290323 C15.0498387,7.86290323 15.483871,7.42887097 15.483871,6.89516129 L15.483871,5.74258065 L16.4516129,5.25870968 L16.4516129,6.60387097 C16.4516129,7.3683871 16.5435484,8.11403226 16.7158065,8.83064516 L3.38709677,8.83064516 C2.05306452,8.83064516 0.967741935,9.91596774 0.967741935,11.25 L0.967741935,25.2822581 L0,25.2822581 L0,27.7016129 C0,29.0356452 1.08532258,30.1209677 2.41935484,30.1209677 L23.7096774,30.1209677 C25.0437097,30.1209677 26.1290323,29.0356452 26.1290323,27.7016129 L26.1290323,25.2822581 L25.1612903,25.2822581 L25.1612903,14.816129 C28.1148387,13.1883871 30,10.0906452 30,6.60387097 L30,1.57258065 L28.1133871,1.57258065 Z M14.8858065,4.95967742 L6.62225806,4.95967742 L6.49112903,5.23548387 C6.0116129,6.24387097 4.98290323,6.89516129 3.87096774,6.89516129 C2.26983871,6.89516129 0.967741935,5.59306452 0.967741935,3.99193548 C0.967741935,2.39080645 2.26983871,1.08870968 3.87096774,1.08870968 C4.98290323,1.08870968 6.0116129,1.74 6.49064516,2.7483871 L6.62225806,3.02419355 L14.8858065,3.02419355 L16.4516129,3.80709677 L16.4516129,4.17677419 L14.8858065,4.95967742 Z M25.1612903,27.7016129 C25.1612903,28.5019355 24.51,29.1532258 23.7096774,29.1532258 L2.41935484,29.1532258 C1.61903226,29.1532258 0.967741935,28.5019355 0.967741935,27.7016129 L0.967741935,26.25 L9.67741935,26.25 L9.67741935,26.733871 C9.67741935,27.5341935 10.3287097,28.1854839 11.1290323,28.1854839 L15,28.1854839 C15.8003226,28.1854839 16.4516129,27.5341935 16.4516129,26.733871 L16.4516129,26.25 L25.1612903,26.25 L25.1612903,27.7016129 Z M10.6451613,26.25 L15.483871,26.25 L15.483871,26.733871 C15.483871,27.0009677 15.2670968,27.2177419 15,27.2177419 L11.1290323,27.2177419 C10.8619355,27.2177419 10.6451613,27.0009677 10.6451613,26.733871 L10.6451613,26.25 Z M24.1935484,25.2822581 L1.93548387,25.2822581 L1.93548387,11.25 C1.93548387,10.4496774 2.58677419,9.7983871 3.38709677,9.7983871 L17.01,9.7983871 C17.1285484,10.1298387 17.265,10.4525806 17.4193548,10.766129 L3.87096774,10.766129 C3.33725806,10.766129 2.90322581,11.2001613 2.90322581,11.733871 L2.90322581,23.3467742 C2.90322581,23.8804839 3.33725806,24.3145161 3.87096774,24.3145161 L22.2580645,24.3145161 C22.7917742,24.3145161 23.2258065,23.8804839 23.2258065,23.3467742 L23.2258065,15.6270968 L23.3680645,15.5835484 C23.6506452,15.4964516 23.9245161,15.3943548 24.1935484,15.2835484 L24.1935484,25.2822581 Z M29.0322581,6.60387097 C29.0322581,10.2769355 26.7053226,13.4767742 23.2258065,14.6133871 C19.7462903,13.4767742 17.4193548,10.2769355 17.4193548,6.60387097 L17.4193548,2.54032258 L18.3382258,2.54032258 C20.0404839,2.54032258 21.7117742,2.07725806 23.1716129,1.20145161 L23.2258065,1.16951613 L23.2795161,1.20145161 C24.7398387,2.07725806 26.411129,2.54032258 28.1133871,2.54032258 L29.0322581,2.54032258 L29.0322581,6.60387097 Z" id="Shape" fill="#000000"></path>
                <path d="M22.2580645,15.2835484 L22.2580645,23.3467742 L3.87096774,23.3467742 L3.87096774,11.733871 L17.9685484,11.733871 C18.9841935,13.2958065 20.4614516,14.5451613 22.2580645,15.2835484 L22.2580645,15.2835484 Z" id="Path" fill="#F09525"></path>
                <path d="M15.48,21.8351613 C15.2370968,19.8943548 13.871129,18.3358065 12.0870968,17.7716129 C12.6851613,17.2393548 13.0645161,16.4666129 13.0645161,15.6048387 C13.0645161,14.0037097 11.7624194,12.7016129 10.1612903,12.7016129 C8.56016129,12.7016129 7.25806452,14.0037097 7.25806452,15.6048387 C7.25806452,16.4666129 7.63741935,17.2393548 8.23548387,17.7716129 C6.45145161,18.3362903 5.08548387,19.8943548 4.84258065,21.8351613 L4.77435484,22.3790323 L15.5482258,22.3790323 L15.48,21.8351613 Z M10.1612903,13.6693548 C11.2287097,13.6693548 12.0967742,14.5374194 12.0967742,15.6048387 C12.0967742,16.6722581 11.2287097,17.5403226 10.1612903,17.5403226 C9.09387097,17.5403226 8.22580645,16.6722581 8.22580645,15.6048387 C8.22580645,14.5374194 9.09387097,13.6693548 10.1612903,13.6693548 L10.1612903,13.6693548 Z M5.91,21.4112903 C6.36870968,19.7230645 7.91467742,18.5080645 9.70790323,18.5080645 L10.6151613,18.5080645 C12.4083871,18.5080645 13.953871,19.7230645 14.4130645,21.4112903 L5.91,21.4112903 Z" id="Shape" fill="#000000"></path>
                <polygon id="Path" fill="#000000" points="20.3225806 21.4112903 21.2903226 21.4112903 21.2903226 22.3790323 20.3225806 22.3790323"></polygon>
                <polygon id="Path" fill="#000000" points="16.4516129 21.4112903 19.3548387 21.4112903 19.3548387 22.3790323 16.4516129 22.3790323"></polygon>
                <polygon id="Path" fill="#000000" points="16.4516129 19.4758065 21.2903226 19.4758065 21.2903226 20.4435484 16.4516129 20.4435484"></polygon>
                <polygon id="Path" fill="#000000" points="16.4516129 17.5403226 21.2903226 17.5403226 21.2903226 18.5080645 16.4516129 18.5080645"></polygon>
                <polygon id="Path" fill="#000000" points="16.4516129 15.6048387 21.2903226 15.6048387 21.2903226 16.5725806 16.4516129 16.5725806"></polygon>
                <polygon id="Path" fill="#000000" points="4.83870968 12.7016129 5.80645161 12.7016129 5.80645161 13.6693548 4.83870968 13.6693548"></polygon>
                <polygon id="Path" fill="#000000" points="4.83870968 14.6370968 5.80645161 14.6370968 5.80645161 15.6048387 4.83870968 15.6048387"></polygon>
                <polygon id="Path" fill="#000000" points="4.83870968 16.5725806 5.80645161 16.5725806 5.80645161 17.5403226 4.83870968 17.5403226"></polygon>
                <path d="M3.38709677,2.54032258 C2.58677419,2.54032258 1.93548387,3.1916129 1.93548387,3.99193548 C1.93548387,4.79225806 2.58677419,5.44354839 3.38709677,5.44354839 C4.18741935,5.44354839 4.83870968,4.79225806 4.83870968,3.99193548 C4.83870968,3.1916129 4.18741935,2.54032258 3.38709677,2.54032258 Z M3.38709677,4.47580645 C3.12,4.47580645 2.90322581,4.25903226 2.90322581,3.99193548 C2.90322581,3.72483871 3.12,3.50806452 3.38709677,3.50806452 C3.65419355,3.50806452 3.87096774,3.72483871 3.87096774,3.99193548 C3.87096774,4.25903226 3.65419355,4.47580645 3.38709677,4.47580645 Z" id="Shape" fill="#000000"></path>
            </g>
        </g>
    </g>
</svg>