<?xml version="1.0" encoding="UTF-8"?>
<svg width="30px" height="30px" viewBox="0 0 30 30" version="1.1" xmlns="http://www.w3.org/2000/svg" xmlns:xlink="http://www.w3.org/1999/xlink">
    <title>D9699B5D-BF29-4B65-8DA7-DB2A7B0A15FA@3x</title>
    <g id="Page-1" stroke="none" stroke-width="1" fill="none" fill-rule="evenodd">
        <g id="Layanan-Haken" transform="translate(-896.000000, -3187.000000)" fill-rule="nonzero">
            <g id="management" transform="translate(896.000000, 3187.000000)">
                <path d="M28.2707227,6.36679687 C27.6373828,6.36439453 27.3239062,5.60232422 27.7716797,5.15449219 C28.0975195,4.82871094 28.2769336,4.39552734 28.2769336,3.93474609 C28.2769336,3.47396484 28.0975195,3.04083984 27.7716797,2.71505859 L27.2639648,2.20734375 C26.5937109,1.53708984 25.5298242,1.54669922 24.8421094,2.22925781 C24.3925781,2.67533203 23.6320312,2.35822266 23.6320312,1.72488281 C23.6319727,0.773789063 22.8581836,0 21.9070312,0 L21.2169141,0 C20.2657617,0 19.4919727,0.773789063 19.4919727,1.72494141 C19.4919727,2.35886719 18.7292578,2.67667969 18.279668,2.22708984 C17.9538867,1.90125 17.5207031,1.72183594 17.0599805,1.72183594 C16.5991992,1.72183594 16.1660742,1.90125 15.840293,2.22708984 L15.3523242,2.71505859 C15.2183203,2.8490625 15.1091602,3.00222656 15.0269531,3.16828125 C14.3949023,2.78027344 13.6519336,2.55609375 12.8575195,2.55609375 L9.02097656,2.55609375 C8.15320312,2.55609375 7.37800781,3.10634766 7.09195312,3.92537109 C7.07208984,3.98226563 7.01607422,4.02052734 6.9525,4.02052734 C5.81876953,4.02052734 4.89638672,4.94291016 4.89638672,6.07664062 C4.89638672,6.31933594 5.09314453,6.51603516 5.33578125,6.51603516 C5.57847656,6.51603516 5.77517578,6.31927734 5.77517578,6.07664062 C5.77517578,5.42748047 6.30328125,4.899375 6.95244141,4.899375 C7.38914062,4.899375 7.77861328,4.62445313 7.92158203,4.21517578 C8.08458984,3.74847656 8.52632812,3.43494141 9.02091797,3.43494141 L12.8574609,3.43494141 C14.6664258,3.43494141 16.138125,4.90664063 16.138125,6.71554687 L16.138125,9.09234375 C15.4576172,9.28353516 15.3667383,9.53847656 14.8473047,9.56578125 L14.8473047,7.57558594 C14.8473047,6.56507813 14.0251758,5.74294922 13.014668,5.74294922 L12.9979102,5.74294922 C12.2454492,5.74294922 11.938125,6.05601562 11.0428125,6.05601562 L10.8706641,6.05601562 C9.98466797,6.05601562 9.66205078,5.74294922 8.91556641,5.74294922 L8.89880859,5.74294922 C7.88830078,5.74294922 7.06617187,6.56507813 7.06617187,7.57558594 L7.06617187,9.28869141 C6.65015625,9.11267578 6.14220703,9.04611328 5.77535156,9.02162109 L5.77535156,8.15566406 C5.77535156,7.91296875 5.57859375,7.71626953 5.33595703,7.71626953 C5.09326172,7.71626953 4.8965625,7.91302734 4.8965625,8.15566406 L4.8965625,9.21597656 C4.59791016,9.46412109 4.42054687,9.83296875 4.42054687,10.2315234 L4.42054687,11.2103906 C4.42054687,11.9133984 4.97179687,12.4900195 5.66472656,12.5308594 C5.79644531,13.8043945 6.39005859,14.9712305 7.33019531,15.7807617 C7.47257812,15.9033398 7.61830078,16.0171875 7.76677734,16.1236523 L7.76677734,17.9719336 C7.76677734,18.1460742 7.63634766,18.2943164 7.46332031,18.3168164 C7.46326172,18.3168164 7.46326172,18.3168164 7.46320312,18.3168164 C6.17619141,18.4838086 3.82447266,18.8497852 2.53417969,19.4242969 C0.995507812,20.109375 0.00134765625,21.6403125 0.00134765625,23.3245898 L0.00134765625,27.6939258 C0.00134765625,28.9655273 1.03570312,30 2.30724609,30 L19.6059375,30 C20.8774805,30 21.9119531,28.9655273 21.9119531,27.6939844 L21.9119531,26.2100391 C21.9119531,25.9673437 21.7151953,25.7706445 21.4725586,25.7706445 C21.2299219,25.7706445 21.0331641,25.9674023 21.0331641,26.2100391 L21.0331641,27.6939844 C21.0331641,28.480957 20.3929102,29.1211523 19.6059961,29.1211523 L18.4769531,29.1211523 L18.4769531,26.7249609 C18.4769531,26.4822656 18.2801953,26.2855664 18.0375586,26.2855664 C17.7949219,26.2855664 17.5981641,26.4823242 17.5981641,26.7249609 L17.5981641,29.1211523 L13.0303711,29.1211523 L12.2194922,23.1277148 L12.6309375,22.5497461 C12.7378711,22.57875 12.8473242,22.5941016 12.9568945,22.5941016 C13.2476367,22.5941016 13.5374414,22.4923828 13.7716406,22.2913477 L15.7470117,20.5958203 C16.0783008,20.3114648 16.2326367,19.8927539 16.1711719,19.4715234 C17.184375,19.6547461 18.3078516,19.9092773 19.0218164,20.2271484 C20.2437305,20.7711914 21.0332812,21.9870117 21.0332812,23.3245898 L21.0332812,24.1565625 C21.0332812,24.3992578 21.2300391,24.595957 21.4726758,24.595957 C21.7153125,24.595957 21.9120703,24.3991992 21.9120703,24.1565625 L21.9120703,23.3245898 C21.9120703,21.6403125 20.9178516,20.109375 19.3792383,19.4242969 C18.0889453,18.8498438 15.7372266,18.4838672 14.4502148,18.3168164 L14.4501562,18.3168164 C14.2771289,18.2943164 14.1466992,18.1461328 14.1466992,17.9719336 L14.1466992,16.1236523 C14.2951758,16.0171875 14.4408984,15.9033398 14.5832812,15.7807617 C15.016875,15.4074023 15.3756445,14.9574023 15.6505078,14.4566602 L15.840293,14.6464453 C16.5144141,15.3205664 17.6055469,15.3206836 18.2797266,14.6464453 C18.7280273,14.1981445 19.4920312,14.5127344 19.4920312,15.1485938 C19.4920312,16.0997461 20.2658203,16.8735352 21.2169727,16.8735352 L21.9070898,16.8735352 C22.8582422,16.8735352 23.6320312,16.0997461 23.6320312,15.1485938 C23.6320312,14.514375 24.3950391,14.1970898 24.8443359,14.6464453 C25.1701172,14.9722852 25.6033008,15.1516992 26.064082,15.1516992 C26.5248633,15.1516992 26.9579883,14.9722852 27.2837695,14.6465039 L27.7717383,14.1585352 C28.4442773,13.4859375 28.4442773,12.3916406 27.7717383,11.7191016 C27.3239062,11.2712695 27.6375,10.5091992 28.2707812,10.5067969 C29.2398047,10.5031641 29.9988281,9.75767578 29.9988281,8.80980469 L29.9988281,8.06384766 C29.9988281,7.11591797 29.2397461,6.37048828 28.2707227,6.36679687 Z M11.5341211,22.575 L10.3791797,22.575 L10.0424414,22.1019727 L10.9566797,21.4437305 L11.870918,22.1019727 L11.5341211,22.575 Z M9.17425781,21.6441797 C9.03427734,21.7450781 8.84507812,21.7369336 8.71412109,21.6245508 L6.73869141,19.9290234 C6.57011719,19.7842969 6.60808594,19.5969727 6.62373047,19.5430078 C6.63925781,19.4894531 6.70652344,19.3137305 6.92173828,19.2791016 C7.10601562,19.2520313 7.27453125,19.2285352 7.42054687,19.2089648 L10.1689453,20.9279883 L9.17425781,21.6441797 Z M0.880078125,27.6939844 L0.880078125,23.3246484 C0.880078125,21.9870703 1.66962891,20.7713086 2.89154297,20.227207 C3.60550781,19.9093359 4.72898437,19.6548047 5.7421875,19.471582 C5.68066406,19.8928125 5.83505859,20.3115234 6.16628906,20.5958789 L8.14171875,22.2914063 C8.37591797,22.4924414 8.66566406,22.5941602 8.95640625,22.5941602 C9.06591797,22.5941602 9.17542969,22.5788086 9.28236328,22.5498047 L9.69380859,23.1277734 L8.88292969,29.1212109 L4.31513672,29.1212109 L4.31513672,26.7250195 C4.31513672,26.4823242 4.11837891,26.285625 3.87574219,26.285625 C3.63310547,26.285625 3.43634766,26.4823828 3.43634766,26.7250195 L3.43634766,29.1212109 L2.30724609,29.1212109 C1.52033203,29.1212109 0.880078125,28.4808984 0.880078125,27.6939844 L0.880078125,27.6939844 Z M15.2895117,19.5429492 C15.3051562,19.5969141 15.3430664,19.7842969 15.1744922,19.9289648 L13.1991211,21.6244922 C13.0681641,21.7368164 12.8789648,21.7449609 12.739043,21.6441211 L11.7442969,20.9278711 L14.4926953,19.2088477 C14.6387109,19.228418 14.8072852,19.2519141 14.9916211,19.2789844 C15.2067187,19.3137305 15.2739844,19.4894531 15.2895117,19.5429492 Z M13.5556641,18.7583789 L10.9566211,20.3840039 L8.35751953,18.7583789 C8.53734375,18.5439258 8.64544922,18.2689453 8.64544922,17.9719922 L8.64544922,16.642793 C10.1201367,17.3417578 11.7928711,17.3418164 13.267793,16.642793 L13.267793,17.9719922 C13.267793,18.2689453 13.3758984,18.5439844 13.5556641,18.7583789 Z M14.0098242,15.1148438 C12.1953516,16.6771875 9.71824219,16.6774805 7.90347656,15.1148438 C7.04759766,14.3779102 6.54210937,13.2733008 6.5165625,12.084375 C6.51146484,11.8454297 6.31628906,11.6544141 6.07728516,11.6544141 L5.74318359,11.6544141 C5.49837891,11.6544141 5.29921875,11.4552539 5.29921875,11.2104492 L5.29921875,10.231582 C5.29921875,10.0961719 5.36115234,9.97154297 5.46416016,9.88810547 C5.96964844,9.89947266 6.70716797,10.0014258 6.92566406,10.2169336 C7.09839844,10.3872656 7.35439453,10.4369531 7.57792969,10.3434375 C7.80087891,10.2501563 7.94496094,10.0335938 7.94496094,9.79171875 L7.94496094,7.57564453 C7.94496094,7.04970703 8.3728125,6.62185547 8.89875,6.62185547 C9.70675781,6.68121094 9.89560547,6.93492188 10.8706055,6.93492188 L11.0427539,6.93492188 C12.0513867,6.93492188 12.4327148,6.62185547 12.9978516,6.62185547 L13.0146094,6.62185547 C13.5405469,6.62185547 13.9683984,7.04970703 13.9683984,7.57564453 L13.9683984,9.63123047 C13.9683984,10.0807031 14.334082,10.4463867 14.7851367,10.4463867 C15.6167578,10.4463867 15.8413477,10.0600195 16.4782031,9.91294922 C16.5638086,9.99533203 16.614082,10.1092969 16.614082,10.2316406 L16.614082,11.2105078 C16.614082,11.4553125 16.4149219,11.6544727 16.1701172,11.6544727 L15.8360156,11.6544727 C15.5970117,11.6544727 15.4018359,11.8454883 15.3967383,12.0844336 C15.3711914,13.2733594 14.8657031,14.3779102 14.0098242,15.1148438 L14.0098242,15.1148438 Z" id="Shape" fill="#000000"></path>
                <path d="M29.1199219,8.80980469 C29.1199219,9.26677734 28.7454492,9.62619141 28.2673828,9.62800781 C26.8536914,9.63333984 26.1515039,11.341875 27.1502344,12.3406055 C27.4801172,12.6704883 27.4801172,13.2072656 27.1502344,13.537207 L26.6622656,14.0251758 C26.5024805,14.1849609 26.2900195,14.2730273 26.0639648,14.2730273 C25.8379688,14.2730273 25.6255078,14.1850195 25.4656641,14.0251758 C24.465,13.0245117 22.753125,13.7315039 22.753125,15.1487695 C22.753125,15.615293 22.3735547,15.9948633 21.9070313,15.9948633 L21.2169141,15.9948633 C20.7503906,15.9948633 20.3708203,15.615293 20.3708203,15.1487695 C20.3708203,13.7332617 18.6602344,13.0232227 17.6582227,14.0251758 C17.3275195,14.3558789 16.7923828,14.3558789 16.4616797,14.0251758 L16.0247461,13.5883008 C16.1347852,13.2482813 16.2111328,12.8942578 16.2486914,12.5310352 C16.9416211,12.4901953 17.4928711,11.9135742 17.4928711,11.2105664 L17.4928711,10.2316992 C17.4928711,9.83320313 17.3155078,9.46429688 17.0168555,9.21615234 L17.0168555,6.71572266 C17.0168555,5.54648438 16.5311719,4.48910156 15.7518164,3.73265625 C15.7880859,3.58347656 15.8635547,3.44666016 15.9735938,3.33662109 L16.4616211,2.84865234 C16.6214063,2.68886719 16.8338672,2.60080078 17.0598633,2.60080078 C17.2858594,2.60080078 17.4983789,2.68880859 17.6581641,2.84865234 C18.6588867,3.84931641 20.3707031,3.14232422 20.3707031,1.72505859 C20.3707031,1.25853516 20.7502734,0.878964844 21.2167969,0.878964844 L21.9069141,0.878964844 C22.3734375,0.878964844 22.7530078,1.25853516 22.7530078,1.72505859 C22.7530078,3.13927734 24.4589648,3.84767578 25.4609766,2.85316406 C25.8003516,2.51648438 26.3192578,2.50576172 26.6423438,2.82884766 L27.1500586,3.33662109 C27.3098438,3.49640625 27.3979102,3.70886719 27.3979102,3.93486328 C27.3979102,4.16085938 27.3099023,4.37337891 27.1500586,4.53316406 C26.1499805,5.53318359 26.8553906,7.24037109 28.267207,7.24570313 C28.7452734,7.24751953 29.1197461,7.60693359 29.1197461,8.06390625 L29.1197461,8.80980469 L29.1199219,8.80980469 Z" id="Path" fill="#F09525"></path>
                <path d="M21.3097266,4.54863281 C19.3600781,4.67179688 17.7969727,6.23490234 17.67375,8.18455078 C17.5255078,10.5300586 19.4621484,12.474082 21.8142187,12.3250195 C23.7638086,12.2018555 25.3269141,10.63875 25.4501367,8.68910156 C25.5983789,6.34400391 23.6623828,4.39962891 21.3097266,4.54863281 L21.3097266,4.54863281 Z M24.5731055,8.63367188 C24.4777148,10.1426953 23.2678711,11.3525391 21.7587891,11.4479297 C19.9284375,11.5624219 18.4362891,10.0531055 18.5508398,8.23998047 C18.6462305,6.73089844 19.8560742,5.52105469 21.3651562,5.42566406 C23.1857227,5.31117188 24.6881836,6.81175781 24.5731055,8.63367188 Z" id="Shape" fill="#000000"></path>
                <polygon id="Path" fill="#F09525" points="9.76974609 29.1211523 10.5365039 23.4538477 11.3766797 23.4538477 12.1434375 29.1211523"></polygon>
            </g>
        </g>
    </g>
</svg>