<?xml version="1.0" encoding="UTF-8"?>
<svg width="30px" height="30px" viewBox="0 0 30 30" version="1.1" xmlns="http://www.w3.org/2000/svg" xmlns:xlink="http://www.w3.org/1999/xlink">
    <title>B1AD9E76-19DD-46E5-A2D9-0AA9760699C1@3x</title>
    <g id="Page-1" stroke="none" stroke-width="1" fill="none" fill-rule="evenodd">
        <g id="Layanan-Haken" transform="translate(-1124.000000, -3039.000000)" fill-rule="nonzero">
            <g id="quality-assurance" transform="translate(1124.000000, 3039.000000)">
                <path d="M18.8680645,15.2995161 L18.8709677,15.3077419 L18.8709677,16.7230645 C18.8709677,20.9172581 16.1070968,24.5603226 12.0967742,25.6451613 C8.08645161,24.5603226 5.32258065,20.9172581 5.32258065,16.7230645 L5.32258065,12.5806452 C7.69354839,12.3595161 9.99483871,11.7725806 12.0967742,10.6451613 C13.9151613,11.6206452 15.8820968,12.191129 17.9148387,12.4708065 L17.9230645,12.4954839 C17.9143548,12.3629032 17.9032258,12.2312903 17.9032258,12.0967742 C17.9032258,11.3966129 18.0333871,10.7279032 18.2608065,10.1066129 L18.2085484,9.98564516 C16.1172581,9.66725806 14.1469355,8.93709677 12.3527419,7.81596774 L12.0967742,7.65532258 L11.8403226,7.81548387 C9.38516129,9.35032258 6.55645161,10.1612903 3.66096774,10.1612903 L2.90322581,10.1612903 L2.90322581,16.7230645 C2.90322581,22.2048387 6.64064516,26.8640323 11.9917742,28.0529032 L12.0967742,28.076129 L12.2017742,28.0529032 C17.2891935,26.9225806 20.9835484,22.5416129 21.266129,17.3583871 C20.2891935,16.9040323 19.4583871,16.1898387 18.8680645,15.2995161 Z" id="Path" fill="#F09525"></path>
                <path d="M3.38709677,4.83870968 C2.58677419,4.83870968 1.93548387,4.18741935 1.93548387,3.38709677 C1.93548387,2.58677419 2.58677419,1.93548387 3.38709677,1.93548387 C4.18741935,1.93548387 4.83870968,2.58677419 4.83870968,3.38709677 C4.83870968,4.18741935 4.18741935,4.83870968 3.38709677,4.83870968 Z" id="Path" fill="#F09525"></path>
                <path d="M7.25806452,4.83870968 C6.45774194,4.83870968 5.80645161,4.18741935 5.80645161,3.38709677 C5.80645161,2.58677419 6.45774194,1.93548387 7.25806452,1.93548387 C8.0583871,1.93548387 8.70967742,2.58677419 8.70967742,3.38709677 C8.70967742,4.18741935 8.0583871,4.83870968 7.25806452,4.83870968 Z" id="Path" fill="#F09525"></path>
                <path d="M11.1290323,4.83870968 C10.3287097,4.83870968 9.67741935,4.18741935 9.67741935,3.38709677 C9.67741935,2.58677419 10.3287097,1.93548387 11.1290323,1.93548387 C11.9293548,1.93548387 12.5806452,2.58677419 12.5806452,3.38709677 C12.5806452,4.18741935 11.9293548,4.83870968 11.1290323,4.83870968 Z" id="Path" fill="#F09525"></path>
                <g id="Group" fill="#000000">
                    <polygon id="Path" points="9.05177419 17.561129 8.36758065 18.2453226 10.6775806 20.5553226 15.8554839 14.3419355 15.1122581 13.7225806 10.6127419 19.1220968"></polygon>
                    <path d="M30,12.0967742 C30,8.79145161 27.4359677,6.07935484 24.1935484,5.83112903 L24.1935484,1.4516129 C24.1935484,0.651290323 23.5422581,0 22.7419355,0 L1.4516129,0 C0.651290323,0 0,0.651290323 0,1.4516129 L0,28.5483871 C0,29.3487097 0.651290323,30 1.4516129,30 L23.7096774,30 C25.0437097,30 26.1290323,28.9146774 26.1290323,27.5806452 L26.1290323,20.3225806 C26.1290323,19.788871 25.695,19.3548387 25.1612903,19.3548387 L25.1612903,18.2114516 C27.9309677,17.5533871 30,15.0648387 30,12.0967742 Z M29.0322581,12.0967742 C29.0322581,15.0314516 26.6443548,17.4193548 23.7096774,17.4193548 C20.775,17.4193548 18.3870968,15.0314516 18.3870968,12.0967742 C18.3870968,9.16209677 20.775,6.77419355 23.7096774,6.77419355 C26.6443548,6.77419355 29.0322581,9.16209677 29.0322581,12.0967742 Z M17.475,12.8912903 C17.5925806,13.8164516 17.9114516,14.6782258 18.3870968,15.4335484 L18.3870968,16.7225806 C18.3870968,20.6341935 15.8070968,24.0779032 12.0967742,25.1424194 C8.38645161,24.0779032 5.80645161,20.6346774 5.80645161,16.7225806 L5.80645161,13.0166129 C8.14112903,12.7529032 10.2541935,12.1393548 12.0967742,11.1909677 C13.6974194,12.0154839 15.5051613,12.5840323 17.475,12.8912903 Z M1.4516129,0.967741935 L22.7419355,0.967741935 C23.0085484,0.967741935 23.2258065,1.185 23.2258065,1.4516129 L23.2258065,5.80645161 L0.967741935,5.80645161 L0.967741935,1.4516129 C0.967741935,1.185 1.185,0.967741935 1.4516129,0.967741935 Z M0.967741935,28.5483871 L0.967741935,6.77419355 L20.3724194,6.77419355 C18.6532258,7.85612903 17.4948387,9.74274194 17.4290323,11.9041935 C15.5491935,11.5916129 13.8333871,11.0274194 12.3256452,10.2183871 L12.0967742,10.0959677 L11.8679032,10.2183871 C9.97306452,11.235 7.75548387,11.8674194 5.27758065,12.0987097 L4.83870968,12.1398387 L4.83870968,16.7230645 C4.83870968,21.1151613 7.77145161,24.9764516 11.9704839,26.1120968 L12.0967742,26.1464516 L12.2230645,26.1120968 C16.4220968,24.9764516 19.3548387,21.1151613 19.3548387,16.7230645 L19.3548387,16.6253226 C20.1512903,17.3912903 21.1475806,17.9472581 22.2580645,18.2109677 L22.2580645,19.3548387 C21.7243548,19.3548387 21.2903226,19.788871 21.2903226,20.3225806 L21.2903226,27.5806452 C21.2903226,28.1274194 21.4795161,28.6267742 21.7867742,29.0322581 L1.4516129,29.0322581 C1.185,29.0322581 0.967741935,28.815 0.967741935,28.5483871 Z M25.1612903,20.3225806 L25.1612903,21.2903226 L22.2580645,21.2903226 L22.2580645,20.3225806 L25.1612903,20.3225806 Z M23.7096774,29.0322581 C22.9093548,29.0322581 22.2580645,28.3809677 22.2580645,27.5806452 L22.2580645,22.2580645 L25.1612903,22.2580645 L25.1612903,27.5806452 C25.1612903,28.3809677 24.51,29.0322581 23.7096774,29.0322581 Z M24.1935484,19.3548387 L23.2258065,19.3548387 L23.2258065,18.3624194 C23.3859677,18.375 23.546129,18.3870968 23.7096774,18.3870968 C23.8732258,18.3870968 24.0333871,18.375 24.1935484,18.3624194 L24.1935484,19.3548387 Z" id="Shape"></path>
                    <polygon id="Path" points="23.2258065 11.6129032 24.1935484 11.6129032 24.1935484 12.5806452 23.2258065 12.5806452"></polygon>
                    <polygon id="Path" points="25.1612903 11.6129032 26.1290323 11.6129032 26.1290323 12.5806452 25.1612903 12.5806452"></polygon>
                    <polygon id="Path" points="21.2903226 11.6129032 22.2580645 11.6129032 22.2580645 12.5806452 21.2903226 12.5806452"></polygon>
                </g>
            </g>
        </g>
    </g>
</svg>