<?xml version="1.0" encoding="UTF-8"?>
<svg width="30px" height="30px" viewBox="0 0 30 30" version="1.1" xmlns="http://www.w3.org/2000/svg" xmlns:xlink="http://www.w3.org/1999/xlink">
    <title>3C4DB3EF-765A-4A2C-8B1A-483232C099C1@3x</title>
    <g id="Page-1" stroke="none" stroke-width="1" fill="none" fill-rule="evenodd">
        <g id="Layanan-Haken" transform="translate(-212.000000, -3037.000000)" fill-rule="nonzero">
            <g id="computer-(1)" transform="translate(212.000000, 3037.000000)">
                <path d="M18.515625,20.2734375 C18.192215,20.2734375 17.9296875,20.535965 17.9296875,20.859375 C17.9296875,21.182785 18.192215,21.4453125 18.515625,21.4453125 C18.839035,21.4453125 19.1015625,21.182785 19.1015625,20.859375 C19.1015625,20.535965 18.839035,20.2734375 18.515625,20.2734375 Z" id="Path" fill="#000000"></path>
                <path d="M27.0703125,0 L2.9296875,0 C1.31423953,0 0,1.31423953 0,2.9296875 L0,20.859375 C0,22.474823 1.31423953,23.7890625 2.9296875,23.7890625 L12.0703125,23.7890625 L12.0703125,26.484375 L11.484375,26.484375 C10.7020569,26.484375 9.96665953,26.7892456 9.41299441,27.3426819 C8.85955811,27.896347 8.5546875,28.6317444 8.5546875,29.4140625 C8.5546875,29.7377014 8.81698605,30 9.140625,30 L20.859375,30 C21.1830139,30 21.4453125,29.7377014 21.4453125,29.4140625 C21.4453125,27.7986145 20.131073,26.484375 18.515625,26.484375 L17.9296875,26.484375 L17.9296875,23.7890625 L27.0703125,23.7890625 C28.6857605,23.7890625 30,22.474823 30,20.859375 L30,2.9296875 C30,1.31423953 28.6857605,0 27.0703125,0 Z M21.4453125,17.9296875 L21.4453125,5.0390625 L24.9609375,5.0390625 L24.9609375,6.2109375 L24.375,6.2109375 C24.0513611,6.2109375 23.7890625,6.47323605 23.7890625,6.796875 C23.7890625,7.12051395 24.0513611,7.3828125 24.375,7.3828125 L24.9609375,7.3828125 L24.9609375,9.140625 L24.375,9.140625 C24.0513611,9.140625 23.7890625,9.40292355 23.7890625,9.7265625 C23.7890625,10.0502014 24.0513611,10.3125 24.375,10.3125 L24.9609375,10.3125 L24.9609375,12.0703125 L24.375,12.0703125 C24.0513611,12.0703125 23.7890625,12.3326111 23.7890625,12.65625 C23.7890625,12.9798889 24.0513611,13.2421875 24.375,13.2421875 L24.9609375,13.2421875 L24.9609375,15.5859375 L24.375,15.5859375 C24.0513611,15.5859375 23.7890625,15.8482361 23.7890625,16.171875 C23.7890625,16.4955139 24.0513611,16.7578125 24.375,16.7578125 L24.9609375,16.7578125 L24.9609375,17.9296875 L21.4453125,17.9296875 Z M15.0972748,12.0298004 C15.3101349,12.0298004 15.5220795,12.0053101 15.7294464,11.9595337 C15.8381653,12.6564789 15.9979248,13.8896942 16.092453,15.5859375 L13.911438,15.5859375 C14.0105438,13.8908386 14.1778564,12.6383972 14.2934418,11.9178772 C14.5529938,11.991806 14.8233032,12.0298004 15.0972748,12.0298004 Z M15.0972748,10.8579254 C13.7580872,10.8579254 12.894516,9.4004059 13.5731507,8.22303773 L15.0972748,5.58448793 L16.6204834,8.22280887 C17.2966003,9.39537047 16.444931,10.8579254 15.0972748,10.8579254 Z M13.8576507,16.7578125 L16.1439514,16.7578125 C16.156311,17.1427917 16.1647796,17.5344086 16.1688996,17.9296875 L13.8313294,17.9296875 C13.8356781,17.5369263 13.8446045,17.1453094 13.8576507,16.7578125 Z M7.3828125,17.9296875 L7.3828125,9.7265625 L8.5546875,9.7265625 L8.5546875,17.9296875 L7.3828125,17.9296875 Z M5.0390625,17.9296875 L5.0390625,9.7265625 L6.2109375,9.7265625 L6.2109375,17.9296875 L5.0390625,17.9296875 Z M5.40115359,8.5546875 L6.796875,5.76324463 L8.19259641,8.5546875 L5.40115359,8.5546875 Z M20.1729584,28.828125 L9.82635498,28.828125 C9.91241455,28.5839081 10.052948,28.3600617 10.2415466,28.1712341 C10.5738831,27.8391266 11.0151673,27.65625 11.484375,27.65625 L18.515625,27.65625 C19.2796325,27.65625 19.9312591,28.1460571 20.1729584,28.828125 Z M16.7578125,26.484375 L13.2421875,26.484375 L13.2421875,23.7890625 L16.7578125,23.7890625 L16.7578125,26.484375 Z M27.0703125,22.6171875 L2.9296875,22.6171875 C1.96037291,22.6171875 1.171875,21.8286896 1.171875,20.859375 L1.171875,19.1015625 L28.828125,19.1015625 L28.828125,20.859375 C28.828125,21.8286896 28.0396271,22.6171875 27.0703125,22.6171875 Z" id="Shape" fill="#000000"></path>
                <path d="M2.9296875,1.171875 L27.0703125,1.171875 C28.0396271,1.171875 28.828125,1.96037291 28.828125,2.9296875 L28.828125,17.9296875 L26.1328125,17.9296875 L26.1328125,4.453125 C26.1328125,4.12948605 25.8705139,3.8671875 25.546875,3.8671875 L20.859375,3.8671875 C20.5357361,3.8671875 20.2734375,4.12948605 20.2734375,4.453125 L20.2734375,17.9296875 L17.3405456,17.9296875 C17.3343659,17.3236084 17.318573,16.7262268 17.293396,16.146698 C17.1908569,13.760376 16.9571686,12.1618652 16.8356323,11.4587402 C18.0445862,10.5686188 18.3746338,8.91883852 17.6355744,7.63710023 L15.6047058,4.11964418 C15.4998779,3.93836977 15.3064728,3.82667543 15.0972748,3.82667543 C14.8878479,3.82667543 14.6944427,3.93836977 14.5898437,4.11964418 L12.5580597,7.6373291 C11.8613434,8.8458252 12.1083069,10.4111481 13.2028198,11.3349152 C13.0760193,12.0359802 12.8201294,13.6917114 12.7088929,16.1455536 C12.6825714,16.7312622 12.665863,17.3291016 12.6594544,17.9296875 L9.7265625,17.9296875 L9.7265625,9.140625 C9.7265625,9.04769895 9.70458984,8.9630127 9.66865541,8.88771059 C9.66705322,8.88473508 9.6661377,8.88153076 9.66476437,8.87855531 L7.32101437,4.19105531 C7.22167969,3.99261475 7.01889035,3.8671875 6.796875,3.8671875 C6.57485965,3.8671875 6.37207031,3.99261475 6.27273562,4.19105531 L3.92898562,8.87855531 C3.9276123,8.88153076 3.92669678,8.88473508 3.92532352,8.88771059 C3.88870242,8.96369936 3.8671875,9.04975893 3.8671875,9.140625 L3.8671875,17.9296875 L1.171875,17.9296875 L1.171875,2.9296875 C1.171875,1.96037291 1.96037291,1.171875 2.9296875,1.171875 Z" id="Path" fill="#F09525"></path>
                <path d="M16.171875,20.2734375 L12.65625,20.2734375 C12.3326111,20.2734375 12.0703125,20.5357361 12.0703125,20.859375 C12.0703125,21.1830139 12.3326111,21.4453125 12.65625,21.4453125 L16.171875,21.4453125 C16.4955139,21.4453125 16.7578125,21.1830139 16.7578125,20.859375 C16.7578125,20.5357361 16.4955139,20.2734375 16.171875,20.2734375 Z" id="Path" fill="#000000"></path>
            </g>
        </g>
    </g>
</svg>